<?xml version="1.0" encoding="UTF-8"?><svg id="a" xmlns="http://www.w3.org/2000/svg" xmlns:xlink="http://www.w3.org/1999/xlink" viewBox="0 0 750 183.8448"><defs><linearGradient id="c" x1="375" y1="299.70238" x2="375" y2="553.93539" gradientTransform="translate(0 377.87102) scale(1 -1)" gradientUnits="userSpaceOnUse"><stop offset="0" stop-color="#eff6fa"/><stop offset="1" stop-color="#b4d2e6"/></linearGradient><linearGradient id="d" x1="516.93665" y1="386.77802" x2="516.93665" y2="551.68375" gradientTransform="translate(0 377.87102) scale(1 -1)" gradientUnits="userSpaceOnUse"><stop offset="0" stop-color="#eff6fa" stop-opacity=".3"/><stop offset="1" stop-color="#eff6fa" stop-opacity="0"/></linearGradient><linearGradient id="e" x1="89.84345" y1="382.44993" x2="89.84345" y2="507.43658" gradientTransform="translate(0 377.87102) scale(1 -1)" gradientUnits="userSpaceOnUse"><stop offset="0" stop-color="#eff6fa" stop-opacity=".3"/><stop offset="1" stop-color="#eff6fa" stop-opacity="0"/></linearGradient><linearGradient id="f" x1="432.82809" y1="350.56538" x2="432.82809" y2="265.64443" gradientTransform="translate(0 377.87102) scale(1 -1)" gradientUnits="userSpaceOnUse"><stop offset="0" stop-color="#b6d3e7" stop-opacity="0"/><stop offset="1" stop-color="#90bddb" stop-opacity=".5"/></linearGradient><linearGradient id="g" x1="211.09009" y1="336.82693" x2="211.09009" y2="264.21911" gradientTransform="translate(0 377.87102) scale(1 -1)" gradientUnits="userSpaceOnUse"><stop offset="0" stop-color="#bad6e8" stop-opacity="0"/><stop offset="1" stop-color="#90bddb" stop-opacity=".5"/></linearGradient><linearGradient id="h" x1="390.49747" y1="255.4732" x2="363.88655" y2="94.19499" gradientTransform="translate(0 377.87102) scale(1 -1)" gradientUnits="userSpaceOnUse"><stop offset="0" stop-color="#75acd2" stop-opacity="0"/><stop offset="1" stop-color="#3b8abf" stop-opacity=".4"/></linearGradient><linearGradient id="i" x1="251.77394" y1="258.61318" x2="251.77394" y2="244.89855" gradientTransform="translate(0 377.87102) scale(1 -1)" gradientUnits="userSpaceOnUse"><stop offset="0" stop-color="#30688d"/><stop offset=".59946" stop-color="#106ead"/><stop offset="1" stop-color="#0072bf"/></linearGradient><linearGradient id="j" x1="283.87325" y1="263.40093" x2="283.87325" y2="249.8442" gradientTransform="translate(0 377.87102) scale(1 -1)" gradientUnits="userSpaceOnUse"><stop offset="0" stop-color="#30688d"/><stop offset=".59946" stop-color="#106ead"/><stop offset="1" stop-color="#0072bf"/></linearGradient><linearGradient id="k" x1="317.18557" y1="269.31124" x2="317.18557" y2="255.92614" gradientTransform="translate(0 377.87102) scale(1 -1)" gradientUnits="userSpaceOnUse"><stop offset="0" stop-color="#30688d"/><stop offset=".59946" stop-color="#106ead"/><stop offset="1" stop-color="#0072bf"/></linearGradient><linearGradient id="l" x1="180.42515" y1="272.89175" x2="180.42515" y2="259.50655" gradientTransform="translate(0 377.87102) scale(1 -1)" gradientUnits="userSpaceOnUse"><stop offset="0" stop-color="#30688d"/><stop offset=".59946" stop-color="#106ead"/><stop offset="1" stop-color="#0072bf"/></linearGradient><linearGradient id="m" x1="3300.68492" y1="259.28411" x2="3300.68492" y2="242.95064" gradientTransform="translate(3508.06055 377.87102) rotate(-180)" gradientUnits="userSpaceOnUse"><stop offset="0" stop-color="#30688d"/><stop offset=".59946" stop-color="#106ead"/><stop offset="1" stop-color="#0072bf"/></linearGradient><linearGradient id="n" x1="586.73316" y1="287.6845" x2="586.73316" y2="258.77352" gradientTransform="translate(0 377.87102) scale(1 -1)" gradientUnits="userSpaceOnUse"><stop offset="0" stop-color="#30688d"/><stop offset=".59946" stop-color="#106ead"/><stop offset="1" stop-color="#0072bf"/></linearGradient></defs><image width="2764" height="1692" transform="translate(-.6465 -32.76706) scale(.27077)" xlink:href="../178121921-7f89b9a1-4072-4633-8c18-0575b768eba4.png"/><g id="b"><g><rect y="-182.00938" width="750" height="500" fill="url(#c)"/><g><path d="M750-69.41467c-1.51154,1.0087-2.30475,2.1938-1.75421,3.5454-2.3266-5.7107-7.8266-10.004-13.93127-10.8746-6.10498-.8707-12.58649,1.7144-16.41681,6.5475,1.16162-7.8082-4.75879-15.9887-12.53912-17.3254-7.78009-1.3367-16.09137,4.3987-17.60248,12.1469-.24219-7.2096-11.00708-11.193-15.88397-5.8776-.06897-7.3507-4.72418-14.4638-11.43292-17.4691-6.7085-3.0053-15.11548-1.7438-20.64648,3.0982,1.83771-9.9973-6.41882-19.7454-16.14789-22.6905-9.03259-2.7341-18.14032,.7877-26.29401,4.8981-1.08423-10.9261-11.07501-18.9171-21.32098-22.8637-15.53351-5.9832-33.79053-5.4049-48.21802,2.8975-14.4278,8.3025-24.30688,24.6016-23.5528,41.2304-10.63791-5.6362-25.69131,.6294-29.18872,12.1489-1.4346-9.8149-11.1311-17.6865-21.03119-17.0734-9.90039,.6132-18.5513,9.6211-18.7641,19.5381-2.39661-4.1251-9.08121-4.0011-12.284-.4653-3.2027,3.5358-3.29031,9.0675-1.48611,13.4839-2.9968-2.7915-8.90799-.1423-8.8186,3.9523-3.0369-9.792-16.87949-12.824-25.5972-7.4287-8.7175,5.3953-12.62161,16.247-13.09909,26.488-2.97141-2.7921-8.28592-2.47951-10.90942,.64169-2.6236,3.1212-2.0177,8.4102,1.24359,10.85719-5.7576-1.66721-11.86069-3.3432-17.6579-1.819-5.79721,1.52409-10.85641,7.5529-9.06671,13.2737-5.43192-3.0107-13.2644,2.3598-12.41379,8.5118-6.86411-7.0686-20.8132-4.2216-24.35822,4.9715-5.69019-.9059-11.6261-.21291-16.95428,1.97951,11.0209,4.01241,23.25549,4.6189,34.61929,1.716,3.48541,5.33521,12.44171,5.69839,16.34769,.6629,5.96149,7.1153,19.46021,4.8622,22.7876-3.8036,14.13431,11.9225,39.48221,4.8201,45.36359-12.71091,6.4899,8.6936,21.34601,9.0921,28.29269,.759,.71851,6.0145,5.96921,11.1783,11.99469,11.7963,6.0257,.618,12.21521-3.3726,14.13959-9.116,15.64911,17.8045,47.7688,16.7187,62.1796-2.1021,5.73248,8.612,16.05402,13.96381,26.39563,13.68629s20.36133-6.1752,25.62341-15.08231c5.42261,7.6877,17.47839,9.58051,24.99591,3.9247,9.86206,10.0553,28.73425,8.70779,37.06769-2.64661,3.1745,9.8884,13.03351,17.2316,23.41699,17.4413,10.3833,.2097,20.5307-6.72949,24.10181-16.4817,2.83472,5.793,11.82867,7.21719,16.31439,2.5834,7.13757,12.2393,27.30078,13.5639,35.97827,2.3634,4.2749,5.063,10.14038,8.6544,16.50781,10.4684V-69.41467h.00006Z" fill="url(#d)"/><path d="M176.54388-14.04008c-1.8271,.0331-3.64349,.54829-5.216,1.47971-.4812-1.84171-2.8349-2.91409-4.5405-2.069-.5264,.2608-.9893,.6687-1.56129,.80231-1.3185,.30811-2.4463-.90491-3.3203-1.939-2.48421-2.9393-5.62379-5.4805-9.34061-6.4782-3.7171-.9976-8.05969-.20219-10.65649,2.63811,1.20799-1.3212-6.6403-5.68649-7.50459-5.959-3.5311-1.1136-7.0462-.9521-9.6552,1.8457-1.3524-7.3204-7.2729-13.5912-14.5038-15.3614-7.2307-1.77029-15.3784,1.05611-19.9596,6.9239-.0442-4.9852-7.055-8.2128-10.8711-5.00481,.6178-5.9763-8.5401-9.93159-12.4674-5.3847,2.9495-8.36279-1.1069-18.5979-8.9846-22.6696s-18.5735-1.4617-23.6901,5.781c-.0854-6.0533-.2517-12.4123-3.296-17.6451-3.0442-5.2328-10.0091-8.7121-15.3379-5.8392,2.8814-4.9292-2.6211-12.1446-8.1369-10.6703,3.5398-.9461,1.4731-10.7793,.6724-12.7637C6.5663-110.33827,3.6277-113.18667,0-115.07157V-2.21058C.9143-1.48667,1.9243-.88387,2.9634-.45658,5.1956,.46152,7.6002,.86312,10.0012,.80071c5.7551-.1497,11.489-2.96581,14.7737-7.72791,.7229,3.9946,5.5615,6.1275,9.5417,5.3284,3.98-.7991,7.1919-3.6593,10.0688-6.52341C51.1216-2.1603,60.3563,.88309,69.3174,.0945c8.9609-.7886,17.5221-5.39819,23.1135-12.4449,2.1378,4.4841,7.7987,6.383,12.7107,5.6418,4.9121-.7412,9.2375-3.5442,13.3247-6.3679,1.9976,5.3248,10.1392,6.9153,13.994,2.7339,5.5719,4.3895,14.38049,3.9287,19.464-1.0184,2.5554,2.8645,7.4783,3.1597,10.35789,.62131,1.1088,2.0071,3.9668,1.9451,6.2355,1.6123,3.1395-.46069,6.27921-.9213,9.41859-1.382,.4836-.07091,.99831-.1561,1.35941-.4856,1.31709-1.2023-.96869-3.0773-2.7518-3.0451l-.00002,.00002Z" fill="url(#e)"/></g><g><polygon points="720.78003 -182.00938 595.89001 134.71062 502.87 134.71062 669.39001 -182.00938 720.78003 -182.00938" fill="#f3f8fb" isolation="isolate" opacity=".15"/><polygon points="613.20001 -182.00938 468.25 134.71062 280.45999 134.71062 454.73001 -182.00938 613.20001 -182.00938" fill="#f3f8fb" isolation="isolate" opacity=".15"/><polygon points="579.52002 -182.00938 436.29999 134.71062 379.44 134.71062 548.66986 -182.00938 579.52002 -182.00938" fill="#f3f8fb" isolation="isolate" opacity=".2"/><polygon points="510.14001 -182.00938 345.67999 134.71062 317.37 134.71062 494.39001 -182.00938 510.14001 -182.00938" fill="#f3f8fb" isolation="isolate" opacity=".2"/><polygon points="369.97 -182.00938 208.25999 134.71062 159.27 134.71062 345.59 -182.00938 369.97 -182.00938" fill="#f3f8fb" isolation="isolate" opacity=".15"/><polygon points="199.56 -182.00938 23.21 134.71062 0 134.71062 0 34.46062 141.39 -182.00938 199.56 -182.00938" fill="#f3f8fb" isolation="isolate" opacity=".15"/></g><g><g><path d="M750,41.83602c-28.06854-11.2968-98.84821-15.0399-168.87219-13.104-140.8934,3.8951-320.25638,49.35278-465.47168,86.19H750.00006l-.00006-73.086Z" fill="#b6d3e7"/><path d="M537.86816,63.93662c54.12811-4.8764,80.28131-11.5722,80.28131-11.5722,0,0-38.55261,18.75929-24.95062,20.83479,13.60193,2.07529,172.30811-31.0753,109.16943-40.93629l-.02081-.0851c-33.69812-3.65359-77.60431-4.6516-121.21973-3.4458-58.32812,1.6125-123.25101,10.35201-189.61301,22.6505-1.84991,1.08839-3.34521,2.24989-4.46161,3.5134-8.66269,9.80409,96.6868,13.91701,150.81503,9.0407v.00002Z" fill="#c6ddec"/><path d="M750.00006,41.83593c-7.62299-3.06799-18.40131-5.5775-31.45361-7.5688,62.82178,21.96111-12.97479,87.89931-180.64703,75.45851-158.97549-11.79568-185.3924-39.2952-168.99841-54.0293-32.07239,6.28729-64.34119,13.3045-96.2359,20.65881l-2.5275,38.29791h479.8624V41.83596l.00006-.00003Z" fill="#9ec5df"/><path d="M750,41.83602c-28.06854-11.2968-98.84821-15.0399-168.87219-13.104-140.8934,3.8951-320.25638,49.35278-465.47168,86.19H750.00006l-.00006-73.086Z" fill="url(#f)"/></g><g><path d="M422.18018,114.65304s-86.3598-47.1389-217.85728-70.7731C72.8254,20.24583,0,33.45823,0,33.45823V114.65304H422.18018Z" fill="#bad6e8"/><path d="M229.58218,61.33832c116.08688,21.96349,192.59799,53.31471,192.59799,53.31471,0,0-86.3598-47.1389-217.85728-70.7731C72.8253,20.24572,0,33.45812,0,33.45812v15.5681s93.6498-13.4062,229.58218,12.3121Z" fill="#d9e9f3"/><path d="M0,64.45421s111.0326-3.4191,162.336,6.2133c51.30339,9.63249-20.2341,21.90691-3.56531,26.51341s263.40948,17.47211,263.40948,17.47211H0v-50.19882Z" fill="#a6cae2"/><path d="M422.18018,114.65304s-86.3598-47.1389-217.85728-70.7731C72.8254,20.24583,0,33.45823,0,33.45823V114.65304H422.18018Z" fill="url(#g)"/></g><g><path d="M749.99927,54.58842c-1.35468-1.46339-2.65167-1.7345-4.69031-1.70419-.6366,.0094-1.28534,.0739-1.8681,.3302-.55359,.24339-1.02142,.6487-1.43402,1.0909-1.21619,1.3036-2.01971,2.98669-2.2688,4.75211-1.10681-1.01781-2.93988-1.5498-4.33221-.8526-1.40271,.7025-2.3053,2.297-2.18561,3.8613-2.08325-2.8696-6.2251-4.1792-9.44177-2.6868-3.2168,1.4924-4.86401,5.8461-3.13867,8.94411-1.07812-.489-2.47913-.1048-3.15698,.8658-.6778,.9705-.55609,2.4182,.27423,3.2621-1.96124,.1257-3.96143,.4698-5.65082,1.47369-1.68951,1.00391-3.02393,2.77339-3.07281,4.73799-.04883,1.9646,1.47552,3.9697,3.43842,4.06461-1.06329,.10641-2.15973,.22281-3.09576,.73819-.93597,.5155-1.6781,1.53961-1.52563,2.59729,.18597,1.29059,1.5202,2.0473,2.7207,2.55649-2.14252,1.8154-2.19592,5.41901-.41217,7.58801,1.78381,2.16901,4.9613,2.89191,7.67181,2.15781,.02209,2.18192,1.38538,4.2034,3.1983,5.41769,1.81299,1.2142,4.02136,1.7113,6.19849,1.85791,3.54022,.23849,7.34882-.5069,9.89258-2.98059h12.87994l-.00073-48.07199-.00006-.00002Z" fill="#3f8cc0"/><path d="M750,69.32452c-3.41699-1.1366-6.64093-.76711-9.49982,1.42261s-3.94153,6.7308-1.70062,9.5498c-2.63037-.79181-5.6283,1.85709-5.16656,4.56491-.70599-4.14029-6.04895-3.61279-8.56702-1.75381-1.98621,1.46619-3.14484,3.9852-2.96564,6.44739-2.56897-.71759-5.4826,1.66769-5.28638,4.3277-2.61798-1.5686-6.21753-1.28329-8.55573,.67831-2.33807,1.96161-3.24487,5.4567-2.15527,8.3075-1.27722-.09531-2.60199-.1843-3.80084,.2666-1.19879,.4509-2.23517,1.60419-2.11792,2.87949-1.57501-1.38849-3.85168-1.93579-5.88568-1.41501-2.03412,.5209-3.7674,2.09509-4.4812,4.06979-1.75818-.93939-4.07532-.70279-5.6073,.5726-1.5321,1.27539-2.18488,3.5112-1.57977,5.41061h67.36981l-.00006-45.32849Z" fill="#69a5ce"/></g><g><rect y="114.65304" width="750.00006" height="203.33759" fill="#8ebcda"/><path d="M750.00006,161.06814C541.42499,129.70864,322.46838,124.70843,0,124.12453v-9.4715H750l.00006,46.4151Z" fill="#aacce3"/><path d="M0,317.99062V184.9966s258.896-31.53311,460.37628-14.75311c201.48016,16.78,289.62378,54.8298,289.62378,54.8298v92.9173H0v.00003Z" fill="#75acd2"/><path d="M479.952,114.65304c31.43539,7.36459,108.95779,38.19019,128.09341,54.65161,10.40131,8.94781-4.49719,10.42279-45.84308,27.8479-40.43689,17.04199-71.2648,40.84189-97.2919,65.89252-26.0271,25.05051-73.74359,54.94559-181.57028,54.94559h248.66278s10.32062-13.12149,24.67102-39.2739c15.39441-28.05481,20.24329-40.59479,68.9682-62.3949,48.72479-21.80011,66.43622-26.26431,56.16119-36.59439-12.75031-12.8187-90.47528-51.36942-172.2749-65.0744h-29.57639l-.00006-.00003Z" fill="#b2d1e6"/><path d="M613.70349,144.34041c-29.94128-11.8696-66.62622-23.3963-104.17511-29.68741h-29.57639c15.81168,3.70419,43.2825,13.3446,69.11917,24.1066,21.89227,1.66629,43.40521,3.52151,64.63232,5.58081Z" fill="#cadfee"/><rect y="114.65304" width="750" height="203.33759" fill="url(#h)"/></g><g><path d="M.0007,54.58842c1.3548-1.46339,2.6517-1.7345,4.6903-1.70419,.6366,.0094,1.2853,.0739,1.8681,.3302,.5536,.24339,1.0214,.6487,1.434,1.0909,1.2162,1.3036,2.0197,2.98669,2.2688,4.75211,1.1068-1.01781,2.9399-1.5498,4.3322-.8526,1.4028,.7025,2.3053,2.297,2.1856,3.8613,2.0833-2.8696,6.2251-4.1792,9.4418-2.6868,3.2168,1.4924,4.864,5.8461,3.1387,8.94411,1.0781-.489,2.4791-.1048,3.157,.8658,.6778,.9705,.5561,2.4183-.2742,3.2621,1.9612,.1257,3.9614,.4698,5.6508,1.47369,1.6895,1.00391,3.0239,2.77351,3.0728,4.73799,.0488,1.9646-1.4755,3.96979-3.4384,4.06461,1.0633,.10641,2.1597,.22281,3.0958,.73831,.936,.51541,1.6781,1.53949,1.5256,2.5972-.186,1.29059-1.5202,2.0473-2.7207,2.55649,2.1425,1.8154,2.1959,5.41901,.4122,7.58801s-4.9613,2.89191-7.6718,2.15781c-.0221,2.18188-1.3854,4.2034-3.1983,5.41769-1.813,1.2142-4.0214,1.7113-6.1985,1.858-3.5402,.2384-7.3488-.50699-9.8926-2.98071H0L.0007,54.58843v-.00002Z" fill="#3f8cc0"/><path d="M.0001,69.32452c3.4171-1.1366,6.6409-.76711,9.4998,1.42261,2.8589,2.18971,3.9415,6.7308,1.7007,9.5498,2.6303-.79181,5.6283,1.85709,5.1665,4.56491,.706-4.14029,6.049-3.61279,8.5671-1.75381,1.9861,1.46619,3.1448,3.9852,2.9655,6.44739,2.569-.71759,5.4826,1.66769,5.2864,4.3277,2.618-1.5686,6.2175-1.2832,8.5557,.67831,2.3382,1.96161,3.2449,5.4567,2.1553,8.3075,1.2772-.09531,2.6021-.1843,3.8008,.2666,1.1988,.4509,2.2352,1.60419,2.1179,2.87949,1.5751-1.38849,3.8517-1.93579,5.8858-1.41489,2.034,.52081,3.7674,2.09509,4.4811,4.0697,1.7582-.93939,4.0753-.70279,5.6074,.5726,1.532,1.27539,2.1848,3.5112,1.5798,5.41061H0l.0001-45.32849v-.00003Z" fill="#6ba6cf"/></g><g><path d="M81.1417,213.85653c-6.4112-.4061-12.8298-.6944-19.2516-.8649-12.8435-.34091-25.6996-.21051-38.5335,.3913-5.647,.2648-11.2896,.62091-16.9251,1.0683L0,214.31283v-66.57928c0-.3277,3.8176-2.73029,9.1377-2.73001,3.4584,.00031,7.8916,2.3938,10.2413,4.957,3.548,3.87039,4.3488,10.01071,1.9121,14.66159,2.6376-2.01489,6.7137-.80371,8.8426,1.7428,2.1289,2.5466,2.7777,5.98831,3.2148,9.27859,1.698-2.34201,3.976-4.36301,6.7316-5.2431,2.7556-.88019,6.0188-.4577,8.1408,1.50839,2.0223,1.87381,2.7362,4.83719,2.5089,7.58481s-1.2735,5.35199-2.3077,7.90771c2.269-.19061,4.6053,.7337,6.1298,2.42499s2.2022,4.11069,1.7779,6.34781c1.9224-1.26001,4.6393-1.1554,6.4591,.2486,2.5252,1.94821,2.1001,5.16061,2.2531,7.97501,3.012-1.4585,7.1393,.6207,7.7599,3.90921,.5144-1.68951,2.8602-2.24969,5.0918-1.853,1.1993,.2132,2.2664,1.69901,2.5218,2.89001,.7658-.65491,1.8921-.78979,2.8542-.4903,.9622,.29941,1.7687,.98499,2.3751,1.78979,.4936,.655,.8829,1.47321,.7128,2.27551-.4106,1.93771-3.8792,1.02219-5.2159,.93759v-.00003Z" fill="#3f8cc0"/><path d="M57.3712,210.19121c-.8353-3.49341-3.6871-6.51031-7.0722-7.93149-4.2259-1.7742-9.0572-1.4664-13.5102-.3815-.7235-2.81808-3.2165-5.09769-6.088-5.56671-2.8716-.46899-5.9602,.8988-7.543,3.3403,1.3786-2.86301-1.2219-5.75311-4.3929-5.54871,.7043-2.88129-.5784-5.1929-2.6071-5.62589-2.0286-.43311-4.0805,.4668-5.9487,1.36859,2.4785-4.23981,1.8096-10.07999-1.5637-13.64941C6.3253,173.74129,2.9458,172.39159,0,172.67461v38.93289l6.4315,.1384c16.9413-1.34491,33.9478-1.8595,50.9397-1.55469Z" fill="#00263f"/></g><g><g><g><path d="M695.37848,149.55642s-.02789-2.33301,2.16461-3.10681c2.19238-.7738,4.64282,.38931,4.64282,.38931,0,0-1.09619,1.60971-2.83728,2.25449-1.74103,.6449-3.97009,.46301-3.97009,.46301h-.00006Z" fill="#3d8bc0"/><path d="M693.80798,149.55642s-.63123-4.67651,2.26129-5.4715c2.8924-.79501,4.8269-.60159,4.8269-.60159,0,0-.51581,3.46301-2.90167,4.6333s-4.18646,1.43979-4.18646,1.43979h-.00006Z" fill="#3d8bc0"/></g><g><path d="M690.15155,139.51351c-1.40637,2.19971-1.68103,5.02139,0,7.2626,1.31812,1.75729,3.65643,2.7803,3.65643,2.7803,0,0,1.07867-2.24741,.21216-5.02151-.86652-2.77399-3.86859-5.02139-3.86859-5.02139Z" fill="#4590c2"/><path d="M695.37848,149.55642s-.73712-3.289,.36859-5.02151c1.10571-1.73239,2.76428-2.28531,2.76428-2.28531,0,0,.36328,2.44141,0,3.65341-.64502,2.1517-3.13287,3.65341-3.13287,3.65341Z" fill="#4590c2"/><path d="M691.67426,149.39422c-.46069-1.01349-2.88629-2.8031-3.992-2.5267-1.10571,.27649-.52283,1.24911,.711,1.92429,.79602,.43561,3.28101,.60239,3.28101,.60239v.00003Z" fill="#4590c2"/></g></g><g><g><path d="M160.2251,160.47353s-.9603-2.40399,1.06821-4.0072c2.0285-1.60309,3.8936-1.17401,3.8936-1.17401,0,0-2.51041,.86401-2.85091,1.93381-.3405,1.06989-2.1109,3.24741-2.1109,3.24741Z" fill="#3d8bc0"/><path d="M161.5518,160.64312s.3656-2.58109,2.1601-3.6734c1.7944-1.09229,4.7592-.50339,4.7592-.50339,0,0-1.0533,2.45389-2.8477,3.1561-1.79449,.70209-4.07159,1.02069-4.07159,1.02069Z" fill="#3d8bc0"/><path d="M163.2887,160.64312s1.7067-1.5585,3.17149-1.50421c1.46471,.05441,2.51801,1.0296,2.51801,1.0296,0,0-.9752,.85818-2.34061,.89719-1.3653,.039-3.34891-.42261-3.34891-.42261l.00002,.00003Z" fill="#3d8bc0"/></g><g><path d="M161.5518,160.64312s-1.7374-1.5058-1.15829-4.1698c.5791-2.66409,3.1274-4.18369,3.1274-4.18369,0,0,1.1582,2.90948,.81081,4.99451-.3475,2.0849-2.77991,3.35901-2.77991,3.35901v-.00003Z" fill="#4590c2"/><path d="M160.2753,160.64312s-3.0092-1.39001-3.0092-2.77991,1.0425-4.05399,1.0425-4.05399c0,0,.92661,1.14441,1.0424,2.6571,.11591,1.5127,.9243,4.17679,.9243,4.17679Z" fill="#4590c2"/><path d="M163.2887,160.64312s1.4319-2.9028,3.7682-2.45059c0,0,.60291,2.56491-3.7682,2.45059Z" fill="#4590c2"/></g></g><g><g><path d="M355.5864,176.43563c-.19879-1.27289,2.92871-3.55869,3.4122-3.12381,.4834,.43491-.44839,1.298-1.38019,2.14771-.93188,.8497-2.03201,.9761-2.03201,.9761Z" fill="#3d8bc0"/><path d="M357.2916,176.43563s.40442-2.87369,2.96689-3.7131c2.5625-.83939,4.1156,0,4.1156,0,0,0-.99179,1.96429-2.7955,2.737s-4.28699,.9761-4.28699,.9761Z" fill="#3d8bc0"/><path d="M363.6752,175.92101c-.32761-.6553-2.98581-1.24921-4.67661,.38489,0,0,1.7258,.56131,2.81299,.51529,1.0871-.04611,2.3295,.03159,1.86359-.90021l.00003,.00003Z" fill="#3d8bc0"/></g><g><path d="M360.2168,168.40133c1.12509,1.7598,1.3447,4.01709,0,5.81-1.0545,1.40591-2.9252,2.2243-2.9252,2.2243,0,0-.86301-1.79791-.16971-4.01721,.69321-2.21921,3.09491-4.01709,3.09491-4.01709Z" fill="#4590c2"/><path d="M355.95428,175.45952s.24609-2.68521-.80951-3.94571c-1.0556-1.26059-2.42841-1.52841-2.42841-1.52841,0,0-.0368,1.9743,.37631,2.89841,.73331,1.64059,2.8616,2.57571,2.8616,2.57571Z" fill="#4590c2"/><path d="M358.9986,176.30593c.3685-.81091,2.30899-2.24249,3.1936-2.02139,.88461,.22119,.4183,.99921-.56879,1.5394-.63681,.34851-2.62479,.48199-2.62479,.48199h-.00003Z" fill="#4590c2"/><path d="M355.5864,176.43563s-1.29111-2.05731-3.9726-2.4545c0,0-.32889,.8938,1.10181,1.7876,1.43069,.89389,2.87079,.6669,2.87079,.6669Z" fill="#4590c2"/></g></g><g><g><path d="M41.4862,139.69903c-.2484-1.59109,3.661-4.44839,4.2653-3.90479,.6043,.5437-.5605,1.62259-1.7253,2.68469s-2.54,1.22009-2.54,1.22009Z" fill="#3d8bc0"/><path d="M43.6178,139.69903s.5055-3.59219,3.7086-4.64139c3.2031-1.04929,5.1444,0,5.1444,0,0,0-1.2396,2.45541-3.4943,3.4213s-5.3587,1.22009-5.3587,1.22009Z" fill="#3d8bc0"/><path d="M51.5973,139.05572c-.4096-.819-3.7323-1.5614-5.8458,.48111,0,0,2.1573,.70169,3.5162,.6442,1.3589-.05759,2.9119,.03949,2.3296-1.12531Z" fill="#3d8bc0"/></g><g><path d="M47.2742,129.65612c1.4064,2.19971,1.681,5.02139,0,7.26251-1.3181,1.75739-3.6564,2.7804-3.6564,2.7804,0,0-1.0787-2.2475-.2122-5.02151s3.8686-5.02139,3.8686-5.02139Z" fill="#4590c2"/><path d="M41.9462,138.47893s.3076-3.35651-1.0119-4.93219-3.0355-1.91049-3.0355-1.91049c0,0-.046,2.4679,.4703,3.62299,.9166,2.05069,3.5771,3.2197,3.5771,3.2197Z" fill="#4590c2"/><path d="M45.7515,139.53683c.4607-1.01349,2.8863-2.8031,3.992-2.5267,1.1057,.27649,.5228,1.24911-.7111,1.92429-.7959,.43561-3.2809,.60239-3.2809,.60239v.00003Z" fill="#76aed2"/><path d="M41.4862,139.69903s-1.6138-2.57159-4.9657-3.06821c0,0-.4112,1.11731,1.3773,2.23459,1.7884,1.11731,3.5884,.83359,3.5884,.83359v.00003Z" fill="#4590c2"/></g></g><g><path d="M370.01309,125.62841s-5.6994,7.70291-8.1109,23.61459c-2.4115,15.91159,8.1109,17.62009,8.1109,17.62009,0,0,9.24149-2.74319,7.49149-17.59409s-7.49149-23.64059-7.49149-23.64059Z" fill="#579bc8"/><polygon points="369.63409 148.30102 368.56769 176.29232 371.15509 176.29232 369.63409 148.30102" fill="#3989bf"/></g><g><g><path d="M624.15186,78.93703s-4.01782,5.43021-5.71777,16.64731,5.71777,12.42151,5.71777,12.42151c0,0,6.51489-1.93381,5.28131-12.40311-1.2337-10.4693-5.28131-16.66571-5.28131-16.66571Z" fill="#63a2cc"/><polygon points="623.88477 94.92022 623.133 114.65304 624.95697 114.65304 623.88477 94.92022" fill="#3989bf"/></g><g><path d="M636.28467,64.15462s-5.68079,7.6777-8.08441,23.53741,8.08441,17.56259,8.08441,17.56259c0,0,9.2113-2.73419,7.4671-17.53659-1.74432-14.8024-7.4671-23.5634-7.4671-23.5634v-.00002Z" fill="#579bc8"/><polygon points="635.90686 86.75313 634.84399 114.65304 637.42297 114.65304 635.90686 86.75313" fill="#3989bf"/></g></g><g><g><path d="M87.4133,78.93703s4.0178,5.43021,5.7179,16.64731c1.7,11.2171-5.7179,12.42151-5.7179,12.42151,0,0-6.5149-1.93381-5.2812-12.40311,1.2336-10.4693,5.2812-16.66571,5.2812-16.66571Z" fill="#63a2cc"/><polygon points="87.6805 94.92022 88.4322 114.65304 86.6082 114.65304 87.6805 94.92022" fill="#3989bf"/></g><g><path d="M75.2805,64.15462s5.6808,7.6777,8.0844,23.53741c2.4037,15.85971-8.0844,17.56259-8.0844,17.56259,0,0-9.2113-2.73419-7.467-17.53659s7.467-23.5634,7.467-23.5634v-.00002Z" fill="#579bc8"/><polygon points="75.6583 86.75313 76.7212 114.65304 74.1422 114.65304 75.6583 86.75313" fill="#3989bf"/></g></g><g><g><path d="M154.6273,109.72561s-5.6994,7.70291-8.1109,23.61459,8.1109,17.62021,8.1109,17.62021c0,0,9.2415-2.74329,7.49159-17.59421-1.75-14.85089-7.49161-23.64059-7.49161-23.64059h.00002Z" fill="#63a2cc"/><polygon points="154.24831 132.39822 153.1819 160.38952 155.76939 160.38952 154.24831 132.39822" fill="#3989bf"/></g><g><path d="M141.5517,104.32412s-5.6994,7.70291-8.1109,23.61459,8.1109,17.62021,8.1109,17.62021c0,0,9.2415-2.74319,7.4915-17.59412-1.74989-14.85101-7.4915-23.64069-7.4915-23.64069Z" fill="#579bc8"/><polygon points="141.1727 126.99673 140.10629 154.98812 142.6938 154.98812 141.1727 126.99673" fill="#3989bf"/></g></g><g><path d="M599.88318,154.33584c-2.31232,1.21249-3.95032,3.52649-3.60229,6.30621,.27289,2.17981,1.7959,4.22791,1.7959,4.22791,0,0,2.05139-1.4165,2.67493-4.255s-.86853-6.27911-.86853-6.27911Z" fill="#cadfee"/><path d="M599.44049,165.64883s.99127-3.2215,2.81073-4.17731c1.8194-.9559,3.53381-.61331,3.53381-.61331,0,0-.89545,2.30011-1.81213,3.1723-1.62732,1.5484-4.53241,1.61829-4.53241,1.61829v.00003Z" fill="#cadfee"/><path d="M596.3045,163.67074c.10272-1.10861-1.11591-3.8656-2.21307-4.17401s-1.07349,.8252-.33698,2.02359c.4751,.77301,2.55011,2.15039,2.55011,2.15039l-.00006,.00003Z" fill="#cadfee"/></g></g><g><path d="M526.68512,114.57213c.03607,.02869,.07928,.0531,.11719,.0809h83.37817c-1.14697-1.89401-3.88757-2.7092-5.8302-1.58621-1.276-1.86249-4.20581-2.2988-5.96918-.88879-.35791-1.04871-1.40417-1.8237-2.51178-1.86011-1.10748-.03641-2.20251,.668-2.62872,1.69089-.52399-.82431-1.2373-1.60681-2.18488-1.84369-.94769-.23679-2.12653,.30109-2.27289,1.26682-.37659-1.12219-1.41888-1.99191-2.59039-2.1615-1.17139-.16949-2.41748,.3689-3.0968,1.33829,.242-1.02951-.32751-2.1908-1.28955-2.62979-.9621-.439-2.21252-.10809-2.83154,.74921,.19733-2.00241-.25201-3.57599-2.07489-4.4281-1.3479-.63019-3.2851-.6698-4.61389,0-1.84912,.93201-2.37842,1.9957-3.01001,4.32709-.99365-1.8551-4.05298-1.4538-5.26813,.2644,.64893-2.06171-1.08783-4.50131-3.24841-4.5629-2.16052-.06171-4.03363,2.27481-3.5033,4.37021-.16022-1.2807-1.85419-2.07571-2.94159-1.38031,.54169-1.23969,.85199-2.6322,.55231-3.95139-.29968-1.31909-1.31281-2.53021-2.64368-2.7731-1.11737-.2038-2.35229,.4613-2.7652,1.47781,.08289-1.28131-1.23962-2.62051-2.54303-2.27621,1.84998-1.52579,1.8656-4.76431,.0307-6.30811-1.83502-1.5437-5.02307-.974-6.20978,1.1098,.17682-1.01141-.30438-2.10681-1.16882-2.66089-.86438-.55399-2.06073-.53391-2.90588,.0491,.05798-2.04089-1.00452-4.07889-2.711-5.1998-1.70642-1.12091-3.9989-1.28659-5.84882-.42261-.88568,.4136-1.63,.70499-2.12622,1.54721-.49609,.84219-.68402,1.8262-.83942,2.7912-.96271,5.983-.9834,12.1167-.06073,18.1062,.22601,1.46799,.4184,4.82211,1.61029,5.7644l.00006-.00003Z" fill="#6da8cf"/><path d="M412.85068,114.65304c1.2894-1.43491,1.92361-3.3696,2.0871-5.52451,.3725-4.91,.1438-9.86539-.6792-14.72031-.72058-4.25021-3.03021-7.78421-7.87991-7.30688-2.4877,.2449-4.7616,1.58841-6.5831,3.30042-1.56821,1.47409-1.65491,3.45471-1.4097,5.48029-1.43729-1.30219-4.1972-.26031-4.41541,1.66681-.77548-.94769-1.6683-1.8465-2.79291-2.3313s-2.52451-.48199-3.48959,.27179c-.96512,.75391-1.25671,2.34549-.41782,3.2377-1.08841-.27039-2.3316-.13821-3.18439,.5899-.85309,.72809-1.14978,2.12521-.46451,3.01291-.88159-1.00461-2.5405-1.20529-3.63641-.43991-1.09561,.76541-1.47787,2.39209-.83871,3.5647-.8165-1.35471-2.93369-.6618-3.52499,.58859-1.13519-1.92709-3.50079-2.7709-5.72629-2.99149-1.22101-.12109-2.50751-.08719-3.5979,.47549-2.2041,1.1376-2.85382,3.92679-3.26462,6.37311-.52359-.64279-1.10229-1.2666-1.83749-1.6499-1.76682-.92139-3.61099,.4234-4.5498,1.936-1.7999-2.05591-4.2193-3.74539-6.94351-3.95749s-5.6861,1.42169-6.3382,4.07529c-1.0719-.47501-2.186-.9592-3.3584-.9436-1.1723,.0155-2.42291,.67819-2.73132,1.8093-1.3497-.72198-3.0596-.7225-4.4097-.00119-1.29562,.69229-2.21512,2.03101-2.42041,3.48431h82.4071l.00009-.00003Z" fill="#6da8cf"/><g><g><polygon points="537.89948 82.29061 526.03992 82.29061 526.03992 75.04833 493.09018 34.74322 496.56238 32.35812 527.17987 52.16411 533.11566 75.04833 537.89948 82.29061" fill="#96c0dd"/><polygon points="537.89948 82.29061 531.85699 75.77462 526.03992 75.77462 526.03992 82.29061 537.89948 82.29061" fill="#76aed2"/><polygon points="460.0972 75.04833 465.70148 52.16411 493.7431 32.78052 524.52887 54.30172 529.6095 75.04833 529.6095 114.65304 460.0972 114.65304 460.0972 75.04833" fill="#63a9d8"/><rect x="406.60538" y="75.04833" width="55.51999" height="39.60471" fill="#30688d"/><polygon points="405.80319 75.04833 411.4075 52.16411 467.72968 52.16411 462.1254 75.04833 405.80319 75.04833" fill="#e3eef6"/><polygon points="411.4017 52.16411 440.23438 32.35812 496.56238 32.35812 467.72968 52.16411 411.4017 52.16411" fill="#f7fafc"/><polygon points="455.10339 82.29061 398.78128 82.29061 405.80319 75.04833 462.1254 75.04833 455.10339 82.29061" fill="#f7fafc"/><polygon points="499.96609 32.35812 470.25339 52.92322 464.67139 75.77462 458.62888 82.29061 455.10339 82.29061 462.1254 75.04833 467.72968 52.16411 496.56238 32.35812 499.96609 32.35812" fill="#fff"/><polygon points="496.56238 32.35812 526.27509 52.92322 531.85699 75.77462 537.89948 82.29061 541.42499 82.29061 534.40308 75.04833 528.79877 52.16411 499.96609 32.35812 496.56238 32.35812" fill="#fff"/><polygon points="524.52887 54.30172 526.27509 52.92322 498.4162 33.45823 496.53549 34.73252 524.52887 54.30172" fill="#76aed2"/></g><g><polygon points="470.27948 28.46302 468.9342 28.46302 468.9342 27.28252 470.27948 28.46302" fill="#76aed2"/><rect x="447.6265" y="26.54552" width="11.66479" height="9.79849" fill="#30688d"/><polygon points="459.29129 36.34402 465.51248 32.35812 468.9342 32.35812 468.9342 26.54552 464.11279 22.29972 459.29129 26.54552 459.29129 36.34402" fill="#63a9d8"/><polygon points="444.6915 27.71093 450.85828 22.29972 464.11279 22.29972 457.94601 27.71093 444.6915 27.71093" fill="#f7fafc"/><rect x="444.6915" y="27.71093" width="13.25452" height=".75211" fill="#e3eef6"/><polygon points="457.94601 28.46302 464.11279 23.05183 464.11279 22.29972 457.94601 27.71093 457.94601 28.46302" fill="#96c0dd"/><polygon points="470.27948 28.46302 464.11279 23.05183 464.11279 22.29972 470.27948 27.71093 470.27948 28.46302" fill="#96c0dd"/></g><rect x="482.24219" y="84.55462" width="26.6579" height="30.09839" fill="#296289"/><g><rect x="481.38208" y="85.41473" width="1.72021" height="29.23831" fill="#004472"/><rect x="506.31979" y="85.41473" width="1.72021" height="29.23831" fill="#004472"/><rect x="493.85089" y="85.41473" width="1.72031" height="29.23831" fill="#004472"/><rect x="481.38208" y="85.41469" width="26.65791" height="1.72021" fill="#004472"/><rect x="481.3821" y="99.60378" width="26.6579" height="1.72021" fill="#004472"/><polygon points="506.31979 85.41473 493.85089 100.46392 495.5712 100.46392 508.04001 85.41473 506.31979 85.41473" fill="#004472"/><polygon points="483.10229 85.41473 495.5712 100.46392 493.85089 100.46392 481.38208 85.41473 483.10229 85.41473" fill="#004472"/><polygon points="505.60709 114.65304 493.85089 100.46392 495.5712 100.46392 507.32739 114.65304 505.60709 114.65304" fill="#004472"/><polygon points="483.81488 114.65304 495.5712 100.46392 493.85089 100.46392 482.0947 114.65304 483.81488 114.65304" fill="#004472"/></g><g><rect x="482.24219" y="84.55462" width="1.72021" height="30.09839" fill="#f7fafc"/><rect x="507.1799" y="84.55462" width="1.72021" height="30.09839" fill="#f7fafc"/><rect x="494.711" y="84.55462" width="1.72028" height="30.09839" fill="#f7fafc"/><rect x="482.24219" y="84.55462" width="26.6579" height="1.72021" fill="#f7fafc"/><rect x="482.24219" y="98.7437" width="26.6579" height="1.72021" fill="#f7fafc"/><polygon points="507.1799 84.55462 494.711 99.60381 496.4313 99.60381 508.90009 84.55462 507.1799 84.55462" fill="#f7fafc"/><polygon points="483.9624 84.55462 496.4313 99.60381 494.711 99.60381 482.24219 84.55462 483.9624 84.55462" fill="#f7fafc"/><polygon points="507.1799 114.65304 494.711 99.60381 496.4313 99.60381 508.90009 114.65304 507.1799 114.65304" fill="#f7fafc"/><polygon points="483.9624 114.65304 496.4313 99.60381 494.711 99.60381 482.24219 114.65304 483.9624 114.65304" fill="#f7fafc"/></g><rect x="487.57938" y="55.68513" width="15.98349" height="17.53819" fill="#296289"/><g><rect x="486.8616" y="72.24651" width="15.98351" height="1.63919" fill="#004472"/><rect x="486.86157" y="56.34765" width="15.98351" height="1.63919" fill="#004472"/><rect x="486.86157" y="56.34763" width="1.63931" height="17.5381" fill="#004472"/><rect x="501.20575" y="56.34763" width="1.63931" height="17.5381" fill="#004472"/><polygon points="488.50089 56.34762 501.20578 72.24653 501.20578 73.88572 488.50089 57.98682 488.50089 56.34762" fill="#004472"/><polygon points="501.20578 56.34762 488.50089 72.24653 488.50089 73.88572 501.20578 57.98682 501.20578 56.34762" fill="#004472"/></g><g><rect x="487.57939" y="71.58401" width="15.98349" height="1.63931" fill="#f7fafc"/><rect x="487.57938" y="55.68508" width="15.98351" height="1.63931" fill="#f7fafc"/><rect x="487.57941" y="55.68511" width="1.63931" height="17.53819" fill="#f7fafc"/><rect x="501.92355" y="55.68511" width="1.63931" height="17.53819" fill="#f7fafc"/><polygon points="489.21869 55.68513 501.92358 71.58402 501.92358 73.22332 489.21869 57.32442 489.21869 55.68513" fill="#f7fafc"/><polygon points="501.92358 55.68513 489.21869 71.58402 489.21869 73.22332 501.92358 57.32442 501.92358 55.68513" fill="#f7fafc"/></g><g><rect x="420.56528" y="92.90053" width="10.82419" height="11.1601" fill="#296289"/><g><rect x="419.99509" y="103.28475" width="10.82419" height="1.30209" fill="#004472"/><rect x="419.9951" y="93.42672" width="10.82419" height="1.30219" fill="#004472"/><rect x="419.99512" y="93.42672" width="1.30209" height="11.1601" fill="#004472"/><rect x="429.51709" y="94.20272" width="1.30219" height="10.38409" fill="#004472"/></g><g><rect x="420.56529" y="102.75844" width="10.82419" height="1.30219" fill="#f7fafc"/><rect x="420.56529" y="92.90053" width="10.82419" height="1.30219" fill="#f7fafc"/><rect x="420.56531" y="92.90053" width="1.30209" height="11.1601" fill="#f7fafc"/><rect x="430.08734" y="92.90053" width="1.30219" height="11.1601" fill="#f7fafc"/></g><rect x="430.08728" y="92.90053" width="10.82431" height="11.1601" fill="#296289"/><g><rect x="430.08731" y="103.28472" width="10.25409" height="1.30209" fill="#004472"/><rect x="430.08728" y="93.42672" width="10.25409" height="1.30219" fill="#004472"/><rect x="439.03918" y="93.42672" width="1.30219" height="11.1601" fill="#004472"/></g><g><rect x="430.08728" y="102.75844" width="10.82431" height="1.30219" fill="#f7fafc"/><rect x="430.08731" y="92.90053" width="10.82431" height="1.30219" fill="#f7fafc"/><rect x="430.08734" y="92.90053" width="1.30219" height="11.1601" fill="#f7fafc"/><rect x="439.60944" y="92.90053" width="1.30219" height="11.1601" fill="#f7fafc"/></g></g></g></g></g><g><path d="M245.69328,120.47134c-.1861-.06271-.5423,.05679-.6676-.1322-.0435-.06589,.0132-.17068-.0274-.24179-.11189-.1954-.5507-.24081-.7506-.25809-.0769-.00659-.1644-.01389-.2115-.07501-.022-.02859-.03119-.06479-.0369-.1004-.0222-.1391,.0032-.2854,.07091-.40891-.1674-.02509-.3378,.12811-.3304,.29721-.0704-.035-.08859-.12631-.09061-.2049-.00391-.16321,.0262-.3273,.088-.47839-.07819-.04419-.18159-.02341-.25169,.03271-.07021,.05609-.11169,.14099-.1369,.2272-.09309,.3197,.06129,.53729,.1087,.83621,.05029,.31729-.1658,.5722-.3726,.78751-.57941,.60339-1.12061,1.24341-1.6194,1.91489-.0659,.08881-.1322,.1803-.16499,.28589-.0966,.3114,.1391,.64749,.43761,.77869,.29849,.1311,.63879,.11011,.964,.0867l.0694-.06781c.3042,.01581,.5421,.2561,.81461,.39209,.349,.1741,.75481,.17529,1.13969,.23819s.79829,.22461,.9628,.57819c.06,.12891,.08141,.2738,.1474,.39969,.05969,.11389,.1534,.20749,.21001,.323,.06709,.13699,.077,.29361,.103,.44391,.0687,.39789,.25421,.76489,.44341,1.1217,.16161,.30481,.3354,.61661,.61011,.82529,.1902,.14459,.4196,.23099,.65289,.2756,.23621,.04501,.48399,.00562,.4606,.3277l-.0504,.6937c-.0087,.11951-.0168,.2431,.0238,.35571,.0316,.08801,.091,.16309,.13091,.24759,.1185,.25089,.05321,.54721-.0311,.81161-.153,.479-.3623,.94-.62241,1.37039-.0412,.06812-.0795,.16669-.0177,.21689,.0255,.02069,.06039,.02429,.0932,.0267,.2798,.02051,.56129,.01682,.84039-.0112-.004-.1272,.0018-.27579,.1046-.3508,.0545-.0397,.1284-.05081,.17491-.0997,.062-.06531,.05099-.16821,.04208-.25781-.0596-.60071,.16299-1.18939,.3817-1.75211,.0215-.0553,.06621-.1225,.1225-.10339,.0359,.01221,.0506,.05399,.06059,.09061,.10159,.37091,.2018,.7738,.05881,1.1308-.1145,.28571-.37241,.50241-.45531,.7988,.3031,.0585,.6144,.0748,.9221,.04831,.00031-.1427,.0213-.31799,.15359-.3717,.03491-.0141,.0744-.01749,.10591-.03821,.09239-.06079,.04909-.20139,.00919-.3046-.13419-.34671-.1058-.73221-.07539-1.10281,.0289-.35269,.03722-.71451,.0873-1.06479,.0266-.1861-.0515-.62189,.09731-.74399,.06779-.0556,.1638-.0567,.2513-.05231,1.43179,.07251,2.7926,.89169,4.21631,.72379,.6806-.08029,1.3118-.3819,1.9411-.6532,.2821-.1217,.6037-.23871,.88779-.12161,.16641,.0687,.29761,.21741,.34491,.39099,.02179,.0799,.02829,.16779,.0788,.2334,.05042,.0657,.16971,.08551,.20801,.01208,.0282-.05399-.00449-.1181-.0105-.17871-.01599-.1597,.2131-.27701,.3334-.17059-.0513,.1192-.00369,.2724,.1062,.34149,.09741-.03659,.0256-.2121,.10721-.27661,.02481-.01971,.0582-.02328,.08951-.02859,.155-.02591,.35599-.13199,.42941-.27969,.04941-.0994-.01309-.35641,.2124-.2872,.10471,.0321,.16531,.13889,.21121,.23831,.14182,.30661,.2677,.65741,.56531,.8172-.07629,.04059-.08179,.1528-.0423,.22971,.0394,.07681,.10941,.1329,.16049,.20251,.05579,.07599,.08801,.16641,.1171,.2561,.1496,.4613,.2363,.9429,.25708,1.42731,.01401,.3266-.02121,.69601-.2728,.9046-.10791,.08951-.25739,.15369-.2933,.28931,.30148,.07861,.6156,.10919,.92661,.09021,.0593-.0036,.1279-.0148,.15689-.06659,.03079-.0549-.00049-.12521,.0159-.18591,.04031-.1499,.29199-.10541,.3837-.23059,.08661-.11841-.02979-.2756-.0499-.42099-.02151-.15521,.07211-.29999,.11621-.45041,.07162-.2446,.01071-.50729,.0332-.7612,.0426-.48199,.38361-.92889,.30389-1.40619-.0275-.16501-.10529-.32309-.09879-.4902,.00369-.0932,.03351-.18311,.0556-.27371,.07932-.32501,.05881-.67361-.05801-.987-.03021-.08099-.06729-.16519-.05289-.2504,.01001-.0596,.0444-.112,.06409-.1691,.04309-.1254,.01279-.26279-.01779-.39182-.0553-.233-.13062-.46759-.1803-.70001-.04749-.2225-.01721-.44241-.01691-.6731,.0007-.5412-.0658-1.0798-.13171-1.61609-.0369-.30011-.07458-.6037-.18231-.8862-.1832-.48029-.56369-.87149-1.01361-1.12039-1.04471-.578-2.08249-.26291-3.17599-.02591-.77802,.16849-1.57269,.2435-2.3653,.31812-.60258,.0567-1.2072,.11349-1.81219,.09421-.7065-.02261-1.405-.1488-2.1019-.26682-1.506-.255-3.0182-.47339-4.53481-.655-.19679-.02359-.3965-.04721-.5798-.12259-.1227-.05042-.23589-.1232-.3616-.1655l-.00003,.00003Z" fill="url(#i)"/><path d="M292.94318,121.16402c.0108-.37219,.14481-.72809,.23318-1.0899,.13641-.55811,.1427-1.11859,.14941-1.6886,.00671-.57309-.00531-1.15201-.1636-1.70801-.1571-.552-.47189-1.07849-.9567-1.3858-.80161-.5079-1.8353-.3175-2.77979-.22549-1.3299,.12961-2.66629,.02539-3.99631-.0473-1.26038-.069-2.48029,.03351-3.73901,.133-.47299,.03741-.97-.0264-1.43091,.05991-.45129,.0845-.897,.22421-1.28391,.4772-.46201,.302-.98529,.81659-1.19299,1.33069-.2525,.625-.32599,1.32849-.71591,1.89389-.11359,.1647-.2515,.31201-.35779,.48151-.29089,.4632-.31781,1.0369-.39182,1.5788-.07391,.5419-.23529,1.12631-.68509,1.4375-.04471,.03091-.10211,.05939-.15112,.03589-.0274-.013-.04529-.03961-.06189-.06491-.10892-.16641-.2005-.435-.43381-.34381-.02039,.008-.03879,.01749-.0556,.0285-.15591,.10159-.1637,.32211-.1637,.48691,.03091,.1759,.1351,.3313,.25812,.46078,.0452,.04761,.09589,.09781,.10349,.16299,.00629,.0542-.0192,.1066-.04599,.15411-.099,.17529-.2265,.33441-.3118,.51682s-.12411,.40149-.0372,.58319c.06741,.14099,.2023,.24289,.2608,.38791,.06799,.16849,.02011,.35901-.02841,.53421-.07181,.2587-.1434,.51749-.21521,.7764-.0564,.20331-.42291,.63708-.3082,.84439,.0275,.0498,.07452,.0871,.09961,.13809,.01859,.03769,.0239,.08041,.03729,.1203,.12289,.36761,.64621,.1618,.9017,.1142,.0921-.01709,.18521-.03448,.2713-.07141,.21362-.0914,.31689-.27209,.4567-.44269,.12521-.15271,.27841-.27359,.42929-.40479,.1015-.0882,.20599-.1803,.2612-.30289,.02969-.06589,.04419-.13889,.08261-.2001,.06729-.10709,.19391-.15881,.2887-.2424,.20789-.18369,.23801-.49161,.25381-.76859,.0191-.336,.03821-.672,.0574-1.008,.02792,.05399,.10492,.06039,.1619,.03922s.1058-.06171,.16409-.0788c.1026-.03021,.20981,.01669,.31219,.04739,.4263,.12811,.92599-.04999,1.17529-.4187,.0282,.22501,.20251,.42471,.42169,.483,.0611,.0162,.12729,.0235,.1781,.06119,.06271,.04681,.08649,.12851,.10391,.2048,.19009,.83441,.07419,1.73511-.32101,2.49411-.11981,.23019-.26379,.44681-.40741,.6629,.27411,.12939,.58929,.17001,.8873,.11411,.05209-.0098,.10919-.02621,.13651-.07169,.04819-.08011-.0202-.2092,.05432-.26559,.0246-.01871,.05728-.0213,.0867-.03091,.14081-.0459,.17239-.2276,.1796-.37561,.01389-.28201,.02771-.564,.0415-.84589,.021-.42789,.06161-.9006,.37189-1.1958,.14481,.25061,.2554,.521,.3277,.8013,.10269,.39819,.12119,.84509-.09021,1.19791-.07401,.12341-.17609,.23679-.20029,.3786,.31412,.09,.64828,.1091,.97061,.0556-.05801-.13391,.22479-.17111,.25809-.3132,.00891-.03809-.00299-.0777-.0145-.1152-.14059-.45529-.25479-.9187-.3418-1.38721-.02789-.1503-.05319-.3038-.0329-.45529,.0209-.15619,.0896-.30511,.09262-.46271,.00378-.2059-.1048-.3978-.12732-.6026-.01831-.16599,.0011-.33801-.01151-.49399-.00851-.10571-.11261-.25851-.09079-.35419,.01099-.048,.0524-.08221,.09131-.11249l.44531-.34689c.0575-.04489,.11618-.0903,.1843-.1167,.07001-.02701,.1463-.0325,.22131-.03461,.8775-.02521,1.80219,.3573,2.62631,.62119l.327,.10471c.28061,.0899,.56839,.18079,.86279,.16879,.24249-.00989,.47601-.0892,.71439-.1348,.5791-.11081,1.19531-.0163,1.7146,.26291-.01331,.24091-.0155,.5126,.15369,.68451l.09662-.14511c.04129,.0383,.0968,.0611,.15308,.06299,.02039-.13699,.02811-.27579,.02292-.41409,.0899-.0502,.2092-.00601,.27518,.073,.06601,.0791,.091,.18369,.11121,.2847,.18741,.93839,.12421,1.92569-.18121,2.83261-.1239,.36761-.32101,.59439-.57071,.8862-.026,.03049-.05319,.06339-.05801,.10321-.01309,.1095,.1326,.15771,.24261,.1658,.22681,.0166,.49069,.0184,.63629-.15619,.03162-.03781,.05569-.0824,.09381-.11359,.1008-.08231,.2485-.04031,.3786-.04181,.0191-.00021,.03931-.0018,.05521-.0123,.04678-.0311,.02271-.10251,.00101-.1543-.10541-.25131-.02542-.53769,.05539-.79779,.06339-.20441,.62329-2.37659,.67981-2.37561,.1041,.00189,.12051,.1207,.1344,.2146,.02759,.1861,.15649,.3382,.24979,.50159,.1759,.3082,.25629,.70569,.2644,1.05859,.00311,.1319-.03421,.25131-.02921,.38141,.0072,.18781,.09991,.36569,.10751,.5556,.009,.22531-.0791,.43451-.1814,.63019-.05368,.1026-.26019,.33011-.17389,.44061,.1373,.17569,.75751-.02441,.86499-.15891,.0657-.082,.11591-.19119,.21701-.21991,.03299-.00931,.06909-.00891,.0994-.02481,.05621-.02939,.0722-.1055,.05661-.16699s-.0545-.11389-.0849-.16971c-.10159-.1868-.1058-.4097-.10287-.62241,.0058-.43509,.03058-.87,.07419-1.30301,.01971-.19559,.026-.40729,.07101-.59869,.0433-.18481,.14301-.3483,.1431-.5437,0-.0672-.0112-.1348-.0014-.20129,.00989-.06729,.04059-.12949,.0683-.19159,.17569-.3934,.2449-.83359,.19839-1.2619-.05219-.4809-.24658-.94559-.23239-1.4292v-.00006Zm-.10449-.80969c-.12909,.81631-.25821,1.6326-.38721,2.44891-.15881-.15271-.2168-.3815-.24341-.6001-.0878-.72009,.1257-1.41269,.19919-2.11819,.03729-.35779,.1991-.71701,.28671-1.0672,.09167-.36649,.1669-.737,.22549-1.1102,.06921,.09491,.0683,.22211,.06461,.33951-.0228,.7131-.034,1.4028-.14539,2.1073v-.00003Z" fill="url(#j)"/><path d="M324.00958,107.47103c-.2366,.13361-.43219,.2756-.69839,.345-.25009,.06531-.52319,.02109-.7608-.0473-.50589-.14551-.56961-.84811-.6311-1.2804-.0029-.0199-.00601-.04089-.01889-.0564-.02539-.03079-.078-.0231-.10599,.00531s-.0376,.06979-.04449,.10901c-.0618,.34811-.0166,.7908,.09329,1.12839,.08719,.26682,.2998,.40219,.5434,.5047,.26199,.1102,.54019,.2085,.82361,.1857-.01089,.1387-.1438,.24231-.2804,.2684-.2482,.04761-.479-.05399-.72079-.07681-.31842-.03009-.63751,.05231-.9523,.08551-.27811,.02921-.5585,.02139-.83789,.02841-.3494,.00891-.6976,.0412-1.04459,.08051-.1412,.0159-.29681,.0119-.43439,.0376-.16129,.03009-.31921,.11069-.48129,.1478-.46909,.10721-.9541,.11371-1.43231,.0827-.20929-.01361-.41129-.04559-.61731-.01929-.2305,.02951-.47021,.0192-.7027,.0195-.5419,.00061-1.05688-.0174-1.58929-.1156-.17599-.0325-.35239-.065-.53079-.07919-.46881-.03711-.9545,.08389-1.40619-.0509-.24438-.07291-.50699-.095-.75711-.14139-.29568-.0549-.591-.112-.88589-.17081-.20801-.04141-.39459-.05911-.58179-.16061-.31049-.16849-.67651-.1369-1.01669-.1662-.3606-.0311-.6712-.2283-1.0433-.1752-.16559,.02359-.43851,.1073-.55121,.24121-.11859,.1409-.15179,.33789-.30069,.4874-.31311,.3143-.7554,.62009-.93909,1.02991-.18008,.40161-.1785,.8671-.1579,1.29819,.02911,.6127,.08359,1.22409,.16309,1.83231,.0856,.6546,.07809,1.41479-.09561,2.05609-.0723,.26709-.1781,.5253-.23111,.79691-.08701,.4454-.02841,.90469,.0303,1.35471,.0336,.25659,.0322,.85211,.31329,.96841,.06671,.02759,.125-.58661,.13919-.6315,.08099-.25409,.15509-.4133,.1543-.702-.00259-.91071,.03201-1.71899,.00961-2.62949,.67679,.98541,.80139,2.32529,.31799,3.41861-.07651,.17291-.1669,.375-.07529,.54041,.03299,.0596,.086,.10501,.13101,.1561,.25369,.28741,.2348,.71341,.27808,1.0943,.05499,.4838,.23141,.94519,.32309,1.42331,.09171,.47821,.0878,1.00769-.18579,1.41049,.1402,.05399,.2941,.07181,.4429,.0513,.07019,.14511,.1008,.3092,.0874,.46991,.34479,.04001,.69299,.0502,1.03961,.03061,.05841-.0033,.11929-.00821,.16919-.03879,.15021-.0918,.09741-.31931,.0264-.48029l.3732-.0582c.02859-.00439,.06-.01041,.07831-.0329,.01581-.01941,.0177-.04651,.01691-.0715-.0076-.24301-.1922-.4371-.34189-.62869-.43719-.55951-.64291-1.2944-.55969-1.9996,.02771-.23389,.0856-.46271,.15451-.6875,.05701-.18591,.15439-.37189,.18469-.56091,.03421-.2132,.05801-.4147,.13599-.6189,.02451-.06421,.30551-.51151,.29581-.53159,.03439,.07141,.06879,.14279,.1033,.21411,.0246,.05121,.06049,.10989,.11719,.1105,.0282,.00031,.05429-.0148,.0762-.03241,.21179-.1701,.1243-.5256,.2774-.75,.10001-.14651,.2941-.22211,.3569-.38809,.01199-.0318,.01859-.06601,.0361-.09521,.0246-.04111,.06741-.0672,.10861-.09161l.29062-.17261c.03168-.0188,.0657-.0383,.1026-.0372,.03342,.00089,.06381,.01859,.09241,.0361,.241,.14709,.43558,.35001,.67889,.4852,.37271,.20709,.7594,.39441,1.17221,.50659,.4054,.1102,.8273,.1463,1.24719,.16199,.91791,.03439,1.83939-.02621,2.745-.18051,.41901-.07141,.87131-.15851,1.25189,.0307,.4375,.21759,.63739,.73581,.69791,1.22061,.06061,.48489,.02219,.9855,.16061,1.4541,.05411,.18301,.13419,.35739,.19119,.53949,.1113,.35599,.13181,.73309,.15149,1.10571,.01349,.25519,.02341,.5264-.1026,.74869-.05179,.0914-.12521,.17151-.1597,.27069-.08551,.24609,.09219,.49881,.259,.69891,.05341,.06421,.11029,.1308,.18811,.16101,.05682,.022,.11929,.02231,.18011,.02231l.50891,.00031c.19312,.00021,.4487-.05411,.461-.2468,.00589-.0918-.1152-.2601,.08231-.1973,.1427,.04541,.29581,.0575,.44379,.03531,.04541-.0069,.09219-.01779,.12759-.047,.0451-.03711,.06412-.09839,.06549-.1568,.00479-.19629-.15302-.35181-.27719-.50381-.2854-.34921-.39429-.7554-.46051-1.19229-.03668-.24161-.05881-.4946,.0224-.72501,.08871-.25211,.28961-.4462,.4277-.6749,.23651-.3916,.07022-.85281,.23239-1.24149,.18869,.04941,.38599,.09909,.57651,.0574,.1474-.03229,.27771-.11679,.4202-.16629,.18369-.06381,.4501-.05389,.5968-.20181,.056-.05649,.0918-.12939,.1315-.19839,.22961-.39859,.6813-.53699,.82361-.97781,.13971-.43289,.1669-.84671,.2283-1.28549,.07391-.5285,.37381-1.10101,.5477-1.60641,.01141-.03329,.02521-.0694,.05609-.0863,.07141-.03922,.14059,.05341,.21469,.08719,.14041,.064,.28311-.09351,.43661-.10959,.19901-.02069,.39639,.19879,.57391,.1062,.12299-.0643,.1514-.24869,.28119-.298,.0687-.02609,.14871-.0058,.21689-.03311,.0658-.0264,.10739-.0921,.13211-.15851,.14749-.39691-.16589-.80899-.21271-1.2298-.01901-.17029,.00659-.34201,.0253-.5123,.04059-.3714,.04819-.74631,.02261-1.11899-.0043-.0636-.00931-.12961,.0137-.189,.04181-.1076,.1705-.21481,.1041-.3093,.1694-.01779,.33939,.12891,.4913,.18771,.17831,.069,.43671,.16281,.62601,.10379,.11679-.03641,.2182-.10889,.32571-.1673,.2308-.12531,.49451-.18741,.71191-.3349,.0394-.0267,.07849-.05801,.0975-.10172,.03421-.0787-.00681-.16809-.047-.24399-.0455-.08609-.0928-.17441-.1666-.2381-.03922-.03381-.0845-.05939-.12949-.0849l-.34171-.19321c-.08249-.0466-.16599-.09369-.2572-.1192-.17911-.05011-.37091-.0127-.54849,.04269-.12479,.039-.25049,.0874-.38129,.08411-.17471-.00439-.4837-.19141-.4964-.37991,.34531-.00949,.6889-.07739,1.0119-.19989,.1171-.0444,.2327-.09659,.33261-.17221,.0965-.07309,.1759-.1662,.25128-.26099,.30072-.37851,.5553-.81711,.59589-1.2988,.0025-.0296-.005-.0701-.0347-.07089-.01831-.00049-.0318,.01611-.04221,.03119-.16528,.23981-.30679,.49579-.48181,.72849-.17499,.23279-.38931,.44559-.65649,.5614-.3284,.14221-.70081,.125-1.05811,.10519-.08578-.00479-.1958-.03711-.26019-.0939-.509-.4501-1.30841-.53439-1.90009-.20029l-.00021-.00012Z" fill="url(#k)"/><path d="M187.24939,103.89052c-.23669,.13361-.43221,.2756-.69839,.34509-.25011,.06519-.52332,.021-.76091-.0473-.50591-.14551-.5696-.84821-.63109-1.28049-.00281-.0199-.006-.04089-.01881-.0564-.02541-.0307-.078-.0231-.10609,.00531-.028,.02841-.03751,.06979-.04449,.1091-.0618,.34799-.01659,.79071,.09341,1.1283,.0871,.26691,.29968,.40219,.54329,.5047,.26199,.1102,.5403,.20859,.82359,.18579-.01089,.1387-.1438,.24219-.2804,.2684-.2482,.04749-.479-.05399-.72079-.0769-.31841-.03009-.63741,.0524-.9523,.08551-.278,.0293-.5584,.02139-.83791,.0285-.3493,.00879-.69749,.04111-1.0446,.08041-.1411,.01599-.2968,.0119-.4344,.03769-.1613,.03009-.31911,.11069-.4812,.14771-.4691,.10721-.95419,.11371-1.4324,.08279-.2093-.01361-.41119-.04559-.6172-.01929-.23061,.02951-.47031,.0192-.7028,.0195-.54179,.00049-1.05679-.0174-1.5892-.11569-.17599-.03241-.3524-.065-.5309-.0791-.4688-.03711-.9545,.0838-1.4061-.0509-.2444-.073-.507-.095-.7571-.14139-.2957-.0549-.591-.112-.886-.17081-.20799-.04141-.39459-.0592-.5817-.16071-.31059-.16849-.6765-.13681-1.0168-.16611-.3606-.0311-.6711-.2283-1.0433-.17529-.1656,.02371-.4384,.10739-.55119,.2413-.11861,.1409-.15179,.33789-.3007,.4873-.313,.3143-.75529,.62009-.9391,1.02991-.17999,.4017-.17841,.86719-.1579,1.29831,.02921,.61261,.0836,1.22409,.1631,1.83231,.0856,.6546,.07809,1.4147-.0955,2.056-.0723,.26721-.1781,.52539-.2312,.797-.0869,.44531-.0284,.90469,.0304,1.35461,.03349,.25659,.0321,.85211,.3132,.96841,.0668,.02771,.125-.58661,.1393-.63141,.0809-.25421,.155-.41339,.15421-.702-.0025-.9108,.0321-1.71909,.0096-2.62949,.6768,.98529,.8015,2.3252,.31799,3.41849-.0764,.173-.1669,.375-.0753,.5405,.033,.05951,.086,.10489,.1311,.15601,.2536,.28751,.2347,.7135,.278,1.09439,.05499,.4837,.2314,.9451,.3231,1.42331s.0878,1.0076-.1857,1.4104c.14011,.05399,.29401,.0719,.44279,.05139,.0703,.14511,.1008,.3092,.08749,.46979,.3447,.04001,.69299,.05029,1.03951,.0307,.0584-.0033,.11929-.0083,.16919-.03879,.15021-.0918,.0975-.31931,.0265-.48041,.12431-.01929,.2487-.0387,.37309-.05811,.0287-.00449,.06-.01041,.07829-.0329,.01579-.0195,.0177-.04651,.01691-.07159-.00751-.24301-.19221-.4371-.3419-.6286-.43719-.55951-.6429-1.29449-.5596-1.99969,.0276-.2338,.0856-.46271,.1545-.6875,.05688-.18591,.1543-.37189,.18459-.56079,.03419-.2132,.05811-.41479,.136-.6189,.02451-.06421,.3056-.51151,.2959-.53171l.1032,.2142c.0246,.05109,.0605,.1098,.11731,.1105,.02809,.00031,.05418-.0148,.07619-.0325,.2117-.1701,.12421-.5256,.2773-.74991,.10001-.14651,.2942-.2222,.3569-.38809,.01199-.0318,.01871-.0661,.03619-.09531,.0246-.04099,.06741-.06711,.10851-.09149l.2906-.17261c.0318-.01889,.0657-.0383,.1026-.03729,.03349,.00101,.0639,.01871,.09241,.0361,.2411,.14709,.4357,.35001,.679,.4852,.3726,.20709,.7594,.39441,1.1721,.50671,.4055,.1102,.82739,.14621,1.24721,.16199,.918,.03439,1.83949-.02621,2.745-.1806,.41901-.07141,.87138-.15851,1.25189,.03079,.4375,.21759,.6375,.73569,.698,1.22061s.02211,.9855,.1606,1.4541c.054,.18301,.1342,.3573,.1911,.5394,.1114,.35611,.13181,.73318,.1515,1.10571,.0135,.25519,.02341,.5264-.1026,.74881-.0517,.09131-.1252,.17139-.1597,.2706-.0854,.24609,.0923,.49881,.259,.69901,.0535,.06409,.11031,.1308,.18822,.16101,.05669,.02191,.11919,.02231,.18008,.02231l.5088,.00031c.19321,.00009,.4487-.0542,.46111-.24689,.00589-.0918-.1152-.26001,.08229-.1972,.14259,.04529,.29572,.0575,.44371,.03519,.04539-.00681,.09219-.0177,.12759-.04691,.0451-.0372,.0641-.09839,.0656-.15689,.00481-.1962-.153-.35181-.2773-.50381-.28529-.34909-.3942-.75531-.46049-1.1922-.03661-.24161-.0587-.4946,.0224-.7251,.08881-.25201,.2896-.44611,.4278-.6749,.2364-.39151,.07021-.85281,.23241-1.24139,.18858,.04941,.38589,.099,.57649,.05731,.1474-.03229,.2776-.11679,.4202-.16629,.18359-.06369,.4501-.05389,.59669-.20169,.05611-.05661,.0918-.12939,.13161-.19839,.22949-.39859,.68118-.53699,.82349-.97791,.1398-.4328,.16701-.84659,.22839-1.2854,.0739-.5285,.3737-1.10101,.54761-1.60651,.01151-.0332,.0253-.0694,.05611-.0863,.0715-.03909,.14059,.05341,.21471,.08719,.1404,.064,.2831-.09351,.4366-.1095,.19911-.02081,.3965,.19879,.5739,.10611,.123-.06421,.1515-.24869,.2812-.298,.0687-.02609,.1487-.00571,.217-.03311,.06569-.02631,.10739-.0921,.1321-.15851,.14751-.39679-.16589-.8089-.2128-1.22971-.01891-.17029,.00671-.34201,.0253-.51239,.0407-.37131,.04829-.74631,.02271-1.11899-.00439-.06351-.0094-.12949,.0137-.1889,.04169-.1076,.17039-.2149,.1041-.3093,.1693-.01779,.33929,.12881,.4913,.18771,.1783,.069,.43661,.16281,.6259,.10379,.11681-.03641,.2182-.10901,.32571-.1673,.23079-.12531,.49458-.18741,.71188-.3349,.0394-.0267,.07851-.05801,.0975-.10172,.03419-.0788-.0067-.16809-.04691-.24399-.04559-.08621-.0929-.17441-.1666-.2381-.0392-.03381-.08459-.05951-.12959-.0849l-.3416-.19321c-.0825-.0466-.166-.09369-.25729-.1192-.17909-.05011-.3709-.01279-.54839,.04269-.12491,.039-.2505,.0874-.38132,.08401-.17468-.00439-.48369-.19141-.49651-.37991,.34531-.0094,.689-.0773,1.0119-.1998,.1172-.04449,.2327-.09671,.3326-.1723,.0965-.07309,.17599-.16611,.25131-.26089,.30069-.37851,.55539-.8172,.59599-1.29889,.00249-.02951-.00511-.0701-.03471-.07089-.0183-.00049-.03191,.0162-.0423,.03131-.16521,.23981-.30681,.4957-.48181,.72849-.1749,.23279-.3893,.4455-.65649,.56131-.32829,.1423-.70081,.125-1.05811,.10519-.08569-.0047-.1958-.03699-.2601-.0939-.509-.4501-1.30849-.5343-1.9001-.20029l.00006-.00018Z" fill="url(#l)"/><path d="M196.9912,130.25512c.01801,.05341-.0569,.22571-.0676,.2872-.01891,.1087-.0304,.2186-.03619,.3287-.01199,.2269,.024,.4437,.0354,.66751,.02321,.4548,.0016,.87119,.1386,1.31659,.0209,.0679,.04449,.1362,.0865,.19339,.0336,.0459,.0782,.08331,.1078,.1319,.0744,.12201,.03751,.27921,.0645,.41959,.0415,.21649,.2366,.3996,.2097,.61829l-.6722,.0639c-.21741,.02069-.4782,.02261-.60339-.1564-.10049-.14371-.07899-.36771-.2244-.4657-.0887-.05991-.21561-.05081-.2928-.125-.09109-.08749-.0619-.2442,.0118-.3468,.0737-.10251,.1817-.17691,.2532-.28101,.1468-.21341,.11092-.49829,.069-.75391-.09621-.58701-.22099-1.1759-.27361-1.76669-.0291-.32581-.0211-.71539-.19521-1.0018-.04269-.07019-.0948-.1369-.116-.21619-.037-.1387,.0275-.2822,.0923-.41031,.1981-.3913,.416-.77551,.556-1.19119,.2648-.78659-.14301-1.73129-.43491-2.45819-.26311-.6553-.6152-1.37589-.59061-2.09351-.15208,.62579-.13879,1.22131-.105,1.85559,.039,.73419-.0753,1.4772,.02609,2.20639,.043,.30939,.24681,.6116,.24339,.9173-.00391,.3425-.3069,.65909-.21471,.98901,.0211,.0755,.0619,.1438,.09612,.21439,.16328,.3382,.1216,.6488,.06339,1.0022-.0611,.32059,.0318,.56299,.0723,.87891,.002,.01559,.00281,.03421-.0096,.04391-.0136,.01071-.03329,.00311-.0484-.00531-.0762-.04291-.21159-.2486-.2812-.25751-.1006-.01279-.0985,.1864-.17999,.09851-.0209-.02249-.02991-.05319-.0381-.08279-.05701-.20319-.0929-.37039-.1169-.57791-.03081-.26682-.11749-.5246-.13049-.79391-.01541-.3197,.07239-.6449,.002-.95709-.0258-.11389-.07201-.2226-.09581-.33701-.0813-.39099,.10339-.76761,.20531-1.13571,.0938-.33871,.0457-.72,.0463-1.0719,.0015-.85089-.0479-1.70081-.05978-2.55139-.00871-.6214-.03191-1.24521,.032-1.86469,.02901-.28149,.08289-.56509,.12469-.84149,.0428-.28329,.2287-.49081,.429-.68799,.16859-.16589,.343-.32599,.5228-.4798,.5412-.46289,1.46381-.2518,2.1151-.28159,.5873-.02679,1.16811-.14691,1.7572-.1431,.60422,.00391,1.20081,.20071,1.79111,.3201,1.25169,.2533,2.50729,.4942,3.7756,.6485,.94209,.11469,1.8913,.18149,2.84081,.16589,.4855-.008,.9648-.05261,1.4482-.09149,.41901-.03369,.8221-.1691,1.25101-.1716,.5462-.00311,1.0901,.1297,1.6344,.08511,.33929-.0278,.6725-.1243,1.013-.12289,.30051,.00119,.59689,.0788,.8974,.07861,.595-.00021,.7865-.3905,1.20351-.6886,.3399-.24289,.87981-.18188,1.13,.16269,.0825,.11359,.13989,.25381,.2598,.32681,.1232,.07501,.2847,.06049,.40961,.1326,.1942,.112,.2446,.3978,.44971,.48819,.16512,.07281,.35159-.01321,.5233-.0686,.39-.12589,.8307-.08569,1.1915,.1087,.0401,.02161,.0827,.04941,.0937,.0936,.0085,.03421-.0043,.0697-.0181,.10211-.25729,.6055-.964,.98318-1.6104,.86069-.1057-.02011-.237-.043-.30209,.04269-.02319,.03049-.032,.06921-.04021,.10669l-.44521,2.03351c-.01669,.0762-.03349,.15369-.0273,.23141,.008,.1008,.0538,.194,.09669,.28561,.08549,.1825,.16422,.38251,.1273,.5806-.0434,.23279-.24271,.41211-.4635,.49789s-.46291,.09439-.69958,.10199c-.11241,.0036-.22832,.00671-.33331-.0336-.16679-.0639-.2825-.228-.45329-.2804-.2146-.0658-.4493,.07379-.5661,.26559s-.1434,.42331-.1673,.64651c-.04431,.04691-.02821,.0119,.02348,.05042,.0518,.0386,.1201,.04459,.18451,.0481,.32658,.0177,.64619-.0051,.97099-.03339,.2589-.02261,.481-.16531,.74829-.16479,.2209,.0004,.44521,.07999,.6003,.23721,.1068-.0791,.1946-.1088,.3089-.16779,.153-.0791,.2964-.18011,.46069-.23181,.3063-.09641,.6653,.00549,.87531,.24829,.0229,.02649,.0452,.0553,.0769,.07031,.03362,.01599,.0728,.01379,.1098,.0094,.2169-.0257,.42-.11539,.62939-.1774,.20941-.06189,.44099-.0947,.6416-.00861,.09419,.0405,.18629,.1265,.17261,.22809-.0062,.04541-.0327,.08521-.0602,.1217-.2711,.35889-.7294,.56769-1.1781,.5368-.0482-.0033-.1033-.00681-.13741,.0275-.0201,.02029-.0278,.0495-.0347,.0773-.0715,.28931-.2059,.53448-.2137,.8418-.0072,.28369,.0419,.6163-.1682,.80701-.14909,.13531-.38139,.138-.56979,.06711-.0468-.01761-.0941-.03961-.1441-.0383-.1808,.00461-.21069,.254-.2574,.42871-.08569,.3205-.39018,.52271-.6572,.71951-.16151,.11899-.31651,.24939-.45581,.39401-.123,.12769-.20518,.2652-.3817,.32831-.035,.01251-.0728,.0228-.0984,.0498-.02879,.0304-.03551,.07489-.0408,.11649l-.07021,.5499c-.0096,.07501-.0192,.15021-.0179,.22571,.0032,.18719,.08009,.37091,.0645,.5585-.015,.17941-.08,.37091-.127,.54541-.09869,.36661-.1452,.74719-.1378,1.1268,.0018,.09119,.00751,.18539,.0475,.2674,.0381,.078,.104,.13821,.162,.20279,.10609,.11819,.3002,.35449,.3233,.5166,.0369,.25739-.46339,.19009-.6469,.1994-.065,.0033-.13589,.0043-.18779-.03479-.07031-.05301-.07791-.15781-.13741-.2226-.1413-.15381-.25-.17221-.1414-.39749,.18681-.3877,.16991-.83829,.149-1.26801-.0054-.11209-.0118-.22791-.0621-.32819-.03931-.0784-.1028-.14182-.14999-.2157-.1994-.31241-.0733-.73859-.2179-1.0799-.06718-.15851-.1898-.28989-.2493-.45151-.05089-.13831-.0475-.32089-.11288-.44958-.06531-.12851-.21341-.18491-.33861-.26041-.0659-.0397-.13339-.0802-.2088-.0957-.1028-.02109-.2084,.0061-.3118,.02399-.257,.04449-.52379,.03119-.7751-.03879-.07469-.02081-.1579-.04581-.22659-.00961-.0565,.02979-.08609,.09329-.1339,.13571-.1176,.1044-.30141,.05591-.44479-.00821-.21851-.09769-.42639-.21909-.6189-.36139-.1142,.1546,.03571,.3631,.0506,.55469,.0125,.16031-.0735,.30911-.1366,.457-.1788,.41891-.18291,.88861-.1843,1.34399-.00018,.06241,.00081,.129,.03581,.1806,.0302,.04459,.0806,.07031,.12709,.0976,.34241,.2016,.5575,.60181,.5367,.9985l-.55251,.03381c-.1647,.0101-.3804-.01529-.41721-.17609-.01131-.0491-.0013-.1019-.0172-.14969-.0367-.1105-.1794-.13339-.2775-.19629-.1075-.06891-.1658-.1962-.18381-.3226s-.0014-.25479,.0097-.38199c.05231-.6015-.0209-1.21359-.21359-1.7858-.22469,.0752-.38168,.28549-.49451,.48309-.1344,.23529-.2527,.44849-.41769,.67151-.02769,.03741-.05659,.07831-.05659,.12491,0,.04199,.0238,.0799,.04781,.11441,.132,.19009,.295,.3573,.4276,.54709,.1326,.1897,.2363,.41229,.2254,.64359-.2562,.0437-.5182,.05289-.77669,.0271-.03191-.0032-.0677-.0058-.09251,.0145-.01469,.01199-.0228,.03009-.0298,.04779-.1106,.27802-.07249,.61041,.09821,.85611,.0712,.10251,.1629,.18961,.23241,.2933,.0695,.10361,.1163,.23309,.0818,.35309-.3196,.01651-.6405,.00989-.9592-.01971-.0372-.00351-.0761-.00781-.10689-.02881-.10861-.07391-.03091-.27011-.12662-.35989-.0488-.04581-.1268-.04651-.1781-.08929-.07851-.06549-.05811-.19061-.0191-.2851,.13699-.3317-.1194-.65561-.0218-.99261,.02921-.10089,.08881-.18991,.1339-.2847,.23489-.4938,.0605-1.0726,.0386-1.61899-.0036-.08981-.0025-.18201,.02901-.26611,.04739-.12631,.1575-.21939,.21539-.34119,.0979-.2059,.03101-.44711-.01289-.67081-.0919-.46829-.0434-.94641-.03081-1.4198-1.1001-.07059-2.19859,.1449-3.2928,.19141-1.2917,.0549-2.5419-.06189-3.7471-.5311-.04739-.01849-.09689-.0369-.1476-.0329-.06261,.00491-.117,.04279-.16809,.07941-.17191,.1232-.362,.28091-.35751,.4924,.00191,.08871,.0394,.17221,.0737,.25409,.0681,.16269,.1259,.32959,.1729,.4996,.02049,.07391,.03909,.15149,.0237,.22672s-.0744,.14691-.151,.15179c-.0864,.00562-.1541-.06949-.2074-.1377l-.4888-.62521c-.0219-.02802-.0484-.0585-.084-.05981-.0237-.00079-.0455,.0119-.0658,.0242-.20219,.1228-.4045,.24551-.6067,.36819,.0365,.27649,.0731,.55289,.1096,.82932,.00661,.04929,.0126,.10181-.0085,.14679-.0401,.08521-.1628,.10089-.2459,.05661s-.13541-.12891-.18381-.20969l-.3378-.56329c-.09531,.07501-.11659,.20889-.125,.3299-.0455,.6611,.08771,1.31989,.2202,1.96899,.04649,.22769,.09511,.46091,.21831,.6579,.1203,.19241,.3062,.34061,.4061,.54419,.12379,.25229,.105,.56879,.2789,.78949,.0778,.09869,.18629,.16711,.28371,.2464,.09731,.07919,.1889,.17871,.21011,.30249,.06718,.39389-1.03261,.25659-1.24242,.25891-.05479,.00049-.1125,.0004-.1602-.02649-.10249-.0578-.10699-.19919-.13251-.31409-.0435-.19559-.189-.3656-.3755-.4386-.04639-.01819-.0956-.03101-.13699-.05859-.09821-.06549-.12849-.1976-.1221-.31549s.041-.2337,.03799-.35181c-.0025-.10059-.03229-.19839-.06351-.2941-.0847-.25961-.1649-.56299-.30659-.79779-.31081-.51511-.4886-1.06921-.67999-1.6376l-.00008-.00021Z" fill="url(#m)"/><path d="M602.80017,104.64413v-4.10611h-1.92639v-1.58569c.33392-.12231,.33392-.39819,.33392-.71979v-2.24359c0-.328-.18292-.6095-.4693-.72751,0-.6329,.0271-1.98209,.10022-2.5676,.06342-.50879,.86969-.4407,.87872-.4407l.05249-.5997c-.4823-.04251-1.42712,.10172-1.53552,.96552-.07831,.62549-.0946,1.99911-.0946,2.6431-.28461,.11859-.49878,.40009-.49878,.7269v2.24359c0,.38321,.30823,.7016,.61639,.7724v1.53311h-3.64441l-.47961,1.9942c-2.36267,.26041-4.43799,1.4751-5.83118,3.25079-1.52271-.11292-2.90051-.58389-3.98041-1.29251l2.99847-2.9986,1.4928,1.4928c.1947,.19461,.51025,.19461,.70502,0,.19458-.1947,.19458-.51031,0-.70499l-3.5708-3.5704c-.19458-.19501-.51001-.19501-.70459,0-.19501,.19461-.19501,.51001,0,.70471l1.48779,1.4881-3.08258,3.0824c-.19647-.16901-.37891-.34689-.54492-.5332v-5.1864c0-.47519-.38531-.8605-.86047-.8605h0c-.47528,0-.8606,.38531-.8606,.8605v3.8656h-9.396c-.84668,0-1.43579,.53671-1.66742,1.2843h-.75171v2.82541h.64209v1.7236c-2.69922,.7106-4.65167,3.26151-4.4342,6.23001,.22192,3.02951,2.836,5.48209,5.87329,5.52509,3.34003,.0473,6.06262-2.646,6.06262-5.97549,0-.63721-.1001-1.25089-.28473-1.82669h9.08069c.44812,4.76279,4.77081,8.39871,9.78333,7.72141,3.7511-.50671,6.8009-3.53589,7.32971-7.28391,.43262-3.0657-.74988-5.8775-2.81927-7.71011l-.00006-.00003Z" fill="url(#n)" fill-rule="evenodd"/></g></g></g></svg>