<?xml version="1.0" encoding="UTF-8"?><svg xmlns="http://www.w3.org/2000/svg" xmlns:xlink="http://www.w3.org/1999/xlink" viewBox="0 0 750 499"><defs><linearGradient id="b" x1="376" y1="259.178" x2="376" y2="4.945" gradientTransform="matrix(1, 0, 0, 1, 0, 0)" gradientUnits="userSpaceOnUse"><stop offset="0" stop-color="#eff6fa"/><stop offset="1" stop-color="#b4d2e6"/></linearGradient><linearGradient id="c" x1="517.93665" y1="172.10237" x2="517.93665" y2="7.19664" gradientTransform="matrix(1, 0, 0, 1, 0, 0)" gradientUnits="userSpaceOnUse"><stop offset="0" stop-color="#eff6fa" stop-opacity=".3"/><stop offset="1" stop-color="#eff6fa" stop-opacity="0"/></linearGradient><linearGradient id="d" x1="90.84344" y1="176.43046" x2="90.84344" y2="51.44382" xlink:href="#c"/><linearGradient id="e" x1="627.66405" y1="136.81443" x2="627.66405" y2="44.83121" gradientTransform="matrix(1, 0, 0, 1, 0, 0)" gradientUnits="userSpaceOnUse"><stop offset="0" stop-color="#eff6fa" stop-opacity=".2"/><stop offset="1" stop-color="#eff6fa" stop-opacity="0"/></linearGradient><linearGradient id="f" x1="433.82809" y1="208.31502" x2="433.82809" y2="293.23595" gradientTransform="matrix(1, 0, 0, 1, 0, 0)" gradientUnits="userSpaceOnUse"><stop offset="0" stop-color="#b6d3e7" stop-opacity="0"/><stop offset="1" stop-color="#90bddb" stop-opacity=".5"/></linearGradient><linearGradient id="g" x1="212.09009" y1="222.05347" x2="212.09009" y2="294.66128" gradientTransform="matrix(1, 0, 0, 1, 0, 0)" gradientUnits="userSpaceOnUse"><stop offset="0" stop-color="#bad6e8" stop-opacity="0"/><stop offset="1" stop-color="#90bddb" stop-opacity=".5"/></linearGradient><linearGradient id="h" x1="391.49748" y1="303.4072" x2="364.88654" y2="464.68538" gradientTransform="matrix(1, 0, 0, 1, 0, 0)" gradientUnits="userSpaceOnUse"><stop offset="0" stop-color="#75acd2" stop-opacity="0"/><stop offset="1" stop-color="#3b8abf" stop-opacity=".4"/></linearGradient><linearGradient id="i" x1="207.80297" y1="457.4774" x2="134.82233" y2="557.82566" gradientTransform="matrix(1, 0, 0, 1, 0, 0)" gradientUnits="userSpaceOnUse"><stop offset="0" stop-color="#4992c4" stop-opacity="0"/><stop offset="1" stop-color="#3f8cc0" stop-opacity=".4"/></linearGradient><linearGradient id="j" x1="252.77392" y1="300.2672" x2="252.77392" y2="313.98183" gradientTransform="matrix(1, 0, 0, 1, 0, 0)" gradientUnits="userSpaceOnUse"><stop offset="0" stop-color="#30688d"/><stop offset=".59946" stop-color="#106ead"/><stop offset="1" stop-color="#0072bf"/></linearGradient><linearGradient id="k" x1="284.87329" y1="295.47947" x2="284.87329" y2="309.03619" xlink:href="#j"/><linearGradient id="l" x1="318.18545" y1="289.56914" x2="318.18545" y2="302.95425" xlink:href="#j"/><linearGradient id="m" x1="181.42518" y1="285.98865" x2="181.42518" y2="299.37385" xlink:href="#j"/><linearGradient id="n" x1="3145.68498" y1="299.59627" x2="3145.68498" y2="315.92974" gradientTransform="translate(3354.0606) rotate(-180) scale(1 -1)" xlink:href="#j"/><linearGradient id="o" x1="587.73314" y1="271.1959" x2="587.73314" y2="300.10688" xlink:href="#j"/></defs><g isolation="isolate"><g id="a"><g><rect x="1" y="-1" width="750" height="500" fill="url(#b)"/><g><path d="M751,111.5947c-1.51152,1.0087-2.30472,2.1938-1.75422,3.5454-2.3266-5.7107-7.8266-10.004-13.9313-10.8746-6.105-.8707-12.58648,1.7144-16.4168,6.5475,1.1616-7.8082-4.7588-15.9887-12.5391-17.3254-7.7801-1.3367-16.0914,4.3987-17.6025,12.1469-.2422-7.2096-11.00708-11.193-15.884-5.8776-.069-7.3507-4.7242-14.4638-11.4329-17.4691-6.7085-3.0053-15.1155-1.7438-20.6465,3.0982,1.8377-9.9973-6.4188-19.7454-16.1479-22.6905-9.0326-2.7341-18.1403,.7877-26.294,4.8981-1.0842-10.9261-11.075-18.9171-21.321-22.8637-15.5335-5.9832-33.7905-5.4049-48.218,2.8975-14.42779,8.3025-24.3069,24.6016-23.55279,41.2304-10.63791-5.6362-25.69131,.6294-29.18871,12.1489-1.4346-9.8149-11.1311-17.6865-21.0312-17.0734-9.9004,.6132-18.5513,9.6211-18.76409,19.5381-2.39661-4.1251-9.08121-4.0011-12.284-.4653-3.20271,3.5358-3.29031,9.0675-1.48611,13.4839-2.9968-2.7915-8.908-.1423-8.8186,3.9523-3.0369-9.792-16.8795-12.824-25.5972-7.4287-8.7175,5.3953-12.6216,16.247-13.09909,26.488-2.97141-2.7921-8.28591-2.4795-10.90941,.6417-2.62359,3.1212-2.0177,8.4102,1.2436,10.8572-5.7576-1.6672-11.8607-3.3432-17.6579-1.819-5.7972,1.5241-10.8564,7.5529-9.0667,13.2737-5.4319-3.0107-13.2644,2.3598-12.4138,8.5118-6.8641-7.0686-20.8132-4.2216-24.3582,4.9715-5.6902-.9059-11.6261-.2129-16.9543,1.9795,11.0209,4.0124,23.2555,4.6189,34.6193,1.716,3.48541,5.3352,12.4417,5.6984,16.3477,.6629,5.9615,7.1153,19.4602,4.8622,22.7876-3.8036,14.1343,11.9225,39.4822,4.8201,45.3636-12.7109,6.4899,8.6936,21.346,9.0921,28.2927,.759,.7185,6.0145,5.9692,11.1783,11.9947,11.7963,6.0257,.618,12.2152-3.3726,14.1396-9.116,15.6491,17.8045,47.7688,16.7187,62.1796-2.1021,5.7325,8.612,16.054,13.9638,26.3956,13.6863s20.36131-6.1752,25.6234-15.0823c5.4226,7.6877,17.4784,9.5805,24.99592,3.9247,9.86208,10.0553,28.73428,8.7078,37.06768-2.6466,3.1745,9.8884,13.0335,17.2316,23.417,17.4413,10.38332,.2097,20.5307-6.7295,24.1018-16.4817,2.8347,5.793,11.8287,7.2172,16.3144,2.5834,7.1376,12.2393,27.3008,13.5639,35.9783,2.3634,4.2749,5.063,10.1404,8.6544,16.50782,10.4684V111.5947Z" fill="url(#c)"/><path d="M177.54389,166.9693c-1.8271,.0331-3.6435,.5483-5.216,1.4797-.4812-1.8417-2.8349-2.9141-4.5405-2.069-.5264,.2608-.9893,.6687-1.5613,.8023-1.3185,.3081-2.4463-.9049-3.3203-1.939-2.4842-2.9393-5.6238-5.4805-9.3406-6.4782-3.7171-.9976-8.0597-.2022-10.6565,2.6381,1.208-1.3212-6.6403-5.6865-7.5046-5.959-3.5311-1.1136-7.0462-.9521-9.6552,1.8457-1.3524-7.3204-7.2729-13.5912-14.5038-15.3614-7.2307-1.7703-15.3784,1.0561-19.9596,6.9239-.0442-4.9852-7.055-8.2128-10.8711-5.0048,.6178-5.9763-8.5401-9.9316-12.4674-5.3847,2.9495-8.3628-1.1069-18.5979-8.9846-22.6696s-18.5735-1.4617-23.6901,5.781c-.0854-6.0533-.2517-12.4123-3.296-17.6451-3.0442-5.2328-10.0091-8.7121-15.3379-5.8392,2.8814-4.9292-2.6211-12.1446-8.1369-10.6703,3.5398-.9461,1.4731-10.7793,.6724-12.7637-1.6076-3.9849-4.5462-6.8333-8.1739-8.7182v112.861c.9143,.7239,1.9243,1.3267,2.9634,1.754,2.2322,.9181,4.6368,1.3197,7.0378,1.2573,5.7551-.1497,11.489-2.9658,14.7737-7.7279,.7229,3.9946,5.5615,6.1275,9.5417,5.3284,3.98-.7991,7.1919-3.6593,10.0688-6.5234,6.7362,5.9619,15.9709,9.0053,24.932,8.2167,8.9609-.7886,17.5221-5.3982,23.1135-12.4449,2.1378,4.4841,7.7987,6.383,12.7107,5.6418,4.9121-.7412,9.2375-3.5442,13.3247-6.3679,1.9976,5.3248,10.1392,6.9153,13.994,2.7339,5.5719,4.3895,14.3805,3.9287,19.464-1.0184,2.5554,2.8645,7.4783,3.1597,10.3579,.6213,1.1088,2.0071,3.9668,1.9451,6.2355,1.6123,3.1395-.4607,6.2792-.9213,9.4186-1.382,.4836-.0709,.9983-.1561,1.3594-.4856,1.3171-1.2023-.96869-3.0773-2.7518-3.0451Z" fill="url(#d)"/><path d="M751,34.9715c-2.83372-.6586-5.77562-.814-8.65872-.3342-10.4355,1.7365-17.8679,10.6747-19.373,20.8211-3.2889-3.9569-9.878-7.2431-15.0475-7.2991-3.7041-.0401-7.3986,1.5125-9.96178,4.1865-2.56342,2.6739-3.95852,6.4306-3.76222,10.1295-2.9387-.4392-6.3877-1.0828-9.0052,.7884-2.3042,1.6474-3.3485,4.8603-2.4532,7.5475-3.7301-3.593-8.8143-5.8705-13.9929-5.7926-5.1786,.0778-10.3593,2.6551-13.1803,6.9985-1.4918,2.2966-2.2974,4.9663-2.9354,7.6294-1.0541,4.3992-.3132,8.1678-.4423,12.4643-3.61648-1.6278-7.3101-2.7919-11.2229-.9054-3.54858,1.7109-5.98758,5.5126-6.06358,9.4514-13.72962-14.0801-32.75932,5.5051-36.94322,18.7137-3.1675-4.1616-7.2006-8.2232-12.3775-8.9666-5.1767-.7434-11.1687,3.6306-10.1368,8.7577-3.68848-1.7836-7.5924-3.6114-11.6796-3.3268-4.9341,.344-7.1931,3.8651-8.8611,7.9959-1.9885-3.0464-6.2779-4.2047-9.6655-2.8784-3.3877,1.3263-5.7004,4.8328-5.94429,8.4627-.94831-2.7187-4.55281-3.8467-7.20741-2.7315-2.65459,1.1151-4.3168,3.8922-4.8524,6.7213-2.3736-1.7647-5.2588-2.3156-7.7946-.5231-.9611,.6793-1.7975,1.5537-2.8641,2.0513-1.2581,.5871-2.6997,.5883-4.0882,.5785-2.6714-.0188-5.3429-.0376-8.0144-.0565-.5797,1.1195,.7058,2.2844,1.8535,2.8059,5.5949,2.5418,13.0411,2.4616,18.6547-.0372,3.6777,3.3889,10.5076,2.1173,12.7194-2.368,3.4389,1.7497,7.8154,1.4859,11.0192-.6642,5.8222,8.7599,19.1351,13.4601,27.1321,4.2008,1.4998,6.3792,9.3551,9.8829,15.6197,7.96s10.5991-8.0262,11.932-14.4423c-.7939,3.8215,12.07252,8.1027,14.5094,8.5097,6.9526,1.1614,12.1964-1.6394,18.4644-4.2343,.1198,2.0801,1.6786,3.9987,3.6903,4.5415,2.0115,.5428,4.324-.3312,5.4738-2.0688,2.2092,3.1318,5.9769,4.933,9.7855,5.3614,3.8085,.4283,7.6632-.3908,11.2748-1.6734,6.1399-2.1806,13.099-5.9175,17.8539-10.3845,2.4226,6.3109,8.9321,10.8219,15.6916,10.8742,6.75982,.0521,13.3382-4.3577,15.8579-10.6304,.2217,5.7508,4.71592,11.0631,10.3504,12.2348,5.63452,1.1718,11.8738-1.9084,14.3699-7.0941,2.4624,3.698,6.1345,6.5329,10.27562,8.1313V34.9715Z" fill="url(#e)"/></g><g><polygon points="721.78 -1 596.89 315.72 503.87 315.72 670.39 -1 721.78 -1" fill="#f3f8fb" opacity=".15"/><polygon points="614.2 -1 469.25 315.72 281.46 315.72 455.73 -1 614.2 -1" fill="#f3f8fb" opacity=".15"/><polygon points="580.52 -1 437.3 315.72 380.44 315.72 549.66989 -1 580.52 -1" fill="#f3f8fb" opacity=".2"/><polygon points="511.14 -1 346.68 315.72 318.37 315.72 495.39 -1 511.14 -1" fill="#f3f8fb" opacity=".2"/><polygon points="370.97 -1 209.26 315.72 160.27 315.72 346.59 -1 370.97 -1" fill="#f3f8fb" opacity=".15"/><polygon points="200.56 -1 24.21 315.72 1 315.72 1 215.47 142.39 -1 200.56 -1" fill="#f3f8fb" opacity=".15"/></g><g><g><path d="M751,222.8454c-28.06852-11.2968-98.84822-15.0399-168.87222-13.104-140.8934,3.8951-320.25639,49.3528-465.47169,86.19H751.00008l-.00008-73.086Z" fill="#b6d3e7"/><path d="M538.86819,244.946c54.1281-4.8764,80.2813-11.5722,80.2813-11.5722,0,0-38.5526,18.7593-24.9506,20.8348,13.6019,2.0753,172.30812-31.0753,109.1694-40.9363l-.0208-.0851c-33.6981-3.6536-77.6043-4.6516-121.2197-3.4458-58.3281,1.6125-123.251,10.352-189.613,22.6505-1.8499,1.0884-3.3452,2.2499-4.4616,3.5134-8.6627,9.8041,96.68681,13.917,150.815,9.0407Z" fill="#c6ddec"/><path d="M751.00008,222.8453c-7.623-3.068-18.4013-5.5775-31.4536-7.5688,62.8218,21.9611-12.9748,87.8993-180.647,75.4585-158.97549-11.7957-185.3924-39.2952-168.9984-54.0293-32.0724,6.2873-64.3412,13.3045-96.2359,20.6588l-2.5275,38.2979h479.86239v-72.8171Z" fill="#9ec5df"/><path d="M751,222.8454c-28.06852-11.2968-98.84822-15.0399-168.87222-13.104-140.8934,3.8951-320.25639,49.3528-465.47169,86.19H751.00008l-.00008-73.086Z" fill="url(#f)" mix-blend-mode="multiply"/></g><g><path d="M423.18019,295.6624s-86.3598-47.1389-217.85729-70.7731C73.8254,201.2552,1,214.4676,1,214.4676v81.1948H423.18019Z" fill="#bad6e8"/><path d="M230.58219,242.3477c116.0869,21.9635,192.598,53.3147,192.598,53.3147,0,0-86.3598-47.1389-217.85729-70.7731C73.8253,201.2551,1,214.4675,1,214.4675v15.5681s93.6498-13.4062,229.58219,12.3121Z" fill="#d9e9f3"/><path d="M1,245.4636s111.0326-3.4191,162.336,6.2133c51.30339,9.6325-20.2341,21.9069-3.5653,26.5134s263.40949,17.4721,263.40949,17.4721H1v-50.1988Z" fill="#a6cae2"/><path d="M423.18019,295.6624s-86.3598-47.1389-217.85729-70.7731C73.8254,201.2552,1,214.4676,1,214.4676v81.1948H423.18019Z" fill="url(#g)" mix-blend-mode="multiply"/></g><g><path d="M750.99928,235.5978c-1.3547-1.4634-2.6517-1.7345-4.69028-1.7042-.63662,.0094-1.28532,.0739-1.86812,.3302-.5536,.2434-1.0214,.6487-1.434,1.0909-1.2162,1.3036-2.0197,2.9867-2.2688,4.7521-1.1068-1.0178-2.9399-1.5498-4.3322-.8526-1.4027,.7025-2.3053,2.297-2.1856,3.8613-2.08328-2.8696-6.2251-4.1792-9.4418-2.6868-3.2168,1.4924-4.864,5.8461-3.1387,8.9441-1.0781-.489-2.4791-.1048-3.157,.8658-.67778,.9705-.5561,2.4182,.27422,3.2621-1.96122,.1257-3.96142,.4698-5.65082,1.4737-1.6895,1.0039-3.0239,2.7734-3.0728,4.738-.0488,1.9646,1.4755,3.9697,3.4384,4.0646-1.0633,.1064-2.1597,.2228-3.09578,.7382-.936,.5155-1.67812,1.5396-1.52562,2.5973,.186,1.2906,1.5202,2.0473,2.7207,2.5565-2.1425,1.8154-2.1959,5.419-.4122,7.588,1.7838,2.169,4.9613,2.8919,7.6718,2.1578,.0221,2.1819,1.3854,4.2034,3.19832,5.4177,1.813,1.2142,4.02138,1.7113,6.19848,1.8579,3.5402,.2385,7.3488-.5069,9.8926-2.9806h12.87992l-.00072-48.072Z" fill="#3f8cc0"/><path d="M751,250.3339c-3.417-1.1366-6.64092-.7671-9.49982,1.4226s-3.9415,6.7308-1.7006,9.5498c-2.6304-.7918-5.6283,1.8571-5.16658,4.5649-.706-4.1403-6.04892-3.6128-8.567-1.7538-1.98622,1.4662-3.14482,3.9852-2.96562,6.4474-2.569-.7176-5.4826,1.6677-5.28638,4.3277-2.618-1.5686-6.21752-1.2833-8.55572,.6783-2.3381,1.9616-3.2449,5.4567-2.15528,8.3075-1.27722-.0953-2.602-.1843-3.80082,.2666-1.1988,.4509-2.23518,1.6042-2.1179,2.8795-1.575-1.3885-3.8517-1.9358-5.8857-1.415-2.0341,.5209-3.7674,2.0951-4.4812,4.0698-1.7582-.9394-4.0753-.7028-5.6073,.5726-1.53208,1.2754-2.1849,3.5112-1.5798,5.4106h67.3698l-.00008-45.3285Z" fill="#69a5ce"/></g><g><rect x="1" y="295.6624" width="750.00008" height="203.3376" fill="#8ebcda"/><path d="M751.00008,342.0775c-208.57508-31.3595-427.53169-36.3597-750.00008-36.9436v-9.4715H751l.00008,46.4151Z" fill="#aacce3"/><path d="M1,499v-132.994s258.896-31.5331,460.37629-14.7531c201.48019,16.78,289.62379,54.8298,289.62379,54.8298v92.9173H1Z" fill="#75acd2"/><path d="M480.952,295.6624c31.43539,7.3646,108.95778,38.1902,128.09338,54.6516,10.4013,8.9478-4.4972,10.4228-45.8431,27.8479-40.4369,17.042-71.2648,40.8419-97.2919,65.8925-26.0271,25.0505-73.7436,54.9456-181.5703,54.9456h248.66279s10.3206-13.1215,24.671-39.2739c15.3944-28.0548,20.2433-40.5948,68.9682-62.3949,48.7248-21.8001,66.4362-26.2643,56.1612-36.5944-12.75028-12.8187-90.47528-51.3694-172.2749-65.0744h-29.57639Z" fill="#b2d1e6"/><path d="M614.70348,325.3498c-29.9413-11.8696-66.6262-23.3963-104.1751-29.6874h-29.57639c15.81169,3.7042,43.28249,13.3446,69.11919,24.1066,21.8923,1.6663,43.4052,3.5215,64.6323,5.5808Z" fill="#cadfee"/><path d="M626.64208,397.3312c15.7554-7.0492,28.248-12.2792,37.6204-16.4876-20.4322-4.6154-44.63248-9.4129-72.8071-13.9723-7.4138,2.8749-16.8169,6.4708-28.2531,11.2906-40.4368,17.042-71.2647,40.8419-97.2919,65.8925-26.0272,25.0505-73.7435,54.9456-181.5703,54.9456h248.66269s10.3207-13.1215,24.67121-39.2739c15.39418-28.0548,20.24318-40.5949,68.96808-62.3949Z" fill="#a6cae2"/><rect x="1" y="295.6624" width="750" height="203.3376" fill="url(#h)" mix-blend-mode="multiply"/></g><g><path d="M1.0007,235.5978c1.3548-1.4634,2.6517-1.7345,4.6903-1.7042,.6366,.0094,1.2853,.0739,1.8681,.3302,.5536,.2434,1.0214,.6487,1.434,1.0909,1.2162,1.3036,2.0197,2.9867,2.2688,4.7521,1.1068-1.0178,2.9399-1.5498,4.3322-.8526,1.4028,.7025,2.3053,2.297,2.1856,3.8613,2.0833-2.8696,6.2251-4.1792,9.4418-2.6868,3.2168,1.4924,4.864,5.8461,3.1387,8.9441,1.0781-.489,2.4791-.1048,3.157,.8658,.6778,.9705,.5561,2.4183-.2742,3.2621,1.9612,.1257,3.9614,.4698,5.6508,1.4737,1.6895,1.0039,3.0239,2.7735,3.0728,4.738,.0488,1.9646-1.4755,3.9698-3.4384,4.0646,1.0633,.1064,2.1597,.2228,3.0958,.7383,.936,.5154,1.6781,1.5395,1.5256,2.5972-.186,1.2906-1.5202,2.0473-2.7207,2.5565,2.1425,1.8154,2.1959,5.419,.4122,7.588s-4.9613,2.8919-7.6718,2.1578c-.0221,2.1819-1.3854,4.2034-3.1983,5.4177-1.813,1.2142-4.0214,1.7113-6.1985,1.858-3.5402,.2384-7.3488-.507-9.8926-2.9807H1l.0007-48.072Z" fill="#3f8cc0"/><path d="M1.0001,250.3339c3.4171-1.1366,6.6409-.7671,9.4998,1.4226s3.9415,6.7308,1.7007,9.5498c2.6303-.7918,5.6283,1.8571,5.1665,4.5649,.706-4.1403,6.049-3.6128,8.5671-1.7538,1.9861,1.4662,3.1448,3.9852,2.9655,6.4474,2.569-.7176,5.4826,1.6677,5.2864,4.3277,2.618-1.5686,6.2175-1.2832,8.5557,.6783,2.3382,1.9616,3.2449,5.4567,2.1553,8.3075,1.2772-.0953,2.6021-.1843,3.8008,.2666,1.1988,.4509,2.2352,1.6042,2.1179,2.8795,1.5751-1.3885,3.8517-1.9358,5.8858-1.4149,2.034,.5208,3.7674,2.0951,4.4811,4.0697,1.7582-.9394,4.0753-.7028,5.6074,.5726,1.532,1.2754,2.1848,3.5112,1.5798,5.4106H1l.0001-45.3285Z" fill="#6ba6cf"/></g><g><path d="M751,424.7429c-4.54972-5.6877-18.47522-3.9827-21.95652,0-3.4814,3.9828-4.6418,12.0269-2.7077,15.1609,0,0-5.0287-5.7627-10.8309-2.6682-5.8023,3.0946,0,9.3556,0,9.3556,0,0-6.1891,1.103-6.1891,5.3507s3.86822,7.7842,3.86822,7.7842c0,0-5.02862-1.5975-6.96272,1.8814-1.9341,3.479,0,6.2053,0,6.2053,0,0-.1739-10.5447-14.5926-11.4707-14.41868-.926-17.5133,11.158-17.5133,11.158,0,0-4.255-6.8987-12.3781-4.4627-8.1232,2.4359-6.9627,8.3163-6.9627,8.3163,0,0-5.0287-3.9188-9.28358-.838-4.255,3.0808-3.09462,6.5821-3.09462,6.5821,0,0-9.9562-8.7808-21.2066-2.1715-11.2505,6.6092-8.5783,14.5297-8.5783,14.5297,0,0-8.0972-8.8968-17.2004-3.0946l-1.00408,6.1891s-6.55182-6.9627-14.28822-5.0286c-7.7363,1.9341-8.89678,5.0286-8.89678,5.0286,0,0-15.84031-7.2155-25.52031,6.4495h205.29831v-74.2571Z" fill="#3f8cc0"/><path d="M626.64208,499h124.358v-39.0567c-2.8476-.2198-5.7905,.3989-8.38108,1.6448-3.90892,1.88-7.09062,5.0185-9.71872,8.4693-1.4502,1.9044-2.8098,4.11-2.6658,6.4995-5.33248-4.039-13.2651-1.3179-12.019,6.3216-1.4144-2.322-5.0971-2.3165-7.137-.5189s-2.6959,4.7211-2.6709,7.44c-4.48658-3.3626-9.354-6.8665-14.95658-7.0822-5.60272-.2156-11.70052,4.583-10.56032,10.0726-1.6186-2.4745-3.4245-5.1022-6.2036-6.1124-2.779-1.0104-6.6493,.6708-6.6225,3.6277-2.9612-2.5507-6.7102-4.5465-10.605-4.2217-3.8947,.3248-7.6694,3.6695-7.3669,7.5661-1.3794-2.4319-4.1398-4.1758-6.9163-3.8465-2.77638,.3293-5.1873,3.0849-4.689,5.836-2.0669-3.2306-6.7907-4.4012-10.1269-2.5094-2.1023,1.192-3.4416,3.4812-3.7184,5.8702Z" fill="#00263f"/></g><g><g><polygon points="202.27019 373.2011 207.38929 426.086 212.43439 427.6849 211.06939 373.2011 202.27019 373.2011" fill="#0d79c2"/><polygon points="204.48059 396.0362 203.83689 374.3064 208.37559 373.2011 202.27019 373.2011 204.48059 396.0362" fill="#296389"/><polygon points="209.27219 426.6827 208.37559 373.2011 211.06939 373.2011 212.43439 427.6849 209.27219 426.6827" fill="#0072bf"/></g><g><polygon points="288.11069 382.1891 292.52519 449.6038 297.57029 450.9285 297.57029 383.2402 288.11069 382.1891" fill="#0d79c2"/><path d="M294.16729,382.8621l-4.5619,.4842s1.30561,41.6067,1.2918,41.3958l-2.7865-42.553,6.0566,.673Z" fill="#296389"/><polygon points="297.57029 383.2402 294.16729 382.8621 295.20539 450.3075 297.57029 450.9285 297.57029 383.2402" fill="#0072bf"/></g><g><polygon points="380.39389 399.2163 385.64919 482.2203 390.90449 483.9318 390.90449 400.443 380.39389 399.2163" fill="#0d79c2"/><polygon points="388.08449 400.1139 382.07409 400.6768 383.73209 451.9419 380.39389 399.2163 388.08449 400.1139" fill="#296389"/><polygon points="390.90449 400.443 388.08449 400.1139 388.58279 483.1757 390.90449 483.9318 390.90449 400.443" fill="#0072bf"/></g><g><polygon points="486.175 499 480.952 420.4522 494.29959 423.2691 494.29959 499 486.175 499" fill="#0d79c2"/><polygon points="489.74929 422.3088 482.67169 422.3088 485.11169 483.0104 480.952 420.4522 489.74929 422.3088" fill="#296389"/><polygon points="494.29959 423.2691 494.29959 499 490.15749 499 489.74929 422.3088 494.29959 423.2691" fill="#0072bf"/></g><g><polygon points="588.89378 499 587.73318 445.2559 601.08078 447.5772 598.46928 499 588.89378 499" fill="#0d79c2"/><polygon points="595.41108 446.5912 589.56258 447.0287 588.86038 497.4515 587.73318 445.2559 595.41108 446.5912" fill="#296389"/><polygon points="601.08078 447.5772 595.41108 446.5912 595.41108 499 598.46928 499 601.08078 447.5772" fill="#0072bf"/></g><g><path d="M691.62868,499c-128.5073-48.6471-384.50339-109.8912-495.81239-118.1923l-8.2219,1.6702,7.37961,3.3208c103.01189,9.1528,328.74049,65.8439,474.27328,113.2013h22.3814Z" fill="#0072bf"/><path d="M678.95618,499c-128.50718-48.6472-380.05279-108.2211-491.36179-116.5221l1.0563,3.9742c103.0119,9.1528,318.52809,58.8038,474.43859,112.5479h15.8669Z" fill="#0d79c2"/><path d="M678.95618,499c-128.5071-48.6472-380.05279-108.2211-491.36179-116.5222l.3552,1.3368c110.5961,8.3791,358.06289,66.8606,487.35589,115.1854h3.6507Z" fill="#296389"/></g><g><path d="M578.359,499c-115.073-41.5677-246.94331-82.6407-382.74051-102.3926l-8.2219,1.6702,7.3797,3.3208c86.976,7.7281,225.19009,54.5165,353.71289,97.4016h29.86981Z" fill="#0072bf"/><path d="M565.99839,499c-112.38739-40.9458-236.43369-80.2084-378.60179-100.7224l1.0563,3.9742c135.52011,20.2935,234.46919,53.9741,357.24879,96.7482h20.2967Z" fill="#0d79c2"/><path d="M565.99839,499c-112.38739-40.9458-236.43369-80.2084-378.60179-100.7224l.2671,1.0048c140.9377,20.363,264.05859,59.1469,375.67349,99.7176h2.6612Z" fill="#296389"/></g></g><g><g><path d="M82.1417,394.8659c-6.4112-.4061-12.8298-.6944-19.2516-.8649-12.8435-.3409-25.6996-.2105-38.5335,.3913-5.647,.2648-11.2896,.6209-16.9251,1.0683l-6.4315-.1384v-66.5793c0-.3277,3.8176-2.7303,9.1377-2.73,3.4584,.0003,7.8916,2.3938,10.2413,4.957,3.548,3.8704,4.3488,10.0107,1.9121,14.6616,2.6376-2.0149,6.7137-.8037,8.8426,1.7428,2.1289,2.5466,2.7777,5.9883,3.2148,9.2786,1.698-2.342,3.976-4.363,6.7316-5.2431,2.7556-.8802,6.0188-.4577,8.1408,1.5084,2.0223,1.8738,2.7362,4.8372,2.5089,7.5848s-1.2735,5.352-2.3077,7.9077c2.269-.1906,4.6053,.7337,6.1298,2.425s2.2022,4.1107,1.7779,6.3478c1.9224-1.26,4.6393-1.1554,6.4591,.2486,2.5252,1.9482,2.1001,5.1606,2.2531,7.975,3.012-1.4585,7.1393,.6207,7.7599,3.9092,.5144-1.6895,2.8602-2.2497,5.0918-1.853,1.1993,.2132,2.2664,1.699,2.5218,2.89,.7658-.6549,1.8921-.7898,2.8542-.4903,.9622,.2994,1.7687,.985,2.3751,1.7898,.4936,.655,.8829,1.4732,.7128,2.2755-.4106,1.9377-3.8792,1.0222-5.2159,.9376Z" fill="#3f8cc0"/><path d="M58.3712,391.2006c-.8353-3.4934-3.6871-6.5103-7.0722-7.9315-4.2259-1.7742-9.0572-1.4664-13.5102-.3815-.7235-2.8181-3.2165-5.0977-6.088-5.5667-2.8716-.469-5.9602,.8988-7.543,3.3403,1.3786-2.863-1.2219-5.7531-4.3929-5.5487,.7043-2.8813-.5784-5.1929-2.6071-5.6259-2.0286-.4331-4.0805,.4668-5.9487,1.3686,2.4785-4.2398,1.8096-10.08-1.5637-13.6494-2.3201-2.4551-5.6996-3.8048-8.6454-3.5218v38.9329l6.4315,.1384c16.9413-1.3449,33.9478-1.8595,50.9397-1.5547Z" fill="#00263f"/></g><g><path d="M1,390.4368s64.4644-8.9854,191.03649,19.788c126.5722,28.7734,241.12799,88.7752,241.12799,88.7752H1v-108.5632Z" fill="#4992c4"/><path d="M1,390.4368v8.5222c35.6858-.2314,112.9268,.2345,209.92149,23.1235,96.9948,22.889,222.24289,76.9175,222.24289,76.9175,0,0-114.5556-60.0018-241.12789-88.7753C65.4645,381.4514,1,390.4368,1,390.4368Z" fill="#9ec5df"/><path d="M1,442.0314c48.9733,1.8023,176.37679,33.2383,231.31219,56.9686H1v-56.9686Z" fill="#3d8bc0"/><path d="M138.2206,442.0314c21.2788-20.6801,39.3371-29.2997,49.3738-32.8036-16.0937-3.5877-31.1669-6.5643-45.199-9.0202C69.3944,400.8441,1,469.7326,1,469.7326v29.2674H95.558s15.6562-30.722,42.6626-56.9686Z" fill="#84b6d7"/><path d="M110.4471,404.5515c19.9906,2.2864,41.7751,5.4823,65.0057,9.944,4.7806-2.4507,8.8853-4.131,12.1416-5.2677l-.0098-.0022c-8.0234-1.7885-15.793-3.425-23.30659-4.921l-.0667-.0134c-1.7947-.3572-3.5729-.7053-5.3384-1.0466-.0962-.0186-.1943-.0382-.2904-.0567-1.6605-.3205-3.3043-.6321-4.9388-.9388-.1946-.0365-.3931-.0749-.5874-.1112-1.5559-.291-3.095-.5731-4.6272-.8517-.2567-.0467-.5186-.096-.7746-.1423-1.7367-.3142-3.4574-.6205-5.1633-.9192l-.0958-.0171c-10.8208,.0944-21.5376,1.6971-31.9483,4.3439Z" fill="#b2d1e6"/><path d="M30.2489,445.0715c-18.0974,13.4319-29.2489,24.6611-29.2489,24.6611v29.2674H95.558s8.3918-16.4531,23.4703-35.5621c-31.9076-7.988-63.756-14.6675-88.7794-18.3664Z" fill="#71aad1"/><path d="M1,390.4368s64.4644-8.9854,191.03649,19.788c126.5722,28.7734,241.12799,88.7752,241.12799,88.7752H1v-108.5632Z" fill="url(#i)" mix-blend-mode="multiply"/></g><g><g><path d="M324.26269,481.4276s-1.2804-3.2054,1.42431-5.3429c2.70459-2.1375,5.19149-1.5654,5.19149-1.5654,0,0-3.3472,1.152-3.8013,2.5785-.454,1.4265-2.8145,4.3298-2.8145,4.3298Z" fill="#3d8bc0"/><path d="M326.03159,481.6537s.4876-3.4415,2.8802-4.8978c2.3926-1.4564,6.3455-.6712,6.3455-.6712,0,0-1.40429,3.2718-3.7969,4.208-2.3926,.9363-5.4288,1.361-5.4288,1.361Z" fill="#3d8bc0"/><path d="M328.34759,481.6537s2.2755-2.078,4.2285-2.0055c1.9531,.0724,3.3574,1.3727,3.3574,1.3727,0,0-1.3003,1.1443-3.1208,1.1963-1.8204,.052-4.4651-.5635-4.4651-.5635Z" fill="#3d8bc0"/></g><g><path d="M241.62579,469.7326s-.0373-3.1107,2.886-4.1424c2.9233-1.0318,6.1905,.5191,6.1905,.5191,0,0-1.4617,2.1462-3.7831,3.006s-5.2934,.6173-5.2934,.6173Z" fill="#3d8bc0"/><path d="M239.53179,469.7326s-.8417-6.2353,3.0149-7.2953c3.8566-1.0601,6.436-.8021,6.436-.8021,0,0-.6878,4.6172-3.869,6.1776-3.1812,1.5605-5.5819,1.9198-5.5819,1.9198Z" fill="#3d8bc0"/></g><g><path d="M22.6621,424.8048c-.3312-2.1215,4.8813-5.9312,5.687-5.2063,.8057,.7248-.7473,2.1634-2.3003,3.5795-1.5531,1.4162-3.3867,1.6268-3.3867,1.6268Z" fill="#3d8bc0"/><path d="M25.5042,424.8048s.674-4.7896,4.9448-6.1885c4.2709-1.399,6.8593,0,6.8593,0,0,0-1.6529,3.2739-4.6591,4.5617-3.0063,1.2879-7.145,1.6268-7.145,1.6268Z" fill="#3d8bc0"/><path d="M36.1435,423.9471c-.546-1.0921-4.9764-2.0819-7.7944,.6415,0,0,2.8764,.9356,4.6883,.8588,1.8119-.0767,3.8826,.0527,3.1061-1.5003Z" fill="#3d8bc0"/></g><g><g><path d="M234.65649,456.3421c-1.8752,2.933-2.2413,6.6953,0,9.6834,1.7574,2.3432,4.8753,3.7071,4.8753,3.7071,0,0,1.43821-2.9966,.2829-6.6952-1.1554-3.6987-5.1582-6.6953-5.1582-6.6953Z" fill="#76aed2"/><path d="M241.62579,469.7326s-.9829-4.3853,.4914-6.6952c1.4743-2.31,3.6857-3.0471,3.6857-3.0471,0,0,.4845,3.2552,0,4.8712-.86,2.8688-4.1771,4.8711-4.1771,4.8711Z" fill="#76aed2"/><path d="M236.68679,469.5164c-.6143-1.3514-3.8484-3.7375-5.3227-3.3689s-.69709,1.6653,.9481,2.5657c1.0612,.5808,4.3746,.8032,4.3746,.8032Z" fill="#76aed2"/></g><g><path d="M249.13449,413.6394c-3.083,1.6167-5.2671,4.702-4.8031,8.4083,.3639,2.9064,2.39461,5.6372,2.39461,5.6372,0,0,2.73519-1.8886,3.56649-5.6733,.8314-3.7847-1.158-8.3722-1.158-8.3722Z" fill="#dfecf5"/><path d="M248.54429,428.7235s1.32171-4.2954,3.7476-5.5699c2.4259-1.2744,4.7117-.8176,4.7117-.8176,0,0-1.1939,3.0668-2.4161,4.2297-2.1697,2.0645-6.0432,2.1578-6.0432,2.1578Z" fill="#dfecf5"/><path d="M244.36289,426.086c.1369-1.4782-1.4878-5.1542-2.9508-5.5654-1.4629-.4112-1.4313,1.1003-.4494,2.6981,.6335,1.0307,3.4002,2.8673,3.4002,2.8673Z" fill="#dfecf5"/></g><g><path d="M326.03159,481.6537s-2.3165-2.0077-1.5444-5.5598c.7722-3.552,4.1699-5.5782,4.1699-5.5782,0,0,1.5443,3.8794,1.081,6.6593s-3.7065,4.4787-3.7065,4.4787Z" fill="#76aed2"/><path d="M324.32969,481.6537s-4.0123-1.8533-4.0123-3.7065c0-1.8533,1.39-5.4053,1.39-5.4053,0,0,1.2355,1.5259,1.3899,3.5428s1.2324,5.569,1.2324,5.569Z" fill="#76aed2"/><path d="M328.34759,481.6537s1.9092-3.8703,5.0242-3.2674c0,0,.8039,3.4198-5.0242,3.2674Z" fill="#76aed2"/></g><g><path d="M30.3795,411.4143c1.8751,2.933,2.2412,6.6952,0,9.6834-1.7575,2.3432-4.8753,3.7071-4.8753,3.7071,0,0-1.4383-2.9966-.283-6.6953,1.1554-3.6986,5.1583-6.6952,5.1583-6.6952Z" fill="#76aed2"/><path d="M23.2754,423.178s.4102-4.4754-1.3492-6.5763-4.0473-2.5472-4.0473-2.5472c0,0-.0614,3.2904,.627,4.8306,1.2222,2.7343,4.7695,4.2929,4.7695,4.2929Z" fill="#76aed2"/><path d="M28.3491,424.5886c.6143-1.3514,3.8484-3.7375,5.3227-3.3689s.6971,1.6653-.9481,2.5657c-1.0612,.5808-4.3746,.8032-4.3746,.8032Z" fill="#76aed2"/><path d="M22.6621,424.8048s-2.1518-3.4288-6.6209-4.0909c0,0-.5483,1.4898,1.8363,2.9795,2.3845,1.4897,4.7846,1.1114,4.7846,1.1114Z" fill="#76aed2"/></g><g><path d="M94.2707,394.6774c-2.2048-1.1871-4.2912-5.1305-3.1041-9.0312,1.1872-3.9007,3.1041-6.2323,3.1041-6.2323,0,0,3.5615,4.5791,3.7311,7.6318s-3.7311,7.6317-3.7311,7.6317Z" fill="#dfecf5"/><path d="M91.4504,393.6879s0-4.8602-4.4599-6.6422c0,0-.4956,3.1734,1.3875,4.9574,1.8831,1.784,3.0724,1.6848,3.0724,1.6848Z" fill="#dfecf5"/></g></g></g></g><g><g><g><path d="M696.37848,330.5658s-.0279-2.333,2.1646-3.1068c2.1924-.7738,4.6428,.3893,4.6428,.3893,0,0-1.0962,1.6097-2.8373,2.2545-1.741,.6449-3.9701,.463-3.9701,.463Z" fill="#3d8bc0"/><path d="M694.808,330.5658s-.63122-4.6765,2.26128-5.4715c2.8924-.795,4.8269-.6016,4.8269-.6016,0,0-.5158,3.463-2.9017,4.6333s-4.18648,1.4398-4.18648,1.4398Z" fill="#3d8bc0"/></g><g><path d="M691.15158,320.5229c-1.4064,2.1997-1.681,5.0214,0,7.2626,1.3181,1.7573,3.65642,2.7803,3.65642,2.7803,0,0,1.07868-2.2474,.21218-5.0215-.8665-2.774-3.8686-5.0214-3.8686-5.0214Z" fill="#4590c2"/><path d="M696.37848,330.5658s-.7371-3.289,.3686-5.0215c1.1057-1.7324,2.7643-2.2853,2.7643-2.2853,0,0,.3633,2.4414,0,3.6534-.645,2.1517-3.1329,3.6534-3.1329,3.6534Z" fill="#4590c2"/><path d="M692.67428,330.4036c-.4607-1.0135-2.88628-2.8031-3.992-2.5267-1.1057,.2765-.5228,1.2491,.711,1.9243,.796,.4356,3.281,.6024,3.281,.6024Z" fill="#4590c2"/></g></g><g><g><path d="M696.53968,413.4333s-.9604-2.404,1.0681-4.0072c2.0285-1.6031,3.8937-1.174,3.8937-1.174,0,0-2.5104,.8639-2.8509,1.9338-.34058,1.0699-2.1109,3.2474-2.1109,3.2474Z" fill="#3d8bc0"/><path d="M697.86628,413.6029s.36572-2.5811,2.1601-3.6734c1.7945-1.0923,4.7592-.5034,4.7592-.5034,0,0-1.0532,2.4539-2.8477,3.156-1.7944,.7022-4.0716,1.0208-4.0716,1.0208Z" fill="#3d8bc0"/><path d="M699.60328,413.6029s1.70672-1.5585,3.1714-1.5042c1.4648,.0543,2.518,1.0296,2.518,1.0296,0,0-.9752,.8582-2.3405,.8972-1.3654,.039-3.3489-.4226-3.3489-.4226Z" fill="#3d8bc0"/></g><g><path d="M697.86628,413.6029s-1.7374-1.5058-1.1582-4.1699c.5791-2.664,3.1273-4.1836,3.1273-4.1836,0,0,1.1583,2.9095,.8108,4.9944-.3475,2.085-2.7799,3.3591-2.7799,3.3591Z" fill="#4590c2"/><path d="M696.58988,413.6029s-3.0092-1.39-3.0092-2.7799c0-1.39,1.0424-4.054,1.0424-4.054,0,0,.9267,1.1444,1.0425,2.6571s.9243,4.1768,.9243,4.1768Z" fill="#4590c2"/><path d="M699.60328,413.6029s1.4319-2.9028,3.7682-2.4506c0,0,.6029,2.5649-3.7682,2.4506Z" fill="#4590c2"/></g></g><g><g><path d="M161.2251,341.4829s-.9603-2.404,1.0682-4.0072c2.0285-1.6031,3.8936-1.174,3.8936-1.174,0,0-2.5104,.864-2.8509,1.9338-.3405,1.0699-2.1109,3.2474-2.1109,3.2474Z" fill="#3d8bc0"/><path d="M162.5518,341.6525s.3656-2.5811,2.1601-3.6734c1.7944-1.0923,4.7592-.5034,4.7592-.5034,0,0-1.0533,2.4539-2.8477,3.1561-1.7945,.7021-4.0716,1.0207-4.0716,1.0207Z" fill="#3d8bc0"/><path d="M164.2887,341.6525s1.7067-1.5585,3.1715-1.5042c1.4647,.0544,2.518,1.0296,2.518,1.0296,0,0-.9752,.8582-2.3406,.8972-1.3653,.039-3.3489-.4226-3.3489-.4226Z" fill="#3d8bc0"/></g><g><path d="M162.5518,341.6525s-1.7374-1.5058-1.1583-4.1698c.5791-2.6641,3.1274-4.1837,3.1274-4.1837,0,0,1.1582,2.9095,.8108,4.9945-.3475,2.0849-2.7799,3.359-2.7799,3.359Z" fill="#4590c2"/><path d="M161.2753,341.6525s-3.0092-1.39-3.0092-2.7799,1.0425-4.054,1.0425-4.054c0,0,.9266,1.1444,1.0424,2.6571,.1159,1.5127,.9243,4.1768,.9243,4.1768Z" fill="#4590c2"/><path d="M164.2887,341.6525s1.4319-2.9028,3.7682-2.4506c0,0,.6029,2.5649-3.7682,2.4506Z" fill="#4590c2"/></g></g><g><g><path d="M356.58639,357.445c-.1988-1.2729,2.9287-3.5587,3.4122-3.1238,.48341,.4349-.4484,1.298-1.3802,2.1477-.9319,.8497-2.032,.9761-2.032,.9761Z" fill="#3d8bc0"/><path d="M358.29159,357.445s.40441-2.8737,2.9669-3.7131c2.56251-.8394,4.1156,0,4.1156,0,0,0-.9918,1.9643-2.7955,2.737s-4.287,.9761-4.287,.9761Z" fill="#3d8bc0"/><path d="M364.67519,356.9304c-.3276-.6553-2.9858-1.2492-4.6766,.3849,0,0,1.7258,.5613,2.813,.5153,1.0871-.0461,2.3295,.0316,1.8636-.9002Z" fill="#3d8bc0"/></g><g><path d="M361.21679,349.4107c1.1251,1.7598,1.3447,4.0171,0,5.81-1.0545,1.4059-2.9252,2.2243-2.9252,2.2243,0,0-.863-1.7979-.1697-4.0172,.6932-2.2192,3.0949-4.0171,3.0949-4.0171Z" fill="#4590c2"/><path d="M356.95429,356.4689s.2461-2.6852-.8095-3.9457c-1.0556-1.2606-2.4284-1.5284-2.4284-1.5284,0,0-.0368,1.9743,.3763,2.8984,.73331,1.6406,2.8616,2.5757,2.8616,2.5757Z" fill="#4590c2"/><path d="M359.99859,357.3153c.3685-.8109,2.309-2.2425,3.1936-2.0214,.8846,.2212,.4183,.9992-.5688,1.5394-.6368,.3485-2.6248,.482-2.6248,.482Z" fill="#4590c2"/><path d="M356.58639,357.445s-1.2911-2.0573-3.9726-2.4545c0,0-.3289,.8938,1.1018,1.7876,1.4307,.8939,2.8708,.6669,2.8708,.6669Z" fill="#4590c2"/></g></g><g><g><path d="M42.4862,320.7084c-.2484-1.5911,3.661-4.4484,4.2653-3.9048,.6043,.5437-.5605,1.6226-1.7253,2.6847s-2.54,1.2201-2.54,1.2201Z" fill="#3d8bc0"/><path d="M44.6178,320.7084s.5055-3.5922,3.7086-4.6414c3.2031-1.0493,5.1444,0,5.1444,0,0,0-1.2396,2.4554-3.4943,3.4213s-5.3587,1.2201-5.3587,1.2201Z" fill="#3d8bc0"/><path d="M52.5973,320.0651c-.4096-.819-3.7323-1.5614-5.8458,.4811,0,0,2.1573,.7017,3.5162,.6442,1.3589-.0576,2.9119,.0395,2.3296-1.1253Z" fill="#3d8bc0"/></g><g><path d="M48.2742,310.6655c1.4064,2.1997,1.681,5.0214,0,7.2625-1.3181,1.7574-3.6564,2.7804-3.6564,2.7804,0,0-1.0787-2.2475-.2122-5.0215s3.8686-5.0214,3.8686-5.0214Z" fill="#4590c2"/><path d="M42.9462,319.4883s.3076-3.3565-1.0119-4.9322-3.0355-1.9105-3.0355-1.9105c0,0-.046,2.4679,.4703,3.623,.9166,2.0507,3.5771,3.2197,3.5771,3.2197Z" fill="#4590c2"/><path d="M46.7515,320.5462c.4607-1.0135,2.8863-2.8031,3.992-2.5267,1.1057,.2765,.5228,1.2491-.7111,1.9243-.7959,.4356-3.2809,.6024-3.2809,.6024Z" fill="#76aed2"/><path d="M42.4862,320.7084s-1.6138-2.5716-4.9657-3.0682c0,0-.4112,1.1173,1.3773,2.2346,1.7884,1.1173,3.5884,.8336,3.5884,.8336Z" fill="#4590c2"/></g></g><g><path d="M371.01309,306.6378s-5.6994,7.7029-8.1109,23.6146c-2.4115,15.9116,8.1109,17.6201,8.1109,17.6201,0,0,9.2415-2.7432,7.4915-17.5941s-7.4915-23.6406-7.4915-23.6406Z" fill="#579bc8"/><polygon points="370.63409 329.3104 369.56769 357.3017 372.15509 357.3017 370.63409 329.3104" fill="#3989bf"/></g><g><g><path d="M625.15188,259.9464s-4.0178,5.4302-5.7178,16.6473,5.7178,12.4215,5.7178,12.4215c0,0,6.5149-1.9338,5.2813-12.4031-1.2337-10.4693-5.2813-16.6657-5.2813-16.6657Z" fill="#63a2cc"/><polygon points="624.88478 275.9296 624.133 295.6624 625.957 295.6624 624.88478 275.9296" fill="#3989bf"/></g><g><path d="M637.28468,245.164s-5.6808,7.6777-8.0844,23.5374,8.0844,17.5626,8.0844,17.5626c0,0,9.21132-2.7342,7.4671-17.5366-1.7443-14.8024-7.4671-23.5634-7.4671-23.5634Z" fill="#579bc8"/><polygon points="636.90688 267.7625 635.844 295.6624 638.423 295.6624 636.90688 267.7625" fill="#3989bf"/></g></g><g><g><path d="M88.4133,259.9464s4.0178,5.4302,5.7179,16.6473c1.7,11.2171-5.7179,12.4215-5.7179,12.4215,0,0-6.5149-1.9338-5.2812-12.4031,1.2336-10.4693,5.2812-16.6657,5.2812-16.6657Z" fill="#63a2cc"/><polygon points="88.6805 275.9296 89.4322 295.6624 87.6082 295.6624 88.6805 275.9296" fill="#3989bf"/></g><g><path d="M76.2805,245.164s5.6808,7.6777,8.0844,23.5374c2.4037,15.8597-8.0844,17.5626-8.0844,17.5626,0,0-9.2113-2.7342-7.467-17.5366,1.7443-14.8024,7.467-23.5634,7.467-23.5634Z" fill="#579bc8"/><polygon points="76.6583 267.7625 77.7212 295.6624 75.1422 295.6624 76.6583 267.7625" fill="#3989bf"/></g></g><g><g><path d="M155.6273,290.735s-5.6994,7.7029-8.1109,23.6146,8.1109,17.6202,8.1109,17.6202c0,0,9.2415-2.7433,7.4916-17.5942-1.75-14.8509-7.4916-23.6406-7.4916-23.6406Z" fill="#63a2cc"/><polygon points="155.2483 313.4076 154.1819 341.3989 156.7694 341.3989 155.2483 313.4076" fill="#3989bf"/></g><g><path d="M142.5517,285.3335s-5.6994,7.7029-8.1109,23.6146,8.1109,17.6202,8.1109,17.6202c0,0,9.2415-2.7432,7.4915-17.5941-1.7499-14.851-7.4915-23.6407-7.4915-23.6407Z" fill="#579bc8"/><polygon points="142.1727 308.0061 141.1063 335.9975 143.6938 335.9975 142.1727 308.0061" fill="#3989bf"/></g></g><g><path d="M600.88318,335.3452c-2.3123,1.2125-3.9503,3.5265-3.6023,6.3062,.2729,2.1798,1.7959,4.2279,1.7959,4.2279,0,0,2.0514-1.4165,2.6749-4.255s-.8685-6.2791-.8685-6.2791Z" fill="#cadfee"/><path d="M600.44048,346.6582s.9913-3.2215,2.8107-4.1773c1.8194-.9559,3.53382-.6133,3.53382-.6133,0,0-.89542,2.3001-1.81212,3.1723-1.6273,1.5484-4.5324,1.6183-4.5324,1.6183Z" fill="#cadfee"/><path d="M597.30448,344.6801c.1027-1.1086-1.1159-3.8656-2.2131-4.174s-1.0735,.8252-.337,2.0236c.4751,.773,2.5501,2.1504,2.5501,2.1504Z" fill="#cadfee"/></g><g><path d="M576.62348,429.7731c1.65352-.8904,3.2184-3.848,2.328-6.7735-.8903-2.9255-2.328-4.6742-2.328-4.6742,0,0-2.6711,3.4343-2.7983,5.7238-.12718,2.2896,2.7983,5.7239,2.7983,5.7239Z" fill="#cadfee"/><path d="M578.73868,429.031s0-3.6453,3.3449-4.9818c0,0,.3717,2.3801-1.04058,3.7181-1.41232,1.338-2.30432,1.2637-2.30432,1.2637Z" fill="#cadfee"/></g></g><g><path d="M527.68509,295.5815c.0361,.0287,.0793,.0531,.1172,.0809h83.3782c-1.147-1.894-3.8876-2.7092-5.8302-1.5862-1.276-1.8625-4.2058-2.2988-5.9692-.8888-.3579-1.0487-1.4042-1.8237-2.5118-1.8601-1.1075-.0364-2.2025,.668-2.6287,1.6909-.524-.8243-1.2373-1.6068-2.1849-1.8437-.94768-.2368-2.1265,.3011-2.2729,1.2668-.3766-1.1222-1.4189-1.9919-2.5904-2.1615-1.17138-.1695-2.4175,.3689-3.0968,1.3383,.242-1.0295-.3275-2.1908-1.28958-2.6298-.96212-.439-2.21252-.1081-2.83152,.7492,.1973-2.0024-.252-3.576-2.0749-4.4281-1.3479-.6302-3.2851-.6698-4.6139,0-1.8491,.932-2.3784,1.9957-3.01,4.3271-.99368-1.8551-4.053-1.4538-5.2681,.2644,.6489-2.0617-1.0878-4.5013-3.2484-4.5629-2.1605-.0617-4.0336,2.2748-3.5033,4.3702-.1602-1.2807-1.8542-2.0757-2.9416-1.3803,.54171-1.2397,.852-2.6322,.5523-3.9514-.2997-1.3191-1.3128-2.5302-2.6437-2.7731-1.1174-.2038-2.3523,.4613-2.7652,1.4778,.0829-1.2813-1.2396-2.6205-2.543-2.2762,1.85-1.5258,1.8656-4.7643,.0307-6.3081-1.835-1.5437-5.0231-.974-6.2098,1.1098,.1768-1.0114-.3044-2.1068-1.1688-2.6609-.8644-.554-2.0607-.5339-2.9059,.0491,.058-2.0409-1.0045-4.0789-2.711-5.1998-1.7064-1.1209-3.99889-1.2866-5.8488-.4226-.8857,.4136-1.63,.705-2.1262,1.5472-.4961,.8422-.684,1.8262-.8394,2.7912-.9627,5.983-.9834,12.1167-.0607,18.1062,.226,1.468,.4184,4.8221,1.6103,5.7644Z" fill="#6da8cf"/><path d="M413.85069,295.6624c1.2894-1.4349,1.9236-3.3696,2.0871-5.5245,.3725-4.91,.1438-9.8654-.6792-14.7203-.72059-4.2502-3.0302-7.7842-7.8799-7.3069-2.48769,.2449-4.7616,1.5884-6.5831,3.3004-1.5682,1.4741-1.6549,3.4547-1.4097,5.4803-1.4373-1.3022-4.1972-.2603-4.4154,1.6668-.77549-.9477-1.6683-1.8465-2.7929-2.3313-1.12459-.4848-2.5245-.482-3.48959,.2718-.96511,.7539-1.25671,2.3455-.41781,3.2377-1.0884-.2704-2.3316-.1382-3.1844,.5899-.8531,.7281-1.14979,2.1252-.4645,3.0129-.8816-1.0046-2.5405-1.2053-3.6364-.4399-1.0956,.7654-1.47789,2.3921-.8387,3.5647-.8165-1.3547-2.9337-.6618-3.525,.5886-1.13519-1.9271-3.5008-2.7709-5.7263-2.9915-1.221-.1211-2.5075-.0872-3.59789,.4755-2.20411,1.1376-2.85381,3.9268-3.26461,6.3731-.5236-.6428-1.1023-1.2666-1.8375-1.6499-1.7668-.9214-3.611,.4234-4.5498,1.936-1.7999-2.0559-4.2193-3.7454-6.9435-3.9575s-5.6861,1.4217-6.3382,4.0753c-1.0719-.475-2.186-.9592-3.35839-.9436-1.17231,.0155-2.42291,.6782-2.73131,1.8093-1.34969-.722-3.0596-.7225-4.40969-.0012-1.29561,.6923-2.21511,2.031-2.42041,3.4843h82.4071Z" fill="#6da8cf"/><g><g><polygon points="538.89949 263.3 527.03989 263.3 527.03989 256.0577 494.09019 215.7526 497.56239 213.3675 528.17989 233.1735 534.11569 256.0577 538.89949 263.3" fill="#96c0dd"/><polygon points="538.89949 263.3 532.857 256.784 527.03989 256.784 527.03989 263.3 538.89949 263.3" fill="#76aed2"/><polygon points="461.09719 256.0577 466.70149 233.1735 494.74309 213.7899 525.52889 235.3111 530.60949 256.0577 530.60949 295.6624 461.09719 295.6624 461.09719 256.0577" fill="#63a9d8"/><rect x="407.60539" y="256.0577" width="55.52" height="39.6047" fill="#30688d"/><polygon points="406.80319 256.0577 412.40749 233.1735 468.72969 233.1735 463.12539 256.0577 406.80319 256.0577" fill="#e3eef6"/><polygon points="412.40169 233.1735 441.23439 213.3675 497.56239 213.3675 468.72969 233.1735 412.40169 233.1735" fill="#f7fafc"/><polygon points="456.10339 263.3 399.78129 263.3 406.80319 256.0577 463.12539 256.0577 456.10339 263.3" fill="#f7fafc"/><polygon points="500.96609 213.3675 471.25339 233.9326 465.67139 256.784 459.62889 263.3 456.10339 263.3 463.12539 256.0577 468.72969 233.1735 497.56239 213.3675 500.96609 213.3675" fill="#fff"/><polygon points="497.56239 213.3675 527.27509 233.9326 532.857 256.784 538.89949 263.3 542.425 263.3 535.40309 256.0577 529.79879 233.1735 500.96609 213.3675 497.56239 213.3675" fill="#fff"/><polygon points="525.52889 235.3111 527.27509 233.9326 499.41619 214.4676 497.53549 215.7419 525.52889 235.3111" fill="#76aed2"/></g><g><polygon points="471.27949 209.4724 469.93419 209.4724 469.93419 208.2919 471.27949 209.4724" fill="#76aed2"/><rect x="448.62649" y="207.5549" width="11.6648" height="9.7985" fill="#30688d"/><polygon points="460.29129 217.3534 466.51249 213.3675 469.93419 213.3675 469.93419 207.5549 465.11279 203.3091 460.29129 207.5549 460.29129 217.3534" fill="#63a9d8"/><polygon points="445.69149 208.7203 451.85829 203.3091 465.11279 203.3091 458.946 208.7203 445.69149 208.7203" fill="#f7fafc"/><rect x="445.69149" y="208.7203" width="13.25451" height=".7521" fill="#e3eef6"/><polygon points="458.946 209.4724 465.11279 204.0612 465.11279 203.3091 458.946 208.7203 458.946 209.4724" fill="#96c0dd"/><polygon points="471.27949 209.4724 465.11279 204.0612 465.11279 203.3091 471.27949 208.7203 471.27949 209.4724" fill="#96c0dd"/></g><rect x="483.24219" y="265.564" width="26.6579" height="30.0984" fill="#296289"/><g><rect x="482.38209" y="266.4241" width="1.7202" height="29.2383" fill="#004472"/><rect x="507.31979" y="266.4241" width="1.72021" height="29.2383" fill="#004472"/><rect x="494.85089" y="266.4241" width="1.7203" height="29.2383" fill="#004472"/><rect x="494.85094" y="253.95524" width="1.7202" height="26.65791" transform="translate(228.42684 762.99524) rotate(-90)" fill="#004472"/><rect x="494.85094" y="268.14434" width="1.7202" height="26.65791" transform="translate(214.23774 777.18434) rotate(-90)" fill="#004472"/><polygon points="507.31979 266.4241 494.85089 281.4733 496.57119 281.4733 509.04 266.4241 507.31979 266.4241" fill="#004472"/><polygon points="484.10229 266.4241 496.57119 281.4733 494.85089 281.4733 482.38209 266.4241 484.10229 266.4241" fill="#004472"/><polygon points="506.60709 295.6624 494.85089 281.4733 496.57119 281.4733 508.32739 295.6624 506.60709 295.6624" fill="#004472"/><polygon points="484.81489 295.6624 496.57119 281.4733 494.85089 281.4733 483.09469 295.6624 484.81489 295.6624" fill="#004472"/></g><g><rect x="483.24219" y="265.564" width="1.7202" height="30.0984" fill="#f7fafc"/><rect x="508.17989" y="265.564" width="1.7202" height="30.0984" fill="#f7fafc"/><rect x="495.711" y="265.564" width="1.72029" height="30.0984" fill="#f7fafc"/><rect x="495.71104" y="253.09515" width="1.7202" height="26.6579" transform="translate(230.14704 762.99524) rotate(-90)" fill="#f7fafc"/><rect x="495.71104" y="267.28425" width="1.7202" height="26.6579" transform="translate(215.95794 777.18434) rotate(-90)" fill="#f7fafc"/><polygon points="508.17989 265.564 495.711 280.6132 497.43129 280.6132 509.90009 265.564 508.17989 265.564" fill="#f7fafc"/><polygon points="484.96239 265.564 497.43129 280.6132 495.711 280.6132 483.24219 265.564 484.96239 265.564" fill="#f7fafc"/><polygon points="508.17989 295.6624 495.711 280.6132 497.43129 280.6132 509.90009 295.6624 508.17989 295.6624" fill="#f7fafc"/><polygon points="484.96239 295.6624 497.43129 280.6132 495.711 280.6132 483.24219 295.6624 484.96239 295.6624" fill="#f7fafc"/></g><rect x="488.57939" y="236.6945" width="15.9835" height="17.5382" fill="#296289"/><g><rect x="495.03374" y="246.08375" width="1.6392" height="15.9835" transform="translate(241.77784 749.92884) rotate(-90)" fill="#004472"/><rect x="495.03374" y="230.18485" width="1.6392" height="15.9835" transform="translate(257.67674 734.02994) rotate(-90)" fill="#004472"/><rect x="487.86159" y="237.357" width="1.6393" height="17.5381" transform="translate(977.36247 492.2521) rotate(180)" fill="#004472"/><rect x="502.20579" y="237.357" width="1.6393" height="17.5381" transform="translate(1006.05087 492.2521) rotate(180)" fill="#004472"/><polygon points="489.50089 237.357 502.20579 253.2559 502.20579 254.8951 489.50089 238.9962 489.50089 237.357" fill="#004472"/><polygon points="502.20579 237.357 489.50089 253.2559 489.50089 254.8951 502.20579 238.9962 502.20579 237.357" fill="#004472"/></g><g><rect x="495.75149" y="245.4213" width="1.6393" height="15.9835" transform="translate(243.15809 749.98419) rotate(-90)" fill="#f7fafc"/><rect x="495.75149" y="229.5224" width="1.6393" height="15.9835" transform="translate(259.05699 734.08529) rotate(-90)" fill="#f7fafc"/><rect x="488.57939" y="236.6945" width="1.6393" height="17.5382" transform="translate(978.79807 490.9272) rotate(180)" fill="#f7fafc"/><rect x="502.92359" y="236.6945" width="1.6393" height="17.5382" transform="translate(1007.48647 490.9272) rotate(180)" fill="#f7fafc"/><polygon points="490.21869 236.6945 502.92359 252.5934 502.92359 254.2327 490.21869 238.3338 490.21869 236.6945" fill="#f7fafc"/><polygon points="502.92359 236.6945 490.21869 252.5934 490.21869 254.2327 502.92359 238.3338 502.92359 236.6945" fill="#f7fafc"/></g><g><rect x="421.56529" y="273.9099" width="10.8242" height="11.1601" fill="#296289"/><g><rect x="425.75614" y="279.53305" width="1.3021" height="10.8242" transform="translate(141.46204 711.35234) rotate(-90)" fill="#004472"/><rect x="425.75609" y="269.6751" width="1.3022" height="10.8242" transform="translate(151.31999 701.49439) rotate(-90)" fill="#004472"/><rect x="420.99509" y="274.4361" width="1.3021" height="11.1601" transform="translate(843.29228 560.0323) rotate(180)" fill="#004472"/><rect x="430.51709" y="275.2121" width="1.3022" height="10.3841" transform="translate(862.33638 560.8083) rotate(180)" fill="#004472"/></g><g><rect x="426.32629" y="279.0068" width="1.3022" height="10.8242" transform="translate(142.55849 711.39629) rotate(-90)" fill="#f7fafc"/><rect x="426.32629" y="269.1489" width="1.3022" height="10.8242" transform="translate(152.41639 701.53839) rotate(-90)" fill="#f7fafc"/><rect x="421.56529" y="273.9099" width="1.3021" height="11.1601" transform="translate(844.43268 558.9799) rotate(180)" fill="#f7fafc"/><rect x="431.08729" y="273.9099" width="1.3022" height="11.1601" transform="translate(863.47678 558.9799) rotate(180)" fill="#f7fafc"/></g><rect x="431.08729" y="273.9099" width="10.8243" height="11.1601" fill="#296289"/><g><rect x="435.56329" y="279.8181" width="1.3021" height="10.2541" transform="translate(151.26919 721.15949) rotate(-90)" fill="#004472"/><rect x="435.56324" y="269.96015" width="1.3022" height="10.2541" transform="translate(161.12714 711.30154) rotate(-90)" fill="#004472"/><rect x="440.03919" y="274.4361" width="1.3022" height="11.1601" transform="translate(881.38058 560.0323) rotate(180)" fill="#004472"/></g><g><rect x="435.84834" y="279.00675" width="1.3022" height="10.8243" transform="translate(152.08054 720.91834) rotate(-90)" fill="#f7fafc"/><rect x="435.84834" y="269.14885" width="1.3022" height="10.8243" transform="translate(161.93844 711.06044) rotate(-90)" fill="#f7fafc"/><rect x="431.08729" y="273.9099" width="1.3022" height="11.1601" transform="translate(863.47678 558.9799) rotate(180)" fill="#f7fafc"/><rect x="440.60939" y="273.9099" width="1.3022" height="11.1601" transform="translate(882.52098 558.9799) rotate(180)" fill="#f7fafc"/></g></g></g></g></g><g><path d="M246.69329,301.4807c-.1861-.0627-.54229,.0568-.6676-.1322-.0435-.0659,.0132-.1707-.0274-.2418-.1119-.1954-.5507-.2408-.7506-.2581-.0769-.0066-.1644-.0139-.2115-.075-.022-.0286-.03119-.0648-.0369-.1004-.0222-.1391,.0032-.2854,.0709-.4089-.1674-.0251-.3378,.1281-.3304,.2972-.0704-.035-.0886-.1263-.0906-.2049-.0039-.1632,.0262-.3273,.088-.4784-.07819-.0442-.1816-.0234-.2517,.0327-.0702,.0561-.1117,.141-.1369,.2272-.0931,.3197,.0613,.5373,.1087,.8362,.0503,.3173-.1658,.5722-.3726,.7875-.5794,.6034-1.1206,1.2434-1.6194,1.9149-.0659,.0888-.1322,.1803-.165,.2859-.0966,.3114,.1391,.6475,.4376,.7787,.2985,.1311,.6388,.1101,.964,.0867l.0694-.0678c.3042,.0158,.5421,.2561,.8146,.3921,.349,.1741,.7548,.1753,1.1397,.2382s.7983,.2246,.9628,.5782c.06,.1289,.0814,.2738,.1474,.3997,.0597,.1139,.1534,.2075,.21,.323,.0671,.137,.077,.2936,.103,.4439,.0687,.3979,.25421,.7649,.4434,1.1217,.1616,.3048,.3354,.6166,.6101,.8253,.1902,.1446,.4196,.231,.6529,.2756,.2362,.045,.484,.0056,.4606,.3277l-.0504,.6937c-.0087,.1195-.0168,.2431,.0238,.3557,.0316,.088,.091,.1631,.1309,.2476,.1185,.2509,.0532,.5472-.03109,.8116-.153,.479-.36231,.94-.62241,1.3704-.0412,.0681-.0795,.1667-.0177,.2169,.0255,.0207,.0604,.0243,.0932,.0267,.2798,.0205,.5613,.0168,.8404-.0112-.004-.1272,.0018-.2758,.1046-.3508,.0545-.0397,.1284-.0508,.17491-.0997,.062-.0653,.051-.1682,.04209-.2578-.0596-.6007,.163-1.1894,.3817-1.7521,.0215-.0553,.06621-.1225,.1225-.1034,.0359,.0122,.0506,.054,.0606,.0906,.1016,.3709,.2018,.7738,.0588,1.1308-.1145,.2857-.3724,.5024-.4553,.7988,.3031,.0585,.6144,.0748,.9221,.0483,.0003-.1427,.0213-.318,.1536-.3717,.03491-.0141,.0744-.0175,.10591-.0382,.09239-.0608,.04909-.2014,.00919-.3046-.13419-.3467-.1058-.7322-.0754-1.1028,.0289-.3527,.03721-.7145,.0873-1.0648,.0266-.1861-.0515-.6219,.0973-.744,.0678-.0556,.1638-.0567,.2513-.0523,1.4318,.0725,2.7926,.8917,4.21631,.7238,.68059-.0803,1.31179-.3819,1.94109-.6532,.2821-.1217,.6037-.2387,.8878-.1216,.1664,.0687,.2976,.2174,.3449,.391,.0218,.0799,.0283,.1678,.0788,.2334,.05041,.0657,.1697,.0855,.208,.0121,.0282-.054-.0045-.1181-.0105-.1787-.016-.1597,.2131-.277,.3334-.1706-.0513,.1192-.0037,.2724,.1062,.3415,.0974-.0366,.0256-.2121,.1072-.2766,.0248-.0197,.0582-.0233,.0895-.0286,.155-.0259,.356-.132,.4294-.2797,.0494-.0994-.0131-.3564,.2124-.2872,.1047,.0321,.1653,.1389,.2112,.2383,.1418,.3066,.2677,.6574,.5653,.8172-.0763,.0406-.0818,.1528-.0423,.2297,.0394,.0768,.1094,.1329,.1605,.2025,.0558,.076,.088,.1664,.11711,.2561,.14959,.4613,.23629,.9429,.25709,1.4273,.014,.3266-.0212,.696-.2728,.9046-.1079,.0895-.2574,.1537-.29329,.2893,.30149,.0786,.61559,.1092,.92659,.0902,.0593-.0036,.1279-.0148,.1569-.0666,.0308-.0549-.00049-.1252,.0159-.1859,.0403-.1499,.292-.1054,.3837-.2306,.0866-.1184-.0298-.2756-.0499-.421-.0215-.1552,.0721-.3,.1162-.4504,.07161-.2446,.0107-.5073,.0332-.7612,.0426-.482,.3836-.9289,.3039-1.4062-.02749-.165-.1053-.3231-.0988-.4902,.0037-.0932,.0335-.1831,.0556-.2737,.0793-.325,.0588-.6736-.058-.987-.0302-.081-.06729-.1652-.0529-.2504,.01-.0596,.0444-.112,.0641-.1691,.0431-.1254,.0128-.2628-.0178-.3918-.0553-.233-.1306-.4676-.1803-.7-.0475-.2225-.0172-.4424-.0169-.6731,.0007-.5412-.0658-1.0798-.1317-1.6161-.0369-.3001-.0746-.6037-.1823-.8862-.1832-.4803-.5637-.8715-1.0136-1.1204-1.0447-.578-2.0825-.2629-3.176-.0259-.778,.1685-1.5727,.2435-2.3653,.3181-.60259,.0567-1.2072,.1135-1.8122,.0942-.7065-.0226-1.405-.1488-2.1019-.2668-1.506-.255-3.0182-.4734-4.5348-.655-.1968-.0236-.3965-.0472-.5798-.1226-.1227-.0504-.23589-.1232-.3616-.1655Z" fill="url(#j)"/><path d="M293.94319,302.1734c.01081-.3722,.14481-.7281,.2332-1.0899,.1364-.5581,.1427-1.1186,.1494-1.6886,.0067-.5731-.0053-1.152-.1636-1.708-.1571-.552-.4719-1.0785-.9567-1.3858-.8016-.5079-1.8353-.3175-2.7798-.2255-1.3299,.1296-2.6663,.0254-3.9963-.0473-1.26039-.069-2.4803,.0335-3.739,.133-.473,.0374-.97-.0264-1.4309,.0599-.4513,.0845-.897,.2242-1.2839,.4772-.462,.302-.9853,.8166-1.193,1.3307-.2525,.625-.326,1.3285-.7159,1.8939-.1136,.1647-.2515,.312-.3578,.4815-.29089,.4632-.3178,1.0369-.3918,1.5788-.0739,.5419-.2353,1.1263-.68509,1.4375-.04471,.0309-.10211,.0594-.15111,.0359-.0274-.013-.0453-.0396-.06189-.0649-.10891-.1664-.20051-.435-.43381-.3438-.0204,.008-.0388,.0175-.0556,.0285-.1559,.1016-.1637,.3221-.1637,.4869,.0309,.1759,.13511,.3313,.25811,.4608,.04519,.0476,.09589,.0978,.10349,.163,.0063,.0542-.0192,.1066-.046,.1541-.099,.1753-.22649,.3344-.3118,.5168-.0853,.1824-.1241,.4015-.0372,.5832,.0674,.141,.2023,.2429,.2608,.3879,.068,.1685,.0201,.359-.0284,.5342-.0718,.2587-.1434,.5175-.2152,.7764-.0564,.2033-.4229,.6371-.3082,.8444,.02751,.0498,.07451,.0871,.0996,.1381,.0186,.0377,.02391,.0804,.0373,.1203,.1229,.3676,.6462,.1618,.9017,.1142,.0921-.0171,.1852-.0345,.2713-.0714,.21361-.0914,.3169-.2721,.4567-.4427,.1252-.1527,.2784-.2736,.4293-.4048,.1015-.0882,.206-.1803,.2612-.3029,.0297-.0659,.0442-.1389,.0826-.2001,.0673-.1071,.1939-.1588,.2887-.2424,.2079-.1837,.238-.4916,.2538-.7686,.0191-.336,.0382-.672,.0574-1.008,.02791,.054,.10491,.0604,.16191,.0392s.10579-.0617,.16409-.0788c.1026-.0302,.2098,.0167,.3122,.0474,.4263,.1281,.926-.05,1.1753-.4187,.0282,.225,.2025,.4247,.4217,.483,.0611,.0162,.1273,.0235,.1781,.0612,.0627,.0468,.0865,.1285,.1039,.2048,.1901,.8344,.0742,1.7351-.321,2.4941-.1198,.2302-.2638,.4468-.4074,.6629,.27411,.1294,.5893,.17,.8873,.1141,.0521-.0098,.1092-.0262,.1365-.0717,.0482-.0801-.0202-.2092,.05431-.2656,.02459-.0187,.05729-.0213,.08669-.0309,.1408-.0459,.1724-.2276,.1796-.3756,.0139-.282,.02771-.564,.0415-.8459,.021-.4279,.0616-.9006,.3719-1.1958,.1448,.2506,.2554,.521,.3277,.8013,.1027,.3982,.1212,.8451-.0902,1.1979-.074,.1234-.1761,.2368-.2003,.3786,.31411,.09,.6483,.1091,.9706,.0556-.058-.1339,.2248-.1711,.2581-.3132,.0089-.0381-.003-.0777-.0145-.1152-.1406-.4553-.2548-.9187-.3418-1.3872-.0279-.1503-.0532-.3038-.0329-.4553,.0209-.1562,.08961-.3051,.09261-.4627,.00379-.2059-.10481-.3978-.12731-.6026-.0183-.166,.0011-.338-.0115-.494-.0085-.1057-.1126-.2585-.0908-.3542,.011-.048,.0524-.0822,.0913-.1125l.44531-.3469c.05749-.0449,.11619-.0903,.18429-.1167,.07-.027,.1463-.0325,.2213-.0346,.8775-.0252,1.8022,.3573,2.6263,.6212l.327,.1047c.2806,.0899,.5684,.1808,.8628,.1688,.2425-.0099,.476-.0892,.7144-.1348,.5791-.1108,1.1953-.0163,1.7146,.2629-.0133,.2409-.0155,.5126,.1537,.6845l.09661-.1451c.04129,.0383,.09679,.0611,.15309,.063,.0204-.137,.0281-.2758,.02291-.4141,.08989-.0502,.20919-.006,.27519,.073,.066,.0791,.091,.1837,.1112,.2847,.1874,.9384,.1242,1.9257-.1812,2.8326-.1239,.3676-.321,.5944-.5707,.8862-.026,.0305-.0532,.0634-.058,.1032-.0131,.1095,.1326,.1577,.2426,.1658,.2268,.0166,.4907,.0184,.6363-.1562,.03161-.0378,.0557-.0824,.0938-.1136,.10081-.0823,.2485-.0403,.3786-.0418,.0191-.0002,.0393-.0018,.05521-.0123,.04679-.0311,.02269-.1025,.001-.1543-.10541-.2513-.02541-.5377,.05539-.7978,.0634-.2044,.6233-2.3766,.6798-2.3756,.1041,.0019,.1205,.1207,.1344,.2146,.0276,.1861,.1565,.3382,.2498,.5016,.1759,.3082,.2563,.7057,.2644,1.0586,.0031,.1319-.0342,.2513-.0292,.3814,.0072,.1878,.0999,.3657,.1075,.5556,.009,.2253-.07909,.4345-.1814,.6302-.05369,.1026-.2602,.3301-.1739,.4406,.1373,.1757,.7575-.0244,.865-.1589,.0657-.082,.1159-.1912,.217-.2199,.033-.0093,.0691-.0089,.0994-.0248,.0562-.0294,.0722-.1055,.0566-.167s-.0545-.1139-.0849-.1697c-.1016-.1868-.1058-.4097-.10289-.6224,.00579-.4351,.03059-.87,.07419-1.303,.0197-.1956,.026-.4073,.071-.5987,.0433-.1848,.143-.3483,.1431-.5437,0-.0672-.0112-.1348-.0014-.2013,.0099-.0673,.0406-.1295,.0683-.1916,.1757-.3934,.2449-.8336,.1984-1.2619-.0522-.4809-.24659-.9456-.2324-1.4292Zm-.1045-.8097c-.1291,.8163-.2582,1.6326-.3872,2.4489-.1588-.1527-.2168-.3815-.2434-.6001-.0878-.7201,.1257-1.4127,.1992-2.1182,.0373-.3578,.1991-.717,.28671-1.0672,.09169-.3665,.16689-.737,.22549-1.1102,.0692,.0949,.0683,.2221,.0646,.3395-.0228,.7131-.034,1.4028-.1454,2.1073Z" fill="url(#k)"/><path d="M325.00959,288.4804c-.23659,.1336-.4322,.2756-.6984,.345-.2501,.0653-.52319,.0211-.7608-.0473-.5059-.1455-.5696-.8481-.6311-1.2804-.0029-.0199-.006-.0409-.0189-.0564-.02539-.0308-.078-.0231-.106,.0053s-.0376,.0698-.0445,.109c-.0618,.3481-.0166,.7908,.0933,1.1284,.0872,.2668,.29981,.4022,.5434,.5047,.262,.1102,.5402,.2085,.8236,.1857-.0109,.1387-.1438,.2423-.2804,.2684-.2482,.0476-.479-.054-.72079-.0768-.31841-.0301-.63751,.0523-.95231,.0855-.2781,.0292-.5585,.0214-.8379,.0284-.3494,.0089-.6976,.0412-1.0446,.0805-.14119,.0159-.2968,.0119-.4344,.0376-.1613,.0301-.3192,.1107-.4813,.1478-.4691,.1072-.9541,.1137-1.4323,.0827-.2093-.0136-.4113-.0456-.6173-.0193-.2305,.0295-.4702,.0192-.7027,.0195-.5419,.0006-1.0569-.0174-1.5893-.1156-.176-.0325-.3524-.065-.5308-.0792-.4688-.0371-.9545,.0839-1.4062-.0509-.2444-.0729-.507-.095-.7571-.1414-.2957-.0549-.591-.112-.8859-.1708-.208-.0414-.3946-.0591-.5818-.1606-.3105-.1685-.6765-.1369-1.0167-.1662-.3606-.0311-.6712-.2283-1.0433-.1752-.1656,.0236-.4385,.1073-.5512,.2412-.1186,.1409-.1518,.3379-.3007,.4874-.3131,.3143-.7554,.6201-.9391,1.0299-.18009,.4016-.1785,.8671-.1579,1.2982,.0291,.6127,.0836,1.2241,.1631,1.8323,.0856,.6546,.0781,1.4148-.0956,2.0561-.0723,.2671-.1781,.5253-.2311,.7969-.087,.4454-.0284,.9047,.0303,1.3547,.0336,.2566,.0322,.8521,.3133,.9684,.0667,.0276,.125-.5866,.1392-.6315,.081-.2541,.1551-.4133,.1543-.702-.0026-.9107,.032-1.719,.0096-2.6295,.6768,.9854,.8014,2.3253,.318,3.4186-.0765,.1729-.1669,.375-.07529,.5404,.033,.0596,.086,.105,.131,.1561,.25369,.2874,.23479,.7134,.27809,1.0943,.055,.4838,.2314,.9452,.3231,1.4233,.0917,.4782,.08781,1.0077-.1858,1.4105,.1402,.054,.2941,.0718,.4429,.0513,.0702,.1451,.1008,.3092,.0874,.4699,.3448,.04,.693,.0502,1.0396,.0306,.0584-.0033,.1193-.0082,.1692-.0388,.1502-.0918,.0974-.3193,.0264-.4803l.3732-.0582c.0286-.0044,.06-.0104,.0783-.0329,.0158-.0194,.0177-.0465,.0169-.0715-.0076-.243-.1922-.4371-.3419-.6287-.4372-.5595-.6429-1.2944-.5597-1.9996,.0277-.2339,.0856-.4627,.1545-.6875,.057-.1859,.1544-.3719,.1847-.5609,.0342-.2132,.058-.4147,.136-.6189,.0245-.0642,.3055-.5115,.2958-.5316,.0344,.0714,.0688,.1428,.10331,.2141,.02459,.0512,.06049,.1099,.11719,.1105,.0282,.0003,.0543-.0148,.0762-.0324,.2118-.1701,.1243-.5256,.2774-.75,.1-.1465,.2941-.2221,.3569-.3881,.012-.0318,.0186-.066,.0361-.0952,.0246-.0411,.0674-.0672,.1086-.0916l.29061-.1726c.03169-.0188,.06569-.0383,.10259-.0372,.03341,.0009,.0638,.0186,.09241,.0361,.241,.1471,.43559,.35,.67889,.4852,.3727,.2071,.7594,.3944,1.1722,.5066,.4054,.1102,.8273,.1463,1.2472,.162,.9179,.0344,1.8394-.0262,2.745-.1805,.419-.0714,.8713-.1585,1.2519,.0307,.4375,.2176,.6374,.7358,.6979,1.2206,.0606,.4849,.0222,.9855,.1606,1.4541,.0541,.183,.1342,.3574,.1912,.5395,.1113,.356,.1318,.7331,.1515,1.1057,.0135,.2552,.0234,.5264-.1026,.7487-.05179,.0914-.1252,.1715-.1597,.2707-.0855,.2461,.0922,.4988,.259,.6989,.0534,.0642,.1103,.1308,.1881,.161,.05681,.022,.1193,.0223,.1801,.0223l.5089,.0003c.1931,.0002,.4487-.0541,.461-.2468,.0059-.0918-.11519-.2601,.0823-.1973,.1427,.0454,.2958,.0575,.4438,.0353,.0454-.0069,.0922-.0178,.1276-.047,.04511-.0371,.06411-.0984,.0655-.1568,.0048-.1963-.153-.3518-.2772-.5038-.2854-.3492-.3943-.7554-.4605-1.1923-.03669-.2416-.0588-.4946,.0224-.725,.0887-.2521,.2896-.4462,.4277-.6749,.2365-.3916,.07021-.8528,.2324-1.2415,.1887,.0494,.386,.0991,.5765,.0574,.1474-.0323,.2777-.1168,.4202-.1663,.1837-.0638,.45011-.0539,.5968-.2018,.056-.0565,.0918-.1294,.1315-.1984,.2296-.3986,.6813-.537,.8236-.9778,.1397-.4329,.1669-.8467,.2283-1.2855,.07391-.5285,.3738-1.101,.5477-1.6064,.0114-.0333,.02521-.0694,.0561-.0863,.0714-.0392,.1406,.0534,.2147,.0872,.14041,.064,.2831-.0935,.4366-.1096,.199-.0207,.3964,.1988,.5739,.1062,.123-.0643,.1514-.2487,.2812-.298,.06871-.0261,.14871-.0058,.2169-.0331,.06581-.0264,.1074-.0921,.1321-.1585,.1475-.3969-.1659-.809-.2127-1.2298-.019-.1703,.0066-.342,.0253-.5123,.0406-.3714,.0482-.7463,.0226-1.119-.0043-.0636-.0093-.1296,.0137-.189,.04181-.1076,.1705-.2148,.1041-.3093,.1694-.0178,.3394,.1289,.4913,.1877,.1783,.069,.4367,.1628,.626,.1038,.1168-.0364,.2182-.1089,.3257-.1673,.2308-.1253,.4945-.1874,.7119-.3349,.0394-.0267,.0785-.058,.0975-.1017,.0342-.0787-.0068-.1681-.047-.244-.0455-.0861-.0928-.1744-.1666-.2381-.0392-.0338-.0845-.0594-.1295-.0849l-.3417-.1932c-.0825-.0466-.166-.0937-.2572-.1192-.1791-.0501-.3709-.0127-.5485,.0427-.1248,.039-.2505,.0874-.3813,.0841-.1747-.0044-.4837-.1914-.4964-.3799,.3453-.0095,.6889-.0774,1.0119-.1999,.1171-.0444,.2327-.0966,.33261-.1722,.09649-.0731,.17589-.1662,.25129-.261,.30071-.3785,.5553-.8171,.5959-1.2988,.0025-.0296-.005-.0701-.0347-.0709-.0183-.0005-.0318,.0161-.0422,.0312-.16529,.2398-.3068,.4958-.4818,.7285-.175,.2328-.3893,.4456-.65649,.5614-.32841,.1422-.70081,.125-1.05811,.1052-.0858-.0048-.1958-.0371-.2602-.0939-.509-.4501-1.3084-.5344-1.9001-.2003Z" fill="url(#l)"/><path d="M188.24939,284.8999c-.2367,.1336-.4322,.2756-.69839,.3451-.25011,.0652-.52331,.021-.76091-.0473-.5059-.1455-.5696-.8482-.63109-1.2805-.00281-.0199-.006-.0409-.01881-.0564-.0254-.0307-.078-.0231-.1061,.0053-.028,.0284-.0375,.0698-.0445,.1091-.0618,.348-.01659,.7907,.09341,1.1283,.08709,.2669,.29969,.4022,.54329,.5047,.262,.1102,.5403,.2086,.8236,.1858-.01089,.1387-.1438,.2422-.2804,.2684-.2482,.0475-.479-.054-.7208-.0769-.3184-.0301-.6374,.0524-.9523,.0855-.278,.0293-.55839,.0214-.8379,.0285-.3493,.0088-.69749,.0411-1.0446,.0804-.1411,.016-.2968,.0119-.4344,.0377-.1613,.0301-.3191,.1107-.4812,.1477-.4691,.1072-.9542,.1137-1.4324,.0828-.2093-.0136-.4112-.0456-.6172-.0193-.2306,.0295-.4703,.0192-.7028,.0195-.5418,.0005-1.0568-.0174-1.5892-.1157-.176-.0324-.3524-.065-.5309-.0791-.46879-.0371-.9545,.0838-1.4061-.0509-.2444-.073-.507-.095-.7571-.1414-.2957-.0549-.591-.112-.886-.1708-.208-.0414-.39459-.0592-.5817-.1607-.3106-.1685-.6765-.1368-1.0168-.1661-.3606-.0311-.67109-.2283-1.0433-.1753-.1656,.0237-.4384,.1074-.5512,.2413-.1186,.1409-.1518,.3379-.3007,.4873-.313,.3143-.7553,.6201-.9391,1.0299-.18,.4017-.1784,.8672-.1579,1.2983,.0292,.6126,.0836,1.2241,.1631,1.8323,.0856,.6546,.0781,1.4147-.0955,2.056-.0723,.2672-.1781,.5254-.2312,.797-.0869,.4453-.0284,.9047,.0304,1.3546,.0335,.2566,.0321,.8521,.3132,.9684,.0668,.0277,.125-.5866,.1393-.6314,.0809-.2542,.155-.4134,.1542-.702-.0025-.9108,.0321-1.7191,.0096-2.6295,.6768,.9853,.8015,2.3252,.318,3.4185-.0764,.173-.1669,.375-.0753,.5405,.033,.0595,.086,.1049,.1311,.156,.2536,.2875,.2347,.7135,.278,1.0944,.055,.4837,.2314,.9451,.3231,1.4233s.0878,1.0076-.1857,1.4104c.1401,.054,.294,.0719,.4428,.0514,.0703,.1451,.1008,.3092,.0875,.4698,.3447,.04,.693,.0503,1.0395,.0307,.05839-.0033,.11929-.0083,.16919-.0388,.1502-.0918,.0975-.3193,.0265-.4804,.12431-.0193,.2487-.0387,.3731-.0581,.0287-.0045,.06-.0104,.0783-.0329,.0158-.0195,.0177-.0465,.01691-.0716-.00751-.243-.19221-.4371-.34191-.6286-.4372-.5595-.6429-1.2945-.5596-1.9997,.0276-.2338,.0856-.4627,.1545-.6875,.05689-.1859,.15429-.3719,.18459-.5608,.0342-.2132,.0581-.4148,.136-.6189,.0245-.0642,.3056-.5115,.2959-.5317l.1032,.2142c.0246,.0511,.0605,.1098,.11731,.1105,.02809,.0003,.05419-.0148,.07619-.0325,.2117-.1701,.1242-.5256,.2773-.7499,.1-.1465,.2942-.2222,.3569-.3881,.012-.0318,.0187-.0661,.0362-.0953,.0246-.041,.06741-.0671,.1085-.0915l.2906-.1726c.0318-.0189,.0657-.0383,.1026-.0373,.0335,.001,.0639,.0187,.0924,.0361,.2411,.1471,.4357,.35,.679,.4852,.3726,.2071,.7594,.3944,1.1721,.5067,.4055,.1102,.8274,.1462,1.24721,.162,.918,.0344,1.83949-.0262,2.745-.1806,.419-.0714,.87139-.1585,1.25189,.0308,.4375,.2176,.6375,.7357,.698,1.2206s.02211,.9855,.1606,1.4541c.054,.183,.1342,.3573,.1911,.5394,.11141,.3561,.1318,.7332,.1515,1.1057,.0135,.2552,.0234,.5264-.1026,.7488-.0517,.0913-.1252,.1714-.1597,.2706-.0854,.2461,.0923,.4988,.259,.699,.0535,.0641,.1103,.1308,.18821,.161,.05669,.0219,.11919,.0223,.18009,.0223l.5088,.0003c.1932,.0001,.4487-.0542,.46111-.2469,.00589-.0918-.11521-.26,.08229-.1972,.1426,.0453,.29571,.0575,.44371,.0352,.04539-.0068,.09219-.0177,.12759-.0469,.0451-.0372,.0641-.0984,.0656-.1569,.00481-.1962-.153-.3518-.2773-.5038-.2853-.3491-.3942-.7553-.4605-1.1922-.0366-.2416-.0587-.4946,.0224-.7251,.0888-.252,.2896-.4461,.4278-.6749,.23641-.3915,.0702-.8528,.23241-1.2414,.18859,.0494,.38589,.099,.57649,.0573,.1474-.0323,.2776-.1168,.4202-.1663,.1836-.0637,.4501-.0539,.5967-.2017,.0561-.0566,.0918-.1294,.13161-.1984,.22949-.3986,.68119-.537,.82349-.9779,.1398-.4328,.167-.8466,.2284-1.2854,.0739-.5285,.3737-1.101,.5476-1.6065,.01151-.0332,.0253-.0694,.0561-.0863,.0715-.0391,.1406,.0534,.2147,.0872,.1404,.064,.2831-.0935,.4366-.1095,.19911-.0208,.3965,.1988,.5739,.1061,.123-.0642,.1515-.2487,.28121-.298,.06869-.0261,.14869-.0057,.217-.0331,.06569-.0263,.10739-.0921,.13209-.1585,.1475-.3968-.1659-.8089-.2128-1.2297-.0189-.1703,.00671-.342,.0253-.5124,.0407-.3713,.0483-.7463,.0227-1.119-.0044-.0635-.0094-.1295,.01371-.1889,.04169-.1076,.17039-.2149,.10409-.3093,.1693-.0178,.3393,.1288,.4913,.1877,.1783,.069,.43661,.1628,.6259,.1038,.1168-.0364,.2182-.109,.32571-.1673,.23079-.1253,.49459-.1874,.71189-.3349,.0394-.0267,.0785-.058,.0975-.1017,.0342-.0788-.0067-.1681-.0469-.244-.0456-.0862-.0929-.1744-.1666-.2381-.0392-.0338-.0846-.0595-.1296-.0849l-.3416-.1932c-.0825-.0466-.166-.0937-.2573-.1192-.1791-.0501-.3709-.0128-.54839,.0427-.12491,.039-.25051,.0874-.38131,.084-.17469-.0044-.48369-.1914-.4965-.3799,.3453-.0094,.689-.0773,1.0119-.1998,.1172-.0445,.2327-.0967,.3326-.1723,.0965-.0731,.176-.1661,.25131-.2609,.30069-.3785,.55539-.8172,.596-1.2989,.00249-.0295-.00511-.0701-.03471-.0709-.01829-.0005-.0319,.0162-.04229,.0313-.16521,.2398-.30681,.4957-.48181,.7285-.1749,.2328-.3893,.4455-.6565,.5613-.3283,.1423-.7008,.125-1.0581,.1052-.0857-.0047-.1958-.037-.2601-.0939-.509-.4501-1.30849-.5343-1.9001-.2003Z" fill="url(#m)"/><path d="M197.99119,311.2645c.018,.0534-.0569,.2257-.0676,.2872-.0189,.1087-.0304,.2186-.0362,.3287-.012,.2269,.024,.4437,.0354,.6675,.02321,.4548,.0016,.8712,.1386,1.3166,.0209,.0679,.0445,.1362,.0865,.1934,.0336,.0459,.0782,.0833,.1078,.1319,.0744,.122,.0375,.2792,.0645,.4196,.0415,.2165,.2366,.3996,.2097,.6183l-.6722,.0639c-.2174,.0207-.4782,.0226-.6034-.1564-.1005-.1437-.079-.3677-.2244-.4657-.0887-.0599-.2156-.0508-.2928-.125-.09109-.0875-.0619-.2442,.0118-.3468,.0737-.1025,.1817-.1769,.2532-.281,.1468-.2134,.11091-.4983,.069-.7539-.0962-.587-.221-1.1759-.2736-1.7667-.0291-.3258-.0211-.7154-.1952-1.0018-.0427-.0702-.0948-.1369-.116-.2162-.037-.1387,.0275-.2822,.0923-.4103,.1981-.3913,.416-.7755,.556-1.1912,.2648-.7866-.143-1.7313-.4349-2.4582-.2631-.6553-.6152-1.3759-.5906-2.0935-.15209,.6258-.1388,1.2213-.105,1.8556,.039,.7342-.0753,1.4772,.0261,2.2064,.043,.3094,.24681,.6116,.2434,.9173-.0039,.3425-.3069,.6591-.2147,.989,.02111,.0755,.0619,.1438,.09611,.2144,.16329,.3382,.12159,.6488,.06339,1.0022-.0611,.3206,.0318,.563,.0723,.8789,.002,.0156,.0028,.0342-.0096,.0439-.0136,.0107-.0333,.0031-.0484-.0053-.0762-.0429-.2116-.2486-.2812-.2575-.1006-.0128-.09849,.1864-.18,.0985-.0209-.0225-.0299-.0532-.0381-.0828-.057-.2032-.0929-.3704-.1169-.5779-.0308-.2668-.11749-.5246-.13049-.7939-.01541-.3197,.07239-.6449,.002-.9571-.02581-.1139-.072-.2226-.09581-.337-.0813-.391,.1034-.7676,.2053-1.1357,.0938-.3387,.0457-.72,.0463-1.0719,.0015-.8509-.0479-1.7008-.05979-2.5514-.00871-.6214-.03191-1.2452,.032-1.8647,.029-.2815,.08289-.5651,.12469-.8415,.0428-.2833,.2287-.4908,.429-.688,.1686-.1659,.343-.326,.5228-.4798,.5412-.4629,1.4638-.2518,2.1151-.2816,.5873-.0268,1.1681-.1469,1.7572-.1431,.60421,.0039,1.2008,.2007,1.7911,.3201,1.2517,.2533,2.5073,.4942,3.7756,.6485,.9421,.1147,1.8913,.1815,2.8408,.1659,.4855-.008,.9648-.0526,1.4482-.0915,.419-.0337,.8221-.1691,1.251-.1716,.5462-.0031,1.0901,.1297,1.6344,.0851,.3393-.0278,.6725-.1243,1.013-.1229,.3005,.0012,.5969,.0788,.8974,.0786,.595-.0002,.7865-.3905,1.2035-.6886,.3399-.2429,.8798-.1819,1.13,.1627,.0825,.1136,.1399,.2538,.2598,.3268,.1232,.075,.2847,.0605,.4096,.1326,.1942,.112,.2446,.3978,.4497,.4882,.16511,.0728,.3516-.0132,.5233-.0686,.39-.1259,.8307-.0857,1.1915,.1087,.0401,.0216,.0827,.0494,.0937,.0936,.0085,.0342-.0043,.0697-.0181,.1021-.25729,.6055-.964,.9832-1.6104,.8607-.1057-.0201-.237-.043-.3021,.0427-.0232,.0305-.032,.0692-.0402,.1067l-.4452,2.0335c-.0167,.0762-.0335,.1537-.0273,.2314,.008,.1008,.0538,.194,.0967,.2856,.0855,.1825,.16421,.3825,.1273,.5806-.0434,.2328-.2427,.4121-.4635,.4979s-.4629,.0944-.69959,.102c-.11241,.0036-.22831,.0067-.33331-.0336-.1668-.0639-.2825-.228-.4533-.2804-.2146-.0658-.4493,.0738-.5661,.2656s-.1434,.4233-.16729,.6465c-.04431,.0469-.02821,.0119,.02349,.0504,.0518,.0386,.1201,.0446,.18451,.0481,.32659,.0177,.64619-.0051,.971-.0334,.25889-.0226,.481-.1653,.74829-.1648,.2209,.0004,.4452,.08,.6003,.2372,.1068-.0791,.1946-.1088,.3089-.1678,.153-.0791,.2964-.1801,.4607-.2318,.3063-.0964,.6653,.0055,.8753,.2483,.0229,.0265,.0452,.0553,.0769,.0703,.03361,.016,.0728,.0138,.1098,.0094,.2169-.0257,.42-.1154,.6294-.1774,.20941-.0619,.441-.0947,.6416-.0086,.0942,.0405,.1863,.1265,.1726,.2281-.0062,.0454-.0327,.0852-.0602,.1217-.2711,.3589-.7294,.5677-1.1781,.5368-.0482-.0033-.1033-.0068-.1374,.0275-.02009,.0203-.0278,.0495-.0347,.0773-.0715,.2893-.2059,.5345-.2137,.8418-.0072,.2837,.0419,.6163-.1682,.807-.1491,.1353-.3814,.138-.5698,.0671-.0468-.0176-.0941-.0396-.1441-.0383-.1808,.0046-.2107,.254-.2574,.4287-.0857,.3205-.39019,.5227-.65719,.7195-.16151,.119-.31651,.2494-.45581,.394-.123,.1277-.20519,.2652-.3817,.3283-.035,.0125-.0728,.0228-.0984,.0498-.0288,.0304-.0355,.0749-.0408,.1165l-.0702,.5499c-.0096,.075-.0192,.1502-.0179,.2257,.0032,.1872,.0801,.3709,.0645,.5585-.015,.1794-.08,.3709-.127,.5454-.09869,.3666-.1452,.7472-.1378,1.1268,.0018,.0912,.0075,.1854,.0475,.2674,.0381,.078,.104,.1382,.162,.2028,.1061,.1182,.3002,.3545,.3233,.5166,.0369,.2574-.4634,.1901-.6469,.1994-.065,.0033-.1359,.0043-.18779-.0348-.07031-.053-.07791-.1578-.13741-.2226-.1413-.1538-.25-.1722-.1414-.3975,.18681-.3877,.1699-.8383,.149-1.268-.0054-.1121-.0118-.2279-.0621-.3282-.0393-.0784-.1028-.1418-.15-.2157-.1994-.3124-.0733-.7386-.2179-1.0799-.06719-.1585-.1898-.2899-.2493-.4515-.05089-.1383-.0475-.3209-.11289-.4496-.06531-.1285-.21341-.1849-.33861-.2604-.0659-.0397-.13339-.0802-.2088-.0957-.1028-.0211-.2084,.0061-.3118,.024-.257,.0445-.52379,.0312-.7751-.0388-.07469-.0208-.1579-.0458-.2266-.0096-.0565,.0298-.08609,.0933-.1339,.1357-.1176,.1044-.3014,.0559-.4448-.0082-.2185-.0977-.42639-.2191-.6189-.3614-.1142,.1546,.0357,.3631,.0506,.5547,.0125,.1603-.0735,.3091-.1366,.457-.1788,.4189-.1829,.8886-.1843,1.344-.00019,.0624,.00081,.129,.03581,.1806,.03019,.0446,.08059,.0703,.12709,.0976,.3424,.2016,.5575,.6018,.5367,.9985l-.5525,.0338c-.1647,.0101-.3804-.0153-.4172-.1761-.0113-.0491-.0013-.1019-.0172-.1497-.0367-.1105-.1794-.1334-.2775-.1963-.1075-.0689-.1658-.1962-.1838-.3226s-.0014-.2548,.0097-.382c.0523-.6015-.0209-1.2136-.2136-1.7858-.22469,.0752-.38169,.2855-.4945,.4831-.1344,.2353-.2527,.4485-.4177,.6715-.0277,.0374-.0566,.0783-.0566,.1249,0,.042,.0238,.0799,.0478,.1144,.132,.1901,.295,.3573,.4276,.5471,.1326,.1897,.2363,.4123,.2254,.6436-.2562,.0437-.5182,.0529-.77669,.0271-.03191-.0032-.06771-.0058-.09251,.0145-.0147,.012-.0228,.0301-.0298,.0478-.1106,.278-.0725,.6104,.0982,.8561,.0712,.1025,.1629,.1896,.2324,.2933,.0695,.1036,.1163,.2331,.0818,.3531-.3196,.0165-.6405,.0099-.9592-.0197-.0372-.0035-.0761-.0078-.10689-.0288-.10861-.0739-.03091-.2701-.12661-.3599-.0488-.0458-.1268-.0465-.1781-.0893-.0785-.0655-.0581-.1906-.0191-.2851,.137-.3317-.1194-.6556-.0218-.9926,.0292-.1009,.0888-.1899,.1339-.2847,.2349-.4938,.0605-1.0726,.0386-1.619-.0036-.0898-.0025-.182,.029-.2661,.0474-.1263,.1575-.2194,.2154-.3412,.0979-.2059,.031-.4471-.0129-.6708-.0919-.4683-.04339-.9464-.0308-1.4198-1.1001-.0706-2.19859,.1449-3.2928,.1914-1.2917,.0549-2.5419-.0619-3.7471-.5311-.0474-.0185-.0969-.0369-.1476-.0329-.0626,.0049-.117,.0428-.16809,.0794-.17191,.1232-.362,.2809-.35751,.4924,.0019,.0887,.0394,.1722,.0737,.2541,.0681,.1627,.1259,.3296,.1729,.4996,.0205,.0739,.0391,.1515,.0237,.2267s-.0744,.1469-.151,.1518c-.0864,.0056-.1541-.0695-.2074-.1377-.1629-.2084-.3259-.4168-.4888-.6252-.0219-.028-.0484-.0585-.084-.0598-.0237-.0008-.0455,.0119-.0658,.0242-.2022,.1228-.4045,.2455-.6067,.3682,.0365,.2765,.0731,.5529,.1096,.8293,.0066,.0493,.0126,.1018-.0085,.1468-.0401,.0852-.1628,.1009-.2459,.0566s-.1354-.1289-.1838-.2097c-.1126-.1877-.2252-.3755-.3378-.5633-.0953,.075-.1166,.2089-.125,.3299-.0455,.6611,.0877,1.3199,.2202,1.969,.0465,.2277,.09511,.4609,.2183,.6579,.1203,.1924,.3062,.3406,.4061,.5442,.1238,.2523,.105,.5688,.2789,.7895,.07781,.0987,.1863,.1671,.2837,.2464,.0973,.0792,.1889,.1787,.21011,.3025,.06719,.3939-1.03261,.2566-1.24241,.2589-.0548,.0005-.1125,.0004-.1602-.0265-.1025-.0578-.107-.1992-.1325-.3141-.0435-.1956-.189-.3656-.3755-.4386-.04639-.0182-.0956-.031-.137-.0586-.0982-.0655-.1285-.1976-.1221-.3155s.041-.2337,.038-.3518c-.0025-.1006-.03229-.1984-.0635-.2941-.0847-.2596-.1649-.563-.3066-.7978-.3108-.5151-.4886-1.0692-.68-1.6376Z" fill="url(#n)"/><path d="M603.80018,285.6535v-4.1061h-1.9264v-1.5857c.3339-.1223,.3339-.3982,.3339-.7198v-2.2436c0-.328-.1829-.6095-.4693-.7275,0-.6329,.0271-1.9821,.1002-2.5676,.06342-.5088,.8697-.4407,.8787-.4407l.0525-.5997c-.4823-.0425-1.4271,.1017-1.5355,.9655-.07828,.6255-.0946,1.9991-.0946,2.6431-.2846,.1186-.4988,.4001-.4988,.7269v2.2436c0,.3832,.3082,.7016,.6164,.7724v1.5331h-3.6444l-.4796,1.9942c-2.3627,.2604-4.438,1.4751-5.8312,3.2508-1.5227-.1129-2.9005-.5839-3.9804-1.2925l2.9985-2.9986,1.49282,1.4928c.19468,.1946,.51028,.1946,.705,0,.19458-.1947,.19458-.5103,0-.705l-3.57082-3.5704c-.1946-.195-.51-.195-.7046,0-.195,.1946-.195,.51,0,.7047l1.4878,1.4881-3.0826,3.0824c-.1965-.169-.3789-.3469-.5449-.5332v-5.1864c0-.4752-.3853-.8605-.8605-.8605h0c-.4753,0-.8606,.3853-.8606,.8605v3.8656h-9.396c-.8467,0-1.43578,.5367-1.6674,1.2843h-.7517v2.8254h.6421v1.7236c-2.6992,.7106-4.6517,3.2615-4.4342,6.23,.2219,3.0295,2.836,5.4821,5.8733,5.5251,3.34,.0473,6.0626-2.646,6.0626-5.9755,0-.6372-.1001-1.2509-.2847-1.8267h9.0807c.4481,4.7628,4.7708,8.3987,9.7833,7.7214,3.7511-.5067,6.8009-3.5359,7.3297-7.2839,.4326-3.0657-.7499-5.8775-2.8193-7.7101Z" fill="url(#o)" fill-rule="evenodd"/></g></g></g></g></svg>