<svg enable-background="new 0 0 705 411" viewBox="0 0 705 411" xmlns="http://www.w3.org/2000/svg"><path d="m-.2 411h705c-94.5-70.8-226.6-114.8-372.8-114.8-126.4 0-242.1 32.9-332.2 87.5v27.3z" fill="#8bc53f"/><path d="m337.9 310.9c0 11.8-9.5 21.3-21.3 21.3s-21.3-9.5-21.3-21.3 9.5-21.3 21.3-21.3 21.3 9.5 21.3 21.3z" fill="#6ba839"/><path d="m337.9 310.9c0-11.8-9.5-21.3-21.3-21.3v42.6c11.8 0 21.3-9.5 21.3-21.3z" fill="#5c9431"/><g fill="#594a41"><path d="m316.6 344.9c-.6 0-1.1-.5-1.1-1.1v-29.8c0-.6.5-1.1 1.1-1.1s1.1.5 1.1 1.1v29.9c0 .6-.5 1-1.1 1z"/><path d="m316.6 326c-.3 0-.5-.1-.8-.3-.4-.4-.4-1.1 0-1.5l4.4-4.4c.4-.4 1.1-.4 1.5 0s.4 1.1 0 1.5l-4.4 4.4c-.1.2-.4.3-.7.3z"/><path d="m316.6 322.1c-.3 0-.5-.1-.8-.3l-5.9-5.9c-.4-.4-.4-1.1 0-1.5s1.1-.4 1.5 0l5.9 5.9c.4.4.4 1.1 0 1.5-.1.2-.4.3-.7.3z"/></g><path d="m537.8 332c0-13.4-3.8-28.8-11.5-28.8s-11.5 15.5-11.5 28.8c0 4.9 3.8 8.9 11.5 8.9 7.7-.1 11.5-4 11.5-8.9z" fill="#d9e03a"/><path d="m537.8 332c0-13.4-3.8-28.8-11.5-28.8v37.7c7.7-.1 11.5-4 11.5-8.9z" fill="#bad544"/><g fill="#594a41"><path d="m526.3 354.7c-.6 0-1.1-.5-1.1-1.1v-33c0-.6.5-1.1 1.1-1.1s1.1.5 1.1 1.1v33c-.1.7-.5 1.1-1.1 1.1z"/><path d="m526.3 333.8c-.3 0-.5-.1-.8-.3l-4.9-4.9c-.4-.4-.4-1.1 0-1.5s1.1-.4 1.5 0l4.9 4.9c.4.4.4 1.1 0 1.5-.2.2-.4.3-.7.3z"/><path d="m526.3 329.5c-.3 0-.5-.1-.8-.3-.4-.4-.4-1.1 0-1.5l6.5-6.5c.4-.4 1.1-.4 1.5 0s.4 1.1 0 1.5l-6.5 6.5c-.2.2-.4.3-.7.3z"/></g><path d="m27.6 251.2c-9.4 0-18.6.3-27.8.7v159.1h381.8c-64.7-94.7-198.9-159.8-354-159.8z" fill="#bad544"/><path d="m180.4 275.8c0 13.2-10.7 23.9-23.9 23.9s-23.9-10.7-23.9-23.9 10.7-23.9 23.9-23.9 23.9 10.7 23.9 23.9z" fill="#8bc53f"/><path d="m180.4 275.8c0-13.2-10.7-23.9-23.9-23.9v47.8c13.2 0 23.9-10.7 23.9-23.9z" fill="#6ba839"/><g fill="#594a41"><path d="m156.5 313.8c-.6 0-1.1-.5-1.1-1.1v-33.5c0-.6.5-1.1 1.1-1.1s1.1.5 1.1 1.1v33.5c0 .6-.5 1.1-1.1 1.1z"/><path d="m156.5 292.5c-.3 0-.5-.1-.8-.3-.4-.4-.4-1.1 0-1.5l5-5c.4-.4 1.1-.4 1.5 0s.4 1.1 0 1.5l-5 5c-.2.2-.4.3-.7.3z"/><path d="m156.5 288.2c-.3 0-.5-.1-.8-.3l-6.6-6.6c-.4-.4-.4-1.1 0-1.5s1.1-.4 1.5 0l6.6 6.6c.4.4.4 1.1 0 1.5-.2.2-.4.3-.7.3z"/></g><path d="m17.6 227.6c0-24.3 7.2-64.6 16.1-64.6s16.1 40.3 16.1 64.6c0 8.9-7.2 16.1-16.1 16.1s-16.1-7.2-16.1-16.1z" fill="#d9e03a"/><path d="m17.6 227.6c0-24.3 7.2-64.6 16.1-64.6v80.7c-8.9 0-16.1-7.2-16.1-16.1z" fill="#bad544"/><path d="m33.7 261.8c-.6 0-1.1-.5-1.1-1.1v-43.8c0-.6.5-1.1 1.1-1.1s1.1.5 1.1 1.1v43.8c0 .6-.5 1.1-1.1 1.1z" fill="#594a41"/><path d="m33.7 234c-.3 0-.5-.1-.8-.3-.4-.4-.4-1.1 0-1.5l6.5-6.5c.4-.4 1.1-.4 1.5 0s.4 1.1 0 1.5l-6.5 6.5c-.2.2-.4.3-.7.3z" fill="#594a41"/><path d="m33.7 228.3c-.3 0-.5-.1-.8-.3l-8.6-8.6c-.4-.4-.4-1.1 0-1.5s1.1-.4 1.5 0l8.6 8.6c.4.4.4 1.1 0 1.5-.2.2-.4.3-.7.3z" fill="#594a41"/><path d="m245.3 369.4c0-17.7 5-38.2 15.3-38.2 10.2 0 15.3 20.5 15.3 38.2 0 6.5-5 11.8-15.3 11.8-10.3-.1-15.3-5.3-15.3-11.8z" fill="#8bc53f"/><path d="m245.3 369.4c0-17.7 5-38.2 15.3-38.2v50c-10.3-.1-15.3-5.3-15.3-11.8z" fill="#6ba839"/><path d="m260.5 399.3c-.6 0-1.1-.5-1.1-1.1v-43.8c0-.6.5-1.1 1.1-1.1s1.1.5 1.1 1.1v43.8c0 .6-.5 1.1-1.1 1.1z" fill="#594a41"/><path d="m260.5 371.4c-.3 0-.5-.1-.8-.3-.4-.4-.4-1.1 0-1.5l6.5-6.5c.4-.4 1.1-.4 1.5 0s.4 1.1 0 1.5l-6.5 6.5c-.1.2-.4.3-.7.3z" fill="#594a41"/><path d="m260.5 365.8c-.3 0-.5-.1-.8-.3l-8.6-8.6c-.4-.4-.4-1.1 0-1.5s1.1-.4 1.5 0l8.6 8.6c.4.4.4 1.1 0 1.5-.1.2-.4.3-.7.3z" fill="#594a41"/><path d="m196.1 368c0 4.6-3.8 8.4-8.4 8.4h-49.9c-4.6 0-8.4 3.8-8.4 8.4s3.8 8.4 8.4 8.4h11c4.6 0 8.4 3.8 8.4 8.4s-3.8 8.4-8.4 8.4h-149v-117.4h80.3c4.6 0 8.4 3.8 8.4 8.4s-3.8 8.4-8.4 8.4h-29.1c-4.6 0-8.4 3.8-8.4 8.4s3.8 8.4 8.4 8.4h97.7c4.6 0 8.4 3.8 8.4 8.4s-3.8 8.4-8.4 8.4h-35.3c-4.6 0-8.4 3.8-8.4 8.4s3.8 8.4 8.4 8.4h74.2c4.7-.2 8.5 3.6 8.5 8.2zm-21.7-25.1c4.6 0 8.4-3.8 8.4-8.4s-3.8-8.4-8.4-8.4-8.4 3.8-8.4 8.4 3.8 8.4 8.4 8.4zm-69.1-33.6c4.6 0 8.4-3.8 8.4-8.4s-3.8-8.4-8.4-8.4-8.4 3.8-8.4 8.4c0 4.7 3.8 8.4 8.4 8.4z" fill="#aac43e"/><path d="m30.4 360.6c0 13.2 10.7 23.9 23.9 23.9s23.9-10.7 23.9-23.9-10.7-23.9-23.9-23.9-23.9 10.7-23.9 23.9z" fill="#d9e03a"/><path d="m30.4 360.6c0-13.2 10.7-23.9 23.9-23.9v47.8c-13.2 0-23.9-10.7-23.9-23.9z" fill="#bad544"/><path d="m54.3 398.6c-.6 0-1.1-.5-1.1-1.1v-33.5c0-.6.5-1.1 1.1-1.1s1.1.5 1.1 1.1v33.5c-.1.6-.5 1.1-1.1 1.1z" fill="#594a41"/><path d="m54.3 377.3c-.3 0-.5-.1-.8-.3l-5-5c-.4-.4-.4-1.1 0-1.5s1.1-.4 1.5 0l5 5c.4.4.4 1.1 0 1.5-.2.2-.4.3-.7.3z" fill="#594a41"/><path d="m54.3 373c-.3 0-.5-.1-.8-.3-.4-.4-.4-1.1 0-1.5l6.6-6.6c.4-.4 1.1-.4 1.5 0s.4 1.1 0 1.5l-6.6 6.6c-.2.2-.4.3-.7.3z" fill="#594a41"/><g opacity=".15"><path d="m-.2 80.3h64.4 4.1 37.2 32.1 3.4c4.6 0 8.2 3.7 8.2 8.2 0 4.6-3.7 8.2-8.2 8.2h-17.5-18-4.1c-4.6 0-8.2 3.7-8.2 8.2 0 4.6 3.7 8.2 8.2 8.2h22.1 100.5.8 3.4c4.6 0 8.2 3.7 8.2 8.2 0 4.6-3.7 8.2-8.2 8.2h-7.5c-4.6 0-8.2 3.7-8.2 8.2 0 4.6 3.7 8.2 8.2 8.2h42.8 24 75.6c4.6 0 8.2-3.7 8.2-8.2 0-4.6-3.7-8.2-8.2-8.2h-24.4-4.1-37.2-35.4c-4.6 0-8.2-3.7-8.2-8.2 0-4.6 3.7-8.2 8.2-8.2h55.6 4.1.8 23.6c4.6 0 8.2-3.7 8.2-8.2 0-4.6-3.7-8.2-8.2-8.2h-24.4-4.1-57.2-32.1-3.4c-4.6 0-8.2-3.7-8.2-8.2 0-4.6 3.7-8.2 8.2-8.2h8.6.7 72.8 24 75.6c4.6 0 8.2-3.7 8.2-8.2 0-4.6-3.7-8.2-8.2-8.2h-24.4-4.1-37.1-35.5c-4.6 0-8.2-3.7-8.2-8.2 0-4.6 3.7-8.2 8.2-8.2h35.5 4.1c4.6 0 8.2-3.7 8.2-8.2 0-4.6-3.7-8.2-8.2-8.2h-96.8c-4.6 0-8.2 3.7-8.2 8.2 0 4.6 3.7 8.2 8.2 8.2h3.4c4.6 0 8.2 3.7 8.2 8.2 0 4.3-3.3 7.9-7.6 8.2h-9.9-102.9-1.9-22.1-115.7z"/><ellipse cx="219.9" cy="39.1" rx="8.2" ry="8.2" transform="matrix(.7377 -.6751 .6751 .7377 31.2774 158.72)"/><ellipse cx="308.2" cy="9.2" rx="8.2" ry="8.2" transform="matrix(.9731 -.2306 .2306 .9731 6.1839 71.3201)"/><ellipse cx="283.9" cy="169.2" rx="8.2" ry="8.2" transform="matrix(.9882 -.1531 .1531 .9882 -22.5626 45.4639)"/><ellipse cx="372.5" cy="104.2" rx="8.2" ry="8.2" transform="matrix(.988 -.1547 .1547 .988 -11.6399 58.8818)"/><ellipse cx="464.4" cy="72.5" rx="8.2" ry="8.2" transform="matrix(.7071 -.7071 .7071 .7071 84.7969 349.6187)"/></g></svg>