<svg enable-background="new 0 0 23 23" viewBox="0 0 23 23" xmlns="http://www.w3.org/2000/svg"><path d="m12.8 2c-.2 0-.4 0-.6.1-.9.3-1.3 1.2-1 2.1l.7 2.4-3.3 1-.7-2.2c-.3-.9-1.2-1.3-2-1-.9.2-1.3 1.1-1 2l.7 2.3-2.4.8c-.8.3-1.3 1.2-1 2.1.2.7.9 1.1 1.5 1.1.2 0 .4 0 .5-.1l2.4-.8 1 3.1-2.6.9c-.9.2-1.3 1.2-1 2 .2.7.8 1.2 1.5 1.2.1 0 .3 0 .5-.1l2.5-.9.8 2.5c.2.7.9 1.1 1.5 1.1.2 0 .4 0 .5-.1.8-.3 1.3-1.2 1-2.1l-.7-2.4 3.2-1.1.7 2.4c.2.7.9 1.1 1.5 1.1.2 0 .4 0 .5-.1.8-.3 1.3-1.2 1-2.1l-.7-2.4 2-.7c.8-.3 1.3-1.3.9-2.1-.3-.9-1.2-1.3-2-1l-2 .7-.9-3.1 2.2-.7c.9-.3 1.3-1.2 1-2.1s-1.2-1.3-2-1l-2.1.7-.7-2.4c-.2-.7-.8-1.1-1.4-1.1zm0 7.7.9 3.1-3.2 1.1-1-3.1z" fill="#fff"/></svg>