<svg enable-background="new 0 0 23 23" viewBox="0 0 23 23" xmlns="http://www.w3.org/2000/svg"><path d="m8.3 21.8c.3-.1.5-.5.5-.8v-2.4c0-.1 0-.2 0-.3s-1.3 0-1.6 0c-.7 0-1.3-.3-1.5-.8-.3-.5-.5-1.5-1.3-2.1-.1-.1 0-.2.2-.2.3 0 .8.4 1.2.9.5.5.9.9 1.6.9 1.1 0 1.7-.1 2.1-.2.4-.6 1-1.1 1.6-1.1-2.5-.1-4.2-.9-4.9-2.2-1.6 0-3.1.2-3.9.3 0-.1 0-.3-.1-.4.8-.2 2.2-.4 3.7-.4-.1-.1-.1-.2-.1-.4-1.6-.1-2.9 0-3.7 0 0-.1 0-.3 0-.4.7-.1 2.1-.1 3.6 0 0-.2-.1-.5-.1-.7 0-.8.3-1.6.8-2.2-.2-.8-.5-2.4.1-3 1.2 0 2.1.6 2.5.9.8-.3 1.6-.5 2.5-.5s1.8.2 2.5.5c.4-.4 1.3-.9 2.5-.9.7.6.3 2.2.1 2.9.5.7.8 1.4.7 2.2v.6c1.6-.1 2.9 0 3.7 0v.4c-.7-.1-2.1-.1-3.7 0 0 .2-.1.3-.1.4 1.6 0 3 .2 3.8.3 0 .1 0 .3-.1.4-.9-.1-2.3-.3-4-.3-.7 1.3-2.3 2.1-4.8 2.2 1.2 0 2.2 1.7 2.2 2.9v2.7c0 .4.2.7.5.8 4.1-1.4 7.1-5.2 7.1-9.8 0-5.7-4.6-10.3-10.3-10.3s-10.4 4.7-10.4 10.4c0 4.5 3 8.4 7.1 9.7z" fill="#fff"/></svg>