<svg enable-background="new 0 0 23 23" viewBox="0 0 23 23" xmlns="http://www.w3.org/2000/svg"><path d="m22.7 4.9c-.8.4-1.7.6-2.6.7.9-.6 1.7-1.5 2-2.5-.9.5-1.9.9-2.9 1.1-.8-.9-2-1.5-3.4-1.5-2.5 0-4.6 2.1-4.6 4.6 0 .4 0 .7.1 1-3.8-.2-7.2-2-9.5-4.8-.3.7-.6 1.5-.6 2.4 0 1.6.8 3 2 3.8-.8 0-1.5-.2-2.1-.6v.1c0 2.2 1.6 4.1 3.7 4.5-.4.1-.8.2-1.2.2-.3 0-.6 0-.9-.1.6 1.8 2.3 3.2 4.3 3.2-1.6 1.2-3.6 2-5.7 2-.4 0-.7 0-1.1-.1 2 1.3 4.4 2.1 7 2.1 8.5 0 13.1-7 13.1-13.1 0-.2 0-.4 0-.6 1-.7 1.8-1.5 2.4-2.4z" fill="#fff"/></svg>