<svg enable-background="new 0 0 242 108.2" viewBox="0 0 242 108.2" xmlns="http://www.w3.org/2000/svg"><g fill="#006ca1"><g clip-rule="evenodd" fill-rule="evenodd"><path d="m194.6 11.5h-12.1-13.1-25.2s.3-11.1-3-11.1-6.2 18.8-6 25.2 5 7.1 5 7.1h21c-1.1 2.3-2.9 3.5-4.3 4h-8.6-12.1s-6-.2-6-6 2.7-11.1 2-15.1-5-4-5-4h-102.9s-3 .5-4 2-20.2 29.1-20.2 29.1-.7 2.3 1 4 3 3 3 3 .7 1 3-1c2.4-2 12.1-10.1 12.1-10.1v36.4 28.2c0 2.8 2.3 5 5 5h30.2c2.8 0 5-2.3 5-5v-22.6c0-2.5 2-4.6 4.6-4.6h73.5c2.5 0 4.6 2 4.6 4.6v22.6c0 2.8 2.3 5 5 5h30.2c2.8 0 5-2.3 5-5v-24.2h-16.1c-4.5 0-8.1-3.6-8.1-8.1v-16.1c0-2.5 1.2-4.8 3-6.3v18.4c0 4.5 3.6 8.1 8.1 8.1h25.2c4.5 0 8.1-3.6 8.1-8.1v-47.3c.2-4.5-3.4-8.1-7.9-8.1z"/><path d="m206.7 21.6v11.1h17.1s6-2.1 6-8.1-4.5-24.2-7.1-24.2-3 9.7-3 15.1-6 6-6 6h-7z"/><path d="m236.5 0c-3.1 0-5.5 2.5-5.5 5.5s2.5 5.5 5.5 5.5c3.1 0 5.5-2.5 5.5-5.5s-2.5-5.5-5.5-5.5zm0 10.1c-2.5 0-4.5-2-4.5-4.5s2-4.5 4.5-4.5 4.5 2 4.5 4.5-2 4.5-4.5 4.5z"/></g><path d="m236.6 6.3h-.7v1.8h-1.2v-5.1h2c.6 0 1.1.1 1.4.4s.5.6.5 1.1c0 .3-.1.6-.2.9-.1.2-.4.4-.7.6l1 2v.1h-1.3zm-.7-1h.8c.2 0 .4-.1.5-.2s.2-.3.2-.5-.1-.4-.2-.5-.3-.1-.5-.1h-.8z"/></g></svg>