<?xml version="1.0" encoding="utf-8"?>
<!-- Generator: Adobe Illustrator 22.0.1, SVG Export Plug-In . SVG Version: 6.00 Build 0)  -->
<svg version="1.1" id="Layer_1" xmlns="http://www.w3.org/2000/svg" xmlns:xlink="http://www.w3.org/1999/xlink" x="0px" y="0px"
	 viewBox="0 0 2629.8 896" style="enable-background:new 0 0 2629.8 896;" xml:space="preserve">
<style type="text/css">
	.st0{fill:#3D98D3;}
	.st1{enable-background:new    ;}
	.st2{fill:#99A3A8;}
	.st3{fill:#C5CFD3;}
	.st4{clip-path:url(#SVGID_4_);}
	.st5{fill:#DEE1E3;}
	.st6{fill:#FFFFFF;}
	.st7{fill:#F7F9F9;}
	.st8{fill:#646464;}
	.st9{clip-path:url(#SVGID_8_);}
	.st10{fill:#313131;}
	.st11{fill:#3D3D3D;}
	.st12{fill:#222323;}
	.st13{fill:#323333;}
	.st14{fill:#949494;}
	.st15{clip-path:url(#SVGID_12_);enable-background:new    ;}
	.st16{fill:#EA3738;}
	.st17{fill:#F15354;}
	.st18{clip-path:url(#SVGID_14_);}
	.st19{fill:#AEAEAE;}
	.st20{clip-path:url(#SVGID_18_);}
	.st21{fill:#BDC3C7;}
	.st22{fill:#ECF0F1;}
	.st23{fill:#2875A9;}
	.st24{fill:#2D82BC;}
	.st25{fill:#1C5175;}
	.st26{fill:#828688;}
	.st27{fill:#D1D7DB;}
	.st28{fill:#BCC1C5;}
	.st29{fill:#DCDBDC;}
	.st30{fill:#A0D9DD;}
	.st31{fill:#A5C63B;}
	.st32{fill:#BCD64D;}
	.st33{fill:#ACB2B5;}
</style>
<rect class="st0" width="2629.8" height="895.3"/>
<g>
	<g class="st1">
		<g>
			<g class="st1">
				<defs>
					<polygon id="SVGID_1_" class="st1" points="1166.5,0 1198.2,0 1230.1,0 1198.4,0 					"/>
				</defs>
				<clipPath id="SVGID_2_">
					<use xlink:href="#SVGID_1_"  style="overflow:visible;"/>
				</clipPath>
			</g>
		</g>
		<g>
			<polygon class="st2" points="1230.1,0 1230,407.1 1198.3,425.5 1198.4,0 			"/>
		</g>
		<g>
			<polygon class="st3" points="1198.4,0 1198.3,425.5 1166.4,407.1 1166.5,0 			"/>
		</g>
	</g>
</g>
<g>
	<g class="st1">
		<g>
			<g class="st1">
				<defs>
					<polygon id="SVGID_3_" class="st1" points="2507.6,751 2539.3,732.6 2571.2,751 2539.5,769.5 					"/>
				</defs>
				<clipPath id="SVGID_4_">
					<use xlink:href="#SVGID_3_"  style="overflow:visible;"/>
				</clipPath>
				<g class="st4">
					<g>
						<defs>
							<polyline id="SVGID_5_" points="2539.5,769.5 2507.6,751 2539.3,732.6 2571.2,751 2539.5,769.5 							"/>
						</defs>
						<clipPath id="SVGID_6_">
							<use xlink:href="#SVGID_5_"  style="overflow:visible;"/>
						</clipPath>
					</g>
				</g>
			</g>
		</g>
		<g>
			<polygon class="st2" points="2571.2,751 2571.1,896 2539.4,896 2539.5,769.5 			"/>
		</g>
		<g>
			<polygon class="st3" points="2539.5,769.5 2539.4,896 2507.5,896 2507.6,751 			"/>
		</g>
	</g>
</g>
<polygon class="st5" points="2629.8,904.1 1081.4,0 2629.8,0 "/>
<g>
	<polygon class="st6" points="2629.8,874.4 1132.6,0 2628.1,0 	"/>
</g>
<ellipse class="st7" cx="2458.7" cy="496.3" rx="61" ry="32.3"/>
<title>desks</title>
<polygon class="st7" points="1908.7,318 2186.3,154.6 2531,353.6 2253.5,517 "/>
<g>
	<g>
		<g class="st1">
			<g>
				<polygon class="st8" points="1907.8,268.8 2132,138.6 2476.7,337.6 2252.6,467.9 				"/>
				<g class="st1">
					<defs>
						<polygon id="SVGID_7_" class="st1" points="1907.8,268.8 2132,138.6 2476.7,337.6 2252.6,467.9 						"/>
					</defs>
					<clipPath id="SVGID_8_">
						<use xlink:href="#SVGID_7_"  style="overflow:visible;"/>
					</clipPath>
					<g class="st9">
						<g>
							<defs>
								<polyline id="SVGID_9_" points="2252.6,467.9 1907.8,268.8 2132,138.6 2476.7,337.6 2252.6,467.9 								"/>
							</defs>
							<clipPath id="SVGID_10_">
								<use xlink:href="#SVGID_9_"  style="overflow:visible;"/>
							</clipPath>
						</g>
					</g>
				</g>
			</g>
			<g>
				<polygon class="st10" points="2476.7,337.6 2476.6,362 2252.5,492.3 2252.6,467.9 				"/>
			</g>
			<g>
				<polygon class="st11" points="2252.6,467.9 2252.5,492.3 1907.8,293.3 1907.8,268.8 				"/>
			</g>
		</g>
	</g>
	<g>
		<g>
			<polygon class="st11" points="2078.3,212.6 2060.6,222.9 2042.7,212.6 2060.5,202.3 			"/>
		</g>
		<g>
			<polygon class="st12" points="2078.3,212.6 2078.3,221.9 2060.6,232.2 2060.6,222.9 			"/>
		</g>
		<g>
			<polygon class="st13" points="2060.6,222.9 2060.6,232.2 2042.7,221.9 2042.7,212.6 			"/>
		</g>
		<g>
			<polygon class="st11" points="2054.3,226.6 2036.5,236.9 2018.7,226.6 2036.4,216.3 			"/>
		</g>
		<g>
			<polygon class="st12" points="2054.3,226.6 2054.2,235.9 2036.5,246.2 2036.5,236.9 			"/>
		</g>
		<g>
			<polygon class="st13" points="2036.5,236.9 2036.5,246.2 2018.6,235.9 2018.7,226.6 			"/>
		</g>
		<g>
			<polygon class="st11" points="2030.2,240.6 2012.4,250.9 1994.6,240.6 2012.3,230.3 			"/>
		</g>
		<g>
			<polygon class="st12" points="2030.2,240.6 2030.1,249.9 2012.4,260.2 2012.4,250.9 			"/>
		</g>
		<g>
			<polygon class="st13" points="2012.4,250.9 2012.4,260.2 1994.5,249.9 1994.6,240.6 			"/>
		</g>
		<g>
			<polygon class="st11" points="2101.3,225.8 2083.5,236.1 2065.7,225.8 2083.4,215.5 			"/>
		</g>
		<g>
			<polygon class="st12" points="2101.3,225.8 2101.2,235.2 2083.5,245.5 2083.5,236.1 			"/>
		</g>
		<g>
			<polygon class="st13" points="2083.5,236.1 2083.5,245.5 2065.6,235.2 2065.7,225.8 			"/>
		</g>
		<g>
			<polygon class="st11" points="2077.2,239.8 2059.4,250.1 2041.6,239.8 2059.3,229.5 			"/>
		</g>
		<g>
			<polygon class="st12" points="2077.2,239.8 2077.1,249.2 2059.4,259.5 2059.4,250.1 			"/>
		</g>
		<g>
			<polygon class="st13" points="2059.4,250.1 2059.4,259.5 2041.5,249.2 2041.6,239.8 			"/>
		</g>
		<g>
			<polygon class="st11" points="2053.1,253.8 2035.3,264.1 2017.5,253.8 2035.2,243.5 			"/>
		</g>
		<g>
			<polygon class="st12" points="2053.1,253.8 2053,263.2 2035.3,273.5 2035.3,264.1 			"/>
		</g>
		<g>
			<polygon class="st13" points="2035.3,264.1 2035.3,273.5 2017.4,263.2 2017.5,253.8 			"/>
		</g>
		<g>
			<polygon class="st11" points="2124.2,239 2106.4,249.3 2088.6,239 2106.3,228.7 			"/>
		</g>
		<g>
			<polygon class="st12" points="2124.2,239 2124.1,248.4 2106.4,258.7 2106.4,249.3 			"/>
		</g>
		<g>
			<polygon class="st13" points="2106.4,249.3 2106.4,258.7 2088.5,248.4 2088.6,239 			"/>
		</g>
		<g>
			<polygon class="st11" points="2100.1,253 2082.3,263.3 2064.5,253 2082.2,242.7 			"/>
		</g>
		<g>
			<polygon class="st12" points="2100.1,253 2100.1,262.4 2082.3,272.7 2082.3,263.3 			"/>
		</g>
		<g>
			<polygon class="st13" points="2082.3,263.3 2082.3,272.7 2064.4,262.4 2064.5,253 			"/>
		</g>
		<g>
			<polygon class="st11" points="2076,267 2058.2,277.3 2040.4,267 2058.1,256.7 			"/>
		</g>
		<g>
			<polygon class="st12" points="2076,267 2076,276.4 2058.2,286.7 2058.2,277.3 			"/>
		</g>
		<g>
			<polygon class="st13" points="2058.2,277.3 2058.2,286.7 2040.4,276.4 2040.4,267 			"/>
		</g>
		<g>
			<polygon class="st11" points="2336.5,273.1 2286.4,302.2 2196.3,250.2 2246.4,221.1 			"/>
		</g>
		<g>
			<polygon class="st11" points="2308.6,317.6 2290.9,327.9 2135.6,238.2 2153.3,227.9 			"/>
		</g>
		<g>
			<polygon class="st12" points="2308.6,317.6 2308.6,327 2290.9,337.3 2290.9,327.9 			"/>
		</g>
		<g>
			<polygon class="st13" points="2290.9,327.9 2290.9,337.3 2135.5,247.6 2135.6,238.2 			"/>
		</g>
		<g>
			<polygon class="st11" points="2147.1,252.2 2129.3,262.6 2111.5,252.2 2129.2,241.9 			"/>
		</g>
		<g>
			<polygon class="st12" points="2147.1,252.2 2147.1,261.6 2129.3,271.9 2129.3,262.6 			"/>
		</g>
		<g>
			<polygon class="st13" points="2129.3,262.6 2129.3,271.9 2111.5,261.6 2111.5,252.2 			"/>
		</g>
		<g>
			<polygon class="st11" points="2123,266.3 2105.2,276.6 2087.4,266.3 2105.1,255.9 			"/>
		</g>
		<g>
			<polygon class="st12" points="2123,266.3 2123,275.6 2105.2,285.9 2105.2,276.6 			"/>
		</g>
		<g>
			<polygon class="st13" points="2105.2,276.6 2105.2,285.9 2087.4,275.6 2087.4,266.3 			"/>
		</g>
		<g>
			<polygon class="st11" points="2098.9,280.3 2081.2,290.6 2063.3,280.3 2081,269.9 			"/>
		</g>
		<g>
			<polygon class="st12" points="2098.9,280.3 2098.9,289.6 2081.1,299.9 2081.2,290.6 			"/>
		</g>
		<g>
			<polygon class="st13" points="2081.2,290.6 2081.1,299.9 2063.3,289.6 2063.3,280.3 			"/>
		</g>
		<g>
			<polygon class="st11" points="2170,265.5 2152.3,275.8 2134.4,265.5 2152.1,255.2 			"/>
		</g>
		<g>
			<polygon class="st12" points="2170,265.5 2170,274.8 2152.2,285.2 2152.3,275.8 			"/>
		</g>
		<g>
			<polygon class="st13" points="2152.3,275.8 2152.2,285.2 2134.4,274.9 2134.4,265.5 			"/>
		</g>
		<g>
			<polygon class="st11" points="2145.9,279.5 2128.2,289.8 2110.3,279.5 2128,269.2 			"/>
		</g>
		<g>
			<polygon class="st12" points="2145.9,279.5 2145.9,288.9 2128.1,299.2 2128.2,289.8 			"/>
		</g>
		<g>
			<polygon class="st13" points="2128.2,289.8 2128.1,299.2 2110.3,288.9 2110.3,279.5 			"/>
		</g>
		<g>
			<polygon class="st11" points="2121.8,293.5 2104.1,303.8 2086.2,293.5 2104,283.2 			"/>
		</g>
		<g>
			<polygon class="st12" points="2121.8,293.5 2121.8,302.9 2104,313.2 2104.1,303.8 			"/>
		</g>
		<g>
			<polygon class="st13" points="2104.1,303.8 2104,313.2 2086.2,302.9 2086.2,293.5 			"/>
		</g>
		<g>
			<polygon class="st11" points="2192.9,278.7 2175.2,289 2157.3,278.7 2175,268.4 			"/>
		</g>
		<g>
			<polygon class="st12" points="2192.9,278.7 2192.9,288.1 2175.1,298.4 2175.2,289 			"/>
		</g>
		<g>
			<polygon class="st13" points="2175.2,289 2175.1,298.4 2157.3,288.1 2157.3,278.7 			"/>
		</g>
		<g>
			<polygon class="st11" points="2215.8,291.9 2198.1,302.2 2180.2,291.9 2198,281.6 			"/>
		</g>
		<g>
			<polygon class="st12" points="2215.8,291.9 2215.8,301.3 2198,311.6 2198.1,302.2 			"/>
		</g>
		<g>
			<polygon class="st13" points="2198.1,302.2 2198,311.6 2180.2,301.3 2180.2,291.9 			"/>
		</g>
		<path class="st12" d="M2151,302.1c0.4-0.2,0.8-0.4,1.2-0.6c0.1-0.1,0.2-0.1,0.4-0.2c0.3-0.1,0.7-0.3,1-0.4c0.1,0,0.2-0.1,0.4-0.1
			c0.2-0.1,0.4-0.1,0.7-0.2c0.2,0,0.3-0.1,0.5-0.1c0.2-0.1,0.5-0.1,0.7-0.1c0.2,0,0.3-0.1,0.5-0.1c0.5-0.1,1-0.1,1.4-0.2
			c0.1,0,0.3,0,0.4,0c0.3,0,0.6,0,0.9-0.1c0.2,0,0.4,0,0.5,0c0.2,0,0.5,0,0.7,0c0.2,0,0.4,0,0.6,0c0.2,0,0.4,0,0.6,0
			c0.2,0,0.4,0,0.6,0c0.2,0,0.4,0,0.6,0.1c0.2,0,0.4,0.1,0.6,0.1c0.2,0,0.4,0.1,0.7,0.1c0.2,0,0.3,0.1,0.5,0.1
			c0.3,0.1,0.5,0.1,0.8,0.2c0.1,0,0.3,0.1,0.4,0.1c0.5,0.1,0.9,0.3,1.4,0.5c0.1,0,0.1,0.1,0.2,0.1c0.6,0.2,1.2,0.5,1.7,0.8l0-9.4
			c-0.5-0.3-1.1-0.6-1.7-0.8c0,0-0.1,0-0.1-0.1c0,0,0,0-0.1,0c-0.4-0.2-0.9-0.3-1.4-0.5c0,0-0.1,0-0.1,0c-0.1,0-0.2-0.1-0.3-0.1
			c-0.3-0.1-0.5-0.1-0.8-0.2c-0.1,0-0.1,0-0.2-0.1c-0.1,0-0.2,0-0.3-0.1c-0.2,0-0.4-0.1-0.7-0.1c-0.1,0-0.2,0-0.3,0
			c-0.1,0-0.2,0-0.3,0c-0.2,0-0.4,0-0.6-0.1c-0.1,0-0.2,0-0.3,0c-0.1,0-0.2,0-0.3,0c-0.2,0-0.4,0-0.6,0c-0.1,0-0.2,0-0.3,0
			c-0.1,0-0.2,0-0.3,0c-0.2,0-0.5,0-0.7,0c-0.1,0-0.2,0-0.3,0c-0.1,0-0.1,0-0.2,0c-0.3,0-0.6,0-0.8,0.1c-0.1,0-0.2,0-0.3,0
			c0,0-0.1,0-0.1,0c-0.5,0.1-1,0.1-1.4,0.2c0,0,0,0-0.1,0c-0.1,0-0.3,0.1-0.4,0.1c-0.2,0-0.5,0.1-0.7,0.2c-0.2,0-0.3,0.1-0.5,0.1
			c-0.2,0.1-0.4,0.1-0.7,0.2c0,0-0.1,0-0.1,0c-0.1,0-0.1,0.1-0.2,0.1c-0.3,0.1-0.7,0.2-1,0.4c-0.1,0-0.2,0.1-0.4,0.2
			c-0.4,0.2-0.8,0.4-1.2,0.6c-0.1,0-0.1,0.1-0.2,0.1c-0.1,0.1-0.2,0.1-0.3,0.2c-0.2,0.1-0.3,0.2-0.5,0.3c-0.1,0.1-0.3,0.2-0.4,0.3
			c-0.1,0.1-0.2,0.1-0.3,0.2c-0.1,0.1-0.1,0.1-0.2,0.2c-0.1,0.1-0.1,0.1-0.2,0.2c-0.1,0.1-0.2,0.2-0.3,0.4c-0.1,0.1-0.2,0.2-0.3,0.3
			c0,0-0.1,0.1-0.1,0.1c-0.1,0.1-0.2,0.3-0.3,0.4c0,0.1-0.1,0.1-0.1,0.2c0,0,0,0.1,0,0.1c-0.1,0.1-0.1,0.3-0.2,0.4
			c0,0.1-0.1,0.2-0.1,0.2c0,0,0,0.1,0,0.1c0,0.1-0.1,0.2-0.1,0.4c0,0.1-0.1,0.2-0.1,0.3c0,0,0,0,0,0.1c0,0.1,0,0.3,0,0.4
			c0,0.1,0,0.2,0,0.3l0,0.1c0,0,0,0,0,0l0,9.4c0,1.9,1.2,3.8,3.7,5.2l0-9.4c-0.3-0.2-0.5-0.3-0.8-0.5c0.1,0,0.1-0.1,0.2-0.1
			C2150.7,302.3,2150.8,302.2,2151,302.1z"/>
		<path class="st14" d="M2147.4,297.7l0,9.4c0,0,0,0.1,0,0.1l0-9.4C2147.4,297.8,2147.4,297.8,2147.4,297.7"/>
		<g class="st1">
			<defs>
				<path id="SVGID_11_" class="st1" d="M2172.5,307.3c0-0.5-0.1-0.9-0.2-1.4l0-9.4c0.1,0.5,0.2,0.9,0.2,1.4
					C2172.5,300.7,2172.5,304.5,2172.5,307.3z"/>
			</defs>
			<clipPath id="SVGID_12_">
				<use xlink:href="#SVGID_11_"  style="overflow:visible;"/>
			</clipPath>
			<g class="st15">
				<path class="st12" d="M2172.5,297.9l0,9.4c0-0.5-0.1-0.9-0.2-1.4l0-9.4C2172.5,297,2172.5,297.4,2172.5,297.9"/>
			</g>
		</g>
		<g>
			<path class="st11" d="M2168.8,292.7c-4.9-2.8-12.9-2.8-17.8,0c-4.9,2.8-4.9,7.5,0.1,10.3l-17.9-10.3l17.7-10.3L2168.8,292.7z"/>
		</g>
		<g>
			<polygon class="st13" points="2151.1,303 2151,312.4 2133.2,302.1 2133.2,292.7 			"/>
		</g>
		<g>
			<g>
				<path class="st16" d="M2151,299.2L2151,299.2C2151,299.2,2151,299.2,2151,299.2L2151,299.2z"/>
				<path class="st16" d="M2168.9,299.2c0,1.3-0.8,2.7-2.6,3.7c-2.2,1.3-5.1,1.7-7.9,1.4c-1.7-0.2-3.4-0.7-4.7-1.4
					c-1.7-1-2.6-2.3-2.6-3.7v6.7c0,1.3,0.9,2.6,2.6,3.7c1.3,0.8,3,1.2,4.7,1.4c2.8,0.3,5.8-0.2,7.9-1.4c1.7-1,2.6-2.3,2.6-3.7h0
					L2168.9,299.2L2168.9,299.2z"/>
			</g>
			<g>
				<path class="st17" d="M2166.2,295.6c1.3,0.8,2.2,1.7,2.5,2.7c0.5,1.6-0.3,3.4-2.4,4.6c-2.2,1.3-5.1,1.7-7.9,1.4
					c-1.7-0.2-3.4-0.7-4.7-1.4c-3.5-2-3.5-5.3,0-7.3C2157.1,293.5,2162.7,293.5,2166.2,295.6z"/>
			</g>
		</g>
		<g>
			<polygon class="st12" points="2191.7,305.9 2191.7,315.3 2174,325.6 2174,316.2 			"/>
		</g>
		<g>
			<path class="st11" d="M2191.7,305.9l-17.7,10.3l-17.9-10.3l1.6-0.9c3.9,0.4,8.2-0.2,11.2-2c3-1.8,4.2-4.2,3.4-6.5l1.6-0.9
				L2191.7,305.9z"/>
		</g>
		<g>
			<polygon class="st13" points="2174,316.2 2174,325.6 2156.1,315.3 2156.1,305.9 			"/>
		</g>
		<g>
			<polygon class="st11" points="2144.7,306.7 2127,317 2109.1,306.7 2126.9,296.4 			"/>
		</g>
		<g>
			<polygon class="st12" points="2144.7,306.7 2144.7,316.1 2126.9,326.4 2127,317 			"/>
		</g>
		<g>
			<polygon class="st13" points="2127,317 2126.9,326.4 2109.1,316.1 2109.1,306.7 			"/>
		</g>
		<g>
			<polygon class="st11" points="2167.6,319.9 2149.9,330.2 2132,319.9 2149.8,309.6 			"/>
		</g>
		<g>
			<polygon class="st12" points="2167.6,319.9 2167.6,329.3 2149.9,339.6 2149.9,330.2 			"/>
		</g>
		<g>
			<polygon class="st13" points="2149.9,330.2 2149.9,339.6 2132,329.3 2132,319.9 			"/>
		</g>
		<g>
			<polygon class="st11" points="2238.7,305.2 2221,315.5 2203.1,305.2 2220.9,294.8 			"/>
		</g>
		<g>
			<polygon class="st12" points="2238.7,305.2 2238.7,314.5 2221,324.8 2221,315.5 			"/>
		</g>
		<g>
			<polygon class="st13" points="2221,315.5 2221,324.8 2203.1,314.5 2203.1,305.2 			"/>
		</g>
		<g>
			<polygon class="st11" points="2214.6,319.2 2196.9,329.5 2179,319.2 2196.8,308.9 			"/>
		</g>
		<g>
			<polygon class="st12" points="2214.6,319.2 2214.6,328.5 2196.9,338.8 2196.9,329.5 			"/>
		</g>
		<g>
			<polygon class="st13" points="2196.9,329.5 2196.9,338.8 2179,328.5 2179,319.2 			"/>
		</g>
		<g>
			<polygon class="st11" points="2190.5,333.2 2172.8,343.5 2154.9,333.2 2172.7,322.9 			"/>
		</g>
		<g>
			<polygon class="st12" points="2190.5,333.2 2190.5,342.5 2172.8,352.8 2172.8,343.5 			"/>
		</g>
		<g>
			<polygon class="st13" points="2172.8,343.5 2172.8,352.8 2154.9,342.5 2154.9,333.2 			"/>
		</g>
		<g>
			<polygon class="st11" points="2261.6,318.4 2243.9,328.7 2226,318.4 2243.8,308.1 			"/>
		</g>
		<g>
			<polygon class="st12" points="2261.6,318.4 2261.6,327.8 2243.9,338.1 2243.9,328.7 			"/>
		</g>
		<g>
			<polygon class="st13" points="2243.9,328.7 2243.9,338.1 2226,327.8 2226,318.4 			"/>
		</g>
		<g>
			<polygon class="st11" points="2237.5,332.4 2219.8,342.7 2201.9,332.4 2219.7,322.1 			"/>
		</g>
		<g>
			<polygon class="st12" points="2237.5,332.4 2237.5,341.8 2219.8,352.1 2219.8,342.7 			"/>
		</g>
		<g>
			<polygon class="st13" points="2219.8,342.7 2219.8,352.1 2201.9,341.8 2201.9,332.4 			"/>
		</g>
		<g>
			<polygon class="st11" points="2213.5,346.4 2195.7,356.7 2177.9,346.4 2195.6,336.1 			"/>
		</g>
		<g>
			<polygon class="st12" points="2213.5,346.4 2213.4,355.8 2195.7,366.1 2195.7,356.7 			"/>
		</g>
		<g>
			<polygon class="st13" points="2195.7,356.7 2195.7,366.1 2177.8,355.8 2177.9,346.4 			"/>
		</g>
		<g>
			<polygon class="st11" points="2284.6,331.6 2266.8,341.9 2249,331.6 2266.7,321.3 			"/>
		</g>
		<g>
			<polygon class="st12" points="2284.6,331.6 2284.5,341 2266.8,351.3 2266.8,341.9 			"/>
		</g>
		<g>
			<polygon class="st13" points="2266.8,341.9 2266.8,351.3 2248.9,341 2249,331.6 			"/>
		</g>
		<g>
			<polygon class="st11" points="2260.5,345.6 2242.7,355.9 2224.9,345.6 2242.6,335.3 			"/>
		</g>
		<g>
			<polygon class="st12" points="2260.5,345.6 2260.4,355 2242.7,365.3 2242.7,355.9 			"/>
		</g>
		<g>
			<polygon class="st13" points="2242.7,355.9 2242.7,365.3 2224.8,355 2224.9,345.6 			"/>
		</g>
		<g>
			<polygon class="st11" points="2236.4,359.6 2218.6,369.9 2200.8,359.6 2218.5,349.3 			"/>
		</g>
		<g>
			<polygon class="st12" points="2236.4,359.6 2236.3,369 2218.6,379.3 2218.6,369.9 			"/>
		</g>
		<g>
			<polygon class="st13" points="2218.6,369.9 2218.6,379.3 2200.7,369 2200.8,359.6 			"/>
		</g>
		<g>
			<polygon class="st11" points="2307.5,344.8 2289.7,355.2 2271.9,344.8 2289.6,334.5 			"/>
		</g>
		<g>
			<polygon class="st12" points="2307.5,344.8 2307.4,354.2 2289.7,364.5 2289.7,355.2 			"/>
		</g>
		<g>
			<polygon class="st13" points="2289.7,355.2 2289.7,364.5 2271.8,354.2 2271.9,344.8 			"/>
		</g>
		<g>
			<polygon class="st11" points="2283.4,358.8 2265.6,369.2 2247.8,358.8 2265.5,348.5 			"/>
		</g>
		<g>
			<polygon class="st12" points="2283.4,358.8 2283.3,368.2 2265.6,378.5 2265.6,369.2 			"/>
		</g>
		<g>
			<polygon class="st13" points="2265.6,369.2 2265.6,378.5 2247.7,368.2 2247.8,358.8 			"/>
		</g>
		<g>
			<polygon class="st11" points="2259.3,372.8 2241.5,383.2 2223.7,372.8 2241.4,362.5 			"/>
		</g>
		<g>
			<polygon class="st12" points="2259.3,372.8 2259.2,382.2 2241.5,392.5 2241.5,383.2 			"/>
		</g>
		<g>
			<polygon class="st13" points="2241.5,383.2 2241.5,392.5 2223.6,382.2 2223.7,372.8 			"/>
		</g>
		<g>
			<polygon class="st11" points="2330.4,358.1 2312.6,368.4 2294.8,358.1 2312.5,347.8 			"/>
		</g>
		<g>
			<polygon class="st12" points="2330.4,358.1 2330.3,367.4 2312.6,377.8 2312.6,368.4 			"/>
		</g>
		<g>
			<polygon class="st13" points="2312.6,368.4 2312.6,377.8 2294.7,367.4 2294.8,358.1 			"/>
		</g>
		<g>
			<polygon class="st11" points="2306.3,372.1 2288.5,382.4 2270.7,372.1 2288.4,361.8 			"/>
		</g>
		<g>
			<polygon class="st12" points="2306.3,372.1 2306.3,381.4 2288.5,391.8 2288.5,382.4 			"/>
		</g>
		<g>
			<polygon class="st13" points="2288.5,382.4 2288.5,391.8 2270.7,381.4 2270.7,372.1 			"/>
		</g>
		<g>
			<polygon class="st11" points="2282.2,386.1 2264.4,396.4 2246.6,386.1 2264.3,375.8 			"/>
		</g>
		<g>
			<polygon class="st12" points="2282.2,386.1 2282.2,395.4 2264.4,405.8 2264.4,396.4 			"/>
		</g>
		<g>
			<polygon class="st13" points="2264.4,396.4 2264.4,405.8 2246.6,395.4 2246.6,386.1 			"/>
		</g>
		<g>
			<polygon class="st11" points="2353.3,371.3 2335.5,381.6 2317.7,371.3 2335.4,361 			"/>
		</g>
		<g>
			<polygon class="st12" points="2353.3,371.3 2353.3,380.7 2335.5,391 2335.5,381.6 			"/>
		</g>
		<g>
			<polygon class="st13" points="2335.5,381.6 2335.5,391 2317.7,380.7 2317.7,371.3 			"/>
		</g>
		<g>
			<polygon class="st11" points="2329.2,385.3 2311.4,395.6 2293.6,385.3 2311.3,375 			"/>
		</g>
		<g>
			<polygon class="st12" points="2329.2,385.3 2329.2,394.7 2311.4,405 2311.4,395.6 			"/>
		</g>
		<g>
			<polygon class="st13" points="2311.4,395.6 2311.4,405 2293.6,394.7 2293.6,385.3 			"/>
		</g>
		<g>
			<polygon class="st11" points="2305.1,399.3 2287.4,409.6 2269.5,399.3 2287.2,389 			"/>
		</g>
		<g>
			<polygon class="st12" points="2305.1,399.3 2305.1,408.7 2287.3,419 2287.4,409.6 			"/>
		</g>
		<g>
			<polygon class="st13" points="2287.4,409.6 2287.3,419 2269.5,408.7 2269.5,399.3 			"/>
		</g>
		<g>
			<polygon class="st17" points="2290.8,299.5 2286.4,302.2 2196.3,250.2 2200.8,247.5 			"/>
		</g>
	</g>
	<g>
		<g class="st1">
			<g>
				<polygon class="st11" points="1886.7,305.6 1887.4,46.4 2232.1,245.4 2231.4,504.7 				"/>
				<g class="st1">
					<defs>
						<polygon id="SVGID_13_" class="st1" points="1886.7,305.6 1887.4,46.4 2232.1,245.4 2231.4,504.7 						"/>
					</defs>
					<clipPath id="SVGID_14_">
						<use xlink:href="#SVGID_13_"  style="overflow:visible;"/>
					</clipPath>
					<g class="st18">
						<g>
							<defs>
								<polyline id="SVGID_15_" points="2231.4,504.7 1886.7,305.6 1887.4,46.4 2232.1,245.4 2231.4,504.7 								"/>
							</defs>
							<clipPath id="SVGID_16_">
								<use xlink:href="#SVGID_15_"  style="overflow:visible;"/>
							</clipPath>
						</g>
					</g>
				</g>
			</g>
			<g>
				<polygon class="st8" points="1887.4,46.4 1908.5,34.1 2253.3,233.1 2232.1,245.4 				"/>
			</g>
			<g>
				<polygon class="st10" points="2232.1,245.4 2253.3,233.1 2252.5,492.4 2231.4,504.7 				"/>
			</g>
		</g>
	</g>
</g>
<g>
	<g>
		<g class="st1">
			<g>
				<polygon class="st19" points="1796.7,662.1 1828.4,643.7 1860.3,662.1 1828.6,680.5 				"/>
				<g class="st1">
					<defs>
						<polygon id="SVGID_17_" class="st1" points="1796.7,662.1 1828.4,643.7 1860.3,662.1 1828.6,680.5 						"/>
					</defs>
					<clipPath id="SVGID_18_">
						<use xlink:href="#SVGID_17_"  style="overflow:visible;"/>
					</clipPath>
					<g class="st20">
						<g>
							<defs>
								<polyline id="SVGID_19_" points="1828.6,680.5 1796.7,662.1 1828.4,643.7 1860.3,662.1 1828.6,680.5 								"/>
							</defs>
							<clipPath id="SVGID_20_">
								<use xlink:href="#SVGID_19_"  style="overflow:visible;"/>
							</clipPath>
							<g style="clip-path:url(#SVGID_20_);">
								
									<image style="overflow:visible;" width="64" height="37" xlink:href="5B7C632AE14CDB4A.png"  transform="matrix(1 0 0 1 1796.6759 643.6729)">
								</image>
							</g>
						</g>
					</g>
				</g>
			</g>
			<g>
				<polygon class="st2" points="1860.3,662.1 1860.2,896 1828.5,896 1828.6,680.5 				"/>
			</g>
			<g>
				<polygon class="st3" points="1828.6,680.5 1828.5,896 1796.6,896 1796.7,662.1 				"/>
			</g>
		</g>
	</g>
	<g>
		<g class="st1">
			<g>
				<polyline class="st21" points="885.2,62 0,62 0,896 1576.8,896 1920.3,694.4 1920.3,661.9 				"/>
			</g>
		</g>
	</g>
	<g>
		<g class="st1">
			<g>
				<g>
					<polygon class="st6" points="778.2,0 0,0 0,896 1521.5,896 1920.3,661.9 					"/>
				</g>
			</g>
		</g>
	</g>
	<polygon class="st7" points="1814.5,600.4 1452.7,391.5 1304.2,474.4 1477.8,574.6 1405.4,616.7 1405.3,637 1503.8,693.9 
		1511.5,698.3 1528.7,688.3 1601.5,646 1775.7,746.6 1814.2,725.1 1920.3,661.9 	"/>
	<polygon class="st7" points="1472.4,826.1 1590.1,756.9 1307,593.4 1189.3,662.6 	"/>
	<g>
		<g>
			<polygon class="st22" points="1562.3,750.3 1459.6,810 1176.5,646.6 1279.2,586.9 			"/>
		</g>
		<g>
			<polygon class="st21" points="1562.3,750.3 1562.2,758.5 1459.6,818.2 1459.6,810 			"/>
		</g>
		<g>
			<polygon class="st5" points="1459.6,810 1459.6,818.2 1176.5,654.7 1176.5,646.6 			"/>
		</g>
	</g>
	<path class="st5" d="M1262.8,616.4l15.4-9l15.5,9l-15.4,9L1262.8,616.4z M1298.3,636.9l15.4-9l-15.5-9l-15.4,9L1298.3,636.9z
		 M1318.2,648.4l15.4-9l-15.5-9l-15.4,9L1318.2,648.4z M1338,642l-15.4,9l15.5,9l15.4-9L1338,642z M1358,653.5l-15.4,9l15.5,9
		l15.4-9L1358,653.5z M1377.9,665l-15.4,9l15.5,9l15.4-9L1377.9,665z M1397.8,676.5l-15.4,9l15.5,9l15.4-9L1397.8,676.5z
		 M1417.8,688l-15.4,9l15.5,9l15.4-9L1417.8,688z M1437.7,699.5l-15.4,9l15.5,9l15.4-9L1437.7,699.5z M1457.7,728.9l15.4-9l-15.5-9
		l-15.4,9L1457.7,728.9z M1477.7,740.5l15.4-9l-15.5-9l-15.4,9L1477.7,740.5z M1497.6,752l15.4-9l-15.5-9l-15.4,9L1497.6,752z
		 M1502,754.5l15.5,9l15.4-9l-15.5-9L1502,754.5z M1258.8,636.7l15.4-9l-15.5-9l-15.4,9L1258.8,636.7z M1278.7,648.2l15.4-9l-15.5-9
		l-15.4,9L1278.7,648.2z M1298.7,659.8l15.4-9l-15.5-9l-15.4,9L1298.7,659.8z M1318.5,653.3l-15.4,9l15.5,9l15.4-9L1318.5,653.3z
		 M1338.4,664.8l-15.4,9l15.5,9l15.4-9L1338.4,664.8z M1358.4,676.3l-15.4,9l15.5,9l15.4-9L1358.4,676.3z M1378.3,687.8l-15.4,9
		l15.5,9l15.4-9L1378.3,687.8z M1398.2,699.4l-15.4,9l15.5,9l15.4-9L1398.2,699.4z M1418.2,710.9l-15.4,9l15.5,9l15.4-9
		L1418.2,710.9z M1438.2,740.3l15.4-9l-15.5-9l-15.4,9L1438.2,740.3z M1458.1,751.8l15.4-9l-15.5-9l-15.4,9L1458.1,751.8z
		 M1478,763.3l15.4-9l-15.5-9l-15.4,9L1478,763.3z M1498,774.8l15.4-9l-15.5-9l-15.4,9L1498,774.8z M1239.3,648.1l15.4-9l-15.5-9
		l-15.4,9L1239.3,648.1z M1259.2,659.6l15.4-9l-15.5-9l-15.4,9L1259.2,659.6z M1279.1,671.1l15.4-9l-15.5-9l-15.4,9L1279.1,671.1z
		 M1298.9,664.7l-15.4,9l15.5,9l15.4-9L1298.9,664.7z M1318.9,676.2l-15.4,9l15.5,9l15.4-9L1318.9,676.2z M1338.8,687.7l-15.4,9
		l15.5,9l15.4-9L1338.8,687.7z M1358.7,699.2l-15.4,9l15.5,9l15.4-9L1358.7,699.2z M1378.7,710.7l-15.4,9l15.5,9l15.4-9
		L1378.7,710.7z M1398.6,722.2l-15.4,9l15.5,9l15.4-9L1398.6,722.2z M1418.6,751.7l15.4-9l-15.5-9l-15.4,9L1418.6,751.7z
		 M1438.6,763.2l15.4-9l-15.5-9l-15.4,9L1438.6,763.2z M1458.5,774.7l15.4-9l-15.5-9l-15.4,9L1458.5,774.7z M1478.4,786.2l15.4-9
		l-15.5-9l-15.4,9L1478.4,786.2z M1399.1,763l15.4-9l-135.1-78l-15.4,9L1399.1,763z"/>
	<g>
		<g class="st1">
			<g>
				<g>
					<polygon class="st6" points="1260.6,611.1 1276.1,602.1 1291.6,611.1 1276.2,620.1 					"/>
				</g>
			</g>
			<g>
				<polygon class="st21" points="1291.6,611.1 1291.6,615.2 1276.2,624.1 1276.2,620.1 				"/>
			</g>
			<g>
				<polygon class="st5" points="1276.2,620.1 1276.2,624.1 1260.6,615.2 1260.6,611.1 				"/>
			</g>
		</g>
		<g class="st1">
			<g>
				<g>
					<polygon class="st6" points="1280.6,622.6 1296,613.6 1311.5,622.6 1296.1,631.6 					"/>
				</g>
			</g>
			<g>
				<polygon class="st21" points="1311.5,622.6 1311.5,626.7 1296.1,635.7 1296.1,631.6 				"/>
			</g>
			<g>
				<polygon class="st5" points="1296.1,631.6 1296.1,635.7 1280.5,626.7 1280.6,622.6 				"/>
			</g>
		</g>
		<g class="st1">
			<g>
				<g>
					<polygon class="st6" points="1300.5,634.1 1315.9,625.1 1331.5,634.1 1316,643.1 					"/>
				</g>
			</g>
			<g>
				<polygon class="st21" points="1331.5,634.1 1331.4,638.2 1316,647.2 1316,643.1 				"/>
			</g>
			<g>
				<polygon class="st5" points="1316,643.1 1316,647.2 1300.5,638.2 1300.5,634.1 				"/>
			</g>
		</g>
		<g class="st1">
			<g>
				<g>
					<polygon class="st6" points="1351.4,645.6 1336,654.6 1320.4,645.6 1335.9,636.7 					"/>
				</g>
			</g>
			<g>
				<polygon class="st21" points="1351.4,645.6 1351.4,649.7 1335.9,658.7 1336,654.6 				"/>
			</g>
			<g>
				<polygon class="st5" points="1336,654.6 1335.9,658.7 1320.4,649.7 1320.4,645.6 				"/>
			</g>
		</g>
		<g class="st1">
			<g>
				<g>
					<polygon class="st6" points="1371.3,657.1 1355.9,666.1 1340.4,657.1 1355.8,648.2 					"/>
				</g>
			</g>
			<g>
				<polygon class="st21" points="1371.3,657.1 1371.3,661.2 1355.9,670.2 1355.9,666.1 				"/>
			</g>
			<g>
				<polygon class="st5" points="1355.9,666.1 1355.9,670.2 1340.3,661.2 1340.4,657.1 				"/>
			</g>
		</g>
		<g class="st1">
			<g>
				<g>
					<polygon class="st6" points="1391.2,668.6 1375.8,677.6 1360.3,668.6 1375.7,659.7 					"/>
				</g>
			</g>
			<g>
				<polygon class="st21" points="1391.2,668.6 1391.2,672.7 1375.8,681.7 1375.8,677.6 				"/>
			</g>
			<g>
				<polygon class="st5" points="1375.8,677.6 1375.8,681.7 1360.3,672.7 1360.3,668.6 				"/>
			</g>
		</g>
		<g class="st1">
			<g>
				<g>
					<polygon class="st6" points="1411.2,680.1 1395.7,689.1 1380.2,680.1 1395.6,671.2 					"/>
				</g>
			</g>
			<g>
				<polygon class="st21" points="1411.2,680.1 1411.2,684.2 1395.7,693.2 1395.7,689.1 				"/>
			</g>
			<g>
				<polygon class="st5" points="1395.7,689.1 1395.7,693.2 1380.2,684.2 1380.2,680.1 				"/>
			</g>
		</g>
		<g class="st1">
			<g>
				<g>
					<polygon class="st6" points="1431.1,691.6 1415.7,700.6 1400.1,691.6 1415.6,682.7 					"/>
				</g>
			</g>
			<g>
				<polygon class="st21" points="1431.1,691.6 1431.1,695.7 1415.7,704.7 1415.7,700.6 				"/>
			</g>
			<g>
				<polygon class="st5" points="1415.7,700.6 1415.7,704.7 1400.1,695.7 1400.1,691.6 				"/>
			</g>
		</g>
		<g class="st1">
			<g>
				<g>
					<polygon class="st6" points="1451,703.2 1435.6,712.1 1420.1,703.2 1435.5,694.2 					"/>
				</g>
			</g>
			<g>
				<polygon class="st21" points="1451,703.2 1451,707.2 1435.6,716.2 1435.6,712.1 				"/>
			</g>
			<g>
				<polygon class="st5" points="1435.6,712.1 1435.6,716.2 1420.1,707.2 1420.1,703.2 				"/>
			</g>
		</g>
		<g class="st1">
			<g>
				<g>
					<polygon class="st6" points="1440,714.7 1455.4,705.7 1471,714.7 1455.5,723.6 					"/>
				</g>
			</g>
			<g>
				<polygon class="st21" points="1471,714.7 1471,718.7 1455.5,727.7 1455.5,723.6 				"/>
			</g>
			<g>
				<polygon class="st5" points="1455.5,723.6 1455.5,727.7 1440,718.7 1440,714.7 				"/>
			</g>
		</g>
		<g class="st1">
			<g>
				<g>
					<polygon class="st6" points="1459.9,726.2 1475.4,717.2 1490.9,726.2 1475.5,735.1 					"/>
				</g>
			</g>
			<g>
				<polygon class="st21" points="1490.9,726.2 1490.9,730.2 1475.5,739.2 1475.5,735.1 				"/>
			</g>
			<g>
				<polygon class="st5" points="1475.5,735.1 1475.5,739.2 1459.9,730.2 1459.9,726.2 				"/>
			</g>
		</g>
		<g class="st1">
			<g>
				<g>
					<polygon class="st6" points="1479.9,737.7 1495.3,728.7 1510.8,737.7 1495.4,746.6 					"/>
				</g>
			</g>
			<g>
				<polygon class="st21" points="1510.8,737.7 1510.8,741.8 1495.4,750.7 1495.4,746.6 				"/>
			</g>
			<g>
				<polygon class="st5" points="1495.4,746.6 1495.4,750.7 1479.9,741.8 1479.9,737.7 				"/>
			</g>
		</g>
		<g class="st1">
			<g>
				<g>
					<polygon class="st6" points="1515.2,740.2 1530.8,749.2 1515.3,758.2 1499.8,749.2 					"/>
				</g>
			</g>
			<g>
				<polygon class="st21" points="1530.8,749.2 1530.7,753.3 1515.3,762.2 1515.3,758.2 				"/>
			</g>
			<g>
				<polygon class="st5" points="1515.3,758.2 1515.3,762.2 1499.8,753.3 1499.8,749.2 				"/>
			</g>
		</g>
		<g class="st1">
			<g>
				<g>
					<polygon class="st6" points="1241.1,622.5 1256.5,613.5 1272.1,622.5 1256.6,631.4 					"/>
				</g>
			</g>
			<g>
				<polygon class="st21" points="1272.1,622.5 1272,626.5 1256.6,635.5 1256.6,631.4 				"/>
			</g>
			<g>
				<polygon class="st5" points="1256.6,631.4 1256.6,635.5 1241.1,626.5 1241.1,622.5 				"/>
			</g>
		</g>
		<g class="st1">
			<g>
				<g>
					<polygon class="st6" points="1261,634 1276.5,625 1292,634 1276.6,642.9 					"/>
				</g>
			</g>
			<g>
				<polygon class="st21" points="1292,634 1292,638 1276.5,647 1276.6,642.9 				"/>
			</g>
			<g>
				<polygon class="st5" points="1276.6,642.9 1276.5,647 1261,638 1261,634 				"/>
			</g>
		</g>
		<g class="st1">
			<g>
				<g>
					<polygon class="st6" points="1280.9,645.5 1296.4,636.5 1311.9,645.5 1296.5,654.4 					"/>
				</g>
			</g>
			<g>
				<polygon class="st21" points="1311.9,645.5 1311.9,649.5 1296.5,658.5 1296.5,654.4 				"/>
			</g>
			<g>
				<polygon class="st5" points="1296.5,654.4 1296.5,658.5 1280.9,649.5 1280.9,645.5 				"/>
			</g>
		</g>
		<g class="st1">
			<g>
				<g>
					<polygon class="st6" points="1331.8,657 1316.4,665.9 1300.9,657 1316.3,648 					"/>
				</g>
			</g>
			<g>
				<polygon class="st21" points="1331.8,657 1331.8,661.1 1316.4,670 1316.4,665.9 				"/>
			</g>
			<g>
				<polygon class="st5" points="1316.4,665.9 1316.4,670 1300.9,661.1 1300.9,657 				"/>
			</g>
		</g>
		<g class="st1">
			<g>
				<g>
					<polygon class="st6" points="1351.8,668.5 1336.3,677.5 1320.8,668.5 1336.2,659.5 					"/>
				</g>
			</g>
			<g>
				<polygon class="st21" points="1351.8,668.5 1351.8,672.6 1336.3,681.5 1336.3,677.5 				"/>
			</g>
			<g>
				<polygon class="st5" points="1336.3,677.5 1336.3,681.5 1320.8,672.6 1320.8,668.5 				"/>
			</g>
		</g>
		<g class="st1">
			<g>
				<g>
					<polygon class="st6" points="1371.7,680 1356.3,689 1340.7,680 1356.2,671 					"/>
				</g>
			</g>
			<g>
				<polygon class="st21" points="1371.7,680 1371.7,684.1 1356.3,693 1356.3,689 				"/>
			</g>
			<g>
				<polygon class="st5" points="1356.3,689 1356.3,693 1340.7,684.1 1340.7,680 				"/>
			</g>
		</g>
		<g class="st1">
			<g>
				<g>
					<polygon class="st6" points="1391.6,691.5 1376.2,700.5 1360.7,691.5 1376.1,682.5 					"/>
				</g>
			</g>
			<g>
				<polygon class="st21" points="1391.6,691.5 1391.6,695.6 1376.2,704.5 1376.2,700.5 				"/>
			</g>
			<g>
				<polygon class="st5" points="1376.2,700.5 1376.2,704.5 1360.7,695.6 1360.7,691.5 				"/>
			</g>
		</g>
		<g class="st1">
			<g>
				<g>
					<polygon class="st6" points="1411.6,703 1396.1,712 1380.6,703 1396,694 					"/>
				</g>
			</g>
			<g>
				<polygon class="st21" points="1411.6,703 1411.6,707.1 1396.1,716.1 1396.1,712 				"/>
			</g>
			<g>
				<polygon class="st5" points="1396.1,712 1396.1,716.1 1380.6,707.1 1380.6,703 				"/>
			</g>
		</g>
		<g class="st1">
			<g>
				<g>
					<polygon class="st6" points="1431.5,714.5 1416.1,723.5 1400.5,714.5 1416,705.5 					"/>
				</g>
			</g>
			<g>
				<polygon class="st21" points="1431.5,714.5 1431.5,718.6 1416.1,727.6 1416.1,723.5 				"/>
			</g>
			<g>
				<polygon class="st5" points="1416.1,723.5 1416.1,727.6 1400.5,718.6 1400.5,714.5 				"/>
			</g>
		</g>
		<g class="st1">
			<g>
				<g>
					<polygon class="st6" points="1420.5,726 1435.9,717.1 1451.4,726 1436,735 					"/>
				</g>
			</g>
			<g>
				<polygon class="st21" points="1451.4,726 1451.4,730.1 1436,739.1 1436,735 				"/>
			</g>
			<g>
				<polygon class="st5" points="1436,735 1436,739.1 1420.5,730.1 1420.5,726 				"/>
			</g>
		</g>
		<g class="st1">
			<g>
				<g>
					<polygon class="st6" points="1440.4,737.5 1455.8,728.6 1471.4,737.5 1455.9,746.5 					"/>
				</g>
			</g>
			<g>
				<polygon class="st21" points="1471.4,737.5 1471.3,741.6 1455.9,750.6 1455.9,746.5 				"/>
			</g>
			<g>
				<polygon class="st5" points="1455.9,746.5 1455.9,750.6 1440.4,741.6 1440.4,737.5 				"/>
			</g>
		</g>
		<g class="st1">
			<g>
				<g>
					<polygon class="st6" points="1460.3,749 1475.8,740.1 1491.3,749 1475.9,758 					"/>
				</g>
			</g>
			<g>
				<polygon class="st21" points="1491.3,749 1491.3,753.1 1475.8,762.1 1475.9,758 				"/>
			</g>
			<g>
				<polygon class="st5" points="1475.9,758 1475.8,762.1 1460.3,753.1 1460.3,749 				"/>
			</g>
		</g>
		<g class="st1">
			<g>
				<g>
					<polygon class="st6" points="1480.2,760.5 1495.7,751.6 1511.2,760.5 1495.8,769.5 					"/>
				</g>
			</g>
			<g>
				<polygon class="st21" points="1511.2,760.5 1511.2,764.6 1495.8,773.6 1495.8,769.5 				"/>
			</g>
			<g>
				<polygon class="st5" points="1495.8,769.5 1495.8,773.6 1480.2,764.6 1480.2,760.5 				"/>
			</g>
		</g>
		<g class="st1">
			<g>
				<g>
					<polygon class="st6" points="1221.5,633.8 1237,624.9 1252.5,633.8 1237.1,642.8 					"/>
				</g>
			</g>
			<g>
				<polygon class="st21" points="1252.5,633.8 1252.5,637.9 1237.1,646.9 1237.1,642.8 				"/>
			</g>
			<g>
				<polygon class="st5" points="1237.1,642.8 1237.1,646.9 1221.5,637.9 1221.5,633.8 				"/>
			</g>
		</g>
		<g class="st1">
			<g>
				<g>
					<polygon class="st6" points="1241.5,645.3 1256.9,636.4 1272.4,645.3 1257,654.3 					"/>
				</g>
			</g>
			<g>
				<polygon class="st21" points="1272.4,645.3 1272.4,649.4 1257,658.4 1257,654.3 				"/>
			</g>
			<g>
				<polygon class="st5" points="1257,654.3 1257,658.4 1241.5,649.4 1241.5,645.3 				"/>
			</g>
		</g>
		<g class="st1">
			<g>
				<g>
					<polygon class="st6" points="1261.4,656.8 1276.8,647.9 1292.4,656.8 1276.9,665.8 					"/>
				</g>
			</g>
			<g>
				<polygon class="st21" points="1292.4,656.8 1292.4,660.9 1276.9,669.9 1276.9,665.8 				"/>
			</g>
			<g>
				<polygon class="st5" points="1276.9,665.8 1276.9,669.9 1261.4,660.9 1261.4,656.8 				"/>
			</g>
		</g>
		<g class="st1">
			<g>
				<g>
					<polygon class="st6" points="1312.3,668.3 1296.9,677.3 1281.3,668.3 1296.8,659.4 					"/>
				</g>
			</g>
			<g>
				<polygon class="st21" points="1312.3,668.3 1312.3,672.4 1296.9,681.4 1296.9,677.3 				"/>
			</g>
			<g>
				<polygon class="st5" points="1296.9,677.3 1296.9,681.4 1281.3,672.4 1281.3,668.3 				"/>
			</g>
		</g>
		<g class="st1">
			<g>
				<g>
					<polygon class="st6" points="1332.2,679.9 1316.8,688.8 1301.3,679.9 1316.7,670.9 					"/>
				</g>
			</g>
			<g>
				<polygon class="st21" points="1332.2,679.9 1332.2,683.9 1316.8,692.9 1316.8,688.8 				"/>
			</g>
			<g>
				<polygon class="st5" points="1316.8,688.8 1316.8,692.9 1301.2,683.9 1301.3,679.9 				"/>
			</g>
		</g>
		<g class="st1">
			<g>
				<g>
					<polygon class="st6" points="1352.2,691.4 1336.7,700.3 1321.2,691.4 1336.6,682.4 					"/>
				</g>
			</g>
			<g>
				<polygon class="st21" points="1352.2,691.4 1352.1,695.4 1336.7,704.4 1336.7,700.3 				"/>
			</g>
			<g>
				<polygon class="st5" points="1336.7,700.3 1336.7,704.4 1321.2,695.4 1321.2,691.4 				"/>
			</g>
		</g>
		<g class="st1">
			<g>
				<g>
					<polygon class="st6" points="1372.1,702.9 1356.7,711.8 1341.1,702.9 1356.6,693.9 					"/>
				</g>
			</g>
			<g>
				<polygon class="st21" points="1372.1,702.9 1372.1,706.9 1356.6,715.9 1356.7,711.8 				"/>
			</g>
			<g>
				<polygon class="st5" points="1356.7,711.8 1356.6,715.9 1341.1,706.9 1341.1,702.9 				"/>
			</g>
		</g>
		<g class="st1">
			<g>
				<g>
					<polygon class="st6" points="1392,714.4 1376.6,723.3 1361,714.4 1376.5,705.4 					"/>
				</g>
			</g>
			<g>
				<polygon class="st21" points="1392,714.4 1392,718.4 1376.6,727.4 1376.6,723.3 				"/>
			</g>
			<g>
				<polygon class="st5" points="1376.6,723.3 1376.6,727.4 1361,718.4 1361,714.4 				"/>
			</g>
		</g>
		<g class="st1">
			<g>
				<g>
					<polygon class="st6" points="1411.9,725.9 1396.5,734.8 1381,725.9 1396.4,716.9 					"/>
				</g>
			</g>
			<g>
				<polygon class="st21" points="1411.9,725.9 1411.9,730 1396.5,738.9 1396.5,734.8 				"/>
			</g>
			<g>
				<polygon class="st5" points="1396.5,734.8 1396.5,738.9 1381,730 1381,725.9 				"/>
			</g>
		</g>
		<g class="st1">
			<g>
				<g>
					<polygon class="st6" points="1400.9,737.4 1416.3,728.4 1431.9,737.4 1416.4,746.4 					"/>
				</g>
			</g>
			<g>
				<polygon class="st21" points="1431.9,737.4 1431.9,741.5 1416.4,750.4 1416.4,746.4 				"/>
			</g>
			<g>
				<polygon class="st5" points="1416.4,746.4 1416.4,750.4 1400.9,741.5 1400.9,737.4 				"/>
			</g>
		</g>
		<g class="st1">
			<g>
				<g>
					<polygon class="st6" points="1420.8,748.9 1436.3,739.9 1451.8,748.9 1436.4,757.9 					"/>
				</g>
			</g>
			<g>
				<polygon class="st21" points="1451.8,748.9 1451.8,753 1436.4,761.9 1436.4,757.9 				"/>
			</g>
			<g>
				<polygon class="st5" points="1436.4,757.9 1436.4,761.9 1420.8,753 1420.8,748.9 				"/>
			</g>
		</g>
		<g class="st1">
			<g>
				<g>
					<polygon class="st6" points="1440.8,760.4 1456.2,751.4 1471.7,760.4 1456.3,769.4 					"/>
				</g>
			</g>
			<g>
				<polygon class="st21" points="1471.7,760.4 1471.7,764.5 1456.3,773.4 1456.3,769.4 				"/>
			</g>
			<g>
				<polygon class="st5" points="1456.3,769.4 1456.3,773.4 1440.8,764.5 1440.8,760.4 				"/>
			</g>
		</g>
		<g class="st1">
			<g>
				<g>
					<polygon class="st6" points="1460.7,771.9 1476.1,762.9 1491.7,771.9 1476.2,780.9 					"/>
				</g>
			</g>
			<g>
				<polygon class="st21" points="1491.7,771.9 1491.7,776 1476.2,784.9 1476.2,780.9 				"/>
			</g>
			<g>
				<polygon class="st5" points="1476.2,780.9 1476.2,784.9 1460.7,776 1460.7,771.9 				"/>
			</g>
		</g>
		<g class="st1">
			<g>
				<g>
					<polygon class="st6" points="1261.8,679.7 1277.2,670.7 1412.3,748.7 1396.9,757.7 					"/>
				</g>
			</g>
			<g>
				<polygon class="st21" points="1412.3,748.7 1412.3,752.8 1396.9,761.8 1396.9,757.7 				"/>
			</g>
			<g>
				<polygon class="st5" points="1396.9,757.7 1396.9,761.8 1261.8,683.8 1261.8,679.7 				"/>
			</g>
		</g>
	</g>
	<g>
		<g>
			<polygon class="st23" points="1351.9,485.8 1352.1,540.7 1319.6,559.4 1319.5,504.5 			"/>
		</g>
		<g>
			<polygon class="st23" points="1383.9,504.4 1384,541.7 1351.5,560.5 1351.4,523.2 			"/>
		</g>
		<g>
			<g class="st1">
				<g>
					<polygon class="st23" points="1398.7,512.9 1398.8,567.8 1366.4,586.5 1366.2,531.6 					"/>
				</g>
				<polygon class="st24" points="1398.7,512.9 1382.5,503.5 1382.4,503.6 1351.8,485.8 1351.9,485.8 1335.8,476.4 1303.3,495.1 
					1319.3,504.4 1319.2,504.4 1351.4,523.2 1351.6,523.1 1366.2,531.6 				"/>
			</g>
		</g>
		<g>
			<g class="st1">
				<g>
					<polygon class="st23" points="1430.7,512.8 1430.8,550.1 1398.3,568.9 1398.2,531.6 					"/>
				</g>
				<g>
					<polygon class="st24" points="1398.2,531.6 1366,512.8 1398.4,494.1 1430.7,512.8 					"/>
				</g>
			</g>
		</g>
		<g>
			<g class="st1">
				<g>
					<polygon class="st23" points="1437.2,534.6 1437.2,553.4 1404.5,572.4 1404.4,553.5 					"/>
				</g>
				<polygon class="st25" points="1398.3,568.8 1404.5,572.4 1404.4,553.5 1398.3,550 1398.2,531.6 1366,512.8 1366,531.5 
					1350.1,522.3 1350.1,522.4 1319.5,504.6 1319.5,504.5 1303.3,495.1 1303.5,550 1319.6,559.4 1319.6,541.9 1350.2,559.7 
					1350.2,577.1 1366.4,586.5 1366.3,550.2 1398.3,568.9 				"/>
				<g>
					<polygon class="st24" points="1404.4,553.5 1398,549.8 1430.7,530.9 1437.2,534.6 					"/>
				</g>
			</g>
		</g>
		<g>
			<g class="st1">
				<g>
					<polygon class="st26" points="1415.4,501.4 1408.9,497.6 1408.9,488.8 1415.3,492.6 					"/>
				</g>
				<g>
					<polygon class="st27" points="1415.3,492.6 1408.9,488.8 1415.4,485.1 1421.8,488.8 					"/>
				</g>
				<g>
					<polygon class="st27" points="1389.4,516.4 1382.9,512.6 1408.9,497.6 1415.4,501.4 					"/>
				</g>
				<g>
					<polygon class="st26" points="1382.9,527.6 1376.5,523.8 1376.5,516.4 1382.9,520.1 					"/>
				</g>
				<g>
					<polygon class="st27" points="1382.9,511.3 1376.4,507.5 1382.9,503.8 1389.4,507.5 					"/>
				</g>
				<g>
					<polygon class="st26" points="1382.9,520.1 1376.5,516.4 1376.4,507.5 1382.9,511.3 					"/>
				</g>
				<g>
					<polygon class="st28" points="1421.8,488.8 1421.8,497.6 1421.9,505 1382.9,527.6 1382.9,520.1 1382.9,511.3 1389.4,507.5 
						1389.4,516.4 1415.4,501.4 1415.3,492.6 					"/>
				</g>
			</g>
		</g>
		<g>
			<path class="st24" d="M1381,529.5C1381,529.5,1381,529.5,1381,529.5L1381,529.5L1381,529.5l-3.2-1.9c0,0,0,0,0,0
				c-0.1,0-0.2-0.1-0.3-0.1c0,0,0,0-0.1,0c0,0-0.1,0-0.1,0c0,0-0.1,0-0.1,0c-0.1,0-0.1,0-0.2,0c0,0-0.1,0-0.1,0c0,0,0,0-0.1,0
				c-0.1,0-0.2,0-0.3,0c0,0,0,0,0,0c0,0-0.1,0-0.1,0c-0.1,0-0.2,0-0.3,0c0,0-0.1,0-0.1,0c-0.1,0-0.1,0-0.2,0c-0.1,0-0.1,0-0.2,0
				c0,0-0.1,0-0.1,0c-0.1,0-0.1,0-0.2,0c0,0-0.1,0-0.1,0c0,0-0.1,0-0.1,0c-0.1,0-0.3,0.1-0.4,0.1c0,0-0.1,0-0.1,0c0,0-0.1,0-0.1,0.1
				c0,0-0.1,0-0.1,0.1c-0.2,0.1-0.3,0.2-0.5,0.3c-0.2,0.1-0.3,0.2-0.5,0.3c-0.1,0-0.1,0.1-0.2,0.1c-0.1,0.1-0.2,0.2-0.3,0.3
				c-0.1,0-0.1,0.1-0.2,0.2c-0.1,0.1-0.2,0.2-0.3,0.3c-0.1,0.1-0.1,0.1-0.2,0.2c0,0-0.1,0.1-0.1,0.1c0,0-0.1,0.1-0.1,0.1
				c-0.1,0.1-0.2,0.3-0.4,0.4c0,0-0.1,0.1-0.1,0.1c0,0-0.1,0.1-0.1,0.1c-0.1,0.1-0.1,0.2-0.2,0.3c0,0.1-0.1,0.1-0.1,0.2
				c0,0-0.1,0.1-0.1,0.1c-0.1,0.1-0.1,0.1-0.1,0.2c0,0-0.1,0.1-0.1,0.1c-0.1,0.1-0.1,0.2-0.2,0.2c0,0.1-0.1,0.1-0.1,0.2
				c0,0,0,0,0,0.1c-0.1,0.2-0.2,0.3-0.3,0.5c0,0,0,0,0,0c0,0,0,0.1-0.1,0.1c-0.1,0.1-0.1,0.2-0.2,0.3c0,0.1-0.1,0.1-0.1,0.2
				c0,0.1-0.1,0.1-0.1,0.2c0,0,0,0.1-0.1,0.1c-0.1,0.1-0.1,0.3-0.2,0.4c0,0,0,0,0,0.1c0,0,0,0,0,0c-0.1,0.2-0.1,0.3-0.2,0.5
				c0,0,0,0.1,0,0.1c0,0.1,0,0.1-0.1,0.2c0,0.1-0.1,0.2-0.1,0.2c0,0.1,0,0.1-0.1,0.2c0,0.1,0,0.1-0.1,0.2c0,0,0,0.1,0,0.1
				c0,0.1,0,0.2-0.1,0.2c0,0.1,0,0.2-0.1,0.3c0,0,0,0.1,0,0.1c0,0.1,0,0.1,0,0.2c0,0.1-0.1,0.3-0.1,0.4c0,0,0,0.1,0,0.1
				c0,0.1,0,0.2,0,0.3c0,0.1,0,0.1,0,0.2c0,0.2,0,0.4,0,0.6l3.2,1.9l10.8-6.2C1382.6,531.2,1382,530,1381,529.5z M1377.8,529.6
				c0,0,0.1,0,0.1,0C1377.9,529.5,1377.8,529.5,1377.8,529.6C1377.8,529.6,1377.8,529.6,1377.8,529.6z M1378.5,529.3
				C1378.5,529.3,1378.5,529.3,1378.5,529.3C1378.5,529.3,1378.5,529.3,1378.5,529.3C1378.5,529.3,1378.5,529.3,1378.5,529.3z
				 M1378.9,529.2C1378.9,529.2,1379,529.2,1378.9,529.2C1379,529.2,1378.9,529.2,1378.9,529.2L1378.9,529.2z M1379.4,529.1
				c0,0,0.1,0,0.1,0C1379.5,529.1,1379.4,529.1,1379.4,529.1C1379.4,529.1,1379.4,529.1,1379.4,529.1z M1379.8,529.1
				c0.1,0,0.1,0,0.2,0C1379.9,529.1,1379.8,529.1,1379.8,529.1C1379.8,529.1,1379.8,529.1,1379.8,529.1z M1380.3,529.2
				c0,0,0.1,0,0.1,0C1380.4,529.2,1380.3,529.2,1380.3,529.2C1380.3,529.2,1380.3,529.2,1380.3,529.2z M1380.7,529.3
				c0,0,0.1,0,0.1,0.1C1380.8,529.4,1380.7,529.3,1380.7,529.3C1380.7,529.3,1380.7,529.3,1380.7,529.3z"/>
			<g>
				<path class="st23" d="M1377.2,529.9c3-1.7,5.4-0.3,5.4,3.1l-10.8,6.2C1371.8,535.8,1374.2,531.6,1377.2,529.9z"/>
			</g>
		</g>
	</g>
	<g class="st1">
		<g>
			<polygon class="st22" points="1601.1,606.7 1495.6,668 1389.4,606.7 1494.9,545.4 			"/>
		</g>
		<g>
			<polygon class="st21" points="1601.1,606.7 1601,627 1495.5,688.3 1495.6,668 			"/>
		</g>
		<g>
			<polygon class="st5" points="1495.6,668 1495.5,688.3 1389.3,627 1389.4,606.7 			"/>
		</g>
	</g>
	<polygon class="st21" points="1601.1,606.7 1573.6,622.4 1467.4,561.1 1494.9,545.4 	"/>
	<g class="st1">
		<g>
			<polygon class="st5" points="1583.8,494.8 1583.5,616.8 1477.3,555.5 1477.6,433.5 			"/>
		</g>
		<g>
			<polygon class="st21" points="1583.8,494.8 1601.4,484.6 1601.1,606.6 1583.5,616.8 			"/>
		</g>
		<g>
			<polygon class="st29" points="1477.6,433.5 1495.2,423.3 1601.4,484.6 1583.8,494.8 			"/>
		</g>
	</g>
	<polygon class="st21" points="1583.8,494.8 1583.5,570 1477.3,508.6 1477.6,433.5 	"/>
	<polygon class="st2" points="1583.8,447.9 1601.4,437.7 1601.1,559.7 1583.5,570 	"/>
	<polygon class="st5" points="1745.7,329.7 1744.8,652.2 1273.2,380 1274.1,57.4 	"/>
	<polygon class="st21" points="1745.7,329.7 1772,314.3 1771.1,636.9 1744.8,652.2 	"/>
	<polygon class="st22" points="1274.1,57.4 1300.5,42.1 1772,314.3 1745.7,329.7 	"/>
	<polygon class="st30" points="1298.3,365.6 1299,100.7 1720.6,344.1 1719.9,609 	"/>
	<g>
		<g>
			<polygon class="st6" points="1553.9,305.5 1553.9,460 1439.7,394.3 1439.7,239.8 			"/>
		</g>
	</g>
	<g>
		<polygon class="st22" points="1537.5,362.5 1537.4,379.1 1453.7,330.8 1453.8,314.2 		"/>
	</g>
	<g>
		<polygon class="st22" points="1537.5,385.5 1537.4,402.1 1453.7,353.8 1453.8,337.2 		"/>
	</g>
	<g>
		<polygon class="st22" points="1503.3,402.5 1503.3,408 1476.6,392.6 1476.6,387 		"/>
	</g>
	<g>
		<g>
			<polygon class="st0" points="1537.5,415.6 1537.4,432.2 1509.5,416.1 1509.6,399.5 			"/>
		</g>
	</g>
	<g>
		<g>
			<polygon class="st0" points="1553.9,292.5 1553.9,332.1 1439.7,266.4 1439.7,226.8 			"/>
		</g>
	</g>
	<g>
		<path class="st22" d="M1501,282.8c11.2,6.5,20.2,22.1,20.2,35c0,12.9-9.1,18.1-20.3,11.6c-11.2-6.5-20.3-22.2-20.2-35
			C1480.7,281.5,1489.8,276.4,1501,282.8z"/>
	</g>
</g>
<g>
	<path class="st31" d="M2498.7,498.2c0-0.2,0-0.5,0-0.7c0-0.2,0-0.4,0-0.5c0-0.1,0-0.2,0-0.3c0-2.8,0-5.6,0-8.5l0-6.7
		c0-2.7,0-5.4,0-8.1l0-6.6c0-0.1,0-0.2,0-0.3l0-11.2c0-0.6,0-1.3,0-1.9l-0.1-27c0-0.2,0-0.4,0-0.6l-0.1-38.7c0-0.3,0-0.6,0-0.9
		l0-14.3c0-7.1-4.5-14.1-13.6-19.6c-0.6-0.4-1.2-0.7-1.8-1.1c-0.2-0.1-0.4-0.2-0.6-0.3c-0.4-0.2-0.8-0.4-1.3-0.7
		c-0.3-0.1-0.5-0.2-0.8-0.4c-0.4-0.2-0.8-0.4-1.2-0.5c-0.3-0.1-0.6-0.2-0.9-0.4c-0.4-0.2-0.8-0.3-1.2-0.5c-0.1,0-0.1-0.1-0.2-0.1
		c-0.1-0.1-0.3-0.1-0.4-0.2c-0.7-0.3-1.4-0.5-2.1-0.7c-0.2-0.1-0.5-0.2-0.7-0.2c-0.9-0.3-1.8-0.6-2.7-0.8c0,0,0,0,0,0
		c-0.1,0-0.3-0.1-0.4-0.1c-0.6-0.2-1.3-0.3-1.9-0.5c-0.3-0.1-0.6-0.1-0.8-0.2c-0.5-0.1-1.1-0.2-1.6-0.4c-0.1,0-0.3-0.1-0.4-0.1
		c-0.2,0-0.4-0.1-0.6-0.1c-0.4-0.1-0.9-0.2-1.3-0.2c-0.4-0.1-0.7-0.1-1.1-0.2c-0.4-0.1-0.9-0.1-1.3-0.2c-0.2,0-0.4-0.1-0.6-0.1
		c-0.2,0-0.4,0-0.5-0.1c-0.4-0.1-0.8-0.1-1.2-0.1c-0.4,0-0.8-0.1-1.1-0.1c-0.4,0-0.8-0.1-1.2-0.1c-0.2,0-0.4,0-0.6-0.1
		c-0.2,0-0.3,0-0.5,0c-0.4,0-0.8-0.1-1.2-0.1c-0.4,0-0.8,0-1.1-0.1c-0.4,0-0.8,0-1.2,0c-0.2,0-0.5,0-0.7,0c-0.1,0-0.3,0-0.4,0
		c-0.4,0-0.9,0-1.3,0c-0.4,0-0.7,0-1.1,0c-0.4,0-0.9,0-1.3,0c-0.3,0-0.5,0-0.8,0c-0.1,0-0.2,0-0.3,0c-0.6,0-1.2,0.1-1.8,0.1
		c-0.3,0-0.5,0-0.8,0c-0.8,0.1-1.7,0.1-2.5,0.2c0,0,0,0,0,0c0,0-0.1,0-0.1,0c-0.9,0.1-1.8,0.2-2.6,0.3c-0.3,0-0.6,0.1-0.8,0.1
		c-0.7,0.1-1.4,0.2-2,0.3c-0.2,0-0.3,0.1-0.5,0.1c-0.1,0-0.2,0-0.3,0.1c-0.4,0.1-0.7,0.1-1.1,0.2c-0.4,0.1-0.8,0.2-1.1,0.2
		c-0.4,0.1-0.7,0.2-1.1,0.2c-0.4,0.1-0.8,0.2-1.1,0.3c-0.4,0.1-0.7,0.2-1.1,0.3c-0.4,0.1-0.7,0.2-1.1,0.3c-0.4,0.1-0.7,0.2-1,0.3
		c-0.2,0.1-0.5,0.1-0.7,0.2c-0.1,0-0.2,0.1-0.3,0.1c-0.8,0.3-1.6,0.5-2.4,0.8c0,0-0.1,0-0.1,0c-0.8,0.3-1.6,0.6-2.4,1
		c-0.2,0.1-0.5,0.2-0.7,0.3c-0.6,0.3-1.2,0.5-1.8,0.8c-0.2,0.1-0.5,0.2-0.7,0.3c-0.8,0.4-1.5,0.8-2.3,1.2c-0.7,0.4-1.4,0.8-2.1,1.3
		c-0.1,0-0.1,0.1-0.2,0.1c-0.2,0.1-0.4,0.3-0.7,0.4c-0.2,0.2-0.5,0.3-0.7,0.5c-0.3,0.2-0.6,0.4-0.9,0.7c-0.2,0.2-0.4,0.3-0.6,0.5
		c-0.3,0.2-0.6,0.5-0.9,0.7c-0.2,0.1-0.3,0.3-0.5,0.4c-0.4,0.3-0.7,0.6-1,0.9c-0.1,0.1-0.2,0.2-0.3,0.2c0,0,0,0,0,0
		c0,0-0.1,0.1-0.1,0.1c-0.5,0.4-0.9,0.9-1.3,1.4c-0.1,0.2-0.3,0.3-0.4,0.5c-0.3,0.3-0.6,0.7-0.9,1.1c-0.1,0.1-0.2,0.2-0.2,0.3
		c-0.1,0.1-0.1,0.2-0.2,0.3c-0.2,0.3-0.4,0.5-0.6,0.8c-0.1,0.2-0.3,0.4-0.4,0.6c-0.2,0.3-0.3,0.5-0.5,0.8c-0.1,0.1-0.2,0.3-0.3,0.4
		c0,0.1-0.1,0.1-0.1,0.2c-0.1,0.2-0.2,0.5-0.4,0.7c-0.1,0.2-0.2,0.4-0.3,0.7c-0.1,0.2-0.2,0.5-0.3,0.7c-0.1,0.2-0.1,0.3-0.2,0.5
		c0,0,0,0.1,0,0.1c-0.1,0.2-0.1,0.5-0.2,0.7c-0.1,0.2-0.1,0.5-0.2,0.7c-0.1,0.2-0.1,0.5-0.2,0.7c0,0.2-0.1,0.4-0.1,0.5
		c0,0.1,0,0.1,0,0.2c0,0.2-0.1,0.5-0.1,0.7c0,0.2-0.1,0.5-0.1,0.7c0,0.2,0,0.5,0,0.7c0,0.2,0,0.4,0,0.5c0,0.1,0,0.2,0,0.3l0.4,124.7
		c0,7.1,4.5,14.1,13.6,19.6c0.6,0.4,1.2,0.7,1.8,1.1c0.2,0.1,0.4,0.2,0.6,0.3c0.4,0.2,0.8,0.4,1.3,0.7c0.3,0.1,0.5,0.2,0.8,0.4
		c0.4,0.2,0.8,0.4,1.2,0.5c0.3,0.1,0.6,0.2,0.9,0.4c0.4,0.2,0.8,0.3,1.2,0.5c0.1,0,0.1,0.1,0.2,0.1c0.1,0.1,0.3,0.1,0.4,0.2
		c0.7,0.3,1.4,0.5,2.1,0.7c0.2,0.1,0.5,0.2,0.7,0.2c0.9,0.3,1.8,0.6,2.7,0.8c0,0,0,0,0,0c0.1,0,0.3,0.1,0.4,0.1
		c0.6,0.2,1.3,0.3,1.9,0.5c0.3,0.1,0.6,0.1,0.8,0.2c0.5,0.1,1.1,0.2,1.6,0.4c0.1,0,0.3,0.1,0.4,0.1c0.2,0,0.4,0.1,0.6,0.1
		c0.4,0.1,0.9,0.2,1.3,0.2c0.4,0.1,0.7,0.1,1.1,0.2c0.4,0.1,0.9,0.1,1.3,0.2c0.2,0,0.4,0.1,0.6,0.1c0.2,0,0.4,0,0.5,0.1
		c0.4,0.1,0.8,0.1,1.2,0.1c0.4,0,0.8,0.1,1.1,0.1c0.4,0,0.8,0.1,1.2,0.1c0.2,0,0.4,0,0.6,0.1c0.2,0,0.3,0,0.5,0
		c0.4,0,0.8,0.1,1.2,0.1c0.4,0,0.8,0,1.1,0.1c0.4,0,0.8,0,1.2,0c0.2,0,0.5,0,0.7,0c0.1,0,0.3,0,0.4,0c0.4,0,0.9,0,1.3,0
		c0.4,0,0.7,0,1.1,0c0.4,0,0.9,0,1.3,0c0.3,0,0.5,0,0.8,0c0.1,0,0.2,0,0.3,0c0.6,0,1.2-0.1,1.8-0.1c0.3,0,0.5,0,0.8,0
		c0.8-0.1,1.7-0.1,2.5-0.2c0,0,0,0,0,0c0,0,0.1,0,0.1,0c0.9-0.1,1.7-0.2,2.6-0.3c0.3,0,0.6-0.1,0.8-0.1c0.7-0.1,1.4-0.2,2-0.3
		c0.2,0,0.3-0.1,0.5-0.1c0.1,0,0.2,0,0.3-0.1c0.4-0.1,0.7-0.1,1.1-0.2c0.4-0.1,0.8-0.2,1.1-0.2c0.4-0.1,0.7-0.2,1.1-0.2
		c0.4-0.1,0.7-0.2,1.1-0.3c0.4-0.1,0.7-0.2,1.1-0.3c0.4-0.1,0.7-0.2,1.1-0.3c0.4-0.1,0.7-0.2,1.1-0.3c0.2-0.1,0.5-0.1,0.7-0.2
		c0.1,0,0.2-0.1,0.3-0.1c0.8-0.3,1.6-0.5,2.4-0.8c0,0,0.1,0,0.1,0c0.8-0.3,1.6-0.6,2.4-1c0.2-0.1,0.5-0.2,0.7-0.3
		c0.6-0.3,1.2-0.5,1.8-0.8c0.2-0.1,0.5-0.2,0.7-0.3c0.8-0.4,1.5-0.8,2.3-1.2c0.7-0.4,1.4-0.8,2.1-1.3c0.1,0,0.1-0.1,0.2-0.1
		c0.2-0.1,0.4-0.3,0.7-0.5c0.2-0.2,0.5-0.3,0.7-0.5c0.3-0.2,0.6-0.4,0.9-0.7c0.2-0.2,0.4-0.3,0.6-0.5c0.3-0.2,0.6-0.5,0.9-0.7
		c0.2-0.1,0.3-0.3,0.5-0.4c0.4-0.3,0.7-0.6,1-0.9c0.1-0.1,0.2-0.2,0.3-0.2c0,0,0,0,0,0c0,0,0.1-0.1,0.1-0.1c0.5-0.4,0.9-0.9,1.3-1.4
		c0.1-0.2,0.3-0.3,0.4-0.5c0.3-0.3,0.6-0.7,0.9-1.1c0.1-0.1,0.2-0.2,0.2-0.3c0.1-0.1,0.1-0.2,0.2-0.3c0.2-0.3,0.4-0.5,0.6-0.8
		c0.1-0.2,0.3-0.4,0.4-0.6c0.2-0.3,0.3-0.5,0.5-0.8c0.1-0.1,0.2-0.3,0.3-0.4c0-0.1,0.1-0.1,0.1-0.2c0.1-0.2,0.2-0.5,0.4-0.7
		c0.1-0.2,0.2-0.4,0.3-0.7c0.1-0.2,0.2-0.5,0.3-0.7c0.1-0.2,0.1-0.3,0.2-0.5c0,0,0-0.1,0-0.1c0.1-0.2,0.1-0.4,0.2-0.7
		c0.1-0.2,0.1-0.5,0.2-0.7c0.1-0.2,0.1-0.5,0.2-0.7c0-0.2,0.1-0.4,0.1-0.5c0-0.1,0-0.1,0-0.2c0-0.2,0.1-0.5,0.1-0.7
		C2498.6,498.6,2498.6,498.4,2498.7,498.2z"/>
	<path class="st32" d="M2498.3,373.5c0.1-0.6,0.1-1.2,0.1-1.8c0,0,0-0.1,0-0.1c0-0.5,0-1-0.1-1.5c0-0.1,0-0.1,0-0.2
		c0-0.1,0-0.2-0.1-0.3c-0.1-0.4-0.1-0.8-0.2-1.2c0-0.1,0-0.2-0.1-0.3c0-0.1,0-0.1-0.1-0.2c0-0.1,0-0.2-0.1-0.2
		c-0.1-0.3-0.2-0.6-0.3-0.9c0-0.1-0.1-0.2-0.1-0.3c0-0.1,0-0.1-0.1-0.2c-0.1-0.3-0.2-0.6-0.4-0.9c0,0,0,0,0,0
		c-0.1-0.3-0.2-0.6-0.4-0.9c0-0.1-0.1-0.1-0.1-0.2c-0.1-0.1-0.1-0.2-0.2-0.3c-0.1-0.3-0.3-0.5-0.4-0.8c-0.1-0.1-0.1-0.2-0.2-0.3
		c0-0.1-0.1-0.1-0.1-0.2c-0.2-0.3-0.3-0.6-0.5-0.8c-1.7-2.5-3.4-5.1-5-7.6c-1.7-2.5-3.4-5.1-5-7.6c0,0,0,0,0,0c0,0,0,0,0,0
		c-1.8-2.7-4.5-5.2-8.1-7.4c-0.6-0.4-1.2-0.7-1.9-1c-0.2-0.1-0.3-0.2-0.5-0.3c-0.6-0.3-1.2-0.6-1.8-0.9c-0.1,0-0.1-0.1-0.2-0.1
		c-0.7-0.3-1.3-0.6-2-0.8c-0.2-0.1-0.4-0.1-0.5-0.2c-0.6-0.2-1.2-0.4-1.9-0.7c-0.1,0-0.2-0.1-0.3-0.1c-0.7-0.2-1.4-0.4-2.2-0.6
		c-0.2-0.1-0.4-0.1-0.6-0.1c-0.6-0.2-1.3-0.3-1.9-0.5c-0.1,0-0.3-0.1-0.4-0.1c-0.8-0.2-1.5-0.3-2.3-0.4c-0.2,0-0.4-0.1-0.6-0.1
		c-0.6-0.1-1.3-0.2-1.9-0.3c-0.2,0-0.3,0-0.5-0.1c-0.8-0.1-1.6-0.2-2.3-0.3c-0.2,0-0.4,0-0.5,0c-0.7-0.1-1.3-0.1-2-0.1
		c-0.2,0-0.4,0-0.5,0c-0.8,0-1.6-0.1-2.4-0.1c-0.2,0-0.3,0-0.5,0c-0.7,0-1.3,0-2,0c-0.2,0-0.4,0-0.6,0c-0.8,0-1.6,0.1-2.4,0.1
		c-0.1,0-0.3,0-0.4,0c-0.7,0.1-1.4,0.1-2,0.2c-0.2,0-0.4,0-0.6,0.1c-0.8,0.1-1.6,0.2-2.3,0.3c-0.1,0-0.2,0-0.3,0.1
		c-0.7,0.1-1.4,0.2-2,0.4c-0.1,0-0.2,0-0.3,0.1l0,0c-4.9,1-9.5,2.7-13.5,4.9c-4.2,2.4-7.3,5.1-9.3,8.1c0,0,0,0,0,0c0,0,0,0,0,0
		c-3.3,5.1-6.7,10.2-10,15.2c-0.3,0.4-0.5,0.8-0.7,1.2c-0.1,0.1-0.1,0.2-0.2,0.3c-0.2,0.3-0.3,0.6-0.5,0.9c0,0.1-0.1,0.2-0.1,0.3
		c-0.2,0.4-0.4,0.8-0.5,1.2c0,0.1-0.1,0.2-0.1,0.2c-0.1,0.3-0.2,0.7-0.3,1c0,0.1-0.1,0.2-0.1,0.4c-0.1,0.3-0.2,0.7-0.3,1
		c0,0.1,0,0.1,0,0.2c-0.1,0.4-0.2,0.8-0.2,1.2c0,0.1,0,0.2,0,0.3c0,0.3-0.1,0.6-0.1,0.9c0,0.1,0,0.2,0,0.3c0,0.4,0,0.8,0,1.2
		c0,0,0,0.1,0,0.1c0,0.4,0,0.7,0.1,1.1c0,0.1,0,0.2,0,0.4c0,0.3,0.1,0.6,0.2,1c0,0.1,0,0.2,0,0.3c0.1,0.4,0.2,0.8,0.3,1.2
		c0,0.1,0.1,0.2,0.1,0.3c0.1,0.3,0.2,0.6,0.3,1c0,0.1,0.1,0.2,0.1,0.3c0.1,0.4,0.3,0.7,0.5,1.1c0,0,0,0.1,0,0.1
		c0.2,0.4,0.4,0.8,0.6,1.2c0.1,0.1,0.1,0.2,0.2,0.3c0.2,0.3,0.3,0.6,0.5,0.9c0.1,0.1,0.1,0.2,0.2,0.3c0.2,0.4,0.5,0.8,0.8,1.1
		c0,0,0,0,0,0c0.1,0.1,0.2,0.2,0.3,0.4c0.1,0.2,0.3,0.3,0.4,0.5c0.1,0.1,0.2,0.3,0.3,0.4c0.1,0.2,0.3,0.3,0.4,0.5
		c0.1,0.1,0.3,0.3,0.4,0.4c0.2,0.2,0.3,0.3,0.5,0.5c0.1,0.1,0.3,0.3,0.4,0.4c0.2,0.2,0.3,0.3,0.5,0.5c0,0,0.1,0.1,0.1,0.1
		c0.1,0,0.1,0.1,0.2,0.1c0.4,0.3,0.8,0.7,1.1,1c0.1,0.1,0.2,0.2,0.3,0.2c0.5,0.4,0.9,0.7,1.4,1.1c0,0,0.1,0.1,0.1,0.1
		c0.1,0.1,0.2,0.1,0.3,0.2c0.3,0.2,0.6,0.5,1,0.7c0.2,0.1,0.3,0.2,0.5,0.3c0.4,0.2,0.7,0.5,1.1,0.7c0.1,0.1,0.2,0.1,0.3,0.2
		c0.1,0,0.1,0.1,0.2,0.1c0.8,0.5,1.6,0.9,2.5,1.4c0.1,0.1,0.2,0.1,0.3,0.2c0.1,0,0.2,0.1,0.3,0.1c0.8,0.4,1.7,0.8,2.5,1.2
		c0,0,0,0,0,0c0.1,0,0.1,0.1,0.2,0.1c0.8,0.3,1.5,0.6,2.3,0.9c0.1,0,0.2,0.1,0.3,0.1c0.1,0,0.3,0.1,0.4,0.1c0.7,0.2,1.3,0.5,2,0.7
		c0.1,0,0.3,0.1,0.4,0.1c0,0,0.1,0,0.1,0c0.8,0.3,1.7,0.5,2.5,0.8c0,0,0.1,0,0.1,0c0.2,0,0.3,0.1,0.5,0.1c0.6,0.2,1.3,0.3,1.9,0.5
		c0.1,0,0.3,0.1,0.4,0.1c0.2,0,0.3,0.1,0.5,0.1c0.6,0.1,1.2,0.3,1.7,0.4c0.2,0,0.4,0.1,0.5,0.1c0.1,0,0.2,0,0.3,0.1
		c0.6,0.1,1.2,0.2,1.8,0.3c0.2,0,0.4,0.1,0.6,0.1c0,0,0.1,0,0.1,0c0.8,0.1,1.5,0.2,2.3,0.3c0,0,0.1,0,0.1,0c0,0,0,0,0,0
		c0.8,0.1,1.6,0.2,2.4,0.3c0,0,0,0,0.1,0c0.6,0.1,1.2,0.1,1.8,0.1c0.1,0,0.3,0,0.4,0c0,0,0,0,0,0c0.7,0,1.4,0.1,2.1,0.1
		c0,0,0.1,0,0.1,0c0.2,0,0.4,0,0.6,0c0.4,0,0.8,0,1.3,0c0.1,0,0.2,0,0.3,0c0.2,0,0.5,0,0.7,0c0.3,0,0.5,0,0.8,0c0.2,0,0.5,0,0.7,0
		c0.2,0,0.4,0,0.7,0c0.1,0,0.3,0,0.4,0c0.5,0,0.9,0,1.4-0.1c0.1,0,0.2,0,0.3,0c0,0,0.1,0,0.1,0c0.6,0,1.2-0.1,1.8-0.1
		c0.1,0,0.2,0,0.3,0c0.2,0,0.4,0,0.6,0c0.3,0,0.6,0,0.9-0.1c0.2,0,0.4,0,0.6-0.1c0.3,0,0.5-0.1,0.8-0.1c0.2,0,0.4,0,0.6-0.1
		c0.2,0,0.5-0.1,0.7-0.1c0.4,0,0.7-0.1,1.1-0.1c0.2,0,0.3,0,0.5-0.1c0.2,0,0.3-0.1,0.5-0.1c0.6-0.1,1.2-0.2,1.8-0.3
		c0.2,0,0.4-0.1,0.5-0.1c0.1,0,0.3-0.1,0.4-0.1c0.4-0.1,0.8-0.1,1.1-0.2c0.4-0.1,0.7-0.2,1.1-0.2c0.4-0.1,0.7-0.2,1.1-0.3
		c0.4-0.1,0.7-0.2,1.1-0.3c0.4-0.1,0.7-0.2,1.1-0.3c0.4-0.1,0.7-0.2,1.1-0.3c0.4-0.1,0.7-0.2,1.1-0.3c0.2-0.1,0.5-0.1,0.7-0.2
		c0.1,0,0.1-0.1,0.2-0.1c1.1-0.3,2.1-0.7,3.1-1.1c0.1,0,0.2-0.1,0.3-0.1c0.1,0,0.2-0.1,0.4-0.2c0.8-0.3,1.7-0.7,2.5-1
		c0.1,0,0.1-0.1,0.2-0.1c0,0,0,0,0.1,0c1-0.4,1.9-0.9,2.8-1.4c0.1-0.1,0.2-0.1,0.3-0.2c0.3-0.1,0.5-0.3,0.7-0.4
		c0.5-0.3,0.9-0.5,1.4-0.8c0.1-0.1,0.3-0.2,0.4-0.3c0.3-0.2,0.6-0.4,0.9-0.6c0,0,0.1,0,0.1-0.1c0.1,0,0.1-0.1,0.2-0.1
		c0.5-0.3,1-0.7,1.4-1c0.1-0.1,0.2-0.2,0.4-0.3c0.5-0.4,1-0.8,1.5-1.1c0,0,0.1,0,0.1-0.1c0.1-0.1,0.1-0.1,0.2-0.2
		c0.4-0.3,0.7-0.6,1-0.9c0.1-0.1,0.2-0.2,0.3-0.3c0.4-0.4,0.8-0.8,1.2-1.2c0,0,0,0,0,0c0,0,0,0,0.1-0.1c0.3-0.3,0.6-0.7,0.9-1
		c0.1-0.1,0.2-0.2,0.3-0.3c0.2-0.2,0.4-0.5,0.6-0.7c0-0.1,0.1-0.1,0.2-0.2c0.1-0.1,0.1-0.1,0.2-0.2c0.1-0.2,0.3-0.4,0.4-0.6
		c0.1-0.1,0.2-0.3,0.3-0.4c0.1-0.2,0.3-0.4,0.4-0.6c0.1-0.1,0.1-0.2,0.2-0.3l0,0c0.4-0.7,0.7-1.3,1-2c0.1-0.1,0.1-0.2,0.1-0.4
		c0,0,0,0,0-0.1c0.2-0.4,0.3-0.8,0.4-1.1c0,0,0,0,0-0.1c0-0.1,0.1-0.2,0.1-0.3c0.2-0.6,0.4-1.3,0.5-1.9c0.1-0.5,0.2-0.9,0.2-1.4
		c0,0,0-0.1,0-0.1C2498.3,373.8,2498.3,373.6,2498.3,373.5z M2485.1,362.4c-0.3,0.4-0.6,0.9-0.9,1.3c-0.1,0.1-0.1,0.2-0.2,0.3
		c-0.4,0.4-0.7,0.9-1.1,1.3c0,0,0,0,0,0c-0.4,0.4-0.8,0.8-1.3,1.2c-0.1,0.1-0.3,0.2-0.4,0.3c-0.4,0.3-0.7,0.6-1.1,0.9
		c-0.1,0.1-0.3,0.2-0.4,0.3c-0.5,0.4-1.1,0.8-1.7,1.2c0,0-0.1,0.1-0.1,0.1c-0.6,0.4-1.3,0.8-1.9,1.2c-0.3,0.2-0.6,0.3-0.8,0.4
		c-0.7,0.4-1.5,0.7-2.2,1.1c-0.1,0-0.1,0.1-0.2,0.1c-0.6,0.3-1.3,0.6-1.9,0.8c-0.2,0.1-0.3,0.1-0.5,0.2c-0.8,0.3-1.6,0.6-2.4,0.8
		c-0.2,0.1-0.5,0.2-0.7,0.2c-0.3,0.1-0.6,0.2-0.8,0.3c-0.3,0.1-0.6,0.2-0.8,0.2c-0.3,0.1-0.6,0.2-0.9,0.2c-0.3,0.1-0.6,0.1-0.9,0.2
		c-0.3,0.1-0.6,0.1-0.9,0.2c-0.3,0.1-0.6,0.1-0.9,0.2c-0.3,0.1-0.6,0.1-0.9,0.2c-0.2,0-0.5,0.1-0.7,0.1c-0.5,0.1-1,0.2-1.4,0.2
		c-0.3,0-0.5,0.1-0.8,0.1c-0.3,0-0.6,0.1-0.9,0.1c-0.3,0-0.6,0.1-1,0.1c-0.2,0-0.4,0-0.6,0.1c-0.4,0-0.8,0.1-1.2,0.1
		c-0.2,0-0.3,0-0.5,0c-0.5,0-1.1,0.1-1.6,0.1c-0.1,0-0.2,0-0.2,0c-0.5,0-0.9,0-1.4,0c-0.2,0-0.3,0-0.5,0c-0.4,0-0.8,0-1.2,0
		c-0.2,0-0.4,0-0.5,0c-0.4,0-0.8,0-1.3,0c-0.2,0-0.3,0-0.5,0c-0.6,0-1.2-0.1-1.7-0.1c-0.1,0-0.2,0-0.4,0c-0.5,0-0.9-0.1-1.4-0.1
		c-0.6-0.1-1.2-0.1-1.9-0.2c0,0-0.1,0-0.1,0c-0.6-0.1-1.2-0.2-1.8-0.3c-0.2,0-0.4-0.1-0.5-0.1c-0.5-0.1-1-0.2-1.4-0.2
		c-0.2,0-0.4-0.1-0.7-0.1c-0.5-0.1-0.9-0.2-1.4-0.3c-0.2-0.1-0.5-0.1-0.7-0.2c-0.5-0.1-1-0.2-1.5-0.4c-0.2,0-0.3-0.1-0.5-0.1
		c-0.7-0.2-1.3-0.4-2-0.6c-0.1,0-0.3-0.1-0.4-0.1c-0.5-0.2-1.1-0.4-1.6-0.6c-0.2-0.1-0.4-0.1-0.6-0.2c-0.6-0.2-1.2-0.5-1.8-0.7
		c-0.1,0-0.1-0.1-0.2-0.1c-0.7-0.3-1.3-0.6-2-0.9c-0.2-0.1-0.3-0.2-0.5-0.2c-0.7-0.3-1.3-0.7-2-1.1c-0.6-0.4-1.2-0.7-1.7-1.1
		c-0.1-0.1-0.2-0.2-0.4-0.3c-0.4-0.3-0.8-0.6-1.2-0.9c-0.1-0.1-0.2-0.2-0.4-0.3c-0.5-0.4-0.9-0.8-1.4-1.2c-0.3-0.3-0.5-0.5-0.8-0.8
		c-0.2-0.2-0.4-0.4-0.6-0.6c-0.3-0.3-0.5-0.6-0.7-0.9c-0.1-0.2-0.3-0.4-0.5-0.6c0,0-0.1-0.1-0.1-0.1c-0.3-0.4-0.5-0.8-0.8-1.2
		c-0.1-0.1-0.1-0.2-0.2-0.4c-0.2-0.4-0.5-0.8-0.7-1.2c0,0,0,0,0-0.1c-0.2-0.4-0.4-0.9-0.5-1.3c0-0.1-0.1-0.2-0.1-0.4
		c-0.1-0.4-0.2-0.8-0.3-1.1c0-0.1,0-0.2-0.1-0.2c-0.1-0.4-0.2-0.9-0.2-1.3c0-0.1,0-0.2,0-0.3c0-0.4,0-0.7,0-1.1c0,0,0-0.1,0-0.1
		c1.3-1,2.8-1.9,4.4-2.8c5.2-2.9,11.3-5,17.8-6.3c0.9-0.2,1.7-0.3,2.6-0.5c0.1,0,0.3-0.1,0.4-0.1c1-0.2,2-0.3,3-0.4
		c0.3,0,0.5-0.1,0.8-0.1c0.9-0.1,1.7-0.2,2.6-0.3c0.2,0,0.4,0,0.5,0c1-0.1,2-0.1,3-0.2c0.2,0,0.5,0,0.7,0c0.9,0,1.7,0,2.6,0
		c0.2,0,0.4,0,0.6,0c1,0,2,0,3,0.1c0.2,0,0.5,0,0.7,0c0.8,0,1.7,0.1,2.5,0.2c0.2,0,0.5,0,0.7,0.1c1,0.1,2,0.2,3,0.3
		c0.2,0,0.4,0.1,0.6,0.1c0.8,0.1,1.7,0.2,2.5,0.4c0.2,0,0.5,0.1,0.7,0.1c1,0.2,1.9,0.4,2.9,0.6c0.2,0,0.3,0.1,0.5,0.1
		c0.8,0.2,1.6,0.4,2.4,0.6c0.2,0.1,0.5,0.1,0.7,0.2c0.9,0.3,1.9,0.5,2.8,0.8c0.1,0,0.2,0.1,0.4,0.1c0.8,0.3,1.6,0.5,2.4,0.8
		c0.2,0.1,0.5,0.2,0.7,0.3c0.9,0.3,1.7,0.7,2.6,1.1c0.1,0,0.1,0.1,0.2,0.1c0.8,0.4,1.6,0.7,2.3,1.1c0.2,0.1,0.4,0.2,0.6,0.3
		c0.8,0.4,1.6,0.9,2.4,1.3c1,0.6,1.9,1.2,2.8,1.9c0,0.1,0,0.2,0,0.3c0,0.4,0,0.7,0,1.1c0,0.2,0,0.3-0.1,0.5c0,0.3-0.1,0.5-0.1,0.8
		c0,0.2-0.1,0.3-0.1,0.5c-0.1,0.4-0.2,0.8-0.3,1.1c-0.1,0.2-0.1,0.4-0.2,0.5c-0.1,0.3-0.2,0.6-0.3,0.8c-0.3,0.8-0.7,1.6-1.2,2.4
		C2485.2,362.3,2485.2,362.3,2485.1,362.4z M2495.7,381.2L2495.7,381.2L2495.7,381.2L2495.7,381.2z"/>
	<path class="st33" d="M2409.1,356c0,0.1,0,0.1,0,0.2c0,0.2,0,0.3,0.1,0.5c0,0.2,0.1,0.4,0.1,0.6c0,0.2,0.1,0.3,0.1,0.5
		c0,0.2,0.1,0.4,0.1,0.6c0,0.2,0.1,0.3,0.1,0.5c0.1,0.2,0.1,0.4,0.2,0.6c0.1,0.2,0.1,0.3,0.2,0.5c0.1,0.2,0.2,0.4,0.2,0.6
		c0.1,0.2,0.1,0.3,0.2,0.5c0.1,0.2,0.2,0.4,0.3,0.6c0.1,0.2,0.2,0.3,0.3,0.5c0.1,0.2,0.2,0.4,0.3,0.6c0.1,0.2,0.2,0.3,0.3,0.5
		c0.1,0.2,0.3,0.4,0.4,0.6c0.1,0.2,0.2,0.3,0.4,0.5c0.1,0.2,0.3,0.4,0.4,0.5c0.1,0.2,0.3,0.3,0.4,0.5c0.2,0.2,0.3,0.4,0.5,0.5
		c0.1,0.2,0.3,0.3,0.4,0.5c0.2,0.2,0.4,0.4,0.6,0.5c0.2,0.1,0.3,0.3,0.5,0.4c0.2,0.2,0.4,0.4,0.6,0.5c0.2,0.1,0.3,0.3,0.5,0.4
		c0.2,0.2,0.5,0.4,0.7,0.6c0.2,0.1,0.3,0.2,0.5,0.4c0.3,0.2,0.6,0.4,0.8,0.6c0.1,0.1,0.3,0.2,0.4,0.3c0.4,0.3,0.9,0.6,1.4,0.9
		c0.5,0.3,1,0.6,1.5,0.9c0.2,0.1,0.3,0.2,0.5,0.3c0.3,0.2,0.7,0.4,1.1,0.5c0.2,0.1,0.4,0.2,0.6,0.3c0.3,0.2,0.7,0.3,1,0.5
		c0.2,0.1,0.5,0.2,0.7,0.3c0.3,0.1,0.6,0.3,1,0.4c0.1,0,0.1,0,0.2,0.1c0.1,0,0.2,0.1,0.3,0.1c0.6,0.2,1.1,0.4,1.7,0.6
		c0.2,0.1,0.4,0.1,0.6,0.2c0.7,0.2,1.5,0.5,2.2,0.7c0,0,0,0,0,0c0.1,0,0.2,0.1,0.3,0.1c0.5,0.1,1.1,0.3,1.6,0.4
		c0.2,0.1,0.5,0.1,0.7,0.2c0.4,0.1,0.9,0.2,1.3,0.3c0.1,0,0.2,0,0.3,0.1c0.2,0,0.4,0.1,0.5,0.1c0.3,0.1,0.7,0.1,1,0.2
		c0.3,0.1,0.6,0.1,0.9,0.1c0.4,0.1,0.7,0.1,1.1,0.2c0.2,0,0.3,0,0.5,0.1c0.1,0,0.3,0,0.5,0.1c0.3,0,0.7,0.1,1,0.1
		c0.3,0,0.6,0.1,0.9,0.1c0.3,0,0.7,0.1,1,0.1c0.2,0,0.3,0,0.5,0c0.1,0,0.3,0,0.4,0c0.3,0,0.7,0,1,0.1c0.3,0,0.6,0,0.9,0
		c0.3,0,0.7,0,1,0c0.2,0,0.4,0,0.6,0c0.1,0,0.2,0,0.4,0c0.4,0,0.7,0,1.1,0c0.3,0,0.6,0,0.9,0c0.4,0,0.7,0,1.1,0c0.2,0,0.4,0,0.6,0
		c0.1,0,0.2,0,0.2,0c0.5,0,1,0,1.4-0.1c0.2,0,0.4,0,0.6,0c0.7,0,1.4-0.1,2.1-0.2c0,0,0,0,0,0c0,0,0.1,0,0.1,0
		c0.7-0.1,1.4-0.2,2.2-0.3c0.2,0,0.5-0.1,0.7-0.1c0.6-0.1,1.1-0.2,1.7-0.3c0.1,0,0.3,0,0.4-0.1c0.1,0,0.2,0,0.3-0.1
		c0.3-0.1,0.6-0.1,0.9-0.2c0.3-0.1,0.6-0.1,0.9-0.2c0.3-0.1,0.6-0.1,0.9-0.2c0.3-0.1,0.6-0.1,0.9-0.2c0.3-0.1,0.6-0.2,0.9-0.2
		c0.3-0.1,0.6-0.2,0.9-0.2c0.3-0.1,0.6-0.2,0.9-0.3c0.2-0.1,0.4-0.1,0.6-0.2c0.1,0,0.2-0.1,0.2-0.1c0.7-0.2,1.3-0.4,2-0.7
		c0,0,0.1,0,0.1,0c0.7-0.2,1.3-0.5,2-0.8c0.2-0.1,0.4-0.2,0.6-0.2c0.5-0.2,1-0.4,1.4-0.7c0.2-0.1,0.4-0.2,0.6-0.3
		c0.6-0.3,1.3-0.6,1.9-1c0.5-0.3,1-0.6,1.5-0.9c0.1-0.1,0.2-0.1,0.3-0.2c0.1,0,0.1-0.1,0.2-0.1c0.2-0.1,0.3-0.2,0.5-0.3
		c0.2-0.1,0.3-0.2,0.5-0.3c0.1,0,0.1-0.1,0.2-0.1c0.2-0.2,0.4-0.3,0.6-0.5c0.2-0.1,0.3-0.2,0.5-0.3c0,0,0.1-0.1,0.1-0.1
		c0.2-0.2,0.4-0.3,0.6-0.5c0.2-0.1,0.3-0.3,0.5-0.4c0,0,0.1-0.1,0.1-0.1c0.2-0.2,0.4-0.3,0.5-0.5c0.2-0.1,0.3-0.3,0.5-0.4
		c0,0,0.1-0.1,0.1-0.1c0,0,0,0,0,0c0,0,0-0.1,0.1-0.1c0.1-0.1,0.2-0.2,0.3-0.3c0.2-0.2,0.4-0.4,0.5-0.6c0.1-0.1,0.2-0.2,0.2-0.3
		c0.1-0.1,0.2-0.2,0.3-0.3c0.1-0.1,0.3-0.3,0.4-0.4c0.1-0.2,0.3-0.3,0.4-0.5c0.1-0.1,0.1-0.2,0.2-0.2c0,0,0-0.1,0.1-0.1
		c0.1-0.1,0.1-0.2,0.2-0.2c0.1-0.2,0.2-0.3,0.3-0.5c0,0,0,0,0-0.1c0.1-0.1,0.2-0.2,0.2-0.3c0-0.1,0.1-0.1,0.1-0.2
		c0.1-0.2,0.2-0.3,0.3-0.5c0.1-0.1,0.2-0.3,0.3-0.4c0,0,0,0,0,0c0,0,0-0.1,0.1-0.1c0.1-0.2,0.2-0.3,0.3-0.5c0.1-0.2,0.2-0.3,0.2-0.5
		c0-0.1,0-0.1,0.1-0.2c0.1-0.2,0.1-0.3,0.2-0.5c0.1-0.2,0.1-0.3,0.2-0.5c0,0,0,0,0-0.1c0,0,0-0.1,0-0.1c0.1-0.2,0.1-0.3,0.1-0.5
		c0-0.2,0.1-0.3,0.1-0.5c0-0.1,0-0.1,0.1-0.2c0-0.2,0.1-0.3,0.1-0.5c0-0.2,0.1-0.3,0.1-0.5c0,0,0-0.1,0-0.1c0,0,0-0.1,0-0.1
		c0-0.1,0-0.3,0.1-0.4c0-0.2,0-0.3,0.1-0.5c0-0.1,0-0.2,0-0.2c0-0.1,0-0.3,0-0.4c0-0.2,0-0.3,0-0.5c0,0,0-0.1,0-0.1
		c0-0.1,0-0.2,0-0.3c0-0.5,0-1,0-1.6l0-1.6c0-5.8-3.7-11.6-11.2-16.1c-0.5-0.3-1-0.6-1.5-0.9c-0.2-0.1-0.4-0.2-0.5-0.3
		c-0.3-0.2-0.7-0.4-1-0.5c-0.2-0.1-0.4-0.2-0.7-0.3c-0.3-0.2-0.6-0.3-1-0.4c-0.2-0.1-0.5-0.2-0.7-0.3c-0.3-0.1-0.6-0.3-1-0.4
		c-0.1,0-0.1,0-0.2-0.1c-0.1,0-0.2-0.1-0.3-0.1c-0.6-0.2-1.1-0.4-1.7-0.6c-0.2-0.1-0.4-0.1-0.6-0.2c-0.7-0.2-1.5-0.5-2.2-0.7
		c0,0,0,0,0,0c-0.1,0-0.2-0.1-0.3-0.1c-0.5-0.1-1.1-0.3-1.6-0.4c-0.2-0.1-0.5-0.1-0.7-0.2c-0.4-0.1-0.9-0.2-1.3-0.3
		c-0.1,0-0.2,0-0.3-0.1c-0.2,0-0.4-0.1-0.5-0.1c-0.4-0.1-0.7-0.1-1.1-0.2c-0.3-0.1-0.6-0.1-0.9-0.1c-0.4-0.1-0.7-0.1-1.1-0.2
		c-0.2,0-0.3,0-0.5-0.1c-0.1,0-0.3,0-0.5-0.1c-0.3,0-0.7-0.1-1-0.1c-0.3,0-0.6-0.1-0.9-0.1c-0.3,0-0.7-0.1-1-0.1c-0.2,0-0.3,0-0.5,0
		c-0.1,0-0.3,0-0.4,0c-0.3,0-0.7,0-1-0.1c-0.3,0-0.6,0-0.9,0c-0.3,0-0.7,0-1,0c-0.2,0-0.4,0-0.6,0c-0.1,0-0.2,0-0.4,0
		c-0.4,0-0.7,0-1.1,0c-0.3,0-0.6,0-0.9,0c-0.4,0-0.7,0-1.1,0c-0.2,0-0.4,0-0.6,0c-0.1,0-0.2,0-0.2,0c-0.5,0-1,0-1.4,0.1
		c-0.2,0-0.4,0-0.6,0c-0.7,0-1.4,0.1-2.1,0.2c0,0,0,0,0,0c0,0-0.1,0-0.1,0c-0.7,0.1-1.4,0.2-2.2,0.3c-0.2,0-0.5,0.1-0.7,0.1
		c-0.6,0.1-1.1,0.2-1.7,0.3c-0.1,0-0.3,0-0.4,0.1c-0.1,0-0.2,0-0.3,0.1c-0.3,0.1-0.6,0.1-0.9,0.2c-0.3,0.1-0.6,0.1-0.9,0.2
		c-0.3,0.1-0.6,0.1-0.9,0.2c-0.3,0.1-0.6,0.1-0.9,0.2c-0.3,0.1-0.6,0.2-0.9,0.2c-0.3,0.1-0.6,0.2-0.9,0.2c-0.3,0.1-0.6,0.2-0.9,0.3
		c-0.2,0.1-0.4,0.1-0.6,0.2c-0.1,0-0.2,0.1-0.2,0.1c-0.7,0.2-1.3,0.4-2,0.7c0,0-0.1,0-0.1,0c-0.7,0.2-1.3,0.5-2,0.8
		c-0.2,0.1-0.4,0.2-0.6,0.2c-0.5,0.2-1,0.4-1.4,0.7c-0.2,0.1-0.4,0.2-0.6,0.3c-0.6,0.3-1.3,0.6-1.9,1c-0.6,0.3-1.2,0.7-1.7,1
		c-0.1,0-0.1,0.1-0.2,0.1c-0.2,0.1-0.4,0.2-0.6,0.4c-0.2,0.1-0.4,0.3-0.6,0.4c-0.3,0.2-0.5,0.4-0.8,0.5c-0.2,0.1-0.3,0.2-0.5,0.4
		c-0.3,0.2-0.5,0.4-0.8,0.6c-0.1,0.1-0.3,0.2-0.4,0.3c-0.3,0.3-0.6,0.5-0.9,0.8c-0.1,0.1-0.1,0.1-0.2,0.2c0,0,0,0,0,0
		c0,0,0,0-0.1,0.1c-0.4,0.4-0.7,0.7-1.1,1.1c-0.1,0.1-0.2,0.3-0.3,0.4c-0.2,0.3-0.5,0.6-0.7,0.9c-0.1,0.1-0.1,0.2-0.2,0.2
		c-0.1,0.1-0.1,0.1-0.2,0.2c-0.2,0.2-0.3,0.4-0.5,0.7c-0.1,0.2-0.2,0.3-0.3,0.5c-0.1,0.2-0.3,0.5-0.4,0.7c-0.1,0.1-0.1,0.2-0.2,0.3
		c0,0,0,0.1-0.1,0.1c-0.1,0.2-0.2,0.4-0.3,0.6c-0.1,0.2-0.2,0.4-0.3,0.5c-0.1,0.2-0.2,0.4-0.2,0.6c-0.1,0.1-0.1,0.3-0.2,0.4
		c0,0,0,0.1,0,0.1c-0.1,0.2-0.1,0.4-0.2,0.6c-0.1,0.2-0.1,0.4-0.2,0.6c0,0.2-0.1,0.4-0.1,0.6c0,0.2-0.1,0.3-0.1,0.4c0,0,0,0.1,0,0.1
		c0,0.2-0.1,0.4-0.1,0.6c0,0.2-0.1,0.4-0.1,0.6c0,0.2,0,0.4,0,0.6c0,0.1,0,0.3,0,0.4c0,0.1,0,0.2,0,0.3l0,2.2L2409.1,356z
		 M2409.2,352.6c0-0.1,0-0.2,0-0.3c0,0,0-0.1,0-0.1C2409.2,352.4,2409.2,352.5,2409.2,352.6z M2409.4,351.5c0-0.1,0-0.2,0.1-0.3
		c0,0,0-0.1,0-0.1C2409.5,351.2,2409.5,351.4,2409.4,351.5z M2409.7,350.4c0-0.1,0.1-0.2,0.1-0.3c0,0,0,0,0-0.1
		C2409.8,350.1,2409.8,350.3,2409.7,350.4z M2410.2,349.2c0-0.1,0.1-0.2,0.1-0.3c0,0,0,0,0,0C2410.3,349,2410.2,349.1,2410.2,349.2z
		 M2410.7,348c0-0.1,0.1-0.1,0.1-0.2c0,0,0,0,0,0C2410.8,347.8,2410.8,347.9,2410.7,348z M2419.7,338.9
		C2419.7,338.9,2419.7,338.9,2419.7,338.9c-0.1,0-0.1,0.1-0.2,0.1C2419.5,339,2419.6,338.9,2419.7,338.9z M2418.4,339.7
		C2418.4,339.7,2418.4,339.7,2418.4,339.7c-0.1,0.1-0.2,0.2-0.3,0.2C2418.2,339.9,2418.3,339.8,2418.4,339.7z M2417.1,340.7
		C2417.1,340.7,2417.2,340.6,2417.1,340.7c-0.1,0.1-0.2,0.2-0.4,0.3C2416.9,340.9,2417,340.8,2417.1,340.7z M2416,341.6
		C2416,341.6,2416,341.6,2416,341.6c-0.1,0.1-0.2,0.2-0.4,0.3C2415.7,341.8,2415.8,341.7,2416,341.6z M2414.8,342.7
		C2414.8,342.6,2414.8,342.6,2414.8,342.7c0.1-0.1,0.1-0.1,0.2-0.2c-0.1,0.1-0.2,0.2-0.3,0.3
		C2414.7,342.8,2414.7,342.7,2414.8,342.7z M2413.7,343.8C2413.7,343.8,2413.7,343.8,2413.7,343.8c0,0-0.1,0.1-0.2,0.2
		C2413.6,343.9,2413.6,343.9,2413.7,343.8z M2412.7,345C2412.7,345,2412.7,345,2412.7,345C2412.7,345,2412.6,345,2412.7,345
		C2412.6,345,2412.6,345,2412.7,345z M2485.8,361.4c-0.1,0.2-0.3,0.4-0.5,0.5c-0.1,0.1-0.2,0.3-0.3,0.4c-0.3,0.4-0.7,0.7-1.1,1.1
		c0,0-0.1,0.1-0.1,0.1c-0.1,0.1-0.1,0.1-0.2,0.2c-0.3,0.3-0.6,0.5-0.9,0.8c-0.1,0.1-0.3,0.2-0.4,0.3c-0.2,0.2-0.5,0.4-0.7,0.6
		c-0.2,0.1-0.3,0.3-0.5,0.4c-0.2,0.2-0.5,0.4-0.7,0.5c-0.2,0.1-0.4,0.3-0.6,0.4c-0.2,0.2-0.5,0.3-0.7,0.5c-0.6,0.4-1.1,0.7-1.7,1
		c-0.6,0.3-1.2,0.7-1.9,1c-0.2,0.1-0.4,0.2-0.6,0.3c-0.5,0.2-1,0.4-1.4,0.7c-0.2,0.1-0.4,0.2-0.6,0.2c-0.7,0.3-1.3,0.5-2,0.8
		c0,0-0.1,0-0.1,0c-0.7,0.2-1.3,0.5-2,0.7c-0.3,0.1-0.6,0.2-0.8,0.3c-0.3,0.1-0.6,0.2-0.9,0.3c-0.3,0.1-0.6,0.2-0.9,0.2
		c-0.3,0.1-0.6,0.2-0.9,0.2c-0.3,0.1-0.6,0.1-0.9,0.2c-0.3,0.1-0.6,0.1-0.9,0.2c-0.3,0.1-0.6,0.1-0.9,0.2c-0.3,0.1-0.6,0.1-0.9,0.2
		c-0.2,0-0.5,0.1-0.7,0.1c-0.6,0.1-1.1,0.2-1.7,0.3c-0.2,0-0.5,0.1-0.7,0.1c-0.7,0.1-1.4,0.2-2.2,0.3c0,0-0.1,0-0.1,0
		c-0.7,0.1-1.4,0.1-2.1,0.2c-0.2,0-0.4,0-0.6,0c-0.5,0-1,0.1-1.4,0.1c-0.3,0-0.6,0-0.9,0c-0.4,0-0.7,0-1.1,0c-0.3,0-0.6,0-0.9,0
		c-0.4,0-0.7,0-1.1,0c-0.3,0-0.6,0-0.9,0c-0.3,0-0.7,0-1,0c-0.3,0-0.6,0-0.9,0c-0.3,0-0.7,0-1-0.1c-0.3,0-0.6,0-0.9-0.1
		c-0.3,0-0.7-0.1-1-0.1c-0.3,0-0.6-0.1-0.9-0.1c-0.3,0-0.7-0.1-1-0.1c-0.3,0-0.6-0.1-0.9-0.1c-0.4-0.1-0.7-0.1-1.1-0.2
		c-0.3,0-0.6-0.1-0.9-0.1c-0.4-0.1-0.7-0.1-1-0.2c-0.3-0.1-0.6-0.1-0.8-0.2c-0.4-0.1-0.9-0.2-1.3-0.3c-0.2-0.1-0.5-0.1-0.7-0.2
		c-0.5-0.1-1.1-0.3-1.6-0.4c-0.1,0-0.2-0.1-0.4-0.1c-0.7-0.2-1.5-0.4-2.2-0.7c-0.2-0.1-0.4-0.1-0.6-0.2c-0.6-0.2-1.1-0.4-1.7-0.6
		c-0.2-0.1-0.3-0.1-0.5-0.2c-0.3-0.1-0.6-0.3-1-0.4c-0.2-0.1-0.5-0.2-0.7-0.3c-0.3-0.1-0.7-0.3-1-0.4c-0.2-0.1-0.4-0.2-0.7-0.3
		c-0.4-0.2-0.7-0.4-1.1-0.5c-0.2-0.1-0.4-0.2-0.5-0.3c-0.5-0.3-1-0.6-1.5-0.9c-3-1.8-5.5-3.9-7.3-6.1c-1.3-2.3-1.9-4.7-1.9-7.2
		c1.3-1,2.8-1.9,4.4-2.8c5.1-2.9,11.1-5,17.4-6.3l3.6-11.6c13.8-2.9,29.8-1.1,40.5,5.4C2487,345.3,2489.9,353.9,2485.8,361.4z"/>
	
		<ellipse transform="matrix(1 -2.834996e-03 2.834996e-03 1 -0.9865 6.9453)" class="st21" cx="2449.3" cy="351.4" rx="40.3" ry="23.4"/>
	<path class="st5" d="M2449.2,370.4c-10.1,0-19.8-2.4-26.7-6.5c-5.9-3.6-9.2-8-9.1-12.5c0.1-4.6,3.8-9.3,10.1-12.9
		c6.9-3.9,16.1-6,25.9-6c10.1,0,19.8,2.4,26.7,6.5c5.9,3.6,9.2,8,9.1,12.5c-0.1,4.6-3.8,9.3-10.1,12.9
		C2468.2,368.3,2459,370.4,2449.2,370.4z"/>
	<g>
		<g class="st1">
			<g>
				<path class="st11" d="M2469.6,339.8c7,4,8,9.9,2.4,13.2c-5.7,3.3-15.9,2.7-22.8-1.3c-7-4-8-9.9-2.4-13.2
					C2452.5,335.2,2462.7,335.8,2469.6,339.8z"/>
			</g>
		</g>
	</g>
	<g>
		<g class="st1">
			<g>
				<path class="st33" d="M2440.9,350.7c0-0.1,0-0.1,0.1-0.2c0-0.1,0-0.2,0.1-0.2c0-0.1,0.1-0.2,0.2-0.4c0,0,0,0,0-0.1
					c0.1-0.1,0.1-0.3,0.2-0.4c0,0,0,0,0-0.1c0.1-0.1,0.2-0.2,0.3-0.3c0,0,0,0,0-0.1c0.1-0.1,0.2-0.2,0.4-0.4c0,0,0,0,0.1-0.1
					c0.1-0.1,0.3-0.2,0.4-0.3c0,0,0,0,0.1,0c0.2-0.1,0.3-0.2,0.5-0.3c0.2-0.1,0.3-0.2,0.5-0.3c0.1,0,0.1-0.1,0.2-0.1
					c0.1-0.1,0.3-0.1,0.4-0.2c0.1,0,0.1,0,0.2-0.1c0.2-0.1,0.4-0.1,0.6-0.2c0.2-0.1,0.5-0.1,0.7-0.2l1.3,0.8l0-1.4l-1.3-0.8
					c-0.2,0.1-0.5,0.1-0.7,0.2c0,0,0,0,0,0c-0.2,0.1-0.4,0.1-0.6,0.2c-0.1,0-0.1,0-0.2,0.1c-0.1,0.1-0.3,0.1-0.4,0.2
					c-0.1,0-0.1,0.1-0.2,0.1c-0.2,0.1-0.4,0.2-0.5,0.3c0,0-0.1,0-0.1,0.1c-0.1,0.1-0.3,0.2-0.4,0.3c0,0,0,0-0.1,0
					c-0.2,0.1-0.3,0.2-0.4,0.3c0,0,0,0-0.1,0.1c0,0-0.1,0-0.1,0.1c-0.1,0.1-0.2,0.2-0.3,0.3c0,0,0,0,0,0.1c-0.1,0.1-0.1,0.1-0.2,0.2
					c0,0-0.1,0.1-0.1,0.1c0,0,0,0,0,0.1c-0.1,0.1-0.1,0.2-0.2,0.3c0,0,0,0.1,0,0.1c0,0,0,0,0,0.1c-0.1,0.1-0.1,0.2-0.1,0.3
					c0,0,0,0,0,0c0,0.1,0,0.2-0.1,0.2c0,0.1,0,0.1,0,0.2c0,0,0,0,0,0c0,0.1,0,0.2,0,0.2c0,0.1,0,0.1,0,0.2c0,0,0,0,0,0.1l0,1.4
					c0-0.1,0-0.2,0-0.2C2440.9,350.9,2440.9,350.8,2440.9,350.7z"/>
				<path class="st33" d="M2454.1,351.2c-0.2,0.1-0.3,0.2-0.5,0.3c-0.1,0-0.1,0-0.2,0.1c-0.1,0.1-0.3,0.1-0.4,0.2
					c-0.1,0-0.1,0-0.2,0.1c-0.1,0-0.2,0.1-0.3,0.1c-0.1,0-0.1,0-0.2,0.1c-0.1,0-0.2,0-0.3,0.1c-0.1,0-0.1,0-0.2,0
					c-0.2,0-0.4,0.1-0.6,0.1c-0.1,0-0.1,0-0.2,0c-0.1,0-0.2,0-0.4,0c-0.1,0-0.2,0-0.2,0c-0.1,0-0.2,0-0.3,0c-0.1,0-0.2,0-0.3,0
					c-0.1,0-0.2,0-0.3,0c-0.1,0-0.2,0-0.3,0c-0.1,0-0.2,0-0.3,0c-0.1,0-0.2,0-0.2,0c-0.1,0-0.2,0-0.3-0.1c-0.1,0-0.2,0-0.2,0
					c-0.1,0-0.2-0.1-0.3-0.1c-0.1,0-0.1,0-0.2-0.1c-0.2-0.1-0.4-0.1-0.6-0.2c-0.1,0-0.2-0.1-0.3-0.1c0,0-0.1,0-0.1-0.1
					c-0.1-0.1-0.3-0.1-0.4-0.2c-1.1-0.6-1.6-1.5-1.6-2.3l0,1.4c0,0.8,0.5,1.6,1.6,2.3c0.1,0.1,0.3,0.1,0.4,0.2c0,0,0.1,0,0.1,0.1
					c0.1,0,0.2,0.1,0.2,0.1c0,0,0,0,0,0c0.2,0.1,0.4,0.1,0.6,0.2c0,0,0,0,0,0v0l0,0v0c0,0,0.1,0,0.1,0c0.1,0,0.2,0.1,0.3,0.1
					c0,0,0.1,0,0.1,0c0,0,0.1,0,0.1,0c0.1,0,0.2,0,0.3,0.1c0,0,0.1,0,0.1,0c0,0,0.1,0,0.1,0c0.1,0,0.2,0,0.3,0c0,0,0.1,0,0.1,0
					c0,0,0.1,0,0.1,0c0.1,0,0.2,0,0.3,0c0,0,0.1,0,0.1,0c0,0,0.1,0,0.1,0c0.1,0,0.2,0,0.3,0c0.1,0,0.1,0,0.2,0c0,0,0.1,0,0.1,0
					c0.1,0,0.2,0,0.4,0c0,0,0.1,0,0.1,0c0,0,0,0,0,0c0.2,0,0.4-0.1,0.6-0.1c0,0,0,0,0,0c0.1,0,0.1,0,0.2,0c0.1,0,0.2,0,0.3-0.1
					c0.1,0,0.1,0,0.2-0.1c0.1,0,0.2-0.1,0.3-0.1c0,0,0,0,0.1,0c0,0,0.1,0,0.1,0c0.1-0.1,0.3-0.1,0.4-0.2c0.1,0,0.1,0,0.2-0.1
					c0.2-0.1,0.4-0.2,0.5-0.3c0,0,0.1,0,0.1,0c0.1,0,0.1-0.1,0.2-0.1c0,0,0.1-0.1,0.1-0.1c0.1-0.1,0.2-0.2,0.3-0.3l1.3,0.8l0-1.4
					l-1.3-0.8c-0.1,0.1-0.2,0.2-0.3,0.3c0,0-0.1,0.1-0.1,0.1C2454.3,351,2454.2,351.1,2454.1,351.2z"/>
				<path class="st33" d="M2460.5,349.7c0,0.1,0,0.1,0,0.2c0,0.1,0,0.1,0,0.2c0,0.1,0,0.1,0,0.2c0,0.1,0,0.1,0,0.2
					c0,0.1,0,0.1,0,0.2c0,0.1,0,0.1,0,0.2c0,0.1,0,0.1-0.1,0.2c0,0.1,0,0.1-0.1,0.2c0,0.1,0,0.1-0.1,0.2c0,0.1,0,0.1-0.1,0.2
					c0,0.1-0.1,0.1-0.1,0.2c0,0-0.1,0.1-0.1,0.1c0,0.1-0.1,0.1-0.1,0.2c0,0-0.1,0.1-0.1,0.1c-0.1,0.1-0.1,0.1-0.2,0.2
					c0,0-0.1,0.1-0.1,0.1c-0.1,0.1-0.2,0.2-0.3,0.4c0,0-0.1,0.1-0.1,0.1c-0.1,0.1-0.2,0.2-0.3,0.3c0,0-0.1,0.1-0.1,0.1
					c-0.1,0.1-0.1,0.1-0.2,0.2c-0.1,0-0.1,0.1-0.2,0.1c-0.1,0.1-0.1,0.1-0.2,0.2c-0.1,0-0.1,0.1-0.2,0.1c-0.1,0-0.1,0.1-0.2,0.1
					c-0.1,0-0.1,0.1-0.2,0.1c-0.1,0-0.1,0.1-0.2,0.1c-0.1,0.1-0.2,0.1-0.3,0.2l-9.5,5.5c-0.3,0.1-0.5,0.3-0.8,0.4
					c-0.1,0-0.2,0.1-0.2,0.1c-0.2,0.1-0.5,0.2-0.7,0.3c-0.1,0-0.1,0-0.2,0.1c-0.3,0.1-0.6,0.2-0.9,0.3c-0.2,0.1-0.5,0.1-0.7,0.2
					c-0.1,0-0.2,0.1-0.4,0.1c-0.3,0.1-0.7,0.2-1.1,0.2c0,0,0,0-0.1,0c0,0,0,0,0,0c-0.3,0.1-0.6,0.1-1,0.1c-0.1,0-0.2,0-0.3,0
					c-0.3,0-0.6,0.1-1,0.1c0,0,0,0,0,0c-0.3,0-0.5,0-0.8,0c-0.2,0-0.4,0-0.6,0c-0.2,0-0.3,0-0.5,0c-0.2,0-0.4,0-0.6,0
					c-0.2,0-0.4,0-0.5,0c-0.2,0-0.4,0-0.6-0.1c-0.2,0-0.4,0-0.5-0.1c-0.2,0-0.4-0.1-0.6-0.1c-0.2,0-0.3-0.1-0.5-0.1
					c-0.2-0.1-0.5-0.1-0.7-0.2c-0.1,0-0.3-0.1-0.4-0.1c-0.1,0-0.1,0-0.2-0.1c-0.2-0.1-0.5-0.2-0.7-0.2c-0.1,0-0.1-0.1-0.2-0.1
					c-0.2-0.1-0.4-0.2-0.6-0.3c-0.1,0-0.2-0.1-0.3-0.1c-0.3-0.1-0.6-0.3-0.8-0.4c-2.2-1.3-3.3-3-3.3-4.7l0,1.4
					c0,1.7,1.1,3.4,3.3,4.7c0.3,0.2,0.5,0.3,0.8,0.4c0.1,0,0.2,0.1,0.3,0.1c0.2,0.1,0.3,0.1,0.5,0.2c0,0,0.1,0,0.1,0
					c0.1,0,0.1,0.1,0.2,0.1c0.2,0.1,0.5,0.2,0.7,0.2c0.1,0,0.1,0,0.2,0.1c0,0,0.1,0,0.1,0c0.1,0,0.2,0,0.3,0.1
					c0.2,0.1,0.5,0.1,0.7,0.2c0,0,0.1,0,0.1,0c0.1,0,0.2,0,0.4,0.1c0.2,0,0.4,0.1,0.6,0.1c0.1,0,0.1,0,0.2,0c0.1,0,0.2,0,0.4,0
					c0.2,0,0.4,0,0.6,0.1c0.1,0,0.1,0,0.2,0c0.1,0,0.2,0,0.4,0c0.2,0,0.4,0,0.6,0c0.1,0,0.1,0,0.2,0c0.1,0,0.2,0,0.3,0
					c0.2,0,0.4,0,0.6,0c0.1,0,0.2,0,0.2,0c0.2,0,0.4,0,0.6,0c0,0,0,0,0,0c0.2,0,0.4,0,0.7-0.1c0.1,0,0.2,0,0.3,0c0.1,0,0.2,0,0.3,0
					c0.3,0,0.6-0.1,1-0.1c0,0,0,0,0,0c0,0,0,0,0,0c0,0,0,0,0.1,0c0.4-0.1,0.7-0.1,1.1-0.2c0.1,0,0.2-0.1,0.4-0.1
					c0.2-0.1,0.5-0.1,0.7-0.2c0,0,0.1,0,0.1,0c0.3-0.1,0.5-0.2,0.8-0.3c0.1,0,0.1,0,0.2-0.1c0.2-0.1,0.5-0.2,0.7-0.3
					c0.1,0,0.2-0.1,0.2-0.1c0.3-0.1,0.5-0.3,0.8-0.4l9.5-5.5c0.1,0,0.1-0.1,0.2-0.1c0,0,0.1-0.1,0.1-0.1c0.1,0,0.2-0.1,0.2-0.1
					c0.1,0,0.1-0.1,0.2-0.1c0.1,0,0.1-0.1,0.2-0.1c0.1,0,0.1-0.1,0.2-0.1c0.1-0.1,0.1-0.1,0.2-0.2c0.1,0,0.1-0.1,0.2-0.1
					c0.1-0.1,0.1-0.1,0.2-0.2c0,0,0.1,0,0.1-0.1c0,0,0,0,0.1-0.1c0.1-0.1,0.2-0.2,0.3-0.3c0,0,0.1-0.1,0.1-0.1
					c0.1-0.1,0.2-0.2,0.3-0.4c0,0,0,0,0,0c0,0,0-0.1,0.1-0.1c0.1-0.1,0.1-0.1,0.2-0.2c0,0,0.1-0.1,0.1-0.1c0-0.1,0.1-0.1,0.1-0.2
					c0,0,0,0,0-0.1c0,0,0-0.1,0-0.1c0-0.1,0.1-0.1,0.1-0.2c0-0.1,0-0.1,0.1-0.2c0-0.1,0.1-0.1,0.1-0.2c0,0,0-0.1,0-0.1
					c0,0,0,0,0-0.1c0-0.1,0-0.1,0.1-0.2c0-0.1,0-0.1,0-0.2c0-0.1,0-0.1,0-0.2c0,0,0-0.1,0-0.1c0,0,0,0,0-0.1c0-0.1,0-0.1,0-0.2
					c0-0.1,0-0.1,0-0.2c0-0.1,0-0.1,0-0.2c0,0,0-0.1,0-0.1c0,0,0-0.1,0-0.1l0-1.4C2460.5,349.5,2460.5,349.6,2460.5,349.7z"/>
				<path class="st33" d="M2430.8,356.5c0,0,0-0.1,0-0.1c0,0,0-0.1,0-0.1c0,0,0-0.1,0-0.1c0,0,0-0.1,0-0.1c0,0,0-0.1,0-0.1
					c0,0,0-0.1,0-0.1c0,0,0-0.1,0-0.1c0,0,0-0.1,0.1-0.1c0,0,0-0.1,0.1-0.1c0,0,0-0.1,0.1-0.1c0,0,0-0.1,0.1-0.1
					c0-0.1,0.1-0.1,0.1-0.2c0,0,0-0.1,0.1-0.1c0-0.1,0.1-0.1,0.1-0.2c0,0,0-0.1,0.1-0.1c0.1-0.1,0.1-0.2,0.2-0.3c0,0,0,0,0.1-0.1
					c0.1-0.1,0.1-0.1,0.2-0.2c0,0,0.1-0.1,0.1-0.1c0,0,0.1-0.1,0.1-0.1c0,0,0.1-0.1,0.1-0.1c0,0,0.1-0.1,0.1-0.1
					c0,0,0.1-0.1,0.1-0.1c0.1,0,0.1-0.1,0.2-0.1c0,0,0.1-0.1,0.1-0.1c0.1,0,0.1-0.1,0.2-0.1c0.1,0,0.1-0.1,0.2-0.1
					c0.2-0.1,0.4-0.2,0.5-0.3c0.1,0,0.1-0.1,0.2-0.1c0.1-0.1,0.3-0.1,0.4-0.2c0.1,0,0.1-0.1,0.2-0.1c0.1-0.1,0.3-0.1,0.4-0.2
					c0.1,0,0.1,0,0.2-0.1c0.2-0.1,0.4-0.1,0.6-0.2l11.2,6.5l0-1.4l-11.2-6.5c-0.2,0.1-0.4,0.1-0.6,0.2c0,0,0,0-0.1,0
					c-0.1,0-0.1,0-0.2,0.1c-0.1,0.1-0.3,0.1-0.4,0.2c-0.1,0-0.1,0.1-0.2,0.1c-0.1,0.1-0.3,0.1-0.4,0.2c-0.1,0-0.1,0.1-0.2,0.1
					c-0.2,0.1-0.4,0.2-0.5,0.3c0,0-0.1,0-0.1,0.1c0,0-0.1,0-0.1,0.1c-0.1,0-0.1,0.1-0.2,0.1c0,0-0.1,0.1-0.1,0.1
					c-0.1,0-0.1,0.1-0.2,0.1c0,0-0.1,0.1-0.1,0.1c0,0-0.1,0.1-0.1,0.1c0,0-0.1,0.1-0.1,0.1c0,0-0.1,0.1-0.1,0.1c0,0,0,0-0.1,0.1
					c0,0,0,0,0,0c-0.1,0.1-0.1,0.1-0.2,0.2c0,0,0,0-0.1,0.1c-0.1,0.1-0.2,0.2-0.2,0.3c0,0,0,0,0,0c0,0,0,0,0,0.1
					c0,0.1-0.1,0.1-0.1,0.2c0,0,0,0.1-0.1,0.1c0,0.1-0.1,0.1-0.1,0.2c0,0,0,0,0,0c0,0,0,0,0,0.1c0,0,0,0.1-0.1,0.1
					c0,0,0,0.1-0.1,0.1c0,0,0,0.1-0.1,0.1c0,0,0,0,0,0.1c0,0,0,0,0,0c0,0,0,0.1,0,0.1c0,0,0,0.1,0,0.1c0,0,0,0.1,0,0.1
					c0,0,0,0,0,0.1c0,0,0,0,0,0c0,0,0,0.1,0,0.1c0,0,0,0.1,0,0.1c0,0,0,0.1,0,0.1c0,0,0,0.1,0,0.1c0,0,0,0.1,0,0.1l0,1.4
					c0-0.1,0-0.1,0-0.2C2430.8,356.5,2430.8,356.5,2430.8,356.5z"/>
			</g>
			<g>
				<path class="st21" d="M2457.2,344.8c4.5,2.6,4.4,6.9-0.2,9.6l-9.5,5.5c-4.6,2.7-12,2.8-16.5,0.2c-4.5-2.6-4.4-6.9,0.2-9.6
					l9.5-5.5C2445.4,342.3,2452.7,342.2,2457.2,344.8z M2433.2,358.7c3.3,1.9,8.7,1.9,12.1-0.1c0.8-0.4,1.4-1,1.8-1.5l-11.2-6.5
					c-0.9,0.3-1.8,0.6-2.6,1C2430,353.7,2429.9,356.8,2433.2,358.7 M2445.9,345.4c-0.9,0.2-1.8,0.6-2.6,1c-3.2,1.8-3.2,4.8-0.2,6.5
					c3.1,1.8,8.1,1.7,11.3-0.1c0.8-0.4,1.3-0.9,1.7-1.5l-1.3-0.8c-0.2,0.2-0.5,0.4-0.7,0.5c-2.1,1.2-5.6,1.2-7.8,0
					c-2.2-1.2-2.2-3.3,0-4.5c0.3-0.2,0.6-0.3,0.9-0.4L2445.9,345.4"/>
			</g>
		</g>
	</g>
</g>
</svg>
