<svg id="Layer_1" xmlns="http://www.w3.org/2000/svg" xmlns:xlink="http://www.w3.org/1999/xlink" viewBox="0 0 2629.8 896"><style>.st0{fill:#3d98d3}.st1{enable-background:new}.st2{fill:#99a3a8}.st3{fill:#c5cfd3}.st5{fill:#dee1e3}.st6{fill:#fff}.st7{fill:#f7f9f9}.st8{fill:#646464}.st10{fill:#313131}.st11{fill:#3d3d3d}.st12{fill:#222323}.st13{fill:#323333}.st17{fill:#f15354}.st21{fill:#bdc3c7}.st22{fill:#ecf0f1}.st23{fill:#2875a9}.st24{fill:#2d82bc}.st26{fill:#828688}.st27{fill:#d1d7db}.st33{fill:#acb2b5}</style><path class="st0" d="M0 0h2629.8v895.3H0z"/><g class="st1"><g class="st1"><defs><path id="SVGID_1_" class="st1" d="M1166.5 0h63.6-31.7z"/></defs><clipPath id="SVGID_2_"><use xlink:href="#SVGID_1_" overflow="visible"/></clipPath></g><path class="st2" d="M1230.1 0l-.1 407.1-31.7 18.4.1-425.5z"/><path class="st3" d="M1198.4 0l-.1 425.5-31.9-18.4.1-407.1z"/></g><g class="st1"><g class="st1"><defs><path id="SVGID_3_" class="st1" d="M2507.6 751l31.7-18.4 31.9 18.4-31.7 18.5z"/></defs><clipPath id="SVGID_4_"><use xlink:href="#SVGID_3_" overflow="visible"/></clipPath><g clip-path="url(#SVGID_4_)"><defs><path id="SVGID_5_" d="M2539.5 769.5l-31.9-18.5 31.7-18.4 31.9 18.4-31.7 18.5"/></defs><clipPath id="SVGID_6_"><use xlink:href="#SVGID_5_" overflow="visible"/></clipPath></g></g><path class="st2" d="M2571.2 751l-.1 145h-31.7l.1-126.5z"/><path class="st3" d="M2539.5 769.5l-.1 126.5h-31.9l.1-145z"/></g><path class="st5" d="M2629.8 904.1L1081.4 0h1548.4z"/><path class="st6" d="M2629.8 874.4L1132.6 0h1495.5z"/><ellipse class="st7" cx="2458.7" cy="496.3" rx="61" ry="32.3"/><path class="st7" d="M1908.7 318l277.6-163.4 344.7 199L2253.5 517z"/><g class="st1"><path class="st8" d="M1907.8 268.8L2132 138.6l344.7 199-224.1 130.3z"/><g class="st1"><defs><path id="SVGID_7_" class="st1" d="M1907.8 268.8L2132 138.6l344.7 199-224.1 130.3z"/></defs><clipPath id="SVGID_8_"><use xlink:href="#SVGID_7_" overflow="visible"/></clipPath><g clip-path="url(#SVGID_8_)"><defs><path id="SVGID_9_" d="M2252.6 467.9l-344.8-199.1L2132 138.6l344.7 199-224.1 130.3"/></defs><clipPath id="SVGID_10_"><use xlink:href="#SVGID_9_" overflow="visible"/></clipPath></g></g><path class="st10" d="M2476.7 337.6l-.1 24.4-224.1 130.3.1-24.4z"/><path class="st11" d="M2252.6 467.9l-.1 24.4-344.7-199v-24.5z"/></g><path class="st11" d="M2078.3 212.6l-17.7 10.3-17.9-10.3 17.8-10.3z"/><path class="st12" d="M2078.3 212.6v9.3l-17.7 10.3v-9.3z"/><path class="st13" d="M2060.6 222.9v9.3l-17.9-10.3v-9.3z"/><path class="st11" d="M2054.3 226.6l-17.8 10.3-17.8-10.3 17.7-10.3z"/><path class="st12" d="M2054.3 226.6l-.1 9.3-17.7 10.3v-9.3z"/><path class="st13" d="M2036.5 236.9v9.3l-17.9-10.3.1-9.3z"/><path class="st11" d="M2030.2 240.6l-17.8 10.3-17.8-10.3 17.7-10.3z"/><path class="st12" d="M2030.2 240.6l-.1 9.3-17.7 10.3v-9.3z"/><path class="st13" d="M2012.4 250.9v9.3l-17.9-10.3.1-9.3z"/><path class="st11" d="M2101.3 225.8l-17.8 10.3-17.8-10.3 17.7-10.3z"/><path class="st12" d="M2101.3 225.8l-.1 9.4-17.7 10.3v-9.4z"/><path class="st13" d="M2083.5 236.1v9.4l-17.9-10.3.1-9.4z"/><path class="st11" d="M2077.2 239.8l-17.8 10.3-17.8-10.3 17.7-10.3z"/><path class="st12" d="M2077.2 239.8l-.1 9.4-17.7 10.3v-9.4z"/><path class="st13" d="M2059.4 250.1v9.4l-17.9-10.3.1-9.4z"/><path class="st11" d="M2053.1 253.8l-17.8 10.3-17.8-10.3 17.7-10.3z"/><path class="st12" d="M2053.1 253.8l-.1 9.4-17.7 10.3v-9.4z"/><path class="st13" d="M2035.3 264.1v9.4l-17.9-10.3.1-9.4z"/><path class="st11" d="M2124.2 239l-17.8 10.3-17.8-10.3 17.7-10.3z"/><path class="st12" d="M2124.2 239l-.1 9.4-17.7 10.3v-9.4z"/><path class="st13" d="M2106.4 249.3v9.4l-17.9-10.3.1-9.4z"/><path class="st11" d="M2100.1 253l-17.8 10.3-17.8-10.3 17.7-10.3z"/><path class="st12" d="M2100.1 253v9.4l-17.8 10.3v-9.4z"/><path class="st13" d="M2082.3 263.3v9.4l-17.9-10.3.1-9.4z"/><path class="st11" d="M2076 267l-17.8 10.3-17.8-10.3 17.7-10.3z"/><path class="st12" d="M2076 267v9.4l-17.8 10.3v-9.4z"/><path class="st13" d="M2058.2 277.3v9.4l-17.8-10.3V267z"/><path class="st11" d="M2336.5 273.1l-50.1 29.1-90.1-52 50.1-29.1zm-27.9 44.5l-17.7 10.3-155.3-89.7 17.7-10.3z"/><path class="st12" d="M2308.6 317.6v9.4l-17.7 10.3v-9.4z"/><path class="st13" d="M2290.9 327.9v9.4l-155.4-89.7.1-9.4z"/><path class="st11" d="M2147.1 252.2l-17.8 10.4-17.8-10.4 17.7-10.3z"/><path class="st12" d="M2147.1 252.2v9.4l-17.8 10.3v-9.3z"/><path class="st13" d="M2129.3 262.6v9.3l-17.8-10.3v-9.4z"/><path class="st11" d="M2123 266.3l-17.8 10.3-17.8-10.3 17.7-10.4z"/><path class="st12" d="M2123 266.3v9.3l-17.8 10.3v-9.3z"/><path class="st13" d="M2105.2 276.6v9.3l-17.8-10.3v-9.3z"/><path class="st11" d="M2098.9 280.3l-17.7 10.3-17.9-10.3 17.7-10.4z"/><path class="st12" d="M2098.9 280.3v9.3l-17.8 10.3.1-9.3z"/><path class="st13" d="M2081.2 290.6l-.1 9.3-17.8-10.3v-9.3z"/><path class="st11" d="M2170 265.5l-17.7 10.3-17.9-10.3 17.7-10.3z"/><path class="st12" d="M2170 265.5v9.3l-17.8 10.4.1-9.4z"/><path class="st13" d="M2152.3 275.8l-.1 9.4-17.8-10.3v-9.4z"/><path class="st11" d="M2145.9 279.5l-17.7 10.3-17.9-10.3 17.7-10.3z"/><path class="st12" d="M2145.9 279.5v9.4l-17.8 10.3.1-9.4z"/><path class="st13" d="M2128.2 289.8l-.1 9.4-17.8-10.3v-9.4z"/><path class="st11" d="M2121.8 293.5l-17.7 10.3-17.9-10.3 17.8-10.3z"/><path class="st12" d="M2121.8 293.5v9.4l-17.8 10.3.1-9.4z"/><path class="st13" d="M2104.1 303.8l-.1 9.4-17.8-10.3v-9.4z"/><path class="st11" d="M2192.9 278.7l-17.7 10.3-17.9-10.3 17.7-10.3z"/><path class="st12" d="M2192.9 278.7v9.4l-17.8 10.3.1-9.4z"/><path class="st13" d="M2175.2 289l-.1 9.4-17.8-10.3v-9.4z"/><path class="st11" d="M2215.8 291.9l-17.7 10.3-17.9-10.3 17.8-10.3z"/><path class="st12" d="M2215.8 291.9v9.4l-17.8 10.3.1-9.4z"/><path class="st13" d="M2198.1 302.2l-.1 9.4-17.8-10.3v-9.4z"/><path class="st12" d="M2151 302.1l1.2-.6c.1-.1.2-.1.4-.2.3-.1.7-.3 1-.4.1 0 .2-.1.4-.1.2-.1.4-.1.7-.2.2 0 .3-.1.5-.1.2-.1.5-.1.7-.1.2 0 .3-.1.5-.1.5-.1 1-.1 1.4-.2h.4c.3 0 .6 0 .9-.1h3c.2 0 .4 0 .6.1.2 0 .4.1.6.1.2 0 .4.1.7.1.2 0 .3.1.5.1.3.1.5.1.8.2.1 0 .3.1.4.1.5.1.9.3 1.4.5.1 0 .1.1.2.1.6.2 1.2.5 1.7.8v-9.4c-.5-.3-1.1-.6-1.7-.8 0 0-.1 0-.1-.1h-.1c-.4-.2-.9-.3-1.4-.5h-.1c-.1 0-.2-.1-.3-.1-.3-.1-.5-.1-.8-.2-.1 0-.1 0-.2-.1-.1 0-.2 0-.3-.1-.2 0-.4-.1-.7-.1h-.6c-.2 0-.4 0-.6-.1h-3c-.3 0-.6 0-.8.1h-.4c-.5.1-1 .1-1.4.2h-.1c-.1 0-.3.1-.4.1-.2 0-.5.1-.7.2-.2 0-.3.1-.5.1-.2.1-.4.1-.7.2h-.1c-.1 0-.1.1-.2.1-.3.1-.7.2-1 .4-.1 0-.2.1-.4.2l-1.2.6c-.1 0-.1.1-.2.1-.1.1-.2.1-.3.2-.2.1-.3.2-.5.3-.1.1-.3.2-.4.3-.1.1-.2.1-.3.2l-.2.2-.2.2c-.1.1-.2.2-.3.4l-.3.3-.1.1c-.1.1-.2.3-.3.4 0 .1-.1.1-.1.2v.1c-.1.1-.1.3-.2.4 0 .1-.1.2-.1.2v.1c0 .1-.1.2-.1.4 0 .1-.1.2-.1.3v10.3c0 1.9 1.2 3.8 3.7 5.2v-9.4c-.3-.2-.5-.3-.8-.5.1 0 .1-.1.2-.1.1-.4.2-.5.4-.6z"/><path d="M2147.4 297.7v9.5-9.5" fill="#949494"/><g class="st1"><defs><path id="SVGID_11_" class="st1" d="M2172.5 307.3c0-.5-.1-.9-.2-1.4v-9.4c.1.5.2.9.2 1.4v9.4z"/></defs><clipPath id="SVGID_12_"><use xlink:href="#SVGID_11_" overflow="visible"/></clipPath><g clip-path="url(#SVGID_12_)"><path class="st12" d="M2172.5 297.9v9.4c0-.5-.1-.9-.2-1.4v-9.4c.2.5.2.9.2 1.4"/></g></g><path class="st11" d="M2168.8 292.7c-4.9-2.8-12.9-2.8-17.8 0s-4.9 7.5.1 10.3l-17.9-10.3 17.7-10.3 17.9 10.3z"/><path class="st13" d="M2151.1 303l-.1 9.4-17.8-10.3v-9.4z"/><path d="M2151 299.2zm17.9 0c0 1.3-.8 2.7-2.6 3.7-2.2 1.3-5.1 1.7-7.9 1.4-1.7-.2-3.4-.7-4.7-1.4-1.7-1-2.6-2.3-2.6-3.7v6.7c0 1.3.9 2.6 2.6 3.7 1.3.8 3 1.2 4.7 1.4 2.8.3 5.8-.2 7.9-1.4 1.7-1 2.6-2.3 2.6-3.7v-6.7z" fill="#ea3738"/><path class="st17" d="M2166.2 295.6c1.3.8 2.2 1.7 2.5 2.7.5 1.6-.3 3.4-2.4 4.6-2.2 1.3-5.1 1.7-7.9 1.4-1.7-.2-3.4-.7-4.7-1.4-3.5-2-3.5-5.3 0-7.3 3.4-2.1 9-2.1 12.5 0z"/><path class="st12" d="M2191.7 305.9v9.4l-17.7 10.3v-9.4z"/><path class="st11" d="M2191.7 305.9l-17.7 10.3-17.9-10.3 1.6-.9c3.9.4 8.2-.2 11.2-2s4.2-4.2 3.4-6.5l1.6-.9 17.8 10.3z"/><path class="st13" d="M2174 316.2v9.4l-17.9-10.3v-9.4z"/><path class="st11" d="M2144.7 306.7L2127 317l-17.9-10.3 17.8-10.3z"/><path class="st12" d="M2144.7 306.7v9.4l-17.8 10.3.1-9.4z"/><path class="st13" d="M2127 317l-.1 9.4-17.8-10.3v-9.4z"/><path class="st11" d="M2167.6 319.9l-17.7 10.3-17.9-10.3 17.8-10.3z"/><path class="st12" d="M2167.6 319.9v9.4l-17.7 10.3v-9.4z"/><path class="st13" d="M2149.9 330.2v9.4l-17.9-10.3v-9.4z"/><path class="st11" d="M2238.7 305.2l-17.7 10.3-17.9-10.3 17.8-10.4z"/><path class="st12" d="M2238.7 305.2v9.3l-17.7 10.3v-9.3z"/><path class="st13" d="M2221 315.5v9.3l-17.9-10.3v-9.3z"/><path class="st11" d="M2214.6 319.2l-17.7 10.3-17.9-10.3 17.8-10.3z"/><path class="st12" d="M2214.6 319.2v9.3l-17.7 10.3v-9.3z"/><path class="st13" d="M2196.9 329.5v9.3l-17.9-10.3v-9.3z"/><path class="st11" d="M2190.5 333.2l-17.7 10.3-17.9-10.3 17.8-10.3z"/><path class="st12" d="M2190.5 333.2v9.3l-17.7 10.3v-9.3z"/><path class="st13" d="M2172.8 343.5v9.3l-17.9-10.3v-9.3z"/><path class="st11" d="M2261.6 318.4l-17.7 10.3-17.9-10.3 17.8-10.3z"/><path class="st12" d="M2261.6 318.4v9.4l-17.7 10.3v-9.4z"/><path class="st13" d="M2243.9 328.7v9.4l-17.9-10.3v-9.4z"/><path class="st11" d="M2237.5 332.4l-17.7 10.3-17.9-10.3 17.8-10.3z"/><path class="st12" d="M2237.5 332.4v9.4l-17.7 10.3v-9.4z"/><path class="st13" d="M2219.8 342.7v9.4l-17.9-10.3v-9.4z"/><path class="st11" d="M2213.5 346.4l-17.8 10.3-17.8-10.3 17.7-10.3z"/><path class="st12" d="M2213.5 346.4l-.1 9.4-17.7 10.3v-9.4z"/><path class="st13" d="M2195.7 356.7v9.4l-17.9-10.3.1-9.4z"/><path class="st11" d="M2284.6 331.6l-17.8 10.3-17.8-10.3 17.7-10.3z"/><path class="st12" d="M2284.6 331.6l-.1 9.4-17.7 10.3v-9.4z"/><path class="st13" d="M2266.8 341.9v9.4l-17.9-10.3.1-9.4z"/><path class="st11" d="M2260.5 345.6l-17.8 10.3-17.8-10.3 17.7-10.3z"/><path class="st12" d="M2260.5 345.6l-.1 9.4-17.7 10.3v-9.4z"/><path class="st13" d="M2242.7 355.9v9.4l-17.9-10.3.1-9.4z"/><path class="st11" d="M2236.4 359.6l-17.8 10.3-17.8-10.3 17.7-10.3z"/><path class="st12" d="M2236.4 359.6l-.1 9.4-17.7 10.3v-9.4z"/><path class="st13" d="M2218.6 369.9v9.4l-17.9-10.3.1-9.4z"/><path class="st11" d="M2307.5 344.8l-17.8 10.4-17.8-10.4 17.7-10.3z"/><path class="st12" d="M2307.5 344.8l-.1 9.4-17.7 10.3v-9.3z"/><path class="st13" d="M2289.7 355.2v9.3l-17.9-10.3.1-9.4z"/><path class="st11" d="M2283.4 358.8l-17.8 10.4-17.8-10.4 17.7-10.3z"/><path class="st12" d="M2283.4 358.8l-.1 9.4-17.7 10.3v-9.3z"/><path class="st13" d="M2265.6 369.2v9.3l-17.9-10.3.1-9.4z"/><path class="st11" d="M2259.3 372.8l-17.8 10.4-17.8-10.4 17.7-10.3z"/><path class="st12" d="M2259.3 372.8l-.1 9.4-17.7 10.3v-9.3z"/><path class="st13" d="M2241.5 383.2v9.3l-17.9-10.3.1-9.4z"/><path class="st11" d="M2330.4 358.1l-17.8 10.3-17.8-10.3 17.7-10.3z"/><path class="st12" d="M2330.4 358.1l-.1 9.3-17.7 10.4v-9.4z"/><path class="st13" d="M2312.6 368.4v9.4l-17.9-10.4.1-9.3z"/><path class="st11" d="M2306.3 372.1l-17.8 10.3-17.8-10.3 17.7-10.3z"/><path class="st12" d="M2306.3 372.1v9.3l-17.8 10.4v-9.4z"/><path class="st13" d="M2288.5 382.4v9.4l-17.8-10.4v-9.3z"/><path class="st11" d="M2282.2 386.1l-17.8 10.3-17.8-10.3 17.7-10.3z"/><path class="st12" d="M2282.2 386.1v9.3l-17.8 10.4v-9.4z"/><path class="st13" d="M2264.4 396.4v9.4l-17.8-10.4v-9.3z"/><path class="st11" d="M2353.3 371.3l-17.8 10.3-17.8-10.3 17.7-10.3z"/><path class="st12" d="M2353.3 371.3v9.4l-17.8 10.3v-9.4z"/><path class="st13" d="M2335.5 381.6v9.4l-17.8-10.3v-9.4z"/><path class="st11" d="M2329.2 385.3l-17.8 10.3-17.8-10.3 17.7-10.3z"/><path class="st12" d="M2329.2 385.3v9.4l-17.8 10.3v-9.4z"/><path class="st13" d="M2311.4 395.6v9.4l-17.8-10.3v-9.4z"/><path class="st11" d="M2305.1 399.3l-17.7 10.3-17.9-10.3 17.7-10.3z"/><path class="st12" d="M2305.1 399.3v9.4l-17.8 10.3.1-9.4z"/><path class="st13" d="M2287.4 409.6l-.1 9.4-17.8-10.3v-9.4z"/><path class="st17" d="M2290.8 299.5l-4.4 2.7-90.1-52 4.5-2.7z"/><g class="st1"><path class="st11" d="M1886.7 305.6l.7-259.2 344.7 199-.7 259.3z"/><g class="st1"><defs><path id="SVGID_13_" class="st1" d="M1886.7 305.6l.7-259.2 344.7 199-.7 259.3z"/></defs><clipPath id="SVGID_14_"><use xlink:href="#SVGID_13_" overflow="visible"/></clipPath><g clip-path="url(#SVGID_14_)"><defs><path id="SVGID_15_" d="M2231.4 504.7l-344.7-199.1.7-259.2 344.7 199-.7 259.3"/></defs><clipPath id="SVGID_16_"><use xlink:href="#SVGID_15_" overflow="visible"/></clipPath></g></g><path class="st8" d="M1887.4 46.4l21.1-12.3 344.8 199-21.2 12.3z"/><path class="st10" d="M2232.1 245.4l21.2-12.3-.8 259.3-21.1 12.3z"/></g><g class="st1"><path fill="#aeaeae" d="M1796.7 662.1l31.7-18.4 31.9 18.4-31.7 18.4z"/><g class="st1"><defs><path id="SVGID_17_" class="st1" d="M1796.7 662.1l31.7-18.4 31.9 18.4-31.7 18.4z"/></defs><clipPath id="SVGID_18_"><use xlink:href="#SVGID_17_" overflow="visible"/></clipPath><g clip-path="url(#SVGID_18_)"><defs><path id="SVGID_19_" d="M1828.6 680.5l-31.9-18.4 31.7-18.4 31.9 18.4-31.7 18.4"/></defs><clipPath id="SVGID_20_"><use xlink:href="#SVGID_19_" overflow="visible"/></clipPath><g clip-path="url(#SVGID_20_)"><image width="64" height="37" xlink:href="5B7C632AE14CDB4A.png" transform="translate(1796.676 643.673)" overflow="visible"/></g></g></g><path class="st2" d="M1860.3 662.1l-.1 233.9h-31.7l.1-215.5z"/><path class="st3" d="M1828.6 680.5l-.1 215.5h-31.9l.1-233.9z"/></g><g class="st1"><path class="st21" d="M885.2 62H0v834h1576.8l343.5-201.6v-32.5"/></g><g class="st1"><path class="st6" d="M778.2 0H0v896h1521.5l398.8-234.1z"/></g><path class="st7" d="M1814.5 600.4l-361.8-208.9-148.5 82.9 173.6 100.2-72.4 42.1-.1 20.3 98.5 56.9 7.7 4.4 17.2-10 72.8-42.3 174.2 100.6 38.5-21.5 106.1-63.2zm-342.1 225.7l117.7-69.2L1307 593.4l-117.7 69.2z"/><path class="st22" d="M1562.3 750.3L1459.6 810l-283.1-163.4 102.7-59.7z"/><path class="st21" d="M1562.3 750.3l-.1 8.2-102.6 59.7V810z"/><path class="st5" d="M1459.6 810v8.2l-283.1-163.5v-8.1zm-196.8-193.6l15.4-9 15.5 9-15.4 9-15.5-9zm35.5 20.5l15.4-9-15.5-9-15.4 9 15.5 9zm19.9 11.5l15.4-9-15.5-9-15.4 9 15.5 9zm19.8-6.4l-15.4 9 15.5 9 15.4-9-15.5-9zm20 11.5l-15.4 9 15.5 9 15.4-9-15.5-9zm19.9 11.5l-15.4 9 15.5 9 15.4-9-15.5-9zm19.9 11.5l-15.4 9 15.5 9 15.4-9-15.5-9zm20 11.5l-15.4 9 15.5 9 15.4-9-15.5-9zm19.9 11.5l-15.4 9 15.5 9 15.4-9-15.5-9zm20 29.4l15.4-9-15.5-9-15.4 9 15.5 9zm20 11.6l15.4-9-15.5-9-15.4 9 15.5 9zm19.9 11.5l15.4-9-15.5-9-15.4 9 15.5 9zm4.4 2.5l15.5 9 15.4-9-15.5-9-15.4 9zm-243.2-117.8l15.4-9-15.5-9-15.4 9 15.5 9zm19.9 11.5l15.4-9-15.5-9-15.4 9 15.5 9zm20 11.6l15.4-9-15.5-9-15.4 9 15.5 9zm19.8-6.5l-15.4 9 15.5 9 15.4-9-15.5-9zm19.9 11.5l-15.4 9 15.5 9 15.4-9-15.5-9zm20 11.5l-15.4 9 15.5 9 15.4-9-15.5-9zm19.9 11.5l-15.4 9 15.5 9 15.4-9-15.5-9zm19.9 11.6l-15.4 9 15.5 9 15.4-9-15.5-9zm20 11.5l-15.4 9 15.5 9 15.4-9-15.5-9zm20 29.4l15.4-9-15.5-9-15.4 9 15.5 9zm19.9 11.5l15.4-9-15.5-9-15.4 9 15.5 9zm19.9 11.5l15.4-9-15.5-9-15.4 9 15.5 9zm20 11.5l15.4-9-15.5-9-15.4 9 15.5 9zm-258.7-126.7l15.4-9-15.5-9-15.4 9 15.5 9zm19.9 11.5l15.4-9-15.5-9-15.4 9 15.5 9zm19.9 11.5l15.4-9-15.5-9-15.4 9 15.5 9zm19.8-6.4l-15.4 9 15.5 9 15.4-9-15.5-9zm20 11.5l-15.4 9 15.5 9 15.4-9-15.5-9zm19.9 11.5l-15.4 9 15.5 9 15.4-9-15.5-9zm19.9 11.5l-15.4 9 15.5 9 15.4-9-15.5-9zm20 11.5l-15.4 9 15.5 9 15.4-9-15.5-9zm19.9 11.5l-15.4 9 15.5 9 15.4-9-15.5-9zm20 29.5l15.4-9-15.5-9-15.4 9 15.5 9zm20 11.5l15.4-9-15.5-9-15.4 9 15.5 9zm19.9 11.5l15.4-9-15.5-9-15.4 9 15.5 9zm19.9 11.5l15.4-9-15.5-9-15.4 9 15.5 9zm-79.3-23.2l15.4-9-135.1-78-15.4 9 135.1 78z"/><g class="st1"><path class="st6" d="M1260.6 611.1l15.5-9 15.5 9-15.4 9z"/><path class="st21" d="M1291.6 611.1v4.1l-15.4 8.9v-4z"/><path class="st5" d="M1276.2 620.1v4l-15.6-8.9v-4.1z"/></g><g class="st1"><path class="st6" d="M1280.6 622.6l15.4-9 15.5 9-15.4 9z"/><path class="st21" d="M1311.5 622.6v4.1l-15.4 9v-4.1z"/><path class="st5" d="M1296.1 631.6v4.1l-15.6-9 .1-4.1z"/></g><g class="st1"><path class="st6" d="M1300.5 634.1l15.4-9 15.6 9-15.5 9z"/><path class="st21" d="M1331.5 634.1l-.1 4.1-15.4 9v-4.1z"/><path class="st5" d="M1316 643.1v4.1l-15.5-9v-4.1z"/></g><g class="st1"><path class="st6" d="M1351.4 645.6l-15.4 9-15.6-9 15.5-8.9z"/><path class="st21" d="M1351.4 645.6v4.1l-15.5 9 .1-4.1z"/><path class="st5" d="M1336 654.6l-.1 4.1-15.5-9v-4.1z"/></g><g class="st1"><path class="st6" d="M1371.3 657.1l-15.4 9-15.5-9 15.4-8.9z"/><path class="st21" d="M1371.3 657.1v4.1l-15.4 9v-4.1z"/><path class="st5" d="M1355.9 666.1v4.1l-15.6-9 .1-4.1z"/></g><g class="st1"><path class="st6" d="M1391.2 668.6l-15.4 9-15.5-9 15.4-8.9z"/><path class="st21" d="M1391.2 668.6v4.1l-15.4 9v-4.1z"/><path class="st5" d="M1375.8 677.6v4.1l-15.5-9v-4.1z"/></g><g class="st1"><path class="st6" d="M1411.2 680.1l-15.5 9-15.5-9 15.4-8.9z"/><path class="st21" d="M1411.2 680.1v4.1l-15.5 9v-4.1z"/><path class="st5" d="M1395.7 689.1v4.1l-15.5-9v-4.1z"/></g><g class="st1"><path class="st6" d="M1431.1 691.6l-15.4 9-15.6-9 15.5-8.9z"/><path class="st21" d="M1431.1 691.6v4.1l-15.4 9v-4.1z"/><path class="st5" d="M1415.7 700.6v4.1l-15.6-9v-4.1z"/></g><g class="st1"><path class="st6" d="M1451 703.2l-15.4 8.9-15.5-8.9 15.4-9z"/><path class="st21" d="M1451 703.2v4l-15.4 9v-4.1z"/><path class="st5" d="M1435.6 712.1v4.1l-15.5-9v-4z"/></g><g class="st1"><path class="st6" d="M1440 714.7l15.4-9 15.6 9-15.5 8.9z"/><path class="st21" d="M1471 714.7v4l-15.5 9v-4.1z"/><path class="st5" d="M1455.5 723.6v4.1l-15.5-9v-4z"/></g><g class="st1"><path class="st6" d="M1459.9 726.2l15.5-9 15.5 9-15.4 8.9z"/><path class="st21" d="M1490.9 726.2v4l-15.4 9v-4.1z"/><path class="st5" d="M1475.5 735.1v4.1l-15.6-9v-4z"/></g><g class="st1"><path class="st6" d="M1479.9 737.7l15.4-9 15.5 9-15.4 8.9z"/><path class="st21" d="M1510.8 737.7v4.1l-15.4 8.9v-4.1z"/><path class="st5" d="M1495.4 746.6v4.1l-15.5-8.9v-4.1z"/></g><g class="st1"><path class="st6" d="M1515.2 740.2l15.6 9-15.5 9-15.5-9z"/><path class="st21" d="M1530.8 749.2l-.1 4.1-15.4 8.9v-4z"/><path class="st5" d="M1515.3 758.2v4l-15.5-8.9v-4.1z"/></g><g class="st1"><path class="st6" d="M1241.1 622.5l15.4-9 15.6 9-15.5 8.9z"/><path class="st21" d="M1272.1 622.5l-.1 4-15.4 9v-4.1z"/><path class="st5" d="M1256.6 631.4v4.1l-15.5-9v-4z"/></g><g class="st1"><path class="st6" d="M1261 634l15.5-9 15.5 9-15.4 8.9z"/><path class="st21" d="M1292 634v4l-15.5 9 .1-4.1z"/><path class="st5" d="M1276.6 642.9l-.1 4.1-15.5-9v-4z"/></g><g class="st1"><path class="st6" d="M1280.9 645.5l15.5-9 15.5 9-15.4 8.9z"/><path class="st21" d="M1311.9 645.5v4l-15.4 9v-4.1z"/><path class="st5" d="M1296.5 654.4v4.1l-15.6-9v-4z"/></g><g class="st1"><path class="st6" d="M1331.8 657l-15.4 8.9-15.5-8.9 15.4-9z"/><path class="st21" d="M1331.8 657v4.1l-15.4 8.9v-4.1z"/><path class="st5" d="M1316.4 665.9v4.1l-15.5-8.9V657z"/></g><g class="st1"><path class="st6" d="M1351.8 668.5l-15.5 9-15.5-9 15.4-9z"/><path class="st21" d="M1351.8 668.5v4.1l-15.5 8.9v-4z"/><path class="st5" d="M1336.3 677.5v4l-15.5-8.9v-4.1z"/></g><g class="st1"><path class="st6" d="M1371.7 680l-15.4 9-15.6-9 15.5-9z"/><path class="st21" d="M1371.7 680v4.1l-15.4 8.9v-4z"/><path class="st5" d="M1356.3 689v4l-15.6-8.9V680z"/></g><g class="st1"><path class="st6" d="M1391.6 691.5l-15.4 9-15.5-9 15.4-9z"/><path class="st21" d="M1391.6 691.5v4.1l-15.4 8.9v-4z"/><path class="st5" d="M1376.2 700.5v4l-15.5-8.9v-4.1z"/></g><g class="st1"><path class="st6" d="M1411.6 703l-15.5 9-15.5-9 15.4-9z"/><path class="st21" d="M1411.6 703v4.1l-15.5 9V712z"/><path class="st5" d="M1396.1 712v4.1l-15.5-9V703z"/></g><g class="st1"><path class="st6" d="M1431.5 714.5l-15.4 9-15.6-9 15.5-9z"/><path class="st21" d="M1431.5 714.5v4.1l-15.4 9v-4.1z"/><path class="st5" d="M1416.1 723.5v4.1l-15.6-9v-4.1z"/></g><g class="st1"><path class="st6" d="M1420.5 726l15.4-8.9 15.5 8.9-15.4 9z"/><path class="st21" d="M1451.4 726v4.1l-15.4 9V735z"/><path class="st5" d="M1436 735v4.1l-15.5-9V726z"/></g><g class="st1"><path class="st6" d="M1440.4 737.5l15.4-8.9 15.6 8.9-15.5 9z"/><path class="st21" d="M1471.4 737.5l-.1 4.1-15.4 9v-4.1z"/><path class="st5" d="M1455.9 746.5v4.1l-15.5-9v-4.1z"/></g><g class="st1"><path class="st6" d="M1460.3 749l15.5-8.9 15.5 8.9-15.4 9z"/><path class="st21" d="M1491.3 749v4.1l-15.5 9 .1-4.1z"/><path class="st5" d="M1475.9 758l-.1 4.1-15.5-9V749z"/></g><g class="st1"><path class="st6" d="M1480.2 760.5l15.5-8.9 15.5 8.9-15.4 9z"/><path class="st21" d="M1511.2 760.5v4.1l-15.4 9v-4.1z"/><path class="st5" d="M1495.8 769.5v4.1l-15.6-9v-4.1z"/></g><g class="st1"><path class="st6" d="M1221.5 633.8l15.5-8.9 15.5 8.9-15.4 9z"/><path class="st21" d="M1252.5 633.8v4.1l-15.4 9v-4.1z"/><path class="st5" d="M1237.1 642.8v4.1l-15.6-9v-4.1z"/></g><g class="st1"><path class="st6" d="M1241.5 645.3l15.4-8.9 15.5 8.9-15.4 9z"/><path class="st21" d="M1272.4 645.3v4.1l-15.4 9v-4.1z"/><path class="st5" d="M1257 654.3v4.1l-15.5-9v-4.1z"/></g><g class="st1"><path class="st6" d="M1261.4 656.8l15.4-8.9 15.6 8.9-15.5 9z"/><path class="st21" d="M1292.4 656.8v4.1l-15.5 9v-4.1z"/><path class="st5" d="M1276.9 665.8v4.1l-15.5-9v-4.1z"/></g><g class="st1"><path class="st6" d="M1312.3 668.3l-15.4 9-15.6-9 15.5-8.9z"/><path class="st21" d="M1312.3 668.3v4.1l-15.4 9v-4.1z"/><path class="st5" d="M1296.9 677.3v4.1l-15.6-9v-4.1z"/></g><g class="st1"><path class="st6" d="M1332.2 679.9l-15.4 8.9-15.5-8.9 15.4-9z"/><path class="st21" d="M1332.2 679.9v4l-15.4 9v-4.1z"/><path class="st5" d="M1316.8 688.8v4.1l-15.6-9 .1-4z"/></g><g class="st1"><path class="st6" d="M1352.2 691.4l-15.5 8.9-15.5-8.9 15.4-9z"/><path class="st21" d="M1352.2 691.4l-.1 4-15.4 9v-4.1z"/><path class="st5" d="M1336.7 700.3v4.1l-15.5-9v-4z"/></g><g class="st1"><path class="st6" d="M1372.1 702.9l-15.4 8.9-15.6-8.9 15.5-9z"/><path class="st21" d="M1372.1 702.9v4l-15.5 9 .1-4.1z"/><path class="st5" d="M1356.7 711.8l-.1 4.1-15.5-9v-4z"/></g><g class="st1"><path class="st6" d="M1392 714.4l-15.4 8.9-15.6-8.9 15.5-9z"/><path class="st21" d="M1392 714.4v4l-15.4 9v-4.1z"/><path class="st5" d="M1376.6 723.3v4.1l-15.6-9v-4z"/></g><g class="st1"><path class="st6" d="M1411.9 725.9l-15.4 8.9-15.5-8.9 15.4-9z"/><path class="st21" d="M1411.9 725.9v4.1l-15.4 8.9v-4.1z"/><path class="st5" d="M1396.5 734.8v4.1L1381 730v-4.1z"/></g><g class="st1"><path class="st6" d="M1400.9 737.4l15.4-9 15.6 9-15.5 9z"/><path class="st21" d="M1431.9 737.4v4.1l-15.5 8.9v-4z"/><path class="st5" d="M1416.4 746.4v4l-15.5-8.9v-4.1z"/></g><g class="st1"><path class="st6" d="M1420.8 748.9l15.5-9 15.5 9-15.4 9z"/><path class="st21" d="M1451.8 748.9v4.1l-15.4 8.9v-4z"/><path class="st5" d="M1436.4 757.9v4l-15.6-8.9v-4.1z"/></g><g class="st1"><path class="st6" d="M1440.8 760.4l15.4-9 15.5 9-15.4 9z"/><path class="st21" d="M1471.7 760.4v4.1l-15.4 8.9v-4z"/><path class="st5" d="M1456.3 769.4v4l-15.5-8.9v-4.1z"/></g><g class="st1"><path class="st6" d="M1460.7 771.9l15.4-9 15.6 9-15.5 9z"/><path class="st21" d="M1491.7 771.9v4.1l-15.5 8.9v-4z"/><path class="st5" d="M1476.2 780.9v4l-15.5-8.9v-4.1z"/></g><g class="st1"><path class="st6" d="M1261.8 679.7l15.4-9 135.1 78-15.4 9z"/><path class="st21" d="M1412.3 748.7v4.1l-15.4 9v-4.1z"/><path class="st5" d="M1396.9 757.7v4.1l-135.1-78v-4.1z"/></g><path class="st23" d="M1351.9 485.8l.2 54.9-32.5 18.7-.1-54.9z"/><path class="st23" d="M1383.9 504.4l.1 37.3-32.5 18.8-.1-37.3z"/><g class="st1"><path class="st23" d="M1398.7 512.9l.1 54.9-32.4 18.7-.2-54.9z"/><path class="st24" d="M1398.7 512.9l-16.2-9.4-.1.1-30.6-17.8h.1l-16.1-9.4-32.5 18.7 16 9.3h-.1l32.2 18.8.2-.1 14.6 8.5z"/></g><g class="st1"><path class="st23" d="M1430.7 512.8l.1 37.3-32.5 18.8-.1-37.3z"/><path class="st24" d="M1398.2 531.6l-32.2-18.8 32.4-18.7 32.3 18.7z"/></g><g class="st1"><path class="st23" d="M1437.2 534.6v18.8l-32.7 19-.1-18.9z"/><path fill="#1c5175" d="M1398.3 568.8l6.2 3.6-.1-18.9-6.1-3.5-.1-18.4-32.2-18.8v18.7l-15.9-9.2v.1l-30.6-17.8v-.1l-16.2-9.4.2 54.9 16.1 9.4v-17.5l30.6 17.8v17.4l16.2 9.4-.1-36.3 32 18.7z"/><path class="st24" d="M1404.4 553.5l-6.4-3.7 32.7-18.9 6.5 3.7z"/></g><g class="st1"><path class="st26" d="M1415.4 501.4l-6.5-3.8v-8.8l6.4 3.8z"/><path class="st27" d="M1415.3 492.6l-6.4-3.8 6.5-3.7 6.4 3.7zm-25.9 23.8l-6.5-3.8 26-15 6.5 3.8z"/><path class="st26" d="M1382.9 527.6l-6.4-3.8v-7.4l6.4 3.7z"/><path class="st27" d="M1382.9 511.3l-6.5-3.8 6.5-3.7 6.5 3.7z"/><path class="st26" d="M1382.9 520.1l-6.4-3.7-.1-8.9 6.5 3.8z"/><path fill="#bcc1c5" d="M1421.8 488.8v8.8l.1 7.4-39 22.6v-16.3l6.5-3.8v8.9l26-15-.1-8.8z"/></g><path class="st24" d="M1381 529.5l-3.2-1.9c-.1 0-.2-.1-.3-.1h-2.4c-.1 0-.3.1-.4.1h-.1s-.1 0-.1.1c0 0-.1 0-.1.1-.2.1-.3.2-.5.3-.2.1-.3.2-.5.3-.1 0-.1.1-.2.1l-.3.3c-.1 0-.1.1-.2.2l-.3.3-.2.2-.1.1-.1.1c-.1.1-.2.3-.4.4l-.1.1-.1.1c-.1.1-.1.2-.2.3 0 .1-.1.1-.1.2l-.1.1c-.1.1-.1.1-.1.2l-.1.1c-.1.1-.1.2-.2.2 0 .1-.1.1-.1.2v.1c-.1.2-.2.3-.3.5 0 0 0 .1-.1.1-.1.1-.1.2-.2.3 0 .1-.1.1-.1.2s-.1.1-.1.2c0 0 0 .1-.1.1-.1.1-.1.3-.2.4v.1c-.1.2-.1.3-.2.5v.1c0 .1 0 .1-.1.2 0 .1-.1.2-.1.2 0 .1 0 .1-.1.2 0 .1 0 .1-.1.2v.1c0 .1 0 .2-.1.2 0 .1 0 .2-.1.3v.3c0 .1-.1.3-.1.4v1.2l3.2 1.9 10.8-6.2c.1-2-.5-3.2-1.5-3.7zm-3.2.1h.1c0-.1-.1-.1-.1 0zm.7-.3zm.4-.1s.1 0 0 0c.1 0 0 0 0 0zm.5-.1zm.4 0h.2-.2zm.5.1zm.4.1s.1 0 .1.1l-.1-.1z"/><path class="st23" d="M1377.2 529.9c3-1.7 5.4-.3 5.4 3.1l-10.8 6.2c0-3.4 2.4-7.6 5.4-9.3z"/><g class="st1"><path class="st22" d="M1601.1 606.7L1495.6 668l-106.2-61.3 105.5-61.3z"/><path class="st21" d="M1601.1 606.7l-.1 20.3-105.5 61.3.1-20.3z"/><path class="st5" d="M1495.6 668l-.1 20.3-106.2-61.3.1-20.3z"/></g><path class="st21" d="M1601.1 606.7l-27.5 15.7-106.2-61.3 27.5-15.7z"/><g class="st1"><path class="st5" d="M1583.8 494.8l-.3 122-106.2-61.3.3-122z"/><path class="st21" d="M1583.8 494.8l17.6-10.2-.3 122-17.6 10.2z"/><path fill="#dcdbdc" d="M1477.6 433.5l17.6-10.2 106.2 61.3-17.6 10.2z"/></g><path class="st21" d="M1583.8 494.8l-.3 75.2-106.2-61.4.3-75.1z"/><path class="st2" d="M1583.8 447.9l17.6-10.2-.3 122-17.6 10.3z"/><path class="st5" d="M1745.7 329.7l-.9 322.5L1273.2 380l.9-322.6z"/><path class="st21" d="M1745.7 329.7l26.3-15.4-.9 322.6-26.3 15.3z"/><path class="st22" d="M1274.1 57.4l26.4-15.3L1772 314.3l-26.3 15.4z"/><path fill="#a0d9dd" d="M1298.3 365.6l.7-264.9 421.6 243.4-.7 264.9z"/><path class="st6" d="M1553.9 305.5V460l-114.2-65.7V239.8z"/><path class="st22" d="M1537.5 362.5l-.1 16.6-83.7-48.3.1-16.6zm0 23l-.1 16.6-83.7-48.3.1-16.6zm-34.2 17v5.5l-26.7-15.4V387z"/><path class="st0" d="M1537.5 415.6l-.1 16.6-27.9-16.1.1-16.6zm16.4-123.1v39.6l-114.2-65.7v-39.6z"/><path class="st22" d="M1501 282.8c11.2 6.5 20.2 22.1 20.2 35 0 12.9-9.1 18.1-20.3 11.6-11.2-6.5-20.3-22.2-20.2-35 0-12.9 9.1-18 20.3-11.6z"/><path d="M2498.7 498.2v-44.8l-.1-27v-.6l-.1-38.7v-15.2c0-7.1-4.5-14.1-13.6-19.6-.6-.4-1.2-.7-1.8-1.1l-.6-.3c-.4-.2-.8-.4-1.3-.7-.3-.1-.5-.2-.8-.4-.4-.2-.8-.4-1.2-.5-.3-.1-.6-.2-.9-.4-.4-.2-.8-.3-1.2-.5-.1 0-.1-.1-.2-.1-.1-.1-.3-.1-.4-.2-.7-.3-1.4-.5-2.1-.7-.2-.1-.5-.2-.7-.2-.9-.3-1.8-.6-2.7-.8-.1 0-.3-.1-.4-.1-.6-.2-1.3-.3-1.9-.5-.3-.1-.6-.1-.8-.2-.5-.1-1.1-.2-1.6-.4-.1 0-.3-.1-.4-.1-.2 0-.4-.1-.6-.1-.4-.1-.9-.2-1.3-.2-.4-.1-.7-.1-1.1-.2-.4-.1-.9-.1-1.3-.2-.2 0-.4-.1-.6-.1-.2 0-.4 0-.5-.1-.4-.1-.8-.1-1.2-.1-.4 0-.8-.1-1.1-.1-.4 0-.8-.1-1.2-.1-.2 0-.4 0-.6-.1h-.5c-.4 0-.8-.1-1.2-.1-.4 0-.8 0-1.1-.1h-7.1c-.6 0-1.2.1-1.8.1h-.8c-.8.1-1.7.1-2.5.2h-.1c-.9.1-1.8.2-2.6.3-.3 0-.6.1-.8.1-.7.1-1.4.2-2 .3-.2 0-.3.1-.5.1-.1 0-.2 0-.3.1-.4.1-.7.1-1.1.2-.4.1-.8.2-1.1.2-.4.1-.7.2-1.1.2-.4.1-.8.2-1.1.3-.4.1-.7.2-1.1.3-.4.1-.7.2-1.1.3-.4.1-.7.2-1 .3-.2.1-.5.1-.7.2-.1 0-.2.1-.3.1-.8.3-1.6.5-2.4.8h-.1c-.8.3-1.6.6-2.4 1-.2.1-.5.2-.7.3-.6.3-1.2.5-1.8.8-.2.1-.5.2-.7.3-.8.4-1.5.8-2.3 1.2-.7.4-1.4.8-2.1 1.3-.1 0-.1.1-.2.1-.2.1-.4.3-.7.4-.2.2-.5.3-.7.5-.3.2-.6.4-.9.7-.2.2-.4.3-.6.5-.3.2-.6.5-.9.7-.2.1-.3.3-.5.4-.4.3-.7.6-1 .9-.1.1-.2.2-.3.2l-.1.1c-.5.4-.9.9-1.3 1.4-.1.2-.3.3-.4.5-.3.3-.6.7-.9 1.1-.1.1-.2.2-.2.3-.1.1-.1.2-.2.3-.2.3-.4.5-.6.8-.1.2-.3.4-.4.6-.2.3-.3.5-.5.8-.1.1-.2.3-.3.4 0 .1-.1.1-.1.2-.1.2-.2.5-.4.7-.1.2-.2.4-.3.7-.1.2-.2.5-.3.7-.1.2-.1.3-.2.5v.1c-.1.2-.1.5-.2.7-.1.2-.1.5-.2.7-.1.2-.1.5-.2.7 0 .2-.1.4-.1.5v.2c0 .2-.1.5-.1.7 0 .2-.1.5-.1.7v1.5l.4 124.7c0 7.1 4.5 14.1 13.6 19.6.6.4 1.2.7 1.8 1.1l.6.3c.4.2.8.4 1.3.7.3.1.5.2.8.4.4.2.8.4 1.2.5.3.1.6.2.9.4.4.2.8.3 1.2.5.1 0 .1.1.2.1.1.1.3.1.4.2.7.3 1.4.5 2.1.7.2.1.5.2.7.2.9.3 1.8.6 2.7.8.1 0 .3.1.4.1.6.2 1.3.3 1.9.5.3.1.6.1.8.2.5.1 1.1.2 1.6.4.1 0 .3.1.4.1.2 0 .4.1.6.1.4.1.9.2 1.3.2.4.1.7.1 1.1.2.4.1.9.1 1.3.2.2 0 .4.1.6.1.2 0 .4 0 .5.1.4.1.8.1 1.2.1.4 0 .8.1 1.1.1.4 0 .8.1 1.2.1.2 0 .4 0 .6.1h.5c.4 0 .8.1 1.2.1.4 0 .8 0 1.1.1h7.1c.6 0 1.2-.1 1.8-.1h.8c.8-.1 1.7-.1 2.5-.2h.1c.9-.1 1.7-.2 2.6-.3.3 0 .6-.1.8-.1.7-.1 1.4-.2 2-.3.2 0 .3-.1.5-.1.1 0 .2 0 .3-.1.4-.1.7-.1 1.1-.2.4-.1.8-.2 1.1-.2.4-.1.7-.2 1.1-.2.4-.1.7-.2 1.1-.3.4-.1.7-.2 1.1-.3.4-.1.7-.2 1.1-.3.4-.1.7-.2 1.1-.3.2-.1.5-.1.7-.2.1 0 .2-.1.3-.1.8-.3 1.6-.5 2.4-.8h.1c.8-.3 1.6-.6 2.4-1 .2-.1.5-.2.7-.3.6-.3 1.2-.5 1.8-.8.2-.1.5-.2.7-.3.8-.4 1.5-.8 2.3-1.2.7-.4 1.4-.8 2.1-1.3.1 0 .1-.1.2-.1.2-.1.4-.3.7-.5.2-.2.5-.3.7-.5.3-.2.6-.4.9-.7.2-.2.4-.3.6-.5.3-.2.6-.5.9-.7.2-.1.3-.3.5-.4.4-.3.7-.6 1-.9.1-.1.2-.2.3-.2l.1-.1c.5-.4.9-.9 1.3-1.4.1-.2.3-.3.4-.5.3-.3.6-.7.9-1.1.1-.1.2-.2.2-.3.1-.1.1-.2.2-.3.2-.3.4-.5.6-.8.1-.2.3-.4.4-.6.2-.3.3-.5.5-.8.1-.1.2-.3.3-.4 0-.1.1-.1.1-.2.1-.2.2-.5.4-.7.1-.2.2-.4.3-.7.1-.2.2-.5.3-.7.1-.2.1-.3.2-.5v-.1c.1-.2.1-.4.2-.7.1-.2.1-.5.2-.7.1-.2.1-.5.2-.7 0-.2.1-.4.1-.5v-.2c0-.2.1-.5.1-.7-.3-.1-.3-.3-.2-.5z" fill="#a5c63b"/><path d="M2498.3 373.5c.1-.6.1-1.2.1-1.8v-.1c0-.5 0-1-.1-1.5v-.2c0-.1 0-.2-.1-.3-.1-.4-.1-.8-.2-1.2 0-.1 0-.2-.1-.3 0-.1 0-.1-.1-.2 0-.1 0-.2-.1-.2l-.3-.9c0-.1-.1-.2-.1-.3 0-.1 0-.1-.1-.2-.1-.3-.2-.6-.4-.9-.1-.3-.2-.6-.4-.9 0-.1-.1-.1-.1-.2-.1-.1-.1-.2-.2-.3-.1-.3-.3-.5-.4-.8-.1-.1-.1-.2-.2-.3 0-.1-.1-.1-.1-.2-.2-.3-.3-.6-.5-.8-1.7-2.5-3.4-5.1-5-7.6-1.7-2.5-3.4-5.1-5-7.6-1.8-2.7-4.5-5.2-8.1-7.4-.6-.4-1.2-.7-1.9-1-.2-.1-.3-.2-.5-.3l-1.8-.9c-.1 0-.1-.1-.2-.1-.7-.3-1.3-.6-2-.8-.2-.1-.4-.1-.5-.2-.6-.2-1.2-.4-1.9-.7-.1 0-.2-.1-.3-.1-.7-.2-1.4-.4-2.2-.6-.2-.1-.4-.1-.6-.1-.6-.2-1.3-.3-1.9-.5-.1 0-.3-.1-.4-.1-.8-.2-1.5-.3-2.3-.4-.2 0-.4-.1-.6-.1-.6-.1-1.3-.2-1.9-.3-.2 0-.3 0-.5-.1-.8-.1-1.6-.2-2.3-.3h-.5c-.7-.1-1.3-.1-2-.1h-.5c-.8 0-1.6-.1-2.4-.1h-3.1c-.8 0-1.6.1-2.4.1h-.4c-.7.1-1.4.1-2 .2-.2 0-.4 0-.6.1-.8.1-1.6.2-2.3.3-.1 0-.2 0-.3.1-.7.1-1.4.2-2 .4-.1 0-.2 0-.3.1-4.9 1-9.5 2.7-13.5 4.9-4.2 2.4-7.3 5.1-9.3 8.1-3.3 5.1-6.7 10.2-10 15.2-.3.4-.5.8-.7 1.2-.1.1-.1.2-.2.3-.2.3-.3.6-.5.9 0 .1-.1.2-.1.3-.2.4-.4.8-.5 1.2 0 .1-.1.2-.1.2-.1.3-.2.7-.3 1 0 .1-.1.2-.1.4-.1.3-.2.7-.3 1v.2c-.1.4-.2.8-.2 1.2v.3c0 .3-.1.6-.1.9v1.6c0 .4 0 .7.1 1.1v.4c0 .3.1.6.2 1v.3l.3 1.2c0 .1.1.2.1.3.1.3.2.6.3 1 0 .1.1.2.1.3.1.4.3.7.5 1.1v.1l.6 1.2c.1.1.1.2.2.3.2.3.3.6.5.9.1.1.1.2.2.3.2.4.5.8.8 1.1.1.1.2.2.3.4.1.2.3.3.4.5.1.1.2.3.3.4.1.2.3.3.4.5l.4.4.5.5.4.4.5.5.1.1c.1 0 .1.1.2.1.4.3.8.7 1.1 1 .1.1.2.2.3.2.5.4.9.7 1.4 1.1l.1.1c.1.1.2.1.3.2.3.2.6.5 1 .7.2.1.3.2.5.3.4.2.7.5 1.1.7.1.1.2.1.3.2.1 0 .1.1.2.1.8.5 1.6.9 2.5 1.4.1.1.2.1.3.2.1 0 .2.1.3.1.8.4 1.7.8 2.5 1.2.1 0 .1.1.2.1.8.3 1.5.6 2.3.9.1 0 .2.1.3.1.1 0 .3.1.4.1.7.2 1.3.5 2 .7.1 0 .3.1.4.1h.1c.8.3 1.7.5 2.5.8h.1c.2 0 .3.1.5.1.6.2 1.3.3 1.9.5.1 0 .3.1.4.1.2 0 .3.1.5.1.6.1 1.2.3 1.7.4.2 0 .4.1.5.1.1 0 .2 0 .3.1l1.8.3c.2 0 .4.1.6.1h.1c.8.1 1.5.2 2.3.3h.1l2.4.3h.1c.6.1 1.2.1 1.8.1h.4c.7 0 1.4.1 2.1.1h5.6c.5 0 .9 0 1.4-.1h.4c.6 0 1.2-.1 1.8-.1h.9c.3 0 .6 0 .9-.1.2 0 .4 0 .6-.1.3 0 .5-.1.8-.1.2 0 .4 0 .6-.1.2 0 .5-.1.7-.1.4 0 .7-.1 1.1-.1.2 0 .3 0 .5-.1.2 0 .3-.1.5-.1l1.8-.3c.2 0 .4-.1.5-.1.1 0 .3-.1.4-.1.4-.1.8-.1 1.1-.2.4-.1.7-.2 1.1-.2.4-.1.7-.2 1.1-.3.4-.1.7-.2 1.1-.3.4-.1.7-.2 1.1-.3.4-.1.7-.2 1.1-.3.4-.1.7-.2 1.1-.3.2-.1.5-.1.7-.2.1 0 .1-.1.2-.1 1.1-.3 2.1-.7 3.1-1.1.1 0 .2-.1.3-.1.1 0 .2-.1.4-.2.8-.3 1.7-.7 2.5-1 .1 0 .1-.1.2-.1h.1c1-.4 1.9-.9 2.8-1.4.1-.1.2-.1.3-.2.3-.1.5-.3.7-.4.5-.3.9-.5 1.4-.8.1-.1.3-.2.4-.3l.9-.6s.1 0 .1-.1c.1 0 .1-.1.2-.1.5-.3 1-.7 1.4-1 .1-.1.2-.2.4-.3.5-.4 1-.8 1.5-1.1 0 0 .1 0 .1-.1l.2-.2c.4-.3.7-.6 1-.9l.3-.3 1.2-1.2.1-.1c.3-.3.6-.7.9-1l.3-.3c.2-.2.4-.5.6-.7 0-.1.1-.1.2-.2l.2-.2c.1-.2.3-.4.4-.6.1-.1.2-.3.3-.4.1-.2.3-.4.4-.6.1-.1.1-.2.2-.3.4-.7.7-1.3 1-2 .1-.1.1-.2.1-.4v-.1c.2-.4.3-.8.4-1.1v-.1c0-.1.1-.2.1-.3.2-.6.4-1.3.5-1.9.1-.5.2-.9.2-1.4v-.1c.4.8.4.6.4.5zm-13.2-11.1c-.3.4-.6.9-.9 1.3-.1.1-.1.2-.2.3-.4.4-.7.9-1.1 1.3-.4.4-.8.8-1.3 1.2-.1.1-.3.2-.4.3-.4.3-.7.6-1.1.9-.1.1-.3.2-.4.3-.5.4-1.1.8-1.7 1.2l-.1.1c-.6.4-1.3.8-1.9 1.2-.3.2-.6.3-.8.4-.7.4-1.5.7-2.2 1.1-.1 0-.1.1-.2.1-.6.3-1.3.6-1.9.8-.2.1-.3.1-.5.2-.8.3-1.6.6-2.4.8-.2.1-.5.2-.7.2-.3.1-.6.2-.8.3-.3.1-.6.2-.8.2-.3.1-.6.2-.9.2-.3.1-.6.1-.9.2-.3.1-.6.1-.9.2-.3.1-.6.1-.9.2-.3.1-.6.1-.9.2-.2 0-.5.1-.7.1-.5.1-1 .2-1.4.2-.3 0-.5.1-.8.1-.3 0-.6.1-.9.1-.3 0-.6.1-1 .1-.2 0-.4 0-.6.1-.4 0-.8.1-1.2.1h-.5c-.5 0-1.1.1-1.6.1h-5.6c-.6 0-1.2-.1-1.7-.1h-.4c-.5 0-.9-.1-1.4-.1-.6-.1-1.2-.1-1.9-.2h-.1l-1.8-.3c-.2 0-.4-.1-.5-.1-.5-.1-1-.2-1.4-.2-.2 0-.4-.1-.7-.1-.5-.1-.9-.2-1.4-.3-.2-.1-.5-.1-.7-.2-.5-.1-1-.2-1.5-.4-.2 0-.3-.1-.5-.1-.7-.2-1.3-.4-2-.6-.1 0-.3-.1-.4-.1-.5-.2-1.1-.4-1.6-.6-.2-.1-.4-.1-.6-.2-.6-.2-1.2-.5-1.8-.7-.1 0-.1-.1-.2-.1-.7-.3-1.3-.6-2-.9-.2-.1-.3-.2-.5-.2-.7-.3-1.3-.7-2-1.1-.6-.4-1.2-.7-1.7-1.1-.1-.1-.2-.2-.4-.3l-1.2-.9c-.1-.1-.2-.2-.4-.3-.5-.4-.9-.8-1.4-1.2l-.8-.8-.6-.6c-.3-.3-.5-.6-.7-.9-.1-.2-.3-.4-.5-.6l-.1-.1c-.3-.4-.5-.8-.8-1.2-.1-.1-.1-.2-.2-.4-.2-.4-.5-.8-.7-1.2v-.1c-.2-.4-.4-.9-.5-1.3 0-.1-.1-.2-.1-.4-.1-.4-.2-.8-.3-1.1 0-.1 0-.2-.1-.2-.1-.4-.2-.9-.2-1.3v-1.5c1.3-1 2.8-1.9 4.4-2.8 5.2-2.9 11.3-5 17.8-6.3.9-.2 1.7-.3 2.6-.5.1 0 .3-.1.4-.1 1-.2 2-.3 3-.4.3 0 .5-.1.8-.1.9-.1 1.7-.2 2.6-.3h.5c1-.1 2-.1 3-.2h3.9c1 0 2 0 3 .1h.7c.8 0 1.7.1 2.5.2.2 0 .5 0 .7.1l3 .3c.2 0 .4.1.6.1.8.1 1.7.2 2.5.4.2 0 .5.1.7.1 1 .2 1.9.4 2.9.6.2 0 .3.1.5.1l2.4.6c.2.1.5.1.7.2.9.3 1.9.5 2.8.8.1 0 .2.1.4.1.8.3 1.6.5 2.4.8.2.1.5.2.7.3.9.3 1.7.7 2.6 1.1.1 0 .1.1.2.1.8.4 1.6.7 2.3 1.1l.6.3c.8.4 1.6.9 2.4 1.3 1 .6 1.9 1.2 2.8 1.9v1.4c0 .2 0 .3-.1.5 0 .3-.1.5-.1.8 0 .2-.1.3-.1.5-.1.4-.2.8-.3 1.1-.1.2-.1.4-.2.5-.1.3-.2.6-.3.8-.3.8-.7 1.6-1.2 2.4l-.1.1zm10.6 18.8z" fill="#bcd64d"/><path class="st33" d="M2409.1 356v.2c0 .2 0 .3.1.5 0 .2.1.4.1.6 0 .2.1.3.1.5s.1.4.1.6c0 .2.1.3.1.5.1.2.1.4.2.6.1.2.1.3.2.5s.2.4.2.6c.1.2.1.3.2.5l.3.6c.1.2.2.3.3.5l.3.6c.1.2.2.3.3.5.1.2.3.4.4.6.1.2.2.3.4.5.1.2.3.4.4.5.1.2.3.3.4.5.2.2.3.4.5.5.1.2.3.3.4.5.2.2.4.4.6.5.2.1.3.3.5.4.2.2.4.4.6.5.2.1.3.3.5.4.2.2.5.4.7.6.2.1.3.2.5.4.3.2.6.4.8.6.1.1.3.2.4.3.4.3.9.6 1.4.9l1.5.9c.2.1.3.2.5.3.3.2.7.4 1.1.5l.6.3c.3.2.7.3 1 .5.2.1.5.2.7.3.3.1.6.3 1 .4.1 0 .1 0 .2.1.1 0 .2.1.3.1.6.2 1.1.4 1.7.6.2.1.4.1.6.2.7.2 1.5.5 2.2.7.1 0 .2.1.3.1.5.1 1.1.3 1.6.4.2.1.5.1.7.2.4.1.9.2 1.3.3.1 0 .2 0 .3.1.2 0 .4.1.5.1.3.1.7.1 1 .2.3.1.6.1.9.1.4.1.7.1 1.1.2.2 0 .3 0 .5.1.1 0 .3 0 .5.1.3 0 .7.1 1 .1.3 0 .6.1.9.1.3 0 .7.1 1 .1h.9c.3 0 .7 0 1 .1h6.8c.5 0 1 0 1.4-.1h.6c.7 0 1.4-.1 2.1-.2h.1c.7-.1 1.4-.2 2.2-.3.2 0 .5-.1.7-.1.6-.1 1.1-.2 1.7-.3.1 0 .3 0 .4-.1.1 0 .2 0 .3-.1.3-.1.6-.1.9-.2.3-.1.6-.1.9-.2.3-.1.6-.1.9-.2.3-.1.6-.1.9-.2.3-.1.6-.2.9-.2.3-.1.6-.2.9-.2l.9-.3c.2-.1.4-.1.6-.2.1 0 .2-.1.2-.1.7-.2 1.3-.4 2-.7h.1c.7-.2 1.3-.5 2-.8.2-.1.4-.2.6-.2.5-.2 1-.4 1.4-.7l.6-.3c.6-.3 1.3-.6 1.9-1l1.5-.9c.1-.1.2-.1.3-.2.1 0 .1-.1.2-.1.2-.1.3-.2.5-.3.2-.1.3-.2.5-.3.1 0 .1-.1.2-.1.2-.2.4-.3.6-.5.2-.1.3-.2.5-.3l.1-.1c.2-.2.4-.3.6-.5.2-.1.3-.3.5-.4l.1-.1c.2-.2.4-.3.5-.5.2-.1.3-.3.5-.4l.1-.1s0-.1.1-.1l.3-.3c.2-.2.4-.4.5-.6.1-.1.2-.2.2-.3l.3-.3.4-.4c.1-.2.3-.3.4-.5.1-.1.1-.2.2-.2 0 0 0-.1.1-.1.1-.1.1-.2.2-.2.1-.2.2-.3.3-.5v-.1c.1-.1.2-.2.2-.3 0-.1.1-.1.1-.2.1-.2.2-.3.3-.5.1-.1.2-.3.3-.4 0 0 0-.1.1-.1.1-.2.2-.3.3-.5.1-.2.2-.3.2-.5 0-.1 0-.1.1-.2.1-.2.1-.3.2-.5s.1-.3.2-.5v-.2c.1-.2.1-.3.1-.5s.1-.3.1-.5c0-.1 0-.1.1-.2 0-.2.1-.3.1-.5s.1-.3.1-.5v-.2c0-.1 0-.3.1-.4 0-.2 0-.3.1-.5v-4.7c0-5.8-3.7-11.6-11.2-16.1l-1.5-.9c-.2-.1-.4-.2-.5-.3-.3-.2-.7-.4-1-.5-.2-.1-.4-.2-.7-.3-.3-.2-.6-.3-1-.4-.2-.1-.5-.2-.7-.3-.3-.1-.6-.3-1-.4-.1 0-.1 0-.2-.1-.1 0-.2-.1-.3-.1-.6-.2-1.1-.4-1.7-.6-.2-.1-.4-.1-.6-.2-.7-.2-1.5-.5-2.2-.7-.1 0-.2-.1-.3-.1-.5-.1-1.1-.3-1.6-.4-.2-.1-.5-.1-.7-.2-.4-.1-.9-.2-1.3-.3-.1 0-.2 0-.3-.1-.2 0-.4-.1-.5-.1-.4-.1-.7-.1-1.1-.2-.3-.1-.6-.1-.9-.1-.4-.1-.7-.1-1.1-.2-.2 0-.3 0-.5-.1-.1 0-.3 0-.5-.1-.3 0-.7-.1-1-.1-.3 0-.6-.1-.9-.1-.3 0-.7-.1-1-.1h-.9c-.3 0-.7 0-1-.1h-6.8c-.5 0-1 0-1.4.1h-.6c-.7 0-1.4.1-2.1.2h-.1c-.7.1-1.4.2-2.2.3-.2 0-.5.1-.7.1-.6.1-1.1.2-1.7.3-.1 0-.3 0-.4.1-.1 0-.2 0-.3.1-.3.1-.6.1-.9.2-.3.1-.6.1-.9.2-.3.1-.6.1-.9.2-.3.1-.6.1-.9.2-.3.1-.6.2-.9.2-.3.1-.6.2-.9.2l-.9.3c-.2.1-.4.1-.6.2-.1 0-.2.1-.2.1-.7.2-1.3.4-2 .7h-.1c-.7.2-1.3.5-2 .8-.2.1-.4.2-.6.2-.5.2-1 .4-1.4.7l-.6.3c-.6.3-1.3.6-1.9 1-.6.3-1.2.7-1.7 1-.1 0-.1.1-.2.1-.2.1-.4.2-.6.4-.2.1-.4.3-.6.4-.3.2-.5.4-.8.5-.2.1-.3.2-.5.4-.3.2-.5.4-.8.6-.1.1-.3.2-.4.3-.3.3-.6.5-.9.8l-.2.2-.1.1-1.1 1.1c-.1.1-.2.3-.3.4-.2.3-.5.6-.7.9-.1.1-.1.2-.2.2l-.2.2c-.2.2-.3.4-.5.7-.1.2-.2.3-.3.5-.1.2-.3.5-.4.7-.1.1-.1.2-.2.3 0 0 0 .1-.1.1l-.3.6c-.1.2-.2.4-.3.5-.1.2-.2.4-.2.6-.1.1-.1.3-.2.4v.1c-.1.2-.1.4-.2.6-.1.2-.1.4-.2.6 0 .2-.1.4-.1.6 0 .2-.1.3-.1.4v.1c0 .2-.1.4-.1.6 0 .2-.1.4-.1.6v3.5l.5 2.2zm.1-3.4v-.4.4zm.2-1.1c0-.1 0-.2.1-.3v-.1c0 .1 0 .3-.1.4zm.3-1.1c0-.1.1-.2.1-.3v-.1c0 .1 0 .3-.1.4zm.5-1.2c0-.1.1-.2.1-.3 0 .1-.1.2-.1.3zm.5-1.2c0-.1.1-.1.1-.2 0 0 0 .1-.1.2zm9-9.1c-.1 0-.1.1-.2.1 0 0 .1-.1.2-.1zm-1.3.8c-.1.1-.2.2-.3.2.1 0 .2-.1.3-.2zm-1.3 1s.1-.1 0 0zm-1.1.9c-.1.1-.2.2-.4.3.1-.1.2-.2.4-.3zm-1.2 1.1c0-.1 0-.1 0 0l.2-.2-.3.3s0-.1.1-.1zm-1.1 1.1l-.2.2.2-.2zm-1 1.2s-.1 0 0 0c-.1 0-.1 0 0 0zm73.1 16.4c-.1.2-.3.4-.5.5-.1.1-.2.3-.3.4-.3.4-.7.7-1.1 1.1l-.1.1-.2.2c-.3.3-.6.5-.9.8-.1.1-.3.2-.4.3-.2.2-.5.4-.7.6-.2.1-.3.3-.5.4-.2.2-.5.4-.7.5-.2.1-.4.3-.6.4-.2.2-.5.3-.7.5-.6.4-1.1.7-1.7 1-.6.3-1.2.7-1.9 1l-.6.3c-.5.2-1 .4-1.4.7-.2.1-.4.2-.6.2-.7.3-1.3.5-2 .8h-.1c-.7.2-1.3.5-2 .7-.3.1-.6.2-.8.3l-.9.3c-.3.1-.6.2-.9.2-.3.1-.6.2-.9.2-.3.1-.6.1-.9.2-.3.1-.6.1-.9.2-.3.1-.6.1-.9.2-.3.1-.6.1-.9.2-.2 0-.5.1-.7.1-.6.1-1.1.2-1.7.3-.2 0-.5.1-.7.1-.7.1-1.4.2-2.2.3h-.1c-.7.1-1.4.1-2.1.2h-.6c-.5 0-1 .1-1.4.1h-6.8c-.3 0-.7 0-1-.1-.3 0-.6 0-.9-.1-.3 0-.7-.1-1-.1-.3 0-.6-.1-.9-.1-.3 0-.7-.1-1-.1-.3 0-.6-.1-.9-.1-.4-.1-.7-.1-1.1-.2-.3 0-.6-.1-.9-.1-.4-.1-.7-.1-1-.2-.3-.1-.6-.1-.8-.2-.4-.1-.9-.2-1.3-.3-.2-.1-.5-.1-.7-.2-.5-.1-1.1-.3-1.6-.4-.1 0-.2-.1-.4-.1-.7-.2-1.5-.4-2.2-.7-.2-.1-.4-.1-.6-.2-.6-.2-1.1-.4-1.7-.6-.2-.1-.3-.1-.5-.2-.3-.1-.6-.3-1-.4-.2-.1-.5-.2-.7-.3-.3-.1-.7-.3-1-.4-.2-.1-.4-.2-.7-.3-.4-.2-.7-.4-1.1-.5-.2-.1-.4-.2-.5-.3l-1.5-.9c-3-1.8-5.5-3.9-7.3-6.1-1.3-2.3-1.9-4.7-1.9-7.2 1.3-1 2.8-1.9 4.4-2.8 5.1-2.9 11.1-5 17.4-6.3l3.6-11.6c13.8-2.9 29.8-1.1 40.5 5.4 9.9 6.2 12.8 14.8 8.7 22.3z"/><ellipse transform="matrix(1 -.00283 .00283 1 -.987 6.945)" class="st21" cx="2449.3" cy="351.4" rx="40.3" ry="23.4"/><path class="st5" d="M2449.2 370.4c-10.1 0-19.8-2.4-26.7-6.5-5.9-3.6-9.2-8-9.1-12.5.1-4.6 3.8-9.3 10.1-12.9 6.9-3.9 16.1-6 25.9-6 10.1 0 19.8 2.4 26.7 6.5 5.9 3.6 9.2 8 9.1 12.5-.1 4.6-3.8 9.3-10.1 12.9-6.9 3.9-16.1 6-25.9 6z"/><g class="st1"><path class="st11" d="M2469.6 339.8c7 4 8 9.9 2.4 13.2-5.7 3.3-15.9 2.7-22.8-1.3-7-4-8-9.9-2.4-13.2 5.7-3.3 15.9-2.7 22.8 1.3z"/></g><g class="st1"><path class="st33" d="M2440.9 350.7c0-.1 0-.1.1-.2 0-.1 0-.2.1-.2 0-.1.1-.2.2-.4v-.1c.1-.1.1-.3.2-.4v-.1l.3-.3v-.1l.4-.4.1-.1c.1-.1.3-.2.4-.3h.1c.2-.1.3-.2.5-.3.2-.1.3-.2.5-.3.1 0 .1-.1.2-.1.1-.1.3-.1.4-.2.1 0 .1 0 .2-.1.2-.1.4-.1.6-.2.2-.1.5-.1.7-.2l1.3.8v-1.4l-1.3-.8c-.2.1-.5.1-.7.2-.2.1-.4.1-.6.2-.1 0-.1 0-.2.1s-.3.1-.4.2c-.1 0-.1.1-.2.1-.2.1-.4.2-.5.3 0 0-.1 0-.1.1-.1.1-.3.2-.4.3h-.1c-.2.1-.3.2-.4.3l-.1.1s-.1 0-.1.1l-.3.3v.1l-.2.2-.1.1v.1c-.1.1-.1.2-.2.3v.2c-.1.1-.1.2-.1.3 0 .1 0 .2-.1.2v1.9c-.2-.1-.2-.2-.2-.3zm13.2.5c-.2.1-.3.2-.5.3-.1 0-.1 0-.2.1s-.3.1-.4.2c-.1 0-.1 0-.2.1-.1 0-.2.1-.3.1-.1 0-.1 0-.2.1-.1 0-.2 0-.3.1h-.2c-.2 0-.4.1-.6.1h-2.5c-.1 0-.2 0-.3-.1h-.2c-.1 0-.2-.1-.3-.1-.1 0-.1 0-.2-.1-.2-.1-.4-.1-.6-.2-.1 0-.2-.1-.3-.1 0 0-.1 0-.1-.1-.1-.1-.3-.1-.4-.2-1.1-.6-1.6-1.5-1.6-2.3v1.4c0 .8.5 1.6 1.6 2.3.1.1.3.1.4.2 0 0 .1 0 .1.1.1 0 .2.1.2.1.2.1.4.1.6.2h.1c.1 0 .2.1.3.1h.2c.1 0 .2 0 .3.1h2.3c.2 0 .4-.1.6-.1h.2c.1 0 .2 0 .3-.1.1 0 .1 0 .2-.1.1 0 .2-.1.3-.1h.2c.1-.1.3-.1.4-.2.1 0 .1 0 .2-.1.2-.1.4-.2.5-.3h.1c.1 0 .1-.1.2-.1l.1-.1.3-.3 1.3.8v-1.4l-1.3-.8-.3.3-.1.1c.3-.1.2 0 .1.1z"/><path class="st33" d="M2460.5 349.7v1.2c0 .1 0 .1-.1.2 0 .1 0 .1-.1.2 0 .1 0 .1-.1.2 0 .1 0 .1-.1.2 0 .1-.1.1-.1.2l-.1.1c0 .1-.1.1-.1.2l-.1.1-.2.2-.1.1c-.1.1-.2.2-.3.4l-.1.1-.3.3-.1.1-.2.2c-.1 0-.1.1-.2.1l-.2.2c-.1 0-.1.1-.2.1s-.1.1-.2.1-.1.1-.2.1-.1.1-.2.1c-.1.1-.2.1-.3.2l-9.5 5.5c-.3.1-.5.3-.8.4-.1 0-.2.1-.2.1-.2.1-.5.2-.7.3-.1 0-.1 0-.2.1l-.9.3c-.2.1-.5.1-.7.2-.1 0-.2.1-.4.1-.3.1-.7.2-1.1.2h-.1c-.3.1-.6.1-1 .1h-.3c-.3 0-.6.1-1 .1h-3c-.2 0-.4 0-.6-.1-.2 0-.4 0-.5-.1-.2 0-.4-.1-.6-.1-.2 0-.3-.1-.5-.1-.2-.1-.5-.1-.7-.2-.1 0-.3-.1-.4-.1-.1 0-.1 0-.2-.1-.2-.1-.5-.2-.7-.2-.1 0-.1-.1-.2-.1l-.6-.3c-.1 0-.2-.1-.3-.1-.3-.1-.6-.3-.8-.4-2.2-1.3-3.3-3-3.3-4.7v1.4c0 1.7 1.1 3.4 3.3 4.7.3.2.5.3.8.4.1 0 .2.1.3.1.2.1.3.1.5.2h.1c.1 0 .1.1.2.1.2.1.5.2.7.2.1 0 .1 0 .2.1h.1c.1 0 .2 0 .3.1.2.1.5.1.7.2h.1c.1 0 .2 0 .4.1.2 0 .4.1.6.1h.6c.2 0 .4 0 .6.1h3.1c.2 0 .4 0 .7-.1h.6c.3 0 .6-.1 1-.1h.1c.4-.1.7-.1 1.1-.2.1 0 .2-.1.4-.1.2-.1.5-.1.7-.2h.1c.3-.1.5-.2.8-.3.1 0 .1 0 .2-.1.2-.1.5-.2.7-.3.1 0 .2-.1.2-.1.3-.1.5-.3.8-.4l9.5-5.5c.1 0 .1-.1.2-.1l.1-.1c.1 0 .2-.1.2-.1.1 0 .1-.1.2-.1s.1-.1.2-.1.1-.1.2-.1l.2-.2c.1 0 .1-.1.2-.1l.2-.2s.1 0 .1-.1l.1-.1.3-.3.1-.1c.1-.1.2-.2.3-.4 0 0 0-.1.1-.1l.2-.2.1-.1c0-.1.1-.1.1-.2v-.2c0-.1.1-.1.1-.2s0-.1.1-.2c0-.1.1-.1.1-.2v-.2c0-.1 0-.1.1-.2v-2.8c-.1.4-.1.5-.1.6z"/><path class="st33" d="M2430.8 356.5v-.7s0-.1.1-.1c0 0 0-.1.1-.1 0 0 0-.1.1-.1 0 0 0-.1.1-.1 0-.1.1-.1.1-.2 0 0 0-.1.1-.1 0-.1.1-.1.1-.2 0 0 0-.1.1-.1.1-.1.1-.2.2-.3l.1-.1.2-.2.1-.1.1-.1.1-.1.1-.1.1-.1c.1 0 .1-.1.2-.1l.1-.1c.1 0 .1-.1.2-.1s.1-.1.2-.1c.2-.1.4-.2.5-.3.1 0 .1-.1.2-.1.1-.1.3-.1.4-.2.1 0 .1-.1.2-.1.1-.1.3-.1.4-.2.1 0 .1 0 .2-.1.2-.1.4-.1.6-.2l11.2 6.5v-1.4l-11.2-6.5c-.2.1-.4.1-.6.2h-.1c-.1 0-.1 0-.2.1s-.3.1-.4.2c-.1 0-.1.1-.2.1-.1.1-.3.1-.4.2-.1 0-.1.1-.2.1-.2.1-.4.2-.5.3 0 0-.1 0-.1.1 0 0-.1 0-.1.1-.1 0-.1.1-.2.1l-.1.1c-.1 0-.1.1-.2.1l-.1.1-.1.1-.1.1-.1.1-.1.1-.2.2-.1.1c-.1.1-.2.2-.2.3v.1c0 .1-.1.1-.1.2 0 0 0 .1-.1.1 0 .1-.1.1-.1.2v.1s0 .1-.1.1c0 0 0 .1-.1.1 0 0 0 .1-.1.1v2.2l-.1-.2z"/><path class="st21" d="M2457.2 344.8c4.5 2.6 4.4 6.9-.2 9.6l-9.5 5.5c-4.6 2.7-12 2.8-16.5.2-4.5-2.6-4.4-6.9.2-9.6l9.5-5.5c4.7-2.7 12-2.8 16.5-.2zm-24 13.9c3.3 1.9 8.7 1.9 12.1-.1.8-.4 1.4-1 1.8-1.5l-11.2-6.5c-.9.3-1.8.6-2.6 1-3.3 2.1-3.4 5.2-.1 7.1m12.7-13.3c-.9.2-1.8.6-2.6 1-3.2 1.8-3.2 4.8-.2 6.5 3.1 1.8 8.1 1.7 11.3-.1.8-.4 1.3-.9 1.7-1.5l-1.3-.8c-.2.2-.5.4-.7.5-2.1 1.2-5.6 1.2-7.8 0s-2.2-3.3 0-4.5c.3-.2.6-.3.9-.4l-1.3-.7"/></g></svg>