<?xml version="1.0" encoding="utf-8"?>
<!-- Generator: Adobe Illustrator 22.0.1, SVG Export Plug-In . SVG Version: 6.00 Build 0)  -->
<svg version="1.1" id="Layer_1" xmlns="http://www.w3.org/2000/svg" xmlns:xlink="http://www.w3.org/1999/xlink" x="0px" y="0px"
	 viewBox="0 0 2374.4 541.3" style="enable-background:new 0 0 2374.4 541.3;" xml:space="preserve">
<style type="text/css">
	.st0{fill:#FFFFFF;}
	.st1{opacity:0.5;}
	.st2{fill:url(#SVGID_1_);}
	.st3{fill:url(#SVGID_2_);}
</style>
<g>
	<g>
		<path class="st0" d="M1175.5-1248.9c0-47.4-46.5-82.7-92.1-70.1c6.1-80.5-53.1-154.1-133.1-165.1s-158.9,45.3-173.3,125.9
			c-54.1-16.8-112,19.9-119.8,75.9c-35.9-15.5-77.3-5.7-77.3,33.3L1175.5-1248.9L1175.5-1248.9z"/>
		<path class="st0" d="M0.3-1298.6c-4.4-57.1,39.2-109.4,96-117.1c56.8-7.7,112.7,32.2,122.9,89.3c38.4-11.9,79.5,14.1,85,53.9
			c25.5-11,54.9-4.1,54.9,23.6H0.3V-1298.6z"/>
		<path class="st0" d="M2380.1-1248.9h-358.8c0-27.7,29.4-34.6,54.9-23.6c5.5-39.8,46.6-65.8,85-53.9c10.2-57.1,66.1-97,122.9-89.3
			c56.8,7.7,100.4,60,96,117.1L2380.1-1248.9L2380.1-1248.9z"/>
		<path class="st0" d="M1582.8-1249c0-32.3-31.7-56.3-62.8-47.7c4.1-54.8-36.2-105-90.7-112.4s-108.2,30.9-118,85.8
			c-36.8-11.5-76.3,13.6-81.6,51.7c-24.4-10.6-52.6-3.9-52.6,22.7L1582.8-1249L1582.8-1249z"/>
		<path class="st0" d="M2019.6-1248.9L2019.6-1248.9c0-39.9-39-69.4-77.3-58.8c5-67.5-44.6-129.3-111.7-138.4s-133.2,38-145.3,105.6
			c-66.9-20-105.2,35.5-100.5,91.6H2019.6z"/>
		<path class="st0" d="M578.3-1248.9L578.3-1248.9c0-19.9-19.5-34.7-38.7-29.4c2.5-33.7-22.3-64.6-55.8-69.2s-66.6,19-72.6,52.8
			c-33.5-10-52.6,17.7-50.2,45.8H578.3L578.3-1248.9z"/>
	</g>
	<g class="st1">
		<path class="st0" d="M694.9-1337.5c0-13-12.7-22.7-25.3-19.3c1.7-22.1-14.6-42.4-36.6-45.4c-22.1-3-43.7,12.5-47.6,34.6
			c-14.8-4.6-30.8,5.5-33,20.9c-9.8-4.3-21.2-1.6-21.2,9.1L694.9-1337.5L694.9-1337.5z"/>
	</g>
	<g class="st1">
		<path class="st0" d="M179.6-1414.8h81.9c0-5.4-5.7-6.7-10.6-4.6c-1.1-7.7-9.1-12.7-16.5-10.4c-2-11.1-12.7-18.8-23.8-17.3
			s-19.2,11.6-18.4,22.7C185.9-1426.1,179.6-1421.3,179.6-1414.8L179.6-1414.8z"/>
	</g>
	<g class="st1">
		<path class="st0" d="M1132.3-1367.6H1296c0-10.7-11.4-13.4-21.2-9.1c-2.2-15.4-18.1-25.5-33-20.9c-3.9-22.2-25.5-37.7-47.6-34.6
			c-22.1,3-38.3,23.3-36.6,45.4C1145-1390.3,1132.3-1380.6,1132.3-1367.6L1132.3-1367.6z"/>
	</g>
	<g class="st1">
		<path class="st0" d="M1647.7-1444.8c0-6.5-6.4-11.4-12.7-9.6c0.8-11-7.3-21.2-18.3-22.7s-21.8,6.2-23.8,17.3
			c-7.4-2.3-15.4,2.8-16.5,10.4c-4.9-2.1-10.6-0.8-10.6,4.6H1647.7L1647.7-1444.8z"/>
	</g>
	<g class="st1">
		<path class="st0" d="M2059.9-1347.3c0-3.9-3.9-6.9-7.7-5.8c0.5-6.7-4.4-12.8-11.1-13.7c-6.7-0.9-13.2,3.8-14.4,10.5
			c-4.5-1.4-9.3,1.7-10,6.3c-3-1.3-6.4-0.5-6.4,2.8L2059.9-1347.3L2059.9-1347.3z"/>
	</g>
</g>
<g>
	<g>
		<g>
			
				<linearGradient id="SVGID_1_" gradientUnits="userSpaceOnUse" x1="-1831.575" y1="606.991" x2="-1831.575" y2="103.584" gradientTransform="matrix(-1 0 0 1 -1370.6973 0)">
				<stop  offset="0" style="stop-color:#FFFFFF;stop-opacity:0"/>
				<stop  offset="9.461686e-02" style="stop-color:#FFFFFF;stop-opacity:5.526882e-02"/>
				<stop  offset="0.856" style="stop-color:#FFFFFF;stop-opacity:0.5"/>
			</linearGradient>
			<path class="st2" d="M73.4,134.2c30.4-19.4,66.4-30.6,105.1-30.6c85.4,0,157.9,54.7,184.6,130.9c25.4-12,53.7-18.7,83.6-18.7
				c48.7,0,93.2,17.8,127.4,47.3c24-47.1,72.8-79.3,129.3-79.3c80.1,0,145,64.9,145,145c0,80.1-64.9,145-145,145
				c-24,0-46.7-5.9-66.6-16.2C616,543.3,538.8,607,446.7,607C361.3,607,288.8,552.3,262,476c-25.4,12-53.7,18.7-83.6,18.7
				c-38.7,0-74.7-11.3-105.1-30.6V134.2z"/>
		</g>
	</g>
	<g>
		<linearGradient id="SVGID_2_" gradientUnits="userSpaceOnUse" x1="1570.733" y1="601.7001" x2="1570.733" y2="137.2777">
			<stop  offset="0" style="stop-color:#FFFFFF;stop-opacity:0"/>
			<stop  offset="9.461686e-02" style="stop-color:#FFFFFF;stop-opacity:5.526882e-02"/>
			<stop  offset="0.856" style="stop-color:#FFFFFF;stop-opacity:0.5"/>
		</linearGradient>
		<path class="st3" d="M2374.4,597.7V168.2c-35.3-19.7-76-30.9-119.3-30.9c-107.3,0-198.4,68.8-231.9,164.7
			c-8.4-1.1-17-1.7-25.7-1.7c-38.9,0-75.1,11.5-105.5,31.2c-13.2-94.5-94.3-167.3-192.4-167.3c-85.4,0-158,55.2-184,131.8
			c-17.6-7.2-36.8-11.3-56.9-11.3c-70.4,0-129.5,48.7-145.3,114.3c-8.2-1.4-16.7-2.2-25.3-2.2c-47.8,0-90.4,22.5-117.8,57.4
			c-20.4-25.9-52.1-42.6-87.7-42.6c-10.7,0-21.1,1.5-30.9,4.4c-23.8-51.1-75.6-86.5-135.6-86.5c-82.6,0-149.6,67-149.6,149.6
			c0,50.8,25.4,95.7,64.1,122.7h170.9c0.4-0.3,0.7-0.5,1.1-0.8c0.2,0.3,0.5,0.5,0.8,0.8h423.6c2.6-6.5,4.8-13.2,6.4-20.1
			c8.2,1.4,16.7,2.2,25.3,2.2c52.8,0,99.3-27.4,125.9-68.8c32.2,23.7,72,37.8,115.1,37.8c38.9,0,75.1-11.5,105.5-31.2
			c4.1,29.3,14.7,56.5,30.3,80.1h539C2376.9,600.4,2371.8,599.1,2374.4,597.7z"/>
	</g>
	<g>
		<path class="st0" d="M2374.4,30c-62.6,21.1-109.4,76.6-118.1,144.1c-127,22.2-223.6,132.9-223.6,266.3c0,8.7,0.5,17.3,1.3,25.8
			c-7.9-1.1-15.9-1.7-24-1.7c-52.6,0-99.7,23.1-131.9,59.7c-37.2-104.9-137.2-180-254.9-180c-82.4,0-156.1,36.9-205.7,95
			c-4-0.3-8.1-0.5-12.2-0.5c-49,0-93.3,20-125.1,52.3c-27-16.8-58.8-26.6-92.9-26.6c-34.1,0-65.9,9.7-92.9,26.6
			c-31.9-32.3-76.2-52.3-125.1-52.3c-4.1,0-8.2,0.2-12.2,0.5c-49.6-58.1-123.3-95-205.7-95c-117.6,0-217.7,75.1-254.9,180
			c-32.2-36.6-79.4-59.7-131.9-59.7c-8.1,0-16.2,0.6-24,1.7c0.8-8.5,1.3-17.1,1.3-25.8c0-133.4-96.6-244.1-223.6-266.3
			C109.4,106.6,62.6,51.1,0,30v621.3h2374.4V30z"/>
	</g>
</g>
</svg>
