<svg id="Layer_1" xmlns="http://www.w3.org/2000/svg" viewBox="0 0 175 175"><style>.st0{fill:#ecf0f1}.st2{fill:#5a1a15}.st3{fill:#902b20}.st5{fill:#e74c3c}.st6,.st8{enable-background:new}.st8{opacity:5.000000e-02;fill:#3498db}.st9{fill:none;stroke:#3498db;stroke-width:1.08;stroke-linejoin:round}.st12,.st9{stroke-linecap:round}.st12,.st13{fill:none;stroke:#3498db;stroke-width:.72;stroke-linejoin:round}.st14{fill:#d6e3f4}.st15{fill:#8db9e3}.st16{fill:#69a7db}.st18,.st19{fill:none;stroke:#99a3a8;stroke-width:1.08;stroke-linecap:round;stroke-linejoin:round}.st19{stroke:#bdc3c7}</style><path class="st0" d="M105 175l-81.1-47.1 70-40.3 81.1 47.1z"/><path fill="#c0392b" d="M151 95.6l.1 52.8-46 26.6-.1-52.9z"/><path class="st2" d="M109.6 124.8l36.7-21.2.2 42.2-36.8 21.2z"/><path class="st3" d="M105.1 175L24 127.9 23.9 75l81.1 47.1z"/><path fill="#441410" d="M28.7 125.2l-.2-42.1 71.8 41.7.1 42.1z"/><path class="st5" d="M105 122.1L23.9 75l46-26.5L151 95.6zm41.3-18.5l-2.7 1.6.1 38.7-34 19.6v3.5l36.8-21.2zM28.5 83.1l3 1.7-.1 39.1 69.1 39.6-.1 3.5-71.7-41.8z"/><g class="st6"><path class="st2" d="M41.4 90.6l-.2 39-3.5.9.1-42z"/><path class="st3" d="M37.8 88.5l-.1 42-4.5-2.6.1-42z"/></g><g class="st6"><path class="st2" d="M63.5 103.4l-.2 39-3.5.9.1-42z"/><path class="st3" d="M59.9 101.3l-.1 42-4.5-2.6.1-42z"/></g><g class="st6"><path class="st2" d="M52.4 97l-.1 39-3.6.9.2-42z"/><path class="st3" d="M48.9 94.9l-.2 42-4.5-2.6.2-42z"/></g><g class="st6"><path class="st2" d="M74.5 109.9l-.2 39-3.5.9.2-42z"/><path class="st3" d="M71 107.8l-.2 42-4.5-2.6.2-42z"/></g><g class="st6"><path class="st2" d="M85.5 116.2l-.1 39-3.5.9.1-42z"/><path class="st3" d="M82 114.1l-.1 42-4.5-2.5.1-42.1z"/></g><g class="st6"><path class="st2" d="M96.6 122.7l-.2 39-3.5.9.2-42z"/><path class="st3" d="M93.1 120.6l-.2 42-4.5-2.6.2-42z"/></g><path class="st2" d="M28.7 125.2l-.2-42.1 3 1.7-.1 39.1z"/><path d="M129.7 84.8c0-.5 0-1-.1-1.5L93.2 62.2c-2.5-.2-5-.4-7.7-.4-24.4 0-44.1 10.3-44.1 23v.6l38.1 22.2c2 .1 3.9.2 6 .2 24.4 0 44.2-10.3 44.2-23z" opacity=".3" fill="#c0392b"/><ellipse class="st8" cx="138" cy="-85" rx="27.2" ry="14.1"/><path class="st9" d="M138-80.3s-2-8.7-18.6-20.7M138-80.3s-.3-9.9-8-17.6m8 17.6s2-8.7 18.6-20.7M138-80.3s.3-9.9 8-17.6M-48.2 95.2l.1 30.7-26.7 15.4-.1-30.7z"/><path class="st9" d="M-74.8 141.3l-55.9-32.6-.1-30.7 55.9 32.6zm-17.3-71.7l43.9 25.6-26.7 15.4-55.9-32.7 20.9-12.5"/><path fill="none" stroke="#3498db" stroke-linecap="round" stroke-linejoin="round" d="M-61.5 103.6v30"/><path d="M-52 101.7l.1 22-19.2 11-.1-22 19.2-11m0-.7c-.1 0-.3 0-.4.1l-19.1 11c-.2.1-.4.4-.4.7l.1 22c0 .4.3.8.8.8.1 0 .3 0 .4-.1l19.2-11c.2-.1.3-.4.3-.7v-22c-.1-.5-.4-.8-.9-.8zm-74.4-15.4l47.1 27.5.1 20.6-47.1-27.5-.1-20.6m0-.7c-.4 0-.8.3-.8.8l.1 20.6c0 .3.1.5.4.7l47.1 27.5c.4.2.8.1 1-.3.1-.1.1-.2.1-.4v-20.7c0-.3-.1-.5-.4-.7L-126 85c-.1-.1-.3-.1-.4-.1z" fill="#3498db"/><path class="st12" d="M-53.1 102.3l.1 20.6-18 10.4m-12.4-22.6l-.1 19.1-2.1.5.1-20.9zm-2.2 19.6l-2.3-1.3v-21.2m9.1 24.3l-4.6-2.6m-8.6-23.7v19.1l-2.1.5v-20.9zm-2.1 19.6l-2.3-1.3v-21.2m8.5 24.2l-4-2.3m-4.5-2.6l-4.5-2.6m.3-18.7l-.1 19-2 .5V99.5zm-2.1 19.5l-2.4-1.3.1-21.2m-4.1-1.9l-.1 19-2.1.5.1-20.9zm-2.2 19.5l-2.3-1.3.1-21.2m8.5 24.2l-4-2.3"/><path class="st13" d="M-117.6 91l-.1 19-2 .5V89.6zm-2.4 19.3l-2.3-1.3.1-21.2"/><path class="st12" d="M-113.7 112l-4-2.3"/><path class="st13" d="M-122.3 106.9l-4.4-2.5"/><path class="st8" d="M-34.9 125.2l-39.9 23.1-65-39.2 8.7-5.4-.1 5.3 56 32.5 26.2-15.7v-6.9z"/><path class="st9" d="M-90.7 26.7c18.3 0 27.2 15.5 27.2 28.2 0 10.7-16.3 14.7-27.2 14.7-10.3 0-27.2-4-27.2-14.7.1-12.7 8.9-28.2 27.2-28.2zm-18.4 39.1c0-10.8 2.4-35.2 18.5-39.1m18.4 39.1c0-10.8-2.4-35.2-18.5-39.1m0 0v42.9m.2 16.9s-2-8.7-18.6-20.7m18.6 20.7s-.3-9.9-8-17.6m8 17.6s2-8.7 18.6-20.7m-18.6 20.7s.3-9.9 8-17.6m13-38.6v.7m0 1.7v10.7m9-10.7v10.7M-65 28.6v6.7m-55.3 16.2v-.7m0-2.7V37.4m8.3-1.3v.7m0 2.7v10.7m-4.1-8.5v6.6"/><path class="st8" d="M-116.6 85.9c0-7.2 11.8-13.1 26.3-13.1 1.8 0 3.6.1 5.3.3l21 12.8C-64 93.1-75.8 99-90.3 99c-1.7 0-3.3-.1-4.9-.2l-21.4-12.9z"/><path class="st14" d="M71.1-113.8c18.3 0 27.2 15.5 27.2 28.2 0 10.7-16.3 14.7-27.2 14.7-10.3 0-27.2-4-27.2-14.7.1-12.7 8.9-28.2 27.2-28.2z"/><path class="st9" d="M52.7-74.7c0-10.8 2.4-35.2 18.5-39.1m18.4 39.1c0-10.8-2.4-35.2-18.5-39.1m0 0v42.9"/><path class="st15" d="M119.5-100.7c5.7 2.7 13 3.8 18.5 3.8v-42.9c-16 3.9-18.5 28-18.5 39.1z"/><path class="st16" d="M110.8-111.6c0 5 3.7 8.5 8.7 10.9 0-11 2.5-35.2 18.5-39.1-18.3 0-27.1 15.5-27.2 28.2z"/><path class="st9" d="M71.3-54s-2-8.7-18.6-20.7M71.3-54s-.3-9.9-8-17.6m8 17.6s2-8.7 18.6-20.7M71.3-54s.3-9.9 8-17.6m13-38.6v.7m0 1.7v10.7m4.5-14.8v6.7M41.5-89v-.7m0-2.7v-10.7m8.3-1.3v.7m0 2.7v10.7m-4.1-8.5v6.6"/><path class="st8" d="M45.2-54.6c0-7.2 11.8-13.1 26.3-13.1 1.8 0 3.6.1 5.3.3l21 12.8c0 7.2-11.8 13.1-26.3 13.1-1.7 0-3.3-.1-4.9-.2L45.2-54.6z"/><path class="st16" d="M138-139.8v42.9c5.8 0 13.1-1.1 18.6-3.8 0-11-2.5-35.2-18.6-39.1z"/><path class="st15" d="M165.2-111.6c0-12.7-8.9-28.2-27.2-28.2 16.1 3.9 18.6 28.1 18.6 39.1 5-2.3 8.6-5.9 8.6-10.9zM138-67.7c-11 0-18.2 15.5-18.3 28.2v11c3.3 1.5 7.2 2.5 10.9 3.1v-14.1c0-12.7 3.8-28.2 7.4-28.2z"/><path class="st16" d="M138-67.7c-18.3 0-27.1 15.5-27.2 28.2 0 5 3.7 8.5 8.7 10.9.1 0 .1.1.2.1v-11c.1-12.7 7.3-28.2 18.3-28.2z"/><path class="st16" d="M138-67.7c-3.7 0-7.4 15.5-7.4 28.2v14.1c2.6.4 5.2.6 7.4.6 2.3 0 4.9-.2 7.4-.6v-14.1c.1-12.7-3.7-28.2-7.4-28.2z"/><path class="st15" d="M138-67.7c3.7 0 7.5 15.5 7.4 28.2v14.1c3.8-.6 7.6-1.6 10.9-3.1v-11.1c.1-12.6-7.3-28.1-18.3-28.1z"/><path class="st16" d="M138-67.7c11 0 18.3 15.5 18.3 28.2v11.1c.1 0 .2-.1.3-.1 5-2.3 8.6-5.9 8.6-10.9 0-12.8-8.9-28.3-27.2-28.3z"/><path class="st15" d="M224.6 102.6c-18.3 0-27.1 15.5-27.2 28.2 0 5 3.7 8.5 8.7 10.9 5.7 2.7 13 3.8 18.5 3.8 5.8 0 13.1-1.1 18.6-3.8 5-2.3 8.6-5.9 8.6-10.9 0-12.7-8.9-28.2-27.2-28.2z"/><path class="st9" d="M224.6 102.6c-18.3 0-27.1 15.5-27.2 28.2m10.9 0c.1-12.7 5.3-28.2 16.3-28.2m-5.4 28.2c.1-12.7 1.8-28.2 5.4-28.2m5.5 28.2c0-12.7-1.8-28.2-5.4-28.2m16.2 28.2c0-12.7-5.3-28.2-16.3-28.2m27.2 28.2c0-12.7-8.9-28.2-27.2-28.2"/><path class="st15" d="M138-139.8c-2.2 0-4.4.2-6.3.7.6 1.5 3.2 2.7 6.3 2.7 3.1 0 5.7-1.1 6.3-2.7-1.9-.5-4-.7-6.3-.7zm6.7 365.1l.2 52.9-46 26.6-.2-52.9z"/><path class="st16" d="M103.4 254.6l36.7-21.3.1 42.2-36.7 21.2zm-4.5 50.2l-81.1-47.2-.1-52.8 81 47.1z"/><path fill="#4b87af" d="M22.4 255l-.1-42.1 71.8 41.7.1 42.1z"/><path class="st14" d="M98.7 251.9l-81-47.1 46-26.6 81 47.1zm41.4-18.6l-2.8 1.6.2 38.8-34 19.6v3.4l36.7-21.2z"/><path class="st15" d="M22.3 212.9l3 1.7-.2 39.1 69.1 39.6v3.4L22.4 255zM138-67.7c-2.2 0-4.4.2-6.3.7.6 1.5 3.2 2.7 6.3 2.7 3.1 0 5.7-1.1 6.3-2.7-1.9-.5-4-.7-6.3-.7z"/><path class="st18" d="M87.5 85.8S84.6 73.3 60.7 56"/><path class="st19" d="M87.5 85.8S87.1 71.5 76 60.4"/><path class="st18" d="M87.5 85.8s2.9-12.5 26.8-29.8"/><path class="st19" d="M87.5 85.8s.4-14.3 11.5-25.4"/><path class="st5" d="M60.8 56.4c8.2 3.9 18.8 5.5 26.7 5.5V0C64.3 5.6 60.8 40.5 60.8 56.4z"/><path class="st0" d="M48.3 40.7c0 7.2 5.3 12.3 12.5 15.7 0-15.9 3.5-50.8 26.7-56.4-26.4 0-39.1 22.4-39.2 40.7zM87.5 0v61.9c8.3 0 18.8-1.6 26.9-5.4-.1-15.9-3.7-50.9-26.9-56.5z"/><path class="st5" d="M126.7 40.7C126.7 22.4 113.9 0 87.5 0c23.2 5.6 26.8 40.6 26.9 56.4 7.1-3.4 12.3-8.5 12.3-15.7z"/><path class="st0" d="M87.5 0c-3.2 0-6.3.3-9.1 1 .9 2.2 4.6 3.8 9.1 3.8s8.2-1.6 9.1-3.8c-2.8-.7-5.9-1-9.1-1z"/></svg>