<svg id="Layer_1" xmlns="http://www.w3.org/2000/svg" xmlns:xlink="http://www.w3.org/1999/xlink" viewBox="0 0 175 175"><style>.st0{fill:#ecf0f1}.st1{enable-background:new}.st2{fill:#dee1e3}.st3{fill:#69a7db}.st4{fill:#317bac}.st5{fill:#265f84}.st6{fill:#1a425d}.st8,.st9{fill:none;stroke:#3498db;stroke-width:.72;stroke-linejoin:round}.st9{stroke-width:1.08}.st11,.st14{fill:#3498db}.st14{opacity:5.000000e-02;enable-background:new}.st15{fill:#8db9e3}.st19{fill:#fff}.st21{fill:#858585}.st24{fill:#c5c5c5}.st25{fill:#dbdbdb}.st26{fill:#888}.st28{fill:#bdc3c7}.st32{fill:#7b7d7d}.st33{fill:#7f8282}.st34{fill:#848687}.st35{fill:#898b8c}.st36{fill:#8e9091}.st37{fill:#929595}.st49{fill:#d4d8d9}.st50{fill:#d9ddde}.st51{fill:#dee2e3}.st52{fill:#e3e6e7}.st53{fill:#e7ebec}.st54{fill:#eef2f3}.st55{fill:#eff3f3}.st56{fill:#f0f3f4}.st57{fill:#f1f4f4}.st59{fill:#389ea8}.st60{fill:#c9e9ec}.st61{fill:#78c9cf}</style><path class="st0" d="M109.6 131.2l-7-4.1 46.3-26.7 7 4.1zM23.3 181l-7.1-4.1 46.4-26.8 7 4.1z"/><g class="st1"><path class="st2" d="M155.9 64.2c0 4.4-3.1 9.8-6.9 12 0 4.4-3.1 9.8-7 12 0 4.4-3.1 9.8-7 12L109.7 115l-.1-24 46.3-26.8z"/><path class="st3" d="M109.7 115l-7.1-4.1V86.8l7 4.1z"/><path class="st0" d="M109.6 90.9l-7-4.1 46.3-26.7 7 4.1z"/></g><path class="st0" d="M105 175l-81.1-47.1 70-40.3 81.1 47.1z"/><path class="st4" d="M151 95.6l.1 52.8-46 26.6-.1-52.9z"/><path class="st5" d="M109.6 124.8l36.7-21.2.2 42.2-36.8 21.2zm-4.5 50.2L24 127.9 23.9 75l81.1 47.1z"/><path class="st6" d="M28.7 125.2l-.2-42.1 71.8 41.7.1 42.1z"/><path d="M105 122.1L23.9 75l46-26.5L151 95.6zm41.3-18.5l-2.7 1.6.1 38.7-34 19.6v3.5l36.8-21.2zM28.5 83.1l3 1.7-.1 39.1 69.1 39.6-.1 3.5-71.7-41.8z" fill="#3d98d3"/><g class="st1"><path class="st4" d="M41.4 90.6l-.2 39-3.5.9.1-42z"/><path class="st5" d="M37.8 88.5l-.1 42-4.5-2.6.1-42z"/></g><g class="st1"><path class="st4" d="M63.5 103.4l-.2 39-3.5.9.1-42z"/><path class="st5" d="M59.9 101.3l-.1 42-4.5-2.6.1-42z"/></g><g class="st1"><path class="st4" d="M52.4 97l-.1 39-3.6.9.2-42z"/><path class="st5" d="M48.9 94.9l-.2 42-4.5-2.6.2-42z"/></g><g class="st1"><path class="st4" d="M74.5 109.9l-.2 39-3.5.9.2-42z"/><path class="st5" d="M71 107.8l-.2 42-4.5-2.6.2-42z"/></g><g class="st1"><path class="st4" d="M85.5 116.2l-.1 39-3.5.9.1-42z"/><path class="st5" d="M82 114.1l-.1 42-4.5-2.5.1-42.1z"/></g><g class="st1"><path class="st4" d="M96.6 122.7l-.2 39-3.5.9.2-42z"/><path class="st5" d="M93.1 120.6l-.2 42-4.5-2.6.2-42z"/></g><path class="st4" d="M28.7 125.2l-.2-42.1 3 1.7-.1 39.1z"/><path class="st8" d="M339.6 58.4l21.3-12.3c-.1 2.4-1.4 4.6-3.4 5.9l-1.5.9c-.1 2.4-1.4 4.6-3.4 5.9l-1.5 1c-.1 1.8-.8 3.5-2 4.8m-13.3-8.5L357 43.8l3.9 2.3"/><path class="st9" d="M355.1 67.4l.1 30.7-26.7 15.4-.1-30.7zm-72.3 19.5l-10.2-6-.1-30.7 55.9 32.6.1 30.7-29.2-17m29.1-13.7l-55.9-32.6 26.7-15.5 55.9 32.7z"/><path fill="none" stroke="#3498db" stroke-linecap="round" stroke-linejoin="round" d="M342.6 75.1v30"/><path class="st11" d="M351.3 73.9l.1 22-19.2 11-.1-22 19.2-11m0-.7c-.1 0-.3 0-.4.1l-19.1 11c-.2.1-.4.4-.4.7l.1 22c0 .4.3.8.8.8.1 0 .3 0 .4-.1l19.2-11.1c.2-.1.3-.4.3-.7v-22c-.1-.4-.4-.7-.9-.7z"/><path fill="none" stroke="#3498db" stroke-width=".76" stroke-linecap="round" stroke-linejoin="round" d="M287.2 84.4l-10.2-6-.1-20.5L324 85.3v20.6L303.6 94"/><path class="st8" d="M350.2 74.3l.1 20.8-18 10.4m-12.4-22.4l-.1 18.5-2.1.5.1-20.4zm-2.2 19l-2.3-1.3V80.4m8.6 23.7l-4.2-2.5m-8.5-23.2v18.1l-2.1.6.1-20.1zm-2.1 18.7l-2.3-1.4V75.4m8.5 23.7l-4.4-2.6m-4.1-2.1l-2.4-1.4m-1.8-19.9l-.1 2.7-2 1.2v-5.3zm-4.5 5.2l.1-8.2m-4.1-1.9l-.1 12.5-2.1 1 .1-14.9zm-4.5 15.2l.1-18.2m-4.1-2.1l-.1 18.7-2 .5V61.8zm-2.4 19l-2.3-1.3.1-20.5m7.5 23.4l-3-1.8m-4.6-2.8l-4.2-2.2"/><defs><path id="SVGID_1_" d="M283.1 95.3l-4.4-2.5c-.8-.6-1.2-1.5-1.1-2.5l4.4 2.5c-.1.9.3 1.9 1.1 2.5z"/></defs><clipPath id="SVGID_2_"><use xlink:href="#SVGID_1_" overflow="visible"/></clipPath><g clip-path="url(#SVGID_2_)"><path class="st11" d="M283.1 95.3l-4.4-2.5c-.8-.6-1.2-1.5-1.1-2.5l4.4 2.5c-.1.9.3 1.9 1.1 2.5"/></g><path class="st9" d="M283.1 95.3l-4.4-2.5c-.8-.6-1.2-1.5-1.1-2.5l4.4 2.5c-.1.9.3 1.9 1.1 2.5z"/><path class="st11" d="M287.5 94l-1.7 1c-.2.1-.3.2-.5.2l3 1.8c.3.1.6.1.7-.2v-.1c-.8-.2-1.5-1.2-1.5-2.7z"/><path class="st8" d="M282 92.7l-4.3-2.5 24.9-14.4 4.3 2.6z"/><path class="st11" d="M293 95.2l-1.7 1c-.2.1-.3.2-.5.2l3 1.8c.3.1.6.1.7-.2v-.1c-.8-.2-1.4-1.1-1.5-2.7z"/><path class="st8" d="M307 91.6l-10.1 5.9c-2.1 1.2-3.8.3-3.8-2.2l-1.7 1c-2.1 1.2-3.8.3-3.8-2.2l-1.7 1c-2.1 1.2-3.8.3-3.8-2.2L307 78.5"/><path class="st14" d="M288.3 96.2c.1.1.2.2.3.2-.1 0-.2-.1-.3-.2zm-.4-.5c.1.1.1.2.2.4-.1-.2-.1-.3-.2-.4zm.9.8c.1.1.3.1.4.1-.2 0-.3 0-.4-.1zm4.3-.3c0 .2.1.4.2.6-.1-.2-.2-.4-.2-.6zm.3.7c.1.1.1.3.2.4-.1-.1-.1-.3-.2-.4zm-5.8-2c0 .2.1.4.2.6-.1-.2-.1-.4-.2-.6zm5.4.3c0 .3 0 .5.1.8 0-.2-.1-.5-.1-.8z"/><path class="st14" d="M342.2 104.8l-13 8.7-30.6-17-1.7 1c-.8.5-1.8.6-2.6.3.1.1.3.1.4.1v.1c-.1.3-.5.3-.7.2l-3-1.8c-.5.3-1.1.3-1.7.2v.1c-.1.3-.5.3-.7.2l-3-1.8c.2-.1.3-.1.5-.2-.9.7-2.1.7-2.9.1.1.1.2.2.3.2l-4.4-2.5c-.3-.2-.5-.4-.7-.8l-14.5 9.3 65 39.2 40-23-26.7-12.6z"/><path class="st14" d="M293.8 97.4c.1.1.2.2.3.2-.1 0-.2-.1-.3-.2zm-6.3-3.4c0 .3 0 .5.1.8 0-.3-.1-.6-.1-.8zm-5.2.3c-.1-.2-.1-.3-.1-.5 0 .2.1.4.1.5zm-.2-.7c-.1-.3-.1-.6-.1-.9 0 .3 0 .6.1.9zm.6 1.3c-.1-.1-.1-.2-.2-.3 0 .1.1.2.2.3z"/><path class="st15" d="M-41.7 15.9l.1 52.9-46 26.6-.1-52.9z"/><path class="st3" d="M-83.1 45.2L-46.3 24l.1 42.1L-83 87.3zm-4.5 50.2l-81-47.1-.2-52.9 81.1 47.1z"/><path fill="#4b87af" d="M-164 45.6l-.1-42.1 71.7 41.7.2 42.1z"/><path d="M-87.7 42.5l-81.1-47.1 46-26.6 81.1 47.1zM-46.3 24l-2.8 1.6.1 38.7-34 19.6v3.4l36.8-21.2z" fill="#d6e3f4"/><path class="st15" d="M-164.1 3.5l2.9 1.7-.1 39.1 69.1 39.6v3.4L-164 45.6z"/><path d="M-336.1 6.2s-2.9-12.5-26.8-29.8m26.8 29.8s-.4-14.3-11.5-25.4m11.5 25.4s2.9-12.5 26.8-29.8m-26.8 29.8s.4-14.3 11.5-25.4" fill="none" stroke="#3498db" stroke-width="1.08" stroke-linecap="round" stroke-linejoin="round"/><path class="st15" d="M-362.8-23.3c8.2 3.9 18.8 5.5 26.7 5.5v-61.9c-23.2 5.7-26.7 40.5-26.7 56.4z"/><path class="st3" d="M-375.3-39c0 7.2 5.3 12.3 12.5 15.7.1-15.9 3.5-50.7 26.7-56.4-26.4.1-39.1 22.4-39.2 40.7zm39.2-40.6v61.9c8.3 0 18.8-1.6 26.9-5.4-.1-16-3.7-50.9-26.9-56.5z"/><path class="st15" d="M-296.9-39c0-18.3-12.8-40.7-39.2-40.7 23.2 5.6 26.8 40.6 26.9 56.4 7.1-3.3 12.3-8.4 12.3-15.7z"/><path class="st15" d="M-336.1-79.6c-3.2 0-6.3.3-9.1 1 .9 2.2 4.6 3.8 9.1 3.8s8.2-1.6 9.1-3.8c-2.8-.7-5.9-1-9.1-1z"/><path class="st19" d="M180.3 9.8c0 5.4 4.4 9.8 9.8 9.8h55.5V9.8h-65.3zm65.3 9.9v9.8H200c-5.4 0-9.8-4.4-9.8-9.8h55.4z"/><path class="st19" d="M245.6 29.5v9.8h-35.8c-5.4 0-9.8-4.4-9.8-9.8h45.6z"/><g class="st1"><g class="st1"><defs><path id="SVGID_3_" class="st1" d="M311.8 155.6l-7-4.1c-1.3-.7-2-2.3-2-4.5l7 4.1c-.1 2.2.7 3.8 2 4.5z"/></defs><clipPath id="SVGID_4_"><use xlink:href="#SVGID_3_" overflow="visible"/></clipPath><g clip-path="url(#SVGID_4_)"><path class="st21" d="M311.8 155.6l-7-4.1c-1.3-.7-2-2.3-2-4.5l7 4.1c-.1 2.2.7 3.8 2 4.5"/></g></g><g class="st1"><defs><path id="SVGID_5_" class="st1" d="M304.8 151.6l-7-4.1c-1.3-.7-2-2.3-2-4.5l7 4.1c-.1 2.2.7 3.8 2 4.5z"/></defs><clipPath id="SVGID_6_"><use xlink:href="#SVGID_5_" overflow="visible"/></clipPath><g clip-path="url(#SVGID_6_)"><path class="st21" d="M304.8 151.6l-7-4.1c-1.3-.7-2-2.3-2-4.5l7 4.1c-.1 2.2.7 3.8 2 4.5"/></g></g><g class="st1"><defs><path id="SVGID_7_" class="st1" d="M297.8 147.6l-7-4.1c-1.3-.7-2-2.3-2-4.5l7 4.1c-.1 2.2.7 3.8 2 4.5z"/></defs><clipPath id="SVGID_8_"><use xlink:href="#SVGID_7_" overflow="visible"/></clipPath><g clip-path="url(#SVGID_8_)"><path class="st21" d="M297.8 147.6l-7-4.1c-1.3-.7-2-2.3-2-4.5l7 4.1c-.1 2.2.7 3.8 2 4.5"/></g></g><path class="st24" d="M342 116.4v24l-25.4 14.7c-3.8 2.2-7 .4-7-4-3.9 2.2-7 .4-7-4-3.8 2.2-7 .4-7-4l46.4-26.7z"/><path class="st25" d="M295.7 143.1l-7-4.1 46.3-26.7 7 4.1z"/></g><g class="st1"><path class="st26" d="M295.8 221.7l-7.1-4.1v-8l7.1 4.1z"/><path class="st26" d="M295.8 213.7l-7.1-4.1v-8l7 4.1z"/><path class="st24" d="M342 170.9c0 4.4-3.1 9.8-6.9 12 0 4.4-3.1 9.8-7 12 0 4.4-3.1 9.8-7 12l-25.4 14.7v-24l46.3-26.7z"/><path class="st26" d="M295.7 205.7l-7-4.1v-8.1l7 4.1z"/><path class="st25" d="M295.7 197.6l-7-4.1 46.3-26.7 7 4.1z"/></g><g class="st1"><defs><path id="SVGID_9_" class="st1" d="M39.3 153.1l-7-4.1c-1.3-.7-2-2.3-2-4.5l7 4.1c0 2.2.8 3.8 2 4.5z"/></defs><clipPath id="SVGID_10_"><use xlink:href="#SVGID_9_" overflow="visible"/></clipPath><g clip-path="url(#SVGID_10_)"><path class="st28" d="M39.3 153.1l-7-4.1c-1.3-.7-2-2.3-2-4.5l7 4.1c0 2.2.8 3.8 2 4.5"/></g></g><g class="st1"><defs><path id="SVGID_11_" class="st1" d="M32.3 149.1l-7-4.1c-1.3-.7-2-2.3-2-4.5l7 4.1c0 2.3.8 3.8 2 4.5z"/></defs><clipPath id="SVGID_12_"><use xlink:href="#SVGID_11_" overflow="visible"/></clipPath><g clip-path="url(#SVGID_12_)"><path class="st28" d="M32.3 149.1l-7-4.1c-1.3-.7-2-2.3-2-4.5l7 4.1c0 2.3.8 3.8 2 4.5"/></g></g><g class="st1"><defs><path id="SVGID_13_" class="st1" d="M25.3 145.1l-7-4.1c-1.3-.7-2-2.3-2-4.5l7 4.1c0 2.3.8 3.8 2 4.5z"/></defs><clipPath id="SVGID_14_"><use xlink:href="#SVGID_13_" overflow="visible"/></clipPath><g clip-path="url(#SVGID_14_)"><path class="st28" d="M25.3 145.1l-7-4.1c-1.3-.7-2-2.3-2-4.5l7 4.1c0 2.3.8 3.8 2 4.5"/></g></g><path class="st2" d="M69.6 113.9l.1 24-25.4 14.7c-3.8 2.2-7 .4-7-4-3.9 2.2-7 .4-7-4-3.8 2.2-7 .4-7-4l46.3-26.7z"/><path class="st0" d="M23.3 140.7l-7.1-4.1 46.4-26.8 7 4.1z"/><g class="st1"><path class="st6" d="M174 7.8V6.4c0-.1 0-.1-.1-.2V6c0-.1 0-.1-.1-.2 0-.1 0-.1-.1-.2 0-.1 0-.1-.1-.2 0-.1 0-.1-.1-.2 0 0 0-.1-.1-.1 0-.1-.1-.1-.1-.2s-.1-.1-.1-.2-.1-.1-.1-.2-.1-.2-.1-.2c-.1-.2-.2-.3-.3-.4-.1-.1-.2-.2-.2-.3l-.2-.2c0-.1-.1-.1-.1-.2s-.1-.1-.1-.2-.1-.1-.1-.2l-.1-.1-.2-.2-.2-.2c-.1 0-.1-.1-.2-.1 0 0-.1 0-.1-.1l-.1-.1c-.1 0-.1-.1-.2-.1s-.1-.1-.2-.1-.1-.1-.2-.1-.1-.1-.2-.1c0 0-.1 0-.1-.1-.1 0-.1-.1-.2-.1s-.1 0-.2-.1c0 0-.1 0-.1-.1-.1 0-.1 0-.1-.1h-1.4c-.1 0-.2 0-.2.1-.1 0-.2.1-.3.1l-70.5 41c.2-.1.4-.2.5-.2.2 0 .4-.1.6 0 .2 0 .4.1.7.1.2.1.5.2.7.3.3.1.5.3.7.5.2.2.5.4.7.6.2.2.4.5.6.8.2.3.4.5.5.8.2.3.3.6.4.9l.3.9c.1.3.2.6.2.9 0 .3.1.6.1.9 0 .3 0 .6-.1.8 0 .2-.1.5-.2.7-.1.2-.2.3-.3.4l-.1.1c-.1.1-.3.2-.4.3l70.5-41c.2-.1.3-.2.4-.3l.1-.1c0-.1.1-.1.1-.2.1-.1.1-.2.1-.3 0-.1.1-.1.1-.2s0-.1.1-.2V7.6c.5.3.5.2.5.2z"/><path class="st3" d="M99.8 42.5c2.1 1.2 3.7 4.1 3.7 6.4 0 2.4-1.7 3.3-3.7 2.1-2.1-1.2-3.7-4.1-3.7-6.4 0-2.4 1.6-3.3 3.7-2.1z"/></g><path class="st4" d="M102.4 95.1l23.8-13.8-10.5-6.1L97.2 86c-.7.4-1.1 1.2-1.1 2.4 0 2.4 1.7 5.2 3.7 6.4 1 .6 1.9.6 2.6.3z"/><g class="st1"><path class="st4" d="M115.3 41.7v-1.4c0-.1 0-.1-.1-.2v-.2c0-.1 0-.1-.1-.2 0-.1 0-.1-.1-.2 0-.1 0-.1-.1-.2 0-.1 0-.1-.1-.2 0 0 0-.1-.1-.1 0-.1-.1-.1-.1-.2s-.1-.1-.1-.2-.1-.1-.1-.2-.1-.2-.1-.2c-.1-.2-.2-.3-.3-.4-.1-.1-.2-.2-.2-.3l-.2-.2c0-.1-.1-.1-.1-.2s-.1-.1-.1-.2-.1-.1-.1-.2l-.1-.1-.2-.2-.2-.2c-.1 0-.1-.1-.2-.1 0 0-.1 0-.1-.1l-.1-.1c-.1 0-.1-.1-.2-.1s-.1-.1-.2-.1-.1-.1-.2-.1-.1-.1-.2-.1c0 0-.1 0-.1-.1-.1 0-.1-.1-.2-.1s-.1 0-.2-.1c0 0-.1 0-.1-.1-.1 0-.1 0-.1-.1h-1.4c-.1 0-.2 0-.2.1-.1 0-.2.1-.3.1l-11.8 7c.2-.1.4-.2.5-.2.2 0 .4-.1.6 0 .2 0 .4.1.7.1.2.1.5.2.7.3.3.1.5.3.7.5.2.2.5.4.7.6.2.2.4.5.6.8.2.3.4.5.5.8.2.3.3.6.4.9l.3.9c.1.3.2.6.2.9 0 .3.1.6.1.9 0 .3 0 .6-.1.8 0 .2-.1.5-.2.7-.1.2-.2.3-.3.4l-.1.1c-.1.1-.3.2-.4.3l11.8-7c.2-.1.3-.2.4-.3l.1-.1c0-.1.1-.1.1-.2.1-.1.1-.2.1-.3 0-.1.1-.1.1-.2s0-.1.1-.2v-1.2c.5.3.5.3.5.2z"/><path class="st5" d="M99.8 42.5c2.1 1.2 3.7 4.1 3.7 6.4 0 2.4-1.7 3.3-3.7 2.1-2.1-1.2-3.7-4.1-3.7-6.4 0-2.4 1.6-3.3 3.7-2.1z"/></g><ellipse class="st0" cx="210.1" cy="152.1" rx="17.9" ry="18.3"/><g class="st1"><g class="st1"><defs><path id="SVGID_15_" class="st1" d="M204.7 94.1l3.5-2c-2.2 1.3-3.9 3.7-4.5 7l-3.5 2c.6-3.3 2.2-5.7 4.5-7z"/></defs><clipPath id="SVGID_16_"><use xlink:href="#SVGID_15_" overflow="visible"/></clipPath><g clip-path="url(#SVGID_16_)"><path class="st32" d="M204.7 94.1l3.5-2c-1.2.7-2.1 1.6-2.9 2.9l-3.5 2c.7-1.3 1.7-2.2 2.9-2.9"/><path class="st33" d="M201.7 97l3.5-2c-.2.4-.4.7-.6 1.1l-3.5 2c.2-.4.4-.8.6-1.1"/><path class="st34" d="M201.1 98.1l3.5-2c-.1.3-.3.6-.4 1l-3.5 2c.1-.4.3-.7.4-1"/><path class="st35" d="M200.7 99.1l3.5-2-.3.9-3.5 2 .3-.9"/><path class="st36" d="M200.4 100l3.5-2c-.1.3-.2.6-.2.8l-3.5 2c.1-.3.1-.6.2-.8"/><path class="st37" d="M200.2 100.8l3.5-2c0 .1 0 .2-.1.3l-3.5 2c0-.1.1-.2.1-.3"/></g></g><g class="st1"><defs><path id="SVGID_17_" class="st1" d="M199.2 76.3l-3.5 2c-2.2 1.3-5 1.5-8.2.5l3.5-2c3.1 1.1 6 .8 8.2-.5z"/></defs><clipPath id="SVGID_18_"><use xlink:href="#SVGID_17_" overflow="visible"/></clipPath><g clip-path="url(#SVGID_18_)"><path d="M187.4 78.9l3.5-2h.2l-3.5 2h-.2" fill="#a5a8a9"/><path d="M187.6 79l3.5-2c.2.1.5.1.7.2l-3.5 2c-.2-.1-.5-.2-.7-.2" fill="#a0a3a4"/><path d="M188.3 79.2l3.5-2c.2.1.5.1.7.2l-3.5 2c-.2-.1-.5-.2-.7-.2" fill="#9c9e9f"/><path d="M189 79.3l3.5-2c.2 0 .5.1.7.1l-3.5 2c-.2 0-.5 0-.7-.1" fill="#979a9a"/><path class="st37" d="M189.7 79.4l3.5-2c.3 0 .5.1.8.1l-3.5 2c-.3 0-.5 0-.8-.1"/><path class="st36" d="M190.5 79.5l3.5-2h.8l-3.5 2h-.8"/><path class="st35" d="M191.3 79.5l3.5-2h.9l-3.5 2h-.9"/><path class="st34" d="M192.1 79.5l3.5-2c.3 0 .7-.1 1-.1l-3.5 2c-.3 0-.6.1-1 .1"/><path class="st33" d="M193.1 79.4l3.5-2 1.2-.3-3.5 2-1.2.3"/><path class="st32" d="M194.3 79l3.5-2c.5-.2 1-.4 1.4-.6l-3.5 2c-.5.3-1 .5-1.4.6"/></g></g><path d="M200.2 71.4c1.3 8.2 6.3 16.9 12.7 22.2-6.4-2-11.4.9-12.8 7.5-1.3-8.2-6.3-16.9-12.7-22.2 6.4 2 11.4-.9 12.8-7.5z" fill="#7f8181"/><g class="st1"><defs><path id="SVGID_19_" class="st1" d="M200.2 71.4l3.5-2c1.3 8.2 6.3 16.9 12.7 22.2l-3.5 2c-6.4-5.4-11.4-14.1-12.7-22.2z"/></defs><clipPath id="SVGID_20_"><use xlink:href="#SVGID_19_" overflow="visible"/></clipPath><g clip-path="url(#SVGID_20_)"><path d="M200.2 71.4l3.5-2c0 .2.1.5.1.7l-3.5 2c0-.2-.1-.5-.1-.7" fill="#c2c5c6"/><path d="M200.3 72.1l3.5-2c.1.3.1.6.2.9l-3.5 2c-.1-.3-.1-.6-.2-.9" fill="#c6caca"/><path d="M200.5 73l3.5-2c.1.3.1.6.2.9l-3.5 2c-.1-.3-.1-.6-.2-.9" fill="#cbcecf"/><path d="M200.7 73.9l3.5-2c.1.3.2.6.2.9l-3.5 2c0-.3-.1-.6-.2-.9" fill="#d0d3d4"/><path class="st49" d="M200.9 74.8l3.5-2 .3.9-3.5 2c-.1-.4-.2-.6-.3-.9"/><path class="st50" d="M201.2 75.6l3.5-2 .3.9-3.5 2-.3-.9"/><path class="st51" d="M201.5 76.5l3.5-2 .3.9-3.5 2-.3-.9"/><path class="st52" d="M201.8 77.4l3.5-2c.1.3.2.6.3.8l-3.5 2c-.1-.3-.2-.5-.3-.8"/><path class="st53" d="M202.1 78.2l3.5-2c.1.3.2.5.3.8l-3.5 2c-.1-.3-.2-.5-.3-.8"/><path class="st0" d="M202.4 79l3.5-2c.1.3.2.5.3.8l-3.5 2c-.1-.3-.2-.5-.3-.8"/><path class="st54" d="M202.8 79.8l3.5-2c.1.3.2.5.4.8l-3.5 2c-.2-.2-.3-.5-.4-.8"/><path class="st55" d="M203.1 80.6l3.5-2c.1.3.3.6.4.9l-3.5 2c-.1-.3-.2-.6-.4-.9"/><path class="st56" d="M203.6 81.5l3.5-2c.2.3.3.6.5 1l-3.5 2c-.2-.4-.4-.7-.5-1"/><path class="st57" d="M204.1 82.5l3.5-2c.3.5.5 1 .8 1.5l-3.5 2c-.3-.5-.6-1-.8-1.5"/><path d="M204.9 84l3.5-2c.4.7.9 1.5 1.4 2.2l-3.5 2c-.5-.8-1-1.5-1.4-2.2" fill="#f1f4f5"/><path class="st57" d="M206.3 86.1l3.5-2c.3.5.7.9 1 1.4l-3.5 2c-.4-.4-.7-.9-1-1.4"/><path class="st56" d="M207.3 87.6l3.5-2c.2.3.5.6.7.9l-3.5 2c-.3-.3-.5-.6-.7-.9"/><path class="st55" d="M208 88.5l3.5-2c.2.3.4.5.7.8l-3.5 2c-.3-.3-.5-.5-.7-.8"/><path class="st54" d="M208.6 89.3l3.5-2c.2.3.4.5.6.8l-3.5 2c-.1-.3-.3-.5-.6-.8"/><path class="st0" d="M209.3 90.1l3.5-2c.2.2.4.5.7.7l-3.5 2c-.3-.2-.5-.5-.7-.7"/><path class="st53" d="M209.9 90.8l3.5-2 .7.7-3.5 2c-.2-.2-.4-.5-.7-.7"/><path class="st52" d="M210.6 91.5l3.5-2 .7.7-3.5 2-.7-.7"/><path class="st51" d="M211.3 92.2l3.5-2 .7.7-3.5 2-.7-.7"/><path class="st50" d="M212.1 92.9l3.5-2c.2.2.5.4.8.7l-3.5 2c-.3-.2-.6-.5-.8-.7"/><path class="st49" d="M212.8 93.6l3.5-2-3.5 2c.1 0 .1 0 0 0"/></g></g></g><g class="st1"><path class="st59" d="M84.8 36.4l.3-.9c.1-.2.1-.3.2-.4.1-.2.2-.4.2-.5.1-.3.3-.5.4-.8.1-.1.1-.2.2-.3.1-.2.2-.3.4-.5.1-.1.2-.2.3-.4.1-.2.3-.3.4-.5l.3-.3c.2-.2.3-.3.5-.4.1-.1.2-.1.3-.2.3-.2.5-.4.8-.5l-3.5 2c-.3.2-.6.3-.8.5-.1.1-.2.1-.3.2-.2.1-.3.3-.5.4l-.3.3c-.1.1-.3.3-.4.5-.1.1-.2.2-.3.4-.1.2-.2.3-.4.5 0 .1-.1.2-.1.2-.1.2-.3.5-.4.8 0 0 0 .1-.1.1-.1.1-.1.3-.2.4-.1.1-.1.3-.2.4 0 0 0 .1-.1.1-.1.3-.2.5-.3.8v.1c-.1.3-.2.6-.2.8 0 .1 0 .2-.1.3l3.5-2c.2-.3.3-.7.4-1.1z"/><path class="st60" d="M76.5 16.9l3.5-2c-.3.1-.5.3-.8.4-.1 0-.2.1-.3.1-.2.1-.3.1-.5.2s-.5.1-.8.2c-.1 0-.2.1-.3.1-.1 0-.3 0-.4.1-.2 0-.4.1-.6.1H75c-.3 0-.6 0-.9-.1H74c-.3 0-.7-.1-1-.2h-.2c-.4-.1-.7-.2-1.1-.3l-3.5 2h.2c.2.1.5.1.7.2h.4c.1 0 .2 0 .3.1.2 0 .5.1.7.1h.1c.2 0 .4.1.7.1h1.6c.1 0 .3 0 .4-.1.2 0 .3 0 .4-.1h.1c.1 0 .2 0 .2-.1.3-.1.5-.1.8-.2h.2c.1 0 .2-.1.4-.1.1 0 .2-.1.3-.1.3-.1.6-.2.8-.4z"/><path class="st61" d="M81.1 9.9c1.3 8.2 6.3 16.9 12.7 22.2-6.4-2-11.4.9-12.8 7.5-1.3-8.2-6.3-16.9-12.7-22.2 6.4 2.1 11.4-.9 12.8-7.5z"/></g><path class="st60" d="M96.2 29.2c-.1-.1-.2-.1-.2-.2-.3-.3-.7-.6-1-1l-.1-.1c-.3-.3-.6-.6-.9-1l-.2-.2c-.3-.4-.6-.7-.9-1.1-.1-.1-.1-.2-.2-.2-.3-.3-.5-.6-.8-1-.1-.1-.1-.2-.2-.2-.1-.2-.3-.4-.4-.6-.2-.3-.4-.5-.6-.8-.1-.1-.1-.2-.2-.3-.4-.6-.7-1.1-1.1-1.7-2.4-4.1-4.2-8.5-4.9-12.9l-3.5 2c.7 4.2 2.4 8.6 4.7 12.6.1.1.1.2.2.3.3.6.7 1.2 1.1 1.7 0 .1.1.1.1.2 0 0 0 .1.1.1.2.3.4.5.6.8.1.2.2.3.4.5 0 0 0 .1.1.1.1.1.1.2.2.2.2.2.3.4.5.6.1.1.2.2.3.4.1.1.1.2.2.2l.2.2c.2.3.4.5.6.8l.1.1.2.2.4.4c.2.2.4.4.5.6l.1.1.7.7c.1.1.2.1.2.2.1.1.2.1.2.2.1.1.2.2.3.2.2.2.5.4.8.7l3.5-2c-.4-.2-.7-.5-1.1-.8z"/><g class="st1"><path class="st59" d="M107.5 23.3c0-.1.1-.3.1-.4 0-.1.1-.1.1-.2s.1-.2.1-.2c.1-.1.1-.2.2-.3 0 0 0-.1.1-.1 0-.1.1-.1.2-.2 0-.1.1-.1.1-.2l.2-.2.1-.1.2-.2.1-.1c.1-.1.2-.2.4-.2l-1.6.9c-.1.1-.2.2-.4.2l-.1.1c-.1.1-.2.1-.2.2l-.1.1-.2.2c0 .1-.1.1-.1.2l-.2.2s0 .1-.1.1c-.1.1-.1.2-.2.3v.1c0 .1-.1.1-.1.2s-.1.1-.1.2v.1c0 .1-.1.2-.1.3 0 .1-.1.2-.1.4v.1l1.6-.9c0-.2 0-.4.1-.6z"/><path class="st60" d="M103.8 14.8l1.6-.9c-.1.1-.2.1-.3.2h-.1c-.1 0-.2.1-.2.1-.1 0-.2.1-.3.1h-1.4c-.1 0-.3 0-.4-.1h-.1c-.2 0-.3-.1-.5-.1l-1.6.9h.1c.1 0 .2.1.3.1h.3c.1 0 .2 0 .3.1h1.5c.1 0 .2-.1.3-.1h.1c.1 0 .1 0 .2-.1h.1c-.1-.1 0-.2.1-.2z"/><path class="st61" d="M105.8 11.7c.6 3.6 2.8 7.4 5.6 9.8-2.8-.9-5 .4-5.6 3.3-.6-3.6-2.8-7.4-5.6-9.8 2.8.9 5-.4 5.6-3.3z"/></g><path class="st60" d="M112.5 20.1l-.1-.1-.4-.4-.4-.4s0-.1-.1-.1c-.1-.2-.3-.3-.4-.5l-.1-.1c-.1-.1-.2-.3-.3-.4l-.1-.1c-.1-.1-.1-.2-.2-.3-.1-.1-.2-.2-.2-.3l-.1-.1c-.2-.2-.3-.5-.5-.8-1.1-1.8-1.8-3.8-2.1-5.7l-1.6.9c.3 1.9 1 3.8 2.1 5.5 0 0 0 .1.1.1.2.3.3.5.5.8 0 0 0 .1.1.1.1.1.2.2.2.3.1.1.1.2.2.2l.1.1c.1.1.1.2.2.3 0 .1.1.1.1.2l.1.1s0 .1.1.1l.3.3v.1s0 .1.1.1l.2.2.2.2.3.3.1.1.1.1.1.1.3.3 1.6-.9c-.2 0-.4-.1-.5-.3z"/><g class="st1"><path class="st59" d="M116.6 70.9c.1-.2.1-.4.2-.5 0-.1.1-.2.1-.3 0-.1.1-.2.1-.3.1-.2.2-.3.3-.5 0-.1.1-.1.1-.2.1-.1.1-.2.2-.3l.2-.2c.1-.1.2-.2.2-.3l.2-.2.3-.3c.1 0 .1-.1.1-.1.2-.1.3-.2.5-.3l-2.1 1.2c-.2.1-.3.2-.5.3-.1 0-.1.1-.2.1l-.3.3-.2.2c-.1.1-.2.2-.2.3l-.2.2c-.1.1-.1.2-.2.3l-.1.1c-.1.1-.2.3-.3.5v.1c0 .1-.1.2-.1.2 0 .1-.1.2-.1.3v.1c-.1.2-.1.3-.2.5v.1c0 .2-.1.3-.1.5v.2l2.1-1.2c0-.3.1-.5.2-.8z"/><path class="st60" d="M111.6 59.3l2.1-1.2c-.2.1-.3.2-.5.2 0 0-.1 0-.2.1-.1 0-.2.1-.3.1-.1 0-.3.1-.4.1h-2.1c-.2 0-.4-.1-.6-.1h-.1c-.2 0-.4-.1-.6-.2l-2.1 1.2h.1c.1 0 .3.1.4.1h.4c.1 0 .3.1.4.1h2.2c.2 0 .3-.1.4-.1h.1c.1 0 .1-.1.2-.1s.1 0 .2-.1c.1 0 .3 0 .4-.1z"/><path class="st61" d="M114.3 55.1c.8 4.9 3.8 10.1 7.6 13.3-3.8-1.2-6.8.6-7.6 4.5-.8-4.9-3.8-10.1-7.6-13.3 3.8 1.2 6.8-.6 7.6-4.5z"/></g><path class="st60" d="M123.4 66.6l-.1-.1-.6-.6-.1-.1c-.2-.2-.4-.4-.5-.6l-.1-.1c-.2-.2-.4-.4-.5-.6l-.1-.1c-.2-.2-.3-.4-.5-.6l-.1-.1c-.1-.1-.2-.2-.3-.4-.1-.2-.2-.3-.3-.5 0-.1-.1-.1-.1-.2-.2-.3-.4-.7-.6-1-1.4-2.4-2.5-5.1-2.9-7.7l-2.1 1.2c.4 2.5 1.4 5.1 2.8 7.5 0 .1.1.1.1.2.2.3.4.7.6 1l.1.1v.1c.1.2.2.3.3.5.1.1.1.2.2.3v.1l.1.1c.1.1.2.2.3.4l.2.2.1.1.1.1c.1.2.3.3.4.5l.1.1.1.1c.1.1.1.2.2.3l.3.3.1.1.4.4.1.1.1.1c.1 0 .1.1.2.1.1.1.3.3.5.4l2.1-1.2c-.2-.2-.4-.3-.6-.5z"/><path class="st4" d="M68.3 70.4l3.5-2L97.3 83l-3.5 2.1zm31.9 4.6l1.5-.9 11.3 6.5-1.6.9zm6.5 18.7l2.1-1.2 15.2 8.8-2.1 1.2z"/></svg>