<?xml version="1.0" encoding="utf-8"?>
<!-- Generator: Adobe Illustrator 22.0.1, SVG Export Plug-In . SVG Version: 6.00 Build 0)  -->
<svg version="1.1" id="Layer_1" xmlns="http://www.w3.org/2000/svg" xmlns:xlink="http://www.w3.org/1999/xlink" x="0px" y="0px"
	 viewBox="0 0 175 175" style="enable-background:new 0 0 175 175;" xml:space="preserve">
<style type="text/css">
	.st0{fill:#ECF0F1;}
	.st1{fill:none;stroke:#3498DB;stroke-width:1.08;stroke-linecap:round;stroke-linejoin:round;}
	.st2{fill:none;stroke:#3498DB;stroke-linecap:round;stroke-linejoin:round;}
	.st3{fill:#3498DB;}
	.st4{fill:none;stroke:#3498DB;stroke-width:0.72;stroke-linecap:round;stroke-linejoin:round;}
	.st5{fill:none;stroke:#3498DB;stroke-width:0.72;stroke-linejoin:round;}
	.st6{opacity:0.1;fill:#3498DB;enable-background:new    ;}
	.st7{opacity:0.1;}
	.st8{fill:#1C5275;}
	.st9{fill:#1A4D6F;}
	.st10{fill:#2875A9;}
	.st11{enable-background:new    ;}
	.st12{clip-path:url(#SVGID_2_);enable-background:new    ;}
	.st13{fill:#2A7AAF;}
	.st14{fill:#2977AB;}
	.st15{fill:#2874A6;}
	.st16{fill:#2670A2;}
	.st17{fill:#256D9E;}
	.st18{fill:#246A99;}
	.st19{fill:#236795;}
	.st20{fill:#226491;}
	.st21{fill:#21618C;}
	.st22{fill:#205E88;}
	.st23{fill:#1F5B83;}
	.st24{fill:#1E587F;}
	.st25{fill:#1D557B;}
	.st26{fill:#1C5276;}
	.st27{fill:#1B4F72;}
	.st28{clip-path:url(#SVGID_4_);enable-background:new    ;}
	.st29{fill:#2B7DB4;}
	.st30{fill:#2C80B8;}
	.st31{fill:#2D83BC;}
	.st32{fill:#2E86C1;}
	.st33{fill:#2F89C5;}
	.st34{fill:#308CC9;}
	.st35{fill:#318FCE;}
	.st36{fill:#3292D2;}
	.st37{fill:#3395D7;}
	.st38{fill:#4CA4DF;}
	.st39{fill:#56A9E1;}
	.st40{fill:#5EADE2;}
	.st41{fill:#65B1E4;}
	.st42{fill:#6AB4E5;}
	.st43{clip-path:url(#SVGID_6_);enable-background:new    ;}
	.st44{clip-path:url(#SVGID_8_);enable-background:new    ;}
	.st45{fill:#D6E3F4;}
	.st46{opacity:0.3;}
	.st47{fill:#1A73A0;}
	.st48{fill:#8DB9E3;}
	.st49{fill:#B1CDEB;}
	.st50{fill:#4B87AF;}
	.st51{fill:#69A7DB;}
	.st52{fill:none;stroke:#8DB9E3;stroke-width:2;stroke-miterlimit:10;}
	.st53{opacity:0.2;fill:#8DB9E3;}
	.st54{fill:#EEB90C;}
	.st55{fill:#E49701;}
	.st56{fill:#E7A205;}
	.st57{fill:#F1C40F;}
	.st58{fill:#CFD6DA;}
	.st59{fill:#DEE1E3;}
	.st60{fill:#2E729E;}
	.st61{fill:#286288;}
	.st62{fill:#235778;}
	.st63{fill:#193D55;}
	.st64{fill:#3D98D3;}
	.st65{fill:#317BAC;}
	.st66{fill:#265F84;}
	.st67{fill:#1A425D;}
	.st68{fill:#0F2635;}
	.st69{fill:#EBAE08;}
</style>
<g>
	<polygon class="st0" points="105,175 23.9,127.9 93.9,87.6 175,134.7 	"/>
</g>
<g id="environment-gke-01" transform="translate(2877.509 3527.844)">
	<path id="Path_6151" class="st1" d="M-2916.6-3439.6l0.1,37.2l-32.3,18.7l-0.1-37.2L-2916.6-3439.6z"/>
	<path id="Path_6152" class="st1" d="M-2948.9-3383.8l-67.7-39.5l-0.1-37.2l67.7,39.5L-2948.9-3383.8z"/>
	<line id="Line_589" class="st2" x1="-2932.7" y1="-3429.4" x2="-2932.7" y2="-3393.1"/>
	<path id="Path_6153" class="st3" d="M-2921.2-3431.7l0.1,26.7l-23.3,13.3l-0.1-26.7L-2921.2-3431.7 M-2921.2-3432.6
		c-0.2,0-0.3,0-0.5,0.1l-23.1,13.3c-0.3,0.2-0.5,0.5-0.5,0.8l0.1,26.7c0,0.5,0.4,1,0.9,1c0,0,0,0,0,0c0.2,0,0.3,0,0.5-0.1l23.3-13.3
		c0.3-0.2,0.4-0.5,0.4-0.8v-26.7C-2920.2-3432.2-2920.7-3432.6-2921.2-3432.6L-2921.2-3432.6z"/>
	<path id="Path_6154" class="st3" d="M-3011.4-3451.2l57.1,33.3l0.1,25l-57.1-33.3L-3011.4-3451.2 M-3011.4-3452.1
		c-0.5,0-1,0.4-1,0.9c0,0,0,0,0,0l0.1,25c0,0.4,0.2,0.7,0.5,0.8l57.1,33.3c0.4,0.2,0.9,0.1,1.2-0.3c0,0,0-0.1,0.1-0.1
		c0.1-0.1,0.1-0.2,0.1-0.5v-25.1c0-0.4-0.2-0.7-0.5-0.8l-57.1-33.2C-3011-3452.1-3011.2-3452.1-3011.4-3452.1L-3011.4-3452.1z"/>
	<path id="Path_6155" class="st4" d="M-2922.6-3431l0.1,25l-21.8,12.6"/>
	<path id="Path_6156" class="st4" d="M-2959.3-3420.8l-0.1,23.1l-2.5,0.6l0.1-25.3L-2959.3-3420.8z"/>
	<path id="Path_6157" class="st4" d="M-2961.9-3397.1l-2.8-1.6v-25.7"/>
	<line id="Line_590" class="st4" x1="-2953.7" y1="-3394.9" x2="-2959.3" y2="-3398.1"/>
	<path id="Path_6158" class="st4" d="M-2969.7-3426.8v23.1l-2.5,0.6v-25.3L-2969.7-3426.8z"/>
	<path id="Path_6159" class="st4" d="M-2972.2-3403l-2.8-1.6v-25.7"/>
	<line id="Line_591" class="st4" x1="-2964.7" y1="-3401" x2="-2969.6" y2="-3403.8"/>
	<line id="Line_592" class="st4" x1="-2975" y1="-3406.9" x2="-2980.5" y2="-3410.1"/>
	<path id="Path_6160" class="st4" d="M-2980.1-3432.7l-0.1,23l-2.4,0.6v-25.3L-2980.1-3432.7z"/>
	<path id="Path_6161" class="st4" d="M-2982.7-3409.1l-2.9-1.6l0.1-25.7"/>
	<path id="Path_6162" class="st4" d="M-2990.4-3438.6l-0.1,23l-2.5,0.6l0.1-25.3L-2990.4-3438.6z"/>
	<path id="Path_6163" class="st4" d="M-2993.1-3415l-2.8-1.6l0.1-25.7"/>
	<line id="Line_593" class="st4" x1="-2985.4" y1="-3413" x2="-2990.3" y2="-3415.8"/>
	<path id="Path_6164" class="st5" d="M-3000.7-3444.7l-0.1,23l-2.4,0.6v-25.3L-3000.7-3444.7z"/>
	<path id="Path_6165" class="st5" d="M-3003.6-3421.3l-2.8-1.6l0.1-25.7"/>
	<line id="Line_594" class="st4" x1="-2996" y1="-3419.3" x2="-3000.8" y2="-3422.1"/>
	<line id="Line_595" class="st5" x1="-3006.4" y1="-3425.4" x2="-3011.7" y2="-3428.5"/>
	<path id="Path_6166" class="st6" d="M-2900.5-3403.3l-48.3,28l-78.7-47.5l10.5-6.5l-0.1,6.4l67.8,39.4l31.7-19v-8.4L-2900.5-3403.3
		z"/>
	<g id="Group_5947" transform="translate(77.515 52.992)" class="st7">
		<path id="Path_6167" class="st3" d="M-3029.4-3521.2l-0.1,18.7l-8.5,5v-21.1"/>
	</g>
	<path id="Path_6168" class="st6" d="M-2942.6-3480.8v-1.3c0-0.2,0-0.5-0.1-0.7c0-0.2-0.1-0.5-0.1-0.7l0,0c0-0.2-0.1-0.4-0.1-0.6
		c0-0.2-0.1-0.5-0.1-0.7v-0.4c0-0.1,0-0.3-0.1-0.4c0-0.3-0.1-0.5-0.2-0.7c0-0.1-0.1-0.4-0.1-0.5v-0.2c-0.1-0.2-0.1-0.5-0.2-0.7
		c-0.1-0.2-0.1-0.5-0.2-0.7v-0.2c0-0.1-0.1-0.2-0.1-0.5c-0.1-0.2-0.1-0.5-0.2-0.7c-0.1-0.1-0.1-0.4-0.2-0.5v-0.2
		c-0.1-0.2-0.2-0.4-0.2-0.6l-0.4-0.7v-0.1c0-0.1-0.1-0.1-0.1-0.1c0,0,0,0,0,0c-0.1-0.2-0.2-0.4-0.2-0.6l-0.4-0.7
		c-0.1-0.1-0.1-0.2-0.2-0.4c0-0.1-0.1-0.1-0.1-0.1c0,0,0,0,0,0c-0.1-0.2-0.2-0.4-0.4-0.6c-0.2-0.2-0.4-0.6-0.6-0.8
		c0-0.1-0.1-0.1-0.1-0.1c0,0,0,0,0,0c-0.2-0.4-0.6-0.8-0.8-1.2l0,0c-0.2-0.3-0.4-0.5-0.6-0.8c-0.1-0.2-0.4-0.4-0.5-0.6l0,0
		c-0.1-0.2-0.4-0.4-0.5-0.6c-0.1-0.2-0.4-0.4-0.5-0.6c0-0.1-0.1-0.1-0.1-0.1c0,0,0,0,0,0l-0.1-0.1l-0.4-0.4l-0.6-0.6
		c-0.1-0.1-0.2-0.1-0.2-0.1l-0.1-0.1c-0.1-0.1-0.2-0.1-0.2-0.2c-0.2-0.2-0.4-0.4-0.6-0.5l-0.2-0.2l-0.1-0.1c-0.1,0-0.1-0.1-0.2-0.1
		c-0.2-0.1-0.4-0.4-0.6-0.5c-0.1-0.1-0.3-0.3-0.5-0.4h-0.2c-0.2-0.1-0.4-0.2-0.6-0.4c-0.2-0.1-0.4-0.2-0.6-0.4
		c-0.1,0-0.1-0.1-0.1-0.1c0,0,0,0,0,0c-0.1-0.1-0.2-0.1-0.5-0.2c-0.2-0.1-0.4-0.2-0.6-0.2c-0.1,0-0.2-0.1-0.4-0.1h-0.2
		c-0.2-0.1-0.4-0.1-0.6-0.2c-0.2-0.1-0.4-0.1-0.6-0.2h-0.2c-0.1,0-0.2-0.1-0.4-0.1c-0.2,0-0.4-0.1-0.6-0.1h-0.5
		c-0.2,0-0.4-0.1-0.6-0.1h-1.9c-0.2,0-0.5,0.1-0.8,0.1h-0.1c-0.2,0.1-0.5,0.1-0.7,0.2l0,0c-0.4,0.1-0.8,0.3-1.1,0.5l-8.5,5
		c0.3-0.2,0.7-0.4,1.1-0.5c0.2-0.1,0.6-0.1,0.8-0.2h0.1c0.3-0.1,0.6-0.1,1-0.1h1.5c0.4,0,0.7,0.1,1.1,0.1h0.1
		c0.4,0.1,0.8,0.2,1.2,0.4h0.1c0.5,0.1,0.8,0.4,1.3,0.5h0.1c0.5,0.2,0.8,0.5,1.3,0.7c0.5,0.3,0.9,0.5,1.3,0.8h0.1
		c0.4,0.3,0.8,0.6,1.2,1l0.1,0.1c0.4,0.4,0.8,0.7,1.2,1l0.1,0.1l1.1,1.1l0.1,0.1c0.4,0.5,0.8,0.9,1.2,1.3l0,0l1.1,1.5l0,0
		c0.3,0.5,0.6,0.9,1,1.3c0.2,0.2,0.4,0.6,0.6,0.8c0.1,0.2,0.4,0.5,0.5,0.7c0.1,0.1,0.1,0.2,0.2,0.4c0.3,0.4,0.5,0.9,0.7,1.3
		c0,0.1,0.1,0.1,0.1,0.1c0,0,0,0,0,0c0.2,0.5,0.5,1.1,0.7,1.6v0.1c0.3,0.5,0.5,1,0.6,1.6v0.1c0.2,0.5,0.4,1.1,0.6,1.7v0.1
		c0.1,0.5,0.2,1.1,0.4,1.6v0.1c0.1,0.5,0.2,1.1,0.4,1.6l0,0c0.1,0.5,0.1,1.1,0.2,1.6v0.1c0,0.5,0.1,1.1,0.1,1.6c0,0.5,0,1-0.1,1.5
		v0.1c0,0.5-0.1,0.9-0.2,1.3v0.1c-0.1,0.4-0.1,0.7-0.2,1.1c0,0.1,0,0.1-0.1,0.2c-0.1,0.4-0.2,0.6-0.4,1v0.1c-0.1,0.4-0.3,0.7-0.6,1
		l-0.1,0.1c-0.1,0.2-0.4,0.5-0.5,0.7l-0.2,0.2l-0.5,0.5l-0.2,0.2c-0.3,0.2-0.5,0.4-0.8,0.6l8.5-5c0.2-0.1,0.5-0.4,0.8-0.6l0.2-0.2
		l0.5-0.5l0.2-0.2c0.2-0.2,0.4-0.5,0.5-0.7l0.1-0.1l0,0c0.2-0.3,0.4-0.6,0.5-1l0,0v-0.1c0.1-0.2,0.2-0.4,0.2-0.6
		c0-0.1,0.1-0.2,0.1-0.4c0-0.1,0-0.1,0.1-0.2c0-0.1,0-0.1,0.1-0.2c0.1-0.2,0.1-0.5,0.1-0.7v-0.6c0-0.2,0.1-0.4,0.1-0.6v-1.8l0,0
		C-2942.6-3480.3-2942.5-3480.6-2942.6-3480.8z"/>
	<g id="Group_5948" transform="translate(59.343 20.351)">
		<path id="Path_6169" class="st1" d="M-3024.2-3519.3c7.6,4.4,13.7,15,13.7,23.7c0,6.9-3.9,10.5-9.3,9.6v21.1l-12.7-7.3l3.5-2.1
			l-3.5-6.1l3.5-2.1l-3.5-6.1l3.8-2.2v-0.5c-5.3-5.2-9.2-13.3-9.2-20.2C-3038-3520.2-3031.8-3523.7-3024.2-3519.3z M-3024.2-3506.5
			c1.8,1.1,3.4,0.2,3.4-1.9c-0.1-2.4-1.4-4.6-3.4-5.8c-1.8-1.1-3.4-0.2-3.4,1.9C-3027.5-3509.9-3026.2-3507.8-3024.2-3506.5"/>
	</g>
	<path id="Path_6170" class="st1" d="M-2969.5-3470.3l-15.5-8.8l-31.7,18.5l67.7,39.6l32.3-18.7l-35.3-20.6"/>
	<path id="Path_6171" class="st3" d="M-2952-3449.6l8.8-5.6l-8.8-5.2V-3449.6z"/>
	<g id="Group_5949" transform="translate(77.515 52.992)">
		<path id="Path_6172" class="st1" d="M-3029.4-3521.2l-0.1,18.7l-8.5,5v-21.1"/>
	</g>
	<path id="Path_6173" class="st1" d="M-2942.6-3480.8v-1.3c0-0.2,0-0.5-0.1-0.7c0-0.2-0.1-0.5-0.1-0.7l0,0c0-0.2-0.1-0.4-0.1-0.6
		c0-0.2-0.1-0.5-0.1-0.7v-0.4c0-0.1,0-0.3-0.1-0.4c0-0.3-0.1-0.5-0.2-0.7c0-0.1-0.1-0.4-0.1-0.5v-0.2c-0.1-0.2-0.1-0.5-0.2-0.7
		c-0.1-0.2-0.1-0.5-0.2-0.7v-0.2c0-0.1-0.1-0.2-0.1-0.5c-0.1-0.2-0.1-0.5-0.2-0.7c-0.1-0.1-0.1-0.4-0.2-0.5v-0.2
		c-0.1-0.2-0.2-0.4-0.2-0.6l-0.4-0.7v-0.1c0-0.1-0.1-0.1-0.1-0.1c0,0,0,0,0,0c-0.1-0.2-0.2-0.4-0.2-0.6l-0.4-0.7
		c-0.1-0.1-0.1-0.2-0.2-0.4c0-0.1-0.1-0.1-0.1-0.1c0,0,0,0,0,0c-0.1-0.2-0.2-0.4-0.4-0.6c-0.2-0.2-0.4-0.6-0.6-0.8
		c0-0.1-0.1-0.1-0.1-0.1c0,0,0,0,0,0c-0.2-0.4-0.6-0.8-0.8-1.2l0,0c-0.2-0.3-0.4-0.5-0.6-0.8c-0.1-0.2-0.4-0.4-0.5-0.6l0,0
		c-0.1-0.2-0.4-0.4-0.5-0.6c-0.1-0.2-0.4-0.4-0.5-0.6c0-0.1-0.1-0.1-0.1-0.1c0,0,0,0,0,0l-0.1-0.1l-0.4-0.4l-0.6-0.6
		c-0.1-0.1-0.2-0.1-0.2-0.1l-0.1-0.1c-0.1-0.1-0.2-0.1-0.2-0.2c-0.2-0.2-0.4-0.4-0.6-0.5l-0.2-0.2l-0.1-0.1c-0.1,0-0.1-0.1-0.2-0.1
		c-0.2-0.1-0.4-0.4-0.6-0.5c-0.1-0.1-0.3-0.3-0.5-0.4h-0.2c-0.2-0.1-0.4-0.2-0.6-0.4c-0.2-0.1-0.4-0.2-0.6-0.4
		c-0.1,0-0.1-0.1-0.1-0.1c0,0,0,0,0,0c-0.1-0.1-0.2-0.1-0.5-0.2c-0.2-0.1-0.4-0.2-0.6-0.2c-0.1,0-0.2-0.1-0.4-0.1h-0.2
		c-0.2-0.1-0.4-0.1-0.6-0.2c-0.2-0.1-0.4-0.1-0.6-0.2h-0.2c-0.1,0-0.2-0.1-0.4-0.1c-0.2,0-0.4-0.1-0.6-0.1h-0.5
		c-0.2,0-0.4-0.1-0.6-0.1h-1.9c-0.2,0-0.5,0.1-0.8,0.1h-0.1c-0.2,0.1-0.5,0.1-0.7,0.2l0,0c-0.4,0.1-0.8,0.3-1.1,0.5l-8.5,5
		c0.3-0.2,0.7-0.4,1.1-0.5c0.2-0.1,0.6-0.1,0.8-0.2h0.1c0.3-0.1,0.6-0.1,1-0.1h1.5c0.4,0,0.7,0.1,1.1,0.1h0.1
		c0.4,0.1,0.8,0.2,1.2,0.4h0.1c0.5,0.1,0.8,0.4,1.3,0.5h0.1c0.5,0.2,0.8,0.5,1.3,0.7c0.5,0.3,0.9,0.5,1.3,0.8h0.1
		c0.4,0.3,0.8,0.6,1.2,1l0.1,0.1c0.4,0.4,0.8,0.7,1.2,1l0.1,0.1l1.1,1.1l0.1,0.1c0.4,0.5,0.8,0.9,1.2,1.3l0,0l1.1,1.5l0,0
		c0.3,0.5,0.6,0.9,1,1.3c0.2,0.2,0.4,0.6,0.6,0.8c0.1,0.2,0.4,0.5,0.5,0.7c0.1,0.1,0.1,0.2,0.2,0.4c0.3,0.4,0.5,0.9,0.7,1.3
		c0,0.1,0.1,0.1,0.1,0.1c0,0,0,0,0,0c0.2,0.5,0.5,1.1,0.7,1.6v0.1c0.3,0.5,0.5,1,0.6,1.6v0.1c0.2,0.5,0.4,1.1,0.6,1.7v0.1
		c0.1,0.5,0.2,1.1,0.4,1.6v0.1c0.1,0.5,0.2,1.1,0.4,1.6l0,0c0.1,0.5,0.1,1.1,0.2,1.6v0.1c0,0.5,0.1,1.1,0.1,1.6c0,0.5,0,1-0.1,1.5
		v0.1c0,0.5-0.1,0.9-0.2,1.3v0.1c-0.1,0.4-0.1,0.7-0.2,1.1c0,0.1,0,0.1-0.1,0.2c-0.1,0.4-0.2,0.6-0.4,1v0.1c-0.1,0.4-0.3,0.7-0.6,1
		l-0.1,0.1c-0.1,0.2-0.4,0.5-0.5,0.7l-0.2,0.2l-0.5,0.5l-0.2,0.2c-0.3,0.2-0.5,0.4-0.8,0.6l8.5-5c0.2-0.1,0.5-0.4,0.8-0.6l0.2-0.2
		l0.5-0.5l0.2-0.2c0.2-0.2,0.4-0.5,0.5-0.7l0.1-0.1l0,0c0.2-0.3,0.4-0.6,0.5-1l0,0v-0.1c0.1-0.2,0.2-0.4,0.2-0.6
		c0-0.1,0.1-0.2,0.1-0.4c0-0.1,0-0.1,0.1-0.2c0-0.1,0-0.1,0.1-0.2c0.1-0.2,0.1-0.5,0.1-0.7v-0.6c0-0.2,0.1-0.4,0.1-0.6v-1.8l0,0
		C-2942.6-3480.3-2942.5-3480.6-2942.6-3480.8z"/>
</g>
<g>
	<path class="st8" d="M414.5,33.2c12.3,7.1,22.3,24.4,22.3,38.6c0,9.8-4.8,15.5-11.8,15.8l-0.1,37l-9-5.2l-6.1-3.5l-6.1-3.5l6.1-3.5
		l-6.1-10.5l6.1-3.5l-6.1-10.5l5.7-3.2C399.4,72.7,392,58.2,392,46C392.1,31.8,402.1,26.1,414.5,33.2z M414.4,55.6
		c3.6,2.1,6.5,0.4,6.5-3.7c0-4.1-2.9-9.1-6.5-11.2c-3.6-2.1-6.5-0.4-6.5,3.7C407.9,48.5,410.8,53.5,414.4,55.6"/>
</g>
<g>
	<polygon class="st9" points="386,122.5 403.6,112.3 409.7,108.8 392.1,119.1 	"/>
</g>
<g>
	<polygon class="st9" points="386,108.6 403.6,98.3 409.7,94.8 392.1,105.1 	"/>
</g>
<g>
	<polygon class="st9" points="386,94.6 403.7,84.3 409.4,81.1 391.7,91.3 	"/>
</g>
<g>
	<polygon class="st10" points="407.3,97.9 424.9,87.6 424.8,124.6 407.2,134.8 	"/>
</g>
<g class="st11">
	<defs>
		<path id="SVGID_1_" class="st11" d="M419,56l-17.6,10.2c-1.2,0.7-2.8,0.6-4.6-0.5l17.6-10.2C416.2,56.6,417.8,56.7,419,56z"/>
	</defs>
	<clipPath id="SVGID_2_">
		<use xlink:href="#SVGID_1_"  style="overflow:visible;"/>
	</clipPath>
	<g class="st12">
		<path class="st13" d="M396.8,65.8l17.6-10.2c0.1,0,0.1,0.1,0.2,0.1L397,65.9C396.9,65.9,396.8,65.8,396.8,65.8"/>
		<path class="st14" d="M397,65.9l17.6-10.2c0.1,0,0.2,0.1,0.3,0.1l-17.6,10.2C397.2,66,397.1,66,397,65.9"/>
		<path class="st15" d="M397.2,66.1l17.6-10.2c0.1,0,0.2,0.1,0.3,0.1l-17.6,10.2C397.4,66.1,397.3,66.1,397.2,66.1"/>
		<path class="st16" d="M397.5,66.2l17.6-10.2c0.1,0,0.2,0.1,0.3,0.1l-17.6,10.2C397.7,66.3,397.6,66.2,397.5,66.2"/>
		<path class="st17" d="M397.8,66.3l17.6-10.2c0.1,0,0.2,0.1,0.3,0.1L398,66.4C397.9,66.4,397.8,66.3,397.8,66.3"/>
		<path class="st18" d="M398,66.4l17.6-10.2c0.1,0,0.2,0.1,0.3,0.1l-17.6,10.2C398.2,66.4,398.1,66.4,398,66.4"/>
		<path class="st19" d="M398.3,66.5l17.6-10.2c0.1,0,0.2,0.1,0.3,0.1l-17.6,10.2C398.5,66.5,398.4,66.5,398.3,66.5"/>
		<path class="st20" d="M398.6,66.5l17.6-10.2c0.1,0,0.2,0,0.3,0.1l-17.6,10.2C398.7,66.6,398.6,66.6,398.6,66.5"/>
		<path class="st21" d="M398.8,66.6l17.6-10.2c0.1,0,0.2,0,0.3,0l-17.6,10.2C399,66.6,398.9,66.6,398.8,66.6"/>
		<path class="st22" d="M399.1,66.7l17.6-10.2c0.1,0,0.2,0,0.3,0l-17.6,10.2C399.3,66.7,399.2,66.7,399.1,66.7"/>
		<path class="st23" d="M399.4,66.7L417,56.4c0.1,0,0.2,0,0.3,0l-17.6,10.2C399.6,66.7,399.5,66.7,399.4,66.7"/>
		<path class="st24" d="M399.7,66.7l17.6-10.2c0.1,0,0.2,0,0.3,0L400,66.7C399.9,66.7,399.8,66.7,399.7,66.7"/>
		<path class="st25" d="M400,66.7l17.6-10.2c0.1,0,0.3,0,0.4-0.1l-17.6,10.2C400.3,66.6,400.2,66.7,400,66.7"/>
		<path class="st26" d="M400.4,66.6L418,56.4c0.2,0,0.3-0.1,0.5-0.1l-17.6,10.2C400.7,66.6,400.6,66.6,400.4,66.6"/>
		<path class="st27" d="M400.9,66.5l17.6-10.2c0.2-0.1,0.4-0.1,0.5-0.2l-17.6,10.2C401.2,66.4,401,66.4,400.9,66.5"/>
	</g>
</g>
<g class="st11">
	<defs>
		<path id="SVGID_3_" class="st11" d="M392.2,50.4l17.6-10.2c-1.2,0.7-1.9,2.1-1.9,4.2c0,4.1,2.9,9.1,6.5,11.2l-17.6,10.2
			c-3.6-2.1-6.5-7.1-6.5-11.2C390.3,52.6,391,51.1,392.2,50.4z"/>
	</defs>
	<clipPath id="SVGID_4_">
		<use xlink:href="#SVGID_3_"  style="overflow:visible;"/>
	</clipPath>
	<g class="st28">
		<path class="st27" d="M392.2,50.4l17.6-10.2c-0.4,0.3-0.8,0.6-1.1,1.1l-17.6,10.2C391.4,51.1,391.8,50.7,392.2,50.4"/>
		<path class="st26" d="M391.1,51.5l17.6-10.2c-0.1,0.1-0.2,0.3-0.2,0.4L390.8,52C390.9,51.8,391,51.7,391.1,51.5"/>
		<path class="st25" d="M390.8,52l17.6-10.2c-0.1,0.1-0.1,0.2-0.2,0.4l-17.6,10.2C390.7,52.2,390.8,52.1,390.8,52"/>
		<path class="st24" d="M390.7,52.4l17.6-10.2c0,0.1-0.1,0.2-0.1,0.3l-17.6,10.2C390.6,52.6,390.6,52.5,390.7,52.4"/>
		<path class="st23" d="M390.6,52.7l17.6-10.2c0,0.1-0.1,0.2-0.1,0.3L390.5,53C390.5,52.9,390.5,52.8,390.6,52.7"/>
		<path class="st22" d="M390.5,53l17.6-10.2c0,0.1,0,0.2-0.1,0.3l-17.6,10.2C390.4,53.2,390.5,53.1,390.5,53"/>
		<path class="st21" d="M390.4,53.3L408,43.1c0,0.1,0,0.2,0,0.3l-17.6,10.2C390.4,53.6,390.4,53.4,390.4,53.3"/>
		<path class="st20" d="M390.4,53.7L408,43.4c0,0.1,0,0.2,0,0.3L390.3,54C390.3,53.9,390.4,53.8,390.4,53.7"/>
		<path class="st19" d="M390.3,54L408,43.7c0,0.1,0,0.2,0,0.3l-17.6,10.2C390.3,54.2,390.3,54.1,390.3,54"/>
		<path class="st18" d="M390.3,54.3L407.9,44c0,0.1,0,0.2,0,0.3l-17.6,10.2C390.3,54.5,390.3,54.4,390.3,54.3"/>
		<path class="st17" d="M390.3,54.6l17.6-10.2c0,0,0,0,0,0c0,0.1,0,0.2,0,0.3l-17.6,10.2C390.3,54.8,390.3,54.7,390.3,54.6
			C390.3,54.6,390.3,54.6,390.3,54.6"/>
		<path class="st16" d="M390.3,54.9l17.6-10.2c0,0.1,0,0.2,0,0.3l-17.6,10.2C390.3,55.1,390.3,55,390.3,54.9"/>
		<path class="st15" d="M390.3,55.2L407.9,45c0,0.1,0,0.2,0,0.3l-17.6,10.2C390.3,55.4,390.3,55.3,390.3,55.2"/>
		<path class="st14" d="M390.4,55.5L408,45.3c0,0.1,0,0.2,0,0.3l-17.6,10.2C390.4,55.7,390.4,55.6,390.4,55.5"/>
		<path class="st13" d="M390.4,55.9L408,45.6c0,0.1,0,0.2,0,0.3l-17.6,10.2C390.4,56.1,390.4,56,390.4,55.9"/>
		<path class="st29" d="M390.4,56.2l17.6-10.2c0,0.1,0,0.2,0.1,0.3l-17.6,10.2C390.5,56.4,390.5,56.3,390.4,56.2"/>
		<path class="st30" d="M390.5,56.5l17.6-10.2c0,0.1,0,0.2,0.1,0.3l-17.6,10.2C390.5,56.7,390.5,56.6,390.5,56.5"/>
		<path class="st31" d="M390.6,56.8l17.6-10.2c0,0.1,0.1,0.2,0.1,0.3l-17.6,10.2C390.6,57.1,390.6,57,390.6,56.8"/>
		<path class="st32" d="M390.6,57.2l17.6-10.2c0,0.1,0.1,0.2,0.1,0.3l-17.6,10.2C390.7,57.4,390.7,57.3,390.6,57.2"/>
		<path class="st33" d="M390.7,57.5l17.6-10.2c0,0.1,0.1,0.2,0.1,0.3l-17.6,10.2C390.8,57.8,390.8,57.6,390.7,57.5"/>
		<path class="st34" d="M390.8,57.9l17.6-10.2c0,0.1,0.1,0.2,0.1,0.3l-17.6,10.2C390.9,58.1,390.9,58,390.8,57.9"/>
		<path class="st35" d="M390.9,58.2L408.6,48c0,0.1,0.1,0.2,0.1,0.3l-17.6,10.2C391,58.4,391,58.3,390.9,58.2"/>
		<path class="st36" d="M391.1,58.5l17.6-10.2c0,0.1,0.1,0.2,0.1,0.3l-17.6,10.2C391.1,58.7,391.1,58.6,391.1,58.5"/>
		<path class="st37" d="M391.2,58.9l17.6-10.2c0,0.1,0.1,0.2,0.1,0.3l-17.6,10.2C391.3,59.1,391.2,59,391.2,58.9"/>
		<path class="st3" d="M391.3,59.2l17.6-10.2c0,0.1,0.1,0.2,0.1,0.3l-17.6,10.2C391.4,59.4,391.3,59.3,391.3,59.2"/>
		<path class="st38" d="M391.4,59.5l17.6-10.2c0,0.1,0.1,0.2,0.1,0.3l-17.6,10.2C391.5,59.7,391.5,59.6,391.4,59.5"/>
		<path class="st39" d="M391.6,59.8l17.6-10.2c0.1,0.1,0.1,0.2,0.2,0.3l-17.6,10.2C391.7,60,391.6,59.9,391.6,59.8"/>
		<path class="st40" d="M391.7,60.1l17.6-10.2c0.1,0.1,0.1,0.3,0.2,0.4l-17.6,10.2C391.9,60.4,391.8,60.3,391.7,60.1"/>
		<path class="st41" d="M391.9,60.5l17.6-10.2c0.1,0.2,0.2,0.4,0.3,0.6l-17.6,10.2C392.1,60.9,392,60.7,391.9,60.5"/>
		<path class="st42" d="M392.3,61.1l17.6-10.2c0.2,0.3,0.3,0.5,0.5,0.8l-17.6,10.2C392.6,61.6,392.4,61.4,392.3,61.1"/>
		<path class="st41" d="M392.7,61.9l17.6-10.2c0.1,0.2,0.3,0.4,0.4,0.6l-17.6,10.2C393,62.3,392.9,62.1,392.7,61.9"/>
		<path class="st40" d="M393.2,62.4l17.6-10.2c0.1,0.1,0.2,0.3,0.3,0.4l-17.6,10.2C393.3,62.7,393.2,62.6,393.2,62.4"/>
		<path class="st39" d="M393.4,62.8l17.6-10.2c0.1,0.1,0.2,0.2,0.2,0.3l-17.6,10.2C393.6,63,393.5,62.9,393.4,62.8"/>
		<path class="st38" d="M393.7,63.1l17.6-10.2c0.1,0.1,0.2,0.2,0.2,0.3l-17.6,10.2C393.9,63.3,393.8,63.2,393.7,63.1"/>
		<path class="st3" d="M393.9,63.4l17.6-10.2c0.1,0.1,0.2,0.2,0.3,0.3l-17.6,10.2C394.1,63.6,394,63.5,393.9,63.4"/>
		<path class="st37" d="M394.2,63.7l17.6-10.2c0.1,0.1,0.2,0.2,0.3,0.3L394.5,64C394.4,63.9,394.3,63.8,394.2,63.7"/>
		<path class="st36" d="M394.5,64l17.6-10.2c0.1,0.1,0.2,0.2,0.3,0.3l-17.6,10.2C394.6,64.2,394.5,64.1,394.5,64"/>
		<path class="st35" d="M394.7,64.2L412.3,54c0.1,0.1,0.2,0.2,0.3,0.3L395,64.5C394.9,64.4,394.8,64.3,394.7,64.2"/>
		<path class="st34" d="M395,64.5l17.6-10.2c0.1,0.1,0.2,0.2,0.3,0.3l-17.6,10.2C395.2,64.7,395.1,64.6,395,64.5"/>
		<path class="st33" d="M395.3,64.8l17.6-10.2c0.1,0.1,0.2,0.2,0.3,0.2L395.6,65C395.5,64.9,395.4,64.8,395.3,64.8"/>
		<path class="st32" d="M395.6,65l17.6-10.2c0.1,0.1,0.2,0.1,0.3,0.2l-17.6,10.2C395.8,65.1,395.7,65.1,395.6,65"/>
		<path class="st31" d="M395.9,65.2L413.5,55c0.1,0.1,0.2,0.1,0.3,0.2l-17.6,10.2C396.1,65.4,396,65.3,395.9,65.2"/>
		<path class="st30" d="M396.2,65.4l17.6-10.2c0.1,0.1,0.2,0.1,0.3,0.2l-17.6,10.2C396.3,65.5,396.2,65.5,396.2,65.4"/>
		<path class="st29" d="M396.4,65.6L414,55.4c0.1,0.1,0.2,0.1,0.3,0.2l-17.6,10.2C396.6,65.7,396.5,65.7,396.4,65.6"/>
		<path class="st13" d="M396.7,65.8l17.6-10.2c0,0,0,0,0.1,0L396.7,65.8C396.7,65.8,396.7,65.8,396.7,65.8"/>
	</g>
</g>
<g class="st11">
	<defs>
		<path id="SVGID_5_" class="st11" d="M380.9,41.9l17.6-10.2c4.1-2.4,9.7-2,15.9,1.6l-17.6,10.2C390.6,39.9,385,39.5,380.9,41.9z"/>
	</defs>
	<clipPath id="SVGID_6_">
		<use xlink:href="#SVGID_5_"  style="overflow:visible;"/>
	</clipPath>
	<g class="st43">
		<path class="st27" d="M380.9,41.9l17.6-10.2c0.6-0.3,1.2-0.6,1.8-0.8L382.7,41C382.1,41.3,381.5,41.6,380.9,41.9"/>
		<path class="st26" d="M382.7,41l17.6-10.2c0.5-0.2,1-0.3,1.6-0.4l-17.6,10.2C383.8,40.7,383.2,40.9,382.7,41"/>
		<path class="st25" d="M384.3,40.6l17.6-10.2c0.4-0.1,0.8-0.1,1.3-0.2l-17.6,10.2C385.1,40.5,384.7,40.5,384.3,40.6"/>
		<path class="st24" d="M385.6,40.4l17.6-10.2c0.4,0,0.8-0.1,1.2-0.1l-17.6,10.2C386.4,40.4,386,40.4,385.6,40.4"/>
		<path class="st23" d="M386.7,40.4l17.6-10.2c0.3,0,0.7,0,1,0l-17.6,10.2C387.4,40.4,387.1,40.4,386.7,40.4"/>
		<path class="st22" d="M387.8,40.4l17.6-10.2c0.3,0,0.7,0.1,1,0.1l-17.6,10.2C388.5,40.5,388.1,40.4,387.8,40.4"/>
		<path class="st21" d="M388.8,40.5l17.6-10.2c0.3,0,0.6,0.1,1,0.2l-17.6,10.2C389.4,40.6,389.1,40.6,388.8,40.5"/>
		<path class="st20" d="M389.8,40.7l17.6-10.2c0.3,0.1,0.6,0.1,0.9,0.2l-17.6,10.2C390.4,40.8,390.1,40.7,389.8,40.7"/>
		<path class="st19" d="M390.7,40.9l17.6-10.2c0.3,0.1,0.6,0.2,0.9,0.3l-17.6,10.2C391.3,41,391,41,390.7,40.9"/>
		<path class="st18" d="M391.6,41.1l17.6-10.2c0.3,0.1,0.6,0.2,0.9,0.3l-17.6,10.2C392.2,41.3,391.9,41.2,391.6,41.1"/>
		<path class="st17" d="M392.5,41.4l17.6-10.2c0.3,0.1,0.6,0.2,0.9,0.3l-17.6,10.2C393.1,41.6,392.8,41.5,392.5,41.4"/>
		<path class="st16" d="M393.4,41.8L411,31.5c0.3,0.1,0.6,0.2,0.9,0.4l-17.6,10.2C394,42,393.7,41.9,393.4,41.8"/>
		<path class="st15" d="M394.3,42.1l17.6-10.2c0.3,0.1,0.6,0.3,0.9,0.4l-17.6,10.2C394.9,42.4,394.6,42.3,394.3,42.1"/>
		<path class="st14" d="M395.2,42.6l17.6-10.2c0.3,0.2,0.6,0.3,0.9,0.5L396.1,43C395.8,42.9,395.5,42.7,395.2,42.6"/>
		<path class="st13" d="M396.1,43l17.6-10.2c0.2,0.1,0.5,0.3,0.7,0.4l-17.6,10.2C396.6,43.3,396.4,43.2,396.1,43"/>
	</g>
</g>
<g class="st11">
	<defs>
		<path id="SVGID_7_" class="st11" d="M430.2,86.1l-17.6,10.2c4-2.3,6.5-7.3,6.5-14.3c0-14.2-9.9-31.5-22.3-38.6l17.6-10.2
			c12.3,7.1,22.3,24.4,22.3,38.6C436.7,78.8,434.2,83.8,430.2,86.1z"/>
	</defs>
	<clipPath id="SVGID_8_">
		<use xlink:href="#SVGID_7_"  style="overflow:visible;"/>
	</clipPath>
	<g class="st44">
		<path class="st13" d="M396.8,43.4l17.6-10.2c0.1,0,0.1,0.1,0.2,0.1l-17.6,10.2C397,43.5,396.9,43.5,396.8,43.4"/>
		<path class="st29" d="M397.1,43.6l17.6-10.2c0.3,0.2,0.6,0.4,0.9,0.6L398,44.2C397.7,44,397.4,43.8,397.1,43.6"/>
		<path class="st30" d="M398,44.2l17.6-10.2c0.3,0.2,0.6,0.4,0.9,0.6l-17.6,10.2C398.6,44.6,398.3,44.4,398,44.2"/>
		<path class="st31" d="M398.9,44.8l17.6-10.2c0.3,0.2,0.6,0.5,1,0.7l-17.6,10.2C399.6,45.2,399.3,45,398.9,44.8"/>
		<path class="st32" d="M399.9,45.5l17.6-10.2c0.3,0.2,0.7,0.5,1,0.7l-17.6,10.2C400.6,46,400.2,45.7,399.9,45.5"/>
		<path class="st33" d="M400.9,46.2L418.5,36c0.3,0.3,0.7,0.5,1,0.8L401.9,47C401.6,46.8,401.2,46.5,400.9,46.2"/>
		<path class="st34" d="M401.9,47l17.6-10.2c0.3,0.3,0.7,0.6,1,0.9l-17.6,10.2C402.6,47.6,402.2,47.3,401.9,47"/>
		<path class="st35" d="M402.9,47.9l17.6-10.2c0.3,0.3,0.7,0.6,1,0.9l-17.6,10.2C403.5,48.5,403.2,48.2,402.9,47.9"/>
		<path class="st36" d="M403.9,48.8l17.6-10.2c0.3,0.3,0.6,0.6,0.9,0.9l-17.6,10.2C404.5,49.4,404.2,49.1,403.9,48.8"/>
		<path class="st37" d="M404.8,49.7l17.6-10.2c0.3,0.3,0.6,0.6,0.9,1l-17.6,10.2C405.4,50.4,405.1,50.1,404.8,49.7"/>
		<path class="st3" d="M405.7,50.7l17.6-10.2c0.3,0.3,0.6,0.6,0.9,1l-17.6,10.2C406.3,51.3,406,51,405.7,50.7"/>
		<path class="st38" d="M406.6,51.7l17.6-10.2c0.3,0.3,0.6,0.7,0.9,1l-17.6,10.2C407.2,52.3,406.9,52,406.6,51.7"/>
		<path class="st39" d="M407.5,52.7l17.6-10.2c0.3,0.4,0.6,0.7,0.9,1.1l-17.6,10.2C408,53.4,407.7,53,407.5,52.7"/>
		<path class="st40" d="M408.3,53.7l17.6-10.2c0.3,0.4,0.7,0.9,1,1.3L409.3,55C409,54.6,408.7,54.2,408.3,53.7"/>
		<path class="st41" d="M409.3,55l17.6-10.2c0.5,0.7,1,1.3,1.4,2l-17.6,10.2C410.3,56.4,409.8,55.7,409.3,55"/>
		<path class="st42" d="M410.7,57.1l17.6-10.2c0.6,0.9,1.1,1.7,1.7,2.6l-17.6,10.2C411.9,58.8,411.3,57.9,410.7,57.1"/>
		<path class="st41" d="M412.4,59.7L430,49.5c0.4,0.6,0.7,1.3,1.1,2l-17.6,10.2C413.1,61,412.8,60.3,412.4,59.7"/>
		<path class="st40" d="M413.5,61.7l17.6-10.2c0.2,0.4,0.5,0.9,0.7,1.3L414.2,63C414,62.6,413.7,62.1,413.5,61.7"/>
		<path class="st39" d="M414.2,63l17.6-10.2c0.2,0.4,0.4,0.8,0.6,1.2l-17.6,10.2C414.6,63.8,414.4,63.4,414.2,63"/>
		<path class="st38" d="M414.7,64.2l17.6-10.2c0.2,0.4,0.3,0.7,0.5,1.1l-17.6,10.2C415.1,64.9,414.9,64.5,414.7,64.2"/>
		<path class="st3" d="M415.2,65.3L432.9,55c0.2,0.4,0.3,0.7,0.5,1.1l-17.6,10.2C415.5,66,415.4,65.6,415.2,65.3"/>
		<path class="st37" d="M415.7,66.3l17.6-10.2c0.1,0.4,0.3,0.7,0.4,1.1l-17.6,10.2C416,67,415.8,66.7,415.7,66.3"/>
		<path class="st36" d="M416.1,67.4l17.6-10.2c0.1,0.4,0.3,0.7,0.4,1.1l-17.6,10.2C416.4,68.1,416.3,67.8,416.1,67.4"/>
		<path class="st35" d="M416.5,68.5l17.6-10.2c0.1,0.4,0.3,0.8,0.4,1.1l-17.6,10.2C416.8,69.3,416.7,68.9,416.5,68.5"/>
		<path class="st34" d="M416.9,69.6l17.6-10.2c0.1,0.4,0.3,0.8,0.4,1.2l-17.6,10.2C417.2,70.4,417.1,70,416.9,69.6"/>
		<path class="st33" d="M417.3,70.8l17.6-10.2c0.1,0.4,0.2,0.8,0.3,1.2L417.7,72C417.5,71.6,417.4,71.2,417.3,70.8"/>
		<path class="st32" d="M417.7,72l17.6-10.2c0.1,0.4,0.2,0.8,0.3,1.2L418,73.2C417.9,72.8,417.8,72.4,417.7,72"/>
		<path class="st31" d="M418,73.2l17.6-10.2c0.1,0.4,0.2,0.8,0.3,1.2l-17.6,10.2C418.2,73.9,418.1,73.6,418,73.2"/>
		<path class="st30" d="M418.2,74.3l17.6-10.2c0.1,0.4,0.2,0.8,0.2,1.2l-17.6,10.2C418.4,75.1,418.3,74.7,418.2,74.3"/>
		<path class="st29" d="M418.5,75.5l17.6-10.2c0.1,0.4,0.1,0.8,0.2,1.1l-17.6,10.2C418.6,76.3,418.5,75.9,418.5,75.5"/>
		<path class="st13" d="M418.7,76.6l17.6-10.2c0.1,0.4,0.1,0.7,0.2,1.1l-17.6,10.2C418.8,77.4,418.7,77,418.7,76.6"/>
		<path class="st14" d="M418.8,77.8l17.6-10.2c0,0.4,0.1,0.7,0.1,1.1L419,78.8C418.9,78.5,418.9,78.1,418.8,77.8"/>
		<path class="st15" d="M419,78.8l17.6-10.2c0,0.4,0.1,0.7,0.1,1.1L419,79.9C419,79.6,419,79.2,419,78.8"/>
		<path class="st16" d="M419,79.9l17.6-10.2c0,0.4,0,0.7,0.1,1.1L419.1,81C419.1,80.7,419.1,80.3,419,79.9"/>
		<path class="st17" d="M419.1,81l17.6-10.2c0,0.3,0,0.7,0,1c0,0,0,0,0,0.1l-17.6,10.2c0,0,0,0,0-0.1
			C419.1,81.7,419.1,81.4,419.1,81"/>
		<path class="st18" d="M419.1,82.1l17.6-10.2c0,0.4,0,0.7,0,1.1l-17.6,10.2C419.1,82.8,419.1,82.4,419.1,82.1"/>
		<path class="st19" d="M419.1,83.2l17.6-10.2c0,0.4,0,0.7-0.1,1.1L419,84.2C419,83.9,419.1,83.5,419.1,83.2"/>
		<path class="st20" d="M419,84.2L436.6,74c0,0.4-0.1,0.7-0.1,1.1l-17.6,10.2C418.9,84.9,419,84.6,419,84.2"/>
		<path class="st21" d="M418.9,85.3l17.6-10.2c0,0.4-0.1,0.7-0.2,1.1l-17.6,10.2C418.8,86,418.9,85.7,418.9,85.3"/>
		<path class="st22" d="M418.7,86.4l17.6-10.2c-0.1,0.4-0.1,0.7-0.2,1.1l-17.6,10.2C418.6,87.1,418.7,86.7,418.7,86.4"/>
		<path class="st23" d="M418.5,87.4l17.6-10.2c-0.1,0.4-0.2,0.8-0.3,1.1l-17.6,10.2C418.3,88.2,418.4,87.8,418.5,87.4"/>
		<path class="st24" d="M418.2,88.6l17.6-10.2c-0.1,0.4-0.3,0.8-0.4,1.2l-17.6,10.2C418,89.4,418.1,89,418.2,88.6"/>
		<path class="st25" d="M417.8,89.8l17.6-10.2c-0.2,0.5-0.4,0.9-0.5,1.3l-17.6,10.2C417.5,90.7,417.7,90.2,417.8,89.8"/>
		<path class="st26" d="M417.3,91.1l17.6-10.2c-0.3,0.5-0.5,1-0.8,1.5l-17.6,10.2C416.8,92.1,417,91.6,417.3,91.1"/>
		<path class="st27" d="M416.5,92.6l17.6-10.2c-1,1.6-2.3,2.9-3.9,3.8l-17.6,10.2C414.1,95.5,415.4,94.2,416.5,92.6"/>
	</g>
</g>
<g>
	<path class="st8" d="M396.8,43.4c12.3,7.1,22.3,24.4,22.3,38.6c0,9.8-4.8,15.5-11.8,15.8l-0.1,37l-9-5.2l-6.1-3.5l-6.1-3.5l6.1-3.5
		l-6.1-10.5l6.1-3.5L386,94.6l5.7-3.2c-10-8.3-17.4-22.9-17.3-35.1C374.5,42,384.5,36.3,396.8,43.4z M396.8,65.8
		c3.6,2.1,6.5,0.4,6.5-3.7c0-4.1-2.9-9.1-6.5-11.2c-3.6-2.1-6.5-0.4-6.5,3.7C390.3,58.7,393.2,63.7,396.8,65.8"/>
</g>
<path class="st10" d="M488,56.8c-10.9-6.3-20-2.6-22,8.2c-10.3-3.6-18,2.3-18,14.8c0,12.2,7.4,26.8,17.3,35.1l-5.7,3.2l6.1,10.5
	l-6.1,3.5l6.1,10.5l-6.1,3.5l6.1,3.5l6.1,3.5l9,5.2l17.6-10.2l0.1-37c7.6-3.4,11.8-8.9,11.8-15.8C510.2,81.2,500.3,63.9,488,56.8z"
	/>
<path class="st3" d="M564.5,0C547.1,0,533,14.1,533,31.5S547.1,63,564.5,63c17.4,0,31.5-14.1,31.5-31.5S581.9,0,564.5,0z
	 M564.5,27.4c-5,0-9.1-4.1-9.1-9.1s4.1-9.1,9.1-9.1c5,0,9.1,4.1,9.1,9.1S569.6,27.4,564.5,27.4z"/>
<g>
	<g>
		<rect x="558.2" y="57.3" class="st3" width="21.4" height="47.2"/>
		
			<rect x="552.1" y="64.1" transform="matrix(0.7071 -0.7071 0.7071 0.7071 113.8211 415.2426)" class="st3" width="12.2" height="12.2"/>
		
			<rect x="552.1" y="81.3" transform="matrix(0.7071 -0.7071 0.7071 0.7071 101.6824 420.2705)" class="st3" width="12.2" height="12.2"/>
		<polyline class="st3" points="549.5,104.6 558.2,96 566.8,104.6 		"/>
	</g>
</g>
<polygon class="st8" points="480.8,121.5 498.5,111.2 498.5,148.8 480.7,158.4 "/>
<polygon class="st10" points="454.7,65.3 473.6,54.5 495.7,75.7 "/>
<g>
	<path class="st3" d="M470.3,67.1c12.3,7.1,22.3,24.4,22.3,38.6c0,9.8-4.8,15.5-11.8,15.8l-0.1,37l-9-5.2l-6.1-3.5l-6.1-3.5l6.1-3.5
		l-6.1-10.5l6.1-3.5l-6.1-10.5l5.7-3.2c-10-8.3-17.4-22.9-17.3-35.1C448,65.7,458,59.9,470.3,67.1z M470.3,89.4
		c3.6,2.1,6.5,0.4,6.5-3.7c0-4.1-2.9-9.1-6.5-11.2c-3.6-2.1-6.5-0.4-6.5,3.7C463.8,82.3,466.7,87.4,470.3,89.4"/>
</g>
<path class="st45" d="M328.7-20.9c-0.3-1.6-0.5-3.2-0.7-4.7C328.2-24.1,328.4-22.5,328.7-20.9z"/>
<path class="st45" d="M328-29.3c0-0.1,0-0.2,0-0.3C328-29.5,328-29.4,328-29.3z"/>
<path class="st45" d="M334.1-6.7c-2.1-3.8-3.8-7.8-4.8-11.8C330.3-14.5,332-10.5,334.1-6.7z"/>
<path class="st45" d="M328.1-30.6c0-0.1,0-0.1,0-0.2C328.1-30.7,328.1-30.7,328.1-30.6z"/>
<path class="st45" d="M328.3-31.8c0,0,0-0.1,0-0.1C328.3-31.9,328.3-31.9,328.3-31.8z"/>
<path class="st45" d="M345.3,7.1c-0.6-0.5-1.2-1.1-1.8-1.6C344.1,6,344.7,6.6,345.3,7.1L345.3,7.1z"/>
<polygon class="st45" points="339.6,10.3 339.6,10.3 345.7,20.8 345.7,20.8 "/>
<path class="st45" d="M343.5,5.4c-3.6-3.4-6.8-7.6-9.4-12.1C336.7-2.2,339.9,2,343.5,5.4z"/>
<polygon class="st45" points="345.7,34.8 339.6,24.3 339.6,24.3 "/>
<path class="st45" d="M368-51c-6.9-4-13.1-3.9-17.2-0.7l-16.1,9.2l0,0c4-2.2,9.5-1.8,15.6,1.7c12.3,7.1,22.3,24.4,22.3,38.6
	c0,9.8-4.8,15.5-11.8,15.8l-0.1,37l-9-5.2l-6.1-3.5l-6.1-3.5l6.1,3.5l6.1,3.5l9,5.2l17.6-10.2l0.1-37c7.6-3.4,11.8-8.9,11.8-15.8
	C390.3-26.6,380.4-43.9,368-51z"/>
<g>
	<g class="st11">
		<g class="st46">
			<path class="st47" d="M994.7,306.9c2.2,1.3,2.3,3.4,0,4.7l-173.9,101c-2.2,1.3-5.9,1.3-8.1,0L538.3,254.2c-2.2-1.3-2.3-3.4,0-4.7
				l173.9-101c2.2-1.3,5.9-1.3,8.1,0L994.7,306.9z"/>
		</g>
		<path class="st48" d="M996.4,249.1c0,0.1,0,0.1,0,0.2c0,0,0,0.1,0,0.1c0,0.1,0,0.1,0,0.2c0,0,0,0.1-0.1,0.1c0,0.1-0.1,0.1-0.1,0.2
			c0,0-0.1,0.1-0.1,0.1c0,0.1-0.1,0.1-0.1,0.2c0,0.1-0.1,0.1-0.1,0.2c0,0,0,0,0,0c-0.1,0.1-0.2,0.2-0.2,0.2c-0.1,0-0.1,0.1-0.2,0.1
			c-0.1,0-0.1,0.1-0.2,0.1c-0.1,0-0.1,0.1-0.2,0.1c-0.1,0-0.1,0.1-0.2,0.1l-173.9,101l-0.1,21.8l173.9-101c0,0,0,0,0.1,0
			c0.1,0,0.1-0.1,0.1-0.1c0.1,0,0.1-0.1,0.2-0.1c0.1,0,0.1-0.1,0.2-0.1c0.1,0,0.1-0.1,0.2-0.1c0,0,0,0,0,0c0.1-0.1,0.1-0.1,0.2-0.2
			c0,0,0,0,0,0c0,0,0.1-0.1,0.1-0.1c0,0,0,0,0-0.1c0-0.1,0.1-0.1,0.1-0.2c0,0,0-0.1,0.1-0.1c0,0,0,0,0,0c0-0.1,0.1-0.1,0.1-0.2
			c0,0,0-0.1,0-0.1c0,0,0,0,0,0c0-0.1,0-0.1,0-0.2c0,0,0-0.1,0-0.1c0,0,0,0,0,0c0-0.1,0-0.1,0-0.2c0,0,0-0.1,0-0.1c0,0,0,0,0-0.1
			l0.1-21.8C996.4,249,996.4,249,996.4,249.1z"/>
		<g>
			<path class="st45" d="M994.7,246.6c2.2,1.3,2.3,3.4,0,4.7l-173.9,101c-2.2,1.3-5.9,1.3-8.1,0L538.3,193.9c-2.2-1.3-2.3-3.4,0-4.7
				l173.9-101c2.2-1.3,5.9-1.3,8.1,0L994.7,246.6z"/>
		</g>
		<path class="st49" d="M820.4,352.6c-0.1,0-0.1,0-0.2,0.1c-0.1,0.1-0.3,0.1-0.4,0.2c-0.1,0-0.1,0-0.2,0.1c-0.1,0-0.2,0.1-0.3,0.1
			c-0.1,0-0.2,0-0.2,0.1c-0.1,0-0.2,0-0.3,0.1c-0.1,0-0.1,0-0.2,0c-0.2,0-0.4,0.1-0.7,0.1c-0.1,0-0.1,0-0.2,0c-0.1,0-0.3,0-0.4,0
			c-0.1,0-0.2,0-0.2,0c-0.1,0-0.2,0-0.3,0c-0.1,0-0.2,0-0.3,0c-0.1,0-0.2,0-0.3,0c-0.1,0-0.2,0-0.3,0c-0.1,0-0.2,0-0.3,0
			c-0.1,0-0.2,0-0.3,0c-0.1,0-0.2,0-0.3-0.1c-0.1,0-0.2,0-0.2,0c-0.1,0-0.2-0.1-0.4-0.1c-0.1,0-0.1,0-0.2-0.1
			c-0.2-0.1-0.4-0.1-0.6-0.2c-0.1,0-0.2-0.1-0.3-0.1c0,0-0.1,0-0.1-0.1c-0.1-0.1-0.3-0.1-0.4-0.2L538.3,193.9
			c-0.7-0.4-1.2-0.9-1.5-1.4c-0.2-0.3-0.2-0.6-0.2-1l-0.1,21.8c0,0.9,0.6,1.7,1.7,2.4l274.5,158.5c0.1,0.1,0.3,0.2,0.4,0.2
			c0,0,0.1,0,0.1,0.1c0.1,0,0.2,0.1,0.3,0.1c0,0,0,0,0,0c0.2,0.1,0.4,0.1,0.6,0.2c0,0,0,0,0,0c0,0,0.1,0,0.1,0
			c0.1,0,0.2,0.1,0.4,0.1c0,0,0.1,0,0.1,0c0,0,0.1,0,0.1,0c0.1,0,0.2,0,0.3,0.1c0,0,0.1,0,0.1,0c0,0,0.1,0,0.1,0c0.1,0,0.2,0,0.3,0
			c0,0,0.1,0,0.1,0c0,0,0.1,0,0.1,0c0.1,0,0.2,0,0.3,0c0,0,0.1,0,0.1,0c0,0,0.1,0,0.1,0c0.1,0,0.2,0,0.3,0c0.1,0,0.1,0,0.2,0
			c0,0,0.1,0,0.1,0c0.1,0,0.3,0,0.4,0c0.1,0,0.1,0,0.2,0c0,0,0,0,0,0c0.2,0,0.4-0.1,0.7-0.1c0,0,0,0,0,0c0.1,0,0.1,0,0.2,0
			c0.1,0,0.2,0,0.3-0.1c0.1,0,0.2,0,0.2-0.1c0.1,0,0.2-0.1,0.3-0.1c0,0,0,0,0.1,0c0,0,0.1,0,0.1,0c0.2-0.1,0.3-0.1,0.4-0.2
			c0.1,0,0.1,0,0.2-0.1c0.2-0.1,0.4-0.2,0.5-0.3l0.1-21.8C820.7,352.4,820.5,352.5,820.4,352.6z"/>
	</g>
</g>
<g>
	<path class="st50" d="M694.7,98.3l17.5-10.2c2.2-1.3,5.9-1.3,8.1,0l274.5,158.5c2.2,1.3,2.3,3.4,0,4.7l-17.5,10.2L694.7,98.3z"/>
</g>
<polygon class="st49" points="612.5,197.7 705.4,251.4 799.3,197.7 705.4,144 "/>
<g>
	<polygon class="st45" points="613.2,36.1 690.4,80.7 768.5,36.1 690.4,-8.5 	"/>
	<polygon class="st48" points="633.2,36.1 690.5,3 748.3,36.1 690.5,69.2 	"/>
	<polygon class="st51" points="613.2,36.1 613.2,197.8 690.4,242.3 690.4,80.7 	"/>
	<polygon class="st48" points="690.4,80.7 690.4,242.3 768.5,197.8 768.5,36.1 	"/>
</g>
<polygon class="st49" points="717.8,258.5 810.7,312.1 904.6,258.5 810.7,204.8 "/>
<g>
	<g>
		<polygon class="st45" points="746.6,61 759.3,53.6 759.3,72 746.6,79.3 		"/>
	</g>
	<g>
		<polygon class="st45" points="746.7,122 746.7,103.7 759.4,96.4 759.5,114.7 		"/>
	</g>
	<g>
		<polygon class="st45" points="746.7,100.7 746.6,82.4 759.4,75 759.4,93.3 		"/>
	</g>
	<g>
		<polygon class="st45" points="746.8,164.7 746.8,146.4 759.5,139.1 759.6,157.4 		"/>
	</g>
	<g>
		<polygon class="st45" points="746.8,143.4 746.7,125.1 759.5,117.7 759.5,136 		"/>
	</g>
	<g>
		<polygon class="st45" points="746.9,186.1 746.9,167.8 759.6,160.4 759.6,178.7 		"/>
	</g>
	<g>
		<polygon class="st45" points="747,207.4 746.9,189.1 759.7,181.8 759.7,200.1 		"/>
	</g>
	<g>
		<polygon class="st45" points="730.9,131.1 730.9,112.8 743.6,105.5 743.7,123.8 		"/>
	</g>
	<g>
		<polygon class="st45" points="730.9,109.8 730.8,91.5 743.5,84.1 743.6,102.4 		"/>
	</g>
	<g>
		<polygon class="st45" points="730.8,88.4 730.7,70.1 743.5,62.8 743.5,81.1 		"/>
	</g>
	<g>
		<polygon class="st45" points="731,173.8 731,155.5 743.7,148.2 743.8,166.5 		"/>
	</g>
	<g>
		<polygon class="st45" points="731,152.5 730.9,134.2 743.7,126.8 743.7,145.1 		"/>
	</g>
	<g>
		<polygon class="st45" points="731.2,216.5 731.1,198.2 743.8,190.9 743.9,209.2 		"/>
	</g>
	<g>
		<polygon class="st45" points="731.1,195.2 731,176.9 743.8,169.5 743.8,187.8 		"/>
	</g>
	<g>
		<polygon class="st45" points="715,118.9 715,100.6 727.7,93.3 727.8,111.6 		"/>
	</g>
	<g>
		<polygon class="st45" points="715,97.6 714.9,79.3 727.7,71.9 727.7,90.2 		"/>
	</g>
	<g>
		<polygon class="st45" points="715.3,204.3 715.2,186 728,178.7 728,197 		"/>
	</g>
	<g>
		<polygon class="st45" points="715.2,183 715.2,164.7 727.9,157.3 728,175.6 		"/>
	</g>
	<g>
		<polygon class="st45" points="715.2,161.6 715.1,143.3 727.9,136 727.9,154.3 		"/>
	</g>
	<g>
		<polygon class="st45" points="715.1,140.3 715.1,122 727.8,114.6 727.9,132.9 		"/>
	</g>
	<g>
		<polygon class="st45" points="715.4,225.7 715.3,207.4 728,200 728.1,218.3 		"/>
	</g>
	<g>
		<polygon class="st45" points="699.2,128 699.2,109.7 711.9,102.4 712,120.7 		"/>
	</g>
	<g>
		<polygon class="st45" points="699.2,106.7 699.1,88.4 711.9,81 711.9,99.3 		"/>
	</g>
	<g>
		<polygon class="st45" points="699.4,192.1 699.4,173.8 712.1,166.4 712.2,184.7 		"/>
	</g>
	<g class="st11">
		<g>
			<polygon class="st45" points="699.4,170.7 699.3,152.4 712.1,145.1 712.1,163.4 			"/>
		</g>
		<g>
			<polygon class="st45" points="699.3,149.4 699.2,131.1 712,123.7 712,142 			"/>
		</g>
	</g>
	<g>
		<polygon class="st45" points="699.5,234.8 699.5,216.5 712.2,209.1 712.3,227.4 		"/>
	</g>
	<g>
		<polygon class="st45" points="699.5,213.4 699.4,195.1 712.2,187.8 712.2,206.1 		"/>
	</g>
</g>
<polygon class="st45" points="718.1,7.9 795.4,52.5 873.4,7.9 795.4,-36.7 "/>
<polygon class="st48" points="738.1,7.9 795.4,-25.2 853.2,7.9 795.4,41 "/>
<polygon class="st51" points="718.1,7.9 718.1,258.7 795.4,303.3 795.4,52.5 "/>
<g>
	<line class="st52" x1="781.7" y1="279.7" x2="731.8" y2="250.8"/>
	<line class="st52" x1="781.7" y1="265.1" x2="731.8" y2="236.2"/>
	<line class="st52" x1="781.7" y1="250.4" x2="731.8" y2="221.6"/>
	<line class="st52" x1="781.7" y1="235.8" x2="731.8" y2="207"/>
	<line class="st52" x1="781.7" y1="221.2" x2="731.8" y2="192.4"/>
	<line class="st52" x1="781.7" y1="206.6" x2="731.8" y2="177.7"/>
	<line class="st52" x1="781.7" y1="192" x2="731.8" y2="163.1"/>
	<line class="st52" x1="781.7" y1="177.3" x2="731.8" y2="148.5"/>
	<line class="st52" x1="781.7" y1="162.7" x2="731.8" y2="133.9"/>
	<line class="st52" x1="781.7" y1="148.1" x2="731.8" y2="119.3"/>
	<line class="st52" x1="781.7" y1="133.5" x2="731.8" y2="104.6"/>
	<line class="st52" x1="781.7" y1="118.8" x2="731.8" y2="90"/>
	<line class="st52" x1="781.7" y1="104.2" x2="731.8" y2="75.4"/>
	<line class="st52" x1="781.7" y1="89.6" x2="731.8" y2="60.8"/>
	<line class="st52" x1="781.7" y1="75" x2="731.8" y2="46.1"/>
	<line class="st52" x1="731.8" y1="31.5" x2="781.7" y2="60.4"/>
</g>
<g>
	<line class="st52" x1="675.9" y1="217.1" x2="625.9" y2="188.2"/>
	<line class="st52" x1="675.9" y1="201.3" x2="625.9" y2="172.4"/>
	<line class="st52" x1="675.9" y1="185.5" x2="625.9" y2="156.6"/>
	<line class="st52" x1="675.9" y1="169.7" x2="625.9" y2="140.8"/>
	<line class="st52" x1="675.9" y1="153.9" x2="625.9" y2="125"/>
	<line class="st52" x1="675.9" y1="138.1" x2="625.9" y2="109.3"/>
	<line class="st52" x1="675.9" y1="122.3" x2="625.9" y2="93.5"/>
	<line class="st52" x1="675.9" y1="106.5" x2="625.9" y2="77.7"/>
	<line class="st52" x1="625.9" y1="61.9" x2="675.9" y2="90.7"/>
</g>
<polygon class="st48" points="795.4,52.5 795.4,303.3 873.4,258.7 873.4,7.9 "/>
<g>
	<g>
		<polygon class="st45" points="852.2,29.8 865,22.5 865,40.8 852.3,48.1 		"/>
	</g>
	<g>
		<polygon class="st45" points="852.4,90.8 852.3,72.5 865.1,65.2 865.1,83.5 		"/>
	</g>
	<g>
		<polygon class="st45" points="852.3,69.5 852.3,51.2 865,43.8 865.1,62.1 		"/>
	</g>
	<g>
		<polygon class="st45" points="852.5,133.5 852.5,115.2 865.2,107.9 865.3,126.2 		"/>
	</g>
	<g>
		<polygon class="st45" points="852.5,112.2 852.4,93.9 865.1,86.5 865.2,104.8 		"/>
	</g>
	<g>
		<polygon class="st45" points="852.6,154.9 852.5,136.6 865.3,129.2 865.3,147.5 		"/>
	</g>
	<g>
		<polygon class="st45" points="852.6,176.3 852.6,158 865.3,150.6 865.4,168.9 		"/>
	</g>
	<g>
		<polygon class="st45" points="852.7,197.6 852.6,179.3 865.4,171.9 865.4,190.3 		"/>
	</g>
	<g>
		<polygon class="st45" points="836.6,100 836.5,81.7 849.3,74.3 849.3,92.6 		"/>
	</g>
	<g>
		<polygon class="st45" points="836.5,78.6 836.5,60.3 849.2,53 849.3,71.3 		"/>
	</g>
	<g>
		<polygon class="st45" points="836.5,57.3 836.4,39 849.2,31.6 849.2,49.9 		"/>
	</g>
	<g>
		<polygon class="st45" points="836.7,142.7 836.7,124.4 849.4,117 849.5,135.3 		"/>
	</g>
	<g>
		<polygon class="st45" points="836.6,121.3 836.6,103 849.3,95.7 849.4,114 		"/>
	</g>
	<g>
		<polygon class="st45" points="836.9,206.7 836.8,188.4 849.6,181.1 849.6,199.4 		"/>
	</g>
	<g>
		<polygon class="st45" points="836.8,185.4 836.8,167.1 849.5,159.7 849.6,178 		"/>
	</g>
	<g>
		<polygon class="st45" points="836.8,164 836.7,145.7 849.5,138.4 849.5,156.7 		"/>
	</g>
	<g>
		<polygon class="st45" points="820.7,87.7 820.7,69.4 833.4,62.1 833.5,80.4 		"/>
	</g>
	<g>
		<polygon class="st45" points="820.7,66.4 820.6,48.1 833.3,40.7 833.4,59 		"/>
	</g>
	<g>
		<polygon class="st45" points="821,173.2 820.9,154.9 833.7,147.5 833.7,165.8 		"/>
	</g>
	<g>
		<polygon class="st45" points="820.9,151.8 820.8,133.5 833.6,126.1 833.6,144.4 		"/>
	</g>
	<g>
		<polygon class="st45" points="820.8,130.4 820.8,112.2 833.5,104.8 833.6,123.1 		"/>
	</g>
	<g>
		<polygon class="st45" points="820.8,109.1 820.7,90.8 833.5,83.4 833.5,101.7 		"/>
	</g>
	<g>
		<polygon class="st45" points="821.1,215.9 821,197.6 833.8,190.2 833.8,208.5 		"/>
	</g>
	<g>
		<polygon class="st45" points="821,194.5 821,176.2 833.7,168.8 833.8,187.2 		"/>
	</g>
	<g>
		<polygon class="st45" points="804.9,96.9 804.9,78.6 817.6,71.2 817.7,89.5 		"/>
	</g>
	<g>
		<polygon class="st45" points="804.9,75.5 804.8,57.2 817.5,49.9 817.6,68.2 		"/>
	</g>
	<g>
		<polygon class="st45" points="805.1,160.9 805,142.6 817.8,135.3 817.8,153.6 		"/>
	</g>
	<g class="st11">
		<g>
			<polygon class="st45" points="805,139.6 805,121.3 817.7,113.9 817.8,132.2 			"/>
		</g>
		<g>
			<polygon class="st45" points="805,118.2 804.9,99.9 817.7,92.6 817.7,110.9 			"/>
		</g>
	</g>
	<g>
		<polygon class="st45" points="805.2,203.6 805.2,185.3 817.9,178 818,196.3 		"/>
	</g>
	<g>
		<polygon class="st45" points="805.2,182.3 805.1,164 817.8,156.6 817.9,174.9 		"/>
	</g>
	<g>
		<polygon class="st45" points="805.3,225 805.2,206.7 818,199.3 818,217.6 		"/>
	</g>
</g>
<g>
	<g>
		<polygon class="st45" points="852.4,240.9 852.3,222.6 865.1,215.3 865.1,233.6 		"/>
	</g>
	<g>
		<polygon class="st45" points="852.3,219.6 852.3,201.3 865,193.9 865.1,212.2 		"/>
	</g>
	<g>
		<polygon class="st45" points="852.5,262.3 852.4,244 865.1,236.6 865.2,254.9 		"/>
	</g>
	<g>
		<polygon class="st45" points="836.6,250 836.5,231.7 849.3,224.4 849.3,242.7 		"/>
	</g>
	<g>
		<polygon class="st45" points="836.5,228.7 836.5,210.4 849.2,203 849.3,221.3 		"/>
	</g>
	<g>
		<polygon class="st45" points="836.6,271.4 836.6,253.1 849.3,245.7 849.4,264 		"/>
	</g>
	<g>
		<polygon class="st45" points="820.7,237.8 820.7,219.5 833.4,212.2 833.5,230.5 		"/>
	</g>
	<g>
		<polygon class="st45" points="820.8,280.5 820.8,262.2 833.5,254.9 833.6,273.2 		"/>
	</g>
	<g>
		<polygon class="st45" points="820.8,259.2 820.7,240.9 833.5,233.5 833.5,251.8 		"/>
	</g>
	<g>
		<polygon class="st45" points="804.9,246.9 804.9,228.6 817.6,221.3 817.7,239.6 		"/>
	</g>
	<g class="st11">
		<g>
			<polygon class="st45" points="805,289.6 805,271.3 817.7,264 817.8,282.3 			"/>
		</g>
		<g>
			<polygon class="st45" points="805,268.3 804.9,250 817.7,242.6 817.7,260.9 			"/>
		</g>
	</g>
</g>
<g>
	<polygon class="st48" points="340.7,73.3 340.8,130.3 291.2,159 291,102 	"/>
	<polygon class="st51" points="296,104.8 335.7,81.9 335.8,127.5 296.1,150.4 	"/>
	<polygon class="st51" points="291.2,159 203.7,108.2 203.5,51.1 291,102 	"/>
	<polygon class="st50" points="208.7,105.3 208.5,59.8 286,104.8 286.1,150.3 	"/>
	<g>
		<polygon class="st45" points="291,102 203.5,51.1 253.2,22.4 340.7,73.3 		"/>
	</g>
	<path class="st45" d="M281-26.8c-6.9-4-13.1-3.9-17.2-0.7l-16.1,9.2l0.1,0c-4.2,2.2-6.8,7.3-6.9,14.5c0,12.2,7.4,26.8,17.3,35.1
		l-5.7,3.2l6.1,10.5l-6.1,3.5l6.1,10.5l-6.1,3.5l6.1,3.5l6.1,3.5l9,5.2l17.6-10.2l0.1-37c9.8-5.1,11-10.3,11-16.1
		C302.5-2.7,293.3-19.7,281-26.8z"/>
	<polygon class="st48" points="273.8,37.8 291.5,27.6 291.5,65.2 273.7,74.8 	"/>
	<g>
		<path class="st51" d="M263.3-16.6c12.3,7.1,22.3,24.4,22.3,38.6c0,9.8-4.8,15.5-11.8,15.8l-0.1,37l-9-5.2l-6.1-3.5l-6.1-3.5
			l6.1-3.5l-6.1-10.5l6.1-3.5l-6.1-10.5l5.7-3.2c-10-8.3-17.4-22.9-17.3-35.1C241-18,251-23.7,263.3-16.6z M263.3,5.8
			c3.6,2.1,6.5,0.4,6.5-3.7c0-4.1-2.9-9.1-6.5-11.2c-3.6-2.1-6.5-0.4-6.5,3.7C256.8-1.3,259.7,3.7,263.3,5.8"/>
	</g>
	<path class="st48" d="M263.3,5.8c3.6,2.1,6.5,0.4,6.5-3.7s-2.9-9.1-6.5-11.2s-6.5-0.4-6.5,3.7S259.7,3.7,263.3,5.8z"/>
	<polygon class="st45" points="335.7,81.9 332.7,83.7 332.8,125.5 296.1,146.6 296.1,150.4 335.8,127.5 	"/>
	<polygon class="st48" points="208.5,59.8 211.7,61.7 211.6,103.9 286.1,146.6 286.1,150.4 208.7,105.3 	"/>
	<polygon class="st53" points="291.5,65.2 309.5,55.2 291.5,44.7 	"/>
</g>
<polygon class="st54" points="151,95.6 151.1,148.4 105.1,175 105,122.1 "/>
<polygon class="st55" points="109.6,124.8 146.3,103.6 146.5,145.8 109.7,167 "/>
<polygon class="st56" points="105.1,175 24,127.9 23.9,75 105,122.1 "/>
<polygon class="st55" points="28.7,125.2 28.5,83.1 100.3,124.8 100.4,166.9 "/>
<g>
	<polygon class="st57" points="105,122.1 23.9,75 69.9,48.5 151,95.6 	"/>
</g>
<path class="st0" d="M95.7,2.8c-6.4-3.7-12.1-3.7-15.9-0.6l-14.9,8.5l0.1,0c-3.9,2.1-6.3,6.7-6.4,13.4c0,11.3,6.8,24.8,16.1,32.5
	l-5.3,3l5.6,9.7l-5.7,3.2l5.6,9.7l-5.7,3.2l5.7,3.3l5.7,3.3L89,97l16.3-9.5l0.1-34.2c9.1-4.8,10.2-9.5,10.2-14.9
	C115.6,25.2,107.1,9.4,95.7,2.8z"/>
<polygon class="st58" points="89,62.7 105.4,53.2 105.4,88.1 89,97 "/>
<g>
	<path class="st59" d="M79.3,12.3C90.8,18.9,100,34.9,100,48.1c0,9-4.4,14.4-10.9,14.7L89,97l-8.4-4.8l-5.7-3.3l-5.7-3.3l5.7-3.2
		l-5.6-9.7l5.7-3.2l-5.6-9.7l5.3-3c-9.2-7.7-16.1-21.2-16.1-32.5C58.6,11,67.9,5.7,79.3,12.3z M79.3,33c3.3,1.9,6,0.4,6-3.4
		c0-3.8-2.7-8.5-6-10.4c-3.3-1.9-6-0.4-6,3.4C73.3,26.5,75.9,31.1,79.3,33"/>
</g>
<path class="st58" d="M79.3,33c3.3,1.9,6,0.4,6-3.4c0-3.8-2.7-8.5-6-10.4c-3.3-1.9-6-0.4-6,3.4C73.3,26.5,75.9,31.1,79.3,33z"/>
<polygon class="st57" points="146.3,103.6 143.6,105.2 143.7,143.9 109.7,163.5 109.7,167 146.5,145.8 "/>
<polygon class="st57" points="28.5,83.1 31.5,84.8 31.4,123.9 100.5,163.5 100.4,167 28.7,125.2 "/>
<polygon class="st54" points="105.4,88.1 122.1,78.8 105.4,69.1 "/>
<polygon class="st60" points="-33.7,189.5 -42.9,189.5 -44.9,184.1 -31.7,184.1 "/>
<g>
	<g>
		<g class="st11">
			<g>
				<polygon class="st61" points="-6.6,127.8 -11.8,129.2 -18.4,125.4 -16,122.4 				"/>
			</g>
			<g>
				<polygon class="st62" points="-6.6,127.8 -6.8,209.3 -12,210.7 -11.8,129.2 				"/>
			</g>
			<g>
				<polygon class="st63" points="-11.8,129.2 -12,210.7 -18.6,206.9 -18.4,125.4 				"/>
			</g>
		</g>
	</g>
</g>
<g>
	<g class="st11">
		<g>
			<polygon class="st54" points="41.4,90.6 41.2,129.6 37.7,130.5 37.8,88.5 			"/>
		</g>
		<g>
			<polygon class="st56" points="37.8,88.5 37.7,130.5 33.2,127.9 33.3,85.9 			"/>
		</g>
	</g>
</g>
<g>
	<g class="st11">
		<g>
			<polygon class="st54" points="63.5,103.4 63.3,142.4 59.8,143.3 59.9,101.3 			"/>
		</g>
		<g>
			<polygon class="st56" points="59.9,101.3 59.8,143.3 55.3,140.7 55.4,98.7 			"/>
		</g>
	</g>
</g>
<g>
	<g class="st11">
		<g>
			<polygon class="st54" points="52.4,97 52.3,136 48.7,136.9 48.9,94.9 			"/>
		</g>
		<g>
			<polygon class="st56" points="48.9,94.9 48.7,136.9 44.2,134.3 44.4,92.3 			"/>
		</g>
	</g>
</g>
<g>
	<g class="st11">
		<g>
			<polygon class="st54" points="74.5,109.9 74.3,148.9 70.8,149.8 71,107.8 			"/>
		</g>
		<g>
			<polygon class="st56" points="71,107.8 70.8,149.8 66.3,147.2 66.5,105.2 			"/>
		</g>
	</g>
</g>
<g>
	<g class="st11">
		<g>
			<polygon class="st54" points="85.5,116.2 85.4,155.2 81.9,156.1 82,114.1 			"/>
		</g>
		<g>
			<polygon class="st56" points="82,114.1 81.9,156.1 77.4,153.6 77.5,111.5 			"/>
		</g>
	</g>
</g>
<g>
	<g class="st11">
		<g>
			<polygon class="st54" points="96.6,122.7 96.4,161.7 92.9,162.6 93.1,120.6 			"/>
		</g>
		<g>
			<polygon class="st56" points="93.1,120.6 92.9,162.6 88.4,160 88.6,118 			"/>
		</g>
	</g>
</g>
<g>
	<circle class="st64" cx="92.3" cy="220.5" r="13.1"/>
	<circle class="st65" cx="123.4" cy="220.5" r="13.1"/>
	<circle class="st66" cx="154.4" cy="220.5" r="13.1"/>
	<circle class="st67" cx="185.5" cy="220.5" r="13.1"/>
	<circle class="st68" cx="216.6" cy="220.5" r="13.1"/>
</g>
<polygon class="st54" points="28.7,125.2 28.5,83.1 31.5,84.8 31.4,123.9 "/>
<g>
	<polygon class="st0" points="278.1,227.9 197.1,180.8 267.1,140.5 348.2,187.6 	"/>
</g>
<polygon class="st65" points="324.1,148.5 324.3,201.3 278.3,227.9 278.1,175 "/>
<polygon class="st66" points="282.8,177.7 319.5,156.5 319.6,198.6 282.9,219.9 "/>
<polygon class="st66" points="278.3,227.9 197.2,180.8 197.1,127.9 278.1,175 "/>
<polygon class="st67" points="201.8,178.1 201.7,136 273.5,177.7 273.6,219.8 "/>
<g>
	<polygon class="st64" points="278.1,175 197.1,127.9 243.1,101.4 324.1,148.5 	"/>
</g>
<polygon class="st64" points="319.5,156.5 316.7,158.1 316.9,196.8 282.9,216.4 282.9,219.9 319.6,198.6 "/>
<polygon class="st64" points="201.7,136 204.7,137.7 204.5,176.8 273.6,216.4 273.6,219.9 201.8,178.1 "/>
<g>
	<g class="st11">
		<g>
			<polygon class="st65" points="214.4,143.3 214.2,182.4 210.7,183.3 210.8,141.2 			"/>
		</g>
		<g>
			<polygon class="st66" points="210.8,141.2 210.7,183.3 206.2,180.7 206.4,138.7 			"/>
		</g>
	</g>
</g>
<g>
	<g class="st11">
		<g>
			<polygon class="st65" points="224.2,149.1 224,188.1 220.5,189 220.6,147 			"/>
		</g>
		<g>
			<polygon class="st66" points="220.6,147 220.5,189 216,186.4 216.1,144.4 			"/>
		</g>
	</g>
</g>
<g>
	<g class="st11">
		<g>
			<polygon class="st65" points="234,154.7 233.8,193.8 230.3,194.7 230.4,152.6 			"/>
		</g>
		<g>
			<polygon class="st66" points="230.4,152.6 230.3,194.7 225.8,192.1 225.9,150.1 			"/>
		</g>
	</g>
</g>
<g>
	<g class="st11">
		<g>
			<polygon class="st65" points="243.7,160.4 243.6,199.4 240,200.4 240.2,158.3 			"/>
		</g>
		<g>
			<polygon class="st66" points="240.2,158.3 240,200.4 235.6,197.8 235.7,155.7 			"/>
		</g>
	</g>
</g>
<g>
	<g class="st11">
		<g>
			<polygon class="st65" points="253.5,166.2 253.4,205.2 249.8,206.1 250,164.1 			"/>
		</g>
		<g>
			<polygon class="st66" points="250,164.1 249.8,206.1 245.3,203.5 245.5,161.5 			"/>
		</g>
	</g>
</g>
<g>
	<g class="st11">
		<g>
			<polygon class="st65" points="263.3,171.7 263.2,210.7 259.6,211.7 259.8,169.6 			"/>
		</g>
		<g>
			<polygon class="st66" points="259.8,169.6 259.6,211.7 255.1,209.1 255.3,167 			"/>
		</g>
	</g>
</g>
<g>
	<g class="st11">
		<g>
			<polygon class="st65" points="273.1,177.5 272.9,216.5 269.4,217.5 269.6,175.4 			"/>
		</g>
		<g>
			<polygon class="st66" points="269.6,175.4 269.4,217.5 264.9,214.9 265.1,172.9 			"/>
		</g>
	</g>
</g>
<polygon class="st65" points="201.8,178.1 201.7,136 204.7,137.7 204.5,176.8 "/>
<g>
	<circle class="st57" cx="87.2" cy="196.9" r="12.7"/>
	<circle class="st54" cx="109.6" cy="196.9" r="12.7"/>
	<circle class="st69" cx="132" cy="196.9" r="12.7"/>
	<circle class="st56" cx="154.4" cy="196.9" r="12.7"/>
	<circle class="st55" cx="176.7" cy="196.9" r="12.7"/>
</g>
</svg>
