<svg id="Layer_1" xmlns="http://www.w3.org/2000/svg" xmlns:xlink="http://www.w3.org/1999/xlink" viewBox="0 0 175 175"><style>.st0{fill:#ecf0f1}.st1{fill:none;stroke:#3498db;stroke-width:1.08;stroke-linecap:round;stroke-linejoin:round}.st3{fill:#3498db}.st4{stroke-linecap:round}.st4,.st5{fill:none;stroke:#3498db;stroke-width:.72;stroke-linejoin:round}.st6{opacity:.1;fill:#3498db;enable-background:new}.st8{fill:#1c5275}.st10{fill:#2875a9}.st11{enable-background:new}.st13{fill:#2a7aaf}.st14{fill:#2977ab}.st15{fill:#2874a6}.st16{fill:#2670a2}.st17{fill:#256d9e}.st18{fill:#246a99}.st19{fill:#236795}.st20{fill:#226491}.st21{fill:#21618c}.st22{fill:#205e88}.st23{fill:#1f5b83}.st24{fill:#1e587f}.st25{fill:#1d557b}.st26{fill:#1c5276}.st27{fill:#1b4f72}.st29{fill:#2b7db4}.st30{fill:#2c80b8}.st31{fill:#2d83bc}.st32{fill:#2e86c1}.st33{fill:#2f89c5}.st34{fill:#308cc9}.st35{fill:#318fce}.st36{fill:#3292d2}.st37{fill:#3395d7}.st38{fill:#4ca4df}.st39{fill:#56a9e1}.st40{fill:#5eade2}.st41{fill:#65b1e4}.st42{fill:#6ab4e5}.st45{fill:#d6e3f4}.st48{fill:#8db9e3}.st49{fill:#b1cdeb}.st50{fill:#4b87af}.st51{fill:#69a7db}.st54{fill:#eeb90c}.st55{fill:#e49701}.st56{fill:#e7a205}.st57{fill:#f1c40f}.st58{fill:#cfd6da}.st64{fill:#3d98d3}.st65{fill:#317bac}.st66{fill:#265f84}.st67{fill:#1a425d}</style><path class="st0" d="M105 175l-81.1-47.1 70-40.3 81.1 47.1z"/><g id="environment-gke-01" transform="translate(2877.509 3527.844)"><path id="Path_6151" class="st1" d="M-2916.6-3439.6l.1 37.2-32.3 18.7-.1-37.2 32.3-18.7z"/><path id="Path_6152" class="st1" d="M-2948.9-3383.8l-67.7-39.5-.1-37.2 67.7 39.5.1 37.2z"/><path id="Line_589" fill="none" stroke="#3498db" stroke-linecap="round" stroke-linejoin="round" d="M-2932.7-3429.4v36.3"/><path id="Path_6153" class="st3" d="M-2921.2-3431.7l.1 26.7-23.3 13.3-.1-26.7 23.3-13.3m0-.9c-.2 0-.3 0-.5.1l-23.1 13.3c-.3.2-.5.5-.5.8l.1 26.7c0 .5.4 1 .9 1 .2 0 .3 0 .5-.1l23.3-13.3c.3-.2.4-.5.4-.8v-26.7c-.1-.6-.6-1-1.1-1z"/><path id="Path_6154" class="st3" d="M-3011.4-3451.2l57.1 33.3.1 25-57.1-33.3-.1-25m0-.9c-.5 0-1 .4-1 .9l.1 25c0 .4.2.7.5.8l57.1 33.3c.4.2.9.1 1.2-.3 0 0 0-.1.1-.1.1-.1.1-.2.1-.5v-25.1c0-.4-.2-.7-.5-.8l-57.1-33.2h-.5z"/><path id="Path_6155" class="st4" d="M-2922.6-3431l.1 25-21.8 12.6"/><path id="Path_6156" class="st4" d="M-2959.3-3420.8l-.1 23.1-2.5.6.1-25.3 2.5 1.6z"/><path id="Path_6157" class="st4" d="M-2961.9-3397.1l-2.8-1.6v-25.7"/><path id="Line_590" class="st4" d="M-2953.7-3394.9l-5.6-3.2"/><path id="Path_6158" class="st4" d="M-2969.7-3426.8v23.1l-2.5.6v-25.3l2.5 1.6z"/><path id="Path_6159" class="st4" d="M-2972.2-3403l-2.8-1.6v-25.7"/><path id="Line_591" class="st4" d="M-2964.7-3401l-4.9-2.8"/><path id="Line_592" class="st4" d="M-2975-3406.9l-5.5-3.2"/><path id="Path_6160" class="st4" d="M-2980.1-3432.7l-.1 23-2.4.6v-25.3l2.5 1.7z"/><path id="Path_6161" class="st4" d="M-2982.7-3409.1l-2.9-1.6.1-25.7"/><path id="Path_6162" class="st4" d="M-2990.4-3438.6l-.1 23-2.5.6.1-25.3 2.5 1.7z"/><path id="Path_6163" class="st4" d="M-2993.1-3415l-2.8-1.6.1-25.7"/><path id="Line_593" class="st4" d="M-2985.4-3413l-4.9-2.8"/><path id="Path_6164" class="st5" d="M-3000.7-3444.7l-.1 23-2.4.6v-25.3l2.5 1.7z"/><path id="Path_6165" class="st5" d="M-3003.6-3421.3l-2.8-1.6.1-25.7"/><path id="Line_594" class="st4" d="M-2996-3419.3l-4.8-2.8"/><path id="Line_595" class="st5" d="M-3006.4-3425.4l-5.3-3.1"/><path id="Path_6166" class="st6" d="M-2900.5-3403.3l-48.3 28-78.7-47.5 10.5-6.5-.1 6.4 67.8 39.4 31.7-19v-8.4l17.1 7.6z"/><g id="Group_5947" transform="translate(77.515 52.992)" opacity=".1"><path id="Path_6167" class="st3" d="M-3029.4-3521.2l-.1 18.7-8.5 5v-21.1"/></g><path id="Path_6168" class="st6" d="M-2942.6-3480.8v-1.3c0-.2 0-.5-.1-.7 0-.2-.1-.5-.1-.7 0-.2-.1-.4-.1-.6 0-.2-.1-.5-.1-.7v-.4c0-.1 0-.3-.1-.4 0-.3-.1-.5-.2-.7 0-.1-.1-.4-.1-.5v-.2c-.1-.2-.1-.5-.2-.7-.1-.2-.1-.5-.2-.7v-.2c0-.1-.1-.2-.1-.5-.1-.2-.1-.5-.2-.7-.1-.1-.1-.4-.2-.5v-.2c-.1-.2-.2-.4-.2-.6l-.4-.7v-.1c0-.1-.1-.1-.1-.1-.1-.2-.2-.4-.2-.6l-.4-.7c-.1-.1-.1-.2-.2-.4 0-.1-.1-.1-.1-.1-.1-.2-.2-.4-.4-.6-.2-.2-.4-.6-.6-.8 0-.1-.1-.1-.1-.1-.2-.4-.6-.8-.8-1.2-.2-.3-.4-.5-.6-.8-.1-.2-.4-.4-.5-.6-.1-.2-.4-.4-.5-.6-.1-.2-.4-.4-.5-.6 0-.1-.1-.1-.1-.1l-.1-.1-.4-.4-.6-.6c-.1-.1-.2-.1-.2-.1l-.1-.1c-.1-.1-.2-.1-.2-.2-.2-.2-.4-.4-.6-.5l-.2-.2-.1-.1c-.1 0-.1-.1-.2-.1-.2-.1-.4-.4-.6-.5-.1-.1-.3-.3-.5-.4h-.2c-.2-.1-.4-.2-.6-.4-.2-.1-.4-.2-.6-.4-.1 0-.1-.1-.1-.1-.1-.1-.2-.1-.5-.2-.2-.1-.4-.2-.6-.2-.1 0-.2-.1-.4-.1h-.2c-.2-.1-.4-.1-.6-.2-.2-.1-.4-.1-.6-.2h-.2c-.1 0-.2-.1-.4-.1s-.4-.1-.6-.1h-.5c-.2 0-.4-.1-.6-.1h-1.9c-.2 0-.5.1-.8.1h-.1c-.2.1-.5.1-.7.2-.4.1-.8.3-1.1.5l-8.5 5c.3-.2.7-.4 1.1-.5.2-.1.6-.1.8-.2h.1c.3-.1.6-.1 1-.1h1.5c.4 0 .7.1 1.1.1h.1c.4.1.8.2 1.2.4h.1c.5.1.8.4 1.3.5h.1c.5.2.8.5 1.3.7.5.3.9.5 1.3.8h.1c.4.3.8.6 1.2 1l.1.1c.4.4.8.7 1.2 1l.1.1 1.1 1.1.1.1c.4.5.8.9 1.2 1.3l1.1 1.5c.3.5.6.9 1 1.3.2.2.4.6.6.8.1.2.4.5.5.7.1.1.1.2.2.4.3.4.5.9.7 1.3 0 .1.1.1.1.1.2.5.5 1.1.7 1.6v.1c.3.5.5 1 .6 1.6v.1c.2.5.4 1.1.6 1.7v.1c.1.5.2 1.1.4 1.6v.1c.1.5.2 1.1.4 1.6.1.5.1 1.1.2 1.6v.1c0 .5.1 1.1.1 1.6s0 1-.1 1.5v.1c0 .5-.1.9-.2 1.3v.1c-.1.4-.1.7-.2 1.1 0 .1 0 .1-.1.2-.1.4-.2.6-.4 1v.1c-.1.4-.3.7-.6 1l-.1.1c-.1.2-.4.5-.5.7l-.2.2-.5.5-.2.2c-.3.2-.5.4-.8.6l8.5-5c.2-.1.5-.4.8-.6l.2-.2.5-.5.2-.2c.2-.2.4-.5.5-.7l.1-.1c.2-.3.4-.6.5-1v-.1c.1-.2.2-.4.2-.6 0-.1.1-.2.1-.4 0-.1 0-.1.1-.2 0-.1 0-.1.1-.2.1-.2.1-.5.1-.7v-.6c0-.2.1-.4.1-.6v-1.8c-.4-1-.3-1.3-.4-1.5z"/><g id="Group_5948" transform="translate(59.343 20.351)"><path id="Path_6169" class="st1" d="M-3024.2-3519.3c7.6 4.4 13.7 15 13.7 23.7 0 6.9-3.9 10.5-9.3 9.6v21.1l-12.7-7.3 3.5-2.1-3.5-6.1 3.5-2.1-3.5-6.1 3.8-2.2v-.5c-5.3-5.2-9.2-13.3-9.2-20.2-.1-8.7 6.1-12.2 13.7-7.8zm0 12.8c1.8 1.1 3.4.2 3.4-1.9-.1-2.4-1.4-4.6-3.4-5.8-1.8-1.1-3.4-.2-3.4 1.9.1 2.4 1.4 4.5 3.4 5.8"/></g><path id="Path_6170" class="st1" d="M-2969.5-3470.3l-15.5-8.8-31.7 18.5 67.7 39.6 32.3-18.7-35.3-20.6"/><path id="Path_6171" class="st3" d="M-2952-3449.6l8.8-5.6-8.8-5.2v10.8z"/><g id="Group_5949" transform="translate(77.515 52.992)"><path id="Path_6172" class="st1" d="M-3029.4-3521.2l-.1 18.7-8.5 5v-21.1"/></g><path id="Path_6173" class="st1" d="M-2942.6-3480.8v-1.3c0-.2 0-.5-.1-.7 0-.2-.1-.5-.1-.7 0-.2-.1-.4-.1-.6 0-.2-.1-.5-.1-.7v-.4c0-.1 0-.3-.1-.4 0-.3-.1-.5-.2-.7 0-.1-.1-.4-.1-.5v-.2c-.1-.2-.1-.5-.2-.7-.1-.2-.1-.5-.2-.7v-.2c0-.1-.1-.2-.1-.5-.1-.2-.1-.5-.2-.7-.1-.1-.1-.4-.2-.5v-.2c-.1-.2-.2-.4-.2-.6l-.4-.7v-.1c0-.1-.1-.1-.1-.1-.1-.2-.2-.4-.2-.6l-.4-.7c-.1-.1-.1-.2-.2-.4 0-.1-.1-.1-.1-.1-.1-.2-.2-.4-.4-.6-.2-.2-.4-.6-.6-.8 0-.1-.1-.1-.1-.1-.2-.4-.6-.8-.8-1.2-.2-.3-.4-.5-.6-.8-.1-.2-.4-.4-.5-.6-.1-.2-.4-.4-.5-.6-.1-.2-.4-.4-.5-.6 0-.1-.1-.1-.1-.1l-.1-.1-.4-.4-.6-.6c-.1-.1-.2-.1-.2-.1l-.1-.1c-.1-.1-.2-.1-.2-.2-.2-.2-.4-.4-.6-.5l-.2-.2-.1-.1c-.1 0-.1-.1-.2-.1-.2-.1-.4-.4-.6-.5-.1-.1-.3-.3-.5-.4h-.2c-.2-.1-.4-.2-.6-.4-.2-.1-.4-.2-.6-.4-.1 0-.1-.1-.1-.1-.1-.1-.2-.1-.5-.2-.2-.1-.4-.2-.6-.2-.1 0-.2-.1-.4-.1h-.2c-.2-.1-.4-.1-.6-.2-.2-.1-.4-.1-.6-.2h-.2c-.1 0-.2-.1-.4-.1s-.4-.1-.6-.1h-.5c-.2 0-.4-.1-.6-.1h-1.9c-.2 0-.5.1-.8.1h-.1c-.2.1-.5.1-.7.2-.4.1-.8.3-1.1.5l-8.5 5c.3-.2.7-.4 1.1-.5.2-.1.6-.1.8-.2h.1c.3-.1.6-.1 1-.1h1.5c.4 0 .7.1 1.1.1h.1c.4.1.8.2 1.2.4h.1c.5.1.8.4 1.3.5h.1c.5.2.8.5 1.3.7.5.3.9.5 1.3.8h.1c.4.3.8.6 1.2 1l.1.1c.4.4.8.7 1.2 1l.1.1 1.1 1.1.1.1c.4.5.8.9 1.2 1.3l1.1 1.5c.3.5.6.9 1 1.3.2.2.4.6.6.8.1.2.4.5.5.7.1.1.1.2.2.4.3.4.5.9.7 1.3 0 .1.1.1.1.1.2.5.5 1.1.7 1.6v.1c.3.5.5 1 .6 1.6v.1c.2.5.4 1.1.6 1.7v.1c.1.5.2 1.1.4 1.6v.1c.1.5.2 1.1.4 1.6.1.5.1 1.1.2 1.6v.1c0 .5.1 1.1.1 1.6s0 1-.1 1.5v.1c0 .5-.1.9-.2 1.3v.1c-.1.4-.1.7-.2 1.1 0 .1 0 .1-.1.2-.1.4-.2.6-.4 1v.1c-.1.4-.3.7-.6 1l-.1.1c-.1.2-.4.5-.5.7l-.2.2-.5.5-.2.2c-.3.2-.5.4-.8.6l8.5-5c.2-.1.5-.4.8-.6l.2-.2.5-.5.2-.2c.2-.2.4-.5.5-.7l.1-.1c.2-.3.4-.6.5-1v-.1c.1-.2.2-.4.2-.6 0-.1.1-.2.1-.4 0-.1 0-.1.1-.2 0-.1 0-.1.1-.2.1-.2.1-.5.1-.7v-.6c0-.2.1-.4.1-.6v-1.8c-.4-1-.3-1.3-.4-1.5z"/></g><path class="st8" d="M414.5 33.2c12.3 7.1 22.3 24.4 22.3 38.6 0 9.8-4.8 15.5-11.8 15.8l-.1 37-9-5.2-6.1-3.5-6.1-3.5 6.1-3.5-6.1-10.5 6.1-3.5-6.1-10.5 5.7-3.2c-10-8.5-17.4-23-17.4-35.2.1-14.2 10.1-19.9 22.5-12.8zm-.1 22.4c3.6 2.1 6.5.4 6.5-3.7 0-4.1-2.9-9.1-6.5-11.2-3.6-2.1-6.5-.4-6.5 3.7 0 4.1 2.9 9.1 6.5 11.2"/><path d="M386 122.5l17.6-10.2 6.1-3.5-17.6 10.3zm0-13.9l17.6-10.3 6.1-3.5-17.6 10.3zm0-14l17.7-10.3 5.7-3.2-17.7 10.2z" fill="#1a4d6f"/><path class="st10" d="M407.3 97.9l17.6-10.3-.1 37-17.6 10.2z"/><g class="st11"><defs><path id="SVGID_1_" class="st11" d="M419 56l-17.6 10.2c-1.2.7-2.8.6-4.6-.5l17.6-10.2c1.8 1.1 3.4 1.2 4.6.5z"/></defs><clipPath id="SVGID_2_"><use xlink:href="#SVGID_1_" overflow="visible"/></clipPath><g clip-path="url(#SVGID_2_)"><path class="st13" d="M396.8 65.8l17.6-10.2c.1 0 .1.1.2.1L397 65.9c-.1 0-.2-.1-.2-.1"/><path class="st14" d="M397 65.9l17.6-10.2c.1 0 .2.1.3.1L397.3 66c-.1 0-.2 0-.3-.1"/><path class="st15" d="M397.2 66.1l17.6-10.2c.1 0 .2.1.3.1l-17.6 10.2c-.1-.1-.2-.1-.3-.1"/><path class="st16" d="M397.5 66.2L415.1 56c.1 0 .2.1.3.1l-17.6 10.2c-.1 0-.2-.1-.3-.1"/><path class="st17" d="M397.8 66.3l17.6-10.2c.1 0 .2.1.3.1L398 66.4c-.1 0-.2-.1-.2-.1"/><path class="st18" d="M398 66.4l17.6-10.2c.1 0 .2.1.3.1l-17.6 10.2c-.1-.1-.2-.1-.3-.1"/><path class="st19" d="M398.3 66.5l17.6-10.2c.1 0 .2.1.3.1l-17.6 10.2c-.1-.1-.2-.1-.3-.1"/><path class="st20" d="M398.6 66.5l17.6-10.2c.1 0 .2 0 .3.1l-17.6 10.2c-.2 0-.3 0-.3-.1"/><path class="st21" d="M398.8 66.6l17.6-10.2h.3l-17.6 10.2h-.3"/><path class="st22" d="M399.1 66.7l17.6-10.2h.3l-17.6 10.2h-.3"/><path class="st23" d="M399.4 66.7L417 56.4h.3l-17.6 10.2c-.1.1-.2.1-.3.1"/><path class="st24" d="M399.7 66.7l17.6-10.2h.3L400 66.7h-.3"/><path class="st25" d="M400 66.7l17.6-10.2c.1 0 .3 0 .4-.1l-17.6 10.2c-.1 0-.2.1-.4.1"/><path class="st26" d="M400.4 66.6L418 56.4c.2 0 .3-.1.5-.1l-17.6 10.2c-.2.1-.3.1-.5.1"/><path class="st27" d="M400.9 66.5l17.6-10.2c.2-.1.4-.1.5-.2l-17.6 10.2c-.2.1-.4.1-.5.2"/></g></g><g class="st11"><defs><path id="SVGID_3_" class="st11" d="M392.2 50.4l17.6-10.2c-1.2.7-1.9 2.1-1.9 4.2 0 4.1 2.9 9.1 6.5 11.2l-17.6 10.2c-3.6-2.1-6.5-7.1-6.5-11.2 0-2 .7-3.5 1.9-4.2z"/></defs><clipPath id="SVGID_4_"><use xlink:href="#SVGID_3_" overflow="visible"/></clipPath><g clip-path="url(#SVGID_4_)"><path class="st27" d="M392.2 50.4l17.6-10.2c-.4.3-.8.6-1.1 1.1l-17.6 10.2c.3-.4.7-.8 1.1-1.1"/><path class="st26" d="M391.1 51.5l17.6-10.2c-.1.1-.2.3-.2.4L390.8 52c.1-.2.2-.3.3-.5"/><path class="st25" d="M390.8 52l17.6-10.2c-.1.1-.1.2-.2.4l-17.6 10.2c.1-.2.2-.3.2-.4"/><path class="st24" d="M390.7 52.4l17.6-10.2c0 .1-.1.2-.1.3l-17.6 10.2c0-.1 0-.2.1-.3"/><path class="st23" d="M390.6 52.7l17.6-10.2c0 .1-.1.2-.1.3L390.5 53c0-.1 0-.2.1-.3"/><path class="st22" d="M390.5 53l17.6-10.2c0 .1 0 .2-.1.3l-17.6 10.2c0-.1.1-.2.1-.3"/><path class="st21" d="M390.4 53.3L408 43.1v.3l-17.6 10.2v-.3"/><path class="st20" d="M390.4 53.7L408 43.4v.3L390.3 54c0-.1.1-.2.1-.3"/><path class="st19" d="M390.3 54L408 43.7v.3l-17.6 10.2c-.1 0-.1-.1-.1-.2"/><path class="st18" d="M390.3 54.3L407.9 44v.3l-17.6 10.2v-.2"/><path class="st17" d="M390.3 54.6l17.6-10.2v.3l-17.6 10.2v-.3"/><path class="st16" d="M390.3 54.9l17.6-10.2v.3l-17.6 10.2v-.3"/><path class="st15" d="M390.3 55.2L407.9 45v.3l-17.6 10.2v-.3"/><path class="st14" d="M390.4 55.5L408 45.3v.3l-17.6 10.2v-.3"/><path class="st13" d="M390.4 55.9L408 45.6v.3l-17.6 10.2v-.2"/><path class="st29" d="M390.4 56.2L408 46c0 .1 0 .2.1.3l-17.6 10.2c0-.1 0-.2-.1-.3"/><path class="st30" d="M390.5 56.5l17.6-10.2c0 .1 0 .2.1.3l-17.6 10.2c-.1-.1-.1-.2-.1-.3"/><path class="st31" d="M390.6 56.8l17.6-10.2c0 .1.1.2.1.3l-17.6 10.2c-.1 0-.1-.1-.1-.3"/><path class="st32" d="M390.6 57.2L408.2 47c0 .1.1.2.1.3l-17.6 10.2c0-.1 0-.2-.1-.3"/><path class="st33" d="M390.7 57.5l17.6-10.2c0 .1.1.2.1.3l-17.6 10.2s0-.2-.1-.3"/><path class="st34" d="M390.8 57.9l17.6-10.2c0 .1.1.2.1.3l-17.6 10.2c0-.1 0-.2-.1-.3"/><path class="st35" d="M390.9 58.2L408.6 48c0 .1.1.2.1.3l-17.6 10.2c-.1-.1-.1-.2-.2-.3"/><path class="st36" d="M391.1 58.5l17.6-10.2c0 .1.1.2.1.3l-17.6 10.2c-.1-.1-.1-.2-.1-.3"/><path class="st37" d="M391.2 58.9l17.6-10.2c0 .1.1.2.1.3l-17.6 10.2c0-.1-.1-.2-.1-.3"/><path class="st3" d="M391.3 59.2L408.9 49c0 .1.1.2.1.3l-17.6 10.2c0-.1-.1-.2-.1-.3"/><path class="st38" d="M391.4 59.5L409 49.3c0 .1.1.2.1.3l-17.6 10.2c0-.1 0-.2-.1-.3"/><path class="st39" d="M391.6 59.8l17.6-10.2c.1.1.1.2.2.3l-17.6 10.2c-.1-.1-.2-.2-.2-.3"/><path class="st40" d="M391.7 60.1l17.6-10.2c.1.1.1.3.2.4l-17.6 10.2c0-.1-.1-.2-.2-.4"/><path class="st41" d="M391.9 60.5l17.6-10.2.3.6-17.6 10.2-.3-.6"/><path class="st42" d="M392.3 61.1l17.6-10.2c.2.3.3.5.5.8l-17.6 10.2c-.2-.3-.4-.5-.5-.8"/><path class="st41" d="M392.7 61.9l17.6-10.2c.1.2.3.4.4.6l-17.6 10.2c-.1-.2-.2-.4-.4-.6"/><path class="st40" d="M393.2 62.4l17.6-10.2c.1.1.2.3.3.4l-17.6 10.2c-.2-.1-.3-.2-.3-.4"/><path class="st39" d="M393.4 62.8L411 52.6c.1.1.2.2.2.3l-17.6 10.2c0-.1-.1-.2-.2-.3"/><path class="st38" d="M393.7 63.1l17.6-10.2c.1.1.2.2.2.3l-17.6 10.2c0-.1-.1-.2-.2-.3"/><path class="st3" d="M393.9 63.4l17.6-10.2.3.3-17.6 10.2-.3-.3"/><path class="st37" d="M394.2 63.7l17.6-10.2.3.3L394.5 64l-.3-.3"/><path class="st36" d="M394.5 64l17.6-10.2.3.3-17.6 10.2c-.2-.1-.3-.2-.3-.3"/><path class="st35" d="M394.7 64.2L412.3 54l.3.3L395 64.5l-.3-.3"/><path class="st34" d="M395 64.5l17.6-10.2.3.3-17.6 10.2-.3-.3"/><path class="st33" d="M395.3 64.8l17.6-10.2c.1.1.2.2.3.2L395.6 65c-.1-.1-.2-.2-.3-.2"/><path class="st32" d="M395.6 65l17.6-10.2c.1.1.2.1.3.2l-17.6 10.2c-.1-.1-.2-.1-.3-.2"/><path class="st31" d="M395.9 65.2L413.5 55c.1.1.2.1.3.2l-17.6 10.2c-.1 0-.2-.1-.3-.2"/><path class="st30" d="M396.2 65.4l17.6-10.2c.1.1.2.1.3.2l-17.6 10.2c-.2-.1-.3-.1-.3-.2"/><path class="st29" d="M396.4 65.6L414 55.4c.1.1.2.1.3.2l-17.6 10.2c-.1-.1-.2-.1-.3-.2"/><path class="st13" d="M396.7 65.8l17.6-10.2h.1l-17.7 10.2"/></g></g><g class="st11"><defs><path id="SVGID_5_" class="st11" d="M380.9 41.9l17.6-10.2c4.1-2.4 9.7-2 15.9 1.6l-17.6 10.2c-6.2-3.6-11.8-4-15.9-1.6z"/></defs><clipPath id="SVGID_6_"><use xlink:href="#SVGID_5_" overflow="visible"/></clipPath><g clip-path="url(#SVGID_6_)"><path class="st27" d="M380.9 41.9l17.6-10.2c.6-.3 1.2-.6 1.8-.8L382.7 41l-1.8.9"/><path class="st26" d="M382.7 41l17.6-10.2c.5-.2 1-.3 1.6-.4l-17.6 10.2c-.5.1-1.1.3-1.6.4"/><path class="st25" d="M384.3 40.6l17.6-10.2c.4-.1.8-.1 1.3-.2l-17.6 10.2c-.5.1-.9.1-1.3.2"/><path class="st24" d="M385.6 40.4l17.6-10.2c.4 0 .8-.1 1.2-.1l-17.6 10.2c-.4.1-.8.1-1.2.1"/><path class="st23" d="M386.7 40.4l17.6-10.2h1l-17.6 10.2h-1"/><path class="st22" d="M387.8 40.4l17.6-10.2c.3 0 .7.1 1 .1l-17.6 10.2c-.3 0-.7-.1-1-.1"/><path class="st21" d="M388.8 40.5l17.6-10.2c.3 0 .6.1 1 .2l-17.6 10.2c-.4-.1-.7-.1-1-.2"/><path class="st20" d="M389.8 40.7l17.6-10.2c.3.1.6.1.9.2l-17.6 10.2c-.3-.1-.6-.2-.9-.2"/><path class="st19" d="M390.7 40.9l17.6-10.2.9.3-17.6 10.2c-.3-.2-.6-.2-.9-.3"/><path class="st18" d="M391.6 41.1l17.6-10.2.9.3-17.6 10.2-.9-.3"/><path class="st17" d="M392.5 41.4l17.6-10.2.9.3-17.6 10.2-.9-.3"/><path class="st16" d="M393.4 41.8L411 31.5c.3.1.6.2.9.4l-17.6 10.2-.9-.3"/><path class="st15" d="M394.3 42.1l17.6-10.2c.3.1.6.3.9.4l-17.6 10.2c-.3-.1-.6-.2-.9-.4"/><path class="st14" d="M395.2 42.6l17.6-10.2c.3.2.6.3.9.5L396.1 43c-.3-.1-.6-.3-.9-.4"/><path class="st13" d="M396.1 43l17.6-10.2c.2.1.5.3.7.4l-17.6 10.2c-.2-.1-.4-.2-.7-.4"/></g></g><g class="st11"><defs><path id="SVGID_7_" class="st11" d="M430.2 86.1l-17.6 10.2c4-2.3 6.5-7.3 6.5-14.3 0-14.2-9.9-31.5-22.3-38.6l17.6-10.2c12.3 7.1 22.3 24.4 22.3 38.6 0 7-2.5 12-6.5 14.3z"/></defs><clipPath id="SVGID_8_"><use xlink:href="#SVGID_7_" overflow="visible"/></clipPath><g clip-path="url(#SVGID_8_)"><path class="st13" d="M396.8 43.4l17.6-10.2c.1 0 .1.1.2.1L397 43.5s-.1 0-.2-.1"/><path class="st29" d="M397.1 43.6l17.6-10.2.9.6L398 44.2l-.9-.6"/><path class="st30" d="M398 44.2L415.6 34l.9.6-17.6 10.2-.9-.6"/><path class="st31" d="M398.9 44.8l17.6-10.2c.3.2.6.5 1 .7l-17.6 10.2c-.3-.3-.6-.5-1-.7"/><path class="st32" d="M399.9 45.5l17.6-10.2c.3.2.7.5 1 .7l-17.6 10.2c-.3-.2-.7-.5-1-.7"/><path class="st33" d="M400.9 46.2L418.5 36c.3.3.7.5 1 .8L401.9 47c-.3-.2-.7-.5-1-.8"/><path class="st34" d="M401.9 47l17.6-10.2c.3.3.7.6 1 .9l-17.6 10.2c-.3-.3-.7-.6-1-.9"/><path class="st35" d="M402.9 47.9l17.6-10.2c.3.3.7.6 1 .9l-17.6 10.2c-.4-.3-.7-.6-1-.9"/><path class="st36" d="M403.9 48.8l17.6-10.2.9.9-17.6 10.2-.9-.9"/><path class="st37" d="M404.8 49.7l17.6-10.2c.3.3.6.6.9 1l-17.6 10.2c-.3-.3-.6-.6-.9-1"/><path class="st3" d="M405.7 50.7l17.6-10.2c.3.3.6.6.9 1l-17.6 10.2c-.3-.4-.6-.7-.9-1"/><path class="st38" d="M406.6 51.7l17.6-10.2c.3.3.6.7.9 1l-17.6 10.2c-.3-.4-.6-.7-.9-1"/><path class="st39" d="M407.5 52.7l17.6-10.2c.3.4.6.7.9 1.1l-17.6 10.2c-.4-.4-.7-.8-.9-1.1"/><path class="st40" d="M408.3 53.7l17.6-10.2c.3.4.7.9 1 1.3L409.3 55c-.3-.4-.6-.8-1-1.3"/><path class="st41" d="M409.3 55l17.6-10.2c.5.7 1 1.3 1.4 2L410.7 57c-.4-.6-.9-1.3-1.4-2"/><path class="st42" d="M410.7 57.1l17.6-10.2c.6.9 1.1 1.7 1.7 2.6l-17.6 10.2c-.5-.9-1.1-1.8-1.7-2.6"/><path class="st41" d="M412.4 59.7L430 49.5c.4.6.7 1.3 1.1 2l-17.6 10.2c-.4-.7-.7-1.4-1.1-2"/><path class="st40" d="M413.5 61.7l17.6-10.2c.2.4.5.9.7 1.3L414.2 63c-.2-.4-.5-.9-.7-1.3"/><path class="st39" d="M414.2 63l17.6-10.2.6 1.2-17.6 10.2-.6-1.2"/><path class="st38" d="M414.7 64.2L432.3 54c.2.4.3.7.5 1.1l-17.6 10.2c-.1-.4-.3-.8-.5-1.1"/><path class="st3" d="M415.2 65.3L432.9 55c.2.4.3.7.5 1.1l-17.6 10.2c-.3-.3-.4-.7-.6-1"/><path class="st37" d="M415.7 66.3l17.6-10.2c.1.4.3.7.4 1.1l-17.6 10.2c-.1-.4-.3-.7-.4-1.1"/><path class="st36" d="M416.1 67.4l17.6-10.2c.1.4.3.7.4 1.1l-17.6 10.2c-.1-.4-.2-.7-.4-1.1"/><path class="st35" d="M416.5 68.5l17.6-10.2c.1.4.3.8.4 1.1l-17.6 10.2c-.1-.3-.2-.7-.4-1.1"/><path class="st34" d="M416.9 69.6l17.6-10.2c.1.4.3.8.4 1.2l-17.6 10.2c-.1-.4-.2-.8-.4-1.2"/><path class="st33" d="M417.3 70.8l17.6-10.2.3 1.2L417.7 72c-.2-.4-.3-.8-.4-1.2"/><path class="st32" d="M417.7 72l17.6-10.2.3 1.2L418 73.2l-.3-1.2"/><path class="st31" d="M418 73.2L435.6 63l.3 1.2-17.6 10.2c-.1-.5-.2-.8-.3-1.2"/><path class="st30" d="M418.2 74.3l17.6-10.2c.1.4.2.8.2 1.2l-17.6 10.2c0-.4-.1-.8-.2-1.2"/><path class="st29" d="M418.5 75.5l17.6-10.2c.1.4.1.8.2 1.1l-17.6 10.2c-.1-.3-.2-.7-.2-1.1"/><path class="st13" d="M418.7 76.6l17.6-10.2c.1.4.1.7.2 1.1l-17.6 10.2c-.1-.3-.2-.7-.2-1.1"/><path class="st14" d="M418.8 77.8l17.6-10.2c0 .4.1.7.1 1.1L419 78.8c-.1-.3-.1-.7-.2-1"/><path class="st15" d="M419 78.8l17.6-10.2c0 .4.1.7.1 1.1L419 79.9v-1.1"/><path class="st16" d="M419 79.9l17.6-10.2c0 .4 0 .7.1 1.1L419.1 81c0-.3 0-.7-.1-1.1"/><path class="st17" d="M419.1 81l17.6-10.2v1.1l-17.6 10.2V81"/><path class="st18" d="M419.1 82.1l17.6-10.2V73l-17.6 10.2v-1.1"/><path class="st19" d="M419.1 83.2L436.7 73c0 .4 0 .7-.1 1.1L419 84.2c0-.3.1-.7.1-1"/><path class="st20" d="M419 84.2L436.6 74c0 .4-.1.7-.1 1.1l-17.6 10.2c0-.4.1-.7.1-1.1"/><path class="st21" d="M418.9 85.3l17.6-10.2c0 .4-.1.7-.2 1.1l-17.6 10.2c.1-.4.2-.7.2-1.1"/><path class="st22" d="M418.7 86.4l17.6-10.2c-.1.4-.1.7-.2 1.1l-17.6 10.2c.1-.4.2-.8.2-1.1"/><path class="st23" d="M418.5 87.4l17.6-10.2c-.1.4-.2.8-.3 1.1l-17.6 10.2c.1-.3.2-.7.3-1.1"/><path class="st24" d="M418.2 88.6l17.6-10.2c-.1.4-.3.8-.4 1.2l-17.6 10.2c.2-.4.3-.8.4-1.2"/><path class="st25" d="M417.8 89.8l17.6-10.2c-.2.5-.4.9-.5 1.3l-17.6 10.2c.2-.4.4-.9.5-1.3"/><path class="st26" d="M417.3 91.1l17.6-10.2c-.3.5-.5 1-.8 1.5l-17.6 10.2c.3-.5.5-1 .8-1.5"/><path class="st27" d="M416.5 92.6l17.6-10.2c-1 1.6-2.3 2.9-3.9 3.8l-17.6 10.2c1.5-.9 2.8-2.2 3.9-3.8"/></g></g><path class="st8" d="M396.8 43.4c12.3 7.1 22.3 24.4 22.3 38.6 0 9.8-4.8 15.5-11.8 15.8l-.1 37-9-5.2-6.1-3.5-6.1-3.5 6.1-3.5-6.1-10.5 6.1-3.5-6.1-10.5 5.7-3.2c-10-8.3-17.4-22.9-17.3-35.1.1-14.3 10.1-20 22.4-12.9zm0 22.4c3.6 2.1 6.5.4 6.5-3.7 0-4.1-2.9-9.1-6.5-11.2-3.6-2.1-6.5-.4-6.5 3.7 0 4.1 2.9 9.1 6.5 11.2"/><path class="st10" d="M488 56.8c-10.9-6.3-20-2.6-22 8.2-10.3-3.6-18 2.3-18 14.8 0 12.2 7.4 26.8 17.3 35.1l-5.7 3.2 6.1 10.5-6.1 3.5 6.1 10.5-6.1 3.5 6.1 3.5 6.1 3.5 9 5.2 17.6-10.2.1-37c7.6-3.4 11.8-8.9 11.8-15.8-.1-14.1-10-31.4-22.3-38.5z"/><path class="st3" d="M564.5 0C547.1 0 533 14.1 533 31.5S547.1 63 564.5 63 596 48.9 596 31.5 581.9 0 564.5 0zm0 27.4c-5 0-9.1-4.1-9.1-9.1s4.1-9.1 9.1-9.1 9.1 4.1 9.1 9.1-4 9.1-9.1 9.1z"/><path class="st3" d="M558.2 57.3h21.4v47.2h-21.4z"/><path transform="rotate(-45.001 558.155 70.234)" class="st3" d="M552.1 64.1h12.2v12.2h-12.2z"/><path transform="rotate(-45.001 558.154 87.4)" class="st3" d="M552.1 81.3h12.2v12.2h-12.2z"/><path class="st3" d="M549.5 104.6l8.7-8.6 8.6 8.6"/><path class="st8" d="M480.8 121.5l17.7-10.3v37.6l-17.8 9.6z"/><path class="st10" d="M454.7 65.3l18.9-10.8 22.1 21.2z"/><path class="st3" d="M470.3 67.1c12.3 7.1 22.3 24.4 22.3 38.6 0 9.8-4.8 15.5-11.8 15.8l-.1 37-9-5.2-6.1-3.5-6.1-3.5 6.1-3.5-6.1-10.5 6.1-3.5-6.1-10.5 5.7-3.2c-10-8.3-17.4-22.9-17.3-35.1.1-14.3 10.1-20.1 22.4-12.9zm0 22.3c3.6 2.1 6.5.4 6.5-3.7 0-4.1-2.9-9.1-6.5-11.2-3.6-2.1-6.5-.4-6.5 3.7 0 4.1 2.9 9.2 6.5 11.2"/><path class="st45" d="M328.7-20.9c-.3-1.6-.5-3.2-.7-4.7.2 1.5.4 3.1.7 4.7zm-.7-8.4v-.3.3zm6.1 22.6c-2.1-3.8-3.8-7.8-4.8-11.8 1 4 2.7 8 4.8 11.8zm-6-23.9v-.2.2zm.2-1.2v-.1.1zm17 38.9c-.6-.5-1.2-1.1-1.8-1.6.6.5 1.2 1.1 1.8 1.6zm-5.7 3.2l6.1 10.5zm3.9-4.9c-3.6-3.4-6.8-7.6-9.4-12.1 2.6 4.5 5.8 8.7 9.4 12.1zm2.2 29.4l-6.1-10.5z"/><path class="st45" d="M368-51c-6.9-4-13.1-3.9-17.2-.7l-16.1 9.2c4-2.2 9.5-1.8 15.6 1.7 12.3 7.1 22.3 24.4 22.3 38.6 0 9.8-4.8 15.5-11.8 15.8l-.1 37-9-5.2-6.1-3.5-6.1-3.5 6.1 3.5 6.1 3.5 9 5.2 17.6-10.2.1-37c7.6-3.4 11.8-8.9 11.8-15.8.1-14.2-9.8-31.5-22.2-38.6z"/><g class="st11"><path d="M994.7 306.9c2.2 1.3 2.3 3.4 0 4.7l-173.9 101c-2.2 1.3-5.9 1.3-8.1 0L538.3 254.2c-2.2-1.3-2.3-3.4 0-4.7l173.9-101c2.2-1.3 5.9-1.3 8.1 0l274.4 158.4z" fill="#1a73a0" opacity=".3"/><path class="st48" d="M996.4 249.1v.5s0 .1-.1.1c0 .1-.1.1-.1.2l-.1.1c0 .1-.1.1-.1.2s-.1.1-.1.2l-.2.2c-.1 0-.1.1-.2.1s-.1.1-.2.1-.1.1-.2.1-.1.1-.2.1L821 352l-.1 21.8 173.9-101h.1c.1 0 .1-.1.1-.1.1 0 .1-.1.2-.1s.1-.1.2-.1.1-.1.2-.1l.2-.2.1-.1v-.1c0-.1.1-.1.1-.2 0 0 0-.1.1-.1 0-.1.1-.1.1-.2v-.8l.1-21.8c.1.1.1.1.1.2z"/><path class="st45" d="M994.7 246.6c2.2 1.3 2.3 3.4 0 4.7l-173.9 101c-2.2 1.3-5.9 1.3-8.1 0L538.3 193.9c-2.2-1.3-2.3-3.4 0-4.7l173.9-101c2.2-1.3 5.9-1.3 8.1 0l274.4 158.4z"/><path class="st49" d="M820.4 352.6c-.1 0-.1 0-.2.1s-.3.1-.4.2c-.1 0-.1 0-.2.1-.1 0-.2.1-.3.1-.1 0-.2 0-.2.1-.1 0-.2 0-.3.1h-.2c-.2 0-.4.1-.7.1h-2.6c-.1 0-.2 0-.3-.1h-.2c-.1 0-.2-.1-.4-.1-.1 0-.1 0-.2-.1-.2-.1-.4-.1-.6-.2-.1 0-.2-.1-.3-.1 0 0-.1 0-.1-.1-.1-.1-.3-.1-.4-.2L538.3 193.9c-.7-.4-1.2-.9-1.5-1.4-.2-.3-.2-.6-.2-1l-.1 21.8c0 .9.6 1.7 1.7 2.4l274.5 158.5c.1.1.3.2.4.2 0 0 .1 0 .1.1.1 0 .2.1.3.1.2.1.4.1.6.2h.1c.1 0 .2.1.4.1h.2c.1 0 .2 0 .3.1h2.4c.2 0 .4-.1.7-.1h.2c.1 0 .2 0 .3-.1.1 0 .2 0 .2-.1.1 0 .2-.1.3-.1h.2c.2-.1.3-.1.4-.2.1 0 .1 0 .2-.1.2-.1.4-.2.5-.3l.1-21.8c.1.2-.1.3-.2.4z"/></g><path class="st50" d="M694.7 98.3l17.5-10.2c2.2-1.3 5.9-1.3 8.1 0l274.5 158.5c2.2 1.3 2.3 3.4 0 4.7l-17.5 10.2L694.7 98.3z"/><path class="st49" d="M612.5 197.7l92.9 53.7 93.9-53.7-93.9-53.7z"/><path class="st45" d="M613.2 36.1l77.2 44.6 78.1-44.6-78.1-44.6z"/><path class="st48" d="M633.2 36.1L690.5 3l57.8 33.1-57.8 33.1z"/><path class="st51" d="M613.2 36.1v161.7l77.2 44.5V80.7z"/><path class="st48" d="M690.4 80.7v161.6l78.1-44.5V36.1z"/><path class="st49" d="M717.8 258.5l92.9 53.6 93.9-53.6-93.9-53.7z"/><path class="st45" d="M746.6 61l12.7-7.4V72l-12.7 7.3zm.1 61v-18.3l12.7-7.3.1 18.3zm0-21.3l-.1-18.3 12.8-7.4v18.3zm.1 64v-18.3l12.7-7.3.1 18.3zm0-21.3l-.1-18.3 12.8-7.4V136zm.1 42.7v-18.3l12.7-7.4v18.3zm.1 21.3l-.1-18.3 12.8-7.3v18.3zm-16.1-76.3v-18.3l12.7-7.3.1 18.3zm0-21.3l-.1-18.3 12.7-7.4.1 18.3zm-.1-21.4l-.1-18.3 12.8-7.3v18.3zm.2 85.4v-18.3l12.7-7.3.1 18.3zm0-21.3l-.1-18.3 12.8-7.4v18.3zm.2 64l-.1-18.3 12.7-7.3.1 18.3zm-.1-21.3l-.1-18.3 12.8-7.4v18.3zM715 118.9v-18.3l12.7-7.3.1 18.3zm0-21.3l-.1-18.3 12.8-7.4v18.3zm.3 106.7l-.1-18.3 12.8-7.3V197zm-.1-21.3v-18.3l12.7-7.4.1 18.3zm0-21.4l-.1-18.3 12.8-7.3v18.3zm-.1-21.3V122l12.7-7.4.1 18.3zm.3 85.4l-.1-18.3L728 200l.1 18.3zM699.2 128v-18.3l12.7-7.3.1 18.3zm0-21.3l-.1-18.3 12.8-7.4v18.3zm.2 85.4v-18.3l12.7-7.4.1 18.3z"/><g class="st11"><path class="st45" d="M699.4 170.7l-.1-18.3 12.8-7.3v18.3zm-.1-21.3l-.1-18.3 12.8-7.4V142z"/></g><path class="st45" d="M699.5 234.8v-18.3l12.7-7.4.1 18.3zm0-21.4l-.1-18.3 12.8-7.3v18.3zM718.1 7.9l77.3 44.6 78-44.6-78-44.6z"/><path class="st48" d="M738.1 7.9l57.3-33.1 57.8 33.1L795.4 41z"/><path class="st51" d="M718.1 7.9v250.8l77.3 44.6V52.5z"/><path d="M781.7 279.7l-49.9-28.9m49.9 14.3l-49.9-28.9m49.9 14.2l-49.9-28.8m49.9 14.2L731.8 207m49.9 14.2l-49.9-28.8m49.9 14.2l-49.9-28.9m49.9 14.3l-49.9-28.9m49.9 14.2l-49.9-28.8m49.9 14.2l-49.9-28.8m49.9 14.2l-49.9-28.8m49.9 14.2l-49.9-28.9m49.9 14.2L731.8 90m49.9 14.2l-49.9-28.8m49.9 14.2l-49.9-28.8M781.7 75l-49.9-28.9m0-14.6l49.9 28.9M675.9 217.1l-50-28.9m50 13.1l-50-28.9m50 13.1l-50-28.9m50 13.1l-50-28.9m50 13.1l-50-28.9m50 13.1l-50-28.8m50 13l-50-28.8m50 13l-50-28.8m0-15.8l50 28.8" fill="none" stroke="#8db9e3" stroke-width="2" stroke-miterlimit="10"/><path class="st48" d="M795.4 52.5v250.8l78-44.6V7.9z"/><path class="st45" d="M852.2 29.8l12.8-7.3v18.3l-12.7 7.3zm.2 61l-.1-18.3 12.8-7.3v18.3zm-.1-21.3V51.2l12.7-7.4.1 18.3zm.2 64v-18.3l12.7-7.3.1 18.3zm0-21.3l-.1-18.3 12.7-7.4.1 18.3zm.1 42.7l-.1-18.3 12.8-7.4v18.3zm0 21.4V158l12.7-7.4.1 18.3zm.1 21.3l-.1-18.3 12.8-7.4v18.4zM836.6 100l-.1-18.3 12.8-7.4v18.3zm-.1-21.4V60.3l12.7-7.3.1 18.3zm0-21.3l-.1-18.3 12.8-7.4v18.3zm.2 85.4v-18.3l12.7-7.4.1 18.3zm-.1-21.4V103l12.7-7.3.1 18.3zm.3 85.4l-.1-18.3 12.8-7.3v18.3zm-.1-21.3v-18.3l12.7-7.4.1 18.3zm0-21.4l-.1-18.3 12.8-7.3v18.3zm-16.1-76.3V69.4l12.7-7.3.1 18.3zm0-21.3l-.1-18.3 12.7-7.4.1 18.3zm.3 106.8l-.1-18.3 12.8-7.4v18.3zm-.1-21.4l-.1-18.3 12.8-7.4v18.3zm-.1-21.4v-18.2l12.7-7.4.1 18.3zm0-21.3l-.1-18.3 12.8-7.4v18.3zm.3 106.8l-.1-18.3 12.8-7.4v18.3zm-.1-21.4v-18.3l12.7-7.4.1 18.4zm-16.1-97.6V78.6l12.7-7.4.1 18.3zm0-21.4l-.1-18.3 12.7-7.3.1 18.3zm.2 85.4l-.1-18.3 12.8-7.3v18.3z"/><g class="st11"><path class="st45" d="M805 139.6v-18.3l12.7-7.4.1 18.3zm0-21.4l-.1-18.3 12.8-7.3v18.3z"/></g><path class="st45" d="M805.2 203.6v-18.3l12.7-7.3.1 18.3zm0-21.3l-.1-18.3 12.7-7.4.1 18.3zm.1 42.7l-.1-18.3 12.8-7.4v18.3zm47.1 15.9l-.1-18.3 12.8-7.3v18.3zm-.1-21.3v-18.3l12.7-7.4.1 18.3zm.2 42.7l-.1-18.3 12.7-7.4.1 18.3zM836.6 250l-.1-18.3 12.8-7.3v18.3zm-.1-21.3v-18.3l12.7-7.4.1 18.3zm.1 42.7v-18.3l12.7-7.4.1 18.3zm-15.9-33.6v-18.3l12.7-7.3.1 18.3zm.1 42.7v-18.3l12.7-7.3.1 18.3zm0-21.3l-.1-18.3 12.8-7.4v18.3zm-15.9-12.3v-18.3l12.7-7.3.1 18.3z"/><g class="st11"><path class="st45" d="M805 289.6v-18.3l12.7-7.3.1 18.3zm0-21.3l-.1-18.3 12.8-7.4v18.3z"/></g><path class="st48" d="M340.7 73.3l.1 57-49.6 28.7-.2-57z"/><path class="st51" d="M296 104.8l39.7-22.9.1 45.6-39.7 22.9zm-4.8 54.2l-87.5-50.8-.2-57.1L291 102z"/><path class="st50" d="M208.7 105.3l-.2-45.5 77.5 45 .1 45.5z"/><path class="st45" d="M291 102l-87.5-50.9 49.7-28.7 87.5 50.9z"/><path class="st45" d="M281-26.8c-6.9-4-13.1-3.9-17.2-.7l-16.1 9.2h.1c-4.2 2.2-6.8 7.3-6.9 14.5 0 12.2 7.4 26.8 17.3 35.1l-5.7 3.2 6.1 10.5-6.1 3.5 6.1 10.5-6.1 3.5 6.1 3.5 6.1 3.5 9 5.2 17.6-10.2.1-37c9.8-5.1 11-10.3 11-16.1.1-14.1-9.1-31.1-21.4-38.2z"/><path class="st48" d="M273.8 37.8l17.7-10.2v37.6l-17.8 9.6z"/><path class="st51" d="M263.3-16.6c12.3 7.1 22.3 24.4 22.3 38.6 0 9.8-4.8 15.5-11.8 15.8l-.1 37-9-5.2-6.1-3.5-6.1-3.5 6.1-3.5-6.1-10.5 6.1-3.5-6.1-10.5 5.7-3.2c-10-8.3-17.4-22.9-17.3-35.1.1-14.3 10.1-20 22.4-12.9zm0 22.4c3.6 2.1 6.5.4 6.5-3.7 0-4.1-2.9-9.1-6.5-11.2-3.6-2.1-6.5-.4-6.5 3.7 0 4.1 2.9 9.1 6.5 11.2"/><path class="st48" d="M263.3 5.8c3.6 2.1 6.5.4 6.5-3.7s-2.9-9.1-6.5-11.2-6.5-.4-6.5 3.7 2.9 9.1 6.5 11.2z"/><path class="st45" d="M335.7 81.9l-3 1.8.1 41.8-36.7 21.1v3.8l39.7-22.9z"/><path class="st48" d="M208.5 59.8l3.2 1.9-.1 42.2 74.5 42.7v3.8l-77.4-45.1z"/><path opacity=".2" fill="#8db9e3" d="M291.5 65.2l18-10-18-10.5z"/><path class="st54" d="M151 95.6l.1 52.8-46 26.6-.1-52.9z"/><path class="st55" d="M109.6 124.8l36.7-21.2.2 42.2-36.8 21.2z"/><path class="st56" d="M105.1 175L24 127.9 23.9 75l81.1 47.1z"/><path class="st55" d="M28.7 125.2l-.2-42.1 71.8 41.7.1 42.1z"/><path class="st57" d="M105 122.1L23.9 75l46-26.5L151 95.6z"/><path class="st0" d="M95.7 2.8C89.3-.9 83.6-.9 79.8 2.2l-14.9 8.5h.1c-3.9 2.1-6.3 6.7-6.4 13.4 0 11.3 6.8 24.8 16.1 32.5l-5.3 3 5.6 9.7-5.7 3.2 5.6 9.7-5.7 3.2 5.7 3.3 5.7 3.3 8.4 5 16.3-9.5.1-34.2c9.1-4.8 10.2-9.5 10.2-14.9 0-13.2-8.5-29-19.9-35.6z"/><path class="st58" d="M89 62.7l16.4-9.5v34.9L89 97z"/><path d="M79.3 12.3C90.8 18.9 100 34.9 100 48.1c0 9-4.4 14.4-10.9 14.7L89 97l-8.4-4.8-5.7-3.3-5.7-3.3 5.7-3.2-5.6-9.7 5.7-3.2-5.6-9.7 5.3-3c-9.2-7.7-16.1-21.2-16.1-32.5 0-13.3 9.3-18.6 20.7-12zm0 20.7c3.3 1.9 6 .4 6-3.4s-2.7-8.5-6-10.4c-3.3-1.9-6-.4-6 3.4 0 3.9 2.6 8.5 6 10.4" fill="#dee1e3"/><path class="st58" d="M79.3 33c3.3 1.9 6 .4 6-3.4s-2.7-8.5-6-10.4c-3.3-1.9-6-.4-6 3.4 0 3.9 2.6 8.5 6 10.4z"/><path class="st57" d="M146.3 103.6l-2.7 1.6.1 38.7-34 19.6v3.5l36.8-21.2zM28.5 83.1l3 1.7-.1 39.1 69.1 39.6-.1 3.5-71.7-41.8z"/><path class="st54" d="M105.4 88.1l16.7-9.3-16.7-9.7z"/><path fill="#2e729e" d="M-33.7 189.5h-9.2l-2-5.4h13.2z"/><g class="st11"><path fill="#286288" d="M-6.6 127.8l-5.2 1.4-6.6-3.8 2.4-3z"/><path fill="#235778" d="M-6.6 127.8l-.2 81.5-5.2 1.4.2-81.5z"/><path fill="#193d55" d="M-11.8 129.2l-.2 81.5-6.6-3.8.2-81.5z"/></g><g class="st11"><path class="st54" d="M41.4 90.6l-.2 39-3.5.9.1-42z"/><path class="st56" d="M37.8 88.5l-.1 42-4.5-2.6.1-42z"/></g><g class="st11"><path class="st54" d="M63.5 103.4l-.2 39-3.5.9.1-42z"/><path class="st56" d="M59.9 101.3l-.1 42-4.5-2.6.1-42z"/></g><g class="st11"><path class="st54" d="M52.4 97l-.1 39-3.6.9.2-42z"/><path class="st56" d="M48.9 94.9l-.2 42-4.5-2.6.2-42z"/></g><g class="st11"><path class="st54" d="M74.5 109.9l-.2 39-3.5.9.2-42z"/><path class="st56" d="M71 107.8l-.2 42-4.5-2.6.2-42z"/></g><g class="st11"><path class="st54" d="M85.5 116.2l-.1 39-3.5.9.1-42z"/><path class="st56" d="M82 114.1l-.1 42-4.5-2.5.1-42.1z"/></g><g class="st11"><path class="st54" d="M96.6 122.7l-.2 39-3.5.9.2-42z"/><path class="st56" d="M93.1 120.6l-.2 42-4.5-2.6.2-42z"/></g><circle class="st64" cx="92.3" cy="220.5" r="13.1"/><circle class="st65" cx="123.4" cy="220.5" r="13.1"/><circle class="st66" cx="154.4" cy="220.5" r="13.1"/><circle class="st67" cx="185.5" cy="220.5" r="13.1"/><circle cx="216.6" cy="220.5" r="13.1" fill="#0f2635"/><path class="st54" d="M28.7 125.2l-.2-42.1 3 1.7-.1 39.1z"/><path class="st0" d="M278.1 227.9l-81-47.1 70-40.3 81.1 47.1z"/><path class="st65" d="M324.1 148.5l.2 52.8-46 26.6-.2-52.9z"/><path class="st66" d="M282.8 177.7l36.7-21.2.1 42.1-36.7 21.3zm-4.5 50.2l-81.1-47.1-.1-52.9 81 47.1z"/><path class="st67" d="M201.8 178.1l-.1-42.1 71.8 41.7.1 42.1z"/><path class="st64" d="M278.1 175l-81-47.1 46-26.5 81 47.1zm41.4-18.5l-2.8 1.6.2 38.7-34 19.6v3.5l36.7-21.3zM201.7 136l3 1.7-.2 39.1 69.1 39.6v3.5l-71.8-41.8z"/><g class="st11"><path class="st65" d="M214.4 143.3l-.2 39.1-3.5.9.1-42.1z"/><path class="st66" d="M210.8 141.2l-.1 42.1-4.5-2.6.2-42z"/></g><g class="st11"><path class="st65" d="M224.2 149.1l-.2 39-3.5.9.1-42z"/><path class="st66" d="M220.6 147l-.1 42-4.5-2.6.1-42z"/></g><g class="st11"><path class="st65" d="M234 154.7l-.2 39.1-3.5.9.1-42.1z"/><path class="st66" d="M230.4 152.6l-.1 42.1-4.5-2.6.1-42z"/></g><g class="st11"><path class="st65" d="M243.7 160.4l-.1 39-3.6 1 .2-42.1z"/><path class="st66" d="M240.2 158.3l-.2 42.1-4.4-2.6.1-42.1z"/></g><g class="st11"><path class="st65" d="M253.5 166.2l-.1 39-3.6.9.2-42z"/><path class="st66" d="M250 164.1l-.2 42-4.5-2.6.2-42z"/></g><g class="st11"><path class="st65" d="M263.3 171.7l-.1 39-3.6 1 .2-42.1z"/><path class="st66" d="M259.8 169.6l-.2 42.1-4.5-2.6.2-42.1z"/></g><g class="st11"><path class="st65" d="M273.1 177.5l-.2 39-3.5 1 .2-42.1z"/><path class="st66" d="M269.6 175.4l-.2 42.1-4.5-2.6.2-42z"/></g><path class="st65" d="M201.8 178.1l-.1-42.1 3 1.7-.2 39.1z"/><circle class="st57" cx="87.2" cy="196.9" r="12.7"/><circle class="st54" cx="109.6" cy="196.9" r="12.7"/><circle cx="132" cy="196.9" r="12.7" fill="#ebae08"/><circle class="st56" cx="154.4" cy="196.9" r="12.7"/><circle class="st55" cx="176.7" cy="196.9" r="12.7"/></svg>