<?xml version="1.0" encoding="utf-8"?>
<!-- Generator: Adobe Illustrator 22.0.1, SVG Export Plug-In . SVG Version: 6.00 Build 0)  -->
<svg version="1.1" id="Layer_1" xmlns="http://www.w3.org/2000/svg" xmlns:xlink="http://www.w3.org/1999/xlink" x="0px" y="0px"
	 viewBox="0 0 175 175" style="enable-background:new 0 0 175 175;" xml:space="preserve">
<style type="text/css">
	.st0{fill:#ECF0F1;}
	.st1{fill:#C0392B;}
	.st2{fill:#5A1A15;}
	.st3{fill:#902B20;}
	.st4{fill:#441410;}
	.st5{fill:#E74C3C;}
	.st6{enable-background:new    ;}
	.st7{opacity:0.3;fill:#C0392B;}
	.st8{opacity:5.000000e-02;fill:#3498DB;enable-background:new    ;}
	.st9{fill:none;stroke:#3498DB;stroke-width:1.08;stroke-linecap:round;stroke-linejoin:round;}
	.st10{fill:none;stroke:#3498DB;stroke-linecap:round;stroke-linejoin:round;}
	.st11{fill:#3498DB;}
	.st12{fill:none;stroke:#3498DB;stroke-width:0.72;stroke-linecap:round;stroke-linejoin:round;}
	.st13{fill:none;stroke:#3498DB;stroke-width:0.72;stroke-linejoin:round;}
	.st14{fill:#D6E3F4;}
	.st15{fill:#8DB9E3;}
	.st16{fill:#69A7DB;}
	.st17{fill:#4B87AF;}
	.st18{fill:none;stroke:#99A3A8;stroke-width:1.08;stroke-linecap:round;stroke-linejoin:round;}
	.st19{fill:none;stroke:#BDC3C7;stroke-width:1.08;stroke-linecap:round;stroke-linejoin:round;}
</style>
<g>
	<g>
		<polygon class="st0" points="105,175 23.9,127.9 93.9,87.6 175,134.7 		"/>
	</g>
	<polygon class="st1" points="151,95.6 151.1,148.4 105.1,175 105,122.1 	"/>
	<polygon class="st2" points="109.6,124.8 146.3,103.6 146.5,145.8 109.7,167 	"/>
	<polygon class="st3" points="105.1,175 24,127.9 23.9,75 105,122.1 	"/>
	<polygon class="st4" points="28.7,125.2 28.5,83.1 100.3,124.8 100.4,166.9 	"/>
	<g>
		<polygon class="st5" points="105,122.1 23.9,75 69.9,48.5 151,95.6 		"/>
	</g>
	<polygon class="st5" points="146.3,103.6 143.6,105.2 143.7,143.9 109.7,163.5 109.7,167 146.5,145.8 	"/>
	<polygon class="st5" points="28.5,83.1 31.5,84.8 31.4,123.9 100.5,163.5 100.4,167 28.7,125.2 	"/>
	<g>
		<g class="st6">
			<g>
				<polygon class="st2" points="41.4,90.6 41.2,129.6 37.7,130.5 37.8,88.5 				"/>
			</g>
			<g>
				<polygon class="st3" points="37.8,88.5 37.7,130.5 33.2,127.9 33.3,85.9 				"/>
			</g>
		</g>
	</g>
	<g>
		<g class="st6">
			<g>
				<polygon class="st2" points="63.5,103.4 63.3,142.4 59.8,143.3 59.9,101.3 				"/>
			</g>
			<g>
				<polygon class="st3" points="59.9,101.3 59.8,143.3 55.3,140.7 55.4,98.7 				"/>
			</g>
		</g>
	</g>
	<g>
		<g class="st6">
			<g>
				<polygon class="st2" points="52.4,97 52.3,136 48.7,136.9 48.9,94.9 				"/>
			</g>
			<g>
				<polygon class="st3" points="48.9,94.9 48.7,136.9 44.2,134.3 44.4,92.3 				"/>
			</g>
		</g>
	</g>
	<g>
		<g class="st6">
			<g>
				<polygon class="st2" points="74.5,109.9 74.3,148.9 70.8,149.8 71,107.8 				"/>
			</g>
			<g>
				<polygon class="st3" points="71,107.8 70.8,149.8 66.3,147.2 66.5,105.2 				"/>
			</g>
		</g>
	</g>
	<g>
		<g class="st6">
			<g>
				<polygon class="st2" points="85.5,116.2 85.4,155.2 81.9,156.1 82,114.1 				"/>
			</g>
			<g>
				<polygon class="st3" points="82,114.1 81.9,156.1 77.4,153.6 77.5,111.5 				"/>
			</g>
		</g>
	</g>
	<g>
		<g class="st6">
			<g>
				<polygon class="st2" points="96.6,122.7 96.4,161.7 92.9,162.6 93.1,120.6 				"/>
			</g>
			<g>
				<polygon class="st3" points="93.1,120.6 92.9,162.6 88.4,160 88.6,118 				"/>
			</g>
		</g>
	</g>
	<polygon class="st2" points="28.7,125.2 28.5,83.1 31.5,84.8 31.4,123.9 	"/>
</g>
<path class="st7" d="M129.7,84.8c0-0.5,0-1-0.1-1.5L93.2,62.2c-2.5-0.2-5-0.4-7.7-0.4c-24.4,0-44.1,10.3-44.1,23c0,0.2,0,0.4,0,0.6
	l38.1,22.2c2,0.1,3.9,0.2,6,0.2C109.9,107.8,129.7,97.5,129.7,84.8z"/>
<ellipse class="st8" cx="138" cy="-85" rx="27.2" ry="14.1"/>
<path class="st9" d="M138-80.3c0,0-2-8.7-18.6-20.7"/>
<path class="st9" d="M138-80.3c0,0-0.3-9.9-8-17.6"/>
<path class="st9" d="M138-80.3c0,0,2-8.7,18.6-20.7"/>
<path class="st9" d="M138-80.3c0,0,0.3-9.9,8-17.6"/>
<title>environment</title>
<polygon class="st9" points="-48.2,95.2 -48.1,125.9 -74.8,141.3 -74.9,110.6 "/>
<polygon class="st9" points="-74.8,141.3 -130.7,108.7 -130.8,78 -74.9,110.6 "/>
<polyline class="st9" points="-92.1,69.6 -48.2,95.2 -74.9,110.6 -130.8,77.9 -109.9,65.4 "/>
<line class="st10" x1="-61.5" y1="103.6" x2="-61.5" y2="133.6"/>
<path class="st11" d="M-52,101.7l0.1,22l-19.2,11l-0.1-22L-52,101.7 M-52,101c-0.1,0-0.3,0-0.4,0.1l-19.1,11
	c-0.2,0.1-0.4,0.4-0.4,0.7l0.1,22c0,0.4,0.3,0.8,0.8,0.8c0.1,0,0.3,0,0.4-0.1l19.2-11c0.2-0.1,0.3-0.4,0.3-0.7v-22
	C-51.2,101.3-51.5,101-52,101L-52,101L-52,101L-52,101z"/>
<path class="st11" d="M-126.4,85.6l47.1,27.5l0.1,20.6l-47.1-27.5L-126.4,85.6 M-126.4,84.9c-0.4,0-0.8,0.3-0.8,0.8l0.1,20.6
	c0,0.3,0.1,0.5,0.4,0.7l47.1,27.5c0.4,0.2,0.8,0.1,1-0.3c0.1-0.1,0.1-0.2,0.1-0.4v-20.7c0-0.3-0.1-0.5-0.4-0.7L-126,85
	C-126.1,84.9-126.3,84.9-126.4,84.9L-126.4,84.9L-126.4,84.9z"/>
<polyline class="st12" points="-53.1,102.3 -53,122.9 -71,133.3 "/>
<polygon class="st12" points="-83.4,110.7 -83.5,129.8 -85.6,130.3 -85.5,109.4 "/>
<polyline class="st12" points="-85.6,130.3 -87.9,129 -87.9,107.8 "/>
<line class="st12" x1="-78.8" y1="132.1" x2="-83.4" y2="129.5"/>
<polygon class="st12" points="-92,105.8 -92,124.9 -94.1,125.4 -94.1,104.5 "/>
<polyline class="st12" points="-94.1,125.4 -96.4,124.1 -96.4,102.9 "/>
<line class="st12" x1="-87.9" y1="127.1" x2="-91.9" y2="124.8"/>
<line class="st12" x1="-96.4" y1="122.2" x2="-100.9" y2="119.6"/>
<polygon class="st12" points="-100.6,100.9 -100.7,119.9 -102.7,120.4 -102.7,99.5 "/>
<polyline class="st12" points="-102.7,120.4 -105.1,119.1 -105,97.9 "/>
<polygon class="st12" points="-109.1,96 -109.2,115 -111.3,115.5 -111.2,94.6 "/>
<polyline class="st12" points="-111.3,115.5 -113.6,114.2 -113.5,93 "/>
<line class="st12" x1="-105" y1="117.2" x2="-109" y2="114.9"/>
<polygon class="st13" points="-117.6,91 -117.7,110 -119.7,110.5 -119.7,89.6 "/>
<polyline class="st13" points="-120,110.3 -122.3,109 -122.2,87.8 "/>
<line class="st12" x1="-113.7" y1="112" x2="-117.7" y2="109.7"/>
<line class="st13" x1="-122.3" y1="106.9" x2="-126.7" y2="104.4"/>
<polygon class="st8" points="-34.9,125.2 -74.8,148.3 -139.8,109.1 -131.1,103.7 -131.2,109 -75.2,141.5 -49,125.8 -49,118.9 "/>
<path class="st9" d="M-90.7,26.7c18.3,0,27.2,15.5,27.2,28.2c0,10.7-16.3,14.7-27.2,14.7c-10.3,0-27.2-4-27.2-14.7
	C-117.8,42.2-109,26.7-90.7,26.7z"/>
<path class="st9" d="M-109.1,65.8c0-10.8,2.4-35.2,18.5-39.1"/>
<path class="st9" d="M-72.2,65.8c0-10.8-2.4-35.2-18.5-39.1"/>
<line class="st9" x1="-90.7" y1="26.7" x2="-90.7" y2="69.6"/>
<path class="st9" d="M-90.5,86.5c0,0-2-8.7-18.6-20.7"/>
<path class="st9" d="M-90.5,86.5c0,0-0.3-9.9-8-17.6"/>
<path class="st9" d="M-90.5,86.5c0,0,2-8.7,18.6-20.7"/>
<path class="st9" d="M-90.5,86.5c0,0,0.3-9.9,8-17.6"/>
<line class="st9" x1="-69.5" y1="30.3" x2="-69.5" y2="31"/>
<line class="st9" x1="-69.5" y1="32.7" x2="-69.5" y2="43.4"/>
<line class="st9" x1="-60.5" y1="32.7" x2="-60.5" y2="43.4"/>
<line class="st9" x1="-65" y1="28.6" x2="-65" y2="35.3"/>
<line class="st9" x1="-120.3" y1="51.5" x2="-120.3" y2="50.8"/>
<line class="st9" x1="-120.3" y1="48.1" x2="-120.3" y2="37.4"/>
<line class="st9" x1="-112" y1="36.1" x2="-112" y2="36.8"/>
<line class="st9" x1="-112" y1="39.5" x2="-112" y2="50.2"/>
<line class="st9" x1="-116.1" y1="41.7" x2="-116.1" y2="48.3"/>
<path class="st8" d="M-116.6,85.9c0-7.2,11.8-13.1,26.3-13.1c1.8,0,3.6,0.1,5.3,0.3l21,12.8C-64,93.1-75.8,99-90.3,99
	c-1.7,0-3.3-0.1-4.9-0.2L-116.6,85.9z"/>
<path class="st14" d="M71.1-113.8c18.3,0,27.2,15.5,27.2,28.2c0,10.7-16.3,14.7-27.2,14.7c-10.3,0-27.2-4-27.2-14.7
	C44-98.3,52.8-113.8,71.1-113.8z"/>
<path class="st9" d="M52.7-74.7c0-10.8,2.4-35.2,18.5-39.1"/>
<path class="st9" d="M89.6-74.7c0-10.8-2.4-35.2-18.5-39.1"/>
<line class="st9" x1="71.1" y1="-113.8" x2="71.1" y2="-70.9"/>
<g>
	<path class="st15" d="M119.5-100.7c5.7,2.7,13,3.8,18.5,3.8v-42.9C122-135.9,119.5-111.8,119.5-100.7z"/>
	<path class="st16" d="M110.8-111.6c0,5,3.7,8.5,8.7,10.9c0-11,2.5-35.2,18.5-39.1C119.7-139.8,110.9-124.3,110.8-111.6z"/>
</g>
<path class="st9" d="M71.3-54c0,0-2-8.7-18.6-20.7"/>
<path class="st9" d="M71.3-54c0,0-0.3-9.9-8-17.6"/>
<path class="st9" d="M71.3-54c0,0,2-8.7,18.6-20.7"/>
<path class="st9" d="M71.3-54c0,0,0.3-9.9,8-17.6"/>
<line class="st9" x1="92.3" y1="-110.2" x2="92.3" y2="-109.5"/>
<line class="st9" x1="92.3" y1="-107.8" x2="92.3" y2="-97.1"/>
<line class="st9" x1="96.8" y1="-111.9" x2="96.8" y2="-105.2"/>
<line class="st9" x1="41.5" y1="-89" x2="41.5" y2="-89.7"/>
<line class="st9" x1="41.5" y1="-92.4" x2="41.5" y2="-103.1"/>
<line class="st9" x1="49.8" y1="-104.4" x2="49.8" y2="-103.7"/>
<line class="st9" x1="49.8" y1="-101" x2="49.8" y2="-90.3"/>
<line class="st9" x1="45.7" y1="-98.8" x2="45.7" y2="-92.2"/>
<path class="st8" d="M45.2-54.6c0-7.2,11.8-13.1,26.3-13.1c1.8,0,3.6,0.1,5.3,0.3l21,12.8c0,7.2-11.8,13.1-26.3,13.1
	c-1.7,0-3.3-0.1-4.9-0.2L45.2-54.6z"/>
<g>
	<path class="st16" d="M138-139.8v42.9c0,0,0,0,0,0c5.8,0,13.1-1.1,18.6-3.8C156.6-111.7,154.1-135.9,138-139.8z"/>
	<path class="st15" d="M165.2-111.6c0-12.7-8.9-28.2-27.2-28.2c0,0,0,0,0,0c16.1,3.9,18.6,28.1,18.6,39.1
		C161.6-103,165.2-106.6,165.2-111.6z"/>
</g>
<g>
	<path class="st15" d="M138-67.7c-11,0-18.2,15.5-18.3,28.2v11c3.3,1.5,7.2,2.5,10.9,3.1v-14.1C130.6-52.2,134.4-67.7,138-67.7z"/>
	<path class="st16" d="M138-67.7c-18.3,0-27.1,15.5-27.2,28.2c0,5,3.7,8.5,8.7,10.9c0.1,0,0.1,0.1,0.2,0.1v-11
		C119.8-52.2,127-67.7,138-67.7z"/>
	<path class="st16" d="M138-67.7c-3.7,0-7.4,15.5-7.4,28.2v14.1c2.6,0.4,5.2,0.6,7.4,0.6c2.3,0,4.9-0.2,7.4-0.6v-14.1
		C145.5-52.2,141.7-67.7,138-67.7z"/>
	<path class="st15" d="M138-67.7c3.7,0,7.5,15.5,7.4,28.2v14.1c3.8-0.6,7.6-1.6,10.9-3.1v-11.1C156.4-52.2,149-67.7,138-67.7z"/>
	<path class="st16" d="M138-67.7c11,0,18.3,15.5,18.3,28.2v11.1c0.1,0,0.2-0.1,0.3-0.1c5-2.3,8.6-5.9,8.6-10.9
		C165.2-52.2,156.3-67.7,138-67.7z"/>
</g>
<path class="st15" d="M224.6,102.6C224.6,102.6,224.6,102.6,224.6,102.6c-18.3,0-27.1,15.5-27.2,28.2c0,5,3.7,8.5,8.7,10.9
	c5.7,2.7,13,3.8,18.5,3.8c0,0,0,0,0,0c5.8,0,13.1-1.1,18.6-3.8c5-2.3,8.6-5.9,8.6-10.9C251.8,118.1,242.9,102.6,224.6,102.6z"/>
<g>
	<path class="st9" d="M224.6,102.6C224.6,102.6,224.6,102.6,224.6,102.6c-18.3,0-27.1,15.5-27.2,28.2"/>
	<path class="st9" d="M208.3,130.8c0.1-12.7,5.3-28.2,16.3-28.2c0,0,0,0,0,0"/>
	<path class="st9" d="M219.2,130.8c0.1-12.7,1.8-28.2,5.4-28.2c0,0,0,0,0,0"/>
	<path class="st9" d="M230.1,130.8c0-12.7-1.8-28.2-5.4-28.2c0,0,0,0,0,0"/>
	<path class="st9" d="M240.9,130.8c0-12.7-5.3-28.2-16.3-28.2c0,0,0,0,0,0"/>
	<path class="st9" d="M251.8,130.8c0-12.7-8.9-28.2-27.2-28.2c0,0,0,0,0,0"/>
</g>
<path class="st15" d="M138-139.8C138-139.8,138-139.8,138-139.8c-2.2,0-4.4,0.2-6.3,0.7c0.6,1.5,3.2,2.7,6.3,2.7
	c3.1,0,5.7-1.1,6.3-2.7C142.4-139.6,140.3-139.8,138-139.8z"/>
<polygon class="st15" points="144.7,225.3 144.9,278.2 98.9,304.8 98.7,251.9 "/>
<polygon class="st16" points="103.4,254.6 140.1,233.3 140.2,275.5 103.5,296.7 "/>
<polygon class="st16" points="98.9,304.8 17.8,257.6 17.7,204.8 98.7,251.9 "/>
<polygon class="st17" points="22.4,255 22.3,212.9 94.1,254.6 94.2,296.7 "/>
<polygon class="st14" points="98.7,251.9 17.7,204.8 63.7,178.2 144.7,225.3 "/>
<polygon class="st14" points="140.1,233.3 137.3,234.9 137.5,273.7 103.5,293.3 103.5,296.7 140.2,275.5 "/>
<polygon class="st15" points="22.3,212.9 25.3,214.6 25.1,253.7 94.2,293.3 94.2,296.7 22.4,255 "/>
<path class="st15" d="M138-67.7C138-67.7,138-67.7,138-67.7c-2.2,0-4.4,0.2-6.3,0.7c0.6,1.5,3.2,2.7,6.3,2.7c3.1,0,5.7-1.1,6.3-2.7
	C142.4-67.5,140.3-67.7,138-67.7z"/>
<g>
	<path class="st18" d="M87.5,85.8c0,0-2.9-12.5-26.8-29.8"/>
	<path class="st19" d="M87.5,85.8c0,0-0.4-14.3-11.5-25.4"/>
	<path class="st18" d="M87.5,85.8c0,0,2.9-12.5,26.8-29.8"/>
	<path class="st19" d="M87.5,85.8c0,0,0.4-14.3,11.5-25.4"/>
	<g>
		<path class="st5" d="M60.8,56.4c8.2,3.9,18.8,5.5,26.7,5.5V0C64.3,5.6,60.8,40.5,60.8,56.4z"/>
		<path class="st0" d="M48.3,40.7c0,7.2,5.3,12.3,12.5,15.7C60.8,40.5,64.3,5.6,87.5,0C61.1,0,48.4,22.4,48.3,40.7z"/>
	</g>
	<g>
		<path class="st0" d="M87.5,0v61.9c0,0,0,0,0,0c8.3,0,18.8-1.6,26.9-5.4C114.3,40.6,110.7,5.6,87.5,0z"/>
		<path class="st5" d="M126.7,40.7C126.7,22.4,113.9,0,87.5,0c0,0,0,0,0,0c23.2,5.6,26.8,40.6,26.9,56.4
			C121.5,53,126.7,47.9,126.7,40.7z"/>
	</g>
	<path class="st0" d="M87.5,0C87.5,0,87.5,0,87.5,0c-3.2,0-6.3,0.3-9.1,1c0.9,2.2,4.6,3.8,9.1,3.8c4.5,0,8.2-1.6,9.1-3.8
		C93.8,0.3,90.7,0,87.5,0z"/>
</g>
</svg>
