<?xml version="1.0" encoding="utf-8"?>
<!-- Generator: Adobe Illustrator 22.0.1, SVG Export Plug-In . SVG Version: 6.00 Build 0)  -->
<svg version="1.1" id="Layer_1" xmlns="http://www.w3.org/2000/svg" xmlns:xlink="http://www.w3.org/1999/xlink" x="0px" y="0px"
	 viewBox="0 0 175 175" style="enable-background:new 0 0 175 175;" xml:space="preserve">
<style type="text/css">
	.st0{fill:#ECF0F1;}
	.st1{enable-background:new    ;}
	.st2{fill:#DEE1E3;}
	.st3{fill:#69A7DB;}
	.st4{fill:#317BAC;}
	.st5{fill:#265F84;}
	.st6{fill:#1A425D;}
	.st7{fill:#3D98D3;}
	.st8{fill:none;stroke:#3498DB;stroke-width:0.72;stroke-linejoin:round;}
	.st9{fill:none;stroke:#3498DB;stroke-width:1.08;stroke-linejoin:round;}
	.st10{fill:none;stroke:#3498DB;stroke-linecap:round;stroke-linejoin:round;}
	.st11{fill:#3498DB;}
	.st12{fill:none;stroke:#3498DB;stroke-width:0.76;stroke-linecap:round;stroke-linejoin:round;}
	.st13{clip-path:url(#SVGID_2_);}
	.st14{opacity:5.000000e-02;fill:#3498DB;enable-background:new    ;}
	.st15{fill:#8DB9E3;}
	.st16{fill:#4B87AF;}
	.st17{fill:#D6E3F4;}
	.st18{fill:none;stroke:#3498DB;stroke-width:1.08;stroke-linecap:round;stroke-linejoin:round;}
	.st19{fill:#FFFFFF;}
	.st20{clip-path:url(#SVGID_4_);enable-background:new    ;}
	.st21{fill:#858585;}
	.st22{clip-path:url(#SVGID_6_);enable-background:new    ;}
	.st23{clip-path:url(#SVGID_8_);enable-background:new    ;}
	.st24{fill:#C5C5C5;}
	.st25{fill:#DBDBDB;}
	.st26{fill:#888888;}
	.st27{clip-path:url(#SVGID_10_);enable-background:new    ;}
	.st28{fill:#BDC3C7;}
	.st29{clip-path:url(#SVGID_12_);enable-background:new    ;}
	.st30{clip-path:url(#SVGID_14_);}
	.st31{clip-path:url(#SVGID_16_);enable-background:new    ;}
	.st32{fill:#7B7D7D;}
	.st33{fill:#7F8282;}
	.st34{fill:#848687;}
	.st35{fill:#898B8C;}
	.st36{fill:#8E9091;}
	.st37{fill:#929595;}
	.st38{clip-path:url(#SVGID_18_);enable-background:new    ;}
	.st39{fill:#A5A8A9;}
	.st40{fill:#A0A3A4;}
	.st41{fill:#9C9E9F;}
	.st42{fill:#979A9A;}
	.st43{fill:#7F8181;}
	.st44{clip-path:url(#SVGID_20_);enable-background:new    ;}
	.st45{fill:#C2C5C6;}
	.st46{fill:#C6CACA;}
	.st47{fill:#CBCECF;}
	.st48{fill:#D0D3D4;}
	.st49{fill:#D4D8D9;}
	.st50{fill:#D9DDDE;}
	.st51{fill:#DEE2E3;}
	.st52{fill:#E3E6E7;}
	.st53{fill:#E7EBEC;}
	.st54{fill:#EEF2F3;}
	.st55{fill:#EFF3F3;}
	.st56{fill:#F0F3F4;}
	.st57{fill:#F1F4F4;}
	.st58{fill:#F1F4F5;}
	.st59{fill:#389EA8;}
	.st60{fill:#C9E9EC;}
	.st61{fill:#78C9CF;}
</style>
<g>
	<polygon class="st0" points="109.6,131.2 102.6,127.1 148.9,100.4 155.9,104.5 	"/>
</g>
<g>
	<polygon class="st0" points="23.3,181 16.2,176.9 62.6,150.1 69.6,154.2 	"/>
</g>
<g>
	<g class="st1">
		<g>
			<path class="st2" d="M155.9,64.2c0,4.4-3.1,9.8-6.9,12c0,4.4-3.1,9.8-7,12c0,4.4-3.1,9.8-7,12L109.7,115l-0.1-24L155.9,64.2z"/>
		</g>
		<g>
			<polygon class="st3" points="109.7,115 102.6,110.9 102.6,86.8 109.6,90.9 			"/>
		</g>
		<g>
			<polygon class="st0" points="109.6,90.9 102.6,86.8 148.9,60.1 155.9,64.2 			"/>
		</g>
	</g>
</g>
<g>
	<polygon class="st0" points="105,175 23.9,127.9 93.9,87.6 175,134.7 	"/>
</g>
<polygon class="st4" points="151,95.6 151.1,148.4 105.1,175 105,122.1 "/>
<polygon class="st5" points="109.6,124.8 146.3,103.6 146.5,145.8 109.7,167 "/>
<polygon class="st5" points="105.1,175 24,127.9 23.9,75 105,122.1 "/>
<polygon class="st6" points="28.7,125.2 28.5,83.1 100.3,124.8 100.4,166.9 "/>
<g>
	<polygon class="st7" points="105,122.1 23.9,75 69.9,48.5 151,95.6 	"/>
</g>
<polygon class="st7" points="146.3,103.6 143.6,105.2 143.7,143.9 109.7,163.5 109.7,167 146.5,145.8 "/>
<polygon class="st7" points="28.5,83.1 31.5,84.8 31.4,123.9 100.5,163.5 100.4,167 28.7,125.2 "/>
<g>
	<g class="st1">
		<g>
			<polygon class="st4" points="41.4,90.6 41.2,129.6 37.7,130.5 37.8,88.5 			"/>
		</g>
		<g>
			<polygon class="st5" points="37.8,88.5 37.7,130.5 33.2,127.9 33.3,85.9 			"/>
		</g>
	</g>
</g>
<g>
	<g class="st1">
		<g>
			<polygon class="st4" points="63.5,103.4 63.3,142.4 59.8,143.3 59.9,101.3 			"/>
		</g>
		<g>
			<polygon class="st5" points="59.9,101.3 59.8,143.3 55.3,140.7 55.4,98.7 			"/>
		</g>
	</g>
</g>
<g>
	<g class="st1">
		<g>
			<polygon class="st4" points="52.4,97 52.3,136 48.7,136.9 48.9,94.9 			"/>
		</g>
		<g>
			<polygon class="st5" points="48.9,94.9 48.7,136.9 44.2,134.3 44.4,92.3 			"/>
		</g>
	</g>
</g>
<g>
	<g class="st1">
		<g>
			<polygon class="st4" points="74.5,109.9 74.3,148.9 70.8,149.8 71,107.8 			"/>
		</g>
		<g>
			<polygon class="st5" points="71,107.8 70.8,149.8 66.3,147.2 66.5,105.2 			"/>
		</g>
	</g>
</g>
<g>
	<g class="st1">
		<g>
			<polygon class="st4" points="85.5,116.2 85.4,155.2 81.9,156.1 82,114.1 			"/>
		</g>
		<g>
			<polygon class="st5" points="82,114.1 81.9,156.1 77.4,153.6 77.5,111.5 			"/>
		</g>
	</g>
</g>
<g>
	<g class="st1">
		<g>
			<polygon class="st4" points="96.6,122.7 96.4,161.7 92.9,162.6 93.1,120.6 			"/>
		</g>
		<g>
			<polygon class="st5" points="93.1,120.6 92.9,162.6 88.4,160 88.6,118 			"/>
		</g>
	</g>
</g>
<polygon class="st4" points="28.7,125.2 28.5,83.1 31.5,84.8 31.4,123.9 "/>
<title>environment</title>
<g>
	<path class="st8" d="M339.6,58.4l21.3-12.3c-0.1,2.4-1.4,4.6-3.4,5.9l-1.5,0.9c-0.1,2.4-1.4,4.6-3.4,5.9l-1.5,1
		c-0.1,1.8-0.8,3.5-2,4.8"/>
	<polyline class="st8" points="335.8,56.1 357,43.8 360.9,46.1 	"/>
	<polygon class="st9" points="355.1,67.4 355.2,98.1 328.5,113.5 328.4,82.8 	"/>
	<polyline class="st9" points="282.8,86.9 272.6,80.9 272.5,50.2 328.4,82.8 328.5,113.5 299.3,96.5 	"/>
	<polygon class="st9" points="328.4,82.8 272.5,50.2 299.2,34.7 355.1,67.4 	"/>
	<line class="st10" x1="342.6" y1="75.1" x2="342.6" y2="105.1"/>
	<path class="st11" d="M351.3,73.9l0.1,22l-19.2,11l-0.1-22L351.3,73.9 M351.3,73.2c-0.1,0-0.3,0-0.4,0.1l-19.1,11
		c-0.2,0.1-0.4,0.4-0.4,0.7l0.1,22c0,0.4,0.3,0.8,0.8,0.8c0.1,0,0.3,0,0.4-0.1l19.2-11.1c0.2-0.1,0.3-0.4,0.3-0.7v-22
		C352.1,73.5,351.8,73.2,351.3,73.2L351.3,73.2L351.3,73.2L351.3,73.2z"/>
	<polyline class="st12" points="287.2,84.4 277,78.4 276.9,57.9 324,85.3 324,105.9 303.6,94 	"/>
	<polyline class="st8" points="350.2,74.3 350.3,95.1 332.3,105.5 	"/>
	<polygon class="st8" points="319.9,83.1 319.8,101.6 317.7,102.1 317.8,81.7 	"/>
	<polyline class="st8" points="317.7,102.1 315.4,100.8 315.4,80.4 	"/>
	<line class="st8" x1="324" y1="104.1" x2="319.8" y2="101.6"/>
	<polygon class="st8" points="311.3,78.4 311.3,96.5 309.2,97.1 309.3,77 	"/>
	<polyline class="st8" points="309.2,97.1 306.9,95.7 306.9,75.4 	"/>
	<line class="st8" x1="315.4" y1="99.1" x2="311" y2="96.5"/>
	<line class="st8" x1="306.9" y1="94.4" x2="304.5" y2="93"/>
	<polygon class="st8" points="302.7,73.1 302.6,75.8 300.6,77 300.6,71.7 	"/>
	<line class="st8" x1="298.2" y1="78.3" x2="298.3" y2="70.1"/>
	<polygon class="st8" points="294.2,68.2 294.1,80.7 292,81.7 292.1,66.8 	"/>
	<line class="st8" x1="289.7" y1="83.4" x2="289.8" y2="65.2"/>
	<polygon class="st8" points="285.7,63.1 285.6,81.8 283.6,82.3 283.6,61.8 	"/>
	<polyline class="st8" points="283.3,82.1 281,80.8 281.1,60.3 	"/>
	<line class="st8" x1="288.6" y1="83.7" x2="285.6" y2="81.9"/>
	<line class="st8" x1="281" y1="79.1" x2="276.8" y2="76.9"/>
	<g>
		<g>
			<g>
				<g>
					<defs>
						<path id="SVGID_1_" d="M283.1,95.3l-4.4-2.5c-0.8-0.6-1.2-1.5-1.1-2.5l4.4,2.5C281.9,93.7,282.3,94.7,283.1,95.3z"/>
					</defs>
					<clipPath id="SVGID_2_">
						<use xlink:href="#SVGID_1_"  style="overflow:visible;"/>
					</clipPath>
					<g class="st13">
						<g>
							<path class="st11" d="M283.1,95.3l-4.4-2.5c-0.8-0.6-1.2-1.5-1.1-2.5l4.4,2.5C281.9,93.7,282.3,94.7,283.1,95.3"/>
						</g>
					</g>
				</g>
			</g>
			<path class="st9" d="M283.1,95.3l-4.4-2.5c-0.8-0.6-1.2-1.5-1.1-2.5l4.4,2.5C281.9,93.7,282.3,94.7,283.1,95.3z"/>
		</g>
		<path class="st11" d="M287.5,94l-1.7,1c-0.2,0.1-0.3,0.2-0.5,0.2l3,1.8l0,0c0.3,0.1,0.6,0.1,0.7-0.2l0,0v-0.1
			C288.2,96.5,287.5,95.5,287.5,94z"/>
		<polygon class="st8" points="282,92.7 277.7,90.2 302.6,75.8 306.9,78.4 		"/>
		<path class="st11" d="M293,95.2l-1.7,1c-0.2,0.1-0.3,0.2-0.5,0.2l3,1.8l0,0c0.3,0.1,0.6,0.1,0.7-0.2l0,0v-0.1
			C293.7,97.7,293.1,96.8,293,95.2z"/>
		<path class="st8" d="M307,91.6l-10.1,5.9c-2.1,1.2-3.8,0.3-3.8-2.2l-1.7,1c-2.1,1.2-3.8,0.3-3.8-2.2l-1.7,1
			c-2.1,1.2-3.8,0.3-3.8-2.2L307,78.5"/>
	</g>
	<path class="st14" d="M288.3,96.2c0.1,0.1,0.2,0.2,0.3,0.2C288.5,96.4,288.4,96.3,288.3,96.2z"/>
	<path class="st14" d="M287.9,95.7c0.1,0.1,0.1,0.2,0.2,0.4C288,95.9,288,95.8,287.9,95.7z"/>
	<path class="st14" d="M288.8,96.5c0.1,0.1,0.3,0.1,0.4,0.1C289,96.6,288.9,96.6,288.8,96.5z"/>
	<path class="st14" d="M293.1,96.2c0,0.2,0.1,0.4,0.2,0.6C293.2,96.6,293.1,96.4,293.1,96.2z"/>
	<path class="st14" d="M293.4,96.9c0.1,0.1,0.1,0.3,0.2,0.4C293.5,97.2,293.5,97,293.4,96.9z"/>
	<path class="st14" d="M287.6,94.9c0,0.2,0.1,0.4,0.2,0.6C287.7,95.3,287.7,95.1,287.6,94.9z"/>
	<path class="st14" d="M293,95.2c0,0.3,0,0.5,0.1,0.8C293.1,95.8,293,95.5,293,95.2z"/>
	<path class="st14" d="M342.2,104.8l-13,8.7l-30.6-17l-1.7,1c-0.8,0.5-1.8,0.6-2.6,0.3c0.1,0.1,0.3,0.1,0.4,0.1V98
		c-0.1,0.3-0.5,0.3-0.7,0.2l0,0l0,0l-3-1.8c-0.5,0.3-1.1,0.3-1.7,0.2v0.1c-0.1,0.3-0.5,0.3-0.7,0.2l0,0l0,0l-3-1.8
		c0.2-0.1,0.3-0.1,0.5-0.2c-0.9,0.7-2.1,0.7-2.9,0.1c0.1,0.1,0.2,0.2,0.3,0.2l-4.4-2.5c-0.3-0.2-0.5-0.4-0.7-0.8l-14.5,9.3l65,39.2
		l40-23L342.2,104.8z"/>
	<path class="st14" d="M293.8,97.4c0.1,0.1,0.2,0.2,0.3,0.2C294,97.6,293.9,97.5,293.8,97.4z"/>
	<path class="st14" d="M287.5,94c0,0.3,0,0.5,0.1,0.8C287.6,94.5,287.5,94.2,287.5,94z"/>
	<path class="st14" d="M282.3,94.3c-0.1-0.2-0.1-0.3-0.1-0.5C282.2,94,282.3,94.2,282.3,94.3z"/>
	<path class="st14" d="M282.1,93.6c-0.1-0.3-0.1-0.6-0.1-0.9C282,93,282,93.3,282.1,93.6z"/>
	<path class="st14" d="M282.7,94.9c-0.1-0.1-0.1-0.2-0.2-0.3C282.5,94.7,282.6,94.8,282.7,94.9z"/>
</g>
<g>
	<polygon class="st15" points="-41.7,15.9 -41.6,68.8 -87.6,95.4 -87.7,42.5 	"/>
	<polygon class="st3" points="-83.1,45.2 -46.3,24 -46.2,66.1 -83,87.3 	"/>
	<polygon class="st3" points="-87.6,95.4 -168.6,48.3 -168.8,-4.6 -87.7,42.5 	"/>
	<polygon class="st16" points="-164,45.6 -164.1,3.5 -92.4,45.2 -92.2,87.3 	"/>
	<polygon class="st17" points="-87.7,42.5 -168.8,-4.6 -122.8,-31.2 -41.7,15.9 	"/>
	<polygon class="st17" points="-46.3,24 -49.1,25.6 -49,64.3 -83,83.9 -83,87.3 -46.2,66.1 	"/>
	<polygon class="st15" points="-164.1,3.5 -161.2,5.2 -161.3,44.3 -92.2,83.9 -92.2,87.3 -164,45.6 	"/>
	<g>
		<path class="st18" d="M-336.1,6.2c0,0-2.9-12.5-26.8-29.8"/>
		<path class="st18" d="M-336.1,6.2c0,0-0.4-14.3-11.5-25.4"/>
		<path class="st18" d="M-336.1,6.2c0,0,2.9-12.5,26.8-29.8"/>
		<path class="st18" d="M-336.1,6.2c0,0,0.4-14.3,11.5-25.4"/>
		<g>
			<path class="st15" d="M-362.8-23.3c8.2,3.9,18.8,5.5,26.7,5.5v-61.9C-359.3-74-362.8-39.2-362.8-23.3z"/>
			<path class="st3" d="M-375.3-39c0,7.2,5.3,12.3,12.5,15.7c0.1-15.9,3.5-50.7,26.7-56.4C-362.5-79.6-375.2-57.3-375.3-39z"/>
		</g>
		<g>
			<path class="st3" d="M-336.1-79.6v61.9c0,0,0,0,0,0c8.3,0,18.8-1.6,26.9-5.4C-309.3-39.1-312.9-74-336.1-79.6z"/>
			<path class="st15" d="M-296.9-39c0-18.3-12.8-40.7-39.2-40.7c0,0,0,0,0,0c23.2,5.6,26.8,40.6,26.9,56.4
				C-302.1-26.6-296.9-31.7-296.9-39z"/>
		</g>
		<path class="st15" d="M-336.1-79.6C-336.1-79.6-336.1-79.6-336.1-79.6c-3.2,0-6.3,0.3-9.1,1c0.9,2.2,4.6,3.8,9.1,3.8
			c4.5,0,8.2-1.6,9.1-3.8C-329.8-79.3-332.9-79.6-336.1-79.6z"/>
	</g>
</g>
<path class="st19" d="M180.3,9.8c0,5.4,4.4,9.8,9.8,9.8h55.5V9.8H180.3z"/>
<path class="st19" d="M245.6,19.7v9.8H200c-5.4,0-9.8-4.4-9.8-9.8H245.6z"/>
<path class="st19" d="M245.6,29.5v9.8h-35.8c-5.4,0-9.8-4.4-9.8-9.8H245.6z"/>
<g>
	<g>
		<g class="st1">
			<g class="st1">
				<defs>
					<path id="SVGID_3_" class="st1" d="M311.8,155.6l-7-4.1c-1.3-0.7-2-2.3-2-4.5l7,4.1C309.7,153.3,310.5,154.9,311.8,155.6z"/>
				</defs>
				<clipPath id="SVGID_4_">
					<use xlink:href="#SVGID_3_"  style="overflow:visible;"/>
				</clipPath>
				<g class="st20">
					<path class="st21" d="M311.8,155.6l-7-4.1c-1.3-0.7-2-2.3-2-4.5l7,4.1C309.7,153.3,310.5,154.9,311.8,155.6"/>
				</g>
			</g>
			<g class="st1">
				<defs>
					<path id="SVGID_5_" class="st1" d="M304.8,151.6l-7-4.1c-1.3-0.7-2-2.3-2-4.5l7,4.1C302.7,149.3,303.5,150.9,304.8,151.6z"/>
				</defs>
				<clipPath id="SVGID_6_">
					<use xlink:href="#SVGID_5_"  style="overflow:visible;"/>
				</clipPath>
				<g class="st22">
					<path class="st21" d="M304.8,151.6l-7-4.1c-1.3-0.7-2-2.3-2-4.5l7,4.1C302.7,149.3,303.5,150.9,304.8,151.6"/>
				</g>
			</g>
			<g class="st1">
				<defs>
					<path id="SVGID_7_" class="st1" d="M297.8,147.6l-7-4.1c-1.3-0.7-2-2.3-2-4.5l7,4.1C295.7,145.3,296.5,146.9,297.8,147.6z"/>
				</defs>
				<clipPath id="SVGID_8_">
					<use xlink:href="#SVGID_7_"  style="overflow:visible;"/>
				</clipPath>
				<g class="st23">
					<path class="st21" d="M297.8,147.6l-7-4.1c-1.3-0.7-2-2.3-2-4.5l7,4.1C295.7,145.3,296.5,146.9,297.8,147.6"/>
				</g>
			</g>
			<g>
				<path class="st24" d="M342,116.4l0,8l0,8l0,8l-25.4,14.7c-3.8,2.2-7,0.4-7-4c-3.9,2.2-7,0.4-7-4c-3.8,2.2-7,0.4-7-4L342,116.4z"
					/>
			</g>
			<g>
				<polygon class="st25" points="295.7,143.1 288.7,139 335,112.3 342,116.4 				"/>
			</g>
		</g>
	</g>
</g>
<g>
	<g>
		<g class="st1">
			<g>
				<polygon class="st26" points="295.8,221.7 288.7,217.6 288.7,209.6 295.8,213.7 				"/>
			</g>
			<g>
				<polygon class="st26" points="295.8,213.7 288.7,209.6 288.7,201.6 295.7,205.7 				"/>
			</g>
			<g>
				<path class="st24" d="M342,170.9c0,4.4-3.1,9.8-6.9,12c0,4.4-3.1,9.8-7,12c0,4.4-3.1,9.8-7,12l-25.4,14.7l0-8l0-8l0-8L342,170.9
					z"/>
			</g>
			<g>
				<polygon class="st26" points="295.7,205.7 288.7,201.6 288.7,193.5 295.7,197.6 				"/>
			</g>
			<g>
				<polygon class="st25" points="295.7,197.6 288.7,193.5 335,166.8 342,170.9 				"/>
			</g>
		</g>
	</g>
</g>
<g>
	<g class="st1">
		<defs>
			<path id="SVGID_9_" class="st1" d="M39.3,153.1l-7-4.1c-1.3-0.7-2-2.3-2-4.5l7,4.1C37.3,150.8,38.1,152.4,39.3,153.1z"/>
		</defs>
		<clipPath id="SVGID_10_">
			<use xlink:href="#SVGID_9_"  style="overflow:visible;"/>
		</clipPath>
		<g class="st27">
			<path class="st28" d="M39.3,153.1l-7-4.1c-1.3-0.7-2-2.3-2-4.5l7,4.1C37.3,150.8,38.1,152.4,39.3,153.1"/>
		</g>
	</g>
	<g class="st1">
		<defs>
			<path id="SVGID_11_" class="st1" d="M32.3,149.1l-7-4.1c-1.3-0.7-2-2.3-2-4.5l7,4.1C30.3,146.9,31.1,148.4,32.3,149.1z"/>
		</defs>
		<clipPath id="SVGID_12_">
			<use xlink:href="#SVGID_11_"  style="overflow:visible;"/>
		</clipPath>
		<g class="st29">
			<path class="st28" d="M32.3,149.1l-7-4.1c-1.3-0.7-2-2.3-2-4.5l7,4.1C30.3,146.9,31.1,148.4,32.3,149.1"/>
		</g>
	</g>
	<g class="st1">
		<defs>
			<path id="SVGID_13_" class="st1" d="M25.3,145.1l-7-4.1c-1.3-0.7-2-2.3-2-4.5l7,4.1C23.3,142.9,24.1,144.4,25.3,145.1z"/>
		</defs>
		<clipPath id="SVGID_14_">
			<use xlink:href="#SVGID_13_"  style="overflow:visible;"/>
		</clipPath>
		<g class="st30">
			<path class="st28" d="M25.3,145.1l-7-4.1c-1.3-0.7-2-2.3-2-4.5l7,4.1C23.3,142.9,24.1,144.4,25.3,145.1"/>
		</g>
	</g>
	<g>
		<path class="st2" d="M69.6,113.9l0.1,24l-25.4,14.7c-3.8,2.2-7,0.4-7-4c-3.9,2.2-7,0.4-7-4c-3.8,2.2-7,0.4-7-4L69.6,113.9z"/>
	</g>
	<g>
		<polygon class="st0" points="23.3,140.7 16.2,136.6 62.6,109.8 69.6,113.9 		"/>
	</g>
</g>
<g>
	<g class="st1">
		<path class="st6" d="M174,7.8c0-0.1,0-0.1,0-0.2c0-0.1,0-0.1,0-0.2c0-0.1,0-0.1,0-0.2c0-0.1,0-0.1,0-0.2c0,0,0,0,0,0c0,0,0,0,0,0
			c0-0.1,0-0.1,0-0.2c0-0.1,0-0.1,0-0.2c0-0.1,0-0.1,0-0.2c0-0.1,0-0.1-0.1-0.2c0-0.1,0-0.1,0-0.2c0,0,0,0,0,0c0,0,0,0,0,0
			c0-0.1,0-0.1-0.1-0.2c0-0.1,0-0.1-0.1-0.2c0-0.1,0-0.1-0.1-0.2c0-0.1,0-0.1-0.1-0.2c0,0,0-0.1-0.1-0.1c0,0,0,0,0,0c0,0,0,0,0,0
			c0-0.1-0.1-0.1-0.1-0.2c0-0.1-0.1-0.1-0.1-0.2c0-0.1-0.1-0.1-0.1-0.2c0-0.1-0.1-0.2-0.1-0.2c0,0,0,0,0,0c0,0,0,0,0,0
			c-0.1-0.2-0.2-0.3-0.3-0.4c-0.1-0.1-0.2-0.2-0.2-0.3c0,0,0,0,0,0c0,0,0,0,0,0c-0.1-0.1-0.1-0.1-0.2-0.2c0-0.1-0.1-0.1-0.1-0.2
			c0-0.1-0.1-0.1-0.1-0.2c0-0.1-0.1-0.1-0.1-0.2c0,0,0,0,0,0c0,0,0,0,0,0c0,0-0.1-0.1-0.1-0.1c-0.1-0.1-0.1-0.1-0.2-0.2
			c-0.1-0.1-0.1-0.1-0.2-0.2c-0.1,0-0.1-0.1-0.2-0.1c0,0-0.1,0-0.1-0.1c0,0,0,0,0,0c0,0,0,0-0.1-0.1c-0.1,0-0.1-0.1-0.2-0.1
			c-0.1,0-0.1-0.1-0.2-0.1c-0.1,0-0.1-0.1-0.2-0.1c-0.1,0-0.1-0.1-0.2-0.1c0,0,0,0,0,0c0,0-0.1,0-0.1-0.1c-0.1,0-0.1-0.1-0.2-0.1
			c-0.1,0-0.1,0-0.2-0.1c0,0-0.1,0-0.1-0.1c-0.1,0-0.1,0-0.1-0.1c0,0,0,0,0,0c0,0,0,0,0,0c0,0-0.1,0-0.1,0c-0.1,0-0.1,0-0.2,0
			c-0.1,0-0.1,0-0.2,0c-0.1,0-0.1,0-0.2,0c0,0-0.1,0-0.1,0c0,0,0,0,0,0c0,0,0,0,0,0c-0.1,0-0.1,0-0.2,0c-0.1,0-0.1,0-0.2,0
			c-0.1,0-0.1,0-0.2,0c0,0,0,0,0,0c0,0,0,0,0,0c-0.1,0-0.2,0-0.2,0.1c-0.1,0-0.2,0.1-0.3,0.1l-70.5,41c0.2-0.1,0.4-0.2,0.5-0.2
			c0,0,0,0,0,0c0.2,0,0.4-0.1,0.6,0c0,0,0,0,0,0c0.2,0,0.4,0.1,0.7,0.1c0,0,0,0,0,0c0.2,0.1,0.5,0.2,0.7,0.3
			c0.3,0.1,0.5,0.3,0.7,0.5c0,0,0,0,0,0c0.2,0.2,0.5,0.4,0.7,0.6c0,0,0,0,0,0c0.2,0.2,0.4,0.5,0.6,0.8c0,0,0,0,0,0
			c0.2,0.3,0.4,0.5,0.5,0.8c0,0,0,0,0,0c0.2,0.3,0.3,0.6,0.4,0.9c0,0,0,0,0,0c0.1,0.3,0.2,0.6,0.3,0.9c0,0,0,0,0,0
			c0.1,0.3,0.2,0.6,0.2,0.9c0,0,0,0,0,0c0,0.3,0.1,0.6,0.1,0.9c0,0.3,0,0.6-0.1,0.8c0,0,0,0,0,0c0,0.2-0.1,0.5-0.2,0.7c0,0,0,0,0,0
			c-0.1,0.2-0.2,0.3-0.3,0.4c0,0-0.1,0.1-0.1,0.1c-0.1,0.1-0.3,0.2-0.4,0.3l70.5-41c0.2-0.1,0.3-0.2,0.4-0.3c0,0,0.1-0.1,0.1-0.1
			c0-0.1,0.1-0.1,0.1-0.2c0.1-0.1,0.1-0.2,0.1-0.3c0,0,0,0,0,0c0,0,0,0,0,0c0-0.1,0.1-0.1,0.1-0.2c0-0.1,0-0.1,0.1-0.2
			c0-0.1,0-0.1,0-0.2c0,0,0-0.1,0-0.1c0,0,0,0,0,0c0,0,0-0.1,0-0.1c0-0.1,0-0.1,0-0.2c0-0.1,0-0.1,0-0.2c0-0.1,0-0.1,0-0.2
			c0-0.1,0-0.1,0-0.2c0,0,0,0,0,0C174,7.9,174,7.8,174,7.8z"/>
		<g>
			<path class="st3" d="M99.8,42.5c2.1,1.2,3.7,4.1,3.7,6.4c0,2.4-1.7,3.3-3.7,2.1c-2.1-1.2-3.7-4.1-3.7-6.4
				C96.1,42.2,97.7,41.3,99.8,42.5z"/>
		</g>
	</g>
</g>
<path class="st4" d="M102.4,95.1C102.4,95.1,102.4,95.1,102.4,95.1l23.8-13.8l-10.5-6.1L97.2,86c0,0,0,0,0,0
	c-0.7,0.4-1.1,1.2-1.1,2.4c0,2.4,1.7,5.2,3.7,6.4C100.8,95.4,101.7,95.4,102.4,95.1C102.4,95.1,102.4,95.1,102.4,95.1L102.4,95.1z"
	/>
<g>
	<g class="st1">
		<path class="st4" d="M115.3,41.7c0-0.1,0-0.1,0-0.2c0-0.1,0-0.1,0-0.2c0-0.1,0-0.1,0-0.2c0-0.1,0-0.1,0-0.2c0,0,0,0,0,0
			c0,0,0,0,0,0c0-0.1,0-0.1,0-0.2c0-0.1,0-0.1,0-0.2c0-0.1,0-0.1,0-0.2c0-0.1,0-0.1-0.1-0.2c0-0.1,0-0.1,0-0.2c0,0,0,0,0,0
			c0,0,0,0,0,0c0-0.1,0-0.1-0.1-0.2c0-0.1,0-0.1-0.1-0.2c0-0.1,0-0.1-0.1-0.2c0-0.1,0-0.1-0.1-0.2c0,0,0-0.1-0.1-0.1c0,0,0,0,0,0
			c0,0,0,0,0,0c0-0.1-0.1-0.1-0.1-0.2c0-0.1-0.1-0.1-0.1-0.2c0-0.1-0.1-0.1-0.1-0.2c0-0.1-0.1-0.2-0.1-0.2c0,0,0,0,0,0c0,0,0,0,0,0
			c-0.1-0.2-0.2-0.3-0.3-0.4c-0.1-0.1-0.2-0.2-0.2-0.3c0,0,0,0,0,0c0,0,0,0,0,0c-0.1-0.1-0.1-0.1-0.2-0.2c0-0.1-0.1-0.1-0.1-0.2
			c0-0.1-0.1-0.1-0.1-0.2c0-0.1-0.1-0.1-0.1-0.2c0,0,0,0,0,0c0,0,0,0,0,0c0,0-0.1-0.1-0.1-0.1c-0.1-0.1-0.1-0.1-0.2-0.2
			c-0.1-0.1-0.1-0.1-0.2-0.2c-0.1,0-0.1-0.1-0.2-0.1c0,0-0.1,0-0.1-0.1c0,0,0,0,0,0c0,0,0,0-0.1-0.1c-0.1,0-0.1-0.1-0.2-0.1
			c-0.1,0-0.1-0.1-0.2-0.1c-0.1,0-0.1-0.1-0.2-0.1c-0.1,0-0.1-0.1-0.2-0.1c0,0,0,0,0,0c0,0-0.1,0-0.1-0.1c-0.1,0-0.1-0.1-0.2-0.1
			c-0.1,0-0.1,0-0.2-0.1c0,0-0.1,0-0.1-0.1c-0.1,0-0.1,0-0.1-0.1c0,0,0,0,0,0c0,0,0,0,0,0c0,0-0.1,0-0.1,0c-0.1,0-0.1,0-0.2,0
			c-0.1,0-0.1,0-0.2,0c-0.1,0-0.1,0-0.2,0c0,0-0.1,0-0.1,0c0,0,0,0,0,0c0,0,0,0,0,0c-0.1,0-0.1,0-0.2,0c-0.1,0-0.1,0-0.2,0
			c-0.1,0-0.1,0-0.2,0c0,0,0,0,0,0c0,0,0,0,0,0c-0.1,0-0.2,0-0.2,0.1c-0.1,0-0.2,0.1-0.3,0.1l-11.8,7c0.2-0.1,0.4-0.2,0.5-0.2
			c0,0,0,0,0,0c0.2,0,0.4-0.1,0.6,0c0,0,0,0,0,0c0.2,0,0.4,0.1,0.7,0.1c0,0,0,0,0,0c0.2,0.1,0.5,0.2,0.7,0.3
			c0.3,0.1,0.5,0.3,0.7,0.5c0,0,0,0,0,0c0.2,0.2,0.5,0.4,0.7,0.6c0,0,0,0,0,0c0.2,0.2,0.4,0.5,0.6,0.8c0,0,0,0,0,0
			c0.2,0.3,0.4,0.5,0.5,0.8c0,0,0,0,0,0c0.2,0.3,0.3,0.6,0.4,0.9c0,0,0,0,0,0c0.1,0.3,0.2,0.6,0.3,0.9c0,0,0,0,0,0
			c0.1,0.3,0.2,0.6,0.2,0.9c0,0,0,0,0,0c0,0.3,0.1,0.6,0.1,0.9c0,0.3,0,0.6-0.1,0.8c0,0,0,0,0,0c0,0.2-0.1,0.5-0.2,0.7c0,0,0,0,0,0
			c-0.1,0.2-0.2,0.3-0.3,0.4c0,0-0.1,0.1-0.1,0.1c-0.1,0.1-0.3,0.2-0.4,0.3l11.8-7c0.2-0.1,0.3-0.2,0.4-0.3c0,0,0.1-0.1,0.1-0.1
			c0-0.1,0.1-0.1,0.1-0.2c0.1-0.1,0.1-0.2,0.1-0.3c0,0,0,0,0,0c0,0,0,0,0,0c0-0.1,0.1-0.1,0.1-0.2c0-0.1,0-0.1,0.1-0.2
			c0-0.1,0-0.1,0-0.2c0,0,0-0.1,0-0.1c0,0,0,0,0,0c0,0,0-0.1,0-0.1c0-0.1,0-0.1,0-0.2c0-0.1,0-0.1,0-0.2c0-0.1,0-0.1,0-0.2
			c0-0.1,0-0.1,0-0.2c0,0,0,0,0,0C115.3,41.8,115.3,41.8,115.3,41.7z"/>
		<g>
			<path class="st5" d="M99.8,42.5c2.1,1.2,3.7,4.1,3.7,6.4c0,2.4-1.7,3.3-3.7,2.1c-2.1-1.2-3.7-4.1-3.7-6.4
				C96.1,42.2,97.7,41.3,99.8,42.5z"/>
		</g>
	</g>
</g>
<ellipse class="st0" cx="210.1" cy="152.1" rx="17.9" ry="18.3"/>
<g>
	<g>
		<g class="st1">
			<g class="st1">
				<defs>
					<path id="SVGID_15_" class="st1" d="M204.7,94.1l3.5-2c-2.2,1.3-3.9,3.7-4.5,7l-3.5,2C200.8,97.8,202.4,95.4,204.7,94.1z"/>
				</defs>
				<clipPath id="SVGID_16_">
					<use xlink:href="#SVGID_15_"  style="overflow:visible;"/>
				</clipPath>
				<g class="st31">
					<path class="st32" d="M204.7,94.1l3.5-2c-1.2,0.7-2.1,1.6-2.9,2.9l-3.5,2C202.5,95.7,203.5,94.8,204.7,94.1"/>
					<path class="st33" d="M201.7,97l3.5-2c-0.2,0.4-0.4,0.7-0.6,1.1l-3.5,2C201.3,97.7,201.5,97.3,201.7,97"/>
					<path class="st34" d="M201.1,98.1l3.5-2c-0.1,0.3-0.3,0.6-0.4,1l-3.5,2C200.8,98.7,201,98.4,201.1,98.1"/>
					<path class="st35" d="M200.7,99.1l3.5-2c-0.1,0.3-0.2,0.6-0.3,0.9l-3.5,2C200.5,99.7,200.6,99.4,200.7,99.1"/>
					<path class="st36" d="M200.4,100l3.5-2c-0.1,0.3-0.2,0.6-0.2,0.8l-3.5,2C200.3,100.5,200.3,100.2,200.4,100"/>
					<path class="st37" d="M200.2,100.8l3.5-2c0,0.1,0,0.2-0.1,0.3l-3.5,2C200.1,101,200.2,100.9,200.2,100.8"/>
				</g>
			</g>
			<g class="st1">
				<defs>
					<path id="SVGID_17_" class="st1" d="M199.2,76.3l-3.5,2c-2.2,1.3-5,1.5-8.2,0.5l3.5-2C194.1,77.9,197,77.6,199.2,76.3z"/>
				</defs>
				<clipPath id="SVGID_18_">
					<use xlink:href="#SVGID_17_"  style="overflow:visible;"/>
				</clipPath>
				<g class="st38">
					<path class="st39" d="M187.4,78.9l3.5-2c0.1,0,0.1,0,0.2,0l-3.5,2C187.5,78.9,187.5,78.9,187.4,78.9"/>
					<path class="st40" d="M187.6,79l3.5-2c0.2,0.1,0.5,0.1,0.7,0.2l-3.5,2C188.1,79.1,187.8,79,187.6,79"/>
					<path class="st41" d="M188.3,79.2l3.5-2c0.2,0.1,0.5,0.1,0.7,0.2l-3.5,2C188.8,79.3,188.5,79.2,188.3,79.2"/>
					<path class="st42" d="M189,79.3l3.5-2c0.2,0,0.5,0.1,0.7,0.1l-3.5,2C189.5,79.4,189.2,79.4,189,79.3"/>
					<path class="st37" d="M189.7,79.4l3.5-2c0.3,0,0.5,0.1,0.8,0.1l-3.5,2C190.2,79.5,190,79.5,189.7,79.4"/>
					<path class="st36" d="M190.5,79.5l3.5-2c0.3,0,0.5,0,0.8,0l-3.5,2C191,79.5,190.7,79.5,190.5,79.5"/>
					<path class="st35" d="M191.3,79.5l3.5-2c0.3,0,0.6,0,0.9,0l-3.5,2C191.8,79.5,191.6,79.5,191.3,79.5"/>
					<path class="st34" d="M192.1,79.5l3.5-2c0.3,0,0.7-0.1,1-0.1l-3.5,2C192.8,79.4,192.5,79.5,192.1,79.5"/>
					<path class="st33" d="M193.1,79.4l3.5-2c0.4-0.1,0.8-0.2,1.2-0.3l-3.5,2C193.9,79.2,193.5,79.3,193.1,79.4"/>
					<path class="st32" d="M194.3,79l3.5-2c0.5-0.2,1-0.4,1.4-0.6l-3.5,2C195.2,78.7,194.7,78.9,194.3,79"/>
				</g>
			</g>
			<g>
				<path class="st43" d="M200.2,71.4c1.3,8.2,6.3,16.9,12.7,22.2c-6.4-2-11.4,0.9-12.8,7.5c-1.3-8.2-6.3-16.9-12.7-22.2
					C193.8,80.9,198.8,78,200.2,71.4z"/>
			</g>
			<g class="st1">
				<defs>
					<path id="SVGID_19_" class="st1" d="M200.2,71.4l3.5-2c1.3,8.2,6.3,16.9,12.7,22.2l-3.5,2C206.5,88.2,201.5,79.5,200.2,71.4z"
						/>
				</defs>
				<clipPath id="SVGID_20_">
					<use xlink:href="#SVGID_19_"  style="overflow:visible;"/>
				</clipPath>
				<g class="st44">
					<path class="st45" d="M200.2,71.4l3.5-2c0,0.2,0.1,0.5,0.1,0.7l-3.5,2C200.3,71.9,200.2,71.6,200.2,71.4"/>
					<path class="st46" d="M200.3,72.1l3.5-2c0.1,0.3,0.1,0.6,0.2,0.9l-3.5,2C200.4,72.7,200.4,72.4,200.3,72.1"/>
					<path class="st47" d="M200.5,73l3.5-2c0.1,0.3,0.1,0.6,0.2,0.9l-3.5,2C200.6,73.6,200.6,73.3,200.5,73"/>
					<path class="st48" d="M200.7,73.9l3.5-2c0.1,0.3,0.2,0.6,0.2,0.9l-3.5,2C200.9,74.5,200.8,74.2,200.7,73.9"/>
					<path class="st49" d="M200.9,74.8l3.5-2c0.1,0.3,0.2,0.6,0.3,0.9l-3.5,2C201.1,75.3,201,75.1,200.9,74.8"/>
					<path class="st50" d="M201.2,75.6l3.5-2c0.1,0.3,0.2,0.6,0.3,0.9l-3.5,2C201.4,76.2,201.3,75.9,201.2,75.6"/>
					<path class="st51" d="M201.5,76.5l3.5-2c0.1,0.3,0.2,0.6,0.3,0.9l-3.5,2C201.7,77.1,201.6,76.8,201.5,76.5"/>
					<path class="st52" d="M201.8,77.4l3.5-2c0.1,0.3,0.2,0.6,0.3,0.8l-3.5,2C202,77.9,201.9,77.7,201.8,77.4"/>
					<path class="st53" d="M202.1,78.2l3.5-2c0.1,0.3,0.2,0.5,0.3,0.8l-3.5,2C202.3,78.7,202.2,78.5,202.1,78.2"/>
					<path class="st0" d="M202.4,79l3.5-2c0.1,0.3,0.2,0.5,0.3,0.8l-3.5,2C202.6,79.5,202.5,79.3,202.4,79"/>
					<path class="st54" d="M202.8,79.8l3.5-2c0.1,0.3,0.2,0.5,0.4,0.8l-3.5,2C203,80.4,202.9,80.1,202.8,79.8"/>
					<path class="st55" d="M203.1,80.6l3.5-2c0.1,0.3,0.3,0.6,0.4,0.9l-3.5,2C203.4,81.2,203.3,80.9,203.1,80.6"/>
					<path class="st56" d="M203.6,81.5l3.5-2c0.2,0.3,0.3,0.6,0.5,1l-3.5,2C203.9,82.1,203.7,81.8,203.6,81.5"/>
					<path class="st57" d="M204.1,82.5l3.5-2c0.3,0.5,0.5,1,0.8,1.5l-3.5,2C204.6,83.5,204.3,83,204.1,82.5"/>
					<path class="st58" d="M204.9,84l3.5-2c0.4,0.7,0.9,1.5,1.4,2.2l-3.5,2C205.8,85.4,205.3,84.7,204.9,84"/>
					<path class="st57" d="M206.3,86.1l3.5-2c0.3,0.5,0.7,0.9,1,1.4l-3.5,2C206.9,87.1,206.6,86.6,206.3,86.1"/>
					<path class="st56" d="M207.3,87.6l3.5-2c0.2,0.3,0.5,0.6,0.7,0.9l-3.5,2C207.7,88.2,207.5,87.9,207.3,87.6"/>
					<path class="st55" d="M208,88.5l3.5-2c0.2,0.3,0.4,0.5,0.7,0.8l-3.5,2C208.4,89,208.2,88.8,208,88.5"/>
					<path class="st54" d="M208.6,89.3l3.5-2c0.2,0.3,0.4,0.5,0.6,0.8l-3.5,2C209.1,89.8,208.9,89.6,208.6,89.3"/>
					<path class="st0" d="M209.3,90.1l3.5-2c0.2,0.2,0.4,0.5,0.7,0.7l-3.5,2C209.7,90.6,209.5,90.3,209.3,90.1"/>
					<path class="st53" d="M209.9,90.8l3.5-2c0.2,0.2,0.5,0.5,0.7,0.7l-3.5,2C210.4,91.3,210.2,91,209.9,90.8"/>
					<path class="st52" d="M210.6,91.5l3.5-2c0.2,0.2,0.5,0.5,0.7,0.7l-3.5,2C211.1,92,210.9,91.8,210.6,91.5"/>
					<path class="st51" d="M211.3,92.2l3.5-2c0.2,0.2,0.5,0.5,0.7,0.7l-3.5,2C211.8,92.7,211.6,92.5,211.3,92.2"/>
					<path class="st50" d="M212.1,92.9l3.5-2c0.2,0.2,0.5,0.4,0.8,0.7l-3.5,2C212.6,93.4,212.3,93.1,212.1,92.9"/>
					<path class="st49" d="M212.8,93.6l3.5-2c0,0,0,0,0,0L212.8,93.6C212.9,93.6,212.9,93.6,212.8,93.6"/>
				</g>
			</g>
		</g>
	</g>
</g>
<g>
	<g>
		<g class="st1">
			<path class="st59" d="M84.8,36.4c0.1-0.3,0.2-0.6,0.3-0.9c0.1-0.2,0.1-0.3,0.2-0.4c0.1-0.2,0.2-0.4,0.2-0.5
				c0.1-0.3,0.3-0.5,0.4-0.8c0.1-0.1,0.1-0.2,0.2-0.3c0.1-0.2,0.2-0.3,0.4-0.5c0.1-0.1,0.2-0.2,0.3-0.4c0.1-0.2,0.3-0.3,0.4-0.5
				c0.1-0.1,0.2-0.2,0.3-0.3c0.2-0.2,0.3-0.3,0.5-0.4c0.1-0.1,0.2-0.1,0.3-0.2c0.3-0.2,0.5-0.4,0.8-0.5l0,0c0,0,0,0,0,0l-3.5,2
				c-0.3,0.2-0.6,0.3-0.8,0.5c-0.1,0.1-0.2,0.1-0.3,0.2c-0.2,0.1-0.3,0.3-0.5,0.4c-0.1,0.1-0.2,0.2-0.3,0.3
				c-0.1,0.1-0.3,0.3-0.4,0.5c-0.1,0.1-0.2,0.2-0.3,0.4c-0.1,0.2-0.2,0.3-0.4,0.5c0,0,0,0,0,0c0,0.1-0.1,0.2-0.1,0.2
				c-0.1,0.2-0.3,0.5-0.4,0.8c0,0,0,0.1-0.1,0.1c-0.1,0.1-0.1,0.3-0.2,0.4c-0.1,0.1-0.1,0.3-0.2,0.4c0,0,0,0.1-0.1,0.1
				c-0.1,0.3-0.2,0.5-0.3,0.8c0,0,0,0.1,0,0.1c0,0,0,0,0,0c-0.1,0.3-0.2,0.6-0.2,0.8c0,0.1,0,0.2-0.1,0.3l3.5-2
				C84.6,37.2,84.7,36.8,84.8,36.4C84.8,36.4,84.8,36.4,84.8,36.4z"/>
			<path class="st60" d="M76.5,16.9l3.5-2c-0.3,0.1-0.5,0.3-0.8,0.4c-0.1,0-0.2,0.1-0.3,0.1c-0.2,0.1-0.3,0.1-0.5,0.2
				c-0.2,0.1-0.5,0.1-0.8,0.2c-0.1,0-0.2,0.1-0.3,0.1c-0.1,0-0.3,0-0.4,0.1c-0.2,0-0.4,0.1-0.6,0.1c-0.1,0-0.2,0-0.3,0
				c-0.2,0-0.4,0-0.7,0c-0.1,0-0.2,0-0.3,0c-0.3,0-0.6,0-0.9-0.1c0,0,0,0-0.1,0c-0.3,0-0.7-0.1-1-0.2c-0.1,0-0.1,0-0.2,0
				c-0.4-0.1-0.7-0.2-1.1-0.3l-3.5,2c0.1,0,0.1,0,0.2,0c0.2,0.1,0.5,0.1,0.7,0.2c0.1,0,0.1,0,0.2,0c0.1,0,0.1,0,0.2,0
				c0.1,0,0.2,0,0.3,0.1c0.2,0,0.5,0.1,0.7,0.1c0,0,0,0,0,0c0,0,0,0,0.1,0c0.2,0,0.4,0.1,0.7,0.1c0.1,0,0.2,0,0.2,0
				c0.1,0,0.2,0,0.3,0c0.1,0,0.2,0,0.3,0c0.1,0,0.3,0,0.4,0c0.1,0,0.2,0,0.3,0c0,0,0.1,0,0.1,0c0.1,0,0.3,0,0.4-0.1
				c0.2,0,0.3,0,0.4-0.1c0,0,0.1,0,0.1,0c0.1,0,0.2,0,0.2-0.1c0.3-0.1,0.5-0.1,0.8-0.2c0.1,0,0.1,0,0.2,0c0.1,0,0.2-0.1,0.4-0.1
				c0.1,0,0.2-0.1,0.3-0.1C76,17.2,76.3,17.1,76.5,16.9z"/>
			<g>
				<path class="st61" d="M81.1,9.9c1.3,8.2,6.3,16.9,12.7,22.2c-6.4-2-11.4,0.9-12.8,7.5c-1.3-8.2-6.3-16.9-12.7-22.2
					C74.7,19.5,79.7,16.5,81.1,9.9z"/>
			</g>
		</g>
	</g>
	<path class="st60" d="M96.2,29.2c-0.1-0.1-0.2-0.1-0.2-0.2c-0.3-0.3-0.7-0.6-1-1c0,0-0.1-0.1-0.1-0.1c-0.3-0.3-0.6-0.6-0.9-1
		c-0.1-0.1-0.1-0.1-0.2-0.2c-0.3-0.4-0.6-0.7-0.9-1.1c-0.1-0.1-0.1-0.2-0.2-0.2c-0.3-0.3-0.5-0.6-0.8-1c-0.1-0.1-0.1-0.2-0.2-0.2
		c-0.1-0.2-0.3-0.4-0.4-0.6c-0.2-0.3-0.4-0.5-0.6-0.8c-0.1-0.1-0.1-0.2-0.2-0.3c-0.4-0.6-0.7-1.1-1.1-1.7c-2.4-4.1-4.2-8.5-4.9-12.9
		l-3.5,2c0.7,4.2,2.4,8.6,4.7,12.6l0,0c0.1,0.1,0.1,0.2,0.2,0.3c0.3,0.6,0.7,1.2,1.1,1.7c0,0.1,0.1,0.1,0.1,0.2c0,0,0,0.1,0.1,0.1
		c0.2,0.3,0.4,0.5,0.6,0.8c0.1,0.2,0.2,0.3,0.4,0.5c0,0,0,0.1,0.1,0.1c0.1,0.1,0.1,0.2,0.2,0.2c0.2,0.2,0.3,0.4,0.5,0.6
		c0.1,0.1,0.2,0.2,0.3,0.4c0.1,0.1,0.1,0.2,0.2,0.2c0.1,0.1,0.1,0.1,0.2,0.2c0.2,0.3,0.4,0.5,0.6,0.8c0,0,0.1,0.1,0.1,0.1
		c0.1,0.1,0.1,0.1,0.2,0.2c0.1,0.1,0.3,0.3,0.4,0.4c0.2,0.2,0.4,0.4,0.5,0.6c0,0,0.1,0.1,0.1,0.1c0,0,0,0,0,0
		c0.2,0.2,0.5,0.5,0.7,0.7c0.1,0.1,0.2,0.1,0.2,0.2c0.1,0.1,0.2,0.1,0.2,0.2c0.1,0.1,0.2,0.2,0.3,0.2c0.2,0.2,0.5,0.4,0.8,0.7
		c0,0,0,0,0,0l3.5-2C96.9,29.8,96.6,29.5,96.2,29.2z"/>
</g>
<g>
	<g>
		<g class="st1">
			<path class="st59" d="M107.5,23.3c0-0.1,0.1-0.3,0.1-0.4c0-0.1,0.1-0.1,0.1-0.2c0-0.1,0.1-0.2,0.1-0.2c0.1-0.1,0.1-0.2,0.2-0.3
				c0,0,0-0.1,0.1-0.1c0-0.1,0.1-0.1,0.2-0.2c0-0.1,0.1-0.1,0.1-0.2c0.1-0.1,0.1-0.1,0.2-0.2c0,0,0.1-0.1,0.1-0.1
				c0.1-0.1,0.1-0.1,0.2-0.2c0,0,0.1-0.1,0.1-0.1c0.1-0.1,0.2-0.2,0.4-0.2l0,0c0,0,0,0,0,0l-1.6,0.9c-0.1,0.1-0.2,0.2-0.4,0.2
				c0,0-0.1,0.1-0.1,0.1c-0.1,0.1-0.2,0.1-0.2,0.2c0,0-0.1,0.1-0.1,0.1c-0.1,0.1-0.1,0.1-0.2,0.2c0,0.1-0.1,0.1-0.1,0.2
				c-0.1,0.1-0.1,0.1-0.2,0.2c0,0,0,0,0,0c0,0,0,0.1-0.1,0.1c-0.1,0.1-0.1,0.2-0.2,0.3c0,0,0,0,0,0.1c0,0.1-0.1,0.1-0.1,0.2
				c0,0.1-0.1,0.1-0.1,0.2c0,0,0,0,0,0.1c0,0.1-0.1,0.2-0.1,0.3c0,0,0,0,0,0c0,0,0,0,0,0c0,0.1-0.1,0.2-0.1,0.4c0,0,0,0.1,0,0.1
				l1.6-0.9C107.4,23.7,107.4,23.5,107.5,23.3C107.5,23.3,107.5,23.3,107.5,23.3z"/>
			<path class="st60" d="M103.8,14.8l1.6-0.9c-0.1,0.1-0.2,0.1-0.3,0.2c0,0-0.1,0-0.1,0c-0.1,0-0.2,0.1-0.2,0.1
				c-0.1,0-0.2,0.1-0.3,0.1c0,0-0.1,0-0.1,0c-0.1,0-0.1,0-0.2,0c-0.1,0-0.2,0-0.2,0c0,0-0.1,0-0.1,0c-0.1,0-0.2,0-0.3,0
				c0,0-0.1,0-0.1,0c-0.1,0-0.3,0-0.4,0c0,0,0,0,0,0c-0.1,0-0.3,0-0.4-0.1c0,0-0.1,0-0.1,0c-0.2,0-0.3-0.1-0.5-0.1l-1.6,0.9
				c0,0,0,0,0.1,0c0.1,0,0.2,0.1,0.3,0.1c0,0,0.1,0,0.1,0c0,0,0.1,0,0.1,0c0,0,0.1,0,0.1,0c0.1,0,0.2,0,0.3,0.1c0,0,0,0,0,0
				c0,0,0,0,0,0c0.1,0,0.2,0,0.3,0c0,0,0.1,0,0.1,0c0,0,0.1,0,0.1,0c0,0,0.1,0,0.1,0c0.1,0,0.1,0,0.2,0c0,0,0.1,0,0.1,0
				c0,0,0,0,0.1,0c0.1,0,0.1,0,0.2,0c0.1,0,0.1,0,0.2,0c0,0,0,0,0,0c0,0,0.1,0,0.1,0c0.1,0,0.2-0.1,0.3-0.1c0,0,0,0,0.1,0
				c0.1,0,0.1,0,0.2-0.1c0,0,0.1,0,0.1,0C103.6,14.9,103.7,14.8,103.8,14.8z"/>
			<g>
				<path class="st61" d="M105.8,11.7c0.6,3.6,2.8,7.4,5.6,9.8c-2.8-0.9-5,0.4-5.6,3.3c-0.6-3.6-2.8-7.4-5.6-9.8
					C103,15.9,105.2,14.6,105.8,11.7z"/>
			</g>
		</g>
	</g>
	<path class="st60" d="M112.5,20.1c0,0-0.1-0.1-0.1-0.1c-0.1-0.1-0.3-0.3-0.4-0.4c0,0,0,0,0,0c-0.1-0.1-0.3-0.3-0.4-0.4
		c0,0,0-0.1-0.1-0.1c-0.1-0.2-0.3-0.3-0.4-0.5c0,0-0.1-0.1-0.1-0.1c-0.1-0.1-0.2-0.3-0.3-0.4c0,0-0.1-0.1-0.1-0.1
		c-0.1-0.1-0.1-0.2-0.2-0.3c-0.1-0.1-0.2-0.2-0.2-0.3c0,0-0.1-0.1-0.1-0.1c-0.2-0.2-0.3-0.5-0.5-0.8c-1.1-1.8-1.8-3.8-2.1-5.7
		l-1.6,0.9c0.3,1.9,1,3.8,2.1,5.5l0,0c0,0,0,0.1,0.1,0.1c0.2,0.3,0.3,0.5,0.5,0.8c0,0,0,0.1,0.1,0.1c0,0,0,0,0,0
		c0.1,0.1,0.2,0.2,0.2,0.3c0.1,0.1,0.1,0.2,0.2,0.2c0,0,0,0,0,0c0,0,0.1,0.1,0.1,0.1c0.1,0.1,0.1,0.2,0.2,0.3c0,0.1,0.1,0.1,0.1,0.2
		c0,0,0.1,0.1,0.1,0.1c0,0,0,0.1,0.1,0.1c0.1,0.1,0.2,0.2,0.3,0.3c0,0,0,0,0,0.1c0,0,0,0.1,0.1,0.1c0.1,0.1,0.1,0.1,0.2,0.2
		c0.1,0.1,0.2,0.2,0.2,0.2c0,0,0,0,0,0c0,0,0,0,0,0c0.1,0.1,0.2,0.2,0.3,0.3c0,0,0.1,0.1,0.1,0.1c0,0,0.1,0.1,0.1,0.1
		c0,0,0.1,0.1,0.1,0.1c0.1,0.1,0.2,0.2,0.3,0.3c0,0,0,0,0,0l1.6-0.9C112.8,20.4,112.6,20.3,112.5,20.1z"/>
</g>
<g>
	<g>
		<g class="st1">
			<path class="st59" d="M116.6,70.9c0.1-0.2,0.1-0.4,0.2-0.5c0-0.1,0.1-0.2,0.1-0.3c0-0.1,0.1-0.2,0.1-0.3c0.1-0.2,0.2-0.3,0.3-0.5
				c0-0.1,0.1-0.1,0.1-0.2c0.1-0.1,0.1-0.2,0.2-0.3c0.1-0.1,0.1-0.1,0.2-0.2c0.1-0.1,0.2-0.2,0.2-0.3c0.1-0.1,0.1-0.1,0.2-0.2
				c0.1-0.1,0.2-0.2,0.3-0.3c0.1,0,0.1-0.1,0.1-0.1c0.2-0.1,0.3-0.2,0.5-0.3l0,0c0,0,0,0,0,0l-2.1,1.2c-0.2,0.1-0.3,0.2-0.5,0.3
				c-0.1,0-0.1,0.1-0.2,0.1c-0.1,0.1-0.2,0.2-0.3,0.3c-0.1,0.1-0.1,0.1-0.2,0.2c-0.1,0.1-0.2,0.2-0.2,0.3c-0.1,0.1-0.1,0.1-0.2,0.2
				c-0.1,0.1-0.1,0.2-0.2,0.3c0,0,0,0,0,0c0,0-0.1,0.1-0.1,0.1c-0.1,0.1-0.2,0.3-0.3,0.5c0,0,0,0,0,0.1c0,0.1-0.1,0.2-0.1,0.2
				c0,0.1-0.1,0.2-0.1,0.3c0,0,0,0,0,0.1c-0.1,0.2-0.1,0.3-0.2,0.5c0,0,0,0,0,0.1c0,0,0,0,0,0c0,0.2-0.1,0.3-0.1,0.5
				c0,0.1,0,0.1,0,0.2l2.1-1.2C116.4,71.4,116.5,71.2,116.6,70.9C116.6,70.9,116.6,70.9,116.6,70.9z"/>
			<path class="st60" d="M111.6,59.3l2.1-1.2c-0.2,0.1-0.3,0.2-0.5,0.2c0,0-0.1,0-0.2,0.1c-0.1,0-0.2,0.1-0.3,0.1
				c-0.1,0-0.3,0.1-0.4,0.1c-0.1,0-0.1,0-0.2,0c-0.1,0-0.2,0-0.3,0c-0.1,0-0.2,0-0.3,0c-0.1,0-0.1,0-0.2,0c-0.1,0-0.3,0-0.4,0
				c-0.1,0-0.1,0-0.2,0c-0.2,0-0.4,0-0.5,0c0,0,0,0,0,0c-0.2,0-0.4-0.1-0.6-0.1c0,0-0.1,0-0.1,0c-0.2,0-0.4-0.1-0.6-0.2l-2.1,1.2
				c0,0,0.1,0,0.1,0c0.1,0,0.3,0.1,0.4,0.1c0,0,0.1,0,0.1,0c0,0,0.1,0,0.1,0c0.1,0,0.1,0,0.2,0c0.1,0,0.3,0.1,0.4,0.1c0,0,0,0,0,0
				c0,0,0,0,0,0c0.1,0,0.3,0,0.4,0c0,0,0.1,0,0.1,0c0.1,0,0.1,0,0.2,0c0.1,0,0.1,0,0.2,0c0.1,0,0.2,0,0.2,0c0.1,0,0.1,0,0.2,0
				c0,0,0.1,0,0.1,0c0.1,0,0.2,0,0.3,0c0.1,0,0.2,0,0.3,0c0,0,0,0,0.1,0c0.1,0,0.1,0,0.1,0c0.2,0,0.3-0.1,0.4-0.1c0,0,0.1,0,0.1,0
				c0.1,0,0.1-0.1,0.2-0.1c0.1,0,0.1,0,0.2-0.1C111.3,59.4,111.5,59.4,111.6,59.3z"/>
			<g>
				<path class="st61" d="M114.3,55.1c0.8,4.9,3.8,10.1,7.6,13.3c-3.8-1.2-6.8,0.6-7.6,4.5c-0.8-4.9-3.8-10.1-7.6-13.3
					C110.5,60.8,113.5,59,114.3,55.1z"/>
			</g>
		</g>
	</g>
	<path class="st60" d="M123.4,66.6c0,0-0.1-0.1-0.1-0.1c-0.2-0.2-0.4-0.4-0.6-0.6c0,0,0,0-0.1-0.1c-0.2-0.2-0.4-0.4-0.5-0.6
		c0,0-0.1-0.1-0.1-0.1c-0.2-0.2-0.4-0.4-0.5-0.6c0,0-0.1-0.1-0.1-0.1c-0.2-0.2-0.3-0.4-0.5-0.6c0,0-0.1-0.1-0.1-0.1
		c-0.1-0.1-0.2-0.2-0.3-0.4c-0.1-0.2-0.2-0.3-0.3-0.5c0-0.1-0.1-0.1-0.1-0.2c-0.2-0.3-0.4-0.7-0.6-1c-1.4-2.4-2.5-5.1-2.9-7.7
		l-2.1,1.2c0.4,2.5,1.4,5.1,2.8,7.5l0,0c0,0.1,0.1,0.1,0.1,0.2c0.2,0.3,0.4,0.7,0.6,1c0,0,0.1,0.1,0.1,0.1c0,0,0,0,0,0.1
		c0.1,0.2,0.2,0.3,0.3,0.5c0.1,0.1,0.1,0.2,0.2,0.3c0,0,0,0,0,0.1c0,0,0.1,0.1,0.1,0.1c0.1,0.1,0.2,0.2,0.3,0.4
		c0.1,0.1,0.1,0.1,0.2,0.2c0,0,0.1,0.1,0.1,0.1c0,0,0.1,0.1,0.1,0.1c0.1,0.2,0.3,0.3,0.4,0.5c0,0,0,0,0.1,0.1c0,0,0.1,0.1,0.1,0.1
		c0.1,0.1,0.1,0.2,0.2,0.3c0.1,0.1,0.2,0.2,0.3,0.3c0,0,0,0,0.1,0.1c0,0,0,0,0,0c0.1,0.1,0.3,0.3,0.4,0.4c0,0,0.1,0.1,0.1,0.1
		c0,0,0.1,0.1,0.1,0.1c0.1,0,0.1,0.1,0.2,0.1c0.1,0.1,0.3,0.3,0.5,0.4c0,0,0,0,0,0l2.1-1.2C123.8,66.9,123.6,66.8,123.4,66.6z"/>
</g>
<polygon class="st4" points="68.3,70.4 71.8,68.4 97.3,83 93.8,85.1 "/>
<polygon class="st4" points="100.2,75 101.7,74.1 113,80.6 111.4,81.5 "/>
<polygon class="st4" points="106.7,93.7 108.8,92.5 124,101.3 121.9,102.5 "/>
</svg>
