<svg id="Layer_1" xmlns="http://www.w3.org/2000/svg" xmlns:xlink="http://www.w3.org/1999/xlink" viewBox="0 0 2629.8 2440"><style>.st3{enable-background:new}.st4{fill:#aab2b6}.st5{fill:#b1b4b5}.st6{fill:#858788}.st7{fill:#fff}.st8{fill:#ecf0f1}.st9{fill:#3d98d3}.st10{fill:#99a3a8}.st11{fill:#c5cfd3}.st12{fill:#dee1e3}.st13{fill:#f7f9f9}.st14{fill:#646464}.st15{fill:#313131}.st16{fill:#3d3d3d}.st17{fill:#222323}.st18{fill:#323333}.st19{fill:#949494}.st21{fill:#ea3738}.st22{fill:#f15354}.st26{fill:#bdc3c7}.st27{fill:#2875a9}.st28{fill:#2d82bc}.st29{fill:#1c5175}.st30{fill:#828688}.st31{fill:#d1d7db}.st32{fill:#bcc1c5}.st33{fill:#dcdbdc}.st34{fill:#a0d9dd}.st35{fill:#a5c63b}.st36{fill:#bcd64d}.st37{fill:#acb2b5}</style><linearGradient id="SVGID_1_" gradientUnits="userSpaceOnUse" x1="-2654.944" y1="1905.978" x2="-948.841" y2="199.875"><stop offset="0" stop-color="#fff"/><stop offset=".433" stop-color="#f5fafd"/><stop offset="1" stop-color="#e2f0f8"/></linearGradient><path fill="url(#SVGID_1_)" d="M-2736 1824.9h2626.4v-785.8L-2736-477.2z"/><linearGradient id="SVGID_2_" gradientUnits="userSpaceOnUse" x1="-1584.742" y1="3924.754" x2="121.362" y2="2218.65"><stop offset="0" stop-color="#fff"/><stop offset=".415" stop-color="#f5f8fe"/><stop offset="1" stop-color="#e0e9fb"/></linearGradient><path fill="url(#SVGID_2_)" d="M-1665.8 3843.7H960.6v-785.8l-2626.4-1516.4z"/><path d="M1321.1 1113.1l-479.3 278.5L1843.5 1970l479.3-278.6-1001.7-578.3m-605.7 345l-479.3 278.6L1237.8 2315l479.2-278.5-1001.6-578.4" fill="#e2f0f8"/><g class="st3"><path class="st4" d="M1871.5 1366.3l-27.7 16.1-27.8-16.1 27.6-16.1z"/><path class="st5" d="M1871.5 1366.3l-.7 591.7-27.6 16 .6-591.6z"/><path class="st6" d="M1843.8 1382.4l-.6 591.6-27.9-16 .7-591.7z"/></g><g class="st3"><path class="st4" d="M2322.8 1106.3l-27.7 16.1-27.8-16.1 27.7-16.1z"/><path class="st5" d="M2322.8 1106.3l-.7 591.7-27.6 16 .6-591.6z"/><path class="st6" d="M2295.1 1122.4l-.6 591.6-27.8-16 .6-591.7z"/></g><g class="st3"><path class="st4" d="M898 806.9l-27.7 16-27.8-16 27.6-16.1z"/><path class="st5" d="M898 806.9l-.7 591.7-27.6 16 .6-591.7z"/><path class="st6" d="M870.3 822.9l-.6 591.7-27.9-16 .7-591.7z"/></g><g class="st3"><path class="st4" d="M1349.3 546.9l-27.7 16-27.8-16 27.7-16.1z"/><path class="st5" d="M1349.3 546.9l-.7 591.7-27.6 16 .6-591.7z"/><path class="st6" d="M1321.6 562.9l-.6 591.7-27.8-16 .6-591.7z"/></g><g class="st3"><path class="st7" d="M2322.8 1106.5L1843.5 1385 841.8 806.7l479.3-278.6z"/><path class="st8" d="M2322.8 1106.5l-.1 40.7-479.3 278.5.1-40.7z"/><path class="st5" d="M1843.5 1385l-.1 40.7L841.7 847.4l.1-40.7z"/></g><g class="st3"><path class="st4" d="M1265.7 1711.3l-27.6 16.1-27.8-16.1 27.6-16.1z"/><path class="st5" d="M1265.7 1711.3l-.6 591.7-27.7 16.1.7-591.7z"/><path class="st6" d="M1238.1 1727.4l-.7 591.7-27.8-16.1.7-591.7z"/></g><g class="st3"><path class="st4" d="M1717 1451.3l-27.6 16.1-27.8-16.1 27.6-16.1z"/><path class="st5" d="M1717 1451.3l-.6 591.7-27.7 16.1.7-591.7z"/><path class="st6" d="M1689.4 1467.4l-.7 591.7-27.8-16.1.7-591.7z"/></g><g class="st3"><path class="st4" d="M292.2 1151.9l-27.6 16.1-27.8-16.1 27.6-16.1z"/><path class="st5" d="M292.2 1151.9l-.6 591.7-27.7 16.1.7-591.7z"/><path class="st6" d="M264.6 1168l-.7 591.7-27.8-16.1.7-591.7z"/></g><g class="st3"><path class="st4" d="M743.5 891.9L715.9 908l-27.8-16.1 27.6-16.1z"/><path class="st5" d="M743.5 891.9l-.6 591.7-27.7 16.1.7-591.7z"/><path class="st6" d="M715.9 908l-.7 591.7-27.8-16.1.7-591.7z"/></g><path class="st9" d="M2332.6-1061.4h2629.8v895.3H2332.6z"/><g class="st3"><path class="st10" d="M3562.7-1061.4l-.1 407.1-31.7 18.4.1-425.5z"/><path class="st11" d="M3531-1061.4l-.1 425.5-31.9-18.4.1-407.1z"/></g><g class="st3"><g class="st3"><defs><path id="SVGID_3_" d="M4840.2-310.4l31.7-18.4 31.9 18.4-31.7 18.5z"/></defs><clipPath id="SVGID_4_"><use xlink:href="#SVGID_3_" overflow="visible"/></clipPath></g><path class="st10" d="M4903.8-310.4l-.1 145H4872l.1-126.5z"/><path class="st11" d="M4872.1-291.9l-.1 126.5h-31.9l.1-145z"/></g><path class="st12" d="M4962.4-157.3L3414-1061.4h1548.4z"/><path class="st7" d="M4962.4-187l-1497.2-874.4h1495.5z"/><ellipse class="st13" cx="4791.3" cy="-565.1" rx="61" ry="32.3"/><path class="st13" d="M4241.3-743.4l277.6-163.4 344.7 199-277.5 163.4z"/><g class="st3"><path class="st14" d="M4240.4-792.6l224.2-130.2 344.7 199-224.1 130.3z"/><g class="st3"><defs><path id="SVGID_5_" d="M4240.4-792.6l224.2-130.2 344.7 199-224.1 130.3z"/></defs><clipPath id="SVGID_6_"><use xlink:href="#SVGID_5_" overflow="visible"/></clipPath></g><path class="st15" d="M4809.3-723.8l-.1 24.4-224.1 130.3.1-24.4z"/><path class="st16" d="M4585.2-593.5l-.1 24.4-344.7-199v-24.5z"/></g><path class="st16" d="M4410.9-848.8l-17.7 10.3-17.9-10.3 17.8-10.3z"/><path class="st17" d="M4410.9-848.8v9.3l-17.7 10.3v-9.3z"/><path class="st18" d="M4393.2-838.5v9.3l-17.9-10.3v-9.3z"/><path class="st16" d="M4386.9-834.8l-17.8 10.3-17.8-10.3 17.7-10.3z"/><path class="st17" d="M4386.9-834.8l-.1 9.3-17.7 10.3v-9.3z"/><path class="st18" d="M4369.1-824.5v9.3l-17.9-10.3.1-9.3z"/><path class="st16" d="M4362.8-820.8l-17.8 10.3-17.8-10.3 17.7-10.3z"/><path class="st17" d="M4362.8-820.8l-.1 9.3-17.7 10.3v-9.3z"/><path class="st18" d="M4345-810.5v9.3l-17.9-10.3.1-9.3z"/><path class="st16" d="M4433.9-835.6l-17.8 10.3-17.8-10.3 17.7-10.3z"/><path class="st17" d="M4433.9-835.6l-.1 9.4-17.7 10.3v-9.4z"/><path class="st18" d="M4416.1-825.3v9.4l-17.9-10.3.1-9.4z"/><path class="st16" d="M4409.8-821.6l-17.8 10.3-17.8-10.3 17.7-10.3z"/><path class="st17" d="M4409.8-821.6l-.1 9.4-17.7 10.3v-9.4z"/><path class="st18" d="M4392-811.3v9.4l-17.9-10.3.1-9.4z"/><path class="st16" d="M4385.7-807.6l-17.8 10.3-17.8-10.3 17.7-10.3z"/><path class="st17" d="M4385.7-807.6l-.1 9.4-17.7 10.3v-9.4z"/><path class="st18" d="M4367.9-797.3v9.4l-17.9-10.3.1-9.4z"/><path class="st16" d="M4456.8-822.4l-17.8 10.3-17.8-10.3 17.7-10.3z"/><path class="st17" d="M4456.8-822.4l-.1 9.4-17.7 10.3v-9.4z"/><path class="st18" d="M4439-812.1v9.4l-17.9-10.3.1-9.4z"/><path class="st16" d="M4432.7-808.4l-17.8 10.3-17.8-10.3 17.7-10.3z"/><path class="st17" d="M4432.7-808.4v9.4l-17.8 10.3v-9.4z"/><path class="st18" d="M4414.9-798.1v9.4L4397-799l.1-9.4z"/><path class="st16" d="M4408.6-794.4l-17.8 10.3-17.8-10.3 17.7-10.3z"/><path class="st17" d="M4408.6-794.4v9.4l-17.8 10.3v-9.4z"/><path class="st18" d="M4390.8-784.1v9.4L4373-785v-9.4z"/><path class="st16" d="M4669.1-788.3l-50.1 29.1-90.1-52 50.1-29.1zm-27.9 44.5l-17.7 10.3-155.3-89.7 17.7-10.3z"/><path class="st17" d="M4641.2-743.8v9.4l-17.7 10.3v-9.4z"/><path class="st18" d="M4623.5-733.5v9.4l-155.4-89.7.1-9.4z"/><path class="st16" d="M4479.7-809.2l-17.8 10.4-17.8-10.4 17.7-10.3z"/><path class="st17" d="M4479.7-809.2v9.4l-17.8 10.3v-9.3z"/><path class="st18" d="M4461.9-798.8v9.3l-17.8-10.3v-9.4z"/><path class="st16" d="M4455.6-795.1l-17.8 10.3-17.8-10.3 17.7-10.4z"/><path class="st17" d="M4455.6-795.1v9.3l-17.8 10.3v-9.3z"/><path class="st18" d="M4437.8-784.8v9.3l-17.8-10.3v-9.3z"/><path class="st16" d="M4431.5-781.1l-17.7 10.3-17.9-10.3 17.7-10.4z"/><path class="st17" d="M4431.5-781.1v9.3l-17.8 10.3.1-9.3z"/><path class="st18" d="M4413.8-770.8l-.1 9.3-17.8-10.3v-9.3z"/><path class="st16" d="M4502.6-795.9l-17.7 10.3-17.9-10.3 17.7-10.3z"/><path class="st17" d="M4502.6-795.9v9.3l-17.8 10.4.1-9.4z"/><path class="st18" d="M4484.9-785.6l-.1 9.4-17.8-10.3v-9.4z"/><path class="st16" d="M4478.5-781.9l-17.7 10.3-17.9-10.3 17.7-10.3z"/><path class="st17" d="M4478.5-781.9v9.4l-17.8 10.3.1-9.4z"/><path class="st18" d="M4460.8-771.6l-.1 9.4-17.8-10.3v-9.4z"/><path class="st16" d="M4454.4-767.9l-17.7 10.3-17.9-10.3 17.8-10.3z"/><path class="st17" d="M4454.4-767.9v9.4l-17.8 10.3.1-9.4z"/><path class="st18" d="M4436.7-757.6l-.1 9.4-17.8-10.3v-9.4z"/><path class="st16" d="M4525.5-782.7l-17.7 10.3-17.9-10.3 17.7-10.3z"/><path class="st17" d="M4525.5-782.7v9.4l-17.8 10.3.1-9.4z"/><path class="st18" d="M4507.8-772.4l-.1 9.4-17.8-10.3v-9.4z"/><path class="st16" d="M4548.4-769.5l-17.7 10.3-17.9-10.3 17.8-10.3z"/><path class="st17" d="M4548.4-769.5v9.4l-17.8 10.3.1-9.4z"/><path class="st18" d="M4530.7-759.2l-.1 9.4-17.8-10.3v-9.4z"/><path class="st17" d="M4483.6-759.3l1.2-.6c.1-.1.2-.1.4-.2.3-.1.7-.3 1-.4.1 0 .2-.1.4-.1.2-.1.4-.1.7-.2.2 0 .3-.1.5-.1.2-.1.5-.1.7-.1.2 0 .3-.1.5-.1.5-.1 1-.1 1.4-.2h.4c.3 0 .6 0 .9-.1h3c.2 0 .4 0 .6.1.2 0 .4.1.6.1s.4.1.7.1c.2 0 .3.1.5.1.3.1.5.1.8.2.1 0 .3.1.4.1.5.1.9.3 1.4.5.1 0 .1.1.2.1.6.2 1.2.5 1.7.8v-9.4c-.5-.3-1.1-.6-1.7-.8 0 0-.1 0-.1-.1h-.1c-.4-.2-.9-.3-1.4-.5h-.1c-.1 0-.2-.1-.3-.1-.3-.1-.5-.1-.8-.2-.1 0-.1 0-.2-.1-.1 0-.2 0-.3-.1-.2 0-.4-.1-.7-.1h-.6c-.2 0-.4 0-.6-.1h-3c-.3 0-.6 0-.8.1h-.4c-.5.1-1 .1-1.4.2h-.1c-.1 0-.3.1-.4.1-.2 0-.5.1-.7.2-.2 0-.3.1-.5.1-.2.1-.4.1-.7.2h-.1c-.1 0-.1.1-.2.1-.3.1-.7.2-1 .4-.1 0-.2.1-.4.2l-1.2.6c-.1 0-.1.1-.2.1-.1.1-.2.1-.3.2-.2.1-.3.2-.5.3-.1.1-.3.2-.4.3-.1.1-.2.1-.3.2l-.2.2-.2.2c-.1.1-.2.2-.3.4l-.3.3-.1.1c-.1.1-.2.3-.3.4 0 .1-.1.1-.1.2v.1c-.1.1-.1.3-.2.4 0 .1-.1.2-.1.2v.1c0 .1-.1.2-.1.4 0 .1-.1.2-.1.3v10.3c0 1.9 1.2 3.8 3.7 5.2v-9.4c-.3-.2-.5-.3-.8-.5.1 0 .1-.1.2-.1.1-.4.2-.5.4-.6z"/><path class="st19" d="M4480-763.7v9.5-9.5c0 .1 0 .1 0 0"/><g class="st3"><defs><path id="SVGID_7_" d="M4505.1-754.1c0-.5-.1-.9-.2-1.4v-9.4c.1.5.2.9.2 1.4v9.4z"/></defs><clipPath id="SVGID_8_"><use xlink:href="#SVGID_7_" overflow="visible"/></clipPath><g clip-path="url(#SVGID_8_)"><path class="st17" d="M4505.1-763.5v9.4c0-.5-.1-.9-.2-1.4v-9.4c.2.5.2.9.2 1.4"/></g></g><path class="st16" d="M4501.4-768.7c-4.9-2.8-12.9-2.8-17.8 0s-4.9 7.5.1 10.3l-17.9-10.3 17.7-10.3 17.9 10.3z"/><path class="st18" d="M4483.7-758.4l-.1 9.4-17.8-10.3v-9.4z"/><path class="st21" d="M4483.6-762.2zm17.9 0c0 1.3-.8 2.7-2.6 3.7-2.2 1.3-5.1 1.7-7.9 1.4-1.7-.2-3.4-.7-4.7-1.4-1.7-1-2.6-2.3-2.6-3.7v6.7c0 1.3.9 2.6 2.6 3.7 1.3.8 3 1.2 4.7 1.4 2.8.3 5.8-.2 7.9-1.4 1.7-1 2.6-2.3 2.6-3.7v-6.7z"/><path class="st22" d="M4498.8-765.8c1.3.8 2.2 1.7 2.5 2.7.5 1.6-.3 3.4-2.4 4.6-2.2 1.3-5.1 1.7-7.9 1.4-1.7-.2-3.4-.7-4.7-1.4-3.5-2-3.5-5.3 0-7.3 3.4-2.1 9-2.1 12.5 0z"/><path class="st17" d="M4524.3-755.5v9.4l-17.7 10.3v-9.4z"/><path class="st16" d="M4524.3-755.5l-17.7 10.3-17.9-10.3 1.6-.9c3.9.4 8.2-.2 11.2-2s4.2-4.2 3.4-6.5l1.6-.9 17.8 10.3z"/><path class="st18" d="M4506.6-745.2v9.4l-17.9-10.3v-9.4z"/><path class="st16" d="M4477.3-754.7l-17.7 10.3-17.9-10.3 17.8-10.3z"/><path class="st17" d="M4477.3-754.7v9.4l-17.8 10.3.1-9.4z"/><path class="st18" d="M4459.6-744.4l-.1 9.4-17.8-10.3v-9.4z"/><path class="st16" d="M4500.2-741.5l-17.7 10.3-17.9-10.3 17.8-10.3z"/><path class="st17" d="M4500.2-741.5v9.4l-17.7 10.3v-9.4z"/><path class="st18" d="M4482.5-731.2v9.4l-17.9-10.3v-9.4z"/><path class="st16" d="M4571.3-756.2l-17.7 10.3-17.9-10.3 17.8-10.4z"/><path class="st17" d="M4571.3-756.2v9.3l-17.7 10.3v-9.3z"/><path class="st18" d="M4553.6-745.9v9.3l-17.9-10.3v-9.3z"/><path class="st16" d="M4547.2-742.2l-17.7 10.3-17.9-10.3 17.8-10.3z"/><path class="st17" d="M4547.2-742.2v9.3l-17.7 10.3v-9.3z"/><path class="st18" d="M4529.5-731.9v9.3l-17.9-10.3v-9.3z"/><path class="st16" d="M4523.1-728.2l-17.7 10.3-17.9-10.3 17.8-10.3z"/><path class="st17" d="M4523.1-728.2v9.3l-17.7 10.3v-9.3z"/><path class="st18" d="M4505.4-717.9v9.3l-17.9-10.3v-9.3z"/><path class="st16" d="M4594.2-743l-17.7 10.3-17.9-10.3 17.8-10.3z"/><path class="st17" d="M4594.2-743v9.4l-17.7 10.3v-9.4z"/><path class="st18" d="M4576.5-732.7v9.4l-17.9-10.3v-9.4z"/><path class="st16" d="M4570.1-729l-17.7 10.3-17.9-10.3 17.8-10.3z"/><path class="st17" d="M4570.1-729v9.4l-17.7 10.3v-9.4z"/><path class="st18" d="M4552.4-718.7v9.4l-17.9-10.3v-9.4z"/><path class="st16" d="M4546.1-715l-17.8 10.3-17.8-10.3 17.7-10.3z"/><path class="st17" d="M4546.1-715l-.1 9.4-17.7 10.3v-9.4z"/><path class="st18" d="M4528.3-704.7v9.4l-17.9-10.3.1-9.4z"/><path class="st16" d="M4617.2-729.8l-17.8 10.3-17.8-10.3 17.7-10.3z"/><path class="st17" d="M4617.2-729.8l-.1 9.4-17.7 10.3v-9.4z"/><path class="st18" d="M4599.4-719.5v9.4l-17.9-10.3.1-9.4z"/><path class="st16" d="M4593.1-715.8l-17.8 10.3-17.8-10.3 17.7-10.3z"/><path class="st17" d="M4593.1-715.8l-.1 9.4-17.7 10.3v-9.4z"/><path class="st18" d="M4575.3-705.5v9.4l-17.9-10.3.1-9.4z"/><path class="st16" d="M4569-701.8l-17.8 10.3-17.8-10.3 17.7-10.3z"/><path class="st17" d="M4569-701.8l-.1 9.4-17.7 10.3v-9.4z"/><path class="st18" d="M4551.2-691.5v9.4l-17.9-10.3.1-9.4z"/><path class="st16" d="M4640.1-716.6l-17.8 10.4-17.8-10.4 17.7-10.3z"/><path class="st17" d="M4640.1-716.6l-.1 9.4-17.7 10.3v-9.3z"/><path class="st18" d="M4622.3-706.2v9.3l-17.9-10.3.1-9.4z"/><path class="st16" d="M4616-702.6l-17.8 10.4-17.8-10.4 17.7-10.3z"/><path class="st17" d="M4616-702.6l-.1 9.4-17.7 10.3v-9.3z"/><path class="st18" d="M4598.2-692.2v9.3l-17.9-10.3.1-9.4z"/><path class="st16" d="M4591.9-688.6l-17.8 10.4-17.8-10.4 17.7-10.3z"/><path class="st17" d="M4591.9-688.6l-.1 9.4-17.7 10.3v-9.3z"/><path class="st18" d="M4574.1-678.2v9.3l-17.9-10.3.1-9.4z"/><path class="st16" d="M4663-703.3l-17.8 10.3-17.8-10.3 17.7-10.3z"/><path class="st17" d="M4663-703.3l-.1 9.3-17.7 10.4v-9.4z"/><path class="st18" d="M4645.2-693v9.4l-17.9-10.4.1-9.3z"/><path class="st16" d="M4638.9-689.3l-17.8 10.3-17.8-10.3 17.7-10.3z"/><path class="st17" d="M4638.9-689.3v9.3l-17.8 10.4v-9.4z"/><path class="st18" d="M4621.1-679v9.4l-17.8-10.4v-9.3z"/><path class="st16" d="M4614.8-675.3L4597-665l-17.8-10.3 17.7-10.3z"/><path class="st17" d="M4614.8-675.3v9.3l-17.8 10.4v-9.4z"/><path class="st18" d="M4597-665v9.4l-17.8-10.4v-9.3z"/><path class="st16" d="M4685.9-690.1l-17.8 10.3-17.8-10.3 17.7-10.3z"/><path class="st17" d="M4685.9-690.1v9.4l-17.8 10.3v-9.4z"/><path class="st18" d="M4668.1-679.8v9.4l-17.8-10.3v-9.4z"/><path class="st16" d="M4661.8-676.1l-17.8 10.3-17.8-10.3 17.7-10.3z"/><path class="st17" d="M4661.8-676.1v9.4l-17.8 10.3v-9.4z"/><path class="st18" d="M4644-665.8v9.4l-17.8-10.3v-9.4z"/><path class="st16" d="M4637.7-662.1l-17.7 10.3-17.9-10.3 17.7-10.3z"/><path class="st17" d="M4637.7-662.1v9.4l-17.8 10.3.1-9.4z"/><path class="st18" d="M4620-651.8l-.1 9.4-17.8-10.3v-9.4z"/><path class="st22" d="M4623.4-761.9l-4.4 2.7-90.1-52 4.5-2.7z"/><g class="st3"><path class="st16" d="M4219.3-755.8l.7-259.2 344.7 199-.7 259.3z"/><g class="st3"><defs><path id="SVGID_9_" d="M4219.3-755.8l.7-259.2 344.7 199-.7 259.3z"/></defs><clipPath id="SVGID_10_"><use xlink:href="#SVGID_9_" overflow="visible"/></clipPath></g><path class="st14" d="M4220-1015l21.1-12.3 344.8 199-21.2 12.3z"/><path class="st15" d="M4564.7-816l21.2-12.3-.8 259.3-21.1 12.3z"/></g><path fill="#aeaeae" d="M4129.3-399.3l31.7-18.4 31.9 18.4-31.7 18.4z"/><g class="st3"><defs><path id="SVGID_11_" d="M4129.3-399.3l31.7-18.4 31.9 18.4-31.7 18.4z"/></defs><clipPath id="SVGID_12_"><use xlink:href="#SVGID_11_" overflow="visible"/></clipPath><g clip-path="url(#SVGID_12_)"><defs><path id="SVGID_13_" d="M4161.2-380.9l-31.9-18.4 31.7-18.4 31.9 18.4-31.7 18.4"/></defs><clipPath id="SVGID_14_"><use xlink:href="#SVGID_13_" overflow="visible"/></clipPath></g><path class="st10" d="M4192.9-399.3l-.1 233.9h-31.7l.1-215.5z"/><path class="st11" d="M4161.2-380.9l-.1 215.5h-31.9l.1-233.9z"/></g><g class="st3"><path class="st26" d="M3217.8-999.4h-885.2v834h1576.8L4252.9-367v-32.5"/></g><g class="st3"><path class="st7" d="M3110.8-1061.4h-778.2v896h1521.5l398.8-234.1z"/></g><path class="st13" d="M4147.1-461l-361.8-208.9-148.5 82.9 173.6 100.2-72.4 42.1-.1 20.3 98.5 56.9 7.7 4.4 17.2-10 72.8-42.3 174.2 100.6 38.5-21.5 106.1-63.2zM3805-235.3l117.7-69.2L3639.6-468l-117.7 69.2z"/><path class="st8" d="M3894.9-311.1l-102.7 59.7-283.1-163.4 102.7-59.7z"/><path class="st26" d="M3894.9-311.1l-.1 8.2-102.6 59.7v-8.2z"/><path class="st12" d="M3792.2-251.4v8.2l-283.1-163.5v-8.1zM3595.4-445l15.4-9 15.5 9-15.4 9-15.5-9zm35.5 20.5l15.4-9-15.5-9-15.4 9 15.5 9zm19.9 11.5l15.4-9-15.5-9-15.4 9 15.5 9zm19.8-6.4l-15.4 9 15.5 9 15.4-9-15.5-9zm20 11.5l-15.4 9 15.5 9 15.4-9-15.5-9zm19.9 11.5l-15.4 9 15.5 9 15.4-9-15.5-9zm19.9 11.5l-15.4 9 15.5 9 15.4-9-15.5-9zm20 11.5l-15.4 9 15.5 9 15.4-9-15.5-9zm19.9 11.5l-15.4 9 15.5 9 15.4-9-15.5-9zm20 29.4l15.4-9-15.5-9-15.4 9 15.5 9zm20 11.6l15.4-9-15.5-9-15.4 9 15.5 9zm19.9 11.5l15.4-9-15.5-9-15.4 9 15.5 9zm4.4 2.5l15.5 9 15.4-9-15.5-9-15.4 9zm-243.2-117.8l15.4-9-15.5-9-15.4 9 15.5 9zm19.9 11.5l15.4-9-15.5-9-15.4 9 15.5 9zm20 11.6l15.4-9-15.5-9-15.4 9 15.5 9zm19.8-6.5l-15.4 9 15.5 9 15.4-9-15.5-9zm19.9 11.5l-15.4 9 15.5 9 15.4-9-15.5-9zm20 11.5l-15.4 9 15.5 9 15.4-9-15.5-9zm19.9 11.5l-15.4 9 15.5 9 15.4-9-15.5-9zm19.9 11.6l-15.4 9 15.5 9 15.4-9-15.5-9zm20 11.5l-15.4 9 15.5 9 15.4-9-15.5-9zm20 29.4l15.4-9-15.5-9-15.4 9 15.5 9zm19.9 11.5l15.4-9-15.5-9-15.4 9 15.5 9zm19.9 11.5l15.4-9-15.5-9-15.4 9 15.5 9zm20 11.5l15.4-9-15.5-9-15.4 9 15.5 9zm-258.7-126.7l15.4-9-15.5-9-15.4 9 15.5 9zm19.9 11.5l15.4-9-15.5-9-15.4 9 15.5 9zm19.9 11.5l15.4-9-15.5-9-15.4 9 15.5 9zm19.8-6.4l-15.4 9 15.5 9 15.4-9-15.5-9zm20 11.5l-15.4 9 15.5 9 15.4-9-15.5-9zm19.9 11.5l-15.4 9 15.5 9 15.4-9-15.5-9zm19.9 11.5l-15.4 9 15.5 9 15.4-9-15.5-9zm20 11.5l-15.4 9 15.5 9 15.4-9-15.5-9zm19.9 11.5l-15.4 9 15.5 9 15.4-9-15.5-9zm20 29.5l15.4-9-15.5-9-15.4 9 15.5 9zm20 11.5l15.4-9-15.5-9-15.4 9 15.5 9zm19.9 11.5l15.4-9-15.5-9-15.4 9 15.5 9zm19.9 11.5l15.4-9-15.5-9-15.4 9 15.5 9zm-79.3-23.2l15.4-9-135.1-78-15.4 9 135.1 78z"/><g class="st3"><path class="st7" d="M3593.2-450.3l15.5-9 15.5 9-15.4 9z"/><path class="st26" d="M3624.2-450.3v4.1l-15.4 8.9v-4z"/><path class="st12" d="M3608.8-441.3v4l-15.6-8.9v-4.1z"/></g><g class="st3"><path class="st7" d="M3613.2-438.8l15.4-9 15.5 9-15.4 9z"/><path class="st26" d="M3644.1-438.8v4.1l-15.4 9v-4.1z"/><path class="st12" d="M3628.7-429.8v4.1l-15.6-9 .1-4.1z"/></g><g class="st3"><path class="st7" d="M3633.1-427.3l15.4-9 15.6 9-15.5 9z"/><path class="st26" d="M3664.1-427.3l-.1 4.1-15.4 9v-4.1z"/><path class="st12" d="M3648.6-418.3v4.1l-15.5-9v-4.1z"/></g><g class="st3"><path class="st7" d="M3684-415.8l-15.4 9-15.6-9 15.5-8.9z"/><path class="st26" d="M3684-415.8v4.1l-15.5 9 .1-4.1z"/><path class="st12" d="M3668.6-406.8l-.1 4.1-15.5-9v-4.1z"/></g><g class="st3"><path class="st7" d="M3703.9-404.3l-15.4 9-15.5-9 15.4-8.9z"/><path class="st26" d="M3703.9-404.3v4.1l-15.4 9v-4.1z"/><path class="st12" d="M3688.5-395.3v4.1l-15.6-9 .1-4.1z"/></g><g class="st3"><path class="st7" d="M3723.8-392.8l-15.4 9-15.5-9 15.4-8.9z"/><path class="st26" d="M3723.8-392.8v4.1l-15.4 9v-4.1z"/><path class="st12" d="M3708.4-383.8v4.1l-15.5-9v-4.1z"/></g><g class="st3"><path class="st7" d="M3743.8-381.3l-15.5 9-15.5-9 15.4-8.9z"/><path class="st26" d="M3743.8-381.3v4.1l-15.5 9v-4.1z"/><path class="st12" d="M3728.3-372.3v4.1l-15.5-9v-4.1z"/></g><g class="st3"><path class="st7" d="M3763.7-369.8l-15.4 9-15.6-9 15.5-8.9z"/><path class="st26" d="M3763.7-369.8v4.1l-15.4 9v-4.1z"/><path class="st12" d="M3748.3-360.8v4.1l-15.6-9v-4.1z"/></g><g class="st3"><path class="st7" d="M3783.6-358.2l-15.4 8.9-15.5-8.9 15.4-9z"/><path class="st26" d="M3783.6-358.2v4l-15.4 9v-4.1z"/><path class="st12" d="M3768.2-349.3v4.1l-15.5-9v-4z"/></g><g class="st3"><path class="st7" d="M3772.6-346.7l15.4-9 15.6 9-15.5 8.9z"/><path class="st26" d="M3803.6-346.7v4l-15.5 9v-4.1z"/><path class="st12" d="M3788.1-337.8v4.1l-15.5-9v-4z"/></g><g class="st3"><path class="st7" d="M3792.5-335.2l15.5-9 15.5 9-15.4 8.9z"/><path class="st26" d="M3823.5-335.2v4l-15.4 9v-4.1z"/><path class="st12" d="M3808.1-326.3v4.1l-15.6-9v-4z"/></g><g class="st3"><path class="st7" d="M3812.5-323.7l15.4-9 15.5 9-15.4 8.9z"/><path class="st26" d="M3843.4-323.7v4.1l-15.4 8.9v-4.1z"/><path class="st12" d="M3828-314.8v4.1l-15.5-8.9v-4.1z"/></g><g class="st3"><path class="st7" d="M3847.8-321.2l15.6 9-15.5 9-15.5-9z"/><path class="st26" d="M3863.4-312.2l-.1 4.1-15.4 8.9v-4z"/><path class="st12" d="M3847.9-303.2v4l-15.5-8.9v-4.1z"/></g><g class="st3"><path class="st7" d="M3573.7-438.9l15.4-9 15.6 9-15.5 8.9z"/><path class="st26" d="M3604.7-438.9l-.1 4-15.4 9v-4.1z"/><path class="st12" d="M3589.2-430v4.1l-15.5-9v-4z"/></g><g class="st3"><path class="st7" d="M3593.6-427.4l15.5-9 15.5 9-15.4 8.9z"/><path class="st26" d="M3624.6-427.4v4l-15.5 9 .1-4.1z"/><path class="st12" d="M3609.2-418.5l-.1 4.1-15.5-9v-4z"/></g><g class="st3"><path class="st7" d="M3613.5-415.9l15.5-9 15.5 9-15.4 8.9z"/><path class="st26" d="M3644.5-415.9v4l-15.4 9v-4.1z"/><path class="st12" d="M3629.1-407v4.1l-15.6-9v-4z"/></g><g class="st3"><path class="st7" d="M3664.4-404.4l-15.4 8.9-15.5-8.9 15.4-9z"/><path class="st26" d="M3664.4-404.4v4.1l-15.4 8.9v-4.1z"/><path class="st12" d="M3649-395.5v4.1l-15.5-8.9v-4.1z"/></g><g class="st3"><path class="st7" d="M3684.4-392.9l-15.5 9-15.5-9 15.4-9z"/><path class="st26" d="M3684.4-392.9v4.1l-15.5 8.9v-4z"/><path class="st12" d="M3668.9-383.9v4l-15.5-8.9v-4.1z"/></g><g class="st3"><path class="st7" d="M3704.3-381.4l-15.4 9-15.6-9 15.5-9z"/><path class="st26" d="M3704.3-381.4v4.1l-15.4 8.9v-4z"/><path class="st12" d="M3688.9-372.4v4l-15.6-8.9v-4.1z"/></g><g class="st3"><path class="st7" d="M3724.2-369.9l-15.4 9-15.5-9 15.4-9z"/><path class="st26" d="M3724.2-369.9v4.1l-15.4 8.9v-4z"/><path class="st12" d="M3708.8-360.9v4l-15.5-8.9v-4.1z"/></g><g class="st3"><path class="st7" d="M3744.2-358.4l-15.5 9-15.5-9 15.4-9z"/><path class="st26" d="M3744.2-358.4v4.1l-15.5 9v-4.1z"/><path class="st12" d="M3728.7-349.4v4.1l-15.5-9v-4.1z"/></g><g class="st3"><path class="st7" d="M3764.1-346.9l-15.4 9-15.6-9 15.5-9z"/><path class="st26" d="M3764.1-346.9v4.1l-15.4 9v-4.1z"/><path class="st12" d="M3748.7-337.9v4.1l-15.6-9v-4.1z"/></g><g class="st3"><path class="st7" d="M3753.1-335.4l15.4-8.9 15.5 8.9-15.4 9z"/><path class="st26" d="M3784-335.4v4.1l-15.4 9v-4.1z"/><path class="st12" d="M3768.6-326.4v4.1l-15.5-9v-4.1z"/></g><g class="st3"><path class="st7" d="M3773-323.9l15.4-8.9 15.6 8.9-15.5 9z"/><path class="st26" d="M3804-323.9l-.1 4.1-15.4 9v-4.1z"/><path class="st12" d="M3788.5-314.9v4.1l-15.5-9v-4.1z"/></g><g class="st3"><path class="st7" d="M3792.9-312.4l15.5-8.9 15.5 8.9-15.4 9z"/><path class="st26" d="M3823.9-312.4v4.1l-15.5 9 .1-4.1z"/><path class="st12" d="M3808.5-303.4l-.1 4.1-15.5-9v-4.1z"/></g><g class="st3"><path class="st7" d="M3812.8-300.9l15.5-8.9 15.5 8.9-15.4 9z"/><path class="st26" d="M3843.8-300.9v4.1l-15.4 9v-4.1z"/><path class="st12" d="M3828.4-291.9v4.1l-15.6-9v-4.1z"/></g><g class="st3"><path class="st7" d="M3554.1-427.6l15.5-8.9 15.5 8.9-15.4 9z"/><path class="st26" d="M3585.1-427.6v4.1l-15.4 9v-4.1z"/><path class="st12" d="M3569.7-418.6v4.1l-15.6-9v-4.1z"/></g><g class="st3"><path class="st7" d="M3574.1-416.1l15.4-8.9 15.5 8.9-15.4 9z"/><path class="st26" d="M3605-416.1v4.1l-15.4 9v-4.1z"/><path class="st12" d="M3589.6-407.1v4.1l-15.5-9v-4.1z"/></g><g class="st3"><path class="st7" d="M3594-404.6l15.4-8.9 15.6 8.9-15.5 9z"/><path class="st26" d="M3625-404.6v4.1l-15.5 9v-4.1z"/><path class="st12" d="M3609.5-395.6v4.1l-15.5-9v-4.1z"/></g><g class="st3"><path class="st7" d="M3644.9-393.1l-15.4 9-15.6-9 15.5-8.9z"/><path class="st26" d="M3644.9-393.1v4.1l-15.4 9v-4.1z"/><path class="st12" d="M3629.5-384.1v4.1l-15.6-9v-4.1z"/></g><g class="st3"><path class="st7" d="M3664.8-381.5l-15.4 8.9-15.5-8.9 15.4-9z"/><path class="st26" d="M3664.8-381.5v4l-15.4 9v-4.1z"/><path class="st12" d="M3649.4-372.6v4.1l-15.6-9 .1-4z"/></g><g class="st3"><path class="st7" d="M3684.8-370l-15.5 8.9-15.5-8.9 15.4-9z"/><path class="st26" d="M3684.8-370l-.1 4-15.4 9v-4.1z"/><path class="st12" d="M3669.3-361.1v4.1l-15.5-9v-4z"/></g><g class="st3"><path class="st7" d="M3704.7-358.5l-15.4 8.9-15.6-8.9 15.5-9z"/><path class="st26" d="M3704.7-358.5v4l-15.5 9 .1-4.1z"/><path class="st12" d="M3689.3-349.6l-.1 4.1-15.5-9v-4z"/></g><g class="st3"><path class="st7" d="M3724.6-347l-15.4 8.9-15.6-8.9 15.5-9z"/><path class="st26" d="M3724.6-347v4l-15.4 9v-4.1z"/><path class="st12" d="M3709.2-338.1v4.1l-15.6-9v-4z"/></g><g class="st3"><path class="st7" d="M3744.5-335.5l-15.4 8.9-15.5-8.9 15.4-9z"/><path class="st26" d="M3744.5-335.5v4.1l-15.4 8.9v-4.1z"/><path class="st12" d="M3729.1-326.6v4.1l-15.5-8.9v-4.1z"/></g><g class="st3"><path class="st7" d="M3733.5-324l15.4-9 15.6 9-15.5 9z"/><path class="st26" d="M3764.5-324v4.1L3749-311v-4z"/><path class="st12" d="M3749-315v4l-15.5-8.9v-4.1z"/></g><g class="st3"><path class="st7" d="M3753.4-312.5l15.5-9 15.5 9-15.4 9z"/><path class="st26" d="M3784.4-312.5v4.1l-15.4 8.9v-4z"/><path class="st12" d="M3769-303.5v4l-15.6-8.9v-4.1z"/></g><g class="st3"><path class="st7" d="M3773.4-301l15.4-9 15.5 9-15.4 9z"/><path class="st26" d="M3804.3-301v4.1l-15.4 8.9v-4z"/><path class="st12" d="M3788.9-292v4l-15.5-8.9v-4.1z"/></g><g class="st3"><path class="st7" d="M3793.3-289.5l15.4-9 15.6 9-15.5 9z"/><path class="st26" d="M3824.3-289.5v4.1l-15.5 8.9v-4z"/><path class="st12" d="M3808.8-280.5v4l-15.5-8.9v-4.1z"/></g><g class="st3"><path class="st7" d="M3594.4-381.7l15.4-9 135.1 78-15.4 9z"/><path class="st26" d="M3744.9-312.7v4.1l-15.4 9v-4.1z"/><path class="st12" d="M3729.5-303.7v4.1l-135.1-78v-4.1z"/></g><path class="st27" d="M3684.5-575.6l.2 54.9-32.5 18.7-.1-54.9z"/><path class="st27" d="M3716.5-557l.1 37.3-32.5 18.8-.1-37.3z"/><g class="st3"><path class="st27" d="M3731.3-548.5l.1 54.9-32.4 18.7-.2-54.9z"/><path class="st28" d="M3731.3-548.5l-16.2-9.4-.1.1-30.6-17.8h.1l-16.1-9.4-32.5 18.7 16 9.3h-.1l32.2 18.8.2-.1 14.6 8.5z"/></g><g class="st3"><path class="st27" d="M3763.3-548.6l.1 37.3-32.5 18.8-.1-37.3z"/><path class="st28" d="M3730.8-529.8l-32.2-18.8 32.4-18.7 32.3 18.7z"/></g><g class="st3"><path class="st27" d="M3769.8-526.8v18.8l-32.7 19-.1-18.9z"/><path class="st29" d="M3730.9-492.6l6.2 3.6-.1-18.9-6.1-3.5-.1-18.4-32.2-18.8v18.7l-15.9-9.2v.1l-30.6-17.8v-.1l-16.2-9.4.2 54.9 16.1 9.4v-17.5l30.6 17.8v17.4l16.2 9.4-.1-36.3 32 18.7z"/><path class="st28" d="M3737-507.9l-6.4-3.7 32.7-18.9 6.5 3.7z"/></g><g class="st3"><path class="st30" d="M3748-560l-6.5-3.8v-8.8l6.4 3.8z"/><path class="st31" d="M3747.9-568.8l-6.4-3.8 6.5-3.7 6.4 3.7zM3722-545l-6.5-3.8 26-15 6.5 3.8z"/><path class="st30" d="M3715.5-533.8l-6.4-3.8v-7.4l6.4 3.7z"/><path class="st31" d="M3715.5-550.1l-6.5-3.8 6.5-3.7 6.5 3.7z"/><path class="st30" d="M3715.5-541.3l-6.4-3.7-.1-8.9 6.5 3.8z"/><path class="st32" d="M3754.4-572.6v8.8l.1 7.4-39 22.6v-16.3l6.5-3.8v8.9l26-15-.1-8.8z"/></g><path class="st28" d="M3713.6-531.9l-3.2-1.9c-.1 0-.2-.1-.3-.1h-2.4c-.1 0-.3.1-.4.1h-.1s-.1 0-.1.1c0 0-.1 0-.1.1-.2.1-.3.2-.5.3s-.3.2-.5.3c-.1 0-.1.1-.2.1l-.3.3c-.1 0-.1.1-.2.2l-.3.3-.2.2-.1.1-.1.1c-.1.1-.2.3-.4.4l-.1.1-.1.1c-.1.1-.1.2-.2.3 0 .1-.1.1-.1.2l-.1.1c-.1.1-.1.1-.1.2l-.1.1c-.1.1-.1.2-.2.2 0 .1-.1.1-.1.2v.1c-.1.2-.2.3-.3.5 0 0 0 .1-.1.1-.1.1-.1.2-.2.3 0 .1-.1.1-.1.2s-.1.1-.1.2c0 0 0 .1-.1.1-.1.1-.1.3-.2.4v.1c-.1.2-.1.3-.2.5v.1c0 .1 0 .1-.1.2 0 .1-.1.2-.1.2 0 .1 0 .1-.1.2 0 .1 0 .1-.1.2v.1c0 .1 0 .2-.1.2 0 .1 0 .2-.1.3v.3c0 .1-.1.3-.1.4v1.2l3.2 1.9 10.8-6.2c.1-2-.5-3.2-1.5-3.7zm-3.2.1h.1c0-.1-.1-.1-.1 0zm.7-.3zm.4-.1s.1 0 0 0c.1 0 0 0 0 0zm.5-.1zm.4 0h.2-.2zm.5.1h.1-.1zm.4.1s.1 0 .1.1l-.1-.1z"/><path class="st27" d="M3709.8-531.5c3-1.7 5.4-.3 5.4 3.1l-10.8 6.2c0-3.4 2.4-7.6 5.4-9.3z"/><path class="st8" d="M3933.7-454.7l-105.5 61.3-106.2-61.3 105.5-61.3z"/><path class="st26" d="M3933.7-454.7l-.1 20.3-105.5 61.3.1-20.3z"/><path class="st12" d="M3828.2-393.4l-.1 20.3-106.2-61.3.1-20.3z"/><path class="st26" d="M3933.7-454.7l-27.5 15.7-106.2-61.3 27.5-15.7z"/><path class="st12" d="M3916.4-566.6l-.3 122-106.2-61.3.3-122z"/><path class="st26" d="M3916.4-566.6l17.6-10.2-.3 122-17.6 10.2z"/><path class="st33" d="M3810.2-627.9l17.6-10.2 106.2 61.3-17.6 10.2z"/><path class="st26" d="M3916.4-566.6l-.3 75.2-106.2-61.4.3-75.1z"/><path class="st10" d="M3916.4-613.5l17.6-10.2-.3 122-17.6 10.3z"/><path class="st12" d="M4078.3-731.7l-.9 322.5-471.6-272.2.9-322.6z"/><path class="st26" d="M4078.3-731.7l26.3-15.4-.9 322.6-26.3 15.3z"/><path class="st8" d="M3606.7-1004l26.4-15.3 471.5 272.2-26.3 15.4z"/><path class="st34" d="M3630.9-695.8l.7-264.9 421.6 243.4-.7 264.9z"/><path class="st7" d="M3886.5-755.9v154.5l-114.2-65.7v-154.5z"/><path class="st8" d="M3870.1-698.9l-.1 16.6-83.7-48.3.1-16.6zm0 23l-.1 16.6-83.7-48.3.1-16.6zm-34.2 17v5.5l-26.7-15.4v-5.6z"/><path class="st9" d="M3870.1-645.8l-.1 16.6-27.9-16.1.1-16.6zm16.4-123.1v39.6L3772.3-795v-39.6z"/><path class="st8" d="M3833.6-778.6c11.2 6.5 20.2 22.1 20.2 35s-9.1 18.1-20.3 11.6c-11.2-6.5-20.3-22.2-20.2-35 0-12.9 9.1-18 20.3-11.6z"/><path class="st35" d="M4831.3-563.2V-608l-.1-27v-.6l-.1-38.7v-15.2c0-7.1-4.5-14.1-13.6-19.6-.6-.4-1.2-.7-1.8-1.1l-.6-.3c-.4-.2-.8-.4-1.3-.7-.3-.1-.5-.2-.8-.4-.4-.2-.8-.4-1.2-.5-.3-.1-.6-.2-.9-.4-.4-.2-.8-.3-1.2-.5-.1 0-.1-.1-.2-.1-.1-.1-.3-.1-.4-.2-.7-.3-1.4-.5-2.1-.7-.2-.1-.5-.2-.7-.2-.9-.3-1.8-.6-2.7-.8-.1 0-.3-.1-.4-.1-.6-.2-1.3-.3-1.9-.5-.3-.1-.6-.1-.8-.2-.5-.1-1.1-.2-1.6-.4-.1 0-.3-.1-.4-.1-.2 0-.4-.1-.6-.1-.4-.1-.9-.2-1.3-.2-.4-.1-.7-.1-1.1-.2s-.9-.1-1.3-.2c-.2 0-.4-.1-.6-.1-.2 0-.4 0-.5-.1-.4-.1-.8-.1-1.2-.1s-.8-.1-1.1-.1c-.4 0-.8-.1-1.2-.1-.2 0-.4 0-.6-.1h-.5c-.4 0-.8-.1-1.2-.1s-.8 0-1.1-.1h-7.1c-.6 0-1.2.1-1.8.1h-.8c-.8.1-1.7.1-2.5.2h-.1c-.9.1-1.8.2-2.6.3-.3 0-.6.1-.8.1-.7.1-1.4.2-2 .3-.2 0-.3.1-.5.1-.1 0-.2 0-.3.1-.4.1-.7.1-1.1.2s-.8.2-1.1.2c-.4.1-.7.2-1.1.2-.4.1-.8.2-1.1.3-.4.1-.7.2-1.1.3-.4.1-.7.2-1.1.3s-.7.2-1 .3c-.2.1-.5.1-.7.2-.1 0-.2.1-.3.1-.8.3-1.6.5-2.4.8h-.1c-.8.3-1.6.6-2.4 1-.2.1-.5.2-.7.3-.6.3-1.2.5-1.8.8-.2.1-.5.2-.7.3-.8.4-1.5.8-2.3 1.2-.7.4-1.4.8-2.1 1.3-.1 0-.1.1-.2.1-.2.1-.4.3-.7.4-.2.2-.5.3-.7.5-.3.2-.6.4-.9.7-.2.2-.4.3-.6.5-.3.2-.6.5-.9.7-.2.1-.3.3-.5.4-.4.3-.7.6-1 .9-.1.1-.2.2-.3.2l-.1.1c-.5.4-.9.9-1.3 1.4-.1.2-.3.3-.4.5-.3.3-.6.7-.9 1.1-.1.1-.2.2-.2.3-.1.1-.1.2-.2.3-.2.3-.4.5-.6.8-.1.2-.3.4-.4.6-.2.3-.3.5-.5.8-.1.1-.2.3-.3.4 0 .1-.1.1-.1.2-.1.2-.2.5-.4.7-.1.2-.2.4-.3.7-.1.2-.2.5-.3.7s-.1.3-.2.5v.1c-.1.2-.1.5-.2.7-.1.2-.1.5-.2.7-.1.2-.1.5-.2.7 0 .2-.1.4-.1.5v.2c0 .2-.1.5-.1.7 0 .2-.1.5-.1.7v1.5l.4 124.7c0 7.1 4.5 14.1 13.6 19.6.6.4 1.2.7 1.8 1.1l.6.3c.4.2.8.4 1.3.7.3.1.5.2.8.4.4.2.8.4 1.2.5.3.1.6.2.9.4.4.2.8.3 1.2.5.1 0 .1.1.2.1.1.1.3.1.4.2.7.3 1.4.5 2.1.7.2.1.5.2.7.2.9.3 1.8.6 2.7.8.1 0 .3.1.4.1.6.2 1.3.3 1.9.5.3.1.6.1.8.2.5.1 1.1.2 1.6.4.1 0 .3.1.4.1.2 0 .4.1.6.1.4.1.9.2 1.3.2.4.1.7.1 1.1.2.4.1.9.1 1.3.2.2 0 .4.1.6.1s.4 0 .5.1c.4.1.8.1 1.2.1s.8.1 1.1.1c.4 0 .8.1 1.2.1.2 0 .4 0 .6.1h.5c.4 0 .8.1 1.2.1s.8 0 1.1.1h7.1c.6 0 1.2-.1 1.8-.1h.8c.8-.1 1.7-.1 2.5-.2h.1c.9-.1 1.7-.2 2.6-.3.3 0 .6-.1.8-.1.7-.1 1.4-.2 2-.3.2 0 .3-.1.5-.1.1 0 .2 0 .3-.1.4-.1.7-.1 1.1-.2.4-.1.8-.2 1.1-.2.4-.1.7-.2 1.1-.2.4-.1.7-.2 1.1-.3.4-.1.7-.2 1.1-.3.4-.1.7-.2 1.1-.3.4-.1.7-.2 1.1-.3.2-.1.5-.1.7-.2.1 0 .2-.1.3-.1.8-.3 1.6-.5 2.4-.8h.1c.8-.3 1.6-.6 2.4-1 .2-.1.5-.2.7-.3.6-.3 1.2-.5 1.8-.8.2-.1.5-.2.7-.3.8-.4 1.5-.8 2.3-1.2.7-.4 1.4-.8 2.1-1.3.1 0 .1-.1.2-.1.2-.1.4-.3.7-.5.2-.2.5-.3.7-.5.3-.2.6-.4.9-.7.2-.2.4-.3.6-.5.3-.2.6-.5.9-.7.2-.1.3-.3.5-.4.4-.3.7-.6 1-.9.1-.1.2-.2.3-.2l.1-.1c.5-.4.9-.9 1.3-1.4.1-.2.3-.3.4-.5.3-.3.6-.7.9-1.1.1-.1.2-.2.2-.3.1-.1.1-.2.2-.3.2-.3.4-.5.6-.8.1-.2.3-.4.4-.6.2-.3.3-.5.5-.8.1-.1.2-.3.3-.4 0-.1.1-.1.1-.2.1-.2.2-.5.4-.7.1-.2.2-.4.3-.7.1-.2.2-.5.3-.7s.1-.3.2-.5v-.1c.1-.2.1-.4.2-.7.1-.2.1-.5.2-.7.1-.2.1-.5.2-.7 0-.2.1-.4.1-.5v-.2c0-.2.1-.5.1-.7-.3-.1-.3-.3-.2-.5z"/><path class="st36" d="M4830.9-687.9c.1-.6.1-1.2.1-1.8v-.1c0-.5 0-1-.1-1.5v-.2c0-.1 0-.2-.1-.3-.1-.4-.1-.8-.2-1.2 0-.1 0-.2-.1-.3 0-.1 0-.1-.1-.2 0-.1 0-.2-.1-.2l-.3-.9c0-.1-.1-.2-.1-.3 0-.1 0-.1-.1-.2-.1-.3-.2-.6-.4-.9-.1-.3-.2-.6-.4-.9 0-.1-.1-.1-.1-.2-.1-.1-.1-.2-.2-.3-.1-.3-.3-.5-.4-.8-.1-.1-.1-.2-.2-.3 0-.1-.1-.1-.1-.2-.2-.3-.3-.6-.5-.8-1.7-2.5-3.4-5.1-5-7.6-1.7-2.5-3.4-5.1-5-7.6-1.8-2.7-4.5-5.2-8.1-7.4-.6-.4-1.2-.7-1.9-1-.2-.1-.3-.2-.5-.3l-1.8-.9c-.1 0-.1-.1-.2-.1-.7-.3-1.3-.6-2-.8-.2-.1-.4-.1-.5-.2-.6-.2-1.2-.4-1.9-.7-.1 0-.2-.1-.3-.1-.7-.2-1.4-.4-2.2-.6-.2-.1-.4-.1-.6-.1-.6-.2-1.3-.3-1.9-.5-.1 0-.3-.1-.4-.1-.8-.2-1.5-.3-2.3-.4-.2 0-.4-.1-.6-.1-.6-.1-1.3-.2-1.9-.3-.2 0-.3 0-.5-.1-.8-.1-1.6-.2-2.3-.3h-.5c-.7-.1-1.3-.1-2-.1h-.5c-.8 0-1.6-.1-2.4-.1h-3.1c-.8 0-1.6.1-2.4.1h-.4c-.7.1-1.4.1-2 .2-.2 0-.4 0-.6.1-.8.1-1.6.2-2.3.3-.1 0-.2 0-.3.1-.7.1-1.4.2-2 .4-.1 0-.2 0-.3.1-4.9 1-9.5 2.7-13.5 4.9-4.2 2.4-7.3 5.1-9.3 8.1-3.3 5.1-6.7 10.2-10 15.2-.3.4-.5.8-.7 1.2-.1.1-.1.2-.2.3-.2.3-.3.6-.5.9 0 .1-.1.2-.1.3-.2.4-.4.8-.5 1.2 0 .1-.1.2-.1.2-.1.3-.2.7-.3 1 0 .1-.1.2-.1.4-.1.3-.2.7-.3 1v.2c-.1.4-.2.8-.2 1.2v.3c0 .3-.1.6-.1.9v1.6c0 .4 0 .7.1 1.1v.4c0 .3.1.6.2 1v.3l.3 1.2c0 .1.1.2.1.3.1.3.2.6.3 1 0 .1.1.2.1.3.1.4.3.7.5 1.1v.1l.6 1.2c.1.1.1.2.2.3.2.3.3.6.5.9.1.1.1.2.2.3.2.4.5.8.8 1.1.1.1.2.2.3.4.1.2.3.3.4.5.1.1.2.3.3.4.1.2.3.3.4.5l.4.4.5.5.4.4.5.5.1.1c.1 0 .1.1.2.1.4.3.8.7 1.1 1 .1.1.2.2.3.2.5.4.9.7 1.4 1.1l.1.1c.1.1.2.1.3.2.3.2.6.5 1 .7.2.1.3.2.5.3.4.2.7.5 1.1.7.1.1.2.1.3.2.1 0 .1.1.2.1.8.5 1.6.9 2.5 1.4.1.1.2.1.3.2.1 0 .2.1.3.1.8.4 1.7.8 2.5 1.2.1 0 .1.1.2.1.8.3 1.5.6 2.3.9.1 0 .2.1.3.1s.3.1.4.1c.7.2 1.3.5 2 .7.1 0 .3.1.4.1h.1c.8.3 1.7.5 2.5.8h.1c.2 0 .3.1.5.1.6.2 1.3.3 1.9.5.1 0 .3.1.4.1.2 0 .3.1.5.1.6.1 1.2.3 1.7.4.2 0 .4.1.5.1s.2 0 .3.1l1.8.3c.2 0 .4.1.6.1h.1c.8.1 1.5.2 2.3.3h.1l2.4.3h.1c.6.1 1.2.1 1.8.1h.4c.7 0 1.4.1 2.1.1h5.6c.5 0 .9 0 1.4-.1h.4c.6 0 1.2-.1 1.8-.1h.9c.3 0 .6 0 .9-.1.2 0 .4 0 .6-.1.3 0 .5-.1.8-.1.2 0 .4 0 .6-.1.2 0 .5-.1.7-.1.4 0 .7-.1 1.1-.1.2 0 .3 0 .5-.1.2 0 .3-.1.5-.1l1.8-.3c.2 0 .4-.1.5-.1s.3-.1.4-.1c.4-.1.8-.1 1.1-.2.4-.1.7-.2 1.1-.2.4-.1.7-.2 1.1-.3.4-.1.7-.2 1.1-.3.4-.1.7-.2 1.1-.3.4-.1.7-.2 1.1-.3.4-.1.7-.2 1.1-.3.2-.1.5-.1.7-.2.1 0 .1-.1.2-.1 1.1-.3 2.1-.7 3.1-1.1.1 0 .2-.1.3-.1s.2-.1.4-.2c.8-.3 1.7-.7 2.5-1 .1 0 .1-.1.2-.1h.1c1-.4 1.9-.9 2.8-1.4.1-.1.2-.1.3-.2.3-.1.5-.3.7-.4.5-.3.9-.5 1.4-.8.1-.1.3-.2.4-.3l.9-.6s.1 0 .1-.1c.1 0 .1-.1.2-.1.5-.3 1-.7 1.4-1 .1-.1.2-.2.4-.3.5-.4 1-.8 1.5-1.1 0 0 .1 0 .1-.1l.2-.2c.4-.3.7-.6 1-.9l.3-.3 1.2-1.2.1-.1c.3-.3.6-.7.9-1l.3-.3c.2-.2.4-.5.6-.7 0-.1.1-.1.2-.2l.2-.2c.1-.2.3-.4.4-.6.1-.1.2-.3.3-.4.1-.2.3-.4.4-.6.1-.1.1-.2.2-.3.4-.7.7-1.3 1-2 .1-.1.1-.2.1-.4v-.1c.2-.4.3-.8.4-1.1v-.1c0-.1.1-.2.1-.3.2-.6.4-1.3.5-1.9.1-.5.2-.9.2-1.4v-.1c.4.8.4.6.4.5zm-13.2-11.1c-.3.4-.6.9-.9 1.3-.1.1-.1.2-.2.3-.4.4-.7.9-1.1 1.3-.4.4-.8.8-1.3 1.2-.1.1-.3.2-.4.3-.4.3-.7.6-1.1.9-.1.1-.3.2-.4.3-.5.4-1.1.8-1.7 1.2l-.1.1c-.6.4-1.3.8-1.9 1.2-.3.2-.6.3-.8.4-.7.4-1.5.7-2.2 1.1-.1 0-.1.1-.2.1-.6.3-1.3.6-1.9.8-.2.1-.3.1-.5.2-.8.3-1.6.6-2.4.8-.2.1-.5.2-.7.2-.3.1-.6.2-.8.3-.3.1-.6.2-.8.2-.3.1-.6.2-.9.2-.3.1-.6.1-.9.2-.3.1-.6.1-.9.2-.3.1-.6.1-.9.2-.3.1-.6.1-.9.2-.2 0-.5.1-.7.1-.5.1-1 .2-1.4.2-.3 0-.5.1-.8.1-.3 0-.6.1-.9.1-.3 0-.6.1-1 .1-.2 0-.4 0-.6.1-.4 0-.8.1-1.2.1h-.5c-.5 0-1.1.1-1.6.1h-5.6c-.6 0-1.2-.1-1.7-.1h-.4c-.5 0-.9-.1-1.4-.1-.6-.1-1.2-.1-1.9-.2h-.1l-1.8-.3c-.2 0-.4-.1-.5-.1-.5-.1-1-.2-1.4-.2-.2 0-.4-.1-.7-.1-.5-.1-.9-.2-1.4-.3-.2-.1-.5-.1-.7-.2-.5-.1-1-.2-1.5-.4-.2 0-.3-.1-.5-.1-.7-.2-1.3-.4-2-.6-.1 0-.3-.1-.4-.1-.5-.2-1.1-.4-1.6-.6-.2-.1-.4-.1-.6-.2-.6-.2-1.2-.5-1.8-.7-.1 0-.1-.1-.2-.1-.7-.3-1.3-.6-2-.9-.2-.1-.3-.2-.5-.2-.7-.3-1.3-.7-2-1.1-.6-.4-1.2-.7-1.7-1.1-.1-.1-.2-.2-.4-.3l-1.2-.9c-.1-.1-.2-.2-.4-.3-.5-.4-.9-.8-1.4-1.2l-.8-.8-.6-.6c-.3-.3-.5-.6-.7-.9-.1-.2-.3-.4-.5-.6l-.1-.1c-.3-.4-.5-.8-.8-1.2-.1-.1-.1-.2-.2-.4-.2-.4-.5-.8-.7-1.2v-.1c-.2-.4-.4-.9-.5-1.3 0-.1-.1-.2-.1-.4-.1-.4-.2-.8-.3-1.1 0-.1 0-.2-.1-.2-.1-.4-.2-.9-.2-1.3v-1.5c1.3-1 2.8-1.9 4.4-2.8 5.2-2.9 11.3-5 17.8-6.3.9-.2 1.7-.3 2.6-.5.1 0 .3-.1.4-.1 1-.2 2-.3 3-.4.3 0 .5-.1.8-.1.9-.1 1.7-.2 2.6-.3h.5c1-.1 2-.1 3-.2h3.9c1 0 2 0 3 .1h.7c.8 0 1.7.1 2.5.2.2 0 .5 0 .7.1l3 .3c.2 0 .4.1.6.1.8.1 1.7.2 2.5.4.2 0 .5.1.7.1 1 .2 1.9.4 2.9.6.2 0 .3.1.5.1l2.4.6c.2.1.5.1.7.2.9.3 1.9.5 2.8.8.1 0 .2.1.4.1.8.3 1.6.5 2.4.8.2.1.5.2.7.3.9.3 1.7.7 2.6 1.1.1 0 .1.1.2.1.8.4 1.6.7 2.3 1.1l.6.3c.8.4 1.6.9 2.4 1.3 1 .6 1.9 1.2 2.8 1.9v1.4c0 .2 0 .3-.1.5 0 .3-.1.5-.1.8 0 .2-.1.3-.1.5-.1.4-.2.8-.3 1.1-.1.2-.1.4-.2.5-.1.3-.2.6-.3.8-.3.8-.7 1.6-1.2 2.4l-.1.1zm10.6 18.8z"/><path class="st37" d="M4741.7-705.4v.2c0 .2 0 .3.1.5 0 .2.1.4.1.6 0 .2.1.3.1.5s.1.4.1.6.1.3.1.5c.1.2.1.4.2.6.1.2.1.3.2.5s.2.4.2.6c.1.2.1.3.2.5l.3.6c.1.2.2.3.3.5l.3.6c.1.2.2.3.3.5s.3.4.4.6c.1.2.2.3.4.5.1.2.3.4.4.5.1.2.3.3.4.5.2.2.3.4.5.5.1.2.3.3.4.5.2.2.4.4.6.5.2.1.3.3.5.4.2.2.4.4.6.5s.3.3.5.4c.2.2.5.4.7.6.2.1.3.2.5.4.3.2.6.4.8.6.1.1.3.2.4.3.4.3.9.6 1.4.9l1.5.9c.2.1.3.2.5.3.3.2.7.4 1.1.5l.6.3c.3.2.7.3 1 .5.2.1.5.2.7.3.3.1.6.3 1 .4.1 0 .1 0 .2.1.1 0 .2.1.3.1.6.2 1.1.4 1.7.6.2.1.4.1.6.2.7.2 1.5.5 2.2.7.1 0 .2.1.3.1.5.1 1.1.3 1.6.4.2.1.5.1.7.2.4.1.9.2 1.3.3.1 0 .2 0 .3.1.2 0 .4.1.5.1.3.1.7.1 1 .2.3.1.6.1.9.1.4.1.7.1 1.1.2.2 0 .3 0 .5.1.1 0 .3 0 .5.1.3 0 .7.1 1 .1.3 0 .6.1.9.1s.7.1 1 .1h.9c.3 0 .7 0 1 .1h6.8c.5 0 1 0 1.4-.1h.6c.7 0 1.4-.1 2.1-.2h.1c.7-.1 1.4-.2 2.2-.3.2 0 .5-.1.7-.1.6-.1 1.1-.2 1.7-.3.1 0 .3 0 .4-.1.1 0 .2 0 .3-.1.3-.1.6-.1.9-.2.3-.1.6-.1.9-.2.3-.1.6-.1.9-.2.3-.1.6-.1.9-.2.3-.1.6-.2.9-.2.3-.1.6-.2.9-.2l.9-.3c.2-.1.4-.1.6-.2.1 0 .2-.1.2-.1.7-.2 1.3-.4 2-.7h.1c.7-.2 1.3-.5 2-.8.2-.1.4-.2.6-.2.5-.2 1-.4 1.4-.7l.6-.3c.6-.3 1.3-.6 1.9-1l1.5-.9c.1-.1.2-.1.3-.2.1 0 .1-.1.2-.1.2-.1.3-.2.5-.3.2-.1.3-.2.5-.3.1 0 .1-.1.2-.1.2-.2.4-.3.6-.5.2-.1.3-.2.5-.3l.1-.1c.2-.2.4-.3.6-.5.2-.1.3-.3.5-.4l.1-.1c.2-.2.4-.3.5-.5.2-.1.3-.3.5-.4l.1-.1s0-.1.1-.1l.3-.3c.2-.2.4-.4.5-.6.1-.1.2-.2.2-.3l.3-.3.4-.4c.1-.2.3-.3.4-.5.1-.1.1-.2.2-.2 0 0 0-.1.1-.1.1-.1.1-.2.2-.2.1-.2.2-.3.3-.5v-.1c.1-.1.2-.2.2-.3s.1-.1.1-.2c.1-.2.2-.3.3-.5.1-.1.2-.3.3-.4 0 0 0-.1.1-.1.1-.2.2-.3.3-.5.1-.2.2-.3.2-.5 0-.1 0-.1.1-.2.1-.2.1-.3.2-.5s.1-.3.2-.5v-.2c.1-.2.1-.3.1-.5s.1-.3.1-.5c0-.1 0-.1.1-.2 0-.2.1-.3.1-.5s.1-.3.1-.5v-.2c0-.1 0-.3.1-.4 0-.2 0-.3.1-.5v-4.7c0-5.8-3.7-11.6-11.2-16.1l-1.5-.9c-.2-.1-.4-.2-.5-.3-.3-.2-.7-.4-1-.5-.2-.1-.4-.2-.7-.3-.3-.2-.6-.3-1-.4-.2-.1-.5-.2-.7-.3-.3-.1-.6-.3-1-.4-.1 0-.1 0-.2-.1-.1 0-.2-.1-.3-.1-.6-.2-1.1-.4-1.7-.6-.2-.1-.4-.1-.6-.2-.7-.2-1.5-.5-2.2-.7-.1 0-.2-.1-.3-.1-.5-.1-1.1-.3-1.6-.4-.2-.1-.5-.1-.7-.2-.4-.1-.9-.2-1.3-.3-.1 0-.2 0-.3-.1-.2 0-.4-.1-.5-.1-.4-.1-.7-.1-1.1-.2-.3-.1-.6-.1-.9-.1-.4-.1-.7-.1-1.1-.2-.2 0-.3 0-.5-.1-.1 0-.3 0-.5-.1-.3 0-.7-.1-1-.1-.3 0-.6-.1-.9-.1s-.7-.1-1-.1h-.9c-.3 0-.7 0-1-.1h-6.8c-.5 0-1 0-1.4.1h-.6c-.7 0-1.4.1-2.1.2h-.1c-.7.1-1.4.2-2.2.3-.2 0-.5.1-.7.1-.6.1-1.1.2-1.7.3-.1 0-.3 0-.4.1-.1 0-.2 0-.3.1-.3.1-.6.1-.9.2-.3.1-.6.1-.9.2-.3.1-.6.1-.9.2-.3.1-.6.1-.9.2-.3.1-.6.2-.9.2-.3.1-.6.2-.9.2l-.9.3c-.2.1-.4.1-.6.2-.1 0-.2.1-.2.1-.7.2-1.3.4-2 .7h-.1c-.7.2-1.3.5-2 .8-.2.1-.4.2-.6.2-.5.2-1 .4-1.4.7l-.6.3c-.6.3-1.3.6-1.9 1-.6.3-1.2.7-1.7 1-.1 0-.1.1-.2.1-.2.1-.4.2-.6.4-.2.1-.4.3-.6.4-.3.2-.5.4-.8.5-.2.1-.3.2-.5.4-.3.2-.5.4-.8.6-.1.1-.3.2-.4.3-.3.3-.6.5-.9.8l-.2.2-.1.1-1.1 1.1c-.1.1-.2.3-.3.4-.2.3-.5.6-.7.9-.1.1-.1.2-.2.2l-.2.2c-.2.2-.3.4-.5.7-.1.2-.2.3-.3.5s-.3.5-.4.7c-.1.1-.1.2-.2.3 0 0 0 .1-.1.1l-.3.6c-.1.2-.2.4-.3.5-.1.2-.2.4-.2.6-.1.1-.1.3-.2.4v.1c-.1.2-.1.4-.2.6s-.1.4-.2.6c0 .2-.1.4-.1.6s-.1.3-.1.4v.1c0 .2-.1.4-.1.6 0 .2-.1.4-.1.6v3.5l.5 2.2zm.1-3.4v-.4.4zm.2-1.1c0-.1 0-.2.1-.3v-.1c0 .1 0 .3-.1.4zm.3-1.1c0-.1.1-.2.1-.3v-.1c0 .1 0 .3-.1.4zm.5-1.2c0-.1.1-.2.1-.3 0 .1-.1.2-.1.3zm.5-1.2c0-.1.1-.1.1-.2 0 0 0 .1-.1.2zm9-9.1c-.1 0-.1.1-.2.1 0 0 .1-.1.2-.1zm-1.3.8c-.1.1-.2.2-.3.2.1 0 .2-.1.3-.2zm-1.3 1s.1-.1 0 0zm-1.1.9c-.1.1-.2.2-.4.3.1-.1.2-.2.4-.3zm-1.2 1.1c0-.1 0-.1 0 0l.2-.2-.3.3s0-.1.1-.1zm-1.1 1.1l-.2.2.2-.2zm-1 1.2s-.1 0 0 0c-.1 0-.1 0 0 0zm73.1 16.4c-.1.2-.3.4-.5.5-.1.1-.2.3-.3.4-.3.4-.7.7-1.1 1.1l-.1.1-.2.2c-.3.3-.6.5-.9.8-.1.1-.3.2-.4.3-.2.2-.5.4-.7.6-.2.1-.3.3-.5.4-.2.2-.5.4-.7.5-.2.1-.4.3-.6.4-.2.2-.5.3-.7.5-.6.4-1.1.7-1.7 1-.6.3-1.2.7-1.9 1l-.6.3c-.5.2-1 .4-1.4.7-.2.1-.4.2-.6.2-.7.3-1.3.5-2 .8h-.1c-.7.2-1.3.5-2 .7-.3.1-.6.2-.8.3l-.9.3c-.3.1-.6.2-.9.2-.3.1-.6.2-.9.2-.3.1-.6.1-.9.2-.3.1-.6.1-.9.2-.3.1-.6.1-.9.2-.3.1-.6.1-.9.2-.2 0-.5.1-.7.1-.6.1-1.1.2-1.7.3-.2 0-.5.1-.7.1-.7.1-1.4.2-2.2.3h-.1c-.7.1-1.4.1-2.1.2h-.6c-.5 0-1 .1-1.4.1h-6.8c-.3 0-.7 0-1-.1-.3 0-.6 0-.9-.1-.3 0-.7-.1-1-.1-.3 0-.6-.1-.9-.1s-.7-.1-1-.1c-.3 0-.6-.1-.9-.1-.4-.1-.7-.1-1.1-.2-.3 0-.6-.1-.9-.1-.4-.1-.7-.1-1-.2-.3-.1-.6-.1-.8-.2-.4-.1-.9-.2-1.3-.3-.2-.1-.5-.1-.7-.2-.5-.1-1.1-.3-1.6-.4-.1 0-.2-.1-.4-.1-.7-.2-1.5-.4-2.2-.7-.2-.1-.4-.1-.6-.2-.6-.2-1.1-.4-1.7-.6-.2-.1-.3-.1-.5-.2-.3-.1-.6-.3-1-.4-.2-.1-.5-.2-.7-.3-.3-.1-.7-.3-1-.4-.2-.1-.4-.2-.7-.3-.4-.2-.7-.4-1.1-.5-.2-.1-.4-.2-.5-.3l-1.5-.9c-3-1.8-5.5-3.9-7.3-6.1-1.3-2.3-1.9-4.7-1.9-7.2 1.3-1 2.8-1.9 4.4-2.8 5.1-2.9 11.1-5 17.4-6.3l3.6-11.6c13.8-2.9 29.8-1.1 40.5 5.4 9.9 6.2 12.8 14.8 8.7 22.3z"/><ellipse transform="matrix(1 -.00283 .00283 1 2.032 13.554)" class="st26" cx="4781.9" cy="-710" rx="40.3" ry="23.4"/><path class="st12" d="M4781.8-691c-10.1 0-19.8-2.4-26.7-6.5-5.9-3.6-9.2-8-9.1-12.5.1-4.6 3.8-9.3 10.1-12.9 6.9-3.9 16.1-6 25.9-6 10.1 0 19.8 2.4 26.7 6.5 5.9 3.6 9.2 8 9.1 12.5-.1 4.6-3.8 9.3-10.1 12.9-6.9 3.9-16.1 6-25.9 6z"/><g class="st3"><path class="st16" d="M4802.2-721.6c7 4 8 9.9 2.4 13.2-5.7 3.3-15.9 2.7-22.8-1.3-7-4-8-9.9-2.4-13.2 5.7-3.3 15.9-2.7 22.8 1.3z"/></g><g class="st3"><path class="st37" d="M4773.5-710.7c0-.1 0-.1.1-.2 0-.1 0-.2.1-.2 0-.1.1-.2.2-.4v-.1c.1-.1.1-.3.2-.4v-.1l.3-.3v-.1l.4-.4.1-.1c.1-.1.3-.2.4-.3h.1c.2-.1.3-.2.5-.3.2-.1.3-.2.5-.3.1 0 .1-.1.2-.1.1-.1.3-.1.4-.2.1 0 .1 0 .2-.1.2-.1.4-.1.6-.2.2-.1.5-.1.7-.2l1.3.8v-1.4l-1.3-.8c-.2.1-.5.1-.7.2-.2.1-.4.1-.6.2-.1 0-.1 0-.2.1s-.3.1-.4.2c-.1 0-.1.1-.2.1-.2.1-.4.2-.5.3 0 0-.1 0-.1.1-.1.1-.3.2-.4.3h-.1c-.2.1-.3.2-.4.3l-.1.1s-.1 0-.1.1l-.3.3v.1l-.2.2-.1.1v.1c-.1.1-.1.2-.2.3v.2c-.1.1-.1.2-.1.3 0 .1 0 .2-.1.2v1.9c-.2-.1-.2-.2-.2-.3zm13.2.5c-.2.1-.3.2-.5.3-.1 0-.1 0-.2.1s-.3.1-.4.2c-.1 0-.1 0-.2.1-.1 0-.2.1-.3.1s-.1 0-.2.1c-.1 0-.2 0-.3.1h-.2c-.2 0-.4.1-.6.1h-2.5c-.1 0-.2 0-.3-.1h-.2c-.1 0-.2-.1-.3-.1s-.1 0-.2-.1c-.2-.1-.4-.1-.6-.2-.1 0-.2-.1-.3-.1 0 0-.1 0-.1-.1-.1-.1-.3-.1-.4-.2-1.1-.6-1.6-1.5-1.6-2.3v1.4c0 .8.5 1.6 1.6 2.3.1.1.3.1.4.2 0 0 .1 0 .1.1.1 0 .2.1.2.1.2.1.4.1.6.2h.1c.1 0 .2.1.3.1h.2c.1 0 .2 0 .3.1h2.3c.2 0 .4-.1.6-.1h.2c.1 0 .2 0 .3-.1.1 0 .1 0 .2-.1.1 0 .2-.1.3-.1h.2c.1-.1.3-.1.4-.2.1 0 .1 0 .2-.1.2-.1.4-.2.5-.3h.1c.1 0 .1-.1.2-.1l.1-.1.3-.3 1.3.8v-1.4l-1.3-.8-.3.3v.2c.2-.2.1-.1 0 0z"/><path class="st37" d="M4793.1-711.7v1.2c0 .1 0 .1-.1.2 0 .1 0 .1-.1.2 0 .1 0 .1-.1.2 0 .1 0 .1-.1.2 0 .1-.1.1-.1.2l-.1.1c0 .1-.1.1-.1.2l-.1.1-.2.2-.1.1c-.1.1-.2.2-.3.4l-.1.1-.3.3-.1.1-.2.2c-.1 0-.1.1-.2.1l-.2.2c-.1 0-.1.1-.2.1s-.1.1-.2.1-.1.1-.2.1-.1.1-.2.1c-.1.1-.2.1-.3.2l-9.5 5.5c-.3.1-.5.3-.8.4-.1 0-.2.1-.2.1-.2.1-.5.2-.7.3-.1 0-.1 0-.2.1l-.9.3c-.2.1-.5.1-.7.2-.1 0-.2.1-.4.1-.3.1-.7.2-1.1.2h-.1c-.3.1-.6.1-1 .1h-.3c-.3 0-.6.1-1 .1h-3c-.2 0-.4 0-.6-.1-.2 0-.4 0-.5-.1-.2 0-.4-.1-.6-.1-.2 0-.3-.1-.5-.1-.2-.1-.5-.1-.7-.2-.1 0-.3-.1-.4-.1-.1 0-.1 0-.2-.1-.2-.1-.5-.2-.7-.2-.1 0-.1-.1-.2-.1l-.6-.3c-.1 0-.2-.1-.3-.1-.3-.1-.6-.3-.8-.4-2.2-1.3-3.3-3-3.3-4.7v1.4c0 1.7 1.1 3.4 3.3 4.7.3.2.5.3.8.4.1 0 .2.1.3.1.2.1.3.1.5.2h.1c.1 0 .1.1.2.1.2.1.5.2.7.2.1 0 .1 0 .2.1h.1c.1 0 .2 0 .3.1.2.1.5.1.7.2h.1c.1 0 .2 0 .4.1.2 0 .4.1.6.1h.6c.2 0 .4 0 .6.1h3.1c.2 0 .4 0 .7-.1h.6c.3 0 .6-.1 1-.1h.1c.4-.1.7-.1 1.1-.2.1 0 .2-.1.4-.1.2-.1.5-.1.7-.2h.1c.3-.1.5-.2.8-.3.1 0 .1 0 .2-.1.2-.1.5-.2.7-.3.1 0 .2-.1.2-.1.3-.1.5-.3.8-.4l9.5-5.5c.1 0 .1-.1.2-.1l.1-.1c.1 0 .2-.1.2-.1.1 0 .1-.1.2-.1s.1-.1.2-.1.1-.1.2-.1l.2-.2c.1 0 .1-.1.2-.1l.2-.2s.1 0 .1-.1l.1-.1.3-.3.1-.1c.1-.1.2-.2.3-.4 0 0 0-.1.1-.1l.2-.2.1-.1c0-.1.1-.1.1-.2v-.2c0-.1.1-.1.1-.2s0-.1.1-.2c0-.1.1-.1.1-.2v-.2c0-.1 0-.1.1-.2v-2.8c-.1.4-.1.5-.1.6z"/><path class="st37" d="M4763.4-704.9v-.7s0-.1.1-.1c0 0 0-.1.1-.1 0 0 0-.1.1-.1 0 0 0-.1.1-.1 0-.1.1-.1.1-.2 0 0 0-.1.1-.1 0-.1.1-.1.1-.2 0 0 0-.1.1-.1.1-.1.1-.2.2-.3l.1-.1.2-.2.1-.1.1-.1.1-.1.1-.1.1-.1c.1 0 .1-.1.2-.1l.1-.1c.1 0 .1-.1.2-.1s.1-.1.2-.1c.2-.1.4-.2.5-.3.1 0 .1-.1.2-.1.1-.1.3-.1.4-.2.1 0 .1-.1.2-.1.1-.1.3-.1.4-.2.1 0 .1 0 .2-.1.2-.1.4-.1.6-.2l11.2 6.5v-1.4l-11.2-6.5c-.2.1-.4.1-.6.2h-.1c-.1 0-.1 0-.2.1s-.3.1-.4.2c-.1 0-.1.1-.2.1-.1.1-.3.1-.4.2-.1 0-.1.1-.2.1-.2.1-.4.2-.5.3 0 0-.1 0-.1.1 0 0-.1 0-.1.1-.1 0-.1.1-.2.1l-.1.1c-.1 0-.1.1-.2.1l-.1.1-.1.1-.1.1-.1.1-.1.1-.2.2-.1.1c-.1.1-.2.2-.2.3v.1c0 .1-.1.1-.1.2 0 0 0 .1-.1.1 0 .1-.1.1-.1.2v.1s0 .1-.1.1c0 0 0 .1-.1.1 0 0 0 .1-.1.1v2.2l-.1-.2z"/><path class="st26" d="M4789.8-716.6c4.5 2.6 4.4 6.9-.2 9.6l-9.5 5.5c-4.6 2.7-12 2.8-16.5.2-4.5-2.6-4.4-6.9.2-9.6l9.5-5.5c4.7-2.7 12-2.8 16.5-.2zm-24 13.9c3.3 1.9 8.7 1.9 12.1-.1.8-.4 1.4-1 1.8-1.5l-11.2-6.5c-.9.3-1.8.6-2.6 1-3.3 2.1-3.4 5.2-.1 7.1m12.7-13.3c-.9.2-1.8.6-2.6 1-3.2 1.8-3.2 4.8-.2 6.5 3.1 1.8 8.1 1.7 11.3-.1.8-.4 1.3-.9 1.7-1.5l-1.3-.8c-.2.2-.5.4-.7.5-2.1 1.2-5.6 1.2-7.8 0s-2.2-3.3 0-4.5c.3-.2.6-.3.9-.4l-1.3-.7"/></g><ellipse class="st13" cx="1865.5" cy="1136" rx="61" ry="32.3"/><path class="st13" d="M1315.5 957.7l277.6-163.4 344.7 199-277.5 163.4z"/><g class="st3"><path class="st14" d="M1314.6 908.5l224.2-130.2 344.7 199-224.1 130.3z"/><g class="st3"><defs><path id="SVGID_15_" d="M1314.6 908.5l224.2-130.2 344.7 199-224.1 130.3z"/></defs><clipPath id="SVGID_16_"><use xlink:href="#SVGID_15_" overflow="visible"/></clipPath></g><path class="st15" d="M1883.5 977.3l-.1 24.4-224.1 130.3.1-24.4z"/><path class="st16" d="M1659.4 1107.6l-.1 24.4-344.7-199v-24.5z"/></g><path class="st16" d="M1485.1 852.3l-17.7 10.3-17.9-10.3 17.8-10.3z"/><path class="st17" d="M1485.1 852.3v9.3l-17.7 10.3v-9.3z"/><path class="st18" d="M1467.4 862.6v9.3l-17.9-10.3v-9.3z"/><path class="st16" d="M1461.1 866.3l-17.8 10.3-17.8-10.3 17.7-10.3z"/><path class="st17" d="M1461.1 866.3l-.1 9.3-17.7 10.3v-9.3z"/><path class="st18" d="M1443.3 876.6v9.3l-17.9-10.3.1-9.3z"/><path class="st16" d="M1437 880.3l-17.8 10.3-17.8-10.3 17.7-10.3z"/><path class="st17" d="M1437 880.3l-.1 9.3-17.7 10.3v-9.3z"/><path class="st18" d="M1419.2 890.6v9.3l-17.9-10.3.1-9.3z"/><path class="st16" d="M1508.1 865.5l-17.8 10.3-17.8-10.3 17.7-10.3z"/><path class="st17" d="M1508.1 865.5l-.1 9.4-17.7 10.3v-9.4z"/><path class="st18" d="M1490.3 875.8v9.4l-17.9-10.3.1-9.4z"/><path class="st16" d="M1484 879.5l-17.8 10.3-17.8-10.3 17.7-10.3z"/><path class="st17" d="M1484 879.5l-.1 9.4-17.7 10.3v-9.4z"/><path class="st18" d="M1466.2 889.8v9.4l-17.9-10.3.1-9.4z"/><path class="st16" d="M1459.9 893.5l-17.8 10.3-17.8-10.3 17.7-10.3z"/><path class="st17" d="M1459.9 893.5l-.1 9.4-17.7 10.3v-9.4z"/><path class="st18" d="M1442.1 903.8v9.4l-17.9-10.3.1-9.4z"/><path class="st16" d="M1531 878.7l-17.8 10.3-17.8-10.3 17.7-10.3z"/><path class="st17" d="M1531 878.7l-.1 9.4-17.7 10.3V889z"/><path class="st18" d="M1513.2 889v9.4l-17.9-10.3.1-9.4z"/><path class="st16" d="M1506.9 892.7l-17.8 10.3-17.8-10.3 17.7-10.3z"/><path class="st17" d="M1506.9 892.7v9.4l-17.8 10.3V903z"/><path class="st18" d="M1489.1 903v9.4l-17.9-10.3.1-9.4z"/><path class="st16" d="M1482.8 906.7L1465 917l-17.8-10.3 17.7-10.3z"/><path class="st17" d="M1482.8 906.7v9.4l-17.8 10.3V917z"/><path class="st18" d="M1465 917v9.4l-17.8-10.3v-9.4z"/><path class="st16" d="M1743.3 912.8l-50.1 29.1-90.1-52 50.1-29.1zm-27.9 44.5l-17.7 10.3-155.3-89.7 17.7-10.3z"/><path class="st17" d="M1715.4 957.3v9.4l-17.7 10.3v-9.4z"/><path class="st18" d="M1697.7 967.6v9.4l-155.4-89.7.1-9.4z"/><path class="st16" d="M1553.9 891.9l-17.8 10.4-17.8-10.4 17.7-10.3z"/><path class="st17" d="M1553.9 891.9v9.4l-17.8 10.3v-9.3z"/><path class="st18" d="M1536.1 902.3v9.3l-17.8-10.3v-9.4z"/><path class="st16" d="M1529.8 906l-17.8 10.3-17.8-10.3 17.7-10.4z"/><path class="st17" d="M1529.8 906v9.3l-17.8 10.3v-9.3z"/><path class="st18" d="M1512 916.3v9.3l-17.8-10.3V906z"/><path class="st16" d="M1505.7 920l-17.7 10.3-17.9-10.3 17.7-10.4z"/><path class="st17" d="M1505.7 920v9.3l-17.8 10.3.1-9.3z"/><path class="st18" d="M1488 930.3l-.1 9.3-17.8-10.3V920z"/><path class="st16" d="M1576.8 905.2l-17.7 10.3-17.9-10.3 17.7-10.3z"/><path class="st17" d="M1576.8 905.2v9.3l-17.8 10.4.1-9.4z"/><path class="st18" d="M1559.1 915.5l-.1 9.4-17.8-10.3v-9.4z"/><path class="st16" d="M1552.7 919.2l-17.7 10.3-17.9-10.3 17.7-10.3z"/><path class="st17" d="M1552.7 919.2v9.4l-17.8 10.3.1-9.4z"/><path class="st18" d="M1535 929.5l-.1 9.4-17.8-10.3v-9.4z"/><path class="st16" d="M1528.6 933.2l-17.7 10.3-17.9-10.3 17.8-10.3z"/><path class="st17" d="M1528.6 933.2v9.4l-17.8 10.3.1-9.4z"/><path class="st18" d="M1510.9 943.5l-.1 9.4-17.8-10.3v-9.4z"/><path class="st16" d="M1599.7 918.4l-17.7 10.3-17.9-10.3 17.7-10.3z"/><path class="st17" d="M1599.7 918.4v9.4l-17.8 10.3.1-9.4z"/><path class="st18" d="M1582 928.7l-.1 9.4-17.8-10.3v-9.4z"/><path class="st16" d="M1622.6 931.6l-17.7 10.3-17.9-10.3 17.8-10.3z"/><path class="st17" d="M1622.6 931.6v9.4l-17.8 10.3.1-9.4z"/><path class="st18" d="M1604.9 941.9l-.1 9.4L1587 941v-9.4z"/><path class="st17" d="M1557.8 941.8l1.2-.6c.1-.1.2-.1.4-.2.3-.1.7-.3 1-.4.1 0 .2-.1.4-.1.2-.1.4-.1.7-.2.2 0 .3-.1.5-.1.2-.1.5-.1.7-.1s.3-.1.5-.1c.5-.1 1-.1 1.4-.2h.4c.3 0 .6 0 .9-.1h3c.2 0 .4 0 .6.1.2 0 .4.1.6.1.2 0 .4.1.7.1.2 0 .3.1.5.1.3.1.5.1.8.2.1 0 .3.1.4.1.5.1.9.3 1.4.5.1 0 .1.1.2.1.6.2 1.2.5 1.7.8v-9.4c-.5-.3-1.1-.6-1.7-.8 0 0-.1 0-.1-.1h-.1c-.4-.2-.9-.3-1.4-.5h-.1c-.1 0-.2-.1-.3-.1-.3-.1-.5-.1-.8-.2-.1 0-.1 0-.2-.1-.1 0-.2 0-.3-.1-.2 0-.4-.1-.7-.1h-.6c-.2 0-.4 0-.6-.1h-3c-.3 0-.6 0-.8.1h-.4c-.5.1-1 .1-1.4.2h-.1c-.1 0-.3.1-.4.1-.2 0-.5.1-.7.2-.2 0-.3.1-.5.1-.2.1-.4.1-.7.2h-.1c-.1 0-.1.1-.2.1-.3.1-.7.2-1 .4-.1 0-.2.1-.4.2l-1.2.6c-.1 0-.1.1-.2.1-.1.1-.2.1-.3.2-.2.1-.3.2-.5.3-.1.1-.3.2-.4.3-.1.1-.2.1-.3.2l-.2.2-.2.2c-.1.1-.2.2-.3.4l-.3.3-.1.1c-.1.1-.2.3-.3.4 0 .1-.1.1-.1.2v.1c-.1.1-.1.3-.2.4 0 .1-.1.2-.1.2v.1c0 .1-.1.2-.1.4 0 .1-.1.2-.1.3v10.3c0 1.9 1.2 3.8 3.7 5.2V943c-.3-.2-.5-.3-.8-.5.1 0 .1-.1.2-.1.1-.4.2-.5.4-.6z"/><path class="st19" d="M1554.2 937.4v9.5-9.5"/><g class="st3"><defs><path id="SVGID_17_" d="M1579.3 947c0-.5-.1-.9-.2-1.4v-9.4c.1.5.2.9.2 1.4v9.4z"/></defs><clipPath id="SVGID_18_"><use xlink:href="#SVGID_17_" overflow="visible"/></clipPath><g clip-path="url(#SVGID_18_)"><path class="st17" d="M1579.3 937.6v9.4c0-.5-.1-.9-.2-1.4v-9.4c.2.5.2.9.2 1.4"/></g></g><path class="st16" d="M1575.6 932.4c-4.9-2.8-12.9-2.8-17.8 0s-4.9 7.5.1 10.3l-17.9-10.3 17.7-10.3 17.9 10.3z"/><path class="st18" d="M1557.9 942.7l-.1 9.4-17.8-10.3v-9.4z"/><path class="st21" d="M1557.8 938.9zm17.9 0c0 1.3-.8 2.7-2.6 3.7-2.2 1.3-5.1 1.7-7.9 1.4-1.7-.2-3.4-.7-4.7-1.4-1.7-1-2.6-2.3-2.6-3.7v6.7c0 1.3.9 2.6 2.6 3.7 1.3.8 3 1.2 4.7 1.4 2.8.3 5.8-.2 7.9-1.4 1.7-1 2.6-2.3 2.6-3.7v-6.7z"/><path class="st22" d="M1573 935.3c1.3.8 2.2 1.7 2.5 2.7.5 1.6-.3 3.4-2.4 4.6-2.2 1.3-5.1 1.7-7.9 1.4-1.7-.2-3.4-.7-4.7-1.4-3.5-2-3.5-5.3 0-7.3 3.4-2.1 9-2.1 12.5 0z"/><path class="st17" d="M1598.5 945.6v9.4l-17.7 10.3v-9.4z"/><path class="st16" d="M1598.5 945.6l-17.7 10.3-17.9-10.3 1.6-.9c3.9.4 8.2-.2 11.2-2s4.2-4.2 3.4-6.5l1.6-.9 17.8 10.3z"/><path class="st18" d="M1580.8 955.9v9.4l-17.9-10.3v-9.4z"/><path class="st16" d="M1551.5 946.4l-17.7 10.3-17.9-10.3 17.8-10.3z"/><path class="st17" d="M1551.5 946.4v9.4l-17.8 10.3.1-9.4z"/><path class="st18" d="M1533.8 956.7l-.1 9.4-17.8-10.3v-9.4z"/><path class="st16" d="M1574.4 959.6l-17.7 10.3-17.9-10.3 17.8-10.3z"/><path class="st17" d="M1574.4 959.6v9.4l-17.7 10.3v-9.4z"/><path class="st18" d="M1556.7 969.9v9.4l-17.9-10.3v-9.4z"/><path class="st16" d="M1645.5 944.9l-17.7 10.3-17.9-10.3 17.8-10.4z"/><path class="st17" d="M1645.5 944.9v9.3l-17.7 10.3v-9.3z"/><path class="st18" d="M1627.8 955.2v9.3l-17.9-10.3v-9.3z"/><path class="st16" d="M1621.4 958.9l-17.7 10.3-17.9-10.3 17.8-10.3z"/><path class="st17" d="M1621.4 958.9v9.3l-17.7 10.3v-9.3z"/><path class="st18" d="M1603.7 969.2v9.3l-17.9-10.3v-9.3z"/><path class="st16" d="M1597.3 972.9l-17.7 10.3-17.9-10.3 17.8-10.3z"/><path class="st17" d="M1597.3 972.9v9.3l-17.7 10.3v-9.3z"/><path class="st18" d="M1579.6 983.2v9.3l-17.9-10.3v-9.3z"/><path class="st16" d="M1668.4 958.1l-17.7 10.3-17.9-10.3 17.8-10.3z"/><path class="st17" d="M1668.4 958.1v9.4l-17.7 10.3v-9.4z"/><path class="st18" d="M1650.7 968.4v9.4l-17.9-10.3v-9.4z"/><path class="st16" d="M1644.3 972.1l-17.7 10.3-17.9-10.3 17.8-10.3z"/><path class="st17" d="M1644.3 972.1v9.4l-17.7 10.3v-9.4z"/><path class="st18" d="M1626.6 982.4v9.4l-17.9-10.3v-9.4z"/><path class="st16" d="M1620.3 986.1l-17.8 10.3-17.8-10.3 17.7-10.3z"/><path class="st17" d="M1620.3 986.1l-.1 9.4-17.7 10.3v-9.4z"/><path class="st18" d="M1602.5 996.4v9.4l-17.9-10.3.1-9.4z"/><path class="st16" d="M1691.4 971.3l-17.8 10.3-17.8-10.3 17.7-10.3z"/><path class="st17" d="M1691.4 971.3l-.1 9.4-17.7 10.3v-9.4z"/><path class="st18" d="M1673.6 981.6v9.4l-17.9-10.3.1-9.4z"/><path class="st16" d="M1667.3 985.3l-17.8 10.3-17.8-10.3 17.7-10.3z"/><path class="st17" d="M1667.3 985.3l-.1 9.4-17.7 10.3v-9.4z"/><path class="st18" d="M1649.5 995.6v9.4l-17.9-10.3.1-9.4z"/><path class="st16" d="M1643.2 999.3l-17.8 10.3-17.8-10.3 17.7-10.3z"/><path class="st17" d="M1643.2 999.3l-.1 9.4-17.7 10.3v-9.4z"/><path class="st18" d="M1625.4 1009.6v9.4l-17.9-10.3.1-9.4z"/><path class="st16" d="M1714.3 984.5l-17.8 10.4-17.8-10.4 17.7-10.3z"/><path class="st17" d="M1714.3 984.5l-.1 9.4-17.7 10.3v-9.3z"/><path class="st18" d="M1696.5 994.9v9.3l-17.9-10.3.1-9.4z"/><path class="st16" d="M1690.2 998.5l-17.8 10.4-17.8-10.4 17.7-10.3z"/><path class="st17" d="M1690.2 998.5l-.1 9.4-17.7 10.3v-9.3z"/><path class="st18" d="M1672.4 1008.9v9.3l-17.9-10.3.1-9.4z"/><path class="st16" d="M1666.1 1012.5l-17.8 10.4-17.8-10.4 17.7-10.3z"/><path class="st17" d="M1666.1 1012.5l-.1 9.4-17.7 10.3v-9.3z"/><path class="st18" d="M1648.3 1022.9v9.3l-17.9-10.3.1-9.4z"/><path class="st16" d="M1737.2 997.8l-17.8 10.3-17.8-10.3 17.7-10.3z"/><path class="st17" d="M1737.2 997.8l-.1 9.3-17.7 10.4v-9.4z"/><path class="st18" d="M1719.4 1008.1v9.4l-17.9-10.4.1-9.3z"/><path class="st16" d="M1713.1 1011.8l-17.8 10.3-17.8-10.3 17.7-10.3z"/><path class="st17" d="M1713.1 1011.8v9.3l-17.8 10.4v-9.4z"/><path class="st18" d="M1695.3 1022.1v9.4l-17.8-10.4v-9.3z"/><path class="st16" d="M1689 1025.8l-17.8 10.3-17.8-10.3 17.7-10.3z"/><path class="st17" d="M1689 1025.8v9.3l-17.8 10.4v-9.4z"/><path class="st18" d="M1671.2 1036.1v9.4l-17.8-10.4v-9.3z"/><path class="st16" d="M1760.1 1011l-17.8 10.3-17.8-10.3 17.7-10.3z"/><path class="st17" d="M1760.1 1011v9.4l-17.8 10.3v-9.4z"/><path class="st18" d="M1742.3 1021.3v9.4l-17.8-10.3v-9.4z"/><path class="st16" d="M1736 1025l-17.8 10.3-17.8-10.3 17.7-10.3z"/><path class="st17" d="M1736 1025v9.4l-17.8 10.3v-9.4z"/><path class="st18" d="M1718.2 1035.3v9.4l-17.8-10.3v-9.4z"/><path class="st16" d="M1711.9 1039l-17.7 10.3-17.9-10.3 17.7-10.3z"/><path class="st17" d="M1711.9 1039v9.4l-17.8 10.3.1-9.4z"/><path class="st18" d="M1694.2 1049.3l-.1 9.4-17.8-10.3v-9.4z"/><path class="st22" d="M1697.6 939.2l-4.4 2.7-90.1-52 4.5-2.7z"/><g class="st3"><path class="st16" d="M1293.5 945.3l.7-259.2 344.7 199-.7 259.3z"/><g class="st3"><defs><path id="SVGID_19_" d="M1293.5 945.3l.7-259.2 344.7 199-.7 259.3z"/></defs><clipPath id="SVGID_20_"><use xlink:href="#SVGID_19_" overflow="visible"/></clipPath></g><path class="st14" d="M1294.2 686.1l21.1-12.3 344.8 199-21.2 12.3z"/><path class="st15" d="M1638.9 885.1l21.2-12.3-.8 259.3-21.1 12.3z"/></g><path class="st35" d="M1905.5 1137.9v-44.8l-.1-27v-.6l-.1-38.7v-15.2c0-7.1-4.5-14.1-13.6-19.6-.6-.4-1.2-.7-1.8-1.1l-.6-.3c-.4-.2-.8-.4-1.3-.7-.3-.1-.5-.2-.8-.4-.4-.2-.8-.4-1.2-.5-.3-.1-.6-.2-.9-.4-.4-.2-.8-.3-1.2-.5-.1 0-.1-.1-.2-.1-.1-.1-.3-.1-.4-.2-.7-.3-1.4-.5-2.1-.7-.2-.1-.5-.2-.7-.2-.9-.3-1.8-.6-2.7-.8-.1 0-.3-.1-.4-.1-.6-.2-1.3-.3-1.9-.5-.3-.1-.6-.1-.8-.2-.5-.1-1.1-.2-1.6-.4-.1 0-.3-.1-.4-.1-.2 0-.4-.1-.6-.1-.4-.1-.9-.2-1.3-.2-.4-.1-.7-.1-1.1-.2-.4-.1-.9-.1-1.3-.2-.2 0-.4-.1-.6-.1-.2 0-.4 0-.5-.1-.4-.1-.8-.1-1.2-.1s-.8-.1-1.1-.1c-.4 0-.8-.1-1.2-.1-.2 0-.4 0-.6-.1h-.5c-.4 0-.8-.1-1.2-.1s-.8 0-1.1-.1h-7.1c-.6 0-1.2.1-1.8.1h-.8c-.8.1-1.7.1-2.5.2h-.1c-.9.1-1.8.2-2.6.3-.3 0-.6.1-.8.1-.7.1-1.4.2-2 .3-.2 0-.3.1-.5.1-.1 0-.2 0-.3.1-.4.1-.7.1-1.1.2-.4.1-.8.2-1.1.2-.4.1-.7.2-1.1.2-.4.1-.8.2-1.1.3-.4.1-.7.2-1.1.3-.4.1-.7.2-1.1.3-.4.1-.7.2-1 .3-.2.1-.5.1-.7.2-.1 0-.2.1-.3.1-.8.3-1.6.5-2.4.8h-.1c-.8.3-1.6.6-2.4 1-.2.1-.5.2-.7.3-.6.3-1.2.5-1.8.8-.2.1-.5.2-.7.3-.8.4-1.5.8-2.3 1.2-.7.4-1.4.8-2.1 1.3-.1 0-.1.1-.2.1-.2.1-.4.3-.7.4-.2.2-.5.3-.7.5-.3.2-.6.4-.9.7-.2.2-.4.3-.6.5-.3.2-.6.5-.9.7-.2.1-.3.3-.5.4-.4.3-.7.6-1 .9-.1.1-.2.2-.3.2l-.1.1c-.5.4-.9.9-1.3 1.4-.1.2-.3.3-.4.5-.3.3-.6.7-.9 1.1-.1.1-.2.2-.2.3-.1.1-.1.2-.2.3-.2.3-.4.5-.6.8-.1.2-.3.4-.4.6-.2.3-.3.5-.5.8-.1.1-.2.3-.3.4 0 .1-.1.1-.1.2-.1.2-.2.5-.4.7-.1.2-.2.4-.3.7-.1.2-.2.5-.3.7s-.1.3-.2.5v.1c-.1.2-.1.5-.2.7-.1.2-.1.5-.2.7-.1.2-.1.5-.2.7 0 .2-.1.4-.1.5v.2c0 .2-.1.5-.1.7s-.1.5-.1.7v1.5l.4 124.7c0 7.1 4.5 14.1 13.6 19.6.6.4 1.2.7 1.8 1.1l.6.3c.4.2.8.4 1.3.7.3.1.5.2.8.4.4.2.8.4 1.2.5.3.1.6.2.9.4.4.2.8.3 1.2.5.1 0 .1.1.2.1.1.1.3.1.4.2.7.3 1.4.5 2.1.7.2.1.5.2.7.2.9.3 1.8.6 2.7.8.1 0 .3.1.4.1.6.2 1.3.3 1.9.5.3.1.6.1.8.2.5.1 1.1.2 1.6.4.1 0 .3.1.4.1.2 0 .4.1.6.1.4.1.9.2 1.3.2.4.1.7.1 1.1.2.4.1.9.1 1.3.2.2 0 .4.1.6.1.2 0 .4 0 .5.1.4.1.8.1 1.2.1s.8.1 1.1.1c.4 0 .8.1 1.2.1.2 0 .4 0 .6.1h.5c.4 0 .8.1 1.2.1s.8 0 1.1.1h7.1c.6 0 1.2-.1 1.8-.1h.8c.8-.1 1.7-.1 2.5-.2h.1c.9-.1 1.7-.2 2.6-.3.3 0 .6-.1.8-.1.7-.1 1.4-.2 2-.3.2 0 .3-.1.5-.1.1 0 .2 0 .3-.1.4-.1.7-.1 1.1-.2.4-.1.8-.2 1.1-.2.4-.1.7-.2 1.1-.2.4-.1.7-.2 1.1-.3.4-.1.7-.2 1.1-.3.4-.1.7-.2 1.1-.3.4-.1.7-.2 1.1-.3.2-.1.5-.1.7-.2.1 0 .2-.1.3-.1.8-.3 1.6-.5 2.4-.8h.1c.8-.3 1.6-.6 2.4-1 .2-.1.5-.2.7-.3.6-.3 1.2-.5 1.8-.8.2-.1.5-.2.7-.3.8-.4 1.5-.8 2.3-1.2.7-.4 1.4-.8 2.1-1.3.1 0 .1-.1.2-.1.2-.1.4-.3.7-.5.2-.2.5-.3.7-.5.3-.2.6-.4.9-.7.2-.2.4-.3.6-.5.3-.2.6-.5.9-.7.2-.1.3-.3.5-.4.4-.3.7-.6 1-.9.1-.1.2-.2.3-.2l.1-.1c.5-.4.9-.9 1.3-1.4.1-.2.3-.3.4-.5.3-.3.6-.7.9-1.1.1-.1.2-.2.2-.3.1-.1.1-.2.2-.3.2-.3.4-.5.6-.8.1-.2.3-.4.4-.6.2-.3.3-.5.5-.8.1-.1.2-.3.3-.4 0-.1.1-.1.1-.2.1-.2.2-.5.4-.7.1-.2.2-.4.3-.7.1-.2.2-.5.3-.7.1-.2.1-.3.2-.5v-.1c.1-.2.1-.4.2-.7.1-.2.1-.5.2-.7.1-.2.1-.5.2-.7 0-.2.1-.4.1-.5v-.2c0-.2.1-.5.1-.7-.3-.1-.3-.3-.2-.5z"/><path class="st36" d="M1905.1 1013.2c.1-.6.1-1.2.1-1.8v-.1c0-.5 0-1-.1-1.5v-.2c0-.1 0-.2-.1-.3-.1-.4-.1-.8-.2-1.2 0-.1 0-.2-.1-.3 0-.1 0-.1-.1-.2 0-.1 0-.2-.1-.2l-.3-.9c0-.1-.1-.2-.1-.3s0-.1-.1-.2c-.1-.3-.2-.6-.4-.9-.1-.3-.2-.6-.4-.9 0-.1-.1-.1-.1-.2-.1-.1-.1-.2-.2-.3-.1-.3-.3-.5-.4-.8-.1-.1-.1-.2-.2-.3 0-.1-.1-.1-.1-.2-.2-.3-.3-.6-.5-.8-1.7-2.5-3.4-5.1-5-7.6-1.7-2.5-3.4-5.1-5-7.6-1.8-2.7-4.5-5.2-8.1-7.4-.6-.4-1.2-.7-1.9-1-.2-.1-.3-.2-.5-.3l-1.8-.9c-.1 0-.1-.1-.2-.1-.7-.3-1.3-.6-2-.8-.2-.1-.4-.1-.5-.2-.6-.2-1.2-.4-1.9-.7-.1 0-.2-.1-.3-.1-.7-.2-1.4-.4-2.2-.6-.2-.1-.4-.1-.6-.1-.6-.2-1.3-.3-1.9-.5-.1 0-.3-.1-.4-.1-.8-.2-1.5-.3-2.3-.4-.2 0-.4-.1-.6-.1-.6-.1-1.3-.2-1.9-.3-.2 0-.3 0-.5-.1-.8-.1-1.6-.2-2.3-.3h-.5c-.7-.1-1.3-.1-2-.1h-.5c-.8 0-1.6-.1-2.4-.1h-3.1c-.8 0-1.6.1-2.4.1h-.4c-.7.1-1.4.1-2 .2-.2 0-.4 0-.6.1-.8.1-1.6.2-2.3.3-.1 0-.2 0-.3.1-.7.1-1.4.2-2 .4-.1 0-.2 0-.3.1-4.9 1-9.5 2.7-13.5 4.9-4.2 2.4-7.3 5.1-9.3 8.1-3.3 5.1-6.7 10.2-10 15.2-.3.4-.5.8-.7 1.2-.1.1-.1.2-.2.3-.2.3-.3.6-.5.9 0 .1-.1.2-.1.3-.2.4-.4.8-.5 1.2 0 .1-.1.2-.1.2-.1.3-.2.7-.3 1 0 .1-.1.2-.1.4-.1.3-.2.7-.3 1v.2c-.1.4-.2.8-.2 1.2v.3c0 .3-.1.6-.1.9v1.6c0 .4 0 .7.1 1.1v.4c0 .3.1.6.2 1v.3l.3 1.2c0 .1.1.2.1.3.1.3.2.6.3 1 0 .1.1.2.1.3.1.4.3.7.5 1.1v.1l.6 1.2c.1.1.1.2.2.3.2.3.3.6.5.9.1.1.1.2.2.3.2.4.5.8.8 1.1.1.1.2.2.3.4.1.2.3.3.4.5.1.1.2.3.3.4.1.2.3.3.4.5l.4.4.5.5.4.4.5.5.1.1c.1 0 .1.1.2.1.4.3.8.7 1.1 1 .1.1.2.2.3.2.5.4.9.7 1.4 1.1l.1.1c.1.1.2.1.3.2.3.2.6.5 1 .7.2.1.3.2.5.3.4.2.7.5 1.1.7.1.1.2.1.3.2.1 0 .1.1.2.1.8.5 1.6.9 2.5 1.4.1.1.2.1.3.2.1 0 .2.1.3.1.8.4 1.7.8 2.5 1.2.1 0 .1.1.2.1.8.3 1.5.6 2.3.9.1 0 .2.1.3.1s.3.1.4.1c.7.2 1.3.5 2 .7.1 0 .3.1.4.1h.1c.8.3 1.7.5 2.5.8h.1c.2 0 .3.1.5.1.6.2 1.3.3 1.9.5.1 0 .3.1.4.1.2 0 .3.1.5.1.6.1 1.2.3 1.7.4.2 0 .4.1.5.1s.2 0 .3.1l1.8.3c.2 0 .4.1.6.1h.1c.8.1 1.5.2 2.3.3h.1l2.4.3h.1c.6.1 1.2.1 1.8.1h.4c.7 0 1.4.1 2.1.1h5.6c.5 0 .9 0 1.4-.1h.4c.6 0 1.2-.1 1.8-.1h.9c.3 0 .6 0 .9-.1.2 0 .4 0 .6-.1.3 0 .5-.1.8-.1.2 0 .4 0 .6-.1.2 0 .5-.1.7-.1.4 0 .7-.1 1.1-.1.2 0 .3 0 .5-.1.2 0 .3-.1.5-.1l1.8-.3c.2 0 .4-.1.5-.1s.3-.1.4-.1c.4-.1.8-.1 1.1-.2.4-.1.7-.2 1.1-.2.4-.1.7-.2 1.1-.3.4-.1.7-.2 1.1-.3.4-.1.7-.2 1.1-.3.4-.1.7-.2 1.1-.3.4-.1.7-.2 1.1-.3.2-.1.5-.1.7-.2.1 0 .1-.1.2-.1 1.1-.3 2.1-.7 3.1-1.1.1 0 .2-.1.3-.1s.2-.1.4-.2c.8-.3 1.7-.7 2.5-1 .1 0 .1-.1.2-.1h.1c1-.4 1.9-.9 2.8-1.4.1-.1.2-.1.3-.2.3-.1.5-.3.7-.4.5-.3.9-.5 1.4-.8.1-.1.3-.2.4-.3l.9-.6s.1 0 .1-.1c.1 0 .1-.1.2-.1.5-.3 1-.7 1.4-1 .1-.1.2-.2.4-.3.5-.4 1-.8 1.5-1.1 0 0 .1 0 .1-.1l.2-.2c.4-.3.7-.6 1-.9l.3-.3 1.2-1.2.1-.1c.3-.3.6-.7.9-1l.3-.3c.2-.2.4-.5.6-.7 0-.1.1-.1.2-.2l.2-.2c.1-.2.3-.4.4-.6.1-.1.2-.3.3-.4.1-.2.3-.4.4-.6.1-.1.1-.2.2-.3.4-.7.7-1.3 1-2 .1-.1.1-.2.1-.4v-.1c.2-.4.3-.8.4-1.1v-.1c0-.1.1-.2.1-.3.2-.6.4-1.3.5-1.9.1-.5.2-.9.2-1.4v-.1c.4.8.4.6.4.5zm-13.2-11.1c-.3.4-.6.9-.9 1.3-.1.1-.1.2-.2.3-.4.4-.7.9-1.1 1.3-.4.4-.8.8-1.3 1.2-.1.1-.3.2-.4.3-.4.3-.7.6-1.1.9-.1.1-.3.2-.4.3-.5.4-1.1.8-1.7 1.2l-.1.1c-.6.4-1.3.8-1.9 1.2-.3.2-.6.3-.8.4-.7.4-1.5.7-2.2 1.1-.1 0-.1.1-.2.1-.6.3-1.3.6-1.9.8-.2.1-.3.1-.5.2-.8.3-1.6.6-2.4.8-.2.1-.5.2-.7.2-.3.1-.6.2-.8.3-.3.1-.6.2-.8.2-.3.1-.6.2-.9.2-.3.1-.6.1-.9.2-.3.1-.6.1-.9.2-.3.1-.6.1-.9.2-.3.1-.6.1-.9.2-.2 0-.5.1-.7.1-.5.1-1 .2-1.4.2-.3 0-.5.1-.8.1s-.6.1-.9.1c-.3 0-.6.1-1 .1-.2 0-.4 0-.6.1-.4 0-.8.1-1.2.1h-.5c-.5 0-1.1.1-1.6.1h-5.6c-.6 0-1.2-.1-1.7-.1h-.4c-.5 0-.9-.1-1.4-.1-.6-.1-1.2-.1-1.9-.2h-.1l-1.8-.3c-.2 0-.4-.1-.5-.1-.5-.1-1-.2-1.4-.2-.2 0-.4-.1-.7-.1-.5-.1-.9-.2-1.4-.3-.2-.1-.5-.1-.7-.2-.5-.1-1-.2-1.5-.4-.2 0-.3-.1-.5-.1-.7-.2-1.3-.4-2-.6-.1 0-.3-.1-.4-.1-.5-.2-1.1-.4-1.6-.6-.2-.1-.4-.1-.6-.2-.6-.2-1.2-.5-1.8-.7-.1 0-.1-.1-.2-.1-.7-.3-1.3-.6-2-.9-.2-.1-.3-.2-.5-.2-.7-.3-1.3-.7-2-1.1-.6-.4-1.2-.7-1.7-1.1-.1-.1-.2-.2-.4-.3l-1.2-.9c-.1-.1-.2-.2-.4-.3-.5-.4-.9-.8-1.4-1.2l-.8-.8-.6-.6c-.3-.3-.5-.6-.7-.9-.1-.2-.3-.4-.5-.6l-.1-.1c-.3-.4-.5-.8-.8-1.2-.1-.1-.1-.2-.2-.4-.2-.4-.5-.8-.7-1.2v-.1c-.2-.4-.4-.9-.5-1.3 0-.1-.1-.2-.1-.4-.1-.4-.2-.8-.3-1.1 0-.1 0-.2-.1-.2-.1-.4-.2-.9-.2-1.3v-1.5c1.3-1 2.8-1.9 4.4-2.8 5.2-2.9 11.3-5 17.8-6.3.9-.2 1.7-.3 2.6-.5.1 0 .3-.1.4-.1 1-.2 2-.3 3-.4.3 0 .5-.1.8-.1.9-.1 1.7-.2 2.6-.3h.5c1-.1 2-.1 3-.2h3.9c1 0 2 0 3 .1h.7c.8 0 1.7.1 2.5.2.2 0 .5 0 .7.1l3 .3c.2 0 .4.1.6.1.8.1 1.7.2 2.5.4.2 0 .5.1.7.1 1 .2 1.9.4 2.9.6.2 0 .3.1.5.1l2.4.6c.2.1.5.1.7.2.9.3 1.9.5 2.8.8.1 0 .2.1.4.1.8.3 1.6.5 2.4.8.2.1.5.2.7.3.9.3 1.7.7 2.6 1.1.1 0 .1.1.2.1.8.4 1.6.7 2.3 1.1l.6.3c.8.4 1.6.9 2.4 1.3 1 .6 1.9 1.2 2.8 1.9v1.4c0 .2 0 .3-.1.5 0 .3-.1.5-.1.8 0 .2-.1.3-.1.5-.1.4-.2.8-.3 1.1-.1.2-.1.4-.2.5-.1.3-.2.6-.3.8-.3.8-.7 1.6-1.2 2.4l-.1.1zm10.6 18.8z"/><path class="st37" d="M1815.9 995.7v.2c0 .2 0 .3.1.5 0 .2.1.4.1.6s.1.3.1.5.1.4.1.6.1.3.1.5c.1.2.1.4.2.6.1.2.1.3.2.5s.2.4.2.6c.1.2.1.3.2.5l.3.6c.1.2.2.3.3.5l.3.6c.1.2.2.3.3.5s.3.4.4.6c.1.2.2.3.4.5.1.2.3.4.4.5.1.2.3.3.4.5.2.2.3.4.5.5.1.2.3.3.4.5.2.2.4.4.6.5.2.1.3.3.5.4.2.2.4.4.6.5.2.1.3.3.5.4.2.2.5.4.7.6.2.1.3.2.5.4.3.2.6.4.8.6.1.1.3.2.4.3.4.3.9.6 1.4.9l1.5.9c.2.1.3.2.5.3.3.2.7.4 1.1.5l.6.3c.3.2.7.3 1 .5.2.1.5.2.7.3.3.1.6.3 1 .4.1 0 .1 0 .2.1.1 0 .2.1.3.1.6.2 1.1.4 1.7.6.2.1.4.1.6.2.7.2 1.5.5 2.2.7.1 0 .2.1.3.1.5.1 1.1.3 1.6.4.2.1.5.1.7.2.4.1.9.2 1.3.3.1 0 .2 0 .3.1.2 0 .4.1.5.1.3.1.7.1 1 .2.3.1.6.1.9.1.4.1.7.1 1.1.2.2 0 .3 0 .5.1.1 0 .3 0 .5.1.3 0 .7.1 1 .1s.6.1.9.1c.3 0 .7.1 1 .1h.9c.3 0 .7 0 1 .1h6.8c.5 0 1 0 1.4-.1h.6c.7 0 1.4-.1 2.1-.2h.1c.7-.1 1.4-.2 2.2-.3.2 0 .5-.1.7-.1.6-.1 1.1-.2 1.7-.3.1 0 .3 0 .4-.1.1 0 .2 0 .3-.1.3-.1.6-.1.9-.2.3-.1.6-.1.9-.2.3-.1.6-.1.9-.2.3-.1.6-.1.9-.2.3-.1.6-.2.9-.2.3-.1.6-.2.9-.2l.9-.3c.2-.1.4-.1.6-.2.1 0 .2-.1.2-.1.7-.2 1.3-.4 2-.7h.1c.7-.2 1.3-.5 2-.8.2-.1.4-.2.6-.2.5-.2 1-.4 1.4-.7l.6-.3c.6-.3 1.3-.6 1.9-1l1.5-.9c.1-.1.2-.1.3-.2.1 0 .1-.1.2-.1.2-.1.3-.2.5-.3s.3-.2.5-.3c.1 0 .1-.1.2-.1.2-.2.4-.3.6-.5.2-.1.3-.2.5-.3l.1-.1c.2-.2.4-.3.6-.5.2-.1.3-.3.5-.4l.1-.1c.2-.2.4-.3.5-.5.2-.1.3-.3.5-.4l.1-.1s0-.1.1-.1l.3-.3c.2-.2.4-.4.5-.6.1-.1.2-.2.2-.3l.3-.3.4-.4c.1-.2.3-.3.4-.5.1-.1.1-.2.2-.2 0 0 0-.1.1-.1.1-.1.1-.2.2-.2.1-.2.2-.3.3-.5v-.1c.1-.1.2-.2.2-.3 0-.1.1-.1.1-.2.1-.2.2-.3.3-.5.1-.1.2-.3.3-.4 0 0 0-.1.1-.1.1-.2.2-.3.3-.5s.2-.3.2-.5c0-.1 0-.1.1-.2.1-.2.1-.3.2-.5s.1-.3.2-.5v-.2c.1-.2.1-.3.1-.5s.1-.3.1-.5c0-.1 0-.1.1-.2 0-.2.1-.3.1-.5s.1-.3.1-.5v-.2c0-.1 0-.3.1-.4 0-.2 0-.3.1-.5v-4.7c0-5.8-3.7-11.6-11.2-16.1l-1.5-.9c-.2-.1-.4-.2-.5-.3-.3-.2-.7-.4-1-.5-.2-.1-.4-.2-.7-.3-.3-.2-.6-.3-1-.4-.2-.1-.5-.2-.7-.3-.3-.1-.6-.3-1-.4-.1 0-.1 0-.2-.1-.1 0-.2-.1-.3-.1-.6-.2-1.1-.4-1.7-.6-.2-.1-.4-.1-.6-.2-.7-.2-1.5-.5-2.2-.7-.1 0-.2-.1-.3-.1-.5-.1-1.1-.3-1.6-.4-.2-.1-.5-.1-.7-.2-.4-.1-.9-.2-1.3-.3-.1 0-.2 0-.3-.1-.2 0-.4-.1-.5-.1-.4-.1-.7-.1-1.1-.2-.3-.1-.6-.1-.9-.1-.4-.1-.7-.1-1.1-.2-.2 0-.3 0-.5-.1-.1 0-.3 0-.5-.1-.3 0-.7-.1-1-.1s-.6-.1-.9-.1c-.3 0-.7-.1-1-.1h-.9c-.3 0-.7 0-1-.1h-6.8c-.5 0-1 0-1.4.1h-.6c-.7 0-1.4.1-2.1.2h-.1c-.7.1-1.4.2-2.2.3-.2 0-.5.1-.7.1-.6.1-1.1.2-1.7.3-.1 0-.3 0-.4.1-.1 0-.2 0-.3.1-.3.1-.6.1-.9.2-.3.1-.6.1-.9.2-.3.1-.6.1-.9.2-.3.1-.6.1-.9.2-.3.1-.6.2-.9.2-.3.1-.6.2-.9.2l-.9.3c-.2.1-.4.1-.6.2-.1 0-.2.1-.2.1-.7.2-1.3.4-2 .7h-.1c-.7.2-1.3.5-2 .8-.2.1-.4.2-.6.2-.5.2-1 .4-1.4.7l-.6.3c-.6.3-1.3.6-1.9 1-.6.3-1.2.7-1.7 1-.1 0-.1.1-.2.1-.2.1-.4.2-.6.4-.2.1-.4.3-.6.4-.3.2-.5.4-.8.5-.2.1-.3.2-.5.4-.3.2-.5.4-.8.6-.1.1-.3.2-.4.3-.3.3-.6.5-.9.8l-.2.2-.1.1-1.1 1.1c-.1.1-.2.3-.3.4-.2.3-.5.6-.7.9-.1.1-.1.2-.2.2l-.2.2c-.2.2-.3.4-.5.7-.1.2-.2.3-.3.5s-.3.5-.4.7c-.1.1-.1.2-.2.3 0 0 0 .1-.1.1l-.3.6c-.1.2-.2.4-.3.5-.1.2-.2.4-.2.6-.1.1-.1.3-.2.4v.1c-.1.2-.1.4-.2.6-.1.2-.1.4-.2.6 0 .2-.1.4-.1.6s-.1.3-.1.4v.1c0 .2-.1.4-.1.6s-.1.4-.1.6v3.5l.5 2.2zm.1-3.4v-.4.4zm.2-1.1c0-.1 0-.2.1-.3v-.1c0 .1 0 .3-.1.4zm.3-1.1c0-.1.1-.2.1-.3v-.1c0 .1 0 .3-.1.4zm.5-1.2c0-.1.1-.2.1-.3 0 .1-.1.2-.1.3zm.5-1.2c0-.1.1-.1.1-.2 0 0 0 .1-.1.2zm9-9.1c-.1 0-.1.1-.2.1 0 0 .1-.1.2-.1zm-1.3.8c-.1.1-.2.2-.3.2.1 0 .2-.1.3-.2zm-1.3 1s.1-.1 0 0-.2.2-.4.3c.2-.1.3-.2.4-.3zm-1.1.9c-.1.1-.2.2-.4.3.1-.1.2-.2.4-.3zm-1.2 1.1c0-.1 0-.1 0 0l.2-.2-.3.3s0-.1.1-.1zm-1.1 1.1l-.2.2.2-.2zm-1 1.2s-.1 0 0 0c-.1 0-.1 0 0 0zm73.1 16.4c-.1.2-.3.4-.5.5-.1.1-.2.3-.3.4-.3.4-.7.7-1.1 1.1l-.1.1-.2.2c-.3.3-.6.5-.9.8-.1.1-.3.2-.4.3-.2.2-.5.4-.7.6-.2.1-.3.3-.5.4-.2.2-.5.4-.7.5-.2.1-.4.3-.6.4-.2.2-.5.3-.7.5-.6.4-1.1.7-1.7 1-.6.3-1.2.7-1.9 1l-.6.3c-.5.2-1 .4-1.4.7-.2.1-.4.2-.6.2-.7.3-1.3.5-2 .8h-.1c-.7.2-1.3.5-2 .7-.3.1-.6.2-.8.3l-.9.3c-.3.1-.6.2-.9.2-.3.1-.6.2-.9.2-.3.1-.6.1-.9.2-.3.1-.6.1-.9.2-.3.1-.6.1-.9.2-.3.1-.6.1-.9.2-.2 0-.5.1-.7.1-.6.1-1.1.2-1.7.3-.2 0-.5.1-.7.1-.7.1-1.4.2-2.2.3h-.1c-.7.1-1.4.1-2.1.2h-.6c-.5 0-1 .1-1.4.1h-6.8c-.3 0-.7 0-1-.1-.3 0-.6 0-.9-.1-.3 0-.7-.1-1-.1s-.6-.1-.9-.1c-.3 0-.7-.1-1-.1s-.6-.1-.9-.1c-.4-.1-.7-.1-1.1-.2-.3 0-.6-.1-.9-.1-.4-.1-.7-.1-1-.2-.3-.1-.6-.1-.8-.2-.4-.1-.9-.2-1.3-.3-.2-.1-.5-.1-.7-.2-.5-.1-1.1-.3-1.6-.4-.1 0-.2-.1-.4-.1-.7-.2-1.5-.4-2.2-.7-.2-.1-.4-.1-.6-.2-.6-.2-1.1-.4-1.7-.6-.2-.1-.3-.1-.5-.2-.3-.1-.6-.3-1-.4-.2-.1-.5-.2-.7-.3-.3-.1-.7-.3-1-.4-.2-.1-.4-.2-.7-.3-.4-.2-.7-.4-1.1-.5-.2-.1-.4-.2-.5-.3l-1.5-.9c-3-1.8-5.5-3.9-7.3-6.1-1.3-2.3-1.9-4.7-1.9-7.2 1.3-1 2.8-1.9 4.4-2.8 5.1-2.9 11.1-5 17.4-6.3l3.6-11.6c13.8-2.9 29.8-1.1 40.5 5.4 9.9 6.2 12.8 14.8 8.7 22.3z"/><ellipse transform="rotate(-.162 1856.1 991.137)" class="st26" cx="1856.1" cy="991.1" rx="40.3" ry="23.4"/><path class="st12" d="M1856 1010.1c-10.1 0-19.8-2.4-26.7-6.5-5.9-3.6-9.2-8-9.1-12.5.1-4.6 3.8-9.3 10.1-12.9 6.9-3.9 16.1-6 25.9-6 10.1 0 19.8 2.4 26.7 6.5 5.9 3.6 9.2 8 9.1 12.5-.1 4.6-3.8 9.3-10.1 12.9-6.9 3.9-16.1 6-25.9 6z"/><g class="st3"><path class="st16" d="M1876.4 979.5c7 4 8 9.9 2.4 13.2-5.7 3.3-15.9 2.7-22.8-1.3-7-4-8-9.9-2.4-13.2 5.7-3.3 15.9-2.7 22.8 1.3z"/></g><g class="st3"><path class="st37" d="M1847.7 990.4c0-.1 0-.1.1-.2 0-.1 0-.2.1-.2 0-.1.1-.2.2-.4v-.1c.1-.1.1-.3.2-.4v-.1l.3-.3v-.1l.4-.4.1-.1c.1-.1.3-.2.4-.3h.1c.2-.1.3-.2.5-.3.2-.1.3-.2.5-.3.1 0 .1-.1.2-.1.1-.1.3-.1.4-.2.1 0 .1 0 .2-.1.2-.1.4-.1.6-.2.2-.1.5-.1.7-.2l1.3.8v-1.4l-1.3-.8c-.2.1-.5.1-.7.2-.2.1-.4.1-.6.2-.1 0-.1 0-.2.1s-.3.1-.4.2c-.1 0-.1.1-.2.1-.2.1-.4.2-.5.3 0 0-.1 0-.1.1-.1.1-.3.2-.4.3h-.1c-.2.1-.3.2-.4.3l-.1.1s-.1 0-.1.1l-.3.3v.1l-.2.2-.1.1v.1c-.1.1-.1.2-.2.3v.2c-.1.1-.1.2-.1.3 0 .1 0 .2-.1.2v1.9c-.2-.1-.2-.2-.2-.3zm13.2.5c-.2.1-.3.2-.5.3-.1 0-.1 0-.2.1s-.3.1-.4.2c-.1 0-.1 0-.2.1-.1 0-.2.1-.3.1s-.1 0-.2.1c-.1 0-.2 0-.3.1h-.2c-.2 0-.4.1-.6.1h-2.5c-.1 0-.2 0-.3-.1h-.2c-.1 0-.2-.1-.3-.1s-.1 0-.2-.1c-.2-.1-.4-.1-.6-.2-.1 0-.2-.1-.3-.1 0 0-.1 0-.1-.1-.1-.1-.3-.1-.4-.2-1.1-.6-1.6-1.5-1.6-2.3v1.4c0 .8.5 1.6 1.6 2.3.1.1.3.1.4.2 0 0 .1 0 .1.1.1 0 .2.1.2.1.2.1.4.1.6.2h.1c.1 0 .2.1.3.1h.2c.1 0 .2 0 .3.1h2.3c.2 0 .4-.1.6-.1h.2c.1 0 .2 0 .3-.1.1 0 .1 0 .2-.1.1 0 .2-.1.3-.1h.2c.1-.1.3-.1.4-.2.1 0 .1 0 .2-.1.2-.1.4-.2.5-.3h.1c.1 0 .1-.1.2-.1l.1-.1.3-.3 1.3.8v-1.4l-1.3-.8-.3.3v.2c.2-.2.1-.1 0 0z"/><path class="st37" d="M1867.3 989.4v1.2c0 .1 0 .1-.1.2 0 .1 0 .1-.1.2 0 .1 0 .1-.1.2 0 .1 0 .1-.1.2 0 .1-.1.1-.1.2l-.1.1c0 .1-.1.1-.1.2l-.1.1-.2.2-.1.1c-.1.1-.2.2-.3.4l-.1.1-.3.3-.1.1-.2.2c-.1 0-.1.1-.2.1l-.2.2c-.1 0-.1.1-.2.1s-.1.1-.2.1-.1.1-.2.1-.1.1-.2.1c-.1.1-.2.1-.3.2l-9.5 5.5c-.3.1-.5.3-.8.4-.1 0-.2.1-.2.1-.2.1-.5.2-.7.3-.1 0-.1 0-.2.1l-.9.3c-.2.1-.5.1-.7.2-.1 0-.2.1-.4.1-.3.1-.7.2-1.1.2h-.1c-.3.1-.6.1-1 .1h-.3c-.3 0-.6.1-1 .1h-3c-.2 0-.4 0-.6-.1-.2 0-.4 0-.5-.1-.2 0-.4-.1-.6-.1-.2 0-.3-.1-.5-.1-.2-.1-.5-.1-.7-.2-.1 0-.3-.1-.4-.1-.1 0-.1 0-.2-.1-.2-.1-.5-.2-.7-.2-.1 0-.1-.1-.2-.1l-.6-.3c-.1 0-.2-.1-.3-.1-.3-.1-.6-.3-.8-.4-2.2-1.3-3.3-3-3.3-4.7v1.4c0 1.7 1.1 3.4 3.3 4.7.3.2.5.3.8.4.1 0 .2.1.3.1.2.1.3.1.5.2h.1c.1 0 .1.1.2.1.2.1.5.2.7.2.1 0 .1 0 .2.1h.1c.1 0 .2 0 .3.1.2.1.5.1.7.2h.1c.1 0 .2 0 .4.1.2 0 .4.1.6.1h.6c.2 0 .4 0 .6.1h3.1c.2 0 .4 0 .7-.1h.6c.3 0 .6-.1 1-.1h.1c.4-.1.7-.1 1.1-.2.1 0 .2-.1.4-.1.2-.1.5-.1.7-.2h.1c.3-.1.5-.2.8-.3.1 0 .1 0 .2-.1.2-.1.5-.2.7-.3.1 0 .2-.1.2-.1.3-.1.5-.3.8-.4l9.5-5.5c.1 0 .1-.1.2-.1l.1-.1c.1 0 .2-.1.2-.1.1 0 .1-.1.2-.1s.1-.1.2-.1.1-.1.2-.1l.2-.2c.1 0 .1-.1.2-.1l.2-.2s.1 0 .1-.1l.1-.1.3-.3.1-.1c.1-.1.2-.2.3-.4 0 0 0-.1.1-.1l.2-.2.1-.1c0-.1.1-.1.1-.2v-.2c0-.1.1-.1.1-.2s0-.1.1-.2c0-.1.1-.1.1-.2v-.2c0-.1 0-.1.1-.2v-2.8c-.1.4-.1.5-.1.6z"/><path class="st37" d="M1837.6 996.2v-.7s0-.1.1-.1c0 0 0-.1.1-.1 0 0 0-.1.1-.1 0 0 0-.1.1-.1 0-.1.1-.1.1-.2 0 0 0-.1.1-.1 0-.1.1-.1.1-.2 0 0 0-.1.1-.1.1-.1.1-.2.2-.3l.1-.1.2-.2.1-.1.1-.1.1-.1.1-.1.1-.1c.1 0 .1-.1.2-.1l.1-.1c.1 0 .1-.1.2-.1s.1-.1.2-.1c.2-.1.4-.2.5-.3.1 0 .1-.1.2-.1.1-.1.3-.1.4-.2.1 0 .1-.1.2-.1.1-.1.3-.1.4-.2.1 0 .1 0 .2-.1.2-.1.4-.1.6-.2l11.2 6.5v-1.4l-11.2-6.5c-.2.1-.4.1-.6.2h-.1c-.1 0-.1 0-.2.1s-.3.1-.4.2c-.1 0-.1.1-.2.1-.1.1-.3.1-.4.2-.1 0-.1.1-.2.1-.2.1-.4.2-.5.3 0 0-.1 0-.1.1 0 0-.1 0-.1.1-.1 0-.1.1-.2.1l-.1.1c-.1 0-.1.1-.2.1l-.1.1-.1.1-.1.1-.1.1-.1.1-.2.2-.1.1c-.1.1-.2.2-.2.3v.1c0 .1-.1.1-.1.2 0 0 0 .1-.1.1 0 .1-.1.1-.1.2v.1s0 .1-.1.1c0 0 0 .1-.1.1 0 0 0 .1-.1.1v2.2l-.1-.2z"/><path class="st26" d="M1864 984.5c4.5 2.6 4.4 6.9-.2 9.6l-9.5 5.5c-4.6 2.7-12 2.8-16.5.2-4.5-2.6-4.4-6.9.2-9.6l9.5-5.5c4.7-2.7 12-2.8 16.5-.2zm-24 13.9c3.3 1.9 8.7 1.9 12.1-.1.8-.4 1.4-1 1.8-1.5l-11.2-6.5c-.9.3-1.8.6-2.6 1-3.3 2.1-3.4 5.2-.1 7.1m12.7-13.3c-.9.2-1.8.6-2.6 1-3.2 1.8-3.2 4.8-.2 6.5 3.1 1.8 8.1 1.7 11.3-.1.8-.4 1.3-.9 1.7-1.5l-1.3-.8c-.2.2-.5.4-.7.5-2.1 1.2-5.6 1.2-7.8 0s-2.2-3.3 0-4.5c.3-.2.6-.3.9-.4l-1.3-.7"/></g><path class="st7" d="M1717 1451.5L1237.8 1730 236.1 1151.7l479.3-278.5z"/><path class="st8" d="M1717 1451.5l-.1 40.8-479.2 278.5.1-40.8z"/><path class="st5" d="M1237.8 1730l-.1 40.8L236 1192.4l.1-40.7z"/><g class="st3"><path fill="#dcdcdc" d="M-166.1-1129l-479.3 278.5-1001.7-578.3 479.3-278.5z"/><path fill="#c5c5c5" d="M-166.1-1129l-.1 40.8-479.3 278.5.1-40.8z"/><path fill="#898989" d="M-645.4-850.5l-.1 40.8-1001.7-578.4.1-40.7z"/></g><g class="st3"><path class="st4" d="M-744.5-970.6l-48.7 28.2-48.9-28.2 48.6-28.3z"/><path fill="#98a0a3" d="M-744.5-970.6l-1.2 407.5-48.6 28.3 1.1-407.6z"/><path fill="#6a6f71" d="M-793.2-942.4l-1.1 407.6-49-28.3 1.2-407.5z"/></g><path class="st13" d="M1355 1240.6l-361.8-208.9-148.5 82.9 173.6 100.2-72.4 42.1-.1 20.3 98.5 56.9 7.7 4.4 17.2-10 72.8-42.3 174.2 100.6 38.5-21.5 106.1-63.2zm-342.1 225.7l117.7-69.2-283.1-163.5-117.7 69.2z"/><path class="st8" d="M1102.8 1390.5l-102.7 59.7L717 1286.8l102.7-59.7z"/><path class="st26" d="M1102.8 1390.5l-.1 8.2-102.6 59.7v-8.2z"/><path class="st12" d="M1000.1 1450.2v8.2L717 1294.9v-8.1zm-196.8-193.6l15.4-9 15.5 9-15.4 9-15.5-9zm35.5 20.5l15.4-9-15.5-9-15.4 9 15.5 9zm19.9 11.5l15.4-9-15.5-9-15.4 9 15.5 9zm19.8-6.4l-15.4 9 15.5 9 15.4-9-15.5-9zm20 11.5l-15.4 9 15.5 9 15.4-9-15.5-9zm19.9 11.5l-15.4 9 15.5 9 15.4-9-15.5-9zm19.9 11.5l-15.4 9 15.5 9 15.4-9-15.5-9zm20 11.5l-15.4 9 15.5 9 15.4-9-15.5-9zm19.9 11.5l-15.4 9 15.5 9 15.4-9-15.5-9zm20 29.4l15.4-9-15.5-9-15.4 9 15.5 9zm20 11.6l15.4-9-15.5-9-15.4 9 15.5 9zm19.9 11.5l15.4-9-15.5-9-15.4 9 15.5 9zm4.4 2.5l15.5 9 15.4-9-15.5-9-15.4 9zm-243.2-117.8l15.4-9-15.5-9-15.4 9 15.5 9zm19.9 11.5l15.4-9-15.5-9-15.4 9 15.5 9zm20 11.6l15.4-9-15.5-9-15.4 9 15.5 9zm19.8-6.5l-15.4 9 15.5 9 15.4-9-15.5-9zm19.9 11.5l-15.4 9 15.5 9 15.4-9-15.5-9zm20 11.5l-15.4 9 15.5 9 15.4-9-15.5-9zm19.9 11.5l-15.4 9 15.5 9 15.4-9-15.5-9zm19.9 11.6l-15.4 9 15.5 9 15.4-9-15.5-9zm20 11.5l-15.4 9 15.5 9 15.4-9-15.5-9zm20 29.4l15.4-9-15.5-9-15.4 9 15.5 9zm19.9 11.5l15.4-9-15.5-9-15.4 9 15.5 9zm19.9 11.5l15.4-9-15.5-9-15.4 9 15.5 9zm20 11.5l15.4-9-15.5-9-15.4 9 15.5 9zm-258.7-126.7l15.4-9-15.5-9-15.4 9 15.5 9zm19.9 11.5l15.4-9-15.5-9-15.4 9 15.5 9zm19.9 11.5l15.4-9-15.5-9-15.4 9 15.5 9zm19.8-6.4l-15.4 9 15.5 9 15.4-9-15.5-9zm20 11.5l-15.4 9 15.5 9 15.4-9-15.5-9zm19.9 11.5l-15.4 9 15.5 9 15.4-9-15.5-9zm19.9 11.5l-15.4 9 15.5 9 15.4-9-15.5-9zm20 11.5l-15.4 9 15.5 9 15.4-9-15.5-9zm19.9 11.5l-15.4 9 15.5 9 15.4-9-15.5-9zm20 29.5l15.4-9-15.5-9-15.4 9 15.5 9zm20 11.5l15.4-9-15.5-9-15.4 9 15.5 9zm19.9 11.5l15.4-9-15.5-9-15.4 9 15.5 9zm19.9 11.5l15.4-9-15.5-9-15.4 9 15.5 9zm-79.3-23.2l15.4-9-135.1-78-15.4 9 135.1 78z"/><g class="st3"><path class="st7" d="M801.1 1251.3l15.5-9 15.5 9-15.4 9z"/><path class="st26" d="M832.1 1251.3v4.1l-15.4 8.9v-4z"/><path class="st12" d="M816.7 1260.3v4l-15.6-8.9v-4.1z"/></g><g class="st3"><path class="st7" d="M821.1 1262.8l15.4-9 15.5 9-15.4 9z"/><path class="st26" d="M852 1262.8v4.1l-15.4 9v-4.1z"/><path class="st12" d="M836.6 1271.8v4.1l-15.6-9 .1-4.1z"/></g><g class="st3"><path class="st7" d="M841 1274.3l15.4-9 15.6 9-15.5 9z"/><path class="st26" d="M872 1274.3l-.1 4.1-15.4 9v-4.1z"/><path class="st12" d="M856.5 1283.3v4.1l-15.5-9v-4.1z"/></g><g class="st3"><path class="st7" d="M891.9 1285.8l-15.4 9-15.6-9 15.5-8.9z"/><path class="st26" d="M891.9 1285.8v4.1l-15.5 9 .1-4.1z"/><path class="st12" d="M876.5 1294.8l-.1 4.1-15.5-9v-4.1z"/></g><g class="st3"><path class="st7" d="M911.8 1297.3l-15.4 9-15.5-9 15.4-8.9z"/><path class="st26" d="M911.8 1297.3v4.1l-15.4 9v-4.1z"/><path class="st12" d="M896.4 1306.3v4.1l-15.6-9 .1-4.1z"/></g><g class="st3"><path class="st7" d="M931.7 1308.8l-15.4 9-15.5-9 15.4-8.9z"/><path class="st26" d="M931.7 1308.8v4.1l-15.4 9v-4.1z"/><path class="st12" d="M916.3 1317.8v4.1l-15.5-9v-4.1z"/></g><g class="st3"><path class="st7" d="M951.7 1320.3l-15.5 9-15.5-9 15.4-8.9z"/><path class="st26" d="M951.7 1320.3v4.1l-15.5 9v-4.1z"/><path class="st12" d="M936.2 1329.3v4.1l-15.5-9v-4.1z"/></g><g class="st3"><path class="st7" d="M971.6 1331.8l-15.4 9-15.6-9 15.5-8.9z"/><path class="st26" d="M971.6 1331.8v4.1l-15.4 9v-4.1z"/><path class="st12" d="M956.2 1340.8v4.1l-15.6-9v-4.1z"/></g><g class="st3"><path class="st7" d="M991.5 1343.4l-15.4 8.9-15.5-8.9 15.4-9z"/><path class="st26" d="M991.5 1343.4v4l-15.4 9v-4.1z"/><path class="st12" d="M976.1 1352.3v4.1l-15.5-9v-4z"/></g><g class="st3"><path class="st7" d="M980.5 1354.9l15.4-9 15.6 9-15.5 8.9z"/><path class="st26" d="M1011.5 1354.9v4l-15.5 9v-4.1z"/><path class="st12" d="M996 1363.8v4.1l-15.5-9v-4z"/></g><g class="st3"><path class="st7" d="M1000.4 1366.4l15.5-9 15.5 9-15.4 8.9z"/><path class="st26" d="M1031.4 1366.4v4l-15.4 9v-4.1z"/><path class="st12" d="M1016 1375.3v4.1l-15.6-9v-4z"/></g><g class="st3"><path class="st7" d="M1020.4 1377.9l15.4-9 15.5 9-15.4 8.9z"/><path class="st26" d="M1051.3 1377.9v4.1l-15.4 8.9v-4.1z"/><path class="st12" d="M1035.9 1386.8v4.1l-15.5-8.9v-4.1z"/></g><g class="st3"><path class="st7" d="M1055.7 1380.4l15.6 9-15.5 9-15.5-9z"/><path class="st26" d="M1071.3 1389.4l-.1 4.1-15.4 8.9v-4z"/><path class="st12" d="M1055.8 1398.4v4l-15.5-8.9v-4.1z"/></g><g class="st3"><path class="st7" d="M781.6 1262.7l15.4-9 15.6 9-15.5 8.9z"/><path class="st26" d="M812.6 1262.7l-.1 4-15.4 9v-4.1z"/><path class="st12" d="M797.1 1271.6v4.1l-15.5-9v-4z"/></g><g class="st3"><path class="st7" d="M801.5 1274.2l15.5-9 15.5 9-15.4 8.9z"/><path class="st26" d="M832.5 1274.2v4l-15.5 9 .1-4.1z"/><path class="st12" d="M817.1 1283.1l-.1 4.1-15.5-9v-4z"/></g><g class="st3"><path class="st7" d="M821.4 1285.7l15.5-9 15.5 9-15.4 8.9z"/><path class="st26" d="M852.4 1285.7v4l-15.4 9v-4.1z"/><path class="st12" d="M837 1294.6v4.1l-15.6-9v-4z"/></g><g class="st3"><path class="st7" d="M872.3 1297.2l-15.4 8.9-15.5-8.9 15.4-9z"/><path class="st26" d="M872.3 1297.2v4.1l-15.4 8.9v-4.1z"/><path class="st12" d="M856.9 1306.1v4.1l-15.5-8.9v-4.1z"/></g><g class="st3"><path class="st7" d="M892.3 1308.7l-15.5 9-15.5-9 15.4-9z"/><path class="st26" d="M892.3 1308.7v4.1l-15.5 8.9v-4z"/><path class="st12" d="M876.8 1317.7v4l-15.5-8.9v-4.1z"/></g><g class="st3"><path class="st7" d="M912.2 1320.2l-15.4 9-15.6-9 15.5-9z"/><path class="st26" d="M912.2 1320.2v4.1l-15.4 8.9v-4z"/><path class="st12" d="M896.8 1329.2v4l-15.6-8.9v-4.1z"/></g><g class="st3"><path class="st7" d="M932.1 1331.7l-15.4 9-15.5-9 15.4-9z"/><path class="st26" d="M932.1 1331.7v4.1l-15.4 8.9v-4z"/><path class="st12" d="M916.7 1340.7v4l-15.5-8.9v-4.1z"/></g><g class="st3"><path class="st7" d="M952.1 1343.2l-15.5 9-15.5-9 15.4-9z"/><path class="st26" d="M952.1 1343.2v4.1l-15.5 9v-4.1z"/><path class="st12" d="M936.6 1352.2v4.1l-15.5-9v-4.1z"/></g><g class="st3"><path class="st7" d="M972 1354.7l-15.4 9-15.6-9 15.5-9z"/><path class="st26" d="M972 1354.7v4.1l-15.4 9v-4.1z"/><path class="st12" d="M956.6 1363.7v4.1l-15.6-9v-4.1z"/></g><g class="st3"><path class="st7" d="M961 1366.2l15.4-8.9 15.5 8.9-15.4 9z"/><path class="st26" d="M991.9 1366.2v4.1l-15.4 9v-4.1z"/><path class="st12" d="M976.5 1375.2v4.1l-15.5-9v-4.1z"/></g><g class="st3"><path class="st7" d="M980.9 1377.7l15.4-8.9 15.6 8.9-15.5 9z"/><path class="st26" d="M1011.9 1377.7l-.1 4.1-15.4 9v-4.1z"/><path class="st12" d="M996.4 1386.7v4.1l-15.5-9v-4.1z"/></g><g class="st3"><path class="st7" d="M1000.8 1389.2l15.5-8.9 15.5 8.9-15.4 9z"/><path class="st26" d="M1031.8 1389.2v4.1l-15.5 9 .1-4.1z"/><path class="st12" d="M1016.4 1398.2l-.1 4.1-15.5-9v-4.1z"/></g><g class="st3"><path class="st7" d="M1020.7 1400.7l15.5-8.9 15.5 8.9-15.4 9z"/><path class="st26" d="M1051.7 1400.7v4.1l-15.4 9v-4.1z"/><path class="st12" d="M1036.3 1409.7v4.1l-15.6-9v-4.1z"/></g><g class="st3"><path class="st7" d="M762 1274l15.5-8.9 15.5 8.9-15.4 9z"/><path class="st26" d="M793 1274v4.1l-15.4 9v-4.1z"/><path class="st12" d="M777.6 1283v4.1l-15.6-9v-4.1z"/></g><g class="st3"><path class="st7" d="M782 1285.5l15.4-8.9 15.5 8.9-15.4 9z"/><path class="st26" d="M812.9 1285.5v4.1l-15.4 9v-4.1z"/><path class="st12" d="M797.5 1294.5v4.1l-15.5-9v-4.1z"/></g><g class="st3"><path class="st7" d="M801.9 1297l15.4-8.9 15.6 8.9-15.5 9z"/><path class="st26" d="M832.9 1297v4.1l-15.5 9v-4.1z"/><path class="st12" d="M817.4 1306v4.1l-15.5-9v-4.1z"/></g><g class="st3"><path class="st7" d="M852.8 1308.5l-15.4 9-15.6-9 15.5-8.9z"/><path class="st26" d="M852.8 1308.5v4.1l-15.4 9v-4.1z"/><path class="st12" d="M837.4 1317.5v4.1l-15.6-9v-4.1z"/></g><g class="st3"><path class="st7" d="M872.7 1320.1l-15.4 8.9-15.5-8.9 15.4-9z"/><path class="st26" d="M872.7 1320.1v4l-15.4 9v-4.1z"/><path class="st12" d="M857.3 1329v4.1l-15.6-9 .1-4z"/></g><g class="st3"><path class="st7" d="M892.7 1331.6l-15.5 8.9-15.5-8.9 15.4-9z"/><path class="st26" d="M892.7 1331.6l-.1 4-15.4 9v-4.1z"/><path class="st12" d="M877.2 1340.5v4.1l-15.5-9v-4z"/></g><g class="st3"><path class="st7" d="M912.6 1343.1l-15.4 8.9-15.6-8.9 15.5-9z"/><path class="st26" d="M912.6 1343.1v4l-15.5 9 .1-4.1z"/><path class="st12" d="M897.2 1352l-.1 4.1-15.5-9v-4z"/></g><g class="st3"><path class="st7" d="M932.5 1354.6l-15.4 8.9-15.6-8.9 15.5-9z"/><path class="st26" d="M932.5 1354.6v4l-15.4 9v-4.1z"/><path class="st12" d="M917.1 1363.5v4.1l-15.6-9v-4z"/></g><g class="st3"><path class="st7" d="M952.4 1366.1L937 1375l-15.5-8.9 15.4-9z"/><path class="st26" d="M952.4 1366.1v4.1l-15.4 8.9v-4.1z"/><path class="st12" d="M937 1375v4.1l-15.5-8.9v-4.1z"/></g><g class="st3"><path class="st7" d="M941.4 1377.6l15.4-9 15.6 9-15.5 9z"/><path class="st26" d="M972.4 1377.6v4.1l-15.5 8.9v-4z"/><path class="st12" d="M956.9 1386.6v4l-15.5-8.9v-4.1z"/></g><g class="st3"><path class="st7" d="M961.3 1389.1l15.5-9 15.5 9-15.4 9z"/><path class="st26" d="M992.3 1389.1v4.1l-15.4 8.9v-4z"/><path class="st12" d="M976.9 1398.1v4l-15.6-8.9v-4.1z"/></g><g class="st3"><path class="st7" d="M981.3 1400.6l15.4-9 15.5 9-15.4 9z"/><path class="st26" d="M1012.2 1400.6v4.1l-15.4 8.9v-4z"/><path class="st12" d="M996.8 1409.6v4l-15.5-8.9v-4.1z"/></g><g class="st3"><path class="st7" d="M1001.2 1412.1l15.4-9 15.6 9-15.5 9z"/><path class="st26" d="M1032.2 1412.1v4.1l-15.5 8.9v-4z"/><path class="st12" d="M1016.7 1421.1v4l-15.5-8.9v-4.1z"/></g><g class="st3"><path class="st7" d="M802.3 1319.9l15.4-9 135.1 78-15.4 9z"/><path class="st26" d="M952.8 1388.9v4.1l-15.4 9v-4.1z"/><path class="st12" d="M937.4 1397.9v4.1l-135.1-78v-4.1z"/></g><path class="st27" d="M892.4 1126l.2 54.9-32.5 18.7-.1-54.9z"/><path class="st27" d="M924.4 1144.6l.1 37.3-32.5 18.8-.1-37.3z"/><g class="st3"><path class="st27" d="M939.2 1153.1l.1 54.9-32.4 18.7-.2-54.9z"/><path class="st28" d="M939.2 1153.1l-16.2-9.4-.1.1-30.6-17.8h.1l-16.1-9.4-32.5 18.7 16 9.3h-.1l32.2 18.8.2-.1 14.6 8.5z"/></g><g class="st3"><path class="st27" d="M971.2 1153l.1 37.3-32.5 18.8-.1-37.3z"/><path class="st28" d="M938.7 1171.8l-32.2-18.8 32.4-18.7 32.3 18.7z"/></g><g class="st3"><path class="st27" d="M977.7 1174.8v18.8l-32.7 19-.1-18.9z"/><path class="st29" d="M938.8 1209l6.2 3.6-.1-18.9-6.1-3.5-.1-18.4-32.2-18.8v18.7l-15.9-9.2v.1l-30.6-17.8v-.1l-16.2-9.4.2 54.9 16.1 9.4v-17.5l30.6 17.8v17.4l16.2 9.4-.1-36.3 32 18.7z"/><path class="st28" d="M944.9 1193.7l-6.4-3.7 32.7-18.9 6.5 3.7z"/></g><g class="st3"><path class="st30" d="M955.9 1141.6l-6.5-3.8v-8.8l6.4 3.8z"/><path class="st31" d="M955.8 1132.8l-6.4-3.8 6.5-3.7 6.4 3.7zm-25.9 23.8l-6.5-3.8 26-15 6.5 3.8z"/><path class="st30" d="M923.4 1167.8l-6.4-3.8v-7.4l6.4 3.7z"/><path class="st31" d="M923.4 1151.5l-6.5-3.8 6.5-3.7 6.5 3.7z"/><path class="st30" d="M923.4 1160.3l-6.4-3.7-.1-8.9 6.5 3.8z"/><path class="st32" d="M962.3 1129v8.8l.1 7.4-39 22.6v-16.3l6.5-3.8v8.9l26-15-.1-8.8z"/></g><path class="st28" d="M921.5 1169.7l-3.2-1.9c-.1 0-.2-.1-.3-.1h-2.4c-.1 0-.3.1-.4.1h-.1s-.1 0-.1.1c0 0-.1 0-.1.1-.2.1-.3.2-.5.3s-.3.2-.5.3c-.1 0-.1.1-.2.1l-.3.3c-.1 0-.1.1-.2.2l-.3.3-.2.2-.1.1-.1.1c-.1.1-.2.3-.4.4l-.1.1-.1.1c-.1.1-.1.2-.2.3 0 .1-.1.1-.1.2l-.1.1c-.1.1-.1.1-.1.2l-.1.1c-.1.1-.1.2-.2.2 0 .1-.1.1-.1.2v.1c-.1.2-.2.3-.3.5 0 0 0 .1-.1.1-.1.1-.1.2-.2.3 0 .1-.1.1-.1.2s-.1.1-.1.2c0 0 0 .1-.1.1-.1.1-.1.3-.2.4v.1c-.1.2-.1.3-.2.5v.1c0 .1 0 .1-.1.2 0 .1-.1.2-.1.2 0 .1 0 .1-.1.2 0 .1 0 .1-.1.2v.1c0 .1 0 .2-.1.2 0 .1 0 .2-.1.3v.3c0 .1-.1.3-.1.4v1.2l3.2 1.9 10.8-6.2c.1-2-.5-3.2-1.5-3.7zm-3.2.1c.1-.1 0-.1 0 0zm.7-.3zm.4-.1s.1 0 0 0c.1 0 0 0 0 0zm.5-.1zm.4 0h.2-.2zm.5.1zm.4.1s.1 0 0 0c.1.1 0 0 0 0z"/><path class="st27" d="M917.7 1170.1c3-1.7 5.4-.3 5.4 3.1l-10.8 6.2c0-3.4 2.4-7.6 5.4-9.3z"/><path class="st8" d="M1141.6 1246.9l-105.5 61.3-106.2-61.3 105.5-61.3z"/><path class="st26" d="M1141.6 1246.9l-.1 20.3-105.5 61.3.1-20.3z"/><path class="st12" d="M1036.1 1308.2l-.1 20.3-106.2-61.3.1-20.3z"/><path class="st26" d="M1141.6 1246.9l-27.5 15.7-106.2-61.3 27.5-15.7z"/><path class="st12" d="M1124.3 1135l-.3 122-106.2-61.3.3-122z"/><path class="st26" d="M1124.3 1135l17.6-10.2-.3 122-17.6 10.2z"/><path class="st33" d="M1018.1 1073.7l17.6-10.2 106.2 61.3-17.6 10.2z"/><path class="st26" d="M1124.3 1135l-.3 75.2-106.2-61.4.3-75.1z"/><path class="st10" d="M1124.3 1088.1l17.6-10.2-.3 122-17.6 10.3z"/><path class="st12" d="M1286.2 969.9l-.9 322.5-471.6-272.2.9-322.6z"/><path class="st26" d="M1286.2 969.9l26.3-15.4-.9 322.6-26.3 15.3z"/><path class="st8" d="M814.6 697.6l26.4-15.3 471.5 272.2-26.3 15.4z"/><path class="st34" d="M838.8 1005.8l.7-264.9 421.6 243.4-.7 264.9z"/><path class="st7" d="M1094.4 945.7v154.5l-114.2-65.7V880z"/><path class="st8" d="M1078 1002.7l-.1 16.6-83.7-48.3.1-16.6zm0 23l-.1 16.6-83.7-48.3.1-16.6zm-34.2 17v5.5l-26.7-15.4v-5.6z"/><path class="st9" d="M1078 1055.8l-.1 16.6-27.9-16.1.1-16.6zm16.4-123.1v39.6l-114.2-65.7V867z"/><path class="st8" d="M1041.5 923c11.2 6.5 20.2 22.1 20.2 35 0 12.9-9.1 18.1-20.3 11.6-11.2-6.5-20.3-22.2-20.2-35 0-12.9 9.1-18 20.3-11.6z"/><linearGradient id="SVGID_21_" gradientUnits="userSpaceOnUse" x1="3064.268" y1="1195.74" x2="4984.268" y2="1195.74"><stop offset="0" stop-color="#eaf0fc"/><stop offset=".437" stop-color="#f5f8fe"/><stop offset="1" stop-color="#fff"/></linearGradient><path fill="url(#SVGID_21_)" d="M3064.3 655.7h1920v1080h-1920z"/><linearGradient id="SVGID_22_" gradientUnits="userSpaceOnUse" x1="4733.822" y1="801.715" x2="4897.315" y2="801.715"><stop offset="0" stop-color="#eaf0fc"/><stop offset=".207" stop-color="#edf2fd"/><stop offset="1" stop-color="#f5f8fe"/></linearGradient><path fill="url(#SVGID_22_)" d="M4733.8 809.6l9.3-24.8 71-20 72.7 20.2 10.5 25.4-38.2 28.2h-84.8z"/><linearGradient id="SVGID_23_" gradientUnits="userSpaceOnUse" x1="4733.822" y1="758.028" x2="4897.315" y2="758.028"><stop offset="0" stop-color="#92b1f1"/><stop offset=".227" stop-color="#aec5f5"/><stop offset=".55" stop-color="#cfdcf9"/><stop offset=".82" stop-color="#e3ebfb"/><stop offset="1" stop-color="#eaf0fc"/></linearGradient><path fill="url(#SVGID_23_)" d="M4733.8 759.2l9.3-24.8 71-20.1 72.7 20.2 10.5 25.4v13.6l-38.2 28.2h-84.8l-40.5-29z"/><path class="st7" d="M4733.8 759.2l9.3-24.8 71-20.1 72.7 20.2 10.5 25.4-38.2 28.2-84.8.1z"/><linearGradient id="SVGID_24_" gradientUnits="userSpaceOnUse" x1="4572.616" y1="957.574" x2="4783.32" y2="957.574"><stop offset="0" stop-color="#eaf0fc"/><stop offset=".207" stop-color="#edf2fd"/><stop offset="1" stop-color="#f5f8fe"/></linearGradient><path fill="url(#SVGID_24_)" d="M4572.6 967.8l11.9-32L4676 910l93.8 26.1 13.5 32.6-49.3 36.4h-109.3z"/><linearGradient id="SVGID_25_" gradientUnits="userSpaceOnUse" x1="4572.616" y1="901.271" x2="4783.32" y2="901.271"><stop offset="0" stop-color="#92b1f1"/><stop offset=".227" stop-color="#aec5f5"/><stop offset=".55" stop-color="#cfdcf9"/><stop offset=".82" stop-color="#e3ebfb"/><stop offset="1" stop-color="#eaf0fc"/></linearGradient><path fill="url(#SVGID_25_)" d="M4572.6 902.7l11.9-31.9L4676 845l93.8 26 13.5 32.7v17.5l-49.3 36.3-109.3.1-52.1-37.4z"/><path class="st7" d="M4572.6 902.7l11.9-31.9L4676 845l93.8 26 13.5 32.7-49.3 36.4h-109.3z"/><linearGradient id="SVGID_26_" gradientUnits="userSpaceOnUse" x1="4869.601" y1="957.574" x2="5080.305" y2="957.574"><stop offset="0" stop-color="#eaf0fc"/><stop offset=".207" stop-color="#edf2fd"/><stop offset="1" stop-color="#f5f8fe"/></linearGradient><path fill="url(#SVGID_26_)" d="M4869.6 967.8l11.9-32L4973 910l93.8 26.1 13.5 32.6-49.3 36.4h-109.3z"/><linearGradient id="SVGID_27_" gradientUnits="userSpaceOnUse" x1="4869.601" y1="901.271" x2="5080.305" y2="901.271"><stop offset="0" stop-color="#92b1f1"/><stop offset=".227" stop-color="#aec5f5"/><stop offset=".55" stop-color="#cfdcf9"/><stop offset=".82" stop-color="#e3ebfb"/><stop offset="1" stop-color="#eaf0fc"/></linearGradient><path fill="url(#SVGID_27_)" d="M4869.6 902.7l11.9-31.9L4973 845l93.8 26 13.5 32.7v17.5l-49.3 36.3-109.3.1-52.1-37.4z"/><path class="st7" d="M4869.6 902.7l11.9-31.9L4973 845l93.8 26 13.5 32.7-49.3 36.4h-109.3z"/><path class="st9" d="M1995 3149h244v244h-244z"/></svg>