<?xml version="1.0" encoding="utf-8"?>
<!-- Generator: Adobe Illustrator 22.0.1, SVG Export Plug-In . SVG Version: 6.00 Build 0)  -->
<svg version="1.1" id="Layer_1" xmlns="http://www.w3.org/2000/svg" xmlns:xlink="http://www.w3.org/1999/xlink" x="0px" y="0px"
	 viewBox="0 0 1920 1080" style="enable-background:new 0 0 1920 1080;" xml:space="preserve">
<style type="text/css">
	.st0{fill:url(#SVGID_1_);}
	.st1{fill:#1F438F;}
	.st2{fill:#0C1B39;}
	.st3{fill:#122856;}
	.st4{fill:#162F65;}
	.st5{fill:#1B397A;}
	.st6{fill:#1F4390;}
	.st7{fill:#244EA5;}
	.st8{fill:#2958BA;}
	.st9{fill:#2D62D0;}
	.st10{fill:#326CE5;}
	.st11{fill:url(#SVGID_2_);}
	.st12{fill:none;stroke:url(#SVGID_3_);stroke-width:4;stroke-miterlimit:10;}
	.st13{fill:none;stroke:url(#SVGID_4_);stroke-width:4;stroke-miterlimit:10;}
	.st14{fill:none;stroke:url(#SVGID_5_);stroke-width:4;stroke-miterlimit:10;}
	.st15{fill:none;stroke:url(#SVGID_6_);stroke-width:4;stroke-miterlimit:10;}
	.st16{fill:none;stroke:url(#SVGID_7_);stroke-width:4;stroke-miterlimit:10;}
	.st17{fill:none;stroke:url(#SVGID_8_);stroke-width:4;stroke-miterlimit:10;}
	.st18{fill:none;stroke:url(#SVGID_9_);stroke-width:4;stroke-miterlimit:10;}
	.st19{fill:url(#SVGID_10_);}
	.st20{fill:url(#SVGID_11_);}
	.st21{fill:#2C5EC8;}
	.st22{opacity:0.3;fill:#00FFFF;}
	.st23{opacity:0.5;fill:url(#SVGID_12_);}
	.st24{opacity:0.5;fill:url(#SVGID_13_);}
	.st25{opacity:0.5;fill:url(#SVGID_14_);}
	.st26{opacity:0.5;fill:url(#SVGID_15_);}
	.st27{opacity:0.5;fill:url(#SVGID_16_);}
	.st28{opacity:0.5;fill:url(#SVGID_17_);}
	.st29{opacity:0.5;fill:url(#SVGID_18_);}
	.st30{fill:url(#SVGID_19_);}
</style>
<title>header-1</title>
<linearGradient id="SVGID_1_" gradientUnits="userSpaceOnUse" x1="-2" y1="541.3376" x2="1918" y2="541.3376">
	<stop  offset="0" style="stop-color:#193672"/>
	<stop  offset="0.1722" style="stop-color:#1C3E83"/>
	<stop  offset="0.4707" style="stop-color:#214899"/>
	<stop  offset="0.753" style="stop-color:#244FA7"/>
	<stop  offset="1" style="stop-color:#2551AC"/>
</linearGradient>
<rect x="-2" y="1.3" class="st0" width="1920" height="1080"/>
<path class="st1" d="M1645.2,779.7c0.4,0.3,0.9,0.5,1.3,0.8c4.2,2.8,7.1,6.1,8.6,9.7l51.3,123.8c2.7,6.5,0.1,13.3-6.9,18.5
	l-134.5,99.3c-7.1,5.2-17.9,8.3-29.3,8.3l-218.9,0.1c-10.1,0-19.7-2.4-26.8-6.5c-1-0.6-1.9-1.2-2.8-1.8l-138.5-99.3
	c-7.3-5.2-10.1-11.9-7.8-18.4l46.2-123.9c0.3-0.7,0.6-1.4,1-2.1c3.1-5.6,10.1-10.3,19.3-12.9l195.8-55.3c10.3-2.9,22.4-2.9,32.7,0
	l198.5,55.1C1638.3,776.4,1642,777.9,1645.2,779.7z"/>
<path class="st2" d="M1645.2,716.2c0.4,0.3,0.9,0.5,1.3,0.8c4.2,2.8,7.1,6.1,8.6,9.7l51.3,123.8c2.7,6.5,0.1,13.3-6.9,18.5
	L1565,968.3c-7.1,5.2-17.9,8.3-29.3,8.3l-218.9,0.1c-10.1,0-19.7-2.4-26.8-6.5c-1-0.6-1.9-1.2-2.8-1.8l-138.5-99.3
	c-7.3-5.2-10.1-11.9-7.8-18.4l46.2-123.9c0.3-0.7,0.6-1.4,1-2.1c3.1-5.6,10.1-10.3,19.3-12.9l195.8-55.3c10.3-2.9,22.4-2.9,32.7,0
	l198.5,55.1C1638.3,712.9,1642,714.4,1645.2,716.2z"/>
<path class="st3" d="M1645.2,702.3c0.4,0.3,0.9,0.5,1.3,0.8c4.2,2.8,7.1,6.1,8.6,9.7l51.3,123.8c2.7,6.5,0.1,13.3-6.9,18.5
	L1565,954.4c-7.1,5.2-17.9,8.3-29.3,8.3l-218.9,0.1c-10.1,0-19.7-2.4-26.8-6.5c-1-0.6-1.9-1.2-2.8-1.8l-138.5-99.3
	c-7.3-5.2-10.1-11.9-7.8-18.4l46.2-123.9c0.3-0.7,0.6-1.4,1-2.1c3.1-5.6,10.1-10.3,19.3-12.9l195.8-55.3c10.3-2.9,22.4-2.9,32.7,0
	l198.5,55.1C1638.3,699,1642,700.5,1645.2,702.3z"/>
<g>
	<path class="st4" d="M1317.1,923.6c-2.5,0-4.3-0.4-5.1-0.7l-122.2-87.6l34.5-92.4l190.9-53.9c1.3-0.4,2.9-0.6,4.6-0.6
		c1.7,0,3.4,0.2,4.7,0.6l194.6,54.1l38.7,93.3l-117.2,86.6c-0.8,0.2-2.4,0.6-4.5,0.6L1317.1,923.6z"/>
	<path class="st5" d="M1657.7,756.9l-117.2,86.6c-0.8,0.2-2.4,0.6-4.5,0.6l-218.9,0.1c-2.5,0-4.3-0.4-5.1-0.7l-122.2-87.6l34.5-92.4
		l190.9-53.9c1.3-0.4,2.9-0.6,4.6-0.6c1.7,0,3.4,0.2,4.7,0.6l194.6,54.1L1657.7,756.9z"/>
	<path class="st6" d="M1657.7,677.4L1540.5,764c-0.8,0.2-2.4,0.6-4.5,0.6l-218.9,0.1c-2.5,0-4.3-0.4-5.1-0.7l-122.2-87.6l34.5-92.4
		l190.9-53.9c1.3-0.4,2.9-0.6,4.6-0.6c1.7,0,3.4,0.2,4.7,0.6l194.6,54.1L1657.7,677.4z"/>
	<path class="st7" d="M1657.7,597.9l-117.2,86.6c-0.8,0.2-2.4,0.6-4.5,0.6l-218.9,0.1c-2.5,0-4.3-0.4-5.1-0.7l-122.2-87.6l34.5-92.4
		l190.9-53.9c1.3-0.4,2.9-0.6,4.6-0.6c1.7,0,3.4,0.2,4.7,0.6l194.6,54.1L1657.7,597.9z"/>
	<path class="st8" d="M1657.7,518.4L1540.5,605c-0.8,0.2-2.4,0.6-4.5,0.6l-218.9,0.1c-2.5,0-4.3-0.4-5.1-0.7l-122.2-87.6l34.5-92.4
		l190.9-53.9c1.3-0.4,2.9-0.6,4.6-0.6c1.7,0,3.4,0.2,4.7,0.6l194.6,54.1L1657.7,518.4z"/>
	<path class="st9" d="M1657.7,438.9l-117.2,86.6c-0.8,0.2-2.4,0.6-4.5,0.6l-218.9,0.1c-2.5,0-4.3-0.4-5.1-0.7l-122.2-87.6l34.5-92.4
		l190.9-53.9c1.3-0.4,2.9-0.6,4.6-0.6c1.7,0,3.4,0.2,4.7,0.6l194.6,54.1L1657.7,438.9z"/>
	<path class="st10" d="M1317.1,446.6c-2.5,0-4.3-0.4-5.1-0.7l-122.2-87.6l34.5-92.4l190.9-53.9c1.3-0.4,2.9-0.6,4.6-0.6
		c1.7,0,3.4,0.2,4.7,0.6l194.6,54.1l38.7,93.3L1540.5,446c-0.8,0.2-2.4,0.6-4.5,0.6L1317.1,446.6z"/>
</g>
<linearGradient id="SVGID_2_" gradientUnits="userSpaceOnUse" x1="1629.6337" y1="962.061" x2="1629.6337" y2="367.034">
	<stop  offset="0" style="stop-color:#224899;stop-opacity:0"/>
	<stop  offset="1" style="stop-color:#1E3F86;stop-opacity:0.9"/>
</linearGradient>
<path class="st11" d="M1707.4,367c0.2,5-2.6,9.9-8,13.9L1565,480.2c-3.6,2.6-8.1,4.7-13.1,6.1v475.7c5.1-1.4,9.6-3.5,13.1-6.1
	l134.5-99.3c5-3.7,7.7-8.2,7.9-12.8h0L1707.4,367L1707.4,367z"/>
<g>
	<linearGradient id="SVGID_3_" gradientUnits="userSpaceOnUse" x1="1188.6139" y1="879.0763" x2="1313.1228" y2="879.0763">
		<stop  offset="0" style="stop-color:#326CE5"/>
		<stop  offset="0.1308" style="stop-color:#278DEB"/>
		<stop  offset="0.3204" style="stop-color:#19B5F2"/>
		<stop  offset="0.5062" style="stop-color:#0ED6F8"/>
		<stop  offset="0.6848" style="stop-color:#06ECFC"/>
		<stop  offset="0.853" style="stop-color:#02FAFE"/>
		<stop  offset="1" style="stop-color:#00FFFF"/>
	</linearGradient>
	<line class="st12" x1="1312" y1="922.9" x2="1189.8" y2="835.3"/>
	<linearGradient id="SVGID_4_" gradientUnits="userSpaceOnUse" x1="1188.6139" y1="799.5819" x2="1313.1228" y2="799.5819">
		<stop  offset="0" style="stop-color:#326CE5"/>
		<stop  offset="0.1308" style="stop-color:#278DEB"/>
		<stop  offset="0.3204" style="stop-color:#19B5F2"/>
		<stop  offset="0.5062" style="stop-color:#0ED6F8"/>
		<stop  offset="0.6848" style="stop-color:#06ECFC"/>
		<stop  offset="0.853" style="stop-color:#02FAFE"/>
		<stop  offset="1" style="stop-color:#00FFFF"/>
	</linearGradient>
	<line class="st13" x1="1312" y1="843.4" x2="1189.8" y2="755.8"/>
	<linearGradient id="SVGID_5_" gradientUnits="userSpaceOnUse" x1="1188.6139" y1="720.0875" x2="1313.1229" y2="720.0875">
		<stop  offset="0" style="stop-color:#326CE5"/>
		<stop  offset="0.1308" style="stop-color:#278DEB"/>
		<stop  offset="0.3204" style="stop-color:#19B5F2"/>
		<stop  offset="0.5062" style="stop-color:#0ED6F8"/>
		<stop  offset="0.6848" style="stop-color:#06ECFC"/>
		<stop  offset="0.853" style="stop-color:#02FAFE"/>
		<stop  offset="1" style="stop-color:#00FFFF"/>
	</linearGradient>
	<line class="st14" x1="1312" y1="763.9" x2="1189.8" y2="676.3"/>
	<linearGradient id="SVGID_6_" gradientUnits="userSpaceOnUse" x1="1188.6139" y1="640.5931" x2="1313.1229" y2="640.5931">
		<stop  offset="0" style="stop-color:#326CE5"/>
		<stop  offset="0.1308" style="stop-color:#278DEB"/>
		<stop  offset="0.3204" style="stop-color:#19B5F2"/>
		<stop  offset="0.5062" style="stop-color:#0ED6F8"/>
		<stop  offset="0.6848" style="stop-color:#06ECFC"/>
		<stop  offset="0.853" style="stop-color:#02FAFE"/>
		<stop  offset="1" style="stop-color:#00FFFF"/>
	</linearGradient>
	<line class="st15" x1="1312" y1="684.4" x2="1189.8" y2="596.8"/>
	<linearGradient id="SVGID_7_" gradientUnits="userSpaceOnUse" x1="1188.6139" y1="561.0987" x2="1313.123" y2="561.0987">
		<stop  offset="0" style="stop-color:#326CE5"/>
		<stop  offset="0.1308" style="stop-color:#278DEB"/>
		<stop  offset="0.3204" style="stop-color:#19B5F2"/>
		<stop  offset="0.5062" style="stop-color:#0ED6F8"/>
		<stop  offset="0.6848" style="stop-color:#06ECFC"/>
		<stop  offset="0.853" style="stop-color:#02FAFE"/>
		<stop  offset="1" style="stop-color:#00FFFF"/>
	</linearGradient>
	<line class="st16" x1="1312" y1="604.9" x2="1189.8" y2="517.3"/>
	<linearGradient id="SVGID_8_" gradientUnits="userSpaceOnUse" x1="1188.6139" y1="481.6043" x2="1313.123" y2="481.6043">
		<stop  offset="0" style="stop-color:#326CE5"/>
		<stop  offset="0.1308" style="stop-color:#278DEB"/>
		<stop  offset="0.3204" style="stop-color:#19B5F2"/>
		<stop  offset="0.5062" style="stop-color:#0ED6F8"/>
		<stop  offset="0.6848" style="stop-color:#06ECFC"/>
		<stop  offset="0.853" style="stop-color:#02FAFE"/>
		<stop  offset="1" style="stop-color:#00FFFF"/>
	</linearGradient>
	<line class="st17" x1="1312" y1="525.4" x2="1189.8" y2="437.8"/>
	<linearGradient id="SVGID_9_" gradientUnits="userSpaceOnUse" x1="1188.6139" y1="402.1099" x2="1313.1232" y2="402.1099">
		<stop  offset="0" style="stop-color:#326CE5"/>
		<stop  offset="0.1308" style="stop-color:#278DEB"/>
		<stop  offset="0.3204" style="stop-color:#19B5F2"/>
		<stop  offset="0.5062" style="stop-color:#0ED6F8"/>
		<stop  offset="0.6848" style="stop-color:#06ECFC"/>
		<stop  offset="0.853" style="stop-color:#02FAFE"/>
		<stop  offset="1" style="stop-color:#00FFFF"/>
	</linearGradient>
	<line class="st18" x1="1312" y1="445.9" x2="1189.8" y2="358.3"/>
</g>
<linearGradient id="SVGID_10_" gradientUnits="userSpaceOnUse" x1="1423.7472" y1="964.2722" x2="1423.7472" y2="484.8451">
	<stop  offset="0" style="stop-color:#224899;stop-opacity:0"/>
	<stop  offset="1" style="stop-color:#1E3F86;stop-opacity:0.9"/>
</linearGradient>
<path class="st19" d="M1535.6,488.5l-218.9,0.1c-7.6,0-14.9-1.3-21.1-3.7v475.7c6.2,2.4,13.5,3.7,21,3.7l218.9-0.1
	c5.7,0,11.2-0.7,16.2-2.1V486.3C1546.8,487.7,1541.3,488.5,1535.6,488.5z"/>
<linearGradient id="SVGID_11_" gradientUnits="userSpaceOnUse" x1="1217.8658" y1="960.5628" x2="1217.8658" y2="367.034">
	<stop  offset="0" style="stop-color:#224899;stop-opacity:0"/>
	<stop  offset="1" style="stop-color:#1E3F86;stop-opacity:0.9"/>
</linearGradient>
<path class="st20" d="M1289.9,482.1c-1-0.6-1.9-1.2-2.8-1.8L1148.6,381c-5.6-4-8.6-8.9-8.6-14h0v471.3c0,7.9,1.3,13.3,8.6,18.4
	l138.5,99.3c0.9,0.6,1.8,1.2,2.8,1.8c1.8,1,3.7,1.9,5.8,2.7V484.8C1293.6,484,1291.7,483.1,1289.9,482.1z"/>
<path class="st21" d="M1645.2,241.4c0.4,0.3,0.9,0.5,1.3,0.8c4.2,2.8,7.1,6.1,8.6,9.7l51.3,123.8c2.7,6.5,0.1,13.3-6.9,18.5
	L1565,493.6c-7.1,5.2-17.9,8.3-29.3,8.3l-218.9,0.1c-10.1,0-19.7-2.4-26.8-6.5c-1-0.6-1.9-1.2-2.8-1.8l-138.5-99.3
	c-7.3-5.2-10.1-11.9-7.8-18.4l46.2-123.9c0.3-0.7,0.6-1.4,1-2.1c3.1-5.6,10.1-10.3,19.3-12.9l195.8-55.3c10.3-2.9,22.4-2.9,32.7,0
	l198.5,55.1C1638.3,238.1,1642,239.6,1645.2,241.4z"/>
<path class="st10" d="M1645.2,227.5c0.4,0.3,0.9,0.5,1.3,0.8c4.2,2.8,7.1,6.1,8.6,9.7l51.3,123.8c2.7,6.5,0.1,13.3-6.9,18.5
	L1565,479.6c-7.1,5.2-17.9,8.3-29.3,8.3l-218.9,0.1c-10.1,0-19.7-2.4-26.8-6.5c-1-0.6-1.9-1.2-2.8-1.8l-138.5-99.3
	c-7.3-5.2-10.1-11.9-7.8-18.4l46.2-123.9c0.3-0.7,0.6-1.4,1-2.1c3.1-5.6,10.1-10.3,19.3-12.9L1403,168c10.3-2.9,22.4-2.9,32.7,0
	l198.5,55.1C1638.3,224.2,1642,225.7,1645.2,227.5z"/>
<polygon class="st22" points="1220.9,346.6 1243.8,285.3 1419.4,235.7 1599.5,285.7 1625.5,348.4 1530.9,418.3 1321,418.3 "/>
<linearGradient id="SVGID_12_" gradientUnits="userSpaceOnUse" x1="1301.9633" y1="292.4039" x2="1361.2615" y2="-190.542">
	<stop  offset="0" style="stop-color:#00FFFF"/>
	<stop  offset="1" style="stop-color:#224899;stop-opacity:0"/>
</linearGradient>
<polygon class="st23" points="1243.8,285.3 1243.8,-133.8 1419.4,-183.4 1419.4,235.7 "/>
<linearGradient id="SVGID_13_" gradientUnits="userSpaceOnUse" x1="1482.4169" y1="271.3134" x2="1536.4839" y2="-169.0274">
	<stop  offset="0" style="stop-color:#00FFFF"/>
	<stop  offset="1" style="stop-color:#224899;stop-opacity:0"/>
</linearGradient>
<polygon class="st24" points="1419.4,235.7 1599.5,285.7 1599.5,-133.4 1419.4,-183.4 "/>
<linearGradient id="SVGID_14_" gradientUnits="userSpaceOnUse" x1="1583.519" y1="343.2495" x2="1641.4104" y2="-128.2371">
	<stop  offset="0" style="stop-color:#00FFFF"/>
	<stop  offset="1" style="stop-color:#224899;stop-opacity:0"/>
</linearGradient>
<polygon class="st25" points="1625.5,348.4 1599.5,285.7 1599.5,-133.4 1625.5,-70.7 "/>
<linearGradient id="SVGID_15_" gradientUnits="userSpaceOnUse" x1="1445.5656" y1="356.3046" x2="1710.7616" y2="-8.7065">
	<stop  offset="0" style="stop-color:#00FFFF"/>
	<stop  offset="9.156168e-02" style="stop-color:#05E7F1;stop-opacity:0.9084"/>
	<stop  offset="0.3233" style="stop-color:#0FAFD2;stop-opacity:0.6767"/>
	<stop  offset="0.5382" style="stop-color:#1782B9;stop-opacity:0.4618"/>
	<stop  offset="0.7293" style="stop-color:#1D62A8;stop-opacity:0.2707"/>
	<stop  offset="0.8898" style="stop-color:#214F9D;stop-opacity:0.1102"/>
	<stop  offset="1" style="stop-color:#224899;stop-opacity:0"/>
</linearGradient>
<polygon class="st26" points="1530.9,418.3 1530.9,-0.8 1625.5,-70.7 1625.5,348.4 "/>
<linearGradient id="SVGID_16_" gradientUnits="userSpaceOnUse" x1="1290.0017" y1="395.8164" x2="1561.8175" y2="21.6942">
	<stop  offset="0" style="stop-color:#00FFFF"/>
	<stop  offset="9.156168e-02" style="stop-color:#05E7F1;stop-opacity:0.9084"/>
	<stop  offset="0.3233" style="stop-color:#0FAFD2;stop-opacity:0.6767"/>
	<stop  offset="0.5382" style="stop-color:#1782B9;stop-opacity:0.4618"/>
	<stop  offset="0.7293" style="stop-color:#1D62A8;stop-opacity:0.2707"/>
	<stop  offset="0.8898" style="stop-color:#214F9D;stop-opacity:0.1102"/>
	<stop  offset="1" style="stop-color:#224899;stop-opacity:0"/>
</linearGradient>
<polygon class="st27" points="1530.9,418.3 1530.9,-0.8 1321,-0.8 1321,418.3 "/>
<linearGradient id="SVGID_17_" gradientUnits="userSpaceOnUse" x1="1114.1761" y1="269.0238" x2="1350.5131" y2="-56.266">
	<stop  offset="0" style="stop-color:#00FFFF"/>
	<stop  offset="1" style="stop-color:#224899;stop-opacity:0"/>
</linearGradient>
<polygon class="st28" points="1243.8,285.3 1243.8,-133.8 1220.9,-72.5 1220.9,346.6 "/>
<linearGradient id="SVGID_18_" gradientUnits="userSpaceOnUse" x1="1171.0873" y1="310.3722" x2="1370.8208" y2="35.4625">
	<stop  offset="0" style="stop-color:#00FFFF"/>
	<stop  offset="9.156168e-02" style="stop-color:#05E7F1;stop-opacity:0.9084"/>
	<stop  offset="0.3233" style="stop-color:#0FAFD2;stop-opacity:0.6767"/>
	<stop  offset="0.5382" style="stop-color:#1782B9;stop-opacity:0.4618"/>
	<stop  offset="0.7293" style="stop-color:#1D62A8;stop-opacity:0.2707"/>
	<stop  offset="0.8898" style="stop-color:#214F9D;stop-opacity:0.1102"/>
	<stop  offset="1" style="stop-color:#224899;stop-opacity:0"/>
</linearGradient>
<polygon class="st29" points="1321,418.3 1321,-0.7 1220.9,-72.5 1220.9,346.6 "/>
<linearGradient id="SVGID_19_" gradientUnits="userSpaceOnUse" x1="1228.4139" y1="420.217" x2="1242.3533" y2="220.8751">
	<stop  offset="0" style="stop-color:#224899;stop-opacity:0"/>
	<stop  offset="1" style="stop-color:#193672"/>
</linearGradient>
<path class="st30" d="M1321,418.3l-100.1-71.8V219.4l-16.4,4.7c0,0-13.1,2.5-19.1,18.5c-6,16-43.2,115.7-43.2,115.7
	s-7.5,11.1,3.5,19.8c11,8.7,55.8,40.3,55.8,40.3H1321z"/>
</svg>
