<svg xmlns="http://www.w3.org/2000/svg" viewBox="0 0 1920 1080"><linearGradient id="a" gradientUnits="userSpaceOnUse" x1="1.538" y1="543" x2="1921.537" y2="543"><stop offset="0" stop-color="#1f438f"/><stop offset=".086" stop-color="#22499c"/><stop offset=".334" stop-color="#2958bc"/><stop offset=".575" stop-color="#2e63d2"/><stop offset=".802" stop-color="#316ae0"/><stop offset="1" stop-color="#326ce5"/></linearGradient><path fill="url(#a)" d="M1.5 3h1920v1080H1.5z"/><linearGradient id="b" gradientUnits="userSpaceOnUse" x1="1200.965" y1="541.5" x2="2305.662" y2="541.5"><stop offset="0" stop-color="#fff" stop-opacity=".2"/><stop offset="1" stop-color="#fff" stop-opacity="0"/></linearGradient><path fill="url(#b)" d="M1753.3 3l-442.9 213.3L1201 695.6l306.5 384.4h491.6l306.6-384.4-109.4-479.3z"/><linearGradient id="c" gradientUnits="userSpaceOnUse" x1="831.965" y1="910.5" x2="1936.662" y2="910.5"><stop offset="0" stop-color="#fff" stop-opacity=".2"/><stop offset="1" stop-color="#fff" stop-opacity="0"/></linearGradient><path fill="url(#c)" d="M1384.3 372L941.4 585.3 832 1064.6l306.5 384.4h491.6l306.6-384.4-109.4-479.3z"/><linearGradient id="d" gradientUnits="userSpaceOnUse" x1="305.965" y1="858.5" x2="986.538" y2="858.5"><stop offset="0" stop-color="#fff" stop-opacity=".2"/><stop offset="1" stop-color="#fff" stop-opacity="0"/></linearGradient><path fill="url(#d)" d="M646.3 526.7L373.4 658.2 306 953.5l188.8 236.8h302.9l188.8-236.8-67.4-295.3z"/><linearGradient id="e" gradientUnits="userSpaceOnUse" x1="51.965" y1="126.671" x2="160.537" y2="126.671"><stop offset="0" stop-color="#fff" stop-opacity=".2"/><stop offset="1" stop-color="#fff" stop-opacity="0"/></linearGradient><path fill="url(#e)" d="M106.3 73.7l-43.6 21L52 141.8l30.1 37.8h48.3l30.1-37.8-10.7-47.1z"/><linearGradient id="f" gradientUnits="userSpaceOnUse" x1="601.538" y1="48.5" x2="1061.537" y2="48.5"><stop offset="0" stop-color="#fff" stop-opacity=".2"/><stop offset="1" stop-color="#fff" stop-opacity="0"/></linearGradient><path fill="url(#f)" d="M831.5-175.7L647.1-86.9l-45.6 199.6 127.7 160h204.7l127.6-160L1016-86.9z"/><linearGradient id="g" gradientUnits="userSpaceOnUse" x1="869.965" y1="74.5" x2="1974.662" y2="74.5"><stop offset="0" stop-color="#fff" stop-opacity=".2"/><stop offset="1" stop-color="#fff" stop-opacity="0"/></linearGradient><path fill="url(#g)" d="M1422.3-464L979.4-250.7 870 228.6 1176.5 613h491.6l306.6-384.4-109.4-479.3z"/><linearGradient id="h" gradientUnits="userSpaceOnUse" x1="984.064" y1="35.79" x2="1139.011" y2="35.79"><stop offset="0" stop-color="#fff" stop-opacity=".2"/><stop offset="1" stop-color="#fff" stop-opacity="0"/></linearGradient><path fill="url(#h)" d="M1061.5-39.7L999.4-9.8l-15.3 67.2 43 53.9h68.9l43-53.9-15.3-67.2z"/><linearGradient id="i" gradientUnits="userSpaceOnUse" x1="1392.238" y1="4.991" x2="1455.42" y2="4.991"><stop offset="0" stop-color="#fff" stop-opacity=".2"/><stop offset="1" stop-color="#fff" stop-opacity="0"/></linearGradient><path fill="url(#i)" d="M1423.8-25.8l-25.3 12.2-6.3 27.4 17.6 22h28.1l17.5-22-6.2-27.4z"/><linearGradient id="j" gradientUnits="userSpaceOnUse" x1="1344.472" y1="222.841" x2="1534.599" y2="222.841"><stop offset="0" stop-color="#fff" stop-opacity=".2"/><stop offset="1" stop-color="#fff" stop-opacity="0"/></linearGradient><path fill="url(#j)" d="M1439.5 130.2l-76.2 36.7-18.8 82.5 52.7 66.1h84.6l52.8-66.1-18.8-82.5z"/><linearGradient id="k" gradientUnits="userSpaceOnUse" x1="1383.655" y1="113.431" x2="1587.796" y2="113.431"><stop offset="0" stop-color="#fff" stop-opacity=".2"/><stop offset="1" stop-color="#fff" stop-opacity="0"/></linearGradient><path fill="url(#k)" d="M1485.7 13.9l-81.8 39.4-20.2 88.6 56.6 71h90.9l56.6-71-20.2-88.6z"/><linearGradient id="l" gradientUnits="userSpaceOnUse" x1="1404.615" y1="226.06" x2="1495.976" y2="226.06"><stop offset="0" stop-color="#fff" stop-opacity=".2"/><stop offset="1" stop-color="#fff" stop-opacity="0"/></linearGradient><path fill="url(#l)" d="M1450.3 181.5l-36.6 17.7-9.1 39.6 25.4 31.8h40.6l25.4-31.8-9.1-39.6z"/><linearGradient id="m" gradientUnits="userSpaceOnUse" x1="1619.701" y1="101.031" x2="1656.376" y2="101.031"><stop offset="0" stop-color="#fff" stop-opacity=".2"/><stop offset="1" stop-color="#fff" stop-opacity="0"/></linearGradient><path fill="url(#m)" d="M1638 83.2l-14.7 7-3.6 15.9 10.2 12.8h16.3l10.2-12.8-3.7-15.9z"/><linearGradient id="n" gradientUnits="userSpaceOnUse" x1="1450.325" y1="266.082" x2="1615.671" y2="266.082"><stop offset="0" stop-color="#fff" stop-opacity=".2"/><stop offset="1" stop-color="#fff" stop-opacity="0"/></linearGradient><path fill="url(#n)" d="M1533 185.5l-66.3 31.9-16.4 71.8 45.9 57.5h73.6l45.9-57.5-16.4-71.8z"/><linearGradient id="o" gradientUnits="userSpaceOnUse" x1="1734.551" y1="72.81" x2="1970.637" y2="72.81"><stop offset="0" stop-color="#fff" stop-opacity=".2"/><stop offset="1" stop-color="#fff" stop-opacity="0"/></linearGradient><path fill="url(#o)" d="M1852.6-42.3l-94.7 45.6-23.3 102.4 65.5 82.2h105l65.5-82.2-23.3-102.4z"/><linearGradient id="p" gradientUnits="userSpaceOnUse" x1="1519.656" y1="388.528" x2="1740.016" y2="388.528"><stop offset="0" stop-color="#fff" stop-opacity=".2"/><stop offset="1" stop-color="#fff" stop-opacity="0"/></linearGradient><path fill="url(#p)" d="M1629.8 281.1l-88.3 42.6-21.8 95.6 61.1 76.6h98.1l61.1-76.6-21.8-95.6z"/><linearGradient id="q" gradientUnits="userSpaceOnUse" x1="1829.289" y1="400.966" x2="1963.775" y2="400.966"><stop offset="0" stop-color="#fff" stop-opacity=".2"/><stop offset="1" stop-color="#fff" stop-opacity="0"/></linearGradient><path fill="url(#q)" d="M1896.5 335.4l-53.9 26-13.3 58.3 37.3 46.8h59.9l37.3-46.8-13.3-58.3z"/><linearGradient id="r" gradientUnits="userSpaceOnUse" x1="1472.769" y1="599.977" x2="1655.935" y2="599.977"><stop offset="0" stop-color="#fff" stop-opacity=".2"/><stop offset="1" stop-color="#fff" stop-opacity="0"/></linearGradient><path fill="url(#r)" d="M1564.4 510.7l-73.5 35.4-18.1 79.4 50.8 63.8h81.5l50.8-63.8-18.1-79.4z"/><linearGradient id="s" gradientUnits="userSpaceOnUse" x1="1951.745" y1="889.189" x2="2063.91" y2="889.189"><stop offset="0" stop-color="#fff" stop-opacity=".2"/><stop offset="1" stop-color="#fff" stop-opacity="0"/></linearGradient><path fill="url(#s)" d="M2007.8 834.5l-44.9 21.7-11.2 48.6 31.2 39.1h49.9l31.1-39.1-11.1-48.6z"/><linearGradient id="t" gradientUnits="userSpaceOnUse" x1="1507.343" y1="965.272" x2="1727.362" y2="965.272"><stop offset="0" stop-color="#fff" stop-opacity=".2"/><stop offset="1" stop-color="#fff" stop-opacity="0"/></linearGradient><path fill="url(#t)" d="M1617.4 858l-88.3 42.5-21.8 95.5 61.1 76.5h97.9l61.1-76.5-21.8-95.5z"/><linearGradient id="u" gradientUnits="userSpaceOnUse" x1="1376.782" y1="939.252" x2="1527.466" y2="939.252"><stop offset="0" stop-color="#fff" stop-opacity=".2"/><stop offset="1" stop-color="#fff" stop-opacity="0"/></linearGradient><path fill="url(#u)" d="M1452.1 865.8l-60.4 29.1-14.9 65.4 41.8 52.4h67.1l41.8-52.4-15-65.4z"/><linearGradient id="v" gradientUnits="userSpaceOnUse" x1="1341.592" y1="1133.751" x2="1454.004" y2="1133.751"><stop offset="0" stop-color="#3d98d3" stop-opacity=".5"/><stop offset="1" stop-color="#3d98d3" stop-opacity="0"/></linearGradient><path fill="url(#v)" d="M1397.8 1079l-45.1 21.7-11.1 48.7 31.2 39.1h50l31.2-39.1-11.1-48.7z"/><linearGradient id="w" gradientUnits="userSpaceOnUse" x1="1142.967" y1="770.702" x2="1225.729" y2="770.702"><stop offset="0" stop-color="#fff" stop-opacity=".2"/><stop offset="1" stop-color="#fff" stop-opacity="0"/></linearGradient><path fill="url(#w)" d="M1184.3 730.4l-33.1 15.9-8.2 35.9 22.9 28.8h36.9l22.9-28.8-8.2-35.9z"/><linearGradient id="x" gradientUnits="userSpaceOnUse" x1="913.84" y1="756.933" x2="1085.16" y2="756.933"><stop offset="0" stop-color="#fff" stop-opacity=".2"/><stop offset="1" stop-color="#fff" stop-opacity="0"/></linearGradient><path fill="url(#x)" d="M999.5 673.4l-68.7 33.1-17 74.3 47.6 59.6h76.2l47.6-59.6-17-74.3z"/><linearGradient id="y" gradientUnits="userSpaceOnUse" x1="-35.767" y1="108.511" x2="16.646" y2="108.511"><stop offset="0" stop-color="#fff" stop-opacity=".2"/><stop offset="1" stop-color="#fff" stop-opacity="0"/></linearGradient><path fill="url(#y)" d="M-9.6 83l-21 10.1-5.2 22.7 14.6 18.3H2.1l14.5-18.3-5.1-22.7z"/><linearGradient id="z" gradientUnits="userSpaceOnUse" x1="-162.94" y1="165.978" x2="124.695" y2="165.978"><stop offset="0" stop-color="#fff" stop-opacity=".2"/><stop offset="1" stop-color="#fff" stop-opacity="0"/></linearGradient><path fill="url(#z)" d="M-19.1 25.8l-115.4 55.5-28.4 124.8 79.8 100.1h128l79.8-100.1L96.2 81.3z"/><linearGradient id="A" gradientUnits="userSpaceOnUse" x1="-126.254" y1="346.731" x2="160.107" y2="346.731"><stop offset="0" stop-color="#fff" stop-opacity=".2"/><stop offset="1" stop-color="#fff" stop-opacity="0"/></linearGradient><path fill="url(#A)" d="M16.9 207.1l-114.8 55.3-28.4 124.3 79.5 99.6H80.6l79.5-99.6-28.4-124.3z"/></svg>