<?xml version="1.0" encoding="utf-8"?>
<!-- Generator: Adobe Illustrator 22.0.1, SVG Export Plug-In . SVG Version: 6.00 Build 0)  -->
<svg version="1.1" id="Layer_1" xmlns="http://www.w3.org/2000/svg" xmlns:xlink="http://www.w3.org/1999/xlink" x="0px" y="0px"
	 viewBox="0 0 1920 1080" style="enable-background:new 0 0 1920 1080;" xml:space="preserve">
<style type="text/css">
	.st0{fill:url(#SVGID_1_);}
	.st1{fill:url(#SVGID_2_);}
	.st2{fill:url(#SVGID_3_);}
	.st3{fill:url(#SVGID_4_);}
	.st4{fill:url(#SVGID_5_);}
	.st5{fill:url(#SVGID_6_);}
	.st6{fill:url(#SVGID_7_);}
	.st7{fill:url(#SVGID_8_);}
	.st8{fill:#FFFFFF;}
	.st9{fill:url(#SVGID_9_);}
	.st10{fill:url(#SVGID_10_);}
	.st11{fill:url(#SVGID_11_);}
	.st12{fill:url(#SVGID_12_);}
	.st13{fill:url(#SVGID_13_);}
	.st14{fill:url(#SVGID_14_);}
	.st15{fill:url(#SVGID_15_);}
	.st16{fill:url(#SVGID_16_);}
</style>
<title>header-1</title>
<linearGradient id="SVGID_1_" gradientUnits="userSpaceOnUse" x1="0" y1="540" x2="1920" y2="540">
	<stop  offset="0" style="stop-color:#EAF0FC"/>
	<stop  offset="0.4373" style="stop-color:#F5F8FE"/>
	<stop  offset="1" style="stop-color:#FFFFFF"/>
</linearGradient>
<rect class="st0" width="1920" height="1080"/>
<linearGradient id="SVGID_2_" gradientUnits="userSpaceOnUse" x1="469.1857" y1="637.489" x2="1483.9358" y2="637.489">
	<stop  offset="0" style="stop-color:#5B89EA"/>
	<stop  offset="0.2487" style="stop-color:#628FEB"/>
	<stop  offset="0.6195" style="stop-color:#779DEE"/>
	<stop  offset="1" style="stop-color:#92B1F1"/>
</linearGradient>
<path class="st1" d="M1372.7,459.8c0.8,0.4,1.5,0.9,2.3,1.4c7.5,5,12.8,10.9,15.3,17.4l91.8,221.4c4.8,11.6,0.3,23.8-12.4,33.1
	l-240.6,177.6c-12.6,9.3-32,14.8-52.4,14.8l-391.5,0.1c-18.1,0-35.3-4.2-48-11.5c-1.8-1-3.4-2.1-5-3.2L484.5,733.2
	c-13-9.2-18.1-21.3-13.9-33l82.6-221.5c0.5-1.2,1.1-2.5,1.8-3.7c5.5-10.1,18-18.4,34.4-23l350.1-98.8c18.5-5.2,40-5.2,58.5,0
	l355,98.6C1360.3,453.8,1367,456.5,1372.7,459.8z"/>
<linearGradient id="SVGID_3_" gradientUnits="userSpaceOnUse" x1="468.1851" y1="540" x2="1482.9324" y2="540">
	<stop  offset="0" style="stop-color:#92B1F1"/>
	<stop  offset="0.2269" style="stop-color:#AEC5F5"/>
	<stop  offset="0.5501" style="stop-color:#CFDCF9"/>
	<stop  offset="0.8195" style="stop-color:#E3EBFB"/>
	<stop  offset="1" style="stop-color:#EAF0FC"/>
</linearGradient>
<path class="st2" d="M482.8,730.9l69.4-186.2c0.5-1.2,1.1-2.5,1.8-3.7c5.5-10.1,18-18.4,34.4-23l350.1-98.8c18.5-5.2,40-5.2,58.5,0
	l355,98.6c7.3,2,13.9,4.6,19.6,7.9c0.8,0.4,1.5,0.9,2.3,1.4c7.5,5,12.8,10.9,15.3,17.4l77.9,187.9l1.5-1.1
	c12.6-9.4,17.2-21.5,12.4-33.1l-91.8-221.4c-2.5-6.4-7.8-12.4-15.3-17.4c-0.7-0.5-1.5-0.9-2.3-1.4c-5.7-3.3-12.3-6-19.6-7.9
	l-355-98.6c-18.5-5.2-40.1-5.1-58.5,0l-350.1,98.8c-16.4,4.6-28.9,12.9-34.4,23c-0.7,1.2-1.3,2.4-1.8,3.7l-82.6,221.5
	C465.5,709.9,470.4,721.8,482.8,730.9z"/>
<linearGradient id="SVGID_4_" gradientUnits="userSpaceOnUse" x1="613.7862" y1="607.7208" x2="1337.3313" y2="607.7208">
	<stop  offset="0" style="stop-color:#92B1F1"/>
	<stop  offset="0.2269" style="stop-color:#AEC5F5"/>
	<stop  offset="0.5501" style="stop-color:#CFDCF9"/>
	<stop  offset="0.8195" style="stop-color:#E3EBFB"/>
	<stop  offset="1" style="stop-color:#EAF0FC"/>
</linearGradient>
<polygon class="st3" points="613.8,612.7 654.7,503.1 968.9,414.4 1290.8,503.8 1337.3,616 1337.3,676 1168.1,800.9 792.8,801.1 
	613.8,672.7 "/>
<linearGradient id="SVGID_5_" gradientUnits="userSpaceOnUse" x1="613.7862" y1="577.7208" x2="1337.3313" y2="577.7208">
	<stop  offset="0" style="stop-color:#EAF0FC"/>
	<stop  offset="1" style="stop-color:#F5F8FE"/>
</linearGradient>
<polygon class="st4" points="613.8,612.7 654.7,503.1 968.9,414.4 1290.8,503.8 1337.3,616 1168.1,740.9 792.8,741.1 "/>
<linearGradient id="SVGID_6_" gradientUnits="userSpaceOnUse" x1="613.7862" y1="487.7208" x2="1337.3313" y2="487.7208">
	<stop  offset="0" style="stop-color:#92B1F1"/>
	<stop  offset="0.2269" style="stop-color:#AEC5F5"/>
	<stop  offset="0.5501" style="stop-color:#CFDCF9"/>
	<stop  offset="0.8195" style="stop-color:#E3EBFB"/>
	<stop  offset="1" style="stop-color:#EAF0FC"/>
</linearGradient>
<polygon class="st5" points="613.8,492.7 654.7,383.1 968.9,294.4 1290.8,383.8 1337.3,496 1337.3,556 1168.1,680.9 792.8,681.1 
	613.8,552.7 "/>
<linearGradient id="SVGID_7_" gradientUnits="userSpaceOnUse" x1="613.7862" y1="457.7208" x2="1337.3313" y2="457.7208">
	<stop  offset="0" style="stop-color:#EAF0FC"/>
	<stop  offset="1" style="stop-color:#F5F8FE"/>
</linearGradient>
<polygon class="st6" points="613.8,492.7 654.7,383.1 968.9,294.4 1290.8,383.8 1337.3,496 1168.1,620.9 792.8,621.1 "/>
<linearGradient id="SVGID_8_" gradientUnits="userSpaceOnUse" x1="613.7862" y1="367.7208" x2="1337.3313" y2="367.7208">
	<stop  offset="0" style="stop-color:#92B1F1"/>
	<stop  offset="0.2269" style="stop-color:#AEC5F5"/>
	<stop  offset="0.5501" style="stop-color:#CFDCF9"/>
	<stop  offset="0.8195" style="stop-color:#E3EBFB"/>
	<stop  offset="1" style="stop-color:#EAF0FC"/>
</linearGradient>
<polygon class="st7" points="613.8,372.7 654.7,263.1 968.9,174.4 1290.8,263.8 1337.3,376 1337.3,436 1168.1,560.9 792.8,561.1 
	613.8,432.7 "/>
<polygon class="st8" points="613.8,372.7 654.7,263.1 968.9,174.4 1290.8,263.8 1337.3,376 1168.1,500.9 792.8,501.1 "/>
<linearGradient id="SVGID_9_" gradientUnits="userSpaceOnUse" x1="91.3371" y1="251.3694" x2="428.766" y2="251.3694">
	<stop  offset="0" style="stop-color:#D6E2FA"/>
	<stop  offset="0.5074" style="stop-color:#E3EBFB"/>
	<stop  offset="1" style="stop-color:#EAF0FC"/>
</linearGradient>
<polygon class="st9" points="91.3,267.7 110.4,216.6 256.9,175.2 407.1,216.9 428.8,269.2 349.8,327.5 174.8,327.5 "/>
<linearGradient id="SVGID_10_" gradientUnits="userSpaceOnUse" x1="91.3371" y1="161.2036" x2="428.766" y2="161.2036">
	<stop  offset="0" style="stop-color:#92B1F1"/>
	<stop  offset="0.2269" style="stop-color:#AEC5F5"/>
	<stop  offset="0.5501" style="stop-color:#CFDCF9"/>
	<stop  offset="0.8195" style="stop-color:#E3EBFB"/>
	<stop  offset="1" style="stop-color:#EAF0FC"/>
</linearGradient>
<polygon class="st10" points="91.3,163.5 110.4,112.4 256.9,71 407.1,112.7 428.8,165.1 428.8,193 349.8,251.3 174.8,251.4 
	91.3,191.5 "/>
<polygon class="st8" points="91.3,163.5 110.4,112.4 256.9,71 407.1,112.7 428.8,165.1 349.8,223.3 174.8,223.4 "/>
<linearGradient id="SVGID_11_" gradientUnits="userSpaceOnUse" x1="1669.5549" y1="145.9749" x2="1833.0468" y2="145.9749">
	<stop  offset="0" style="stop-color:#EAF0FC"/>
	<stop  offset="0.2067" style="stop-color:#EDF2FD"/>
	<stop  offset="1" style="stop-color:#F5F8FE"/>
</linearGradient>
<polygon class="st11" points="1669.6,153.9 1678.8,129.1 1749.8,109.1 1822.5,129.3 1833,154.6 1794.8,182.9 1710,182.9 "/>
<linearGradient id="SVGID_12_" gradientUnits="userSpaceOnUse" x1="1669.5549" y1="102.2876" x2="1833.0468" y2="102.2876">
	<stop  offset="0" style="stop-color:#92B1F1"/>
	<stop  offset="0.2269" style="stop-color:#AEC5F5"/>
	<stop  offset="0.5501" style="stop-color:#CFDCF9"/>
	<stop  offset="0.8195" style="stop-color:#E3EBFB"/>
	<stop  offset="1" style="stop-color:#EAF0FC"/>
</linearGradient>
<polygon class="st12" points="1669.6,103.4 1678.8,78.6 1749.8,58.6 1822.5,78.8 1833,104.2 1833,117.7 1794.8,145.9 1710,146 
	1669.6,117 "/>
<polygon class="st8" points="1669.6,103.4 1678.8,78.6 1749.8,58.6 1822.5,78.8 1833,104.2 1794.8,132.4 1710,132.4 "/>
<linearGradient id="SVGID_13_" gradientUnits="userSpaceOnUse" x1="1508.3481" y1="301.8342" x2="1719.0525" y2="301.8342">
	<stop  offset="0" style="stop-color:#EAF0FC"/>
	<stop  offset="0.2067" style="stop-color:#EDF2FD"/>
	<stop  offset="1" style="stop-color:#F5F8FE"/>
</linearGradient>
<polygon class="st13" points="1508.3,312 1520.3,280.1 1611.7,254.3 1705.5,280.3 1719.1,313 1669.8,349.4 1560.5,349.4 "/>
<linearGradient id="SVGID_14_" gradientUnits="userSpaceOnUse" x1="1508.3481" y1="245.531" x2="1719.0525" y2="245.531">
	<stop  offset="0" style="stop-color:#92B1F1"/>
	<stop  offset="0.2269" style="stop-color:#AEC5F5"/>
	<stop  offset="0.5501" style="stop-color:#CFDCF9"/>
	<stop  offset="0.8195" style="stop-color:#E3EBFB"/>
	<stop  offset="1" style="stop-color:#EAF0FC"/>
</linearGradient>
<polygon class="st14" points="1508.3,247 1520.3,215.1 1611.7,189.2 1705.5,215.3 1719.1,247.9 1719.1,265.4 1669.8,301.8 
	1560.5,301.8 1508.3,264.5 "/>
<polygon class="st8" points="1508.3,247 1520.3,215.1 1611.7,189.2 1705.5,215.3 1719.1,247.9 1669.8,284.3 1560.5,284.4 "/>
<linearGradient id="SVGID_15_" gradientUnits="userSpaceOnUse" x1="1805.3333" y1="301.8342" x2="2016.0376" y2="301.8342">
	<stop  offset="0" style="stop-color:#EAF0FC"/>
	<stop  offset="0.2067" style="stop-color:#EDF2FD"/>
	<stop  offset="1" style="stop-color:#F5F8FE"/>
</linearGradient>
<polygon class="st15" points="1805.3,312 1817.2,280.1 1908.7,254.3 2002.5,280.3 2016,313 1966.8,349.4 1857.5,349.4 "/>
<linearGradient id="SVGID_16_" gradientUnits="userSpaceOnUse" x1="1805.3333" y1="245.531" x2="2016.0376" y2="245.531">
	<stop  offset="0" style="stop-color:#92B1F1"/>
	<stop  offset="0.2269" style="stop-color:#AEC5F5"/>
	<stop  offset="0.5501" style="stop-color:#CFDCF9"/>
	<stop  offset="0.8195" style="stop-color:#E3EBFB"/>
	<stop  offset="1" style="stop-color:#EAF0FC"/>
</linearGradient>
<polygon class="st16" points="1805.3,247 1817.2,215.1 1908.7,189.2 2002.5,215.3 2016,247.9 2016,265.4 1966.8,301.8 1857.5,301.8 
	1805.3,264.5 "/>
<polygon class="st8" points="1805.3,247 1817.2,215.1 1908.7,189.2 2002.5,215.3 2016,247.9 1966.8,284.3 1857.5,284.4 "/>
</svg>
