<?xml version="1.0" encoding="utf-8"?>
<!-- Generator: Adobe Illustrator 22.0.1, SVG Export Plug-In . SVG Version: 6.00 Build 0)  -->
<svg version="1.1" id="Layer_1" xmlns="http://www.w3.org/2000/svg" xmlns:xlink="http://www.w3.org/1999/xlink" x="0px" y="0px"
	 viewBox="0 0 1920 834" style="enable-background:new 0 0 1920 834;" xml:space="preserve">
<style type="text/css">
	.st0{fill:#3D98D3;}
	.st1{enable-background:new    ;}
	.st2{fill:#FFFFFF;}
	.st3{opacity:0.2;}
	.st4{fill:#DEE1E3;}
	.st5{fill:#ECF0F1;}
	.st6{fill:#BDC3C7;}
	.st7{opacity:0.5;fill:#DEE1E3;enable-background:new    ;}
	.st8{opacity:0.2;fill:#DEE1E3;enable-background:new    ;}
	.st9{fill:#2875A9;}
	.st10{fill:#1C5175;}
	.st11{fill:#2D82BC;}
	.st12{fill:#828688;}
	.st13{fill:#D1D7DB;}
	.st14{fill:#BCC1C5;}
	.st15{opacity:0.5;}
	.st16{fill:#DCDBDC;}
	.st17{fill:#99A3A8;}
	.st18{fill:#313131;}
	.st19{fill:#3D3D3D;}
</style>
<rect x="2.5" y="-0.5" class="st0" width="1917.5" height="834.5"/>
<g>
	<g class="st1">
		<g>
			<g>
				<polygon class="st2" points="884.9,0 -0.3,0 0.7,834 1920,834 1920,599.9 				"/>
			</g>
		</g>
	</g>
</g>
<g>
	<g class="st1">
		<g class="st3">
			<polygon class="st4" points="1695.8,755.9 1578.1,825.1 1295,661.7 1412.8,592.5 			"/>
		</g>
		<g>
			<polygon class="st5" points="1668,749.4 1565.3,809.1 1282.3,645.6 1385,585.9 			"/>
		</g>
		<g>
			<polygon class="st6" points="1668,749.4 1668,757.5 1565.3,817.2 1565.3,809.1 			"/>
		</g>
		<g>
			<polygon class="st4" points="1565.3,809.1 1565.3,817.2 1282.2,653.8 1282.3,645.6 			"/>
		</g>
	</g>
</g>
<path class="st7" d="M1368.6,615.5l15.4-9l15.5,9l-15.4,9L1368.6,615.5z M1404,635.9l15.4-9l-15.5-9l-15.4,9L1404,635.9z
	 M1424,647.5l15.4-9l-15.5-9l-15.4,9L1424,647.5z M1443.8,641l-15.4,9l15.5,9l15.4-9L1443.8,641z M1463.7,652.5l-15.4,9l15.5,9
	l15.4-9L1463.7,652.5z M1483.7,664l-15.4,9l15.5,9l15.4-9L1483.7,664z M1503.6,675.5l-15.4,9l15.5,9l15.4-9L1503.6,675.5z
	 M1523.5,687l-15.4,9l15.5,9l15.4-9L1523.5,687z M1543.5,698.6l-15.4,9l15.5,9l15.4-9L1543.5,698.6z M1563.5,728l15.4-9l-15.5-9
	l-15.4,9L1563.5,728z M1583.4,739.5l15.4-9l-15.5-9l-15.4,9L1583.4,739.5z M1603.4,751l15.4-9l-15.5-9l-15.4,9L1603.4,751z
	 M1607.7,753.6l15.5,9l15.4-9l-15.5-9L1607.7,753.6z M1364.6,635.8l15.4-9l-15.5-9l-15.4,9L1364.6,635.8z M1384.5,647.3l15.4-9
	l-15.5-9l-15.4,9L1384.5,647.3z M1404.4,658.8l15.4-9l-15.5-9l-15.4,9L1404.4,658.8z M1424.3,652.4l-15.4,9l15.5,9l15.4-9
	L1424.3,652.4z M1444.2,663.9l-15.4,9l15.5,9l15.4-9L1444.2,663.9z M1464.1,675.4l-15.4,9l15.5,9l15.4-9L1464.1,675.4z
	 M1484.1,686.9l-15.4,9l15.5,9l15.4-9L1484.1,686.9z M1504,698.4l-15.4,9l15.5,9l15.4-9L1504,698.4z M1523.9,709.9l-15.4,9l15.5,9
	l15.4-9L1523.9,709.9z M1543.9,739.4l15.4-9l-15.5-9l-15.4,9L1543.9,739.4z M1563.9,750.9l15.4-9l-15.5-9l-15.4,9L1563.9,750.9z
	 M1583.8,762.4l15.4-9l-15.5-9l-15.4,9L1583.8,762.4z M1603.7,773.9l15.4-9l-15.5-9l-15.4,9L1603.7,773.9z M1345,647.2l15.4-9
	l-15.5-9l-15.4,9L1345,647.2z M1365,658.7l15.4-9l-15.5-9l-15.4,9L1365,658.7z M1384.9,670.2l15.4-9l-15.5-9l-15.4,9L1384.9,670.2z
	 M1404.7,663.7l-15.4,9l15.5,9l15.4-9L1404.7,663.7z M1424.6,675.2l-15.4,9l15.5,9l15.4-9L1424.6,675.2z M1444.6,686.8l-15.4,9
	l15.5,9l15.4-9L1444.6,686.8z M1464.5,698.3l-15.4,9l15.5,9l15.4-9L1464.5,698.3z M1484.4,709.8l-15.4,9l15.5,9l15.4-9L1484.4,709.8
	z M1504.4,721.3l-15.4,9l15.5,9l15.4-9L1504.4,721.3z M1524.4,750.7l15.4-9l-15.5-9l-15.4,9L1524.4,750.7z M1544.3,762.2l15.4-9
	l-15.5-9l-15.4,9L1544.3,762.2z M1564.3,773.7l15.4-9l-15.5-9l-15.4,9L1564.3,773.7z M1584.2,785.2l15.4-9l-15.5-9l-15.4,9
	L1584.2,785.2z M1504.8,762.1l15.4-9l-135.1-78l-15.4,9L1504.8,762.1z"/>
<g>
	<g class="st1">
		<g>
			<g>
				<polygon class="st2" points="1366.4,610.2 1381.8,601.2 1397.4,610.2 1381.9,619.1 				"/>
			</g>
		</g>
		<g>
			<polygon class="st6" points="1397.4,610.2 1397.3,614.2 1381.9,623.2 1381.9,619.1 			"/>
		</g>
		<g>
			<polygon class="st4" points="1381.9,619.1 1381.9,623.2 1366.4,614.2 1366.4,610.2 			"/>
		</g>
	</g>
	<g class="st1">
		<g>
			<g>
				<polygon class="st2" points="1386.3,621.7 1401.8,612.7 1417.3,621.7 1401.9,630.6 				"/>
			</g>
		</g>
		<g>
			<polygon class="st6" points="1417.3,621.7 1417.3,625.7 1401.8,634.7 1401.9,630.6 			"/>
		</g>
		<g>
			<polygon class="st4" points="1401.9,630.6 1401.8,634.7 1386.3,625.7 1386.3,621.7 			"/>
		</g>
	</g>
	<g class="st1">
		<g>
			<g>
				<polygon class="st2" points="1406.3,633.2 1421.7,624.2 1437.2,633.2 1421.8,642.1 				"/>
			</g>
		</g>
		<g>
			<polygon class="st6" points="1437.2,633.2 1437.2,637.2 1421.8,646.2 1421.8,642.1 			"/>
		</g>
		<g>
			<polygon class="st4" points="1421.8,642.1 1421.8,646.2 1406.2,637.2 1406.3,633.2 			"/>
		</g>
	</g>
	<g class="st1">
		<g>
			<g>
				<polygon class="st2" points="1457.2,644.7 1441.7,653.6 1426.2,644.7 1441.6,635.7 				"/>
			</g>
		</g>
		<g>
			<polygon class="st6" points="1457.2,644.7 1457.1,648.8 1441.7,657.7 1441.7,653.6 			"/>
		</g>
		<g>
			<polygon class="st4" points="1441.7,653.6 1441.7,657.7 1426.2,648.8 1426.2,644.7 			"/>
		</g>
	</g>
	<g class="st1">
		<g>
			<g>
				<polygon class="st2" points="1477.1,656.2 1461.7,665.2 1446.1,656.2 1461.6,647.2 				"/>
			</g>
		</g>
		<g>
			<polygon class="st6" points="1477.1,656.2 1477.1,660.3 1461.6,669.2 1461.7,665.2 			"/>
		</g>
		<g>
			<polygon class="st4" points="1461.7,665.2 1461.6,669.2 1446.1,660.3 1446.1,656.2 			"/>
		</g>
	</g>
	<g class="st1">
		<g>
			<g>
				<polygon class="st2" points="1497,667.7 1481.6,676.7 1466,667.7 1481.5,658.7 				"/>
			</g>
		</g>
		<g>
			<polygon class="st6" points="1497,667.7 1497,671.8 1481.6,680.7 1481.6,676.7 			"/>
		</g>
		<g>
			<polygon class="st4" points="1481.6,676.7 1481.6,680.7 1466,671.8 1466,667.7 			"/>
		</g>
	</g>
	<g class="st1">
		<g>
			<g>
				<polygon class="st2" points="1516.9,679.2 1501.5,688.2 1486,679.2 1501.4,670.2 				"/>
			</g>
		</g>
		<g>
			<polygon class="st6" points="1516.9,679.2 1516.9,683.3 1501.5,692.2 1501.5,688.2 			"/>
		</g>
		<g>
			<polygon class="st4" points="1501.5,688.2 1501.5,692.2 1486,683.3 1486,679.2 			"/>
		</g>
	</g>
	<g class="st1">
		<g>
			<g>
				<polygon class="st2" points="1536.9,690.7 1521.4,699.7 1505.9,690.7 1521.3,681.7 				"/>
			</g>
		</g>
		<g>
			<polygon class="st6" points="1536.9,690.7 1536.9,694.8 1521.4,703.7 1521.4,699.7 			"/>
		</g>
		<g>
			<polygon class="st4" points="1521.4,699.7 1521.4,703.7 1505.9,694.8 1505.9,690.7 			"/>
		</g>
	</g>
	<g class="st1">
		<g>
			<g>
				<polygon class="st2" points="1556.8,702.2 1541.4,711.2 1525.8,702.2 1541.3,693.2 				"/>
			</g>
		</g>
		<g>
			<polygon class="st6" points="1556.8,702.2 1556.8,706.3 1541.4,715.3 1541.4,711.2 			"/>
		</g>
		<g>
			<polygon class="st4" points="1541.4,711.2 1541.4,715.3 1525.8,706.3 1525.8,702.2 			"/>
		</g>
	</g>
	<g class="st1">
		<g>
			<g>
				<polygon class="st2" points="1545.8,713.7 1561.2,704.8 1576.7,713.7 1561.3,722.7 				"/>
			</g>
		</g>
		<g>
			<polygon class="st6" points="1576.7,713.7 1576.7,717.8 1561.3,726.8 1561.3,722.7 			"/>
		</g>
		<g>
			<polygon class="st4" points="1561.3,722.7 1561.3,726.8 1545.8,717.8 1545.8,713.7 			"/>
		</g>
	</g>
	<g class="st1">
		<g>
			<g>
				<polygon class="st2" points="1565.7,725.2 1581.1,716.3 1596.7,725.2 1581.2,734.2 				"/>
			</g>
		</g>
		<g>
			<polygon class="st6" points="1596.7,725.2 1596.7,729.3 1581.2,738.3 1581.2,734.2 			"/>
		</g>
		<g>
			<polygon class="st4" points="1581.2,734.2 1581.2,738.3 1565.7,729.3 1565.7,725.2 			"/>
		</g>
	</g>
	<g class="st1">
		<g>
			<g>
				<polygon class="st2" points="1585.6,736.7 1601.1,727.8 1616.6,736.7 1601.2,745.7 				"/>
			</g>
		</g>
		<g>
			<polygon class="st6" points="1616.6,736.7 1616.6,740.8 1601.2,749.8 1601.2,745.7 			"/>
		</g>
		<g>
			<polygon class="st4" points="1601.2,745.7 1601.2,749.8 1585.6,740.8 1585.6,736.7 			"/>
		</g>
	</g>
	<g class="st1">
		<g>
			<g>
				<polygon class="st2" points="1621,739.3 1636.5,748.2 1621.1,757.2 1605.6,748.2 				"/>
			</g>
		</g>
		<g>
			<polygon class="st6" points="1636.5,748.2 1636.5,752.3 1621.1,761.3 1621.1,757.2 			"/>
		</g>
		<g>
			<polygon class="st4" points="1621.1,757.2 1621.1,761.3 1605.5,752.3 1605.6,748.2 			"/>
		</g>
	</g>
	<g class="st1">
		<g>
			<g>
				<polygon class="st2" points="1346.8,621.5 1362.3,612.5 1377.8,621.5 1362.4,630.5 				"/>
			</g>
		</g>
		<g>
			<polygon class="st6" points="1377.8,621.5 1377.8,625.6 1362.4,634.6 1362.4,630.5 			"/>
		</g>
		<g>
			<polygon class="st4" points="1362.4,630.5 1362.4,634.6 1346.8,625.6 1346.8,621.5 			"/>
		</g>
	</g>
	<g class="st1">
		<g>
			<g>
				<polygon class="st2" points="1366.8,633 1382.2,624.1 1397.7,633 1382.3,642 				"/>
			</g>
		</g>
		<g>
			<polygon class="st6" points="1397.7,633 1397.7,637.1 1382.3,646.1 1382.3,642 			"/>
		</g>
		<g>
			<polygon class="st4" points="1382.3,642 1382.3,646.1 1366.8,637.1 1366.8,633 			"/>
		</g>
	</g>
	<g class="st1">
		<g>
			<g>
				<polygon class="st2" points="1386.7,644.5 1402.1,635.6 1417.7,644.5 1402.2,653.5 				"/>
			</g>
		</g>
		<g>
			<polygon class="st6" points="1417.7,644.5 1417.7,648.6 1402.2,657.6 1402.2,653.5 			"/>
		</g>
		<g>
			<polygon class="st4" points="1402.2,653.5 1402.2,657.6 1386.7,648.6 1386.7,644.5 			"/>
		</g>
	</g>
	<g class="st1">
		<g>
			<g>
				<polygon class="st2" points="1437.6,656 1422.2,665 1406.6,656 1422.1,647.1 				"/>
			</g>
		</g>
		<g>
			<polygon class="st6" points="1437.6,656 1437.6,660.1 1422.2,669.1 1422.2,665 			"/>
		</g>
		<g>
			<polygon class="st4" points="1422.2,665 1422.2,669.1 1406.6,660.1 1406.6,656 			"/>
		</g>
	</g>
	<g class="st1">
		<g>
			<g>
				<polygon class="st2" points="1457.5,667.5 1442.1,676.5 1426.6,667.5 1442,658.6 				"/>
			</g>
		</g>
		<g>
			<polygon class="st6" points="1457.5,667.5 1457.5,671.6 1442.1,680.6 1442.1,676.5 			"/>
		</g>
		<g>
			<polygon class="st4" points="1442.1,676.5 1442.1,680.6 1426.6,671.6 1426.6,667.5 			"/>
		</g>
	</g>
	<g class="st1">
		<g>
			<g>
				<polygon class="st2" points="1477.5,679 1462,688 1446.5,679 1461.9,670.1 				"/>
			</g>
		</g>
		<g>
			<polygon class="st6" points="1477.5,679 1477.5,683.1 1462,692.1 1462,688 			"/>
		</g>
		<g>
			<polygon class="st4" points="1462,688 1462,692.1 1446.5,683.1 1446.5,679 			"/>
		</g>
	</g>
	<g class="st1">
		<g>
			<g>
				<polygon class="st2" points="1497.4,690.6 1482,699.5 1466.4,690.6 1481.9,681.6 				"/>
			</g>
		</g>
		<g>
			<polygon class="st6" points="1497.4,690.6 1497.4,694.6 1482,703.6 1482,699.5 			"/>
		</g>
		<g>
			<polygon class="st4" points="1482,699.5 1482,703.6 1466.4,694.6 1466.4,690.6 			"/>
		</g>
	</g>
	<g class="st1">
		<g>
			<g>
				<polygon class="st2" points="1517.3,702.1 1501.9,711 1486.4,702.1 1501.8,693.1 				"/>
			</g>
		</g>
		<g>
			<polygon class="st6" points="1517.3,702.1 1517.3,706.1 1501.9,715.1 1501.9,711 			"/>
		</g>
		<g>
			<polygon class="st4" points="1501.9,711 1501.9,715.1 1486.3,706.1 1486.4,702.1 			"/>
		</g>
	</g>
	<g class="st1">
		<g>
			<g>
				<polygon class="st2" points="1537.3,713.6 1521.8,722.5 1506.3,713.6 1521.7,704.6 				"/>
			</g>
		</g>
		<g>
			<polygon class="st6" points="1537.3,713.6 1537.2,717.6 1521.8,726.6 1521.8,722.5 			"/>
		</g>
		<g>
			<polygon class="st4" points="1521.8,722.5 1521.8,726.6 1506.3,717.6 1506.3,713.6 			"/>
		</g>
	</g>
	<g class="st1">
		<g>
			<g>
				<polygon class="st2" points="1526.2,725.1 1541.7,716.1 1557.2,725.1 1541.8,734 				"/>
			</g>
		</g>
		<g>
			<polygon class="st6" points="1557.2,725.1 1557.2,729.2 1541.7,738.1 1541.8,734 			"/>
		</g>
		<g>
			<polygon class="st4" points="1541.8,734 1541.7,738.1 1526.2,729.2 1526.2,725.1 			"/>
		</g>
	</g>
	<g class="st1">
		<g>
			<g>
				<polygon class="st2" points="1546.2,736.6 1561.6,727.6 1577.1,736.6 1561.7,745.6 				"/>
			</g>
		</g>
		<g>
			<polygon class="st6" points="1577.1,736.6 1577.1,740.7 1561.7,749.6 1561.7,745.6 			"/>
		</g>
		<g>
			<polygon class="st4" points="1561.7,745.6 1561.7,749.6 1546.1,740.7 1546.2,736.6 			"/>
		</g>
	</g>
	<g class="st1">
		<g>
			<g>
				<polygon class="st2" points="1566.1,748.1 1581.5,739.1 1597.1,748.1 1581.6,757.1 				"/>
			</g>
		</g>
		<g>
			<polygon class="st6" points="1597.1,748.1 1597,752.2 1581.6,761.1 1581.6,757.1 			"/>
		</g>
		<g>
			<polygon class="st4" points="1581.6,757.1 1581.6,761.1 1566.1,752.2 1566.1,748.1 			"/>
		</g>
	</g>
	<g class="st1">
		<g>
			<g>
				<polygon class="st2" points="1586,759.6 1601.4,750.6 1617,759.6 1601.5,768.6 				"/>
			</g>
		</g>
		<g>
			<polygon class="st6" points="1617,759.6 1617,763.7 1601.5,772.6 1601.5,768.6 			"/>
		</g>
		<g>
			<polygon class="st4" points="1601.5,768.6 1601.5,772.6 1586,763.7 1586,759.6 			"/>
		</g>
	</g>
	<g class="st1">
		<g>
			<g>
				<polygon class="st2" points="1327.3,632.9 1342.7,623.9 1358.3,632.9 1342.8,641.8 				"/>
			</g>
		</g>
		<g>
			<polygon class="st6" points="1358.3,632.9 1358.3,637 1342.8,645.9 1342.8,641.8 			"/>
		</g>
		<g>
			<polygon class="st4" points="1342.8,641.8 1342.8,645.9 1327.3,637 1327.3,632.9 			"/>
		</g>
	</g>
	<g class="st1">
		<g>
			<g>
				<polygon class="st2" points="1347.2,644.4 1362.7,635.4 1378.2,644.4 1362.8,653.4 				"/>
			</g>
		</g>
		<g>
			<polygon class="st6" points="1378.2,644.4 1378.2,648.5 1362.8,657.4 1362.8,653.4 			"/>
		</g>
		<g>
			<polygon class="st4" points="1362.8,653.4 1362.8,657.4 1347.2,648.5 1347.2,644.4 			"/>
		</g>
	</g>
	<g class="st1">
		<g>
			<g>
				<polygon class="st2" points="1367.2,655.9 1382.6,646.9 1398.1,655.9 1382.7,664.9 				"/>
			</g>
		</g>
		<g>
			<polygon class="st6" points="1398.1,655.9 1398.1,660 1382.7,668.9 1382.7,664.9 			"/>
		</g>
		<g>
			<polygon class="st4" points="1382.7,664.9 1382.7,668.9 1367.1,660 1367.2,655.9 			"/>
		</g>
	</g>
	<g class="st1">
		<g>
			<g>
				<polygon class="st2" points="1418.1,667.4 1402.6,676.4 1387.1,667.4 1402.5,658.4 				"/>
			</g>
		</g>
		<g>
			<polygon class="st6" points="1418.1,667.4 1418,671.5 1402.6,680.4 1402.6,676.4 			"/>
		</g>
		<g>
			<polygon class="st4" points="1402.6,676.4 1402.6,680.4 1387.1,671.5 1387.1,667.4 			"/>
		</g>
	</g>
	<g class="st1">
		<g>
			<g>
				<polygon class="st2" points="1438,678.9 1422.6,687.9 1407,678.9 1422.5,669.9 				"/>
			</g>
		</g>
		<g>
			<polygon class="st6" points="1438,678.9 1438,683 1422.5,692 1422.6,687.9 			"/>
		</g>
		<g>
			<polygon class="st4" points="1422.6,687.9 1422.5,692 1407,683 1407,678.9 			"/>
		</g>
	</g>
	<g class="st1">
		<g>
			<g>
				<polygon class="st2" points="1457.9,690.4 1442.5,699.4 1427,690.4 1442.4,681.4 				"/>
			</g>
		</g>
		<g>
			<polygon class="st6" points="1457.9,690.4 1457.9,694.5 1442.5,703.5 1442.5,699.4 			"/>
		</g>
		<g>
			<polygon class="st4" points="1442.5,699.4 1442.5,703.5 1426.9,694.5 1427,690.4 			"/>
		</g>
	</g>
	<g class="st1">
		<g>
			<g>
				<polygon class="st2" points="1477.9,701.9 1462.4,710.9 1446.9,701.9 1462.3,693 				"/>
			</g>
		</g>
		<g>
			<polygon class="st6" points="1477.9,701.9 1477.8,706 1462.4,715 1462.4,710.9 			"/>
		</g>
		<g>
			<polygon class="st4" points="1462.4,710.9 1462.4,715 1446.9,706 1446.9,701.9 			"/>
		</g>
	</g>
	<g class="st1">
		<g>
			<g>
				<polygon class="st2" points="1497.8,713.4 1482.3,722.4 1466.8,713.4 1482.2,704.5 				"/>
			</g>
		</g>
		<g>
			<polygon class="st6" points="1497.8,713.4 1497.8,717.5 1482.3,726.5 1482.3,722.4 			"/>
		</g>
		<g>
			<polygon class="st4" points="1482.3,722.4 1482.3,726.5 1466.8,717.5 1466.8,713.4 			"/>
		</g>
	</g>
	<g class="st1">
		<g>
			<g>
				<polygon class="st2" points="1517.7,724.9 1502.3,733.9 1486.7,724.9 1502.2,716 				"/>
			</g>
		</g>
		<g>
			<polygon class="st6" points="1517.7,724.9 1517.7,729 1502.3,738 1502.3,733.9 			"/>
		</g>
		<g>
			<polygon class="st4" points="1502.3,733.9 1502.3,738 1486.7,729 1486.7,724.9 			"/>
		</g>
	</g>
	<g class="st1">
		<g>
			<g>
				<polygon class="st2" points="1506.7,736.4 1522.1,727.5 1537.6,736.4 1522.2,745.4 				"/>
			</g>
		</g>
		<g>
			<polygon class="st6" points="1537.6,736.4 1537.6,740.5 1522.2,749.5 1522.2,745.4 			"/>
		</g>
		<g>
			<polygon class="st4" points="1522.2,745.4 1522.2,749.5 1506.7,740.5 1506.7,736.4 			"/>
		</g>
	</g>
	<g class="st1">
		<g>
			<g>
				<polygon class="st2" points="1526.6,747.9 1542,739 1557.6,747.9 1542.1,756.9 				"/>
			</g>
		</g>
		<g>
			<polygon class="st6" points="1557.6,747.9 1557.6,752 1542.1,761 1542.1,756.9 			"/>
		</g>
		<g>
			<polygon class="st4" points="1542.1,756.9 1542.1,761 1526.6,752 1526.6,747.9 			"/>
		</g>
	</g>
	<g class="st1">
		<g>
			<g>
				<polygon class="st2" points="1546.5,759.5 1562,750.5 1577.5,759.5 1562.1,768.4 				"/>
			</g>
		</g>
		<g>
			<polygon class="st6" points="1577.5,759.5 1577.5,763.5 1562.1,772.5 1562.1,768.4 			"/>
		</g>
		<g>
			<polygon class="st4" points="1562.1,768.4 1562.1,772.5 1546.5,763.5 1546.5,759.5 			"/>
		</g>
	</g>
	<g class="st1">
		<g>
			<g>
				<polygon class="st2" points="1566.5,771 1581.9,762 1597.4,771 1582,779.9 				"/>
			</g>
		</g>
		<g>
			<polygon class="st6" points="1597.4,771 1597.4,775 1582,784 1582,779.9 			"/>
		</g>
		<g>
			<polygon class="st4" points="1582,779.9 1582,784 1566.5,775 1566.5,771 			"/>
		</g>
	</g>
	<g class="st1">
		<g>
			<g>
				<polygon class="st2" points="1367.5,678.8 1383,669.8 1518.1,747.8 1502.7,756.8 				"/>
			</g>
		</g>
		<g>
			<polygon class="st6" points="1518.1,747.8 1518.1,751.9 1502.7,760.8 1502.7,756.8 			"/>
		</g>
		<g>
			<polygon class="st4" points="1502.7,756.8 1502.7,760.8 1367.5,682.8 1367.5,678.8 			"/>
		</g>
	</g>
</g>
<polygon class="st8" points="1920.3,599.4 1558.5,390.5 1409.9,473.4 1583.5,573.7 1511.1,615.7 1511.1,636.1 1609.6,692.9 
	1617.3,697.4 1634.5,687.4 1707.2,645.1 1881.4,745.7 1920,724.1 "/>
<g>
	<g>
		<g class="st1">
			<g>
				<polygon class="st9" points="1457.7,484.8 1457.8,539.7 1425.4,558.4 1425.2,503.6 				"/>
			</g>
			<g>
				<polygon class="st10" points="1425.4,558.4 1409.3,549.1 1409.1,494.2 1425.2,503.6 				"/>
			</g>
			<g>
				<polygon class="st11" points="1425.2,503.6 1409.1,494.2 1441.5,475.5 1457.7,484.8 				"/>
			</g>
		</g>
	</g>
	<g>
		<g class="st1">
			<g>
				<polygon class="st9" points="1489.6,503.5 1489.7,540.8 1457.3,559.5 1457.2,522.2 				"/>
			</g>
			<g>
				<polygon class="st10" points="1457.3,559.5 1425.1,540.8 1424.9,503.5 1457.2,522.2 				"/>
			</g>
			<g>
				<polygon class="st11" points="1457.2,522.2 1424.9,503.5 1457.4,484.8 1489.6,503.5 				"/>
			</g>
		</g>
	</g>
	<g>
		<g class="st1">
			<g>
				<polygon class="st9" points="1504.4,511.9 1504.6,566.8 1472.1,585.6 1472,530.7 				"/>
			</g>
			<g>
				<polygon class="st10" points="1472.1,585.6 1456,576.2 1455.9,521.3 1472,530.7 				"/>
			</g>
			<g>
				<polygon class="st11" points="1472,530.7 1455.9,521.3 1488.3,502.6 1504.4,511.9 				"/>
			</g>
		</g>
	</g>
	<g>
		<g class="st1">
			<g>
				<polygon class="st9" points="1536.4,511.9 1536.6,549.2 1504.1,567.9 1504,530.6 				"/>
			</g>
			<g>
				<polygon class="st10" points="1504.1,567.9 1471.9,549.2 1471.8,511.9 1504,530.6 				"/>
			</g>
			<g>
				<polygon class="st11" points="1504,530.6 1471.8,511.9 1504.2,493.2 1536.4,511.9 				"/>
			</g>
		</g>
	</g>
	<g>
		<g class="st1">
			<g>
				<polygon class="st9" points="1542.9,533.7 1543,552.5 1510.2,571.4 1510.2,552.6 				"/>
			</g>
			<g>
				<polygon class="st10" points="1510.2,571.4 1503.8,567.7 1503.7,548.8 1510.2,552.6 				"/>
			</g>
			<g>
				<polygon class="st11" points="1510.2,552.6 1503.7,548.8 1536.5,529.9 1542.9,533.7 				"/>
			</g>
		</g>
	</g>
	<g>
		<g class="st1">
			<g>
				<polygon class="st12" points="1521.1,500.4 1514.7,496.7 1514.6,487.9 1521.1,491.6 				"/>
			</g>
			<g>
				<polygon class="st13" points="1521.1,491.6 1514.6,487.9 1521.1,484.1 1527.6,487.9 				"/>
			</g>
			<g>
				<polygon class="st13" points="1495.2,515.4 1488.7,511.7 1514.7,496.7 1521.1,500.4 				"/>
			</g>
			<g>
				<polygon class="st12" points="1488.7,526.6 1482.2,522.9 1482.2,515.4 1488.7,519.2 				"/>
			</g>
			<g>
				<polygon class="st13" points="1488.6,510.3 1482.2,506.6 1488.7,502.8 1495.1,506.6 				"/>
			</g>
			<g>
				<polygon class="st12" points="1488.7,519.2 1482.2,515.4 1482.2,506.6 1488.6,510.3 				"/>
			</g>
			<g>
				<polygon class="st14" points="1527.6,487.9 1527.6,496.7 1527.6,504.1 1488.7,526.6 1488.7,519.2 1488.6,510.3 1495.1,506.6 
					1495.2,515.4 1521.1,500.4 1521.1,491.6 				"/>
			</g>
		</g>
	</g>
	<g>
		<path class="st11" d="M1486.8,528.5L1486.8,528.5L1486.8,528.5L1486.8,528.5l-3.2-1.9l0,0c-0.1,0-0.2-0.1-0.3-0.1c0,0,0,0-0.1,0
			h-0.1h-0.1c-0.1,0-0.1,0-0.2,0h-0.1c0,0,0,0-0.1,0s-0.2,0-0.3,0l0,0h-0.1c-0.1,0-0.2,0-0.3,0h-0.1c-0.1,0-0.1,0-0.2,0
			s-0.1,0-0.2,0h-0.1c-0.1,0-0.1,0-0.2,0h-0.1h-0.1c-0.1,0-0.3,0.1-0.4,0.1h-0.1c0,0-0.1,0-0.1,0.1c0,0-0.1,0-0.1,0.1
			c-0.2,0.1-0.3,0.2-0.5,0.3s-0.3,0.2-0.5,0.3c-0.1,0-0.1,0.1-0.2,0.1c-0.1,0.1-0.2,0.2-0.3,0.3c-0.1,0-0.1,0.1-0.2,0.2
			c-0.1,0.1-0.2,0.2-0.3,0.3c-0.1,0.1-0.1,0.1-0.2,0.2l-0.1,0.1l-0.1,0.1c-0.1,0.1-0.2,0.3-0.4,0.4l-0.1,0.1l-0.1,0.1
			c-0.1,0.1-0.1,0.2-0.2,0.3c0,0.1-0.1,0.1-0.1,0.2l-0.1,0.1c-0.1,0.1-0.1,0.1-0.1,0.2l-0.1,0.1c-0.1,0.1-0.1,0.2-0.2,0.2
			c0,0.1-0.1,0.1-0.1,0.2c0,0,0,0,0,0.1c-0.1,0.2-0.2,0.3-0.3,0.5l0,0c0,0,0,0.1-0.1,0.1c-0.1,0.1-0.1,0.2-0.2,0.3
			c0,0.1-0.1,0.1-0.1,0.2c0,0.1-0.1,0.1-0.1,0.2c0,0,0,0.1-0.1,0.1c-0.1,0.1-0.1,0.3-0.2,0.4c0,0,0,0,0,0.1l0,0
			c-0.1,0.2-0.1,0.3-0.2,0.5v0.1c0,0.1,0,0.1-0.1,0.2c0,0.1-0.1,0.2-0.1,0.2c0,0.1,0,0.1-0.1,0.2c0,0.1,0,0.1-0.1,0.2v0.1
			c0,0.1,0,0.2-0.1,0.2c0,0.1,0,0.2-0.1,0.3v0.1c0,0.1,0,0.1,0,0.2c0,0.1-0.1,0.3-0.1,0.4v0.1c0,0.1,0,0.2,0,0.3s0,0.1,0,0.2
			c0,0.2,0,0.4,0,0.6l3.2,1.9l10.8-6.2C1488.4,530.3,1487.8,529.1,1486.8,528.5z M1483.6,528.6L1483.6,528.6
			C1483.6,528.6,1483.6,528.6,1483.6,528.6L1483.6,528.6z M1484.2,528.4L1484.2,528.4L1484.2,528.4L1484.2,528.4z M1484.7,528.3
			C1484.7,528.2,1484.7,528.2,1484.7,528.3C1484.7,528.2,1484.7,528.2,1484.7,528.3L1484.7,528.3z M1485.1,528.2L1485.1,528.2
			C1485.2,528.2,1485.2,528.2,1485.1,528.2L1485.1,528.2z M1485.6,528.2c0.1,0,0.1,0,0.2,0C1485.7,528.2,1485.6,528.2,1485.6,528.2
			C1485.5,528.2,1485.6,528.2,1485.6,528.2z M1486,528.3L1486,528.3C1486.1,528.3,1486.1,528.3,1486,528.3L1486,528.3z
			 M1486.4,528.4C1486.4,528.4,1486.5,528.4,1486.4,528.4C1486.5,528.4,1486.5,528.4,1486.4,528.4L1486.4,528.4z"/>
		<g>
			<path class="st9" d="M1482.9,528.9c3-1.7,5.4-0.3,5.4,3.1l-10.8,6.2C1477.5,534.8,1480,530.6,1482.9,528.9z"/>
		</g>
	</g>
</g>
<g>
	<g>
		<g class="st1">
			<g>
				<polygon class="st5" points="1706.8,605.7 1601.3,667 1495.1,605.7 1600.6,544.4 				"/>
			</g>
			<g>
				<polygon class="st6" points="1706.8,605.7 1706.8,626.1 1601.3,687.4 1601.3,667 				"/>
			</g>
			<g>
				<polygon class="st4" points="1601.3,667 1601.3,687.4 1495.1,626.1 1495.1,605.7 				"/>
			</g>
		</g>
	</g>
	<g class="st15">
		<polygon class="st6" points="1706.8,605.7 1679.3,621.4 1573.1,560.1 1600.6,544.4 		"/>
	</g>
	<g>
		<g class="st1">
			<g>
				<polygon class="st4" points="1689.6,493.9 1689.3,615.9 1583.1,554.6 1583.4,432.6 				"/>
			</g>
			<g>
				<polygon class="st6" points="1689.6,493.9 1707.2,483.6 1706.8,605.7 1689.3,615.9 				"/>
			</g>
			<g>
				<polygon class="st16" points="1583.4,432.6 1601,422.3 1707.2,483.6 1689.6,493.9 				"/>
			</g>
		</g>
	</g>
	<g>
		<polygon class="st6" points="1689.6,493.9 1689.3,569 1583.1,507.7 1583.4,432.6 		"/>
	</g>
	<g>
		<polygon class="st17" points="1689.6,447 1707.2,436.8 1706.8,558.8 1689.3,569 		"/>
	</g>
	<g>
		<polygon class="st4" points="1851.4,328.7 1850.5,651.3 1379,379 1379.9,56.5 		"/>
		<polygon class="st18" points="1404,364.6 1404.8,99.7 1826.4,343.1 1825.6,608 		"/>
	</g>
	<g>
		<polygon class="st6" points="1851.4,328.7 1877.8,313.4 1876.9,635.9 1850.5,651.3 		"/>
	</g>
	<g>
		<polygon class="st5" points="1379.9,56.5 1406.3,41.2 1877.8,313.4 1851.4,328.7 		"/>
	</g>
	<polyline class="st19" points="1826.4,343.1 1825.6,608 1404,364.6 	"/>
</g>
</svg>
