<?xml version="1.0" encoding="utf-8"?>
<!-- Generator: Adobe Illustrator 22.0.1, SVG Export Plug-In . SVG Version: 6.00 Build 0)  -->
<svg version="1.1" id="Layer_1" xmlns="http://www.w3.org/2000/svg" xmlns:xlink="http://www.w3.org/1999/xlink" x="0px" y="0px"
	 viewBox="0 0 3094.4 1563.9" style="enable-background:new 0 0 3094.4 1563.9;" xml:space="preserve">
<style type="text/css">
	.st0{fill:url(#SVGID_1_);}
	.st1{fill:url(#SVGID_2_);}
	.st2{fill:url(#SVGID_3_);}
	.st3{fill:url(#SVGID_4_);}
	.st4{fill:#326CE5;}
	.st5{fill:#2C5EC8;}
	.st6{fill:#122956;}
	.st7{fill:#1E3A75;}
	.st8{fill:#0C1B39;}
	.st9{fill:none;}
	.st10{fill:#193672;}
	.st11{fill:#2551AC;}
	.st12{fill:url(#SVGID_5_);}
	.st13{fill:url(#SVGID_6_);}
	.st14{fill:url(#SVGID_7_);}
	.st15{fill:url(#SVGID_8_);}
	.st16{fill:#1F448F;}
	.st17{fill:url(#SVGID_9_);}
	.st18{fill:url(#SVGID_10_);}
	.st19{fill:url(#SVGID_11_);}
</style>
<title>header-dark</title>
<linearGradient id="SVGID_1_" gradientUnits="userSpaceOnUse" x1="1547.2" y1="676.33" x2="1547.2" y2="34" gradientTransform="matrix(1 0 0 1 0 -34)">
	<stop  offset="0" style="stop-color:#0C1B39"/>
	<stop  offset="0.23" style="stop-color:#0E2044"/>
	<stop  offset="0.64" style="stop-color:#112752"/>
	<stop  offset="1" style="stop-color:#122956"/>
</linearGradient>
<rect class="st0" width="3094.4" height="642.3"/>
<linearGradient id="SVGID_2_" gradientUnits="userSpaceOnUse" x1="1547.2" y1="1597.9" x2="1547.2" y2="659.4075" gradientTransform="matrix(1 0 0 1 0 -34)">
	<stop  offset="0.7" style="stop-color:#193672"/>
	<stop  offset="0.81" style="stop-color:#18346D"/>
	<stop  offset="0.94" style="stop-color:#142D5F"/>
	<stop  offset="1" style="stop-color:#122956"/>
</linearGradient>
<rect y="625.4" class="st1" width="3094.4" height="938.5"/>
<g id="path3059">
	
		<linearGradient id="SVGID_3_" gradientUnits="userSpaceOnUse" x1="2131.5706" y1="1006.1342" x2="2820.4707" y2="1006.1342" gradientTransform="matrix(1 0 0 1 0 -34)">
		<stop  offset="0" style="stop-color:#193672"/>
		<stop  offset="0.25" style="stop-color:#152E61"/>
		<stop  offset="0.73" style="stop-color:#0E2044"/>
		<stop  offset="1" style="stop-color:#0C1B39"/>
	</linearGradient>
	<path class="st2" d="M2641.4,1151.8c3.5,6-1.8,12.4-12.1,14.5c-6.9,1.5-14.2,0.5-20.5-2.7c-1.9-1-3.5-2.6-4.7-4.4
		c-0.8-1-1.8-1.9-2.4-2.9c-2.3-3.2-4.2-6.8-5.8-10.3c-3.7-6.9-8.2-13.4-13.7-19c-0.5-0.3-1-0.6-1.5-1c-2.7-1.5-5.6-2.3-8.5-2.6
		l-4.7-4.8c-59.5,13.1-121.2,13.2-180.8,0.5l-4,4.2c-3.5,0.5-6.9,1.8-10,3.7c-5.3,5.8-9.7,12.1-13.2,19c-1.6,3.7-3.4,7.1-5.5,10.5
		c-0.6,1-1.8,2.1-2.6,3.1c-0.5,0.6-1,1.3-1.6,1.9c-5.5,5.3-17.6,7.1-26.9,3.9c-1.3-0.5-2.6-1-3.9-1.8c-6.3-3.5-7.7-9.3-3.1-13.9
		c0.8-1.1,1.6-2.3,2.3-2.9c3.2-3.2,6.8-6.3,10.5-9c6.4-5.3,12.2-11.3,17.2-18.1c1-2.4,0.3-5-1.6-6.8l3.2-4.5
		c-17.9-6-35.1-13.7-51.4-23c-28.2-16.3-49.8-36.3-62.4-58.5c-2.9,0.2-5.6,0.5-8.4,0.8c-3.4-1.8-7.3-2.7-11-2.6
		c-11.4,1.3-22.9,3.2-34,5.8c-5.6,1.5-11.6,2.7-17.6,4c-1.6,0.3-4,0.5-5.6,0.8c-1.1,0.2-2.3,0.3-3.4,0.5c-5.6,0.5-11.4-0.6-16.4-3.2
		c-2.7-1.3-4.7-3.7-5.6-6.4c-1.5-6.3,6-11.9,16.8-12.7c1.6-0.3,3.9-0.6,5.5-0.8c6.1-0.5,12.6-0.8,18.7-1c11.8-0.5,23.4-1.6,35.1-3.4
		c3.2-0.6,6-2.3,8.1-4.8l8.2-1.3c-8.9-35.8,5.2-72,39.6-102l-6.9-3.5c0.2-1.9-0.6-4-2.3-5.3c-1-0.6-1.8-1.3-2.9-1.8
		c-7.1-4.2-18.2-7.3-28.2-11.1c-5.6-1.6-11.1-3.5-16.3-5.5c-1.3-0.6-3.1-1.5-4.4-2.1c-1-0.3-1.8-0.8-2.7-1.3
		c-7.9-4.7-8.2-11.6-1.1-16.1c7.1-4.5,19.8-4.8,27.7-0.5c1.3,0.6,3.4,1.5,4.7,2.1c1.3,0.6,2.3,1.3,3.4,1.9c3.4,1.9,6.6,4,9.5,6.1
		c1.6,1,3.4,2.1,5,3.1c7.3,4.2,14.7,7.9,22.4,11.1c3.7,0.8,7.4,1,11.1,0.3l6.6,3.1c42.5-26.3,100.2-42.5,162.3-45.8l0.5-5
		c2.7-1.3,4.8-3.2,6.3-5.8c0.3-6.9-0.5-13.9-2.4-20.6c-1.1-3.5-1.9-7.1-2.4-10.8l0.6-3.1c0-0.8,0-1.6,0-2.3c1-6.3,10.5-11,21.3-10.3
		c4.2,0.2,8.4,1.3,12.1,3.2c4,2.3,6.3,5.6,5.6,9v3.4c-0.5,3.7-1.5,7.3-2.7,10.8c-1.8,6.8-2.4,13.7-1.9,20.6c1.6,2.4,3.9,4.5,6.4,5.8
		l0.5,5c60.1,2.7,116.5,17.9,159.2,42.5c1.5,0.8,2.9,1.6,4.4,2.6l6.8-2.9c4,0.3,8.1,0.2,11.9-0.8c9-3.9,17.9-8.5,26.1-14
		c4.2-2.9,8.4-5.5,12.7-8.1c1.1-0.5,2.7-1.3,4-1.8c8.2-4.2,20.6-4,28.4,0.5c4.5,3.2,5.8,6.8,4.2,10.2c-1.8,3.2-4.7,5.6-8.1,7.1
		c-1.3,0.6-3.1,1.5-4.4,1.9c-5.2,2.1-10.6,3.9-16.1,5.5c-10,3.2-19.7,7.3-29,11.9c-2.6,1.8-3.9,4-3.7,6.4l-6.4,3.4
		c28.2,24.2,43.4,52.5,43.5,81.6c0,6.9-0.8,13.9-2.4,20.6l8.1,1.3c1.1,1.1,2.3,2.1,3.7,2.7c1.6,0.8,3.2,1.6,4.8,2.1
		c11.6,1.8,23.4,3.1,35.1,3.5c6.3,0,12.6,0.3,18.7,0.8l4.8,0.6c4,0.3,8.1,1.5,11.6,3.4c4.5,2.6,6.9,6.4,6,10.3
		c-3.4,6.4-14.7,10.2-25.5,8.4l-5.5-0.6c-6-1.1-11.8-2.4-17.6-3.9c-11.3-2.6-22.7-4.5-34.2-5.8c-3.7-0.2-7.6,0.6-11,2.4
		c-1.5-0.2-6-0.5-8.5-0.8c-18.7,34.3-58.5,63.3-111.7,81.9l3.5,4.8c-1.5,1.9-2.1,4.5-1.3,6.9c5.3,6.4,11.4,12.4,18.1,17.6
		c3.7,2.7,7.3,5.8,10.5,9c0.8,0.8,1.8,1.9,2.4,2.9C2640.1,1150,2640.7,1150.8,2641.4,1151.8z M2586.1,1080.2
		c37.4-14,65.8-34.7,80.6-59l-101.2-9.8c-3.7-0.5-7.6-0.2-11.1,0.8c-8.5,2.4-12.1,8.4-7.9,13.4L2586.1,1080.2 M2411.5,1093.1
		c43.2,8.1,87.5,7.9,130.5-0.3l-50.4-51.9c-0.8-1-1.9-1.6-3.1-2.3c-1.3-0.8-2.6-1.3-4-1.8c-8.4-2.6-18.9-0.8-23.4,4.2h-0.3
		L2411.5,1093.1 M2449.7,865.4c-44.2,3.2-85.1,14.7-116.7,32.9l83.8,34.2h0.3c1.9,0.8,4,1.3,6.1,1.6c9.2,1.3,18.5-1.9,20.8-7.4
		c0.2-0.8,0.3-1.5,0.5-2.1L2449.7,865.4 M2332.4,1064.7c11.3,6.4,23,11.8,35.1,16.3l39-55.3c0.5-0.6,0.6-1.5,0.8-2.3l-0.3-0.2
		c0.3-1.1,0.3-2.3,0-3.4c-1-2.3-2.6-4.2-4.8-5.3c-4.7-2.4-10-3.4-15.3-2.7l-101.7,10.2C2295.3,1038,2311.6,1052.7,2332.4,1064.7
		 M2617.2,897.6c-32.2-18.1-73.8-29.5-118.3-32.4l6.3,59.5c0.5,2.3,1.8,4.2,3.7,5.5c0.5,0.5,1.1,0.8,1.8,1.1
		c6.9,3.5,15.1,3.9,22.4,1h0.5L2617.2,897.6 M2274.2,994.2l98.5-16.6v-0.2c6.3-1.1,11.1-4,12.2-7.7c1-3.4-0.8-6.8-5-9.2l-0.5-0.3
		l-76.9-39.5c-19.5,18.5-29.8,40-29.5,61.6C2273.1,986.3,2273.4,990.3,2274.2,994.2 M2566.3,964.7c-1.6,3.5,0.3,7.3,4.5,9.7
		c2.4,1.3,5,2.3,7.7,2.6l-0.2,0.3l99,16.4c0.8-4,1.1-8.1,1.3-12.2c0-21.8-10.6-43-30.5-61.6l-76.6,40
		C2569.3,960.8,2567.5,962.6,2566.3,964.7 M2510.7,976.9l-19.5-14.2l-31.3-0.2l-19.5,14.3l7.1,17.7l28.4,7.9l28-7.7L2510.7,976.9"/>
</g>
<linearGradient id="SVGID_4_" gradientUnits="userSpaceOnUse" x1="1871.4675" y1="1015.6664" x2="2961.4375" y2="1015.6664" gradientTransform="matrix(1 0 0 1 0 -34)">
	<stop  offset="0" style="stop-color:#193672"/>
	<stop  offset="0.25" style="stop-color:#152E61"/>
	<stop  offset="0.73" style="stop-color:#0E2044"/>
	<stop  offset="1" style="stop-color:#0C1B39"/>
</linearGradient>
<path class="st3" d="M2961.4,1059.8L2961.4,1059.8L2832.2,814L2475,705.3v13.2l0,0v-13.2l-42.1,12.7l-42.1-12.7v13.1l0,0v-12.9
	l-42.9,13.1h-47.4l-16.9,9.8l11.1,6.4l-261.1,79.5l-19.2,36.3h-28.8l-16.9,9.7l16.8,9.8h18.7l-96.2,182.6h-19.7l-16.9,9.8l16.8,9.7
	h33.2l202.4,144.6h-3.5l-16.9,9.8l16.8,9.7h30.9l30,21.4l209.5,0.3l0,0h15.6l0,0h32.4h36.1l0,0h15.6l0,0l193.9-0.3L2961.4,1059.8z
	 M2803.3,857.5l-12.2-7.1h-23.9l-14.5-27.7l38.5,11.8L2803.3,857.5z M2617,869.9h108.6l96.1,182.4H2714l-16.9,9.7l16.8,9.7h80.7
	l-205.8,144.7h-106.7l-16.9,9.8l3.5,2.1h-30l-130.9-0.3l3.2-1.9l-16.8-9.8h-17.1l-209.7-147.5l11.8-6.8l-16.8-9.8h-18.4l96.1-182.4
	h19.3l16.9-9.8l-16.9-9.8h-9.2l8.4-16l274.1-83.6l274.1,83.6l8.4,16h-98.3l-16.9,9.7L2617,869.9z M2074.9,834.4l38.5-11.8
	l-14.5,27.7h-32.4L2074.9,834.4z M2056.2,869.9h32.4l-96.1,182.6h-32.4L2056.2,869.9z M1987.5,1072h18.2l202.4,144.6h-15
	L1987.5,1072z M2665.2,1221.9l-8.2-4.8l203.6-145.4h18.2L2665.2,1221.9z M2898.1,1058.1l-10.2-6h-14.5l-96.1-182.4h13.5l14.5-8.4
	l100.6,191.1L2898.1,1058.1z"/>
<polygon class="st4" points="2276,976.8 2292.8,986.6 2309.7,976.8 2292.9,967.1 "/>
<polygon class="st5" points="2276,976.8 2277.4,1226.4 2294.4,1236.1 2292.8,986.6 "/>
<polygon class="st6" points="2292.8,986.6 2294.4,1236.1 2311.1,1226.4 2309.7,976.8 "/>
<g>
	<polygon class="st7" points="2791.2,718.4 2791.2,759.5 2475,663 2475,621.9 	"/>
	<polygon class="st8" points="2906,936.5 2903.3,977.7 2791.2,759.5 2791.2,718.4 	"/>
	<path class="st4" d="M2475,589.1l357.1,108.8l129.3,245.8l-55.4-7.3l-114.8-218.2L2475,621.7"/>
</g>
<g>
	<polygon class="st7" points="2791.2,627 2791.2,668.1 2475,571.7 2475,530.5 	"/>
	<polygon class="st8" points="2906,845.2 2903.3,886.3 2791.2,668.1 2791.2,627 	"/>
	<path class="st4" d="M2475,497.9l357.1,108.8l129.3,245.8l-55.4-7.3L2791.2,627L2475,530.5"/>
</g>
<g>
	<polygon class="st5" points="2158.8,718.4 2158.8,759.5 2475,663 2475,621.9 	"/>
	<line class="st9" x1="2475" y1="621.9" x2="2475" y2="663"/>
	<polygon class="st10" points="2044.1,936.5 2046.8,977.7 2158.8,759.5 2158.8,718.4 	"/>
	<path class="st4" d="M2475,621.9l-316.2,96.5l-114.8,218.2l-55.4,7.3l129.3-245.8L2475,589.3"/>
</g>
<g>
	<polygon class="st5" points="2158.8,627 2158.8,668.1 2475,571.7 2475,530.5 	"/>
	<line class="st9" x1="2475" y1="530.5" x2="2475" y2="571.7"/>
	<polygon class="st10" points="2044.1,845.2 2046.8,886.3 2158.8,668.1 2158.8,627 	"/>
	<path class="st4" d="M2475,530.5L2158.8,627l-114.8,218.2l-55.4,7.3l129.3-245.8L2475,498.1"/>
</g>
<g>
	<polygon class="st4" points="2674.2,976.8 2657.3,986.6 2640.6,976.8 2657.3,967.1 	"/>
	<polygon class="st5" points="2674.2,976.8 2672.6,1226.4 2655.9,1236.1 2657.3,986.6 	"/>
	<polygon class="st6" points="2657.3,986.6 2655.9,1236.1 2638.9,1226.4 2640.6,976.8 	"/>
</g>
<g>
	<polygon class="st4" points="2906,812.5 2889.2,822.2 2872.3,812.5 2889.1,802.7 	"/>
	<polygon class="st5" points="2906,812.5 2904.5,1062.2 2887.6,1071.8 2889.2,822.2 	"/>
	<polygon class="st6" points="2889.2,822.2 2887.6,1071.8 2870.9,1062.2 2872.3,812.5 	"/>
</g>
<g>
	<line class="st9" x1="2906" y1="845.2" x2="2903.3" y2="886.3"/>
	<polygon class="st11" points="2684.7,1050.1 2684.7,1091.2 2961.4,893.4 2961.4,852.3 	"/>
</g>
<g>
	<line class="st9" x1="2906" y1="936.5" x2="2903.3" y2="977.7"/>
	<polygon class="st11" points="2684.7,1141.5 2684.7,1182.6 2961.4,984.8 2961.4,943.7 	"/>
</g>
<linearGradient id="SVGID_5_" gradientUnits="userSpaceOnUse" x1="2475.0364" y1="687.6923" x2="2791.2454" y2="687.6923" gradientTransform="matrix(1 0 0 1 0 -34)">
	<stop  offset="0" style="stop-color:#2C5EC8"/>
	<stop  offset="0.43" style="stop-color:#2C5DC6"/>
	<stop  offset="0.61" style="stop-color:#2A5ABF"/>
	<stop  offset="0.73" style="stop-color:#2754B3"/>
	<stop  offset="0.84" style="stop-color:#234CA1"/>
	<stop  offset="0.93" style="stop-color:#1F428B"/>
	<stop  offset="1" style="stop-color:#193672"/>
</linearGradient>
<path class="st12" d="M2475,589.1l298.6,90.9l17.6,38.2L2475,621.7"/>
<g>
	<polygon class="st4" points="2808.8,610.4 2792.1,620.3 2775.1,610.4 2792.1,600.7 	"/>
	<polygon class="st5" points="2808.8,610.4 2807.4,860.1 2790.6,869.9 2792.1,620.3 	"/>
	<polygon class="st6" points="2792.1,620.3 2790.6,869.9 2773.7,860.1 2775.1,610.4 	"/>
</g>
<linearGradient id="SVGID_6_" gradientUnits="userSpaceOnUse" x1="2144.0422" y1="600.0083" x2="2466.843" y2="686.4904" gradientTransform="matrix(1 0 0 1 0 -34)">
	<stop  offset="0.78" style="stop-color:#326CE5"/>
	<stop  offset="0.82" style="stop-color:#3069DE"/>
	<stop  offset="0.89" style="stop-color:#2C5FCB"/>
	<stop  offset="0.96" style="stop-color:#2551AC"/>
</linearGradient>
<path class="st13" d="M2303.7,641.4c0,11.4,0,22.6-0.2,32.9l171.3-52.4v-32.7L2303.7,641.4z"/>
<linearGradient id="SVGID_7_" gradientUnits="userSpaceOnUse" x1="2102.5886" y1="640.6031" x2="2480.041" y2="553.4603" gradientTransform="matrix(1 0 0 1 0 -34)">
	<stop  offset="0.78" style="stop-color:#326CE5"/>
	<stop  offset="0.82" style="stop-color:#3069DE"/>
	<stop  offset="0.89" style="stop-color:#2C5FCB"/>
	<stop  offset="0.96" style="stop-color:#2551AC"/>
</linearGradient>
<path class="st14" d="M2303.6,550.1c0.2,9.8,0.2,21,0.2,32.7l171.3-52.2v-32.7L2303.6,550.1z"/>
<linearGradient id="SVGID_8_" gradientUnits="userSpaceOnUse" x1="1988.6355" y1="763.6017" x2="2158.8274" y2="763.6017" gradientTransform="matrix(1 0 0 1 0 -34)">
	<stop  offset="0.78" style="stop-color:#326CE5"/>
	<stop  offset="0.82" style="stop-color:#3069DE"/>
	<stop  offset="0.89" style="stop-color:#2C5FCB"/>
	<stop  offset="0.96" style="stop-color:#2551AC"/>
</linearGradient>
<path class="st15" d="M2158.8,627l-114.8,218.2l-55.4,7.3l129.3-245.8"/>
<g>
	<polygon class="st4" points="2141.3,610.4 2158,620.3 2174.9,610.4 2158.2,600.7 	"/>
	<polygon class="st5" points="2141.3,610.4 2142.9,860.1 2159.6,869.9 2158,620.3 	"/>
	<polygon class="st6" points="2158,620.3 2159.6,869.9 2176.6,860.1 2174.9,610.4 	"/>
</g>
<g>
	<polygon class="st4" points="2044.1,812.5 2060.8,822.2 2077.8,812.5 2061,802.7 	"/>
	<polygon class="st5" points="2044.1,812.5 2045.7,1062.2 2062.4,1071.8 2060.8,822.2 	"/>
	<polygon class="st6" points="2060.8,822.2 2062.4,1071.8 2079.4,1062.2 2077.8,812.5 	"/>
</g>
<g>
	<line class="st9" x1="2044.1" y1="845.2" x2="2046.8" y2="886.3"/>
	<polygon class="st11" points="2265.5,1050.1 2265.5,1091.2 1988.6,893.4 1988.6,852.3 	"/>
	<path class="st16" d="M2660.4,1050.1l-192.9,0.3l-177.8-0.3h-24.2v41.1h26.9l167,0.3l0,0h15.6l0,0l182.6-0.3h26.9v-41.1H2660.4z"/>
	<polygon class="st4" points="2293.7,1020.7 2044.1,845.2 1988.6,852.3 2265.5,1050.1 2684.7,1050.1 2961.4,852.3 2906,845.2 
		2656.3,1020.7 	"/>
</g>
<linearGradient id="SVGID_9_" gradientUnits="userSpaceOnUse" x1="2475.0364" y1="655.2978" x2="2791.2292" y2="655.2978" gradientTransform="matrix(1 0 0 1 0 -34)">
	<stop  offset="0" style="stop-color:#193672"/>
	<stop  offset="1.000000e-02" style="stop-color:#1F438D"/>
	<stop  offset="3.000000e-02" style="stop-color:#244DA3"/>
	<stop  offset="5.000000e-02" style="stop-color:#2754B4"/>
	<stop  offset="7.000000e-02" style="stop-color:#2A5ABF"/>
	<stop  offset="0.1" style="stop-color:#2C5DC6"/>
	<stop  offset="0.19" style="stop-color:#2C5EC8"/>
</linearGradient>
<path class="st17" d="M2577.2,620.4L2475,589.3V622l102.3,31.3C2577.4,645.1,2577.4,633.1,2577.2,620.4z"/>
<g>
	<polygon class="st4" points="2492.8,478.6 2475.8,488.3 2458.9,478.6 2475.8,468.8 	"/>
	<polygon class="st5" points="2492.8,478.6 2491.2,728.2 2474.4,737.9 2475.8,488.3 	"/>
	<polygon class="st6" points="2475.8,488.3 2474.4,737.9 2457.5,728.2 2458.9,478.6 	"/>
</g>
<g>
	<line class="st9" x1="2044.1" y1="936.5" x2="2046.8" y2="977.7"/>
	<polygon class="st11" points="2265.5,1141.5 2265.5,1182.6 1988.6,984.8 1988.6,943.7 	"/>
	<path class="st16" d="M2660.4,1141.5l-199.8,0.3l-170.8-0.3h-24.2v41.1h26.9l151.3,0.3l0,0h16.9h14.5l0,0l182.6-0.3h26.9v-41.1
		H2660.4z"/>
	<polygon class="st4" points="2656.3,1112.1 2906,936.5 2961.4,943.7 2684.7,1141.5 2265.5,1141.5 1988.6,943.7 2044.1,936.5 
		2293.7,1112.1 	"/>
</g>
<linearGradient id="SVGID_10_" gradientUnits="userSpaceOnUse" x1="2887.7844" y1="1105.8391" x2="2887.7844" y2="1059.3749" gradientTransform="matrix(1 0 0 1 0 -34)">
	<stop  offset="0" style="stop-color:#0C1B39;stop-opacity:0.5"/>
	<stop  offset="0.62" style="stop-color:#0C1B39;stop-opacity:0.62"/>
	<stop  offset="1" style="stop-color:#0C1B39;stop-opacity:0.75"/>
</linearGradient>
<polyline class="st18" points="2904.7,1025.4 2904.7,1062.2 2887.6,1071.8 2870.9,1062.2 2870.9,1049.6 2904.7,1025.4 "/>
<linearGradient id="SVGID_11_" gradientUnits="userSpaceOnUse" x1="2655.8655" y1="1270.1324" x2="2655.8655" y2="1216.6251" gradientTransform="matrix(1 0 0 1 0 -34)">
	<stop  offset="0" style="stop-color:#0C1B39;stop-opacity:0.5"/>
	<stop  offset="0.62" style="stop-color:#0C1B39;stop-opacity:0.62"/>
	<stop  offset="1" style="stop-color:#0C1B39;stop-opacity:0.75"/>
</linearGradient>
<polyline class="st19" points="2672.8,1182.6 2672.8,1226.4 2655.7,1236.1 2638.9,1226.4 2638.9,1182.6 "/>
</svg>
