<svg id="Layer_1" xmlns="http://www.w3.org/2000/svg" viewBox="0 0 1920 1080"><style>.st10{fill:#326ce5}</style><linearGradient id="SVGID_1_" gradientUnits="userSpaceOnUse" x1="-2" y1="541.338" x2="1918" y2="541.338"><stop offset="0" stop-color="#193672"/><stop offset=".172" stop-color="#1c3e83"/><stop offset=".471" stop-color="#214899"/><stop offset=".753" stop-color="#244fa7"/><stop offset="1" stop-color="#2551ac"/></linearGradient><path fill="url(#SVGID_1_)" d="M-2 1.3h1920v1080H-2z"/><path d="M1645.2 779.7c.4.3.9.5 1.3.8 4.2 2.8 7.1 6.1 8.6 9.7l51.3 123.8c2.7 6.5.1 13.3-6.9 18.5l-134.5 99.3c-7.1 5.2-17.9 8.3-29.3 8.3l-218.9.1c-10.1 0-19.7-2.4-26.8-6.5-1-.6-1.9-1.2-2.8-1.8l-138.5-99.3c-7.3-5.2-10.1-11.9-7.8-18.4l46.2-123.9c.3-.7.6-1.4 1-2.1 3.1-5.6 10.1-10.3 19.3-12.9l195.8-55.3c10.3-2.9 22.4-2.9 32.7 0l198.5 55.1c3.9 1.3 7.6 2.8 10.8 4.6z" fill="#1f438f"/><path d="M1645.2 716.2c.4.3.9.5 1.3.8 4.2 2.8 7.1 6.1 8.6 9.7l51.3 123.8c2.7 6.5.1 13.3-6.9 18.5L1565 968.3c-7.1 5.2-17.9 8.3-29.3 8.3l-218.9.1c-10.1 0-19.7-2.4-26.8-6.5-1-.6-1.9-1.2-2.8-1.8l-138.5-99.3c-7.3-5.2-10.1-11.9-7.8-18.4l46.2-123.9c.3-.7.6-1.4 1-2.1 3.1-5.6 10.1-10.3 19.3-12.9l195.8-55.3c10.3-2.9 22.4-2.9 32.7 0l198.5 55.1c3.9 1.3 7.6 2.8 10.8 4.6z" fill="#0c1b39"/><path d="M1645.2 702.3c.4.3.9.5 1.3.8 4.2 2.8 7.1 6.1 8.6 9.7l51.3 123.8c2.7 6.5.1 13.3-6.9 18.5L1565 954.4c-7.1 5.2-17.9 8.3-29.3 8.3l-218.9.1c-10.1 0-19.7-2.4-26.8-6.5-1-.6-1.9-1.2-2.8-1.8l-138.5-99.3c-7.3-5.2-10.1-11.9-7.8-18.4l46.2-123.9c.3-.7.6-1.4 1-2.1 3.1-5.6 10.1-10.3 19.3-12.9l195.8-55.3c10.3-2.9 22.4-2.9 32.7 0l198.5 55.1c3.9 1.3 7.6 2.8 10.8 4.6z" fill="#122856"/><path d="M1317.1 923.6c-2.5 0-4.3-.4-5.1-.7l-122.2-87.6 34.5-92.4 190.9-53.9c1.3-.4 2.9-.6 4.6-.6 1.7 0 3.4.2 4.7.6l194.6 54.1 38.7 93.3-117.2 86.6c-.8.2-2.4.6-4.5.6h-219z" fill="#162f65"/><path d="M1657.7 756.9l-117.2 86.6c-.8.2-2.4.6-4.5.6l-218.9.1c-2.5 0-4.3-.4-5.1-.7l-122.2-87.6 34.5-92.4 190.9-53.9c1.3-.4 2.9-.6 4.6-.6 1.7 0 3.4.2 4.7.6l194.6 54.1 38.6 93.2z" fill="#1b397a"/><path d="M1657.7 677.4L1540.5 764c-.8.2-2.4.6-4.5.6l-218.9.1c-2.5 0-4.3-.4-5.1-.7l-122.2-87.6 34.5-92.4 190.9-53.9c1.3-.4 2.9-.6 4.6-.6 1.7 0 3.4.2 4.7.6l194.6 54.1 38.6 93.2z" fill="#1f4390"/><path d="M1657.7 597.9l-117.2 86.6c-.8.2-2.4.6-4.5.6l-218.9.1c-2.5 0-4.3-.4-5.1-.7l-122.2-87.6 34.5-92.4 190.9-53.9c1.3-.4 2.9-.6 4.6-.6 1.7 0 3.4.2 4.7.6l194.6 54.1 38.6 93.2z" fill="#244ea5"/><path d="M1657.7 518.4L1540.5 605c-.8.2-2.4.6-4.5.6l-218.9.1c-2.5 0-4.3-.4-5.1-.7l-122.2-87.6 34.5-92.4 190.9-53.9c1.3-.4 2.9-.6 4.6-.6 1.7 0 3.4.2 4.7.6l194.6 54.1 38.6 93.2z" fill="#2958ba"/><path d="M1657.7 438.9l-117.2 86.6c-.8.2-2.4.6-4.5.6l-218.9.1c-2.5 0-4.3-.4-5.1-.7l-122.2-87.6 34.5-92.4 190.9-53.9c1.3-.4 2.9-.6 4.6-.6 1.7 0 3.4.2 4.7.6l194.6 54.1 38.6 93.2z" fill="#2d62d0"/><path class="st10" d="M1317.1 446.6c-2.5 0-4.3-.4-5.1-.7l-122.2-87.6 34.5-92.4 190.9-53.9c1.3-.4 2.9-.6 4.6-.6 1.7 0 3.4.2 4.7.6l194.6 54.1 38.7 93.3-117.3 86.6c-.8.2-2.4.6-4.5.6h-218.9z"/><linearGradient id="SVGID_2_" gradientUnits="userSpaceOnUse" x1="1629.634" y1="962.061" x2="1629.634" y2="367.034"><stop offset="0" stop-color="#224899" stop-opacity="0"/><stop offset="1" stop-color="#1e3f86" stop-opacity=".9"/></linearGradient><path d="M1707.4 367c.2 5-2.6 9.9-8 13.9L1565 480.2c-3.6 2.6-8.1 4.7-13.1 6.1V962c5.1-1.4 9.6-3.5 13.1-6.1l134.5-99.3c5-3.7 7.7-8.2 7.9-12.8V367z" fill="url(#SVGID_2_)"/><linearGradient id="SVGID_3_" gradientUnits="userSpaceOnUse" x1="1188.614" y1="879.076" x2="1313.123" y2="879.076"><stop offset="0" stop-color="#326ce5"/><stop offset=".131" stop-color="#278deb"/><stop offset=".32" stop-color="#19b5f2"/><stop offset=".506" stop-color="#0ed6f8"/><stop offset=".685" stop-color="#06ecfc"/><stop offset=".853" stop-color="#02fafe"/><stop offset="1" stop-color="#0ff"/></linearGradient><path fill="none" stroke="url(#SVGID_3_)" stroke-width="4" stroke-miterlimit="10" d="M1312 922.9l-122.2-87.6"/><linearGradient id="SVGID_4_" gradientUnits="userSpaceOnUse" x1="1188.614" y1="799.582" x2="1313.123" y2="799.582"><stop offset="0" stop-color="#326ce5"/><stop offset=".131" stop-color="#278deb"/><stop offset=".32" stop-color="#19b5f2"/><stop offset=".506" stop-color="#0ed6f8"/><stop offset=".685" stop-color="#06ecfc"/><stop offset=".853" stop-color="#02fafe"/><stop offset="1" stop-color="#0ff"/></linearGradient><path fill="none" stroke="url(#SVGID_4_)" stroke-width="4" stroke-miterlimit="10" d="M1312 843.4l-122.2-87.6"/><linearGradient id="SVGID_5_" gradientUnits="userSpaceOnUse" x1="1188.614" y1="720.087" x2="1313.123" y2="720.087"><stop offset="0" stop-color="#326ce5"/><stop offset=".131" stop-color="#278deb"/><stop offset=".32" stop-color="#19b5f2"/><stop offset=".506" stop-color="#0ed6f8"/><stop offset=".685" stop-color="#06ecfc"/><stop offset=".853" stop-color="#02fafe"/><stop offset="1" stop-color="#0ff"/></linearGradient><path fill="none" stroke="url(#SVGID_5_)" stroke-width="4" stroke-miterlimit="10" d="M1312 763.9l-122.2-87.6"/><linearGradient id="SVGID_6_" gradientUnits="userSpaceOnUse" x1="1188.614" y1="640.593" x2="1313.123" y2="640.593"><stop offset="0" stop-color="#326ce5"/><stop offset=".131" stop-color="#278deb"/><stop offset=".32" stop-color="#19b5f2"/><stop offset=".506" stop-color="#0ed6f8"/><stop offset=".685" stop-color="#06ecfc"/><stop offset=".853" stop-color="#02fafe"/><stop offset="1" stop-color="#0ff"/></linearGradient><path fill="none" stroke="url(#SVGID_6_)" stroke-width="4" stroke-miterlimit="10" d="M1312 684.4l-122.2-87.6"/><linearGradient id="SVGID_7_" gradientUnits="userSpaceOnUse" x1="1188.614" y1="561.099" x2="1313.123" y2="561.099"><stop offset="0" stop-color="#326ce5"/><stop offset=".131" stop-color="#278deb"/><stop offset=".32" stop-color="#19b5f2"/><stop offset=".506" stop-color="#0ed6f8"/><stop offset=".685" stop-color="#06ecfc"/><stop offset=".853" stop-color="#02fafe"/><stop offset="1" stop-color="#0ff"/></linearGradient><path fill="none" stroke="url(#SVGID_7_)" stroke-width="4" stroke-miterlimit="10" d="M1312 604.9l-122.2-87.6"/><linearGradient id="SVGID_8_" gradientUnits="userSpaceOnUse" x1="1188.614" y1="481.604" x2="1313.123" y2="481.604"><stop offset="0" stop-color="#326ce5"/><stop offset=".131" stop-color="#278deb"/><stop offset=".32" stop-color="#19b5f2"/><stop offset=".506" stop-color="#0ed6f8"/><stop offset=".685" stop-color="#06ecfc"/><stop offset=".853" stop-color="#02fafe"/><stop offset="1" stop-color="#0ff"/></linearGradient><path fill="none" stroke="url(#SVGID_8_)" stroke-width="4" stroke-miterlimit="10" d="M1312 525.4l-122.2-87.6"/><linearGradient id="SVGID_9_" gradientUnits="userSpaceOnUse" x1="1188.614" y1="402.11" x2="1313.123" y2="402.11"><stop offset="0" stop-color="#326ce5"/><stop offset=".131" stop-color="#278deb"/><stop offset=".32" stop-color="#19b5f2"/><stop offset=".506" stop-color="#0ed6f8"/><stop offset=".685" stop-color="#06ecfc"/><stop offset=".853" stop-color="#02fafe"/><stop offset="1" stop-color="#0ff"/></linearGradient><path fill="none" stroke="url(#SVGID_9_)" stroke-width="4" stroke-miterlimit="10" d="M1312 445.9l-122.2-87.6"/><linearGradient id="SVGID_10_" gradientUnits="userSpaceOnUse" x1="1423.747" y1="964.272" x2="1423.747" y2="484.845"><stop offset="0" stop-color="#224899" stop-opacity="0"/><stop offset="1" stop-color="#1e3f86" stop-opacity=".9"/></linearGradient><path d="M1535.6 488.5l-218.9.1c-7.6 0-14.9-1.3-21.1-3.7v475.7c6.2 2.4 13.5 3.7 21 3.7l218.9-.1c5.7 0 11.2-.7 16.2-2.1V486.3c-4.9 1.4-10.4 2.2-16.1 2.2z" fill="url(#SVGID_10_)"/><linearGradient id="SVGID_11_" gradientUnits="userSpaceOnUse" x1="1217.866" y1="960.563" x2="1217.866" y2="367.034"><stop offset="0" stop-color="#224899" stop-opacity="0"/><stop offset="1" stop-color="#1e3f86" stop-opacity=".9"/></linearGradient><path d="M1289.9 482.1c-1-.6-1.9-1.2-2.8-1.8L1148.6 381c-5.6-4-8.6-8.9-8.6-14v471.3c0 7.9 1.3 13.3 8.6 18.4l138.5 99.3c.9.6 1.8 1.2 2.8 1.8 1.8 1 3.7 1.9 5.8 2.7V484.8c-2.1-.8-4-1.7-5.8-2.7z" fill="url(#SVGID_11_)"/><path d="M1645.2 241.4c.4.3.9.5 1.3.8 4.2 2.8 7.1 6.1 8.6 9.7l51.3 123.8c2.7 6.5.1 13.3-6.9 18.5L1565 493.6c-7.1 5.2-17.9 8.3-29.3 8.3l-218.9.1c-10.1 0-19.7-2.4-26.8-6.5-1-.6-1.9-1.2-2.8-1.8l-138.5-99.3c-7.3-5.2-10.1-11.9-7.8-18.4l46.2-123.9c.3-.7.6-1.4 1-2.1 3.1-5.6 10.1-10.3 19.3-12.9l195.8-55.3c10.3-2.9 22.4-2.9 32.7 0l198.5 55.1c3.9 1.2 7.6 2.7 10.8 4.5z" fill="#2c5ec8"/><path class="st10" d="M1645.2 227.5c.4.3.9.5 1.3.8 4.2 2.8 7.1 6.1 8.6 9.7l51.3 123.8c2.7 6.5.1 13.3-6.9 18.5L1565 479.6c-7.1 5.2-17.9 8.3-29.3 8.3l-218.9.1c-10.1 0-19.7-2.4-26.8-6.5-1-.6-1.9-1.2-2.8-1.8l-138.5-99.3c-7.3-5.2-10.1-11.9-7.8-18.4l46.2-123.9c.3-.7.6-1.4 1-2.1 3.1-5.6 10.1-10.3 19.3-12.9L1403 168c10.3-2.9 22.4-2.9 32.7 0l198.5 55.1c4.1 1.1 7.8 2.6 11 4.4z"/><path opacity=".3" fill="#0ff" d="M1220.9 346.6l22.9-61.3 175.6-49.6 180.1 50 26 62.7-94.6 69.9H1321z"/><linearGradient id="SVGID_12_" gradientUnits="userSpaceOnUse" x1="1301.963" y1="292.404" x2="1361.262" y2="-190.542"><stop offset="0" stop-color="#0ff"/><stop offset="1" stop-color="#224899" stop-opacity="0"/></linearGradient><path opacity=".5" fill="url(#SVGID_12_)" d="M1243.8 285.3v-419.1l175.6-49.6v419.1z"/><linearGradient id="SVGID_13_" gradientUnits="userSpaceOnUse" x1="1482.417" y1="271.313" x2="1536.484" y2="-169.027"><stop offset="0" stop-color="#0ff"/><stop offset="1" stop-color="#224899" stop-opacity="0"/></linearGradient><path opacity=".5" fill="url(#SVGID_13_)" d="M1419.4 235.7l180.1 50v-419.1l-180.1-50z"/><linearGradient id="SVGID_14_" gradientUnits="userSpaceOnUse" x1="1583.519" y1="343.25" x2="1641.41" y2="-128.237"><stop offset="0" stop-color="#0ff"/><stop offset="1" stop-color="#224899" stop-opacity="0"/></linearGradient><path opacity=".5" fill="url(#SVGID_14_)" d="M1625.5 348.4l-26-62.7v-419.1l26 62.7z"/><linearGradient id="SVGID_15_" gradientUnits="userSpaceOnUse" x1="1445.566" y1="356.305" x2="1710.762" y2="-8.707"><stop offset="0" stop-color="#0ff"/><stop offset=".092" stop-color="#05e7f1" stop-opacity=".908"/><stop offset=".323" stop-color="#0fafd2" stop-opacity=".677"/><stop offset=".538" stop-color="#1782b9" stop-opacity=".462"/><stop offset=".729" stop-color="#1d62a8" stop-opacity=".271"/><stop offset=".89" stop-color="#214f9d" stop-opacity=".11"/><stop offset="1" stop-color="#224899" stop-opacity="0"/></linearGradient><path opacity=".5" fill="url(#SVGID_15_)" d="M1530.9 418.3V-.8l94.6-69.9v419.1z"/><linearGradient id="SVGID_16_" gradientUnits="userSpaceOnUse" x1="1290.002" y1="395.816" x2="1561.818" y2="21.694"><stop offset="0" stop-color="#0ff"/><stop offset=".092" stop-color="#05e7f1" stop-opacity=".908"/><stop offset=".323" stop-color="#0fafd2" stop-opacity=".677"/><stop offset=".538" stop-color="#1782b9" stop-opacity=".462"/><stop offset=".729" stop-color="#1d62a8" stop-opacity=".271"/><stop offset=".89" stop-color="#214f9d" stop-opacity=".11"/><stop offset="1" stop-color="#224899" stop-opacity="0"/></linearGradient><path opacity=".5" fill="url(#SVGID_16_)" d="M1530.9 418.3V-.8H1321v419.1z"/><linearGradient id="SVGID_17_" gradientUnits="userSpaceOnUse" x1="1114.176" y1="269.024" x2="1350.513" y2="-56.266"><stop offset="0" stop-color="#0ff"/><stop offset="1" stop-color="#224899" stop-opacity="0"/></linearGradient><path opacity=".5" fill="url(#SVGID_17_)" d="M1243.8 285.3v-419.1l-22.9 61.3v419.1z"/><linearGradient id="SVGID_18_" gradientUnits="userSpaceOnUse" x1="1171.087" y1="310.372" x2="1370.821" y2="35.462"><stop offset="0" stop-color="#0ff"/><stop offset=".092" stop-color="#05e7f1" stop-opacity=".908"/><stop offset=".323" stop-color="#0fafd2" stop-opacity=".677"/><stop offset=".538" stop-color="#1782b9" stop-opacity=".462"/><stop offset=".729" stop-color="#1d62a8" stop-opacity=".271"/><stop offset=".89" stop-color="#214f9d" stop-opacity=".11"/><stop offset="1" stop-color="#224899" stop-opacity="0"/></linearGradient><path opacity=".5" fill="url(#SVGID_18_)" d="M1321 418.3V-.7l-100.1-71.8v419.1z"/><linearGradient id="SVGID_19_" gradientUnits="userSpaceOnUse" x1="1228.414" y1="420.217" x2="1242.353" y2="220.875"><stop offset="0" stop-color="#224899" stop-opacity="0"/><stop offset="1" stop-color="#193672"/></linearGradient><path d="M1321 418.3l-100.1-71.8V219.4l-16.4 4.7s-13.1 2.5-19.1 18.5c-6 16-43.2 115.7-43.2 115.7s-7.5 11.1 3.5 19.8c11 8.7 55.8 40.3 55.8 40.3H1321z" fill="url(#SVGID_19_)"/></svg>