<svg id="Layer_1" xmlns="http://www.w3.org/2000/svg" viewBox="0 0 1920 834"><style>.st1{enable-background:new}.st2{fill:#fff}.st4{fill:#dee1e3}.st5{fill:#ecf0f1}.st6{fill:#bdc3c7}.st9{fill:#2875a9}.st10{fill:#1c5175}.st11{fill:#2d82bc}.st12{fill:#828688}.st13{fill:#d1d7db}</style><path fill="#3d98d3" d="M2.5-.5H1920V834H2.5z"/><g class="st1"><path class="st2" d="M884.9 0H-.3l1 834H1920V599.9z"/></g><g class="st1"><path class="st4" d="M1695.8 755.9l-117.7 69.2L1295 661.7l117.8-69.2z" opacity=".2"/><path class="st5" d="M1668 749.4l-102.7 59.7-283-163.5 102.7-59.7z"/><path class="st6" d="M1668 749.4v8.1l-102.7 59.7v-8.1z"/><path class="st4" d="M1565.3 809.1v8.1l-283.1-163.4.1-8.2z"/></g><path d="M1368.6 615.5l15.4-9 15.5 9-15.4 9-15.5-9zm35.4 20.4l15.4-9-15.5-9-15.4 9 15.5 9zm20 11.6l15.4-9-15.5-9-15.4 9 15.5 9zm19.8-6.5l-15.4 9 15.5 9 15.4-9-15.5-9zm19.9 11.5l-15.4 9 15.5 9 15.4-9-15.5-9zm20 11.5l-15.4 9 15.5 9 15.4-9-15.5-9zm19.9 11.5l-15.4 9 15.5 9 15.4-9-15.5-9zm19.9 11.5l-15.4 9 15.5 9 15.4-9-15.5-9zm20 11.6l-15.4 9 15.5 9 15.4-9-15.5-9zm20 29.4l15.4-9-15.5-9-15.4 9 15.5 9zm19.9 11.5l15.4-9-15.5-9-15.4 9 15.5 9zm20 11.5l15.4-9-15.5-9-15.4 9 15.5 9zm4.3 2.6l15.5 9 15.4-9-15.5-9-15.4 9zm-243.1-117.8l15.4-9-15.5-9-15.4 9 15.5 9zm19.9 11.5l15.4-9-15.5-9-15.4 9 15.5 9zm19.9 11.5l15.4-9-15.5-9-15.4 9 15.5 9zm19.9-6.4l-15.4 9 15.5 9 15.4-9-15.5-9zm19.9 11.5l-15.4 9 15.5 9 15.4-9-15.5-9zm19.9 11.5l-15.4 9 15.5 9 15.4-9-15.5-9zm20 11.5l-15.4 9 15.5 9 15.4-9-15.5-9zm19.9 11.5l-15.4 9 15.5 9 15.4-9-15.5-9zm19.9 11.5l-15.4 9 15.5 9 15.4-9-15.5-9zm20 29.5l15.4-9-15.5-9-15.4 9 15.5 9zm20 11.5l15.4-9-15.5-9-15.4 9 15.5 9zm19.9 11.5l15.4-9-15.5-9-15.4 9 15.5 9zm19.9 11.5l15.4-9-15.5-9-15.4 9 15.5 9zM1345 647.2l15.4-9-15.5-9-15.4 9 15.5 9zm20 11.5l15.4-9-15.5-9-15.4 9 15.5 9zm19.9 11.5l15.4-9-15.5-9-15.4 9 15.5 9zm19.8-6.5l-15.4 9 15.5 9 15.4-9-15.5-9zm19.9 11.5l-15.4 9 15.5 9 15.4-9-15.5-9zm20 11.6l-15.4 9 15.5 9 15.4-9-15.5-9zm19.9 11.5l-15.4 9 15.5 9 15.4-9-15.5-9zm19.9 11.5l-15.4 9 15.5 9 15.4-9-15.5-9zm20 11.5l-15.4 9 15.5 9 15.4-9-15.5-9zm20 29.4l15.4-9-15.5-9-15.4 9 15.5 9zm19.9 11.5l15.4-9-15.5-9-15.4 9 15.5 9zm20 11.5l15.4-9-15.5-9-15.4 9 15.5 9zm19.9 11.5l15.4-9-15.5-9-15.4 9 15.5 9zm-79.4-23.1l15.4-9-135.1-78-15.4 9 135.1 78z" opacity=".5" fill="#dee1e3"/><g class="st1"><path class="st2" d="M1366.4 610.2l15.4-9 15.6 9-15.5 8.9z"/><path class="st6" d="M1397.4 610.2l-.1 4-15.4 9v-4.1z"/><path class="st4" d="M1381.9 619.1v4.1l-15.5-9v-4z"/></g><g class="st1"><path class="st2" d="M1386.3 621.7l15.5-9 15.5 9-15.4 8.9z"/><path class="st6" d="M1417.3 621.7v4l-15.5 9 .1-4.1z"/><path class="st4" d="M1401.9 630.6l-.1 4.1-15.5-9v-4z"/></g><g class="st1"><path class="st2" d="M1406.3 633.2l15.4-9 15.5 9-15.4 8.9z"/><path class="st6" d="M1437.2 633.2v4l-15.4 9v-4.1z"/><path class="st4" d="M1421.8 642.1v4.1l-15.6-9 .1-4z"/></g><g class="st1"><path class="st2" d="M1457.2 644.7l-15.5 8.9-15.5-8.9 15.4-9z"/><path class="st6" d="M1457.2 644.7l-.1 4.1-15.4 8.9v-4.1z"/><path class="st4" d="M1441.7 653.6v4.1l-15.5-8.9v-4.1z"/></g><g class="st1"><path class="st2" d="M1477.1 656.2l-15.4 9-15.6-9 15.5-9z"/><path class="st6" d="M1477.1 656.2v4.1l-15.5 8.9.1-4z"/><path class="st4" d="M1461.7 665.2l-.1 4-15.5-8.9v-4.1z"/></g><g class="st1"><path class="st2" d="M1497 667.7l-15.4 9-15.6-9 15.5-9z"/><path class="st6" d="M1497 667.7v4.1l-15.4 8.9v-4z"/><path class="st4" d="M1481.6 676.7v4l-15.6-8.9v-4.1z"/></g><g class="st1"><path class="st2" d="M1516.9 679.2l-15.4 9-15.5-9 15.4-9z"/><path class="st6" d="M1516.9 679.2v4.1l-15.4 8.9v-4z"/><path class="st4" d="M1501.5 688.2v4l-15.5-8.9v-4.1z"/></g><g class="st1"><path class="st2" d="M1536.9 690.7l-15.5 9-15.5-9 15.4-9z"/><path class="st6" d="M1536.9 690.7v4.1l-15.5 8.9v-4z"/><path class="st4" d="M1521.4 699.7v4l-15.5-8.9v-4.1z"/></g><g class="st1"><path class="st2" d="M1556.8 702.2l-15.4 9-15.6-9 15.5-9z"/><path class="st6" d="M1556.8 702.2v4.1l-15.4 9v-4.1z"/><path class="st4" d="M1541.4 711.2v4.1l-15.6-9v-4.1z"/></g><g class="st1"><path class="st2" d="M1545.8 713.7l15.4-8.9 15.5 8.9-15.4 9z"/><path class="st6" d="M1576.7 713.7v4.1l-15.4 9v-4.1z"/><path class="st4" d="M1561.3 722.7v4.1l-15.5-9v-4.1z"/></g><g class="st1"><path class="st2" d="M1565.7 725.2l15.4-8.9 15.6 8.9-15.5 9z"/><path class="st6" d="M1596.7 725.2v4.1l-15.5 9v-4.1z"/><path class="st4" d="M1581.2 734.2v4.1l-15.5-9v-4.1z"/></g><g class="st1"><path class="st2" d="M1585.6 736.7l15.5-8.9 15.5 8.9-15.4 9z"/><path class="st6" d="M1616.6 736.7v4.1l-15.4 9v-4.1z"/><path class="st4" d="M1601.2 745.7v4.1l-15.6-9v-4.1z"/></g><g class="st1"><path class="st2" d="M1621 739.3l15.5 8.9-15.4 9-15.5-9z"/><path class="st6" d="M1636.5 748.2v4.1l-15.4 9v-4.1z"/><path class="st4" d="M1621.1 757.2v4.1l-15.6-9 .1-4.1z"/></g><g class="st1"><path class="st2" d="M1346.8 621.5l15.5-9 15.5 9-15.4 9z"/><path class="st6" d="M1377.8 621.5v4.1l-15.4 9v-4.1z"/><path class="st4" d="M1362.4 630.5v4.1l-15.6-9v-4.1z"/></g><g class="st1"><path class="st2" d="M1366.8 633l15.4-8.9 15.5 8.9-15.4 9z"/><path class="st6" d="M1397.7 633v4.1l-15.4 9V642z"/><path class="st4" d="M1382.3 642v4.1l-15.5-9V633z"/></g><g class="st1"><path class="st2" d="M1386.7 644.5l15.4-8.9 15.6 8.9-15.5 9z"/><path class="st6" d="M1417.7 644.5v4.1l-15.5 9v-4.1z"/><path class="st4" d="M1402.2 653.5v4.1l-15.5-9v-4.1z"/></g><g class="st1"><path class="st2" d="M1437.6 656l-15.4 9-15.6-9 15.5-8.9z"/><path class="st6" d="M1437.6 656v4.1l-15.4 9V665z"/><path class="st4" d="M1422.2 665v4.1l-15.6-9V656z"/></g><g class="st1"><path class="st2" d="M1457.5 667.5l-15.4 9-15.5-9 15.4-8.9z"/><path class="st6" d="M1457.5 667.5v4.1l-15.4 9v-4.1z"/><path class="st4" d="M1442.1 676.5v4.1l-15.5-9v-4.1z"/></g><g class="st1"><path class="st2" d="M1477.5 679l-15.5 9-15.5-9 15.4-8.9z"/><path class="st6" d="M1477.5 679v4.1l-15.5 9V688z"/><path class="st4" d="M1462 688v4.1l-15.5-9V679z"/></g><g class="st1"><path class="st2" d="M1497.4 690.6l-15.4 8.9-15.6-8.9 15.5-9z"/><path class="st6" d="M1497.4 690.6v4l-15.4 9v-4.1z"/><path class="st4" d="M1482 699.5v4.1l-15.6-9v-4z"/></g><g class="st1"><path class="st2" d="M1517.3 702.1l-15.4 8.9-15.5-8.9 15.4-9z"/><path class="st6" d="M1517.3 702.1v4l-15.4 9V711z"/><path class="st4" d="M1501.9 711v4.1l-15.6-9 .1-4z"/></g><g class="st1"><path class="st2" d="M1537.3 713.6l-15.5 8.9-15.5-8.9 15.4-9z"/><path class="st6" d="M1537.3 713.6l-.1 4-15.4 9v-4.1z"/><path class="st4" d="M1521.8 722.5v4.1l-15.5-9v-4z"/></g><g class="st1"><path class="st2" d="M1526.2 725.1l15.5-9 15.5 9-15.4 8.9z"/><path class="st6" d="M1557.2 725.1v4.1l-15.5 8.9.1-4.1z"/><path class="st4" d="M1541.8 734l-.1 4.1-15.5-8.9v-4.1z"/></g><g class="st1"><path class="st2" d="M1546.2 736.6l15.4-9 15.5 9-15.4 9z"/><path class="st6" d="M1577.1 736.6v4.1l-15.4 8.9v-4z"/><path class="st4" d="M1561.7 745.6v4l-15.6-8.9.1-4.1z"/></g><g class="st1"><path class="st2" d="M1566.1 748.1l15.4-9 15.6 9-15.5 9z"/><path class="st6" d="M1597.1 748.1l-.1 4.1-15.4 8.9v-4z"/><path class="st4" d="M1581.6 757.1v4l-15.5-8.9v-4.1z"/></g><g class="st1"><path class="st2" d="M1586 759.6l15.4-9 15.6 9-15.5 9z"/><path class="st6" d="M1617 759.6v4.1l-15.5 8.9v-4z"/><path class="st4" d="M1601.5 768.6v4l-15.5-8.9v-4.1z"/></g><g class="st1"><path class="st2" d="M1327.3 632.9l15.4-9 15.6 9-15.5 8.9z"/><path class="st6" d="M1358.3 632.9v4.1l-15.5 8.9v-4.1z"/><path class="st4" d="M1342.8 641.8v4.1l-15.5-8.9v-4.1z"/></g><g class="st1"><path class="st2" d="M1347.2 644.4l15.5-9 15.5 9-15.4 9z"/><path class="st6" d="M1378.2 644.4v4.1l-15.4 8.9v-4z"/><path class="st4" d="M1362.8 653.4v4l-15.6-8.9v-4.1z"/></g><g class="st1"><path class="st2" d="M1367.2 655.9l15.4-9 15.5 9-15.4 9z"/><path class="st6" d="M1398.1 655.9v4.1l-15.4 8.9v-4z"/><path class="st4" d="M1382.7 664.9v4l-15.6-8.9.1-4.1z"/></g><g class="st1"><path class="st2" d="M1418.1 667.4l-15.5 9-15.5-9 15.4-9z"/><path class="st6" d="M1418.1 667.4l-.1 4.1-15.4 8.9v-4z"/><path class="st4" d="M1402.6 676.4v4l-15.5-8.9v-4.1z"/></g><g class="st1"><path class="st2" d="M1438 678.9l-15.4 9-15.6-9 15.5-9z"/><path class="st6" d="M1438 678.9v4.1l-15.5 9 .1-4.1z"/><path class="st4" d="M1422.6 687.9l-.1 4.1-15.5-9v-4.1z"/></g><g class="st1"><path class="st2" d="M1457.9 690.4l-15.4 9-15.5-9 15.4-9z"/><path class="st6" d="M1457.9 690.4v4.1l-15.4 9v-4.1z"/><path class="st4" d="M1442.5 699.4v4.1l-15.6-9 .1-4.1z"/></g><g class="st1"><path class="st2" d="M1477.9 701.9l-15.5 9-15.5-9 15.4-8.9z"/><path class="st6" d="M1477.9 701.9l-.1 4.1-15.4 9v-4.1z"/><path class="st4" d="M1462.4 710.9v4.1l-15.5-9v-4.1z"/></g><g class="st1"><path class="st2" d="M1497.8 713.4l-15.5 9-15.5-9 15.4-8.9z"/><path class="st6" d="M1497.8 713.4v4.1l-15.5 9v-4.1z"/><path class="st4" d="M1482.3 722.4v4.1l-15.5-9v-4.1z"/></g><g class="st1"><path class="st2" d="M1517.7 724.9l-15.4 9-15.6-9 15.5-8.9z"/><path class="st6" d="M1517.7 724.9v4.1l-15.4 9v-4.1z"/><path class="st4" d="M1502.3 733.9v4.1l-15.6-9v-4.1z"/></g><g class="st1"><path class="st2" d="M1506.7 736.4l15.4-8.9 15.5 8.9-15.4 9z"/><path class="st6" d="M1537.6 736.4v4.1l-15.4 9v-4.1z"/><path class="st4" d="M1522.2 745.4v4.1l-15.5-9v-4.1z"/></g><g class="st1"><path class="st2" d="M1526.6 747.9l15.4-8.9 15.6 8.9-15.5 9z"/><path class="st6" d="M1557.6 747.9v4.1l-15.5 9v-4.1z"/><path class="st4" d="M1542.1 756.9v4.1l-15.5-9v-4.1z"/></g><g class="st1"><path class="st2" d="M1546.5 759.5l15.5-9 15.5 9-15.4 8.9z"/><path class="st6" d="M1577.5 759.5v4l-15.4 9v-4.1z"/><path class="st4" d="M1562.1 768.4v4.1l-15.6-9v-4z"/></g><g class="st1"><path class="st2" d="M1566.5 771l15.4-9 15.5 9-15.4 8.9z"/><path class="st6" d="M1597.4 771v4l-15.4 9v-4.1z"/><path class="st4" d="M1582 779.9v4.1l-15.5-9v-4z"/></g><g class="st1"><path class="st2" d="M1367.5 678.8l15.5-9 135.1 78-15.4 9z"/><path class="st6" d="M1518.1 747.8v4.1l-15.4 8.9v-4z"/><path class="st4" d="M1502.7 756.8v4l-135.2-78v-4z"/></g><path opacity=".2" fill="#dee1e3" d="M1920.3 599.4l-361.8-208.9-148.6 82.9 173.6 100.3-72.4 42v20.4l98.5 56.8 7.7 4.5 17.2-10 72.7-42.3 174.2 100.6 38.6-21.6z"/><g class="st1"><path class="st9" d="M1457.7 484.8l.1 54.9-32.4 18.7-.2-54.8z"/><path class="st10" d="M1425.4 558.4l-16.1-9.3-.2-54.9 16.1 9.4z"/><path class="st11" d="M1425.2 503.6l-16.1-9.4 32.4-18.7 16.2 9.3z"/></g><g class="st1"><path class="st9" d="M1489.6 503.5l.1 37.3-32.4 18.7-.1-37.3z"/><path class="st10" d="M1457.3 559.5l-32.2-18.7-.2-37.3 32.3 18.7z"/><path class="st11" d="M1457.2 522.2l-32.3-18.7 32.5-18.7 32.2 18.7z"/></g><g class="st1"><path class="st9" d="M1504.4 511.9l.2 54.9-32.5 18.8-.1-54.9z"/><path class="st10" d="M1472.1 585.6l-16.1-9.4-.1-54.9 16.1 9.4z"/><path class="st11" d="M1472 530.7l-16.1-9.4 32.4-18.7 16.1 9.3z"/></g><g class="st1"><path class="st9" d="M1536.4 511.9l.2 37.3-32.5 18.7-.1-37.3z"/><path class="st10" d="M1504.1 567.9l-32.2-18.7-.1-37.3 32.2 18.7z"/><path class="st11" d="M1504 530.6l-32.2-18.7 32.4-18.7 32.2 18.7z"/></g><g class="st1"><path class="st9" d="M1542.9 533.7l.1 18.8-32.8 18.9v-18.8z"/><path class="st10" d="M1510.2 571.4l-6.4-3.7-.1-18.9 6.5 3.8z"/><path class="st11" d="M1510.2 552.6l-6.5-3.8 32.8-18.9 6.4 3.8z"/></g><g class="st1"><path class="st12" d="M1521.1 500.4l-6.4-3.7-.1-8.8 6.5 3.7z"/><path class="st13" d="M1521.1 491.6l-6.5-3.7 6.5-3.8 6.5 3.8zm-25.9 23.8l-6.5-3.7 26-15 6.4 3.7z"/><path class="st12" d="M1488.7 526.6l-6.5-3.7v-7.5l6.5 3.8z"/><path class="st13" d="M1488.6 510.3l-6.4-3.7 6.5-3.8 6.4 3.8z"/><path class="st12" d="M1488.7 519.2l-6.5-3.8v-8.8l6.4 3.7z"/><path fill="#bcc1c5" d="M1527.6 487.9v16.2l-38.9 22.5v-7.4l-.1-8.9 6.5-3.7.1 8.8 25.9-15v-8.8z"/></g><path class="st11" d="M1486.8 528.5l-3.2-1.9c-.1 0-.2-.1-.3-.1h-2.4c-.1 0-.3.1-.4.1h-.1s-.1 0-.1.1c0 0-.1 0-.1.1-.2.1-.3.2-.5.3s-.3.2-.5.3c-.1 0-.1.1-.2.1l-.3.3c-.1 0-.1.1-.2.2l-.3.3-.2.2-.1.1-.1.1c-.1.1-.2.3-.4.4l-.1.1-.1.1c-.1.1-.1.2-.2.3 0 .1-.1.1-.1.2l-.1.1c-.1.1-.1.1-.1.2l-.1.1c-.1.1-.1.2-.2.2 0 .1-.1.1-.1.2v.1c-.1.2-.2.3-.3.5 0 0 0 .1-.1.1-.1.1-.1.2-.2.3 0 .1-.1.1-.1.2s-.1.1-.1.2c0 0 0 .1-.1.1-.1.1-.1.3-.2.4v.1c-.1.2-.1.3-.2.5v.1c0 .1 0 .1-.1.2 0 .1-.1.2-.1.2 0 .1 0 .1-.1.2 0 .1 0 .1-.1.2v.1c0 .1 0 .2-.1.2 0 .1 0 .2-.1.3v.3c0 .1-.1.3-.1.4v1.2l3.2 1.9 10.8-6.2c.1-1.9-.5-3.1-1.5-3.7zm-3.2.1zm.6-.2zm.5-.1c0-.1 0-.1 0 0 0-.1 0-.1 0 0zm.4-.1c.1 0 .1 0 0 0zm.5 0h.2-.2c-.1 0 0 0 0 0zm.4.1c.1 0 .1 0 0 0zm.4.1s.1 0 0 0c.1 0 .1 0 0 0z"/><path class="st9" d="M1482.9 528.9c3-1.7 5.4-.3 5.4 3.1l-10.8 6.2c0-3.4 2.5-7.6 5.4-9.3z"/><g class="st1"><path class="st5" d="M1706.8 605.7L1601.3 667l-106.2-61.3 105.5-61.3z"/><path class="st6" d="M1706.8 605.7v20.4l-105.5 61.3V667z"/><path class="st4" d="M1601.3 667v20.4l-106.2-61.3v-20.4z"/></g><path class="st6" d="M1706.8 605.7l-27.5 15.7-106.2-61.3 27.5-15.7z" opacity=".5"/><g class="st1"><path class="st4" d="M1689.6 493.9l-.3 122-106.2-61.3.3-122z"/><path class="st6" d="M1689.6 493.9l17.6-10.3-.4 122.1-17.5 10.2z"/><path fill="#dcdbdc" d="M1583.4 432.6l17.6-10.3 106.2 61.3-17.6 10.3z"/></g><path class="st6" d="M1689.6 493.9l-.3 75.1-106.2-61.3.3-75.1z"/><path fill="#99a3a8" d="M1689.6 447l17.6-10.2-.4 122-17.5 10.2z"/><path class="st4" d="M1851.4 328.7l-.9 322.6L1379 379l.9-322.5z"/><path fill="#313131" d="M1404 364.6l.8-264.9 421.6 243.4-.8 264.9z"/><path class="st6" d="M1851.4 328.7l26.4-15.3-.9 322.5-26.4 15.4z"/><path class="st5" d="M1379.9 56.5l26.4-15.3 471.5 272.2-26.4 15.3z"/><path fill="#3d3d3d" d="M1826.4 343.1l-.8 264.9L1404 364.6"/></svg>