<svg id="Layer_1" xmlns="http://www.w3.org/2000/svg" viewBox="0 0 1920 1080"><style>.st8{fill:#fff}</style><linearGradient id="SVGID_1_" gradientUnits="userSpaceOnUse" y1="540" x2="1920" y2="540"><stop offset="0" stop-color="#eaf0fc"/><stop offset=".437" stop-color="#f5f8fe"/><stop offset="1" stop-color="#fff"/></linearGradient><path fill="url(#SVGID_1_)" d="M0 0h1920v1080H0z"/><linearGradient id="SVGID_2_" gradientUnits="userSpaceOnUse" x1="469.186" y1="637.489" x2="1483.936" y2="637.489"><stop offset="0" stop-color="#5b89ea"/><stop offset=".249" stop-color="#628feb"/><stop offset=".62" stop-color="#779dee"/><stop offset="1" stop-color="#92b1f1"/></linearGradient><path d="M1372.7 459.8c.8.4 1.5.9 2.3 1.4 7.5 5 12.8 10.9 15.3 17.4l91.8 221.4c4.8 11.6.3 23.8-12.4 33.1l-240.6 177.6c-12.6 9.3-32 14.8-52.4 14.8l-391.5.1c-18.1 0-35.3-4.2-48-11.5-1.8-1-3.4-2.1-5-3.2L484.5 733.2c-13-9.2-18.1-21.3-13.9-33l82.6-221.5c.5-1.2 1.1-2.5 1.8-3.7 5.5-10.1 18-18.4 34.4-23l350.1-98.8c18.5-5.2 40-5.2 58.5 0l355 98.6c7.3 2 14 4.7 19.7 8z" fill="url(#SVGID_2_)"/><linearGradient id="SVGID_3_" gradientUnits="userSpaceOnUse" x1="468.185" y1="540" x2="1482.932" y2="540"><stop offset="0" stop-color="#92b1f1"/><stop offset=".227" stop-color="#aec5f5"/><stop offset=".55" stop-color="#cfdcf9"/><stop offset=".82" stop-color="#e3ebfb"/><stop offset="1" stop-color="#eaf0fc"/></linearGradient><path d="M482.8 730.9l69.4-186.2c.5-1.2 1.1-2.5 1.8-3.7 5.5-10.1 18-18.4 34.4-23l350.1-98.8c18.5-5.2 40-5.2 58.5 0l355 98.6c7.3 2 13.9 4.6 19.6 7.9.8.4 1.5.9 2.3 1.4 7.5 5 12.8 10.9 15.3 17.4l77.9 187.9 1.5-1.1c12.6-9.4 17.2-21.5 12.4-33.1l-91.8-221.4c-2.5-6.4-7.8-12.4-15.3-17.4-.7-.5-1.5-.9-2.3-1.4-5.7-3.3-12.3-6-19.6-7.9l-355-98.6c-18.5-5.2-40.1-5.1-58.5 0l-350.1 98.8c-16.4 4.6-28.9 12.9-34.4 23-.7 1.2-1.3 2.4-1.8 3.7l-82.6 221.5c-4.1 11.4.8 23.3 13.2 32.4z" fill="url(#SVGID_3_)"/><linearGradient id="SVGID_4_" gradientUnits="userSpaceOnUse" x1="613.786" y1="607.721" x2="1337.331" y2="607.721"><stop offset="0" stop-color="#92b1f1"/><stop offset=".227" stop-color="#aec5f5"/><stop offset=".55" stop-color="#cfdcf9"/><stop offset=".82" stop-color="#e3ebfb"/><stop offset="1" stop-color="#eaf0fc"/></linearGradient><path fill="url(#SVGID_4_)" d="M613.8 612.7l40.9-109.6 314.2-88.7 321.9 89.4 46.5 112.2v60l-169.2 124.9-375.3.2-179-128.4z"/><linearGradient id="SVGID_5_" gradientUnits="userSpaceOnUse" x1="613.786" y1="577.721" x2="1337.331" y2="577.721"><stop offset="0" stop-color="#eaf0fc"/><stop offset="1" stop-color="#f5f8fe"/></linearGradient><path fill="url(#SVGID_5_)" d="M613.8 612.7l40.9-109.6 314.2-88.7 321.9 89.4 46.5 112.2-169.2 124.9-375.3.2z"/><linearGradient id="SVGID_6_" gradientUnits="userSpaceOnUse" x1="613.786" y1="487.721" x2="1337.331" y2="487.721"><stop offset="0" stop-color="#92b1f1"/><stop offset=".227" stop-color="#aec5f5"/><stop offset=".55" stop-color="#cfdcf9"/><stop offset=".82" stop-color="#e3ebfb"/><stop offset="1" stop-color="#eaf0fc"/></linearGradient><path fill="url(#SVGID_6_)" d="M613.8 492.7l40.9-109.6 314.2-88.7 321.9 89.4 46.5 112.2v60l-169.2 124.9-375.3.2-179-128.4z"/><linearGradient id="SVGID_7_" gradientUnits="userSpaceOnUse" x1="613.786" y1="457.721" x2="1337.331" y2="457.721"><stop offset="0" stop-color="#eaf0fc"/><stop offset="1" stop-color="#f5f8fe"/></linearGradient><path fill="url(#SVGID_7_)" d="M613.8 492.7l40.9-109.6 314.2-88.7 321.9 89.4 46.5 112.2-169.2 124.9-375.3.2z"/><linearGradient id="SVGID_8_" gradientUnits="userSpaceOnUse" x1="613.786" y1="367.721" x2="1337.331" y2="367.721"><stop offset="0" stop-color="#92b1f1"/><stop offset=".227" stop-color="#aec5f5"/><stop offset=".55" stop-color="#cfdcf9"/><stop offset=".82" stop-color="#e3ebfb"/><stop offset="1" stop-color="#eaf0fc"/></linearGradient><path fill="url(#SVGID_8_)" d="M613.8 372.7l40.9-109.6 314.2-88.7 321.9 89.4 46.5 112.2v60l-169.2 124.9-375.3.2-179-128.4z"/><path class="st8" d="M613.8 372.7l40.9-109.6 314.2-88.7 321.9 89.4 46.5 112.2-169.2 124.9-375.3.2z"/><linearGradient id="SVGID_9_" gradientUnits="userSpaceOnUse" x1="91.337" y1="251.369" x2="428.766" y2="251.369"><stop offset="0" stop-color="#d6e2fa"/><stop offset=".507" stop-color="#e3ebfb"/><stop offset="1" stop-color="#eaf0fc"/></linearGradient><path fill="url(#SVGID_9_)" d="M91.3 267.7l19.1-51.1 146.5-41.4 150.2 41.7 21.7 52.3-79 58.3h-175z"/><linearGradient id="SVGID_10_" gradientUnits="userSpaceOnUse" x1="91.337" y1="161.204" x2="428.766" y2="161.204"><stop offset="0" stop-color="#92b1f1"/><stop offset=".227" stop-color="#aec5f5"/><stop offset=".55" stop-color="#cfdcf9"/><stop offset=".82" stop-color="#e3ebfb"/><stop offset="1" stop-color="#eaf0fc"/></linearGradient><path fill="url(#SVGID_10_)" d="M91.3 163.5l19.1-51.1L256.9 71l150.2 41.7 21.7 52.4V193l-79 58.3-175 .1-83.5-59.9z"/><path class="st8" d="M91.3 163.5l19.1-51.1L256.9 71l150.2 41.7 21.7 52.4-79 58.2-175 .1z"/><linearGradient id="SVGID_11_" gradientUnits="userSpaceOnUse" x1="1669.555" y1="145.975" x2="1833.047" y2="145.975"><stop offset="0" stop-color="#eaf0fc"/><stop offset=".207" stop-color="#edf2fd"/><stop offset="1" stop-color="#f5f8fe"/></linearGradient><path fill="url(#SVGID_11_)" d="M1669.6 153.9l9.2-24.8 71-20 72.7 20.2 10.5 25.3-38.2 28.3H1710z"/><linearGradient id="SVGID_12_" gradientUnits="userSpaceOnUse" x1="1669.555" y1="102.288" x2="1833.047" y2="102.288"><stop offset="0" stop-color="#92b1f1"/><stop offset=".227" stop-color="#aec5f5"/><stop offset=".55" stop-color="#cfdcf9"/><stop offset=".82" stop-color="#e3ebfb"/><stop offset="1" stop-color="#eaf0fc"/></linearGradient><path fill="url(#SVGID_12_)" d="M1669.6 103.4l9.2-24.8 71-20 72.7 20.2 10.5 25.4v13.5l-38.2 28.2-84.8.1-40.4-29z"/><path class="st8" d="M1669.6 103.4l9.2-24.8 71-20 72.7 20.2 10.5 25.4-38.2 28.2H1710z"/><linearGradient id="SVGID_13_" gradientUnits="userSpaceOnUse" x1="1508.348" y1="301.834" x2="1719.053" y2="301.834"><stop offset="0" stop-color="#eaf0fc"/><stop offset=".207" stop-color="#edf2fd"/><stop offset="1" stop-color="#f5f8fe"/></linearGradient><path fill="url(#SVGID_13_)" d="M1508.3 312l12-31.9 91.4-25.8 93.8 26 13.6 32.7-49.3 36.4h-109.3z"/><linearGradient id="SVGID_14_" gradientUnits="userSpaceOnUse" x1="1508.348" y1="245.531" x2="1719.053" y2="245.531"><stop offset="0" stop-color="#92b1f1"/><stop offset=".227" stop-color="#aec5f5"/><stop offset=".55" stop-color="#cfdcf9"/><stop offset=".82" stop-color="#e3ebfb"/><stop offset="1" stop-color="#eaf0fc"/></linearGradient><path fill="url(#SVGID_14_)" d="M1508.3 247l12-31.9 91.4-25.9 93.8 26.1 13.6 32.6v17.5l-49.3 36.4h-109.3l-52.2-37.3z"/><path class="st8" d="M1508.3 247l12-31.9 91.4-25.9 93.8 26.1 13.6 32.6-49.3 36.4-109.3.1z"/><linearGradient id="SVGID_15_" gradientUnits="userSpaceOnUse" x1="1805.333" y1="301.834" x2="2016.038" y2="301.834"><stop offset="0" stop-color="#eaf0fc"/><stop offset=".207" stop-color="#edf2fd"/><stop offset="1" stop-color="#f5f8fe"/></linearGradient><path fill="url(#SVGID_15_)" d="M1805.3 312l11.9-31.9 91.5-25.8 93.8 26L2016 313l-49.2 36.4h-109.3z"/><linearGradient id="SVGID_16_" gradientUnits="userSpaceOnUse" x1="1805.333" y1="245.531" x2="2016.038" y2="245.531"><stop offset="0" stop-color="#92b1f1"/><stop offset=".227" stop-color="#aec5f5"/><stop offset=".55" stop-color="#cfdcf9"/><stop offset=".82" stop-color="#e3ebfb"/><stop offset="1" stop-color="#eaf0fc"/></linearGradient><path fill="url(#SVGID_16_)" d="M1805.3 247l11.9-31.9 91.5-25.9 93.8 26.1 13.5 32.6v17.5l-49.2 36.4h-109.3l-52.2-37.3z"/><path class="st8" d="M1805.3 247l11.9-31.9 91.5-25.9 93.8 26.1 13.5 32.6-49.2 36.4-109.3.1z"/></svg>