<?xml version="1.0" encoding="utf-8"?>
<!-- Generator: Adobe Illustrator 22.0.1, SVG Export Plug-In . SVG Version: 6.00 Build 0)  -->
<svg version="1.1" id="Layer_1" xmlns="http://www.w3.org/2000/svg" xmlns:xlink="http://www.w3.org/1999/xlink" x="0px" y="0px"
	 viewBox="0 0 1920 1080" style="enable-background:new 0 0 1920 1080;" xml:space="preserve">
<style type="text/css">
	.st0{fill:url(#SVGID_1_);}
	.st1{fill:url(#SVGID_2_);}
	.st2{fill:url(#SVGID_3_);}
	.st3{fill:url(#SVGID_4_);}
	.st4{fill:url(#SVGID_5_);}
	.st5{fill:url(#SVGID_6_);}
	.st6{fill:url(#SVGID_7_);}
	.st7{fill:url(#SVGID_8_);}
	.st8{fill:url(#SVGID_9_);}
	.st9{fill:url(#SVGID_10_);}
	.st10{fill:url(#SVGID_11_);}
	.st11{fill:url(#SVGID_12_);}
	.st12{fill:url(#SVGID_13_);}
	.st13{fill:url(#SVGID_14_);}
	.st14{fill:url(#SVGID_15_);}
	.st15{fill:url(#SVGID_16_);}
	.st16{fill:url(#SVGID_17_);}
	.st17{fill:url(#SVGID_18_);}
	.st18{fill:url(#SVGID_19_);}
	.st19{fill:url(#SVGID_20_);}
	.st20{fill:url(#SVGID_21_);}
	.st21{fill:url(#SVGID_22_);}
	.st22{fill:url(#SVGID_23_);}
	.st23{fill:url(#SVGID_24_);}
	.st24{fill:url(#SVGID_25_);}
	.st25{fill:url(#SVGID_26_);}
	.st26{fill:url(#SVGID_27_);}
</style>
<title>header-1</title>
<linearGradient id="SVGID_1_" gradientUnits="userSpaceOnUse" x1="1.5375" y1="543" x2="1921.5375" y2="543">
	<stop  offset="0" style="stop-color:#1F438F"/>
	<stop  offset="8.553427e-02" style="stop-color:#22499C"/>
	<stop  offset="0.3344" style="stop-color:#2958BC"/>
	<stop  offset="0.5751" style="stop-color:#2E63D2"/>
	<stop  offset="0.8018" style="stop-color:#316AE0"/>
	<stop  offset="1" style="stop-color:#326CE5"/>
</linearGradient>
<rect x="1.5" y="3" class="st0" width="1920" height="1080"/>
<g>
	<linearGradient id="SVGID_2_" gradientUnits="userSpaceOnUse" x1="1200.9651" y1="541.5" x2="2305.6621" y2="541.5">
		<stop  offset="0" style="stop-color:#FFFFFF;stop-opacity:0.2"/>
		<stop  offset="1" style="stop-color:#FFFFFF;stop-opacity:0"/>
	</linearGradient>
	<polygon class="st1" points="1753.3,3 1310.4,216.3 1201,695.6 1507.5,1080 1999.1,1080 2305.7,695.6 2196.3,216.3 	"/>
</g>
<g>
	<linearGradient id="SVGID_3_" gradientUnits="userSpaceOnUse" x1="831.9651" y1="910.5" x2="1936.6621" y2="910.5">
		<stop  offset="0" style="stop-color:#FFFFFF;stop-opacity:0.2"/>
		<stop  offset="1" style="stop-color:#FFFFFF;stop-opacity:0"/>
	</linearGradient>
	<polygon class="st2" points="1384.3,372 941.4,585.3 832,1064.6 1138.5,1449 1630.1,1449 1936.7,1064.6 1827.3,585.3 	"/>
</g>
<g>
	<linearGradient id="SVGID_4_" gradientUnits="userSpaceOnUse" x1="305.9651" y1="858.5" x2="986.5375" y2="858.5">
		<stop  offset="0" style="stop-color:#FFFFFF;stop-opacity:0.2"/>
		<stop  offset="1" style="stop-color:#FFFFFF;stop-opacity:0"/>
	</linearGradient>
	<polygon class="st3" points="646.3,526.7 373.4,658.2 306,953.5 494.8,1190.3 797.7,1190.3 986.5,953.5 919.1,658.2 	"/>
</g>
<g>
	<linearGradient id="SVGID_5_" gradientUnits="userSpaceOnUse" x1="51.9651" y1="126.6706" x2="160.5375" y2="126.6706">
		<stop  offset="0" style="stop-color:#FFFFFF;stop-opacity:0.2"/>
		<stop  offset="1" style="stop-color:#FFFFFF;stop-opacity:0"/>
	</linearGradient>
	<polygon class="st4" points="106.3,73.7 62.7,94.7 52,141.8 82.1,179.6 130.4,179.6 160.5,141.8 149.8,94.7 	"/>
</g>
<g>
	<linearGradient id="SVGID_6_" gradientUnits="userSpaceOnUse" x1="601.5375" y1="48.5" x2="1061.5375" y2="48.5">
		<stop  offset="0" style="stop-color:#FFFFFF;stop-opacity:0.2"/>
		<stop  offset="1" style="stop-color:#FFFFFF;stop-opacity:0"/>
	</linearGradient>
	<polygon class="st5" points="831.5,-175.7 647.1,-86.9 601.5,112.7 729.2,272.7 933.9,272.7 1061.5,112.7 1016,-86.9 	"/>
</g>
<g>
	<linearGradient id="SVGID_7_" gradientUnits="userSpaceOnUse" x1="869.9651" y1="74.5" x2="1974.6621" y2="74.5">
		<stop  offset="0" style="stop-color:#FFFFFF;stop-opacity:0.2"/>
		<stop  offset="1" style="stop-color:#FFFFFF;stop-opacity:0"/>
	</linearGradient>
	<polygon class="st6" points="1422.3,-464 979.4,-250.7 870,228.6 1176.5,613 1668.1,613 1974.7,228.6 1865.3,-250.7 	"/>
</g>
<linearGradient id="SVGID_8_" gradientUnits="userSpaceOnUse" x1="984.0636" y1="35.7901" x2="1139.0114" y2="35.7901">
	<stop  offset="0" style="stop-color:#FFFFFF;stop-opacity:0.2"/>
	<stop  offset="1" style="stop-color:#FFFFFF;stop-opacity:0"/>
</linearGradient>
<polygon class="st7" points="1061.5,-39.7 999.4,-9.8 984.1,57.4 1027.1,111.3 1096,111.3 1139,57.4 1123.7,-9.8 "/>
<linearGradient id="SVGID_9_" gradientUnits="userSpaceOnUse" x1="1392.2378" y1="4.9912" x2="1455.4196" y2="4.9912">
	<stop  offset="0" style="stop-color:#FFFFFF;stop-opacity:0.2"/>
	<stop  offset="1" style="stop-color:#FFFFFF;stop-opacity:0"/>
</linearGradient>
<polygon class="st8" points="1423.8,-25.8 1398.5,-13.6 1392.2,13.8 1409.8,35.8 1437.9,35.8 1455.4,13.8 1449.2,-13.6 "/>
<linearGradient id="SVGID_10_" gradientUnits="userSpaceOnUse" x1="1344.4717" y1="222.8407" x2="1534.5992" y2="222.8407">
	<stop  offset="0" style="stop-color:#FFFFFF;stop-opacity:0.2"/>
	<stop  offset="1" style="stop-color:#FFFFFF;stop-opacity:0"/>
</linearGradient>
<polygon class="st9" points="1439.5,130.2 1363.3,166.9 1344.5,249.4 1397.2,315.5 1481.8,315.5 1534.6,249.4 1515.8,166.9 "/>
<linearGradient id="SVGID_11_" gradientUnits="userSpaceOnUse" x1="1383.6548" y1="113.4315" x2="1587.7957" y2="113.4315">
	<stop  offset="0" style="stop-color:#FFFFFF;stop-opacity:0.2"/>
	<stop  offset="1" style="stop-color:#FFFFFF;stop-opacity:0"/>
</linearGradient>
<polygon class="st10" points="1485.7,13.9 1403.9,53.3 1383.7,141.9 1440.3,212.9 1531.2,212.9 1587.8,141.9 1567.6,53.3 "/>
<linearGradient id="SVGID_12_" gradientUnits="userSpaceOnUse" x1="1404.6149" y1="226.06" x2="1495.9756" y2="226.06">
	<stop  offset="0" style="stop-color:#FFFFFF;stop-opacity:0.2"/>
	<stop  offset="1" style="stop-color:#FFFFFF;stop-opacity:0"/>
</linearGradient>
<polygon class="st11" points="1450.3,181.5 1413.7,199.2 1404.6,238.8 1430,270.6 1470.6,270.6 1496,238.8 1486.9,199.2 "/>
<linearGradient id="SVGID_13_" gradientUnits="userSpaceOnUse" x1="1619.7014" y1="101.031" x2="1656.3763" y2="101.031">
	<stop  offset="0" style="stop-color:#FFFFFF;stop-opacity:0.2"/>
	<stop  offset="1" style="stop-color:#FFFFFF;stop-opacity:0"/>
</linearGradient>
<polygon class="st12" points="1638,83.2 1623.3,90.2 1619.7,106.1 1629.9,118.9 1646.2,118.9 1656.4,106.1 1652.7,90.2 "/>
<linearGradient id="SVGID_14_" gradientUnits="userSpaceOnUse" x1="1450.3247" y1="266.0819" x2="1615.6708" y2="266.0819">
	<stop  offset="0" style="stop-color:#FFFFFF;stop-opacity:0.2"/>
	<stop  offset="1" style="stop-color:#FFFFFF;stop-opacity:0"/>
</linearGradient>
<polygon class="st13" points="1533,185.5 1466.7,217.4 1450.3,289.2 1496.2,346.7 1569.8,346.7 1615.7,289.2 1599.3,217.4 "/>
<linearGradient id="SVGID_15_" gradientUnits="userSpaceOnUse" x1="1734.5513" y1="72.8096" x2="1970.6365" y2="72.8096">
	<stop  offset="0" style="stop-color:#FFFFFF;stop-opacity:0.2"/>
	<stop  offset="1" style="stop-color:#FFFFFF;stop-opacity:0"/>
</linearGradient>
<polygon class="st14" points="1852.6,-42.3 1757.9,3.3 1734.6,105.7 1800.1,187.9 1905.1,187.9 1970.6,105.7 1947.3,3.3 "/>
<linearGradient id="SVGID_16_" gradientUnits="userSpaceOnUse" x1="1519.6564" y1="388.5282" x2="1740.0161" y2="388.5282">
	<stop  offset="0" style="stop-color:#FFFFFF;stop-opacity:0.2"/>
	<stop  offset="1" style="stop-color:#FFFFFF;stop-opacity:0"/>
</linearGradient>
<polygon class="st15" points="1629.8,281.1 1541.5,323.7 1519.7,419.3 1580.8,495.9 1678.9,495.9 1740,419.3 1718.2,323.7 "/>
<linearGradient id="SVGID_17_" gradientUnits="userSpaceOnUse" x1="1829.2893" y1="400.9662" x2="1963.7749" y2="400.9662">
	<stop  offset="0" style="stop-color:#FFFFFF;stop-opacity:0.2"/>
	<stop  offset="1" style="stop-color:#FFFFFF;stop-opacity:0"/>
</linearGradient>
<polygon class="st16" points="1896.5,335.4 1842.6,361.4 1829.3,419.7 1866.6,466.5 1926.5,466.5 1963.8,419.7 1950.5,361.4 "/>
<linearGradient id="SVGID_18_" gradientUnits="userSpaceOnUse" x1="1472.7688" y1="599.9774" x2="1655.9351" y2="599.9774">
	<stop  offset="0" style="stop-color:#FFFFFF;stop-opacity:0.2"/>
	<stop  offset="1" style="stop-color:#FFFFFF;stop-opacity:0"/>
</linearGradient>
<polygon class="st17" points="1564.4,510.7 1490.9,546.1 1472.8,625.5 1523.6,689.3 1605.1,689.3 1655.9,625.5 1637.8,546.1 "/>
<linearGradient id="SVGID_19_" gradientUnits="userSpaceOnUse" x1="1951.7446" y1="889.1893" x2="2063.9102" y2="889.1893">
	<stop  offset="0" style="stop-color:#FFFFFF;stop-opacity:0.2"/>
	<stop  offset="1" style="stop-color:#FFFFFF;stop-opacity:0"/>
</linearGradient>
<polygon class="st18" points="2007.8,834.5 1962.9,856.2 1951.7,904.8 1982.9,943.9 2032.8,943.9 2063.9,904.8 2052.8,856.2 "/>
<linearGradient id="SVGID_20_" gradientUnits="userSpaceOnUse" x1="1507.3427" y1="965.2722" x2="1727.3619" y2="965.2722">
	<stop  offset="0" style="stop-color:#FFFFFF;stop-opacity:0.2"/>
	<stop  offset="1" style="stop-color:#FFFFFF;stop-opacity:0"/>
</linearGradient>
<polygon class="st19" points="1617.4,858 1529.1,900.5 1507.3,996 1568.4,1072.5 1666.3,1072.5 1727.4,996 1705.6,900.5 "/>
<linearGradient id="SVGID_21_" gradientUnits="userSpaceOnUse" x1="1376.7823" y1="939.2516" x2="1527.4663" y2="939.2516">
	<stop  offset="0" style="stop-color:#FFFFFF;stop-opacity:0.2"/>
	<stop  offset="1" style="stop-color:#FFFFFF;stop-opacity:0"/>
</linearGradient>
<polygon class="st20" points="1452.1,865.8 1391.7,894.9 1376.8,960.3 1418.6,1012.7 1485.7,1012.7 1527.5,960.3 1512.5,894.9 "/>
<linearGradient id="SVGID_22_" gradientUnits="userSpaceOnUse" x1="1341.5925" y1="1133.751" x2="1454.0042" y2="1133.751">
	<stop  offset="0" style="stop-color:#3D98D3;stop-opacity:0.5"/>
	<stop  offset="1" style="stop-color:#3D98D3;stop-opacity:0"/>
</linearGradient>
<polygon class="st21" points="1397.8,1079 1352.7,1100.7 1341.6,1149.4 1372.8,1188.5 1422.8,1188.5 1454,1149.4 1442.9,1100.7 "/>
<linearGradient id="SVGID_23_" gradientUnits="userSpaceOnUse" x1="1142.9673" y1="770.7019" x2="1225.729" y2="770.7019">
	<stop  offset="0" style="stop-color:#FFFFFF;stop-opacity:0.2"/>
	<stop  offset="1" style="stop-color:#FFFFFF;stop-opacity:0"/>
</linearGradient>
<polygon class="st22" points="1184.3,730.4 1151.2,746.3 1143,782.2 1165.9,811 1202.8,811 1225.7,782.2 1217.5,746.3 "/>
<linearGradient id="SVGID_24_" gradientUnits="userSpaceOnUse" x1="913.8398" y1="756.9331" x2="1085.1603" y2="756.9331">
	<stop  offset="0" style="stop-color:#FFFFFF;stop-opacity:0.2"/>
	<stop  offset="1" style="stop-color:#FFFFFF;stop-opacity:0"/>
</linearGradient>
<polygon class="st23" points="999.5,673.4 930.8,706.5 913.8,780.8 961.4,840.4 1037.6,840.4 1085.2,780.8 1068.2,706.5 "/>
<g>
	<linearGradient id="SVGID_25_" gradientUnits="userSpaceOnUse" x1="-35.7669" y1="108.5113" x2="16.6464" y2="108.5113">
		<stop  offset="0" style="stop-color:#FFFFFF;stop-opacity:0.2"/>
		<stop  offset="1" style="stop-color:#FFFFFF;stop-opacity:0"/>
	</linearGradient>
	<polygon class="st24" points="-9.6,83 -30.6,93.1 -35.8,115.8 -21.2,134.1 2.1,134.1 16.6,115.8 11.5,93.1 	"/>
</g>
<g>
	<linearGradient id="SVGID_26_" gradientUnits="userSpaceOnUse" x1="-162.9395" y1="165.9779" x2="124.6947" y2="165.9779">
		<stop  offset="0" style="stop-color:#FFFFFF;stop-opacity:0.2"/>
		<stop  offset="1" style="stop-color:#FFFFFF;stop-opacity:0"/>
	</linearGradient>
	<polygon class="st25" points="-19.1,25.8 -134.5,81.3 -162.9,206.1 -83.1,306.2 44.9,306.2 124.7,206.1 96.2,81.3 	"/>
</g>
<g>
	<linearGradient id="SVGID_27_" gradientUnits="userSpaceOnUse" x1="-126.254" y1="346.7313" x2="160.1068" y2="346.7313">
		<stop  offset="0" style="stop-color:#FFFFFF;stop-opacity:0.2"/>
		<stop  offset="1" style="stop-color:#FFFFFF;stop-opacity:0"/>
	</linearGradient>
	<polygon class="st26" points="16.9,207.1 -97.9,262.4 -126.3,386.7 -46.8,486.3 80.6,486.3 160.1,386.7 131.7,262.4 	"/>
</g>
</svg>
