<?xml version="1.0" encoding="utf-8"?>
<!-- Generator: Adobe Illustrator 22.0.1, SVG Export Plug-In . SVG Version: 6.00 Build 0)  -->
<svg version="1.1" id="Layer_1" xmlns="http://www.w3.org/2000/svg" xmlns:xlink="http://www.w3.org/1999/xlink" x="0px" y="0px"
	 viewBox="0 0 1920 1080" style="enable-background:new 0 0 1920 1080;" xml:space="preserve">
<style type="text/css">
	.st0{fill:url(#SVGID_1_);}
	.st1{fill:url(#SVGID_2_);}
	.st2{fill:#FFFFFF;}
	.st3{opacity:5.000000e-02;fill:#00FFFF;}
	.st4{opacity:0.5;fill:url(#SVGID_3_);}
	.st5{opacity:0.5;fill:url(#SVGID_4_);}
	.st6{opacity:0.5;fill:url(#SVGID_5_);}
	.st7{opacity:0.5;fill:url(#SVGID_6_);}
	.st8{opacity:0.5;fill:url(#SVGID_7_);}
	.st9{opacity:0.5;fill:url(#SVGID_8_);}
	.st10{opacity:0.5;fill:url(#SVGID_9_);}
	.st11{fill:url(#SVGID_10_);}
</style>
<title>header-1</title>
<linearGradient id="SVGID_1_" gradientUnits="userSpaceOnUse" x1="0" y1="540" x2="1920" y2="540">
	<stop  offset="0" style="stop-color:#193672"/>
	<stop  offset="0.1722" style="stop-color:#1C3E83"/>
	<stop  offset="0.4707" style="stop-color:#214899"/>
	<stop  offset="0.753" style="stop-color:#244FA7"/>
	<stop  offset="1" style="stop-color:#2551AC"/>
</linearGradient>
<rect class="st0" width="1920" height="1080"/>
<g>
	<linearGradient id="SVGID_2_" gradientUnits="userSpaceOnUse" x1="254.9923" y1="1001.1948" x2="1665.8153" y2="1001.1948">
		<stop  offset="0" style="stop-color:#92B1F1"/>
		<stop  offset="0.2269" style="stop-color:#AEC5F5"/>
		<stop  offset="0.5501" style="stop-color:#CFDCF9"/>
		<stop  offset="0.8195" style="stop-color:#E3EBFB"/>
		<stop  offset="1" style="stop-color:#EAF0FC"/>
	</linearGradient>
	<path class="st1" d="M1665.8,1033.4h-25.3l-105-253.1c-3.5-8.9-10.8-17.2-21.3-24.2c-1-0.7-2.1-1.3-3.2-1.9
		c-7.9-4.6-17.2-8.3-27.3-11L990.3,606c-25.8-7.2-55.7-7.2-81.4,0L422.2,743.5c-22.9,6.4-40.2,17.9-47.9,32c-1,1.7-1.8,3.4-2.4,5.1
		l-94.3,252.8H255v69.7h0.2c1.2,11.3,8.5,22.3,21.1,31.3l344.3,246.9c2.2,1.6,4.5,3.1,7,4.5c17.6,10.2,41.6,16,66.7,16l544.3-0.2
		c28.5,0,55.4-7.6,72.9-20.5l334.5-247c12.1-9,18.9-19.8,19.7-31h0.1V1033.4z"/>
	<path class="st2" d="M1511.1,694.7c1.1,0.6,2.1,1.3,3.2,1.9c10.4,6.9,17.8,15.2,21.3,24.2l127.7,307.8c6.7,16.1,0.4,33-17.2,46
		l-334.5,247c-17.6,13-44.4,20.5-72.9,20.5l-544.3,0.2c-25.1,0-49.1-5.9-66.7-16c-2.4-1.4-4.8-2.9-7-4.5l-344.3-246.9
		c-18.1-12.8-25.2-29.7-19.3-45.8l114.9-308c0.7-1.7,1.5-3.4,2.4-5.1c7.7-14,25-25.6,47.9-32l486.7-137.4c25.7-7.2,55.6-7.2,81.4,0
		l493.5,137.1C1493.9,686.4,1503.2,690.1,1511.1,694.7z"/>
	<polygon class="st3" points="456,990.7 512.9,838.2 949.7,714.9 1397.3,839.3 1462,995.2 1226.7,1169 704.9,1169.1 	"/>
	<linearGradient id="SVGID_3_" gradientUnits="userSpaceOnUse" x1="657.573" y1="855.9921" x2="805.0192" y2="-344.8609">
		<stop  offset="0" style="stop-color:#00FFFF;stop-opacity:0.5"/>
		<stop  offset="1" style="stop-color:#2551AC;stop-opacity:0"/>
	</linearGradient>
	<polygon class="st4" points="512.9,838.2 512.9,-203.8 949.7,-327.1 949.7,714.9 	"/>
	<linearGradient id="SVGID_4_" gradientUnits="userSpaceOnUse" x1="1106.2739" y1="803.5502" x2="1240.7125" y2="-291.3645">
		<stop  offset="0" style="stop-color:#00FFFF;stop-opacity:0.5"/>
		<stop  offset="1" style="stop-color:#2551AC;stop-opacity:0"/>
	</linearGradient>
	<polygon class="st5" points="949.7,714.9 1397.3,839.3 1397.3,-202.7 949.7,-327.1 	"/>
	<linearGradient id="SVGID_5_" gradientUnits="userSpaceOnUse" x1="1357.6664" y1="982.4207" x2="1501.614" y2="-189.9388">
		<stop  offset="0" style="stop-color:#00FFFF;stop-opacity:0.5"/>
		<stop  offset="1" style="stop-color:#2551AC;stop-opacity:0"/>
	</linearGradient>
	<polygon class="st6" points="1462,995.2 1397.3,839.3 1397.3,-202.7 1462,-46.8 	"/>
	<linearGradient id="SVGID_6_" gradientUnits="userSpaceOnUse" x1="1014.6425" y1="1014.8824" x2="1674.0571" y2="107.2761">
		<stop  offset="0" style="stop-color:#00FFFF;stop-opacity:0.75"/>
		<stop  offset="4.057624e-02" style="stop-color:#00FFFF;stop-opacity:0.6942"/>
		<stop  offset="0.5449" style="stop-color:#00FFFF;stop-opacity:0"/>
	</linearGradient>
	<polygon class="st7" points="1226.7,1169 1226.7,126.9 1462,-46.8 1462,995.2 	"/>
	<linearGradient id="SVGID_7_" gradientUnits="userSpaceOnUse" x1="627.8306" y1="1113.361" x2="1303.705" y2="183.0997">
		<stop  offset="0" style="stop-color:#00FFFF;stop-opacity:0.75"/>
		<stop  offset="5.840200e-02" style="stop-color:#00FFFF;stop-opacity:0.6942"/>
		<stop  offset="0.7843" style="stop-color:#00FFFF;stop-opacity:0"/>
	</linearGradient>
	<polygon class="st8" points="1226.7,1169.2 1226.7,127.2 704.9,127.2 704.9,1169.4 	"/>
	<linearGradient id="SVGID_8_" gradientUnits="userSpaceOnUse" x1="190.6372" y1="797.8572" x2="778.2929" y2="-10.9815">
		<stop  offset="0" style="stop-color:#00FFFF;stop-opacity:0.5"/>
		<stop  offset="1" style="stop-color:#2551AC;stop-opacity:0"/>
	</linearGradient>
	<polygon class="st9" points="512.9,838.2 512.9,-203.8 456,-51.4 456,990.7 	"/>
	<linearGradient id="SVGID_9_" gradientUnits="userSpaceOnUse" x1="332.1477" y1="900.6705" x2="828.7885" y2="217.1031">
		<stop  offset="0" style="stop-color:#00FFFF;stop-opacity:0.75"/>
		<stop  offset="4.092821e-02" style="stop-color:#00FFFF;stop-opacity:0.6942"/>
		<stop  offset="0.5496" style="stop-color:#00FFFF;stop-opacity:0"/>
	</linearGradient>
	<polygon class="st10" points="704.9,1169.1 704.9,127.1 456,-51.4 456,990.7 	"/>
	<linearGradient id="SVGID_10_" gradientUnits="userSpaceOnUse" x1="474.6914" y1="1173.8016" x2="509.3518" y2="678.1345">
		<stop  offset="0" style="stop-color:#FFFFFF;stop-opacity:0"/>
		<stop  offset="1" style="stop-color:#326CE5;stop-opacity:0.5"/>
	</linearGradient>
	<path class="st11" d="M704.9,1169.1L456,990.7V674.4l-40.9,11.8c0,0-32.6,6.2-47.5,46s-107.3,287.7-107.3,287.7
		s-18.7,27.5,8.8,49.1s138.7,100.1,138.7,100.1H704.9z"/>
</g>
</svg>
