<svg id="Layer_1" xmlns="http://www.w3.org/2000/svg" viewBox="0 0 3094.4 1563.9"><style>.st4{fill:#326ce5}.st5{fill:#2c5ec8}.st6{fill:#122956}.st7{fill:#1e3a75}.st8{fill:#0c1b39}.st9{fill:none}.st10{fill:#193672}.st11{fill:#2551ac}.st16{fill:#1f448f}</style><linearGradient id="SVGID_1_" gradientUnits="userSpaceOnUse" x1="1547.2" y1="676.33" x2="1547.2" y2="34" gradientTransform="translate(0 -34)"><stop offset="0" stop-color="#0c1b39"/><stop offset=".23" stop-color="#0e2044"/><stop offset=".64" stop-color="#112752"/><stop offset="1" stop-color="#122956"/></linearGradient><path fill="url(#SVGID_1_)" d="M0 0h3094.4v642.3H0z"/><linearGradient id="SVGID_2_" gradientUnits="userSpaceOnUse" x1="1547.2" y1="1597.9" x2="1547.2" y2="659.408" gradientTransform="translate(0 -34)"><stop offset=".7" stop-color="#193672"/><stop offset=".81" stop-color="#18346d"/><stop offset=".94" stop-color="#142d5f"/><stop offset="1" stop-color="#122956"/></linearGradient><path fill="url(#SVGID_2_)" d="M0 625.4h3094.4v938.5H0z"/><g id="path3059"><linearGradient id="SVGID_3_" gradientUnits="userSpaceOnUse" x1="2131.571" y1="1006.134" x2="2820.471" y2="1006.134" gradientTransform="translate(0 -34)"><stop offset="0" stop-color="#193672"/><stop offset=".25" stop-color="#152e61"/><stop offset=".73" stop-color="#0e2044"/><stop offset="1" stop-color="#0c1b39"/></linearGradient><path d="M2641.4 1151.8c3.5 6-1.8 12.4-12.1 14.5-6.9 1.5-14.2.5-20.5-2.7-1.9-1-3.5-2.6-4.7-4.4-.8-1-1.8-1.9-2.4-2.9-2.3-3.2-4.2-6.8-5.8-10.3-3.7-6.9-8.2-13.4-13.7-19-.5-.3-1-.6-1.5-1-2.7-1.5-5.6-2.3-8.5-2.6l-4.7-4.8c-59.5 13.1-121.2 13.2-180.8.5l-4 4.2c-3.5.5-6.9 1.8-10 3.7-5.3 5.8-9.7 12.1-13.2 19-1.6 3.7-3.4 7.1-5.5 10.5-.6 1-1.8 2.1-2.6 3.1-.5.6-1 1.3-1.6 1.9-5.5 5.3-17.6 7.1-26.9 3.9-1.3-.5-2.6-1-3.9-1.8-6.3-3.5-7.7-9.3-3.1-13.9.8-1.1 1.6-2.3 2.3-2.9 3.2-3.2 6.8-6.3 10.5-9 6.4-5.3 12.2-11.3 17.2-18.1 1-2.4.3-5-1.6-6.8l3.2-4.5c-17.9-6-35.1-13.7-51.4-23-28.2-16.3-49.8-36.3-62.4-58.5-2.9.2-5.6.5-8.4.8-3.4-1.8-7.3-2.7-11-2.6-11.4 1.3-22.9 3.2-34 5.8-5.6 1.5-11.6 2.7-17.6 4-1.6.3-4 .5-5.6.8-1.1.2-2.3.3-3.4.5-5.6.5-11.4-.6-16.4-3.2-2.7-1.3-4.7-3.7-5.6-6.4-1.5-6.3 6-11.9 16.8-12.7 1.6-.3 3.9-.6 5.5-.8 6.1-.5 12.6-.8 18.7-1 11.8-.5 23.4-1.6 35.1-3.4 3.2-.6 6-2.3 8.1-4.8l8.2-1.3c-8.9-35.8 5.2-72 39.6-102l-6.9-3.5c.2-1.9-.6-4-2.3-5.3-1-.6-1.8-1.3-2.9-1.8-7.1-4.2-18.2-7.3-28.2-11.1-5.6-1.6-11.1-3.5-16.3-5.5-1.3-.6-3.1-1.5-4.4-2.1-1-.3-1.8-.8-2.7-1.3-7.9-4.7-8.2-11.6-1.1-16.1 7.1-4.5 19.8-4.8 27.7-.5 1.3.6 3.4 1.5 4.7 2.1 1.3.6 2.3 1.3 3.4 1.9 3.4 1.9 6.6 4 9.5 6.1 1.6 1 3.4 2.1 5 3.1 7.3 4.2 14.7 7.9 22.4 11.1 3.7.8 7.4 1 11.1.3l6.6 3.1c42.5-26.3 100.2-42.5 162.3-45.8l.5-5c2.7-1.3 4.8-3.2 6.3-5.8.3-6.9-.5-13.9-2.4-20.6-1.1-3.5-1.9-7.1-2.4-10.8l.6-3.1v-2.3c1-6.3 10.5-11 21.3-10.3 4.2.2 8.4 1.3 12.1 3.2 4 2.3 6.3 5.6 5.6 9v3.4c-.5 3.7-1.5 7.3-2.7 10.8-1.8 6.8-2.4 13.7-1.9 20.6 1.6 2.4 3.9 4.5 6.4 5.8l.5 5c60.1 2.7 116.5 17.9 159.2 42.5 1.5.8 2.9 1.6 4.4 2.6l6.8-2.9c4 .3 8.1.2 11.9-.8 9-3.9 17.9-8.5 26.1-14 4.2-2.9 8.4-5.5 12.7-8.1 1.1-.5 2.7-1.3 4-1.8 8.2-4.2 20.6-4 28.4.5 4.5 3.2 5.8 6.8 4.2 10.2-1.8 3.2-4.7 5.6-8.1 7.1-1.3.6-3.1 1.5-4.4 1.9-5.2 2.1-10.6 3.9-16.1 5.5-10 3.2-19.7 7.3-29 11.9-2.6 1.8-3.9 4-3.7 6.4l-6.4 3.4c28.2 24.2 43.4 52.5 43.5 81.6 0 6.9-.8 13.9-2.4 20.6l8.1 1.3c1.1 1.1 2.3 2.1 3.7 2.7 1.6.8 3.2 1.6 4.8 2.1 11.6 1.8 23.4 3.1 35.1 3.5 6.3 0 12.6.3 18.7.8l4.8.6c4 .3 8.1 1.5 11.6 3.4 4.5 2.6 6.9 6.4 6 10.3-3.4 6.4-14.7 10.2-25.5 8.4l-5.5-.6c-6-1.1-11.8-2.4-17.6-3.9-11.3-2.6-22.7-4.5-34.2-5.8-3.7-.2-7.6.6-11 2.4-1.5-.2-6-.5-8.5-.8-18.7 34.3-58.5 63.3-111.7 81.9l3.5 4.8c-1.5 1.9-2.1 4.5-1.3 6.9 5.3 6.4 11.4 12.4 18.1 17.6 3.7 2.7 7.3 5.8 10.5 9 .8.8 1.8 1.9 2.4 2.9 1.5.7 2.1 1.5 2.8 2.5zm-55.3-71.6c37.4-14 65.8-34.7 80.6-59l-101.2-9.8c-3.7-.5-7.6-.2-11.1.8-8.5 2.4-12.1 8.4-7.9 13.4l39.6 54.6m-174.6 12.9c43.2 8.1 87.5 7.9 130.5-.3l-50.4-51.9c-.8-1-1.9-1.6-3.1-2.3-1.3-.8-2.6-1.3-4-1.8-8.4-2.6-18.9-.8-23.4 4.2h-.3l-49.3 52.1m38.2-227.7c-44.2 3.2-85.1 14.7-116.7 32.9l83.8 34.2h.3c1.9.8 4 1.3 6.1 1.6 9.2 1.3 18.5-1.9 20.8-7.4.2-.8.3-1.5.5-2.1l5.2-59.2m-117.3 199.3c11.3 6.4 23 11.8 35.1 16.3l39-55.3c.5-.6.6-1.5.8-2.3l-.3-.2c.3-1.1.3-2.3 0-3.4-1-2.3-2.6-4.2-4.8-5.3-4.7-2.4-10-3.4-15.3-2.7l-101.7 10.2c10.1 16 26.4 30.7 47.2 42.7m284.8-167.1c-32.2-18.1-73.8-29.5-118.3-32.4l6.3 59.5c.5 2.3 1.8 4.2 3.7 5.5.5.5 1.1.8 1.8 1.1 6.9 3.5 15.1 3.9 22.4 1h.5l83.6-34.7m-343 96.6l98.5-16.6v-.2c6.3-1.1 11.1-4 12.2-7.7 1-3.4-.8-6.8-5-9.2l-.5-.3-76.9-39.5c-19.5 18.5-29.8 40-29.5 61.6.1 4 .4 8 1.2 11.9m292.1-29.5c-1.6 3.5.3 7.3 4.5 9.7 2.4 1.3 5 2.3 7.7 2.6l-.2.3 99 16.4c.8-4 1.1-8.1 1.3-12.2 0-21.8-10.6-43-30.5-61.6l-76.6 40c-2.2.9-4 2.7-5.2 4.8m-55.6 12.2l-19.5-14.2-31.3-.2-19.5 14.3 7.1 17.7 28.4 7.9 28-7.7 6.8-17.8" fill="url(#SVGID_3_)"/></g><linearGradient id="SVGID_4_" gradientUnits="userSpaceOnUse" x1="1871.467" y1="1015.666" x2="2961.438" y2="1015.666" gradientTransform="translate(0 -34)"><stop offset="0" stop-color="#193672"/><stop offset=".25" stop-color="#152e61"/><stop offset=".73" stop-color="#0e2044"/><stop offset="1" stop-color="#0c1b39"/></linearGradient><path d="M2961.4 1059.8L2832.2 814 2475 705.3v13.2-13.2l-42.1 12.7-42.1-12.7v13.1-12.9l-42.9 13.1h-47.4l-16.9 9.8 11.1 6.4-261.1 79.5-19.2 36.3h-28.8l-16.9 9.7 16.8 9.8h18.7l-96.2 182.6h-19.7l-16.9 9.8 16.8 9.7h33.2l202.4 144.6h-3.5l-16.9 9.8 16.8 9.7h30.9l30 21.4 209.5.3h99.7l193.9-.3 277.2-197.9zm-158.1-202.3l-12.2-7.1h-23.9l-14.5-27.7 38.5 11.8 12.1 23zM2617 869.9h108.6l96.1 182.4H2714l-16.9 9.7 16.8 9.7h80.7l-205.8 144.7h-106.7l-16.9 9.8 3.5 2.1h-30l-130.9-.3 3.2-1.9-16.8-9.8h-17.1l-209.7-147.5 11.8-6.8-16.8-9.8H2044l96.1-182.4h19.3l16.9-9.8-16.9-9.8h-9.2l8.4-16 274.1-83.6 274.1 83.6 8.4 16h-98.3l-16.9 9.7 17 10zm-542.1-35.5l38.5-11.8-14.5 27.7h-32.4l8.4-15.9zm-18.7 35.5h32.4l-96.1 182.6h-32.4l96.1-182.6zm-68.7 202.1h18.2l202.4 144.6h-15L1987.5 1072zm677.7 149.9l-8.2-4.8 203.6-145.4h18.2l-213.6 150.2zm232.9-163.8l-10.2-6h-14.5l-96.1-182.4h13.5l14.5-8.4 100.6 191.1-7.8 5.7z" fill="url(#SVGID_4_)"/><path class="st4" d="M2276 976.8l16.8 9.8 16.9-9.8-16.8-9.7z"/><path class="st5" d="M2276 976.8l1.4 249.6 17 9.7-1.6-249.5z"/><path class="st6" d="M2292.8 986.6l1.6 249.5 16.7-9.7-1.4-249.6z"/><path class="st7" d="M2791.2 718.4v41.1L2475 663v-41.1z"/><path class="st8" d="M2906 936.5l-2.7 41.2-112.1-218.2v-41.1z"/><path class="st4" d="M2475 589.1l357.1 108.8 129.3 245.8-55.4-7.3-114.8-218.2-316.2-96.5"/><path class="st7" d="M2791.2 627v41.1L2475 571.7v-41.2z"/><path class="st8" d="M2906 845.2l-2.7 41.1-112.1-218.2V627z"/><path class="st4" d="M2475 497.9l357.1 108.8 129.3 245.8-55.4-7.3L2791.2 627 2475 530.5"/><path class="st5" d="M2158.8 718.4v41.1L2475 663v-41.1z"/><path class="st9" d="M2475 621.9V663"/><path class="st10" d="M2044.1 936.5l2.7 41.2 112-218.2v-41.1z"/><path class="st4" d="M2475 621.9l-316.2 96.5L2044 936.6l-55.4 7.3 129.3-245.8L2475 589.3"/><path class="st5" d="M2158.8 627v41.1l316.2-96.4v-41.2z"/><path class="st9" d="M2475 530.5v41.2"/><path class="st10" d="M2044.1 845.2l2.7 41.1 112-218.2V627z"/><path class="st4" d="M2475 530.5L2158.8 627 2044 845.2l-55.4 7.3 129.3-245.8L2475 498.1m199.2 478.7l-16.9 9.8-16.7-9.8 16.7-9.7z"/><path class="st5" d="M2674.2 976.8l-1.6 249.6-16.7 9.7 1.4-249.5z"/><path class="st6" d="M2657.3 986.6l-1.4 249.5-17-9.7 1.7-249.6z"/><path class="st4" d="M2906 812.5l-16.8 9.7-16.9-9.7 16.8-9.8z"/><path class="st5" d="M2906 812.5l-1.5 249.7-16.9 9.6 1.6-249.6z"/><path class="st6" d="M2889.2 822.2l-1.6 249.6-16.7-9.6 1.4-249.7z"/><path class="st9" d="M2906 845.2l-2.7 41.1"/><path class="st11" d="M2684.7 1050.1v41.1l276.7-197.8v-41.1z"/><path class="st9" d="M2906 936.5l-2.7 41.2"/><path class="st11" d="M2684.7 1141.5v41.1l276.7-197.8v-41.1z"/><linearGradient id="SVGID_5_" gradientUnits="userSpaceOnUse" x1="2475.036" y1="687.692" x2="2791.245" y2="687.692" gradientTransform="translate(0 -34)"><stop offset="0" stop-color="#2c5ec8"/><stop offset=".43" stop-color="#2c5dc6"/><stop offset=".61" stop-color="#2a5abf"/><stop offset=".73" stop-color="#2754b3"/><stop offset=".84" stop-color="#234ca1"/><stop offset=".93" stop-color="#1f428b"/><stop offset="1" stop-color="#193672"/></linearGradient><path d="M2475 589.1l298.6 90.9 17.6 38.2-316.2-96.5" fill="url(#SVGID_5_)"/><path class="st4" d="M2808.8 610.4l-16.7 9.9-17-9.9 17-9.7z"/><path class="st5" d="M2808.8 610.4l-1.4 249.7-16.8 9.8 1.5-249.6z"/><path class="st6" d="M2792.1 620.3l-1.5 249.6-16.9-9.8 1.4-249.7z"/><linearGradient id="SVGID_6_" gradientUnits="userSpaceOnUse" x1="2144.042" y1="600.008" x2="2466.843" y2="686.49" gradientTransform="translate(0 -34)"><stop offset=".78" stop-color="#326ce5"/><stop offset=".82" stop-color="#3069de"/><stop offset=".89" stop-color="#2c5fcb"/><stop offset=".96" stop-color="#2551ac"/></linearGradient><path d="M2303.7 641.4c0 11.4 0 22.6-.2 32.9l171.3-52.4v-32.7l-171.1 52.2z" fill="url(#SVGID_6_)"/><linearGradient id="SVGID_7_" gradientUnits="userSpaceOnUse" x1="2102.589" y1="640.603" x2="2480.041" y2="553.46" gradientTransform="translate(0 -34)"><stop offset=".78" stop-color="#326ce5"/><stop offset=".82" stop-color="#3069de"/><stop offset=".89" stop-color="#2c5fcb"/><stop offset=".96" stop-color="#2551ac"/></linearGradient><path d="M2303.6 550.1c.2 9.8.2 21 .2 32.7l171.3-52.2v-32.7l-171.5 52.2z" fill="url(#SVGID_7_)"/><linearGradient id="SVGID_8_" gradientUnits="userSpaceOnUse" x1="1988.636" y1="763.602" x2="2158.827" y2="763.602" gradientTransform="translate(0 -34)"><stop offset=".78" stop-color="#326ce5"/><stop offset=".82" stop-color="#3069de"/><stop offset=".89" stop-color="#2c5fcb"/><stop offset=".96" stop-color="#2551ac"/></linearGradient><path d="M2158.8 627L2044 845.2l-55.4 7.3 129.3-245.8" fill="url(#SVGID_8_)"/><path class="st4" d="M2141.3 610.4l16.7 9.9 16.9-9.9-16.7-9.7z"/><path class="st5" d="M2141.3 610.4l1.6 249.7 16.7 9.8-1.6-249.6z"/><path class="st6" d="M2158 620.3l1.6 249.6 17-9.8-1.7-249.7z"/><path class="st4" d="M2044.1 812.5l16.7 9.7 17-9.7-16.8-9.8z"/><path class="st5" d="M2044.1 812.5l1.6 249.7 16.7 9.6-1.6-249.6z"/><path class="st6" d="M2060.8 822.2l1.6 249.6 17-9.6-1.6-249.7z"/><path class="st9" d="M2044.1 845.2l2.7 41.1"/><path class="st11" d="M2265.5 1050.1v41.1l-276.9-197.8v-41.1z"/><path class="st16" d="M2660.4 1050.1l-192.9.3-177.8-.3h-24.2v41.1h26.9l167 .3h15.6l182.6-.3h26.9v-41.1h-24.1z"/><path class="st4" d="M2293.7 1020.7l-249.6-175.5-55.5 7.1 276.9 197.8h419.2l276.7-197.8-55.4-7.1-249.7 175.5z"/><linearGradient id="SVGID_9_" gradientUnits="userSpaceOnUse" x1="2475.036" y1="655.298" x2="2791.229" y2="655.298" gradientTransform="translate(0 -34)"><stop offset="0" stop-color="#193672"/><stop offset=".01" stop-color="#1f438d"/><stop offset=".03" stop-color="#244da3"/><stop offset=".05" stop-color="#2754b4"/><stop offset=".07" stop-color="#2a5abf"/><stop offset=".1" stop-color="#2c5dc6"/><stop offset=".19" stop-color="#2c5ec8"/></linearGradient><path d="M2577.2 620.4L2475 589.3V622l102.3 31.3c.1-8.2.1-20.2-.1-32.9z" fill="url(#SVGID_9_)"/><path class="st4" d="M2492.8 478.6l-17 9.7-16.9-9.7 16.9-9.8z"/><path class="st5" d="M2492.8 478.6l-1.6 249.6-16.8 9.7 1.4-249.6z"/><path class="st6" d="M2475.8 488.3l-1.4 249.6-16.9-9.7 1.4-249.6z"/><path class="st9" d="M2044.1 936.5l2.7 41.2"/><path class="st11" d="M2265.5 1141.5v41.1l-276.9-197.8v-41.1z"/><path class="st16" d="M2660.4 1141.5l-199.8.3-170.8-.3h-24.2v41.1h26.9l151.3.3h31.4l182.6-.3h26.9v-41.1h-24.3z"/><path class="st4" d="M2656.3 1112.1L2906 936.5l55.4 7.2-276.7 197.8h-419.2l-276.9-197.8 55.5-7.2 249.6 175.6z"/><linearGradient id="SVGID_10_" gradientUnits="userSpaceOnUse" x1="2887.784" y1="1105.839" x2="2887.784" y2="1059.375" gradientTransform="translate(0 -34)"><stop offset="0" stop-color="#0c1b39" stop-opacity=".5"/><stop offset=".62" stop-color="#0c1b39" stop-opacity=".62"/><stop offset="1" stop-color="#0c1b39" stop-opacity=".75"/></linearGradient><path fill="url(#SVGID_10_)" d="M2904.7 1025.4v36.8l-17.1 9.6-16.7-9.6v-12.6l33.8-24.2"/><linearGradient id="SVGID_11_" gradientUnits="userSpaceOnUse" x1="2655.865" y1="1270.132" x2="2655.865" y2="1216.625" gradientTransform="translate(0 -34)"><stop offset="0" stop-color="#0c1b39" stop-opacity=".5"/><stop offset=".62" stop-color="#0c1b39" stop-opacity=".62"/><stop offset="1" stop-color="#0c1b39" stop-opacity=".75"/></linearGradient><path fill="url(#SVGID_11_)" d="M2672.8 1182.6v43.8l-17.1 9.7-16.8-9.7v-43.8"/></svg>