<svg xmlns="http://www.w3.org/2000/svg" viewBox="0 0 1920 1080"><linearGradient id="a" gradientUnits="userSpaceOnUse" y1="540" x2="1920" y2="540"><stop offset="0" stop-color="#193672"/><stop offset=".172" stop-color="#1c3e83"/><stop offset=".471" stop-color="#214899"/><stop offset=".753" stop-color="#244fa7"/><stop offset="1" stop-color="#2551ac"/></linearGradient><path fill="url(#a)" d="M0 0h1920v1080H0z"/><linearGradient id="b" gradientUnits="userSpaceOnUse" x1="254.992" y1="1001.195" x2="1665.815" y2="1001.195"><stop offset="0" stop-color="#92b1f1"/><stop offset=".227" stop-color="#aec5f5"/><stop offset=".55" stop-color="#cfdcf9"/><stop offset=".82" stop-color="#e3ebfb"/><stop offset="1" stop-color="#eaf0fc"/></linearGradient><path d="M1665.8 1033.4h-25.3l-105-253.1c-3.5-8.9-10.8-17.2-21.3-24.2-1-.7-2.1-1.3-3.2-1.9-7.9-4.6-17.2-8.3-27.3-11L990.3 606c-25.8-7.2-55.7-7.2-81.4 0L422.2 743.5c-22.9 6.4-40.2 17.9-47.9 32-1 1.7-1.8 3.4-2.4 5.1l-94.3 252.8H255v69.7h.2c1.2 11.3 8.5 22.3 21.1 31.3l344.3 246.9c2.2 1.6 4.5 3.1 7 4.5 17.6 10.2 41.6 16 66.7 16l544.3-.2c28.5 0 55.4-7.6 72.9-20.5l334.5-247c12.1-9 18.9-19.8 19.7-31h.1v-69.7z" fill="url(#b)"/><path d="M1511.1 694.7c1.1.6 2.1 1.3 3.2 1.9 10.4 6.9 17.8 15.2 21.3 24.2l127.7 307.8c6.7 16.1.4 33-17.2 46l-334.5 247c-17.6 13-44.4 20.5-72.9 20.5l-544.3.2c-25.1 0-49.1-5.9-66.7-16-2.4-1.4-4.8-2.9-7-4.5l-344.3-246.9c-18.1-12.8-25.2-29.7-19.3-45.8l114.9-308c.7-1.7 1.5-3.4 2.4-5.1 7.7-14 25-25.6 47.9-32L909 546.6c25.7-7.2 55.6-7.2 81.4 0l493.5 137.1c10 2.7 19.3 6.4 27.2 11z" fill="#fff"/><path opacity=".05" fill="#0ff" d="M456 990.7l56.9-152.5 436.8-123.3 447.6 124.4 64.7 155.9-235.3 173.8-521.8.1z"/><linearGradient id="c" gradientUnits="userSpaceOnUse" x1="657.573" y1="855.992" x2="805.019" y2="-344.861"><stop offset="0" stop-color="#0ff" stop-opacity=".5"/><stop offset="1" stop-color="#2551ac" stop-opacity="0"/></linearGradient><path opacity=".5" fill="url(#c)" d="M512.9 838.2v-1042l436.8-123.3v1042z"/><linearGradient id="d" gradientUnits="userSpaceOnUse" x1="1106.274" y1="803.55" x2="1240.713" y2="-291.365"><stop offset="0" stop-color="#0ff" stop-opacity=".5"/><stop offset="1" stop-color="#2551ac" stop-opacity="0"/></linearGradient><path opacity=".5" fill="url(#d)" d="M949.7 714.9l447.6 124.4v-1042L949.7-327.1z"/><linearGradient id="e" gradientUnits="userSpaceOnUse" x1="1357.666" y1="982.421" x2="1501.614" y2="-189.939"><stop offset="0" stop-color="#0ff" stop-opacity=".5"/><stop offset="1" stop-color="#2551ac" stop-opacity="0"/></linearGradient><path opacity=".5" fill="url(#e)" d="M1462 995.2l-64.7-155.9v-1042L1462-46.8z"/><linearGradient id="f" gradientUnits="userSpaceOnUse" x1="1014.643" y1="1014.882" x2="1674.057" y2="107.276"><stop offset="0" stop-color="#0ff" stop-opacity=".75"/><stop offset=".041" stop-color="#0ff" stop-opacity=".694"/><stop offset=".545" stop-color="#0ff" stop-opacity="0"/></linearGradient><path opacity=".5" fill="url(#f)" d="M1226.7 1169V126.9L1462-46.8v1042z"/><linearGradient id="g" gradientUnits="userSpaceOnUse" x1="627.831" y1="1113.361" x2="1303.705" y2="183.1"><stop offset="0" stop-color="#0ff" stop-opacity=".75"/><stop offset=".058" stop-color="#0ff" stop-opacity=".694"/><stop offset=".784" stop-color="#0ff" stop-opacity="0"/></linearGradient><path opacity=".5" fill="url(#g)" d="M1226.7 1169.2v-1042H704.9v1042.2z"/><linearGradient id="h" gradientUnits="userSpaceOnUse" x1="190.637" y1="797.857" x2="778.293" y2="-10.982"><stop offset="0" stop-color="#0ff" stop-opacity=".5"/><stop offset="1" stop-color="#2551ac" stop-opacity="0"/></linearGradient><path opacity=".5" fill="url(#h)" d="M512.9 838.2v-1042L456-51.4V990.7z"/><linearGradient id="i" gradientUnits="userSpaceOnUse" x1="332.148" y1="900.67" x2="828.788" y2="217.103"><stop offset="0" stop-color="#0ff" stop-opacity=".75"/><stop offset=".041" stop-color="#0ff" stop-opacity=".694"/><stop offset=".55" stop-color="#0ff" stop-opacity="0"/></linearGradient><path opacity=".5" fill="url(#i)" d="M704.9 1169.1v-1042L456-51.4V990.7z"/><linearGradient id="j" gradientUnits="userSpaceOnUse" x1="474.691" y1="1173.802" x2="509.352" y2="678.135"><stop offset="0" stop-color="#fff" stop-opacity="0"/><stop offset="1" stop-color="#326ce5" stop-opacity=".5"/></linearGradient><path d="M704.9 1169.1L456 990.7V674.4l-40.9 11.8s-32.6 6.2-47.5 46-107.3 287.7-107.3 287.7-18.7 27.5 8.8 49.1 138.7 100.1 138.7 100.1h297.1z" fill="url(#j)"/></svg>