<?xml version="1.0" encoding="utf-8"?>
<!-- Generator: Adobe Illustrator 21.1.0, SVG Export Plug-In . SVG Version: 6.00 Build 0)  -->
<svg version="1.1" id="Layer_1" xmlns="http://www.w3.org/2000/svg" xmlns:xlink="http://www.w3.org/1999/xlink" x="0px" y="0px"
	 viewBox="0 0 121.9 121.8" style="enable-background:new 0 0 121.9 121.8;" xml:space="preserve">
<style type="text/css">
	.st0{fill:#ECB32D;}
	.st1{fill:#63C1A0;}
	.st2{fill:#E01A59;}
	.st3{fill:#331433;}
	.st4{fill:#D62027;}
	.st5{fill:#89D3DF;}
	.st6{fill:#258B74;}
	.st7{fill:#819C3C;}
</style>
<g>
	<g>
		<path class="st0" d="M79,7.5c-1.9-5.7-8-8.8-13.7-7c-5.7,1.9-8.8,8-7,13.7l28.1,86.4c1.9,5.3,7.7,8.3,13.2,6.7
			c5.8-1.7,9.3-7.8,7.4-13.4C107,93.7,79,7.5,79,7.5z"/>
		<path class="st1" d="M35.5,21.6c-1.9-5.7-8-8.8-13.7-7c-5.7,1.9-8.8,8-7,13.7l28.1,86.4c1.9,5.3,7.7,8.3,13.2,6.7
			c5.8-1.7,9.3-7.8,7.4-13.4C63.5,107.8,35.5,21.6,35.5,21.6z"/>
		<path class="st2" d="M114.4,79c5.7-1.9,8.8-8,7-13.7c-1.9-5.7-8-8.8-13.7-7L21.2,86.5c-5.3,1.9-8.3,7.7-6.7,13.2
			c1.7,5.8,7.8,9.3,13.4,7.4C28.1,107.1,114.4,79,114.4,79z"/>
		<path class="st3" d="M39.2,103.5c5.6-1.8,12.9-4.2,20.7-6.7c-1.8-5.6-4.2-12.9-6.7-20.7l-20.7,6.7L39.2,103.5z"/>
		<path class="st4" d="M82.8,89.3c7.8-2.5,15.1-4.9,20.7-6.7c-1.8-5.6-4.2-12.9-6.7-20.7l-20.7,6.7L82.8,89.3z"/>
		<path class="st5" d="M100.2,35.5c5.7-1.9,8.8-8,7-13.7c-1.9-5.7-8-8.8-13.7-7L7.1,42.9c-5.3,1.9-8.3,7.7-6.7,13.2
			c1.7,5.8,7.8,9.3,13.4,7.4C14,63.5,100.2,35.5,100.2,35.5z"/>
		<path class="st6" d="M25.1,59.9c5.6-1.8,12.9-4.2,20.7-6.7c-2.5-7.8-4.9-15.1-6.7-20.7l-20.7,6.7L25.1,59.9z"/>
		<path class="st7" d="M68.6,45.8c7.8-2.5,15.1-4.9,20.7-6.7c-2.5-7.8-4.9-15.1-6.7-20.7l-20.7,6.7L68.6,45.8z"/>
	</g>
</g>
</svg>
