<svg viewBox="0 0 128 128" xmlns="http://www.w3.org/2000/svg"><g clip-rule="evenodd" fill-rule="evenodd"><path fill="none" d="M0 0h128v128H0z"/><path d="M3.229 43.133h24.948v79.049H3.229V43.133zm11.838-9.887h-.181C5.855 33.246 0 27.203 0 19.543 0 11.734 6.028 5.818 15.24 5.818c9.204 0 14.864 5.901 15.044 13.703 0 7.659-5.84 13.725-15.217 13.725zM128 122.182H99.71V81.275c0-10.707-4.425-18.017-14.156-18.017-7.443 0-11.582 4.933-13.509 9.686-.722 1.706-.61 4.083-.61 6.46v42.777H43.409s.361-72.462 0-79.049h28.026v12.406c1.656-5.424 10.611-13.166 24.903-13.166 17.731 0 31.661 11.37 31.661 35.855v43.955z" fill="#007EBB"/></g></svg>