<svg xmlns="http://www.w3.org/2000/svg" viewBox="0 0 100 100"><path d="M73.66 52.61v10.52c0 1.2-.36 1.46-1.53 1.29-7.86-1.17-15.74-2.28-23.62-3.35-1.41-.19-1.94-.69-1.92-2.23.1-5.61.07-11.24 0-16.84 0-1.25.38-1.58 1.61-1.58 7.953.047 15.907.047 23.86 0 1.27 0 1.61.5 1.61 1.65-.05 3.52-.03 7.02-.01 10.54zM60.25 38.36H48.32c-1.22 0-1.75-.29-1.72-1.68.07-5.68.07-11.33 0-17A1.37 1.37 0 0 1 48 18c8.15-1.15 16.29-2.35 24.44-3.55 1.44-.22 1.17.79 1.17 1.53v20.87c0 1.15-.38 1.51-1.51 1.51-3.92-.02-7.87 0-11.85 0zM33.9 40.47h8.94a1.1 1.1 0 0 1 1.37 1.29V59.3c0 1-.48 1.13-1.34 1-5.89-.86-11.79-1.72-17.7-2.54A1.49 1.49 0 0 1 23.6 56c.07-4.67.07-9.34 0-14 0-1.15.34-1.51 1.49-1.49 2.96.01 5.91-.04 8.81-.04zm0-2.11h-8.77c-1.13 0-1.51-.36-1.49-1.53V22.98a1.36 1.36 0 0 1 1.44-1.65c5.89-.79 11.79-1.61 17.66-2.56 1.37-.22 1.49.29 1.49 1.32v16.82c0 1.22-.53 1.44-1.58 1.41l-8.75.04zM12.82 81.23c-.07-1.32-.15-2.9-.14-4.08-.32 1.11-.71 2.28-1.19 3.59l-1.71 4.58h-.92l-1.53-4.5c-.45-1.33-.83-2.55-1.09-3.67 0 1.18-.1 2.76-.18 4.17l-.25 4h-1.2l.66-9.44h1.55l1.62 4.62c.39 1.16.71 2.2 1 3.18.24-1 .57-2 1-3.18l1.68-4.57h1.55l.59 9.44h-1.2l-.24-4.14zm4.8-4.54a.765.765 0 1 1-1.53 0 .75.75 0 0 1 .729-.77h.041a.73.73 0 0 1 .76.77zm-1.37 8.68V78.6h1.23v6.78h-1.23v-.01zm8.1-.25a4.557 4.557 0 0 1-1.95.39 3.22 3.22 0 0 1-3.4-3.45 3.44 3.44 0 0 1 3.64-3.6 4.108 4.108 0 0 1 1.71.35l-.28 1a2.865 2.865 0 0 0-1.43-.32 2.56 2.56 0 0 0 0 5.1 3.493 3.493 0 0 0 1.51-.34l.2.87zm1.44-4.41c0-.8 0-1.48-.06-2.12h1.08v1.33h.06a2 2 0 0 1 1.88-1.48c.116-.016.234-.016.35 0v1.16a1.843 1.843 0 0 0-.42 0 1.73 1.73 0 0 0-1.65 1.58 3.638 3.638 0 0 0-.06.57v3.61h-1.18v-4.65zm10.58 1.22a3.31 3.31 0 0 1-3.37 3.6A3.22 3.22 0 0 1 29.74 82a3.311 3.311 0 0 1 3.36-3.6 3.21 3.21 0 0 1 3.27 3.53zM31 82c0 1.48.85 2.61 2.06 2.61s2.05-1.11 2.05-2.61c0-1.15-.57-2.61-2-2.61S31 80.71 31 82zm6.75 2.12c.49.306 1.053.475 1.63.49a1.09 1.09 0 0 0 1.32-1c0-.59-.35-.91-1.26-1.25-1.22-.43-1.79-1.11-1.79-1.92a2.09 2.09 0 0 1 2.34-2 3.393 3.393 0 0 1 1.67.42l-.31.9a2.632 2.632 0 0 0-1.39-.39 1 1 0 0 0-1.13.92c0 .56.41.81 1.29 1.15 1.18.45 1.78 1 1.78 2 0 1.19-.92 2-2.54 2a3.863 3.863 0 0 1-1.91-.46l.3-.86zm11.85-2.19a3.31 3.31 0 0 1-3.38 3.6A3.22 3.22 0 0 1 43 82a3.311 3.311 0 0 1 3.36-3.6 3.21 3.21 0 0 1 3.24 3.53zm-5.38.07c0 1.48.85 2.61 2.06 2.61s2.06-1.11 2.06-2.61c0-1.15-.57-2.61-2-2.61s-2.12 1.32-2.12 2.61zm7.05 3.38v-5.85h-1v-.93h1v-.33a3.202 3.202 0 0 1 .78-2.37 2.36 2.36 0 0 1 1.65-.63c.359 0 .716.068 1.05.2l-.17 1a1.848 1.848 0 0 0-.79-.15c-1 0-1.32.92-1.32 2v.28h1.64v.94h-1.62v5.84h-1.22zm5.6-8.73v1.95h1.76v.94h-1.76v3.66c0 .84.24 1.32.92 1.32.239.004.478-.023.71-.08l.06.92c-.35.124-.719.181-1.09.17-.5.026-.986-.167-1.33-.53a2.513 2.513 0 0 1-.48-1.76v-3.7h-1.04v-.94h1.05V77l1.2-.35zm7.69 5.76l-1 3h-1.24l3.21-9.44H67l3.22 9.44h-1.3l-1-3h-3.36zm3.1-1l-.92-2.72c-.21-.62-.35-1.18-.49-1.72-.14.56-.29 1.13-.48 1.71l-.92 2.73h2.84-.03zM71 84.66l3.07-4c.29-.36.58-.69.88-1.05h-3.69v-1h5.17v.77l-3 3.94c-.28.38-.56.71-.87 1.06h4v1H71v-.72zm12.42-1.13c0 .7 0 1.32.06 1.85h-1.1l-.07-1.11A2.55 2.55 0 0 1 80 85.53c-1.06 0-2.34-.59-2.34-3v-4h1.23v3.75c0 1.29.39 2.16 1.51 2.16a1.73 1.73 0 0 0 1.74-1.72V78.6h1.23v4.93h.05zm2.04-2.82c0-.8 0-1.48-.06-2.12h1.08v1.33h.06a2 2 0 0 1 1.88-1.48c.116-.016.234-.016.35 0v1.16a1.843 1.843 0 0 0-.42 0 1.73 1.73 0 0 0-1.65 1.58 3.638 3.638 0 0 0-.06.57v3.61h-1.18v-4.65zm5.12 1.5a2.17 2.17 0 0 0 2.33 2.35 4.441 4.441 0 0 0 1.88-.35l.21.89a5.476 5.476 0 0 1-2.25.42 3.15 3.15 0 0 1-3.33-3.42c0-2 1.21-3.66 3.18-3.66 2.21 0 2.8 1.95 2.8 3.19.011.19.011.38 0 .57h-4.82v.01zm3.61-.88a1.76 1.76 0 0 0-1.71-2 2 2 0 0 0-1.89 2h3.6z" fill="#00aaf2"/></svg>