<?xml version="1.0" encoding="utf-8"?>
<!-- Generator: Adobe Illustrator 22.0.1, SVG Export Plug-In . SVG Version: 6.00 Build 0)  -->
<svg version="1.1" id="Layer_1" xmlns="http://www.w3.org/2000/svg" xmlns:xlink="http://www.w3.org/1999/xlink" x="0px" y="0px"
	 viewBox="0 0 100 100" style="enable-background:new 0 0 100 100;" xml:space="preserve">
<style type="text/css">
	.st0{fill:#4052D7;}
	.st1{fill:#387EFA;}
</style>
<polygon class="st0" points="61.83,41.67 72,48.2 72,24.48 52.03,12.95 52.03,24.69 61.83,30.35 "/>
<polygon class="st1" points="59.64,45.06 49.89,50.76 38.12,43.88 38.12,30.11 47.87,24.41 47.87,12.59 28,24.2 28,49.79 
	49.89,62.59 69.22,51.29 "/>
<path class="st0" d="M54.86,43.76h-1.8l-4.8-6.38l-1.38,1.22v5.16h-1.53V30.6h1.53v6.53l6-6.53h1.81l-5.29,5.72L54.86,43.76z"/>
<path class="st0" d="M11.8,74.19h1.52l3.59,10.61h-1.44l-1-3.24H10.6l-1,3.24H8.21L11.8,74.19z M10.94,80.48h3.19l-0.5-1.62
	c-0.39-1.18-0.73-2.35-1.07-3.57H12.5c-0.32,1.23-0.66,2.39-1.05,3.57L10.94,80.48z"/>
<path class="st0" d="M18.28,76.94h1.1l0.11,1.13l0,0c0.609-0.779,1.523-1.26,2.51-1.32c0.991-0.089,1.904,0.542,2.17,1.5
	c0.614-0.842,1.554-1.386,2.59-1.5c1.62,0,2.39,1.07,2.39,3.07v5h-1.34V80c0-1.47-0.47-2.1-1.46-2.1
	c-0.807,0.104-1.533,0.543-2,1.21v5.69h-1.3V80c0-1.47-0.47-2.1-1.47-2.1c-0.803,0.116-1.524,0.553-2,1.21v5.69h-1.3V76.94z"/>
<path class="st0" d="M31.2,82.77c0-1.72,1.47-2.57,4.82-2.94c0-1-0.32-2-1.62-2c-0.849,0.04-1.668,0.333-2.35,0.84l-0.52-0.92
	c0.915-0.619,1.986-0.966,3.09-1c1.93,0,2.73,1.28,2.73,3.24v4.82h-1.1l-0.11-0.94l0,0c-0.722,0.678-1.661,1.078-2.65,1.13
	c-1.179,0.084-2.203-0.804-2.287-1.982C31.197,82.935,31.196,82.853,31.2,82.77z M36.02,82.88V80.7c-2.62,0.32-3.53,1-3.53,2
	s0.61,1.26,1.39,1.26c0.82-0.072,1.58-0.459,2.12-1.08H36.02z"/>
<path class="st0" d="M39,84.09L43.15,78h-3.69v-1.06h5.37v0.71l-4.14,6.07H45v1.08h-6V84.09z"/>
<path class="st0" d="M46,80.89c0-2.64,1.71-4.14,3.64-4.14s3.64,1.5,3.64,4.14S51.52,85,49.6,85S46,83.5,46,80.89z M51.9,80.89
	c0-1.81-0.91-3-2.26-3s-2.26,1.23-2.26,3s0.92,3,2.26,3s2.22-1.2,2.22-3H51.9z"/>
<path class="st0" d="M55.3,76.94h1.1l0.11,1.13l0,0c0.658-0.79,1.614-1.272,2.64-1.33c1.65,0,2.39,1.07,2.39,3.07v5h-1.27V80
	c0-1.47-0.45-2.1-1.49-2.1c-0.81,0-1.36,0.42-2.15,1.21v5.69H55.3V76.94z"/>
<path class="st0" d="M67.51,74.19h6.11v1.13h-4.77v3.33h4v1.15h-4v3.85h4.93v1.15h-6.27V74.19z"/>
<path class="st0" d="M76,74.19h1.34v5.32l0,0l4.42-5.32h1.52l-3.32,4l3.83,6.57h-1.5l-3.09-5.47l-1.83,2.15v3.37H76V74.19z"/>
<path class="st0" d="M84.47,83.43l0.81-0.94c0.758,0.819,1.814,1.299,2.93,1.33c1.39,0,2.22-0.7,2.22-1.73s-0.76-1.42-1.76-1.88
	l-1.52-0.66c-1.228-0.361-2.091-1.462-2.15-2.74C85,75.2,86.39,74,88.32,74c1.18-0.001,2.311,0.471,3.14,1.31l-0.73,0.87
	c-0.637-0.642-1.505-1.003-2.41-1c-1.18,0-2,0.6-2,1.55s0.92,1.41,1.76,1.76l1.5,0.65c1.23,0.53,2.18,1.26,2.18,2.83s-1.37,3-3.61,3
	C86.766,84.972,85.44,84.417,84.47,83.43z"/>
</svg>
