<svg id="Layer_1" data-name="Layer 1" xmlns="http://www.w3.org/2000/svg" viewBox="0 0 100 100"><defs><style>.cls-1{fill:#4052d7}</style></defs><path class="cls-1" d="M61.83 41.67L72 48.2V24.48L52.03 12.95v11.74l9.8 5.66v11.32z"/><path fill="#387efa" d="M59.64 45.06l-9.75 5.7-11.77-6.88V30.11l9.75-5.7V12.59L28 24.2v25.59l21.89 12.8 19.33-11.3-9.58-6.23z"/><path class="cls-1" d="M54.86 43.76h-1.8l-4.8-6.38-1.38 1.22v5.16h-1.53V30.6h1.53v6.53l6-6.53h1.81l-5.29 5.72zM11.8 74.19h1.52l3.59 10.61h-1.44l-1-3.24H10.6l-1 3.24H8.21zm-.86 6.29h3.19l-.5-1.62c-.39-1.18-.73-2.35-1.07-3.57h-.06c-.32 1.23-.66 2.39-1.05 3.57zm7.34-3.54h1.1l.11 1.13A3.45 3.45 0 0 1 22 76.75a2.06 2.06 0 0 1 2.17 1.5 3.71 3.71 0 0 1 2.59-1.5c1.62 0 2.39 1.07 2.39 3.07v5h-1.34V80c0-1.47-.47-2.1-1.46-2.1a2.89 2.89 0 0 0-2 1.21v5.69h-1.3V80c0-1.47-.47-2.1-1.47-2.1a3 3 0 0 0-2 1.21v5.69h-1.3zm12.92 5.83c0-1.72 1.47-2.57 4.82-2.94 0-1-.32-2-1.62-2a4.28 4.28 0 0 0-2.35.84l-.52-.92a5.84 5.84 0 0 1 3.09-1c1.93 0 2.73 1.28 2.73 3.24v4.82h-1.1l-.11-.94A4.19 4.19 0 0 1 33.49 85a2.14 2.14 0 0 1-2.29-2.23zm4.82.11V80.7c-2.62.32-3.53 1-3.53 2s.61 1.26 1.39 1.26A3.18 3.18 0 0 0 36 82.88zM39 84.09L43.15 78h-3.69v-1.06h5.37v.71l-4.14 6.07H45v1.08h-6zm7-3.2c0-2.64 1.71-4.14 3.64-4.14s3.64 1.5 3.64 4.14S51.52 85 49.6 85 46 83.5 46 80.89zm5.9 0c0-1.81-.91-3-2.26-3s-2.26 1.23-2.26 3 .92 3 2.26 3 2.22-1.2 2.22-3zm3.4-3.95h1.1l.11 1.13a3.71 3.71 0 0 1 2.64-1.33c1.65 0 2.39 1.07 2.39 3.07v5h-1.27V80c0-1.47-.45-2.1-1.49-2.1-.81 0-1.36.42-2.15 1.21v5.69H55.3zm12.21-2.75h6.11v1.13h-4.77v3.33h4v1.15h-4v3.85h4.93v1.15h-6.27zm8.49 0h1.34v5.32l4.42-5.32h1.52l-3.32 4 3.83 6.57h-1.5l-3.09-5.47-1.83 2.15v3.37H76zm8.47 9.24l.81-.94a4.15 4.15 0 0 0 2.93 1.33c1.39 0 2.22-.7 2.22-1.73s-.76-1.42-1.76-1.88l-1.52-.66A3 3 0 0 1 85 76.81C85 75.2 86.39 74 88.32 74a4.41 4.41 0 0 1 3.14 1.31l-.73.87a3.38 3.38 0 0 0-2.41-1c-1.18 0-2 .6-2 1.55s.92 1.41 1.76 1.76l1.5.65c1.23.53 2.18 1.26 2.18 2.83s-1.37 3-3.61 3a5.15 5.15 0 0 1-3.68-1.54z"/></svg>