<?xml version="1.0" encoding="utf-8"?>
<!-- Generator: Adobe Illustrator 22.0.1, SVG Export Plug-In . SVG Version: 6.00 Build 0)  -->
<svg version="1.1" id="Layer_1" xmlns="http://www.w3.org/2000/svg" xmlns:xlink="http://www.w3.org/1999/xlink" x="0px" y="0px"
	 viewBox="0 0 100 100" style="enable-background:new 0 0 100 100;" xml:space="preserve">
<style type="text/css">
	.st0{fill:#00AAF2;}
</style>
<path class="st0" d="M73.66,52.61c0,3.5,0,7,0,10.52c0,1.2-0.36,1.46-1.53,1.29c-7.86-1.17-15.74-2.28-23.62-3.35
	c-1.41-0.19-1.94-0.69-1.92-2.23c0.1-5.61,0.07-11.24,0-16.84c0-1.25,0.38-1.58,1.61-1.58c7.953,0.047,15.907,0.047,23.86,0
	c1.27,0,1.61,0.5,1.61,1.65C73.62,45.59,73.64,49.09,73.66,52.61z"/>
<path class="st0" d="M60.25,38.36c-4,0-8,0-11.93,0c-1.22,0-1.75-0.29-1.72-1.68c0.07-5.68,0.07-11.33,0-17
	c-0.172-0.737,0.286-1.474,1.023-1.646C47.746,18.005,47.873,17.994,48,18c8.15-1.15,16.29-2.35,24.44-3.55
	c1.44-0.22,1.17,0.79,1.17,1.53c0,5.08,0,10.167,0,15.26c0,1.87,0,3.74,0,5.61c0,1.15-0.38,1.51-1.51,1.51
	C68.18,38.34,64.23,38.36,60.25,38.36z"/>
<path class="st0" d="M33.9,40.47c3,0,6,0,8.94,0c0.585-0.163,1.192,0.18,1.354,0.766c0.047,0.171,0.053,0.351,0.016,0.524
	c0,5.847,0,11.693,0,17.54c0,1-0.48,1.13-1.34,1c-5.89-0.86-11.79-1.72-17.7-2.54c-0.821,0.058-1.533-0.56-1.592-1.381
	C23.569,56.252,23.577,56.125,23.6,56c0.07-4.67,0.07-9.34,0-14c0-1.15,0.34-1.51,1.49-1.49C28.05,40.52,31,40.47,33.9,40.47z"/>
<path class="st0" d="M33.9,38.36c-2.92,0-5.85,0-8.77,0c-1.13,0-1.51-0.36-1.49-1.53c0-4.62,0-9.22,0-13.85
	c-0.163-0.733,0.3-1.46,1.033-1.622c0.133-0.03,0.271-0.039,0.407-0.028c5.89-0.79,11.79-1.61,17.66-2.56
	c1.37-0.22,1.49,0.29,1.49,1.32c0,5.61,0,11.21,0,16.82c0,1.22-0.53,1.44-1.58,1.41L33.9,38.36z"/>
<path class="st0" d="M12.82,81.23c-0.07-1.32-0.15-2.9-0.14-4.08l0,0c-0.32,1.11-0.71,2.28-1.19,3.59l-1.71,4.58H8.86l-1.53-4.5
	c-0.45-1.33-0.83-2.55-1.09-3.67l0,0c0,1.18-0.1,2.76-0.18,4.17l-0.25,4h-1.2l0.66-9.44h1.55l1.62,4.62c0.39,1.16,0.71,2.2,1,3.18
	l0,0c0.24-1,0.57-2,1-3.18l1.68-4.57h1.55l0.59,9.44h-1.2L12.82,81.23z"/>
<path class="st0" d="M17.62,76.69c0,0.423-0.343,0.765-0.765,0.765c-0.422,0-0.765-0.342-0.765-0.765l0,0
	c-0.011-0.414,0.315-0.759,0.729-0.77c0.014,0,0.027,0,0.041,0c0.403-0.017,0.743,0.295,0.76,0.698
	C17.621,76.642,17.621,76.666,17.62,76.69z M16.25,85.37V78.6h1.23v6.78h-1.23V85.37z"/>
<path class="st0" d="M24.35,85.12c-0.613,0.272-1.279,0.405-1.95,0.39c-1.775,0.104-3.299-1.251-3.403-3.026
	C18.989,82.343,18.99,82.201,19,82.06c-0.092-1.898,1.372-3.51,3.27-3.602c0.123-0.006,0.247-0.005,0.37,0.002
	c0.588-0.007,1.172,0.112,1.71,0.35l-0.28,1c-0.441-0.229-0.934-0.339-1.43-0.32c-1.408,0.125-2.449,1.368-2.324,2.776
	c0.11,1.235,1.089,2.214,2.324,2.324c0.522,0.001,1.038-0.115,1.51-0.34L24.35,85.12z"/>
<path class="st0" d="M25.79,80.71c0-0.8,0-1.48-0.06-2.12h1.08v1.33h0.06c0.23-0.855,0.995-1.457,1.88-1.48
	c0.116-0.016,0.234-0.016,0.35,0v1.16c-0.14-0.016-0.28-0.016-0.42,0c-0.869,0.037-1.575,0.713-1.65,1.58
	c-0.035,0.188-0.055,0.379-0.06,0.57v3.61h-1.18V80.71z"/>
<path class="st0" d="M36.37,81.93c0.161,1.821-1.185,3.427-3.006,3.588c-0.121,0.011-0.242,0.015-0.364,0.012
	c-1.778,0.03-3.244-1.386-3.275-3.165c-0.002-0.122,0.003-0.244,0.015-0.365c-0.16-1.821,1.186-3.427,3.007-3.588
	c0.117-0.01,0.235-0.014,0.353-0.012c1.772-0.042,3.243,1.361,3.285,3.133C36.388,81.666,36.383,81.798,36.37,81.93z M31,82
	c0,1.48,0.85,2.61,2.06,2.61c1.21,0,2.05-1.11,2.05-2.61c0-1.15-0.57-2.61-2-2.61S31,80.71,31,82z"/>
<path class="st0" d="M37.75,84.12c0.49,0.306,1.053,0.475,1.63,0.49c0.588,0.128,1.169-0.245,1.297-0.833
	c0.012-0.055,0.02-0.111,0.023-0.167c0-0.59-0.35-0.91-1.26-1.25c-1.22-0.43-1.79-1.11-1.79-1.92
	c0.041-1.154,1.01-2.055,2.163-2.014c0.059,0.002,0.118,0.007,0.177,0.014c0.584-0.006,1.159,0.139,1.67,0.42l-0.31,0.9
	c-0.418-0.257-0.899-0.392-1.39-0.39c-0.547-0.073-1.051,0.311-1.124,0.859c-0.003,0.02-0.005,0.041-0.006,0.061
	c0,0.56,0.41,0.81,1.29,1.15c1.18,0.45,1.78,1,1.78,2c0,1.19-0.92,2-2.54,2c-0.666,0.014-1.324-0.145-1.91-0.46L37.75,84.12z"/>
<path class="st0" d="M49.6,81.93c0.161,1.821-1.185,3.427-3.006,3.588c-0.124,0.011-0.249,0.015-0.374,0.012
	c-1.778,0.008-3.227-1.427-3.235-3.205C42.985,82.216,42.99,82.108,43,82c-0.16-1.821,1.186-3.427,3.007-3.588
	c0.117-0.01,0.235-0.014,0.353-0.012c1.773-0.025,3.23,1.391,3.256,3.164C49.617,81.686,49.612,81.808,49.6,81.93z M44.22,82
	c0,1.48,0.85,2.61,2.06,2.61s2.06-1.11,2.06-2.61c0-1.15-0.57-2.61-2-2.61S44.22,80.71,44.22,82z"/>
<path class="st0" d="M51.27,85.38v-5.85h-1V78.6h1v-0.33c-0.071-0.863,0.21-1.718,0.78-2.37c0.448-0.416,1.039-0.641,1.65-0.63
	c0.359,0,0.716,0.068,1.05,0.2l-0.17,1c-0.249-0.107-0.519-0.159-0.79-0.15c-1,0-1.32,0.92-1.32,2v0.28h1.64v0.94h-1.62v5.84
	C52.49,85.38,51.27,85.38,51.27,85.38z"/>
<path class="st0" d="M56.87,76.65v1.95h1.76v0.94h-1.76v3.66c0,0.84,0.24,1.32,0.92,1.32c0.239,0.004,0.478-0.023,0.71-0.08
	l0.06,0.92c-0.35,0.124-0.719,0.181-1.09,0.17c-0.5,0.026-0.986-0.167-1.33-0.53c-0.375-0.506-0.546-1.134-0.48-1.76v-3.7h-1.04
	V78.6h1.05V77L56.87,76.65z"/>
<path class="st0" d="M64.56,82.41l-1,3h-1.24l3.21-9.44H67l3.22,9.44h-1.3l-1-3H64.56z M67.66,81.41l-0.92-2.72
	c-0.21-0.62-0.35-1.18-0.49-1.72l0,0c-0.14,0.56-0.29,1.13-0.48,1.71l-0.92,2.73h2.84H67.66z"/>
<path class="st0" d="M71,84.66l3.07-4c0.29-0.36,0.58-0.69,0.88-1.05l0,0h-3.69v-1h5.17v0.77l-3,3.94
	c-0.28,0.38-0.56,0.71-0.87,1.06l0,0h4v1H71V84.66z"/>
<path class="st0" d="M83.42,83.53c0,0.7,0,1.32,0.06,1.85h-1.1l-0.07-1.11l0,0c-0.477,0.816-1.366,1.3-2.31,1.26
	c-1.06,0-2.34-0.59-2.34-3v-4h1.23v3.75c0,1.29,0.39,2.16,1.51,2.16c0.955,0.006,1.734-0.764,1.74-1.72c0-0.01,0-0.02,0-0.03V78.6
	h1.23v4.93H83.42z"/>
<path class="st0" d="M85.46,80.71c0-0.8,0-1.48-0.06-2.12h1.08v1.33h0.06c0.23-0.855,0.995-1.457,1.88-1.48
	c0.116-0.016,0.234-0.016,0.35,0v1.16c-0.14-0.016-0.28-0.016-0.42,0c-0.869,0.037-1.575,0.713-1.65,1.58
	c-0.035,0.188-0.055,0.379-0.06,0.57v3.61h-1.18V80.71z"/>
<path class="st0" d="M90.58,82.21c-0.103,1.194,0.781,2.245,1.975,2.348c0.118,0.01,0.237,0.011,0.355,0.002
	c0.645,0.021,1.286-0.098,1.88-0.35L95,85.1c-0.712,0.297-1.479,0.44-2.25,0.42c-1.736,0.106-3.23-1.216-3.336-2.952
	c-0.01-0.156-0.007-0.312,0.006-0.468c0-2,1.21-3.66,3.18-3.66c2.21,0,2.8,1.95,2.8,3.19c0.011,0.19,0.011,0.38,0,0.57h-4.82V82.21z
	 M94.19,81.33c0.133-0.963-0.54-1.851-1.503-1.984c-0.069-0.009-0.138-0.015-0.207-0.016c-1.061,0.058-1.892,0.937-1.89,2H94.19z"/>
</svg>
