<?xml version="1.0" encoding="utf-8"?>
<!-- Generator: Adobe Illustrator 22.0.1, SVG Export Plug-In . SVG Version: 6.00 Build 0)  -->
<svg version="1.1" id="Layer_1" xmlns="http://www.w3.org/2000/svg" xmlns:xlink="http://www.w3.org/1999/xlink" x="0px" y="0px"
	 viewBox="0 0 100 100" style="enable-background:new 0 0 100 100;" xml:space="preserve">
<style type="text/css">
	.st0{fill:#4285F4;}
	.st1{fill:#EA4335;}
	.st2{fill:#FBBC05;}
	.st3{fill:#34A853;}
	.st4{fill:none;}
	.st5{fill:#757575;}
	.st6{fill:#4489F2;}
	.st7{fill:#407FDD;}
	.st8{fill:#FFFFFF;}
</style>
<symbol  id="logo_color" viewBox="-208 -68 416 136">
	<path class="st0" d="M-207.3-15.4c0-29,24.3-52.5,53.3-52.5c13.5-0.2,26.4,5,36,14.5l-10.2,10.1c-6.9-6.7-16.2-10.4-25.8-10.3
		c-21.1,0-37.6,17-37.6,38.1s16.5,38.1,37.6,38.1c13.7,0,21.5-5.5,26.5-10.5c4.1-4.1,6.8-10,7.8-18H-154v-14.3h48.3
		c0.6,3,0.8,6,0.8,9c0,10.8-2.9,24.1-12.4,33.5C-126.6,31.9-138.4,37-154,37C-183,37-207.3,13.5-207.3-15.4z"/>
	<path class="st1" d="M-66-30.5c-18.7,0-33.9,14.2-33.9,33.8S-84.7,37.1-66,37.1s33.9-14.3,33.9-33.8S-47.3-30.5-66-30.5z M-66,23.7
		c-10.2,0-19.1-8.4-19.1-20.5s8.8-20.5,19.1-20.5S-46.9-9-46.9,3.2S-55.8,23.7-66,23.7z"/>
	<path class="st2" d="M8-30.5c-18.7,0-33.9,14.2-33.9,33.8S-10.7,37.1,8,37.1S41.9,22.8,41.9,3.3S26.7-30.5,8-30.5z M8,23.7
		c-10.2,0-19.1-8.4-19.1-20.5S-2.3-17.3,8-17.3S27.1-9,27.1,3.2S18.2,23.7,8,23.7z"/>
	<path class="st0" d="M98.8-28.5v5.5h-0.5c-3.3-4-9.7-7.6-17.8-7.6c-16.9,0-32.4,14.8-32.4,33.9C48.1,22.2,63.6,37,80.5,37
		c8.1,0,14.5-3.6,17.8-7.7h0.5v4.9c0,12.9-6.9,19.8-18,19.8c-9.1,0-14.7-6.5-17-12l-12.9,5.4c5,12.2,16.9,20.1,30,20
		c17.4,0,32.1-10.2,32.1-35.2v-60.7H98.8z M81.8,23.7C71.6,23.7,63,15.1,63,3.3s8.6-20.6,18.8-20.6s18,8.7,18,20.6
		S91.9,23.7,81.8,23.7z"/>
	<path class="st3" d="M123.2,35H138v-99.3h-14.8V35z"/>
	<path class="st1" d="M178.7,23.7c-7.6,0-12.9-3.5-16.4-10.2l45.2-18.7L206-9c-2.8-7.6-11.4-21.5-28.9-21.5s-31.9,13.7-31.9,33.8
		c0,18.9,14.3,33.8,33.5,33.8c11.3,0,21.9-5.6,28.2-15l-11.5-7.7C191.5,20,186.3,23.7,178.7,23.7L178.7,23.7z M177.6-17.5
		c5.9,0,10.9,2.9,12.5,7.2L159.9,2.2C159.5-10.8,170-17.5,177.6-17.5z"/>
	<path class="st4" d="M-208,68h416V-68h-416V68z"/>
</symbol>
<path class="st5" d="M8.9,85.2c-2.5,0-4.6-1.9-4.6-4.4c0-0.1,0-0.1,0-0.2C4.2,78.1,6.2,76,8.7,76c0.1,0,0.1,0,0.2,0
	c1.2,0,2.4,0.5,3.3,1.4l-0.8,0.8C10.8,77.4,9.9,77,8.9,77c-0.9,0-1.8,0.3-2.4,1c-0.7,0.7-1,1.6-1,2.6s0.3,1.9,1,2.6
	c0.7,0.6,1.5,1,2.4,1c1.1,0,2.1-0.5,2.7-1.3l0.8,0.8c-0.4,0.5-0.9,0.9-1.5,1.2C10.3,85,9.6,85.2,8.9,85.2z"/>
<path class="st5" d="M13.9,79.7c1.2-1.2,3.2-1.2,4.5,0c1.2,1.3,1.2,3.3,0,4.6c-1.2,1.2-3.2,1.2-4.5,0C12.7,83,12.7,81,13.9,79.7z
	 M14.7,83.6c0.7,0.8,1.9,0.8,2.7,0.1l0.1-0.1c0.8-0.9,0.8-2.3,0-3.2c-0.7-0.8-1.9-0.8-2.7-0.1l-0.1,0.1
	C13.9,81.3,13.9,82.6,14.7,83.6z"/>
<path class="st5" d="M21.2,78.9v0.8l0,0c0.2-0.3,0.5-0.6,0.8-0.7c0.3-0.2,0.7-0.3,1.1-0.3c0.6,0,1.3,0.2,1.7,0.7
	c0.4,0.5,0.6,1.2,0.6,1.9V85h-1.1v-3.5c0-1.1-0.5-1.7-1.5-1.7c-0.5,0-0.9,0.2-1.2,0.6c-0.3,0.4-0.5,0.8-0.4,1.3V85h-1.1v-6.1H21.2z"
	/>
<path class="st5" d="M29.2,85.1c-1,0.1-1.8-0.6-2-1.5c0-0.1,0-0.3,0-0.4V80h-1.1v-1h1.1v-1.9h1.1V79h1.5v1h-1.5v3.1
	c0,0.7,0.3,1,0.8,1c0.2,0,0.4,0,0.5-0.1l0.4,1C29.8,85,29.5,85.1,29.2,85.1z"/>
<path class="st5" d="M32.7,85.2c-0.6,0-1.2-0.2-1.6-0.6s-0.7-0.9-0.6-1.5c0-0.6,0.3-1.2,0.8-1.6c0.6-0.4,1.2-0.6,1.9-0.6
	c0.6,0,1.1,0.1,1.6,0.4v-0.2c0-0.4-0.2-0.8-0.5-1.1c-0.3-0.3-0.7-0.4-1.1-0.4c-0.3,0-0.6,0.1-0.9,0.2c-0.3,0.1-0.5,0.4-0.6,0.6
	l-1-0.4c0.2-0.4,0.5-0.7,0.8-1c0.5-0.3,1.1-0.5,1.6-0.5c0.7,0,1.4,0.2,1.9,0.7s0.8,1.2,0.8,1.9V85h-1v-0.8l0,0
	C34.3,84.8,33.5,85.2,32.7,85.2z M32.9,84.2c0.5,0,0.9-0.2,1.3-0.5c0.4-0.3,0.6-0.8,0.6-1.2c-0.4-0.3-0.9-0.4-1.4-0.4
	c-0.4,0-0.9,0.1-1.2,0.4c-0.3,0.2-0.4,0.5-0.4,0.8s0.1,0.6,0.4,0.7C32.3,84.1,32.6,84.2,32.9,84.2L32.9,84.2z"/>
<path class="st5" d="M38.4,77.4c-0.3,0.3-0.8,0.3-1.1,0s-0.3-0.8,0-1.1c0.3-0.3,0.8-0.3,1.1,0c0.2,0.2,0.2,0.4,0.2,0.6
	C38.6,77.1,38.5,77.3,38.4,77.4z M38.4,85h-1.1v-6.1h1.1V85z"/>
<path class="st5" d="M41,78.9v0.8l0,0c0.2-0.3,0.5-0.6,0.8-0.7c0.3-0.2,0.7-0.3,1.1-0.3c0.6,0,1.3,0.2,1.7,0.7s0.6,1.2,0.6,1.9V85
	h-1.1v-3.5c0-1.1-0.5-1.7-1.5-1.7c-0.5,0-0.9,0.2-1.2,0.6s-0.5,0.8-0.4,1.3V85h-1.1v-6.1H41z"/>
<path class="st5" d="M49.3,85.2c-0.8,0-1.7-0.3-2.2-0.9c-0.6-0.6-0.9-1.5-0.9-2.3s0.3-1.7,0.8-2.3c0.5-0.6,1.3-1,2.1-1
	s1.6,0.3,2.2,0.9c0.6,0.7,0.9,1.5,0.8,2.4v0.2h-4.8c0,0.5,0.2,1.1,0.6,1.4c0.4,0.3,0.8,0.5,1.3,0.5c0.7,0.1,1.4-0.4,1.7-1l1,0.4
	c-0.2,0.5-0.5,0.9-1,1.2C50.5,85,49.9,85.2,49.3,85.2z M51,81.2c0-0.4-0.2-0.7-0.5-1s-0.8-0.5-1.3-0.5c-0.4,0-0.8,0.1-1.1,0.4
	s-0.5,0.7-0.6,1.1H51z"/>
<path class="st5" d="M54.4,85h-1.1v-6.1h1.1v1l0,0c0.1-0.3,0.4-0.6,0.7-0.8c0.3-0.2,0.7-0.3,1-0.3s0.6,0,0.9,0.1L56.5,80
	c-0.2-0.1-0.4-0.1-0.6-0.1c-0.4,0-0.8,0.2-1.1,0.5s-0.5,0.8-0.5,1.3V85H54.4z"/>
<path class="st5" d="M65.8,77.2h-4V80h3.6v1.1h-3.6v2.8h4V85h-5.2v-8.9h5.2V77.2z"/>
<path class="st5" d="M68.1,78.9v0.8l0,0c0.2-0.3,0.5-0.6,0.8-0.7c0.3-0.2,0.7-0.3,1.1-0.3c0.6,0,1.3,0.2,1.7,0.7
	c0.4,0.5,0.6,1.2,0.6,1.9V85h-1.1v-3.5c0-1.1-0.5-1.7-1.5-1.7c-0.5,0-0.9,0.2-1.2,0.6c-0.3,0.4-0.5,0.8-0.4,1.3V85H67v-6.1H68.1z"/>
<path class="st5" d="M76.3,87.9c-0.6,0-1.2-0.2-1.8-0.5c-0.4-0.3-0.7-0.7-1-1.2l1-0.4c0.1,0.3,0.3,0.6,0.6,0.8
	c0.3,0.2,0.7,0.3,1.1,0.3c0.6,0,1.1-0.2,1.5-0.6s0.6-1,0.5-1.5v-0.6l0,0c-0.2,0.3-0.5,0.6-0.8,0.7c-0.4,0.2-0.8,0.3-1.2,0.3
	c-0.8,0-1.5-0.3-2-0.9c-1.1-1.3-1.1-3.3,0-4.6c0.5-0.6,1.2-0.9,2-0.9c0.4,0,0.8,0.1,1.2,0.3c0.3,0.2,0.6,0.4,0.8,0.7l0,0V79h1.1v5.7
	c0.1,0.9-0.3,1.8-0.9,2.4C77.9,87.6,77.1,87.9,76.3,87.9z M76.4,84.2c0.5,0,1-0.2,1.4-0.6c0.7-0.9,0.7-2.3,0-3.2
	c-0.7-0.8-1.9-0.8-2.6-0.1l-0.1,0.1c-0.8,0.9-0.8,2.3,0,3.2C75.4,83.9,75.9,84.2,76.4,84.2z"/>
<path class="st5" d="M82,77.4c-0.3,0.3-0.8,0.3-1.1,0c-0.3-0.3-0.3-0.8,0-1.1c0.3-0.3,0.8-0.3,1.1,0c0.2,0.2,0.2,0.4,0.2,0.6
	C82.3,77.1,82.2,77.3,82,77.4z M82,85h-1.1v-6.1H82V85z"/>
<path class="st5" d="M84.6,78.9v0.8l0,0c0.2-0.3,0.5-0.6,0.8-0.7c0.3-0.2,0.7-0.3,1.1-0.3c0.6,0,1.3,0.2,1.7,0.7
	c0.4,0.5,0.6,1.2,0.6,1.9V85h-1.1v-3.5c0-1.1-0.5-1.7-1.5-1.7c-0.5,0-0.9,0.2-1.2,0.6c-0.3,0.4-0.5,0.8-0.4,1.3V85h-1.1v-6.1H84.6z"
	/>
<path class="st5" d="M93,85.2c-0.8,0-1.7-0.3-2.2-0.9c-0.6-0.6-0.9-1.5-0.9-2.3s0.3-1.7,0.8-2.3c0.5-0.6,1.3-1,2.1-1
	c0.8,0,1.6,0.3,2.2,0.9c0.6,0.7,0.9,1.5,0.8,2.4v0.2H91c0,0.5,0.2,1.1,0.6,1.4s0.8,0.5,1.3,0.5c0.7,0,1.4-0.4,1.6-1l1,0.4
	c-0.2,0.5-0.5,0.9-1,1.2C94.2,85.1,93.6,85.2,93,85.2z M94.6,81.2c0-0.4-0.2-0.7-0.5-1s-0.8-0.5-1.3-0.5c-0.4,0-0.8,0.1-1.1,0.4
	c-0.3,0.3-0.5,0.7-0.6,1.1H94.6z"/>
<use xlink:href="#logo_color"  width="416" height="136" x="-208" y="-68" transform="matrix(0.0957 0 0 0.0957 24.0717 69.3001)" style="overflow:visible;"/>
<g>
	<path class="st6" d="M38.3,29.1l10.4-6l9.6,5.6L70.8,41l2.4-4.3c0.6-1.2,0.6-2.6,0-3.8L62.7,14.5c-0.7-1.1-1.9-1.8-3.3-1.9H38.1
		c-1.3,0.1-2.5,0.8-3.3,1.9L24.2,32.9c-0.6,1.2-0.6,2.6,0,3.8l10.6,18.4c0.7,1.1,1.9,1.8,3.3,1.9h16.5L38.3,40.8V29.1z"/>
	<path class="st7" d="M62.7,55.1L70.8,41L58.4,28.6L48.8,23l-10.4,6v11.7L54.6,57h4.8C60.7,56.9,61.9,56.2,62.7,55.1z"/>
	<path class="st8" d="M58.2,28.5l-8.4-4.9c-0.6-0.4-1.4-0.4-2,0l-8.4,4.9c-0.6,0.4-1,1-1,1.7V40c0,0.7,0.4,1.4,1,1.7l8.4,4.9
		c0.6,0.4,1.4,0.4,2,0l8.4-4.9c0.6-0.4,1-1,1-1.7v-9.7C59.2,29.5,58.8,28.9,58.2,28.5z M48.7,44.8l-8.1-4.7l3.1-1.9l4.6,2.4v-5.2
		l-4.9-2.6v4.6l-3,1.9v-9.1l8-4.6v3.9L43.8,32l5,2.8l5-2.8l-4.6-2.5v-3.9l8,4.6v9l-3.1-1.9v-4.5l-5,2.6v5.2l4.6-2.4l3.1,1.9
		L48.7,44.8z"/>
</g>
</svg>
