<svg id="Layer_1" xmlns="http://www.w3.org/2000/svg" xmlns:xlink="http://www.w3.org/1999/xlink" viewBox="0 0 100 100"><style>.st0{fill:#4285f4}.st1{fill:#ea4335}</style><symbol id="logo_color" viewBox="-208 -68 416 136"><path class="st0" d="M-207.3-15.4c0-29 24.3-52.5 53.3-52.5 13.5-.2 26.4 5 36 14.5l-10.2 10.1c-6.9-6.7-16.2-10.4-25.8-10.3-21.1 0-37.6 17-37.6 38.1s16.5 38.1 37.6 38.1c13.7 0 21.5-5.5 26.5-10.5 4.1-4.1 6.8-10 7.8-18H-154v-14.3h48.3c.6 3 .8 6 .8 9 0 10.8-2.9 24.1-12.4 33.5-9.3 9.6-21.1 14.7-36.7 14.7-29 0-53.3-23.5-53.3-52.4z"/><path class="st1" d="M-66-30.5c-18.7 0-33.9 14.2-33.9 33.8S-84.7 37.1-66 37.1s33.9-14.3 33.9-33.8S-47.3-30.5-66-30.5zm0 54.2c-10.2 0-19.1-8.4-19.1-20.5s8.8-20.5 19.1-20.5S-46.9-9-46.9 3.2-55.8 23.7-66 23.7z"/><path d="M8-30.5c-18.7 0-33.9 14.2-33.9 33.8S-10.7 37.1 8 37.1 41.9 22.8 41.9 3.3 26.7-30.5 8-30.5zm0 54.2c-10.2 0-19.1-8.4-19.1-20.5S-2.3-17.3 8-17.3 27.1-9 27.1 3.2 18.2 23.7 8 23.7z" fill="#fbbc05"/><path class="st0" d="M98.8-28.5v5.5h-.5c-3.3-4-9.7-7.6-17.8-7.6-16.9 0-32.4 14.8-32.4 33.9C48.1 22.2 63.6 37 80.5 37c8.1 0 14.5-3.6 17.8-7.7h.5v4.9c0 12.9-6.9 19.8-18 19.8-9.1 0-14.7-6.5-17-12l-12.9 5.4c5 12.2 16.9 20.1 30 20 17.4 0 32.1-10.2 32.1-35.2v-60.7H98.8zm-17 52.2C71.6 23.7 63 15.1 63 3.3s8.6-20.6 18.8-20.6 18 8.7 18 20.6-7.9 20.4-18 20.4z"/><path d="M123.2 35H138v-99.3h-14.8V35z" fill="#34a853"/><path class="st1" d="M178.7 23.7c-7.6 0-12.9-3.5-16.4-10.2l45.2-18.7L206-9c-2.8-7.6-11.4-21.5-28.9-21.5s-31.9 13.7-31.9 33.8c0 18.9 14.3 33.8 33.5 33.8 11.3 0 21.9-5.6 28.2-15l-11.5-7.7c-3.9 5.6-9.1 9.3-16.7 9.3zm-1.1-41.2c5.9 0 10.9 2.9 12.5 7.2L159.9 2.2c-.4-13 10.1-19.7 17.7-19.7z"/><path d="M-208 68h416V-68h-416V68z" fill="none"/></symbol><path d="M8.9 85.2c-2.5 0-4.6-1.9-4.6-4.4v-.2C4.2 78.1 6.2 76 8.7 76h.2c1.2 0 2.4.5 3.3 1.4l-.8.8c-.6-.8-1.5-1.2-2.5-1.2-.9 0-1.8.3-2.4 1-.7.7-1 1.6-1 2.6s.3 1.9 1 2.6c.7.6 1.5 1 2.4 1 1.1 0 2.1-.5 2.7-1.3l.8.8c-.4.5-.9.9-1.5 1.2-.6.1-1.3.3-2 .3zm5-5.5c1.2-1.2 3.2-1.2 4.5 0 1.2 1.3 1.2 3.3 0 4.6-1.2 1.2-3.2 1.2-4.5 0-1.2-1.3-1.2-3.3 0-4.6zm.8 3.9c.7.8 1.9.8 2.7.1l.1-.1c.8-.9.8-2.3 0-3.2-.7-.8-1.9-.8-2.7-.1l-.1.1c-.8.9-.8 2.2 0 3.2zm6.5-4.7v.8c.2-.3.5-.6.8-.7.3-.2.7-.3 1.1-.3.6 0 1.3.2 1.7.7.4.5.6 1.2.6 1.9V85h-1.1v-3.5c0-1.1-.5-1.7-1.5-1.7-.5 0-.9.2-1.2.6-.3.4-.5.8-.4 1.3V85h-1.1v-6.1h1.1zm8 6.2c-1 .1-1.8-.6-2-1.5V80h-1.1v-1h1.1v-1.9h1.1V79h1.5v1h-1.5v3.1c0 .7.3 1 .8 1 .2 0 .4 0 .5-.1l.4 1c-.2 0-.5.1-.8.1zm3.5.1c-.6 0-1.2-.2-1.6-.6s-.7-.9-.6-1.5c0-.6.3-1.2.8-1.6.6-.4 1.2-.6 1.9-.6.6 0 1.1.1 1.6.4v-.2c0-.4-.2-.8-.5-1.1-.3-.3-.7-.4-1.1-.4-.3 0-.6.1-.9.2-.3.1-.5.4-.6.6l-1-.4c.2-.4.5-.7.8-1 .5-.3 1.1-.5 1.6-.5.7 0 1.4.2 1.9.7s.8 1.2.8 1.9V85h-1v-.8c-.5.6-1.3 1-2.1 1zm.2-1c.5 0 .9-.2 1.3-.5s.6-.8.6-1.2c-.4-.3-.9-.4-1.4-.4-.4 0-.9.1-1.2.4-.3.2-.4.5-.4.8s.1.6.4.7c.1.1.4.2.7.2zm5.5-6.8c-.3.3-.8.3-1.1 0s-.3-.8 0-1.1c.3-.3.8-.3 1.1 0 .2.2.2.4.2.6 0 .2-.1.4-.2.5zm0 7.6h-1.1v-6.1h1.1V85zm2.6-6.1v.8c.2-.3.5-.6.8-.7.3-.2.7-.3 1.1-.3.6 0 1.3.2 1.7.7s.6 1.2.6 1.9V85h-1.1v-3.5c0-1.1-.5-1.7-1.5-1.7-.5 0-.9.2-1.2.6s-.5.8-.4 1.3V85h-1.1v-6.1H41zm8.3 6.3c-.8 0-1.7-.3-2.2-.9-.6-.6-.9-1.5-.9-2.3s.3-1.7.8-2.3c.5-.6 1.3-1 2.1-1s1.6.3 2.2.9c.6.7.9 1.5.8 2.4v.2h-4.8c0 .5.2 1.1.6 1.4.4.3.8.5 1.3.5.7.1 1.4-.4 1.7-1l1 .4c-.2.5-.5.9-1 1.2-.4.3-1 .5-1.6.5zm1.7-4c0-.4-.2-.7-.5-1s-.8-.5-1.3-.5c-.4 0-.8.1-1.1.4s-.5.7-.6 1.1H51zm3.4 3.8h-1.1v-6.1h1.1v1c.1-.3.4-.6.7-.8.3-.2.7-.3 1-.3s.6 0 .9.1l-.5 1.1c-.2-.1-.4-.1-.6-.1-.4 0-.8.2-1.1.5s-.5.8-.5 1.3V85h.1zm11.4-7.8h-4V80h3.6v1.1h-3.6v2.8h4V85h-5.2v-8.9h5.2v1.1zm2.3 1.7v.8c.2-.3.5-.6.8-.7.3-.2.7-.3 1.1-.3.6 0 1.3.2 1.7.7.4.5.6 1.2.6 1.9V85h-1.1v-3.5c0-1.1-.5-1.7-1.5-1.7-.5 0-.9.2-1.2.6-.3.4-.5.8-.4 1.3V85H67v-6.1h1.1zm8.2 9c-.6 0-1.2-.2-1.8-.5-.4-.3-.7-.7-1-1.2l1-.4c.1.3.3.6.6.8.3.2.7.3 1.1.3.6 0 1.1-.2 1.5-.6s.6-1 .5-1.5v-.6c-.2.3-.5.6-.8.7-.4.2-.8.3-1.2.3-.8 0-1.5-.3-2-.9-1.1-1.3-1.1-3.3 0-4.6.5-.6 1.2-.9 2-.9.4 0 .8.1 1.2.3.3.2.6.4.8.7V79h1.1v5.7c.1.9-.3 1.8-.9 2.4-.5.5-1.3.8-2.1.8zm.1-3.7c.5 0 1-.2 1.4-.6.7-.9.7-2.3 0-3.2-.7-.8-1.9-.8-2.6-.1l-.1.1c-.8.9-.8 2.3 0 3.2.3.3.8.6 1.3.6zm5.6-6.8c-.3.3-.8.3-1.1 0-.3-.3-.3-.8 0-1.1.3-.3.8-.3 1.1 0 .2.2.2.4.2.6.1.2 0 .4-.2.5zm0 7.6h-1.1v-6.1H82V85zm2.6-6.1v.8c.2-.3.5-.6.8-.7.3-.2.7-.3 1.1-.3.6 0 1.3.2 1.7.7.4.5.6 1.2.6 1.9V85h-1.1v-3.5c0-1.1-.5-1.7-1.5-1.7-.5 0-.9.2-1.2.6-.3.4-.5.8-.4 1.3V85h-1.1v-6.1h1.1zm8.4 6.3c-.8 0-1.7-.3-2.2-.9-.6-.6-.9-1.5-.9-2.3s.3-1.7.8-2.3c.5-.6 1.3-1 2.1-1s1.6.3 2.2.9c.6.7.9 1.5.8 2.4v.2H91c0 .5.2 1.1.6 1.4s.8.5 1.3.5c.7 0 1.4-.4 1.6-1l1 .4c-.2.5-.5.9-1 1.2-.3.4-.9.5-1.5.5zm1.6-4c0-.4-.2-.7-.5-1s-.8-.5-1.3-.5c-.4 0-.8.1-1.1.4-.3.3-.5.7-.6 1.1h3.5z" fill="#757575"/><use xlink:href="#logo_color" width="416" height="136" x="-208" y="-68" transform="translate(24.072 69.3) scale(.0957)" overflow="visible"/><path d="M38.3 29.1l10.4-6 9.6 5.6L70.8 41l2.4-4.3c.6-1.2.6-2.6 0-3.8L62.7 14.5c-.7-1.1-1.9-1.8-3.3-1.9H38.1c-1.3.1-2.5.8-3.3 1.9L24.2 32.9c-.6 1.2-.6 2.6 0 3.8l10.6 18.4c.7 1.1 1.9 1.8 3.3 1.9h16.5L38.3 40.8V29.1z" fill="#4489f2"/><path d="M62.7 55.1L70.8 41 58.4 28.6 48.8 23l-10.4 6v11.7L54.6 57h4.8c1.3-.1 2.5-.8 3.3-1.9z" fill="#407fdd"/><path d="M58.2 28.5l-8.4-4.9c-.6-.4-1.4-.4-2 0l-8.4 4.9c-.6.4-1 1-1 1.7V40c0 .7.4 1.4 1 1.7l8.4 4.9c.6.4 1.4.4 2 0l8.4-4.9c.6-.4 1-1 1-1.7v-9.7c0-.8-.4-1.4-1-1.8zm-9.5 16.3l-8.1-4.7 3.1-1.9 4.6 2.4v-5.2l-4.9-2.6v4.6l-3 1.9v-9.1l8-4.6v3.9L43.8 32l5 2.8 5-2.8-4.6-2.5v-3.9l8 4.6v9l-3.1-1.9v-4.5l-5 2.6v5.2l4.6-2.4 3.1 1.9-8.1 4.7z" fill="#fff"/></svg>