<svg id="Layer_1" xmlns="http://www.w3.org/2000/svg" viewBox="0 0 637.1 93.8"><style>.st4{fill:#fff}</style><path class="st4" d="M199.9 20.6l-2.2-13c-.7-4.2-2.3-7.6-3.6-7.6-1.3 0-2.4 3.5-2.4 7.7v3.4c0 4.2-3.5 7.7-7.7 7.7h-4.1v9.4h13.5c4.3 0 7.2-3.4 6.5-7.6m-30.7-11h-42.6c-.3 0-.5 0-.7.1v-2c0-4.2-1.1-7.7-2.4-7.7-1.3 0-2.9 3.4-3.6 7.6l-2.2 13c-.7 4.2 2.2 7.6 6.4 7.6H137c1.3 0 2.6-.2 3.6-.6-.4 2.2-2.3 3.8-4.6 3.8h-18c-2.9 0-5.1-2.6-4.6-5.5l1.8-10.9c.5-2.9-1.7-5.5-4.6-5.5H21.3c-1.9 0-3.5 1.1-4.3 2.8L.2 38c-.3.4-.3 1 .1 1.4l3.3 3.9c.4.5 1.1.6 1.6.2l11.4-9v54.8c0 2.6 2.1 4.7 4.7 4.7h25.4c2.6 0 4.7-2.1 4.7-4.7v-19c0-2.6 2.1-4.7 4.7-4.7h63.3c2.6 0 4.7 2.1 4.7 4.7v19c0 2.6 2.1 4.7 4.7 4.7h25.4c2.6 0 4.7-2.1 4.7-4.7V68.6h-13.5c-4.2 0-7.7-3.5-7.7-7.7V47.8c0-2.5 1.2-4.7 3.1-6.1v15.7c0 4.2 3.5 7.7 7.7 7.7h20.8c4.2 0 7.7-3.5 7.7-7.7v-40c-.1-4.3-3.6-7.8-7.8-7.8m47.7 2.6h28.6c13.6 0 22.7 6.6 22.7 19.3 0 10.4-7.1 16.6-14 18.8 2.1 1.7 3.6 4.1 4.8 6.6 2.9 5.9 4.8 12.3 10.9 12.3 1.5 0 2.8-.5 2.8-.5L271.4 81s-3.7.9-6.9.9c-8.2 0-12.9-3.2-17.8-14.2-2.1-4.9-4.9-13.6-8.7-13.6h-3.9v27.4h-17.2V12.2zm17.2 12.5v17h6.2c4.9 0 10.7-1.5 10.7-8.9 0-6.1-3.9-8.1-8.6-8.1h-8.3z"/><path class="st4" d="M291.4 12.2h17.4l23.4 69.3h-17.4l-4.3-13.1h-23.2l-4.2 13.1h-15l23.3-69.3zm0 43.5h14.9l-4.7-14.6c-1.6-4.9-2.4-11.9-2.4-11.9h-.4s-1 7.1-2.6 11.8l-4.8 14.7zm41.5-43.5h18.4l18.2 34.4c1.5 3 3.6 8.2 5.2 12.3h.4c-.2-3.9-.7-9.4-.7-13.5V12.2h14.1v69.3h-18l-18.9-34.3c-1.7-3.1-3.6-7.6-5-11.3h-.4c.3 3.9.8 8.5.8 12.3v33.3h-14.1V12.2zm59.2 34.3c0-25.1 12.4-35.4 31.6-35.4 20.2 0 28.3 11.1 26.1 26.1l-16 1.4c1.7-11-2.6-15.4-10.4-15.4-7.5 0-13.6 5.5-13.6 23.4 0 18.9 6.6 23.7 14.1 23.7 7.1 0 12.8-4.4 11.6-13.5l15 1.5c1.1 14.1-9 24.4-27.5 24.4-18.7.1-30.9-11-30.9-36.2m62-34.3h17.1v26.2h21.1V12.2h17.1v69.4h-17.1V52.2h-21.1v29.4h-17.1zm62.2 0h45.9V25h-28.8v14.9h24.2v12.7h-24.2v16.2h29.8v12.8h-46.9zm50.2 0h28.6c13.6 0 22.7 6.6 22.7 19.3 0 10.4-7.1 16.6-14 18.8 2.1 1.7 3.6 4.1 4.8 6.6 2.9 5.9 4.8 12.3 10.9 12.3 1.5 0 2.8-.5 2.8-.5L620.9 81s-3.7.9-6.9.9c-8.2 0-12.9-3.2-17.8-14.2-2.1-4.9-4.9-13.6-8.7-13.6h-3.9v27.4h-17.2V12.2zm17.2 12.5v17h6.2c4.9 0 10.7-1.5 10.7-8.9 0-6.1-3.9-8.1-8.6-8.1h-8.3zm40.4-8.1c0-3.9 2.9-5.6 5.6-5.6 2.7 0 5.6 1.7 5.6 5.6 0 3.8-2.9 5.5-5.6 5.5-2.7.1-5.6-1.6-5.6-5.5zm9.8 0c0-3.1-2-4.4-4.2-4.4s-4.3 1.3-4.3 4.4c0 3 2.1 4.4 4.3 4.4 2.2 0 4.2-1.3 4.2-4.4zm-6.1-2.8h2c1 0 2 .3 2 1.7 0 .8-.6 1.3-1.3 1.5l1.3 2.3h-1.2l-1.2-2.2h-.5v2.2h-1.1v-5.5zm2.1 2.5c.5 0 .9-.3.9-.8 0-.6-.5-.7-.9-.7h-1v1.5h1z"/></svg>