<svg id="Layer_1" xmlns="http://www.w3.org/2000/svg" viewBox="0 0 101 101"><style>.st0{fill:#326ce5}</style><path class="st0" d="M31.325 70.193h2.918c1.53 0 2.419.77 2.419 2.219 0 1.029-.53 1.779-1.46 2.079l1.42 2.688h-1.3l-1.349-2.558h-1.379v2.558h-1.27v-6.986zm2.688 3.378c.79 0 1.38-.36 1.38-1.16 0-.899-.61-1.168-1.38-1.168h-1.419v2.328h1.42zm3.052 2.079c0-1.06.72-1.7 1.979-1.7.62 0 1.16.141 1.569.37v-.129c0-.68-.4-.97-1.33-.97-.59 0-1.189.12-1.629.32v-.99c.4-.18 1.15-.319 1.78-.319 1.729 0 2.448.81 2.448 2.019v2.928h-1.19v-.47c-.379.37-.859.62-1.668.62-1.13 0-1.96-.639-1.96-1.679zm3.548.14v-.53c-.37-.26-.78-.39-1.26-.39-.649 0-1.009.25-1.009.78 0 .51.36.76.99.76.55 0 1.039-.23 1.279-.62zm2.422-3.409h1.219v.65c.47-.57 1.15-.799 1.8-.799 1.348 0 1.928.82 1.928 1.919v3.028h-1.26v-2.908c0-.64-.27-1.05-.979-1.05-.54 0-1.09.25-1.45.82v3.138h-1.258v-4.798zm5.9 2.409c0-1.619 1.139-2.558 2.828-2.558.74 0 1.329.14 1.789.44v1.01c-.45-.321-1.05-.46-1.66-.46-.968 0-1.678.46-1.678 1.569s.72 1.548 1.659 1.548c.669 0 1.25-.159 1.74-.48v1c-.47.31-1.05.47-1.87.47-1.67 0-2.808-.91-2.808-2.538zm5.678-4.996h1.26v3.198c.48-.54 1.11-.76 1.759-.76 1.348 0 1.929.82 1.929 1.919v3.028H58.3v-2.908c0-.64-.27-1.05-.979-1.05-.54 0-1.09.25-1.449.82v3.138h-1.26v-7.385zm5.9 4.996c0-1.538.92-2.558 2.659-2.558 1.728 0 2.628 1.07 2.628 2.459v.58h-4.087c.09.759.799 1.068 1.858 1.068.62 0 1.31-.12 1.78-.3v.97c-.44.18-1.22.32-1.94.32-1.768 0-2.898-.92-2.898-2.538zm4.097-.38c-.029-.769-.569-1.189-1.459-1.189-.879 0-1.409.46-1.438 1.19h2.897zm2.193-2.029h1.22v.77c.399-.53 1.159-.77 2.048-.77v.96c-.91 0-1.72.26-2.008.93v2.908h-1.26v-4.798zM4.516 79.193h1.27v3.168l2.867-3.168h1.52l-3.1 3.417 3.299 3.568h-1.52L5.784 82.86v3.318h-1.27v-6.986zm6.26 5.217v-3.029h1.26v2.91c0 .64.269 1.048.979 1.048.54 0 1.089-.25 1.449-.819v-3.139h1.26v4.798h-1.22v-.65c-.47.57-1.15.8-1.8.8-1.349 0-1.928-.82-1.928-1.918zm7.369 1.21v.56h-1.22v-7.386h1.26v3.058c.46-.42 1.15-.62 1.859-.62 1.48 0 2.529 1.04 2.529 2.559 0 1.539-1.06 2.539-2.53 2.539-.809 0-1.348-.2-1.898-.71zm3.148-1.83c0-.93-.66-1.569-1.559-1.569-.72 0-1.339.43-1.549 1.08v.97c.23.648.83 1.068 1.55 1.068.899 0 1.558-.619 1.558-1.548zm2.083 0c0-1.538.92-2.558 2.658-2.558 1.73 0 2.63 1.07 2.63 2.459v.58h-4.089c.09.759.8 1.068 1.86 1.068.619 0 1.309-.12 1.778-.3v.97c-.44.18-1.22.32-1.939.32-1.769 0-2.898-.92-2.898-2.538zm4.098-.38c-.03-.769-.57-1.189-1.46-1.189-.88 0-1.409.46-1.439 1.19h2.899zm2.192-2.029h1.219v.77c.4-.53 1.16-.77 2.049-.77v.96c-.91 0-1.72.26-2.01.93v2.908h-1.258v-4.798zm4.069 0h1.22v.65c.47-.57 1.149-.799 1.799-.799 1.349 0 1.929.82 1.929 1.919v3.028h-1.26v-2.908c0-.64-.27-1.05-.98-1.05-.539 0-1.089.25-1.448.82v3.138h-1.26v-4.798zm5.9 2.409c0-1.538.92-2.558 2.658-2.558 1.73 0 2.63 1.07 2.63 2.459v.58h-4.089c.09.759.8 1.068 1.86 1.068.619 0 1.309-.12 1.779-.3v.97c-.44.18-1.22.32-1.94.32-1.768 0-2.898-.92-2.898-2.538zm4.098-.38c-.03-.769-.57-1.189-1.46-1.189-.879 0-1.409.46-1.439 1.19h2.899zm2.512 1.24v-2.309h-.72v-.96h.72v-1.438h1.259v1.438h1.15v.96h-1.15v2.149c0 .59.18.85.79.85.21 0 .42-.05.61-.14v.96c-.28.11-.58.17-1.05.17-1.06 0-1.61-.62-1.61-1.68zm3.36-.86c0-1.538.92-2.558 2.659-2.558 1.728 0 2.628 1.07 2.628 2.459v.58h-4.087c.09.759.799 1.068 1.858 1.068.62 0 1.31-.12 1.78-.3v.97c-.441.18-1.22.32-1.94.32-1.769 0-2.898-.92-2.898-2.538zm4.097-.38c-.03-.769-.57-1.189-1.459-1.189-.879 0-1.409.46-1.438 1.19h2.897zm2.032 2.47v-1.07c.52.31 1.3.53 1.95.53.6 0 .92-.08.92-.4 0-.36-.32-.48-1.27-.74-1.11-.32-1.64-.63-1.64-1.519 0-.999.87-1.449 2.11-1.449.64 0 1.379.13 1.768.36v1.03c-.39-.24-1.009-.4-1.608-.4-.57 0-.99.07-.99.46 0 .37.43.46 1.29.689 1.239.33 1.619.739 1.619 1.548 0 .83-.7 1.41-2.12 1.41-.649 0-1.559-.16-2.029-.45zm8.75-6.687h4.728v1.05h-3.458v1.919h2.568v1.049h-2.568v1.918h3.458v1.05h-4.728v-6.986zm5.63 2.188h1.22v.65c.47-.57 1.15-.799 1.799-.799 1.348 0 1.929.82 1.929 1.919v3.028h-1.26v-2.908c0-.64-.27-1.05-.979-1.05-.54 0-1.09.25-1.449.82v3.138h-1.26v-4.798zm6.879 6.767v-.999c.53.23 1.12.34 1.76.34 1.219 0 1.648-.53 1.648-1.47v-.31c-.46.42-1.109.62-1.818.62-1.48 0-2.57-1.04-2.57-2.558 0-1.54 1.06-2.539 2.53-2.539.81 0 1.349.2 1.898.71v-.56h1.22v4.507c0 1.6-.88 2.59-2.908 2.59-.63 0-1.32-.121-1.76-.331zm3.408-3.888v-.97c-.23-.649-.829-1.069-1.548-1.069-.9 0-1.56.62-1.56 1.55 0 .929.66 1.568 1.56 1.568.72 0 1.338-.43 1.548-1.079zm2.463-4.418a.7.7 0 0 1 .71-.709c.4 0 .72.31.72.71 0 .4-.32.7-.72.7-.4 0-.71-.3-.71-.7zm.07 1.54h1.28v4.797h-1.28v-4.798zm2.56-.001h1.22v.65c.47-.57 1.15-.799 1.799-.799 1.348 0 1.928.82 1.928 1.919v3.028h-1.258v-2.908c0-.64-.27-1.05-.98-1.05-.54 0-1.09.25-1.45.82v3.138h-1.259v-4.798zm5.9 2.409c0-1.538.92-2.558 2.659-2.558 1.728 0 2.628 1.07 2.628 2.459v.58h-4.087c.09.759.799 1.068 1.858 1.068.62 0 1.31-.12 1.78-.3v.97c-.441.18-1.22.32-1.94.32-1.769 0-2.898-.92-2.898-2.538zm4.097-.38c-.03-.769-.57-1.189-1.459-1.189-.879 0-1.409.46-1.438 1.19h2.897zM45.532 50.439h-.871c-1.318 0-2.072-.518-2.848-2.26-.33-.777-.777-2.166-1.39-2.166h-.635v4.379h-2.73V39.304h4.566c2.166 0 3.626 1.06 3.626 3.084 0 1.648-1.13 2.66-2.237 3.013.33.283.565.66.777 1.06.47.941.777 1.977 1.742 1.977v2zm-5.72-9.134v2.73h.988c.777 0 1.719-.234 1.719-1.435 0-.965-.636-1.295-1.389-1.295h-1.318zm6.638-2.001h2.73v3.108c0 .353-.046.847-.07 1.224h.07c.19-.283.401-.706.683-1.036l2.708-3.296h2.966l-3.602 4.355 3.814 6.733h-3.155l-2.566-4.638-.824 1.013v3.648H46.45v-11.11zm10.193 0h7.345v2.048h-4.59v2.378h3.86v2.048h-3.86v2.59h4.755v2.047h-7.51v-11.11z"/><path class="st0" d="M77.947 36.668c-.165-3.437-1.812-13.512-3.884-13.089-1.177.236-1.177 2.354-1.177 6.827 0 3.696-3.343 4.496-4.496 4.661h-1.672a16.232 16.232 0 0 0-2.73-8.898l.447-.4a.957.957 0 0 1 .235-.707 11.396 11.396 0 0 1 1.86-1.294c.353-.189.706-.377 1.036-.612.07-.071.188-.142.282-.212.589-.377.777-1.13.4-1.719s-1.13-.777-1.718-.4a.922.922 0 0 0-.235.188c-.094.071-.189.165-.283.212-.282.283-.565.565-.824.871a11.076 11.076 0 0 1-1.624 1.53 1.363 1.363 0 0 1-.753.07l-.471.33a16.37 16.37 0 0 0-10.358-4.99c0-.165-.023-.47-.023-.565a.976.976 0 0 1-.4-.612 12.15 12.15 0 0 1 .14-2.26c.071-.4.142-.777.165-1.177v-.353c.047-.706-.517-1.342-1.224-1.389h-.023a1.314 1.314 0 0 0-1.224 1.389v.353c.023.4.094.8.164 1.177.118.753.165 1.507.118 2.26-.07.259-.212.47-.4.636l-.024.517a17.69 17.69 0 0 0-2.236.353 15.976 15.976 0 0 0-8.121 4.638l-.448-.33a.98.98 0 0 1-.73-.07 11.373 11.373 0 0 1-1.67-1.507 9.52 9.52 0 0 0-.825-.87 1.267 1.267 0 0 0-.282-.213 1.577 1.577 0 0 0-.871-.33 1.162 1.162 0 0 0-.989.448 1.319 1.319 0 0 0 .306 1.836c.07.07.188.141.26.212.329.212.682.424 1.035.612.659.377 1.295.8 1.86 1.295.14.212.235.47.259.706l.4.353a16.151 16.151 0 0 0-2.707 8.922h-1.648c-1.154-.165-4.497-.965-4.497-4.661 0-4.473 0-6.591-1.177-6.827-2.095-.423-3.742 9.652-3.907 13.089-.118 2.213 1.294 4.096 4.12 4.096h5.414v9.651c0 1.672.894 3.249 2.354 4.073l13.088 7.556a4.59 4.59 0 0 0 2.354.636 4.59 4.59 0 0 0 2.354-.636l13.089-7.556a4.715 4.715 0 0 0 2.354-4.073v-9.651h5.414c2.849 0 4.261-1.883 4.143-4.096zm-14.454-1.601h-4.825l-1.53-.447c-.589-.165-.919-.777-.777-1.366a.996.996 0 0 1 .33-.541l4.849-4.355v-.024a12.94 12.94 0 0 1 1.953 6.733zM59.61 25.91l-5.296 3.766a1.086 1.086 0 0 1-1.53-.165 1.14 1.14 0 0 1-.236-.682l-.377-6.497a12.95 12.95 0 0 1 7.44 3.578zm-10.004 7.156h2l1.225 1.554-.095.447h-4.284l-.094-.447 1.248-1.554zM47.72 22.543c.448-.094.871-.164 1.319-.211l-.354 6.52c-.023.612-.565 1.083-1.177 1.06a.904.904 0 0 1-.588-.212l-5.367-3.814a12.808 12.808 0 0 1 6.167-3.343zm-8.098 5.815l4.897 4.355c.447.4.494 1.13.094 1.577-.141.165-.33.306-.541.353l-1.436.4h-4.92c0-2.33.659-4.66 1.906-6.685zm25.26 24.082l-13.09 7.556a2.314 2.314 0 0 1-1.176.306c-.4 0-.824-.094-1.177-.306L36.35 52.44a2.362 2.362 0 0 1-1.177-2.048V37.398H66.06v12.994c0 .847-.447 1.624-1.177 2.048z"/></svg>