<?xml version="1.0" encoding="utf-8"?>
<!-- Generator: Adobe Illustrator 22.1.0, SVG Export Plug-In . SVG Version: 6.00 Build 0)  -->
<svg version="1.1" id="Layer_1" xmlns="http://www.w3.org/2000/svg" xmlns:xlink="http://www.w3.org/1999/xlink" x="0px" y="0px"
	 viewBox="0 0 101 101" style="enable-background:new 0 0 101 101;" xml:space="preserve">
<style type="text/css">
	.st0{fill:#326CE5;}
</style>
<g>
	<path class="st0" d="M31.324707,70.1929321h2.918457c1.5292969,0,2.418457,0.7695312,2.418457,2.21875
		c0,1.0292969-0.5292969,1.7792969-1.4589844,2.0791016l1.4194336,2.6884766h-1.2993164l-1.3496094-2.5585938h-1.3789062v2.5585938
		H31.324707V70.1929321z M34.0131836,73.5708618c0.7895508,0,1.3793945-0.359375,1.3793945-1.1591797
		c0-0.8994141-0.6098633-1.1689453-1.3793945-1.1689453h-1.4189453v2.328125H34.0131836z"/>
	<path class="st0" d="M37.0649414,75.6499634c0-1.0595703,0.7192383-1.6992188,1.9790039-1.6992188
		c0.6196289,0,1.1591797,0.140625,1.5688477,0.3701172V74.190979c0-0.6796875-0.3999023-0.9697266-1.3291016-0.9697266
		c-0.5898438,0-1.1894531,0.1201172-1.6293945,0.3203125v-0.9902344c0.3999023-0.1796875,1.1494141-0.3193359,1.7792969-0.3193359
		c1.7290039,0,2.4487305,0.8095703,2.4487305,2.0185547v2.9287109h-1.1894531v-0.4697266
		c-0.3798828,0.3701172-0.859375,0.6201172-1.6689453,0.6201172C37.8945312,77.3296509,37.0649414,76.6900024,37.0649414,75.6499634
		z M40.612793,75.7896118v-0.5292969c-0.3696289-0.2597656-0.7792969-0.3896484-1.2592773-0.3896484
		c-0.6494141,0-1.0092773,0.25-1.0092773,0.7792969c0,0.5097656,0.3598633,0.7597656,0.9892578,0.7597656
		C39.8833008,76.409729,40.3730469,76.1802368,40.612793,75.7896118z"/>
	<path class="st0" d="M43.034668,72.3814087h1.2192383v0.6503906c0.4697266-0.5703125,1.1494141-0.7998047,1.7993164-0.7998047
		c1.3491211,0,1.9287109,0.8193359,1.9287109,1.9189453v3.0283203h-1.2592773v-2.9082031
		c0-0.6396484-0.2700195-1.0498047-0.9794922-1.0498047c-0.5395508,0-1.0893555,0.25-1.4492188,0.8193359v3.1386719H43.034668
		V72.3814087z"/>
	<path class="st0" d="M48.9345703,74.7905884c0-1.6191406,1.1391602-2.5585938,2.828125-2.5585938
		c0.7402344,0,1.3291016,0.1396484,1.7890625,0.4394531v1.0097656c-0.4492188-0.3203125-1.0488281-0.4599609-1.6591797-0.4599609
		c-0.96875,0-1.6787109,0.4599609-1.6787109,1.5693359s0.7197266,1.5488281,1.6591797,1.5488281
		c0.6689453,0,1.2490234-0.1591797,1.7392578-0.4794922v1c-0.4697266,0.3095703-1.0498047,0.4697266-1.8691406,0.4697266
		C50.0737305,77.3296509,48.9345703,76.4194946,48.9345703,74.7905884z"/>
	<path class="st0" d="M54.6132812,69.7935181h1.2597656v3.1982422c0.4794922-0.5400391,1.109375-0.7597656,1.7587891-0.7597656
		c1.3486328,0,1.9287109,0.8193359,1.9287109,1.9189453v3.0283203h-1.2587891v-2.9082031
		c0-0.6396484-0.2705078-1.0498047-0.9794922-1.0498047c-0.5400391,0-1.0898438,0.25-1.4492188,0.8193359v3.1386719h-1.2597656
		V69.7935181z"/>
	<path class="st0" d="M60.5126953,74.7905884c0-1.5390625,0.9199219-2.5585938,2.6591797-2.5585938
		c1.7285156,0,2.6279297,1.0693359,2.6279297,2.4589844v0.5791016h-4.0869141
		c0.0898438,0.7597656,0.7988281,1.0693359,1.8583984,1.0693359c0.6201172,0,1.3095703-0.1201172,1.7792969-0.2998047v0.9697266
		c-0.4404297,0.1796875-1.2197266,0.3203125-1.9394531,0.3203125C61.6425781,77.3296509,60.5126953,76.409729,60.5126953,74.7905884
		z M64.6103516,74.4107056c-0.0292969-0.7695312-0.5693359-1.1894531-1.4589844-1.1894531
		c-0.8789062,0-1.4091797,0.4599609-1.4384766,1.1894531H64.6103516z"/>
	<path class="st0" d="M66.8027344,72.3814087h1.2197266v0.7705078c0.3994141-0.5302734,1.1591797-0.7705078,2.0488281-0.7705078
		v0.9599609c-0.9101562,0-1.7197266,0.2597656-2.0087891,0.9296875v2.9082031h-1.2597656V72.3814087z"/>
	<path class="st0" d="M4.515625,79.1929321h1.2695312v3.1679688l2.8681641-3.1679688h1.519043l-3.0981445,3.4179688
		l3.2983398,3.5683594h-1.519043l-3.0683594-3.3183594v3.3183594H4.515625V79.1929321z"/>
	<path class="st0" d="M10.7758789,84.4107056v-3.0292969h1.2592773v2.9091797c0,0.6396484,0.2695312,1.0488281,0.9794922,1.0488281
		c0.5395508,0,1.0893555-0.25,1.4492188-0.8193359v-3.1386719h1.2592773v4.7978516h-1.2192383v-0.6494141
		c-0.4697266,0.5693359-1.1494141,0.7998047-1.7993164,0.7998047
		C11.3554688,86.3296509,10.7758789,85.5093384,10.7758789,84.4107056z"/>
	<path class="st0" d="M18.1450195,85.6196899v0.5595703h-1.2192383v-7.3857422h1.2592773v3.0585938
		c0.4599609-0.4199219,1.1494141-0.6201172,1.8588867-0.6201172c1.4794922,0,2.5288086,1.0390625,2.5288086,2.5585938
		c0,1.5390625-1.0595703,2.5390625-2.5288086,2.5390625C19.234375,86.3296509,18.6948242,86.1294556,18.1450195,85.6196899z
		 M21.293457,83.7905884c0-0.9296875-0.659668-1.5693359-1.559082-1.5693359c-0.7197266,0-1.3393555,0.4296875-1.5493164,1.0800781
		v0.96875c0.2299805,0.6494141,0.8295898,1.0693359,1.5493164,1.0693359
		C20.6337891,85.3394165,21.293457,84.7202759,21.293457,83.7905884z"/>
	<path class="st0" d="M23.3759766,83.7905884c0-1.5390625,0.9194336-2.5585938,2.6582031-2.5585938
		c1.7294922,0,2.6289062,1.0693359,2.6289062,2.4589844v0.5791016h-4.0878906
		c0.0898438,0.7597656,0.7998047,1.0693359,1.8588867,1.0693359c0.6196289,0,1.3095703-0.1201172,1.7792969-0.2998047v0.9697266
		c-0.4399414,0.1796875-1.2197266,0.3203125-1.9389648,0.3203125C24.5053711,86.3296509,23.3759766,85.409729,23.3759766,83.7905884
		z M27.4736328,83.4107056c-0.0297852-0.7695312-0.5698242-1.1894531-1.4589844-1.1894531
		c-0.8798828,0-1.409668,0.4599609-1.4394531,1.1894531H27.4736328z"/>
	<path class="st0" d="M29.6655273,81.3814087h1.2192383v0.7705078c0.3999023-0.5302734,1.159668-0.7705078,2.0488281-0.7705078
		v0.9599609c-0.9091797,0-1.71875,0.2597656-2.0087891,0.9296875v2.9082031h-1.2592773V81.3814087z"/>
	<path class="st0" d="M33.7353516,81.3814087h1.2192383v0.6503906c0.4697266-0.5703125,1.1494141-0.7998047,1.7993164-0.7998047
		c1.3491211,0,1.9287109,0.8193359,1.9287109,1.9189453v3.0283203h-1.2592773v-2.9082031
		c0-0.6396484-0.2700195-1.0498047-0.9794922-1.0498047c-0.5395508,0-1.0893555,0.25-1.4492188,0.8193359v3.1386719h-1.2592773
		V81.3814087z"/>
	<path class="st0" d="M39.6352539,83.7905884c0-1.5390625,0.9194336-2.5585938,2.6582031-2.5585938
		c1.7294922,0,2.6289062,1.0693359,2.6289062,2.4589844v0.5791016h-4.0878906
		c0.0898438,0.7597656,0.7993164,1.0693359,1.8588867,1.0693359c0.6196289,0,1.3095703-0.1201172,1.7792969-0.2998047v0.9697266
		c-0.4399414,0.1796875-1.2197266,0.3203125-1.9389648,0.3203125C40.7646484,86.3296509,39.6352539,85.409729,39.6352539,83.7905884
		z M43.7329102,83.4107056c-0.0297852-0.7695312-0.5698242-1.1894531-1.4594727-1.1894531
		c-0.8793945,0-1.4091797,0.4599609-1.4389648,1.1894531H43.7329102z"/>
	<path class="st0" d="M46.2446289,84.6499634v-2.3085938h-0.7197266v-0.9599609h0.7197266v-1.4384766h1.2592773v1.4384766h1.1494141
		v0.9599609h-1.1494141v2.1484375c0,0.5898438,0.1801758,0.8496094,0.7895508,0.8496094
		c0.2099609,0,0.4199219-0.0498047,0.6098633-0.1396484v0.9599609c-0.2797852,0.109375-0.5795898,0.1699219-1.0493164,0.1699219
		C46.7944336,86.3296509,46.2446289,85.7095337,46.2446289,84.6499634z"/>
	<path class="st0" d="M49.6049805,83.7905884c0-1.5390625,0.9194336-2.5585938,2.6586914-2.5585938
		c1.7285156,0,2.6279297,1.0693359,2.6279297,2.4589844v0.5791016h-4.0869141
		c0.0898438,0.7597656,0.7988281,1.0693359,1.8583984,1.0693359c0.6201172,0,1.3095703-0.1201172,1.7792969-0.2998047v0.9697266
		c-0.4404297,0.1796875-1.2197266,0.3203125-1.9394531,0.3203125C50.734375,86.3296509,49.6049805,85.409729,49.6049805,83.7905884z
		 M53.7021484,83.4107056c-0.0292969-0.7695312-0.5693359-1.1894531-1.4589844-1.1894531
		c-0.8789062,0-1.4091797,0.4599609-1.4384766,1.1894531H53.7021484z"/>
	<path class="st0" d="M55.734375,85.8794556v-1.0693359c0.5195312,0.3095703,1.2998047,0.5292969,1.9492188,0.5292969
		c0.5996094,0,0.9199219-0.0800781,0.9199219-0.3994141c0-0.359375-0.3203125-0.4794922-1.2695312-0.7392578
		c-1.109375-0.3203125-1.6396484-0.6298828-1.6396484-1.5195312c0-0.9990234,0.8701172-1.4492188,2.109375-1.4492188
		c0.6396484,0,1.3789062,0.1298828,1.7685547,0.359375v1.0302734c-0.3896484-0.2402344-1.0087891-0.4003906-1.6083984-0.4003906
		c-0.5703125,0-0.9902344,0.0703125-0.9902344,0.4599609c0,0.3701172,0.4296875,0.4599609,1.2900391,0.6894531
		c1.2392578,0.3300781,1.6191406,0.7392578,1.6191406,1.5488281c0,0.8300781-0.7001953,1.4101562-2.1191406,1.4101562
		C57.1142578,86.3296509,56.2041016,86.1694946,55.734375,85.8794556z"/>
	<path class="st0" d="M64.484375,79.1929321h4.7275391v1.0498047h-3.4580078v1.9189453h2.5683594v1.0488281h-2.5683594v1.9189453
		h3.4580078v1.0498047H64.484375V79.1929321z"/>
	<path class="st0" d="M70.1142578,81.3814087h1.2197266v0.6503906c0.4697266-0.5703125,1.1494141-0.7998047,1.7988281-0.7998047
		c1.3486328,0,1.9287109,0.8193359,1.9287109,1.9189453v3.0283203h-1.2587891v-2.9082031
		c0-0.6396484-0.2705078-1.0498047-0.9794922-1.0498047c-0.5400391,0-1.0898438,0.25-1.4492188,0.8193359v3.1386719h-1.2597656
		V81.3814087z"/>
	<path class="st0" d="M76.9931641,88.1480103v-0.9990234c0.5302734,0.2294922,1.1201172,0.3398438,1.7597656,0.3398438
		c1.21875,0,1.6484375-0.5302734,1.6484375-1.4697266v-0.3095703c-0.4599609,0.4199219-1.109375,0.6201172-1.8183594,0.6201172
		c-1.4794922,0-2.5693359-1.0400391-2.5693359-2.5585938c0-1.5400391,1.0595703-2.5390625,2.5292969-2.5390625
		c0.8095703,0,1.3486328,0.2001953,1.8984375,0.7099609v-0.5605469h1.2197266v4.5078125
		c0,1.5996094-0.8798828,2.5888672-2.9082031,2.5888672C78.1230469,88.4780884,77.4335938,88.3579712,76.9931641,88.1480103z
		 M80.4013672,84.2603149v-0.9697266c-0.2294922-0.6494141-0.8291016-1.0693359-1.5488281-1.0693359
		c-0.8994141,0-1.5595703,0.6201172-1.5595703,1.5498047c0,0.9287109,0.6601562,1.5683594,1.5595703,1.5683594
		C79.5722656,85.3394165,80.1914062,84.909729,80.4013672,84.2603149z"/>
	<path class="st0" d="M82.8642578,79.8423462c0-0.3994141,0.3095703-0.7089844,0.7099609-0.7089844
		c0.3994141,0,0.7197266,0.3095703,0.7197266,0.7089844c0,0.4003906-0.3203125,0.7001953-0.7197266,0.7001953
		C83.1738281,80.5425415,82.8642578,80.2427368,82.8642578,79.8423462z M82.9345703,81.3814087h1.2792969v4.7978516h-1.2792969
		V81.3814087z"/>
	<path class="st0" d="M85.4941406,81.3814087h1.2197266v0.6503906c0.4697266-0.5703125,1.1494141-0.7998047,1.7988281-0.7998047
		c1.3486328,0,1.9287109,0.8193359,1.9287109,1.9189453v3.0283203h-1.2587891v-2.9082031
		c0-0.6396484-0.2705078-1.0498047-0.9794922-1.0498047c-0.5400391,0-1.0898438,0.25-1.4492188,0.8193359v3.1386719h-1.2597656
		V81.3814087z"/>
	<path class="st0" d="M91.3935547,83.7905884c0-1.5390625,0.9199219-2.5585938,2.6591797-2.5585938
		c1.7285156,0,2.6279297,1.0693359,2.6279297,2.4589844v0.5791016H92.59375
		c0.0898438,0.7597656,0.7988281,1.0693359,1.8583984,1.0693359c0.6201172,0,1.3095703-0.1201172,1.7792969-0.2998047v0.9697266
		c-0.4404297,0.1796875-1.2197266,0.3203125-1.9394531,0.3203125C92.5234375,86.3296509,91.3935547,85.409729,91.3935547,83.7905884
		z M95.4912109,83.4107056c-0.0292969-0.7695312-0.5693359-1.1894531-1.4589844-1.1894531
		c-0.8789062,0-1.4091797,0.4599609-1.4384766,1.1894531H95.4912109z"/>
</g>
<g>
	<path class="st0" d="M45.5320244,50.438942H44.661026c-1.3182678,0-2.0715637-0.5178909-2.8483963-2.2598877
		c-0.329567-0.7768364-0.7768402-2.1657257-1.3888893-2.1657257H39.788147v4.3785324h-2.7306976V39.3042908h4.5668526
		c2.1657257,0,3.6252365,1.0593224,3.6252365,3.0838051c0,1.6478348-1.1299438,2.6600761-2.2363472,3.0131836
		c0.329567,0.282486,0.5649719,0.6591339,0.7768364,1.0593224c0.4708099,0.9416199,0.7768402,1.9773979,1.7419968,1.9773979
		C45.5320244,48.4379997,45.5320244,50.438942,45.5320244,50.438942z M39.8116875,41.305233v2.7306976h0.9886971
		c0.7768402,0,1.7184601-0.235405,1.7184601-1.4359703c0-0.9651604-0.6355934-1.2947273-1.3888893-1.2947273H39.8116875z"/>
	<path class="st0" d="M46.4501038,39.3042908h2.7306976v3.1073456c0,0.3531075-0.047081,0.8474579-0.0706253,1.2241058h0.0706253
		c0.188324-0.282486,0.4001846-0.7062149,0.6826744-1.0357819l2.7071533-3.2956696h2.9661064l-3.601696,4.3549919
		l3.8135567,6.7325821h-3.1544266l-2.5659142-4.6374741l-0.8239136,1.0122414v3.6487732h-2.7542381V39.3042908z"/>
	<path class="st0" d="M56.6431351,39.3042908h7.3446312v2.0480232h-4.5903931v2.3775902h3.8606377v2.0480194h-3.8606377v2.5894547
		h4.7551765v2.0480232h-7.5094147V39.3042908z"/>
	<path class="st0" d="M77.9472809,36.6677589c-0.1647873-3.4369125-1.8126221-13.5122414-3.8841858-13.0885124
		c-1.1770248,0.235405-1.1770248,2.3540478-1.1770248,6.8267422c0,3.6958561-3.3427429,4.496233-4.4962311,4.6610165h-1.6713791
		c-0.0235367-3.1544247-0.9651566-6.2617683-2.7306976-8.898304l0.4472656-0.4001884
		c-0.0235367-0.2589455,0.0706253-0.5178909,0.235405-0.7062149c0.5649719-0.4943504,1.2005692-0.9180794,1.8597031-1.2947273
		c0.3531036-0.188324,0.7062149-0.376646,1.0357742-0.612051c0.0706253-0.0706215,0.1883316-0.141243,0.282486-0.2118664
		c0.5885162-0.376646,0.7768402-1.1299419,0.4001923-1.7184544s-1.1299438-0.7768364-1.7184601-0.4001884
		c-0.094162,0.047081-0.1647797,0.1177025-0.235405,0.188324c-0.094162,0.0706215-0.188324,0.1647835-0.282486,0.2118645
		c-0.282486,0.282486-0.5649643,0.5649719-0.8239136,0.8709984c-0.4943542,0.5649719-1.0357819,1.0828609-1.6242943,1.5301304
		c-0.235405,0.0941639-0.4943504,0.1177025-0.7532921,0.0706215l-0.4708099,0.3295689
		c-2.7542305-2.8719425-6.426548-4.6374798-10.357811-4.9905872c0-0.1647835-0.0235367-0.4708099-0.0235367-0.56497
		c-0.2118683-0.141243-0.3531075-0.3766479-0.4001884-0.6120529c-0.0235405-0.7532959,0.0235405-1.5065918,0.141243-2.2598877
		c0.0706215-0.4001884,0.141243-0.7768364,0.1647797-1.1770248c0-0.094162,0-0.235405,0-0.3531065
		c0.047081-0.7062149-0.5178871-1.3418083-1.224102-1.3888893h-0.0235405
		c-0.7062149,0.047081-1.2711868,0.6591339-1.2241058,1.3888893v0.0235395c0,0.094162,0,0.235405,0,0.329567
		c0.0235405,0.4001884,0.094162,0.8003769,0.1647835,1.1770248c0.1177025,0.7532959,0.1647835,1.5065918,0.1177025,2.2598877
		c-0.0706215,0.2589455-0.2118645,0.4708099-0.4001884,0.6355934l-0.0235405,0.5178909
		c-0.7532921,0.0706196-1.5065918,0.1883221-2.2363472,0.3531075c-3.1073418,0.706213-5.9322014,2.3069668-8.1214676,4.637476
		l-0.4472694-0.329567c-0.235405,0.0706215-0.5178909,0.047081-0.7297554-0.0706215
		c-0.6120529-0.4472694-1.1770248-0.9651604-1.6713715-1.5065918c-0.2589455-0.3060265-0.5178909-0.5885124-0.8239174-0.8709984
		c-0.0706215-0.0706215-0.188324-0.1647835-0.282486-0.2118645c-0.235405-0.188324-0.5414314-0.3060265-0.8709984-0.329567
		c-0.3766479-0.0235405-0.7532959,0.1412411-0.9887009,0.4472694c-0.4237289,0.5885124-0.282486,1.4124279,0.3060265,1.8361568
		c0.0706215,0.0706215,0.188324,0.141243,0.2589455,0.2118645c0.329567,0.2118664,0.6826744,0.4237289,1.0357819,0.6120529
		c0.6591301,0.3766479,1.2947235,0.8003769,1.8596954,1.2947273c0.141243,0.2118645,0.235405,0.4708099,0.2589455,0.7062149
		l0.4001884,0.3531075c-1.7655373,2.6600761-2.7071533,5.7674198-2.7071533,8.9218464h-1.6478348
		c-1.1534863-0.1647835-4.4962349-0.9651604-4.4962349-4.6610165c0-4.4726944,0-6.5913372-1.1770248-6.8267422
		c-2.0951042-0.4237289-3.742939,9.6515999-3.9077225,13.0885124c-0.1177025,2.2128067,1.2947273,4.0960426,4.119585,4.0960426
		h5.4143124v9.6516037c0,1.6713753,0.8945389,3.2485847,2.3540497,4.0725021l13.0885124,7.5564995
		c0.7062149,0.4237289,1.5301323,0.6355934,2.3540459,0.6355934c0.8239174,0,1.6478348-0.2118645,2.3540497-0.6355934
		l13.0885124-7.5564995c1.4595108-0.8474579,2.3540497-2.4011269,2.3540497-4.0725021v-9.6516037h5.4143143
		C76.6525497,40.7638016,78.0649796,38.8805656,77.9472809,36.6677589z M63.4934158,35.0670052H58.667614l-1.5301285-0.4472694l0,0
		c-0.5885124-0.1647835-0.9180794-0.7768402-0.7768402-1.3653488c0.047081-0.2118683,0.1647835-0.4001884,0.329567-0.5414352
		l4.8493423-4.3549881v-0.0235405C62.8107414,30.3824463,63.4698792,32.689415,63.4934158,35.0670052z M59.6092339,25.9097538
		l-5.296608,3.7664776c-0.4708099,0.3766479-1.1534843,0.3060265-1.5301323-0.1647835
		c-0.141243-0.188324-0.235405-0.4237289-0.235405-0.6826744l-0.3766441-6.4971733
		C54.9717598,22.6847076,57.5847549,23.9323521,59.6092339,25.9097538z M49.6045303,33.0660629h2.0009422l1.224102,1.5536728
		l-0.094162,0.4472694H48.451046l-0.094162-0.4472694L49.6045303,33.0660629z M47.7212906,22.5434647
		c0.4472694-0.094162,0.8709984-0.1647835,1.3182678-0.2118645L48.686451,28.852314l0,0
		c-0.0235405,0.6120529-0.5649719,1.0828629-1.1770248,1.0593224c-0.2118645,0-0.4237289-0.0706215-0.5885124-0.2118645
		l-5.3672333-3.8135586C43.2721367,24.214838,45.3907814,23.0613537,47.7212906,22.5434647z M39.6233635,28.3579636
		l4.8964195,4.3549919l0,0c0.4472694,0.4001884,0.4943504,1.1299438,0.094162,1.5772133
		c-0.1412392,0.1647797-0.329567,0.3060265-0.5414314,0.3531036l0,0l-1.4359665,0.4001884h-4.9199638
		C37.7165833,32.7129555,38.3757172,30.3824463,39.6233635,28.3579636z M64.882309,52.4398842l-13.0885162,7.5564957
		c-0.3531075,0.2118645-0.7768364,0.3060303-1.1770248,0.3060303c-0.4001846,0-0.8239174-0.094162-1.177021-0.3060303
		l-13.0885124-7.5564957c-0.7297554-0.4237289-1.1770248-1.2005692-1.1770248-2.0480232V37.3975143h30.8851166V50.391861
		C66.0593338,51.2393188,65.6120605,52.0161591,64.882309,52.4398842z"/>
</g>
</svg>
