<?xml version="1.0" encoding="utf-8"?>
<!-- Generator: Adobe Illustrator 22.1.0, SVG Export Plug-In . SVG Version: 6.00 Build 0)  -->
<svg version="1.1" id="Layer_1" xmlns="http://www.w3.org/2000/svg" xmlns:xlink="http://www.w3.org/1999/xlink" x="0px" y="0px"
	 viewBox="0 0 500 500" style="enable-background:new 0 0 500 500;" xml:space="preserve">
<style type="text/css">
	.st0{enable-background:new    ;}
	.st1{opacity:0.3;}
	.st2{fill:#1A73A0;}
	.st3{fill:#8DB9E3;}
	.st4{fill:#D6E3F4;}
	.st5{fill:#B1CDEB;}
	.st6{fill:#4B87AF;}
	.st7{fill:#3A789B;}
	.st8{fill:#69A7DB;}
	.st9{fill:none;stroke:#8DB9E3;stroke-width:2;stroke-miterlimit:10;}
</style>
<title>spot</title>
<g>
	<g class="st0">
		<g class="st1">
			<path class="st2" d="M478.2354126,387.6750793c2.240509,1.2935486,2.2524109,3.4095459,0.0264893,4.7030945
				L304.4000549,493.4156494c-2.2234192,1.2921143-5.8764648,1.2921143-8.1169739-0.0014343L21.8267727,334.9567871
				c-2.2404919-1.2935486-2.2524014-3.4095154-0.0289745-4.7016296l173.8618469-101.0374603
				c2.2259216-1.2935791,5.8789673-1.2935944,8.1194611-0.0000458L478.2354126,387.6750793z"/>
		</g>
		<path class="st3" d="M479.9095459,329.9010925c-0.0054321,0.0614624-0.0097961,0.1227722-0.0209961,0.1838684
			c-0.0090332,0.0489502-0.0237732,0.0975342-0.0364685,0.1463013c-0.0151062,0.0579224-0.0293274,0.1158447-0.0496826,0.1732178
			c-0.0167236,0.0470886-0.0387268,0.0936279-0.0589905,0.1405029c-0.026001,0.0599976-0.052124,0.1199646-0.0839539,0.1790161
			c-0.0232849,0.0433655-0.0510254,0.0861511-0.0774231,0.1289368c-0.0414124,0.0670776-0.0852661,0.1337891-0.1343384,0.1995544
			c-0.0463867,0.0620422-0.0940247,0.1240845-0.1472778,0.1846313c-0.013855,0.0158691-0.0264282,0.0319519-0.040741,0.0476379
			c-0.0738525,0.0809021-0.1552124,0.1599426-0.241394,0.2378845c-0.0539856,0.048584-0.1142883,0.095459-0.1730957,0.1427612
			c-0.0533142,0.0429688-0.1045837,0.0864868-0.1618652,0.1281738c-0.0635986,0.0463257-0.1337891,0.0904236-0.202301,0.1349182
			c-0.0724487,0.0472717-0.1412354,0.0958557-0.2191162,0.1410522L304.4000549,433.1069946l-0.0619202,21.8364868
			l173.8618774-101.0375977c0.0232849-0.0134583,0.0462952-0.0270996,0.0690918-0.040741
			c0.0531921-0.032135,0.0986938-0.0667114,0.149231-0.0995789c0.0689087-0.0448608,0.1394348-0.0891418,0.2033691-0.1356812
			c0.0568848-0.0414734,0.107605-0.0846252,0.160553-0.1272278c0.0592651-0.0476685,0.1199341-0.0947571,0.1742554-0.1437073
			c0.0103455-0.0093384,0.0230103-0.0181274,0.0331726-0.0274658c0.0744934-0.0687561,0.1430969-0.1392212,0.2080688-0.2103882
			c0.0143127-0.0157166,0.026886-0.0315857,0.040741-0.0474854c0.0361938-0.0412903,0.0734558-0.0822144,0.1065063-0.1242371
			c0.015564-0.0198059,0.0258484-0.0405579,0.0407104-0.0603638c0.0491943-0.065979,0.0930786-0.1326599,0.1345825-0.1999512
			c0.0172119-0.027832,0.039978-0.0547485,0.0558777-0.0829468c0.0084534-0.0149536,0.0132141-0.0304565,0.0213013-0.0454102
			c0.0319824-0.0596008,0.058197-0.1195984,0.0842896-0.1799622c0.0148315-0.0343628,0.0350037-0.0678101,0.0479431-0.1023865
			c0.0046387-0.0123291,0.0063171-0.0248413,0.0107117-0.0371704c0.0204773-0.0577393,0.0347595-0.1158752,0.0499268-0.1739807
			c0.0098877-0.0381165,0.0249939-0.0756836,0.0326233-0.1138c0.0021362-0.0106506,0.001709-0.0213013,0.0036621-0.0319519
			c0.0112305-0.0610962,0.015564-0.1223755,0.0209961-0.1836853c0.003418-0.0386658,0.012146-0.0773315,0.0132446-0.1160278
			c0.0004883-0.0169983,0.0007629-0.0338135,0.0007935-0.0508118l0.0619202-21.8365173
			C479.9234314,329.7901001,479.9144287,329.8455811,479.9095459,329.9010925z"/>
		<g>
			<path class="st4" d="M478.2354126,327.3664246c2.240509,1.2935486,2.2524109,3.4095459,0.0264893,4.7030945
				L304.4000549,433.1069946c-2.2234192,1.2921143-5.8764648,1.2921448-8.1169739-0.0014343L21.8267727,274.6481628
				c-2.2404919-1.2935486-2.2524014-3.4095459-0.0289745-4.7016602l173.8618469-101.0374603
				c2.2259216-1.2935638,5.8789673-1.2935791,8.1194611-0.0000305L478.2354126,327.3664246z"/>
		</g>
		<path class="st5" d="M303.8638,433.3781128c-0.053894,0.024292-0.1093445,0.0469055-0.1644287,0.0700684
			c-0.1440735,0.0601807-0.2918091,0.1160278-0.4430237,0.1676025c-0.0568237,0.0194397-0.1124878,0.0400085-0.1701355,0.0583191
			c-0.0962524,0.0300598-0.1948242,0.0567932-0.293335,0.0835266c-0.0757141,0.0205383-0.1506042,0.0424194-0.2275391,0.0610962
			c-0.1029968,0.0248413-0.2081604,0.0455933-0.3130798,0.0668945c-0.0734863,0.0147705-0.1461792,0.0314026-0.2204895,0.0444641
			c-0.2151794,0.0377502-0.4335938,0.0680237-0.6539917,0.0910034c-0.0664368,0.0069275-0.1334229,0.0110168-0.2001953,0.0166321
			c-0.1312866,0.0108337-0.2627869,0.0205383-0.3949585,0.0263367c-0.082489,0.0035706-0.1651917,0.005249-0.2478638,0.0067444
			c-0.1062317,0.0020447-0.2124634,0.0028076-0.3186951,0.0014954c-0.0874023-0.0011292-0.1747131-0.0037537-0.2619629-0.0072937
			c-0.0982971-0.0039368-0.1962891-0.0089722-0.2941589-0.015686c-0.0885315-0.0061646-0.1768188-0.0134583-0.2649231-0.0220642
			c-0.0966797-0.0093384-0.1930237-0.0201721-0.2889709-0.0323181c-0.085968-0.0108337-0.1715393-0.0229797-0.2567444-0.0360718
			c-0.1026611-0.0158691-0.2044067-0.0339966-0.3056946-0.0532532c-0.079895-0.0151367-0.1595764-0.0306396-0.2384644-0.0480347
			c-0.1210938-0.0265198-0.2401733-0.056427-0.358551-0.0877991c-0.0651245-0.0172119-0.1307983-0.0334473-0.1949463-0.0521545
			c-0.2102356-0.0612793-0.4155884-0.1300354-0.6141357-0.2072144c-0.0986023-0.0384827-0.1940613-0.0803528-0.2892456-0.1227722
			c-0.0484924-0.0214844-0.0987549-0.0411072-0.1462708-0.0635376c-0.144104-0.0683899-0.2843628-0.1408691-0.4188843-0.2185974
			L21.8267975,274.6481628c-0.7049198-0.4069824-1.1891594-0.8954163-1.4527206-1.4137573
			c-0.158083-0.3111267-0.236702-0.6330872-0.235815-0.954834l-0.0618496,21.8364868
			c-0.0024281,0.8578796,0.5606651,1.7174072,1.6884422,2.3686218l274.4562988,158.4573059
			c0.134552,0.0777283,0.2746887,0.1500549,0.4187927,0.2184448c0.0477905,0.0226135,0.0982361,0.0424194,0.1470032,0.0639038
			c0.0845642,0.0375671,0.1677246,0.0765991,0.2549744,0.1109924c0.0108337,0.004303,0.0227966,0.0072937,0.0336914,0.0113831
			c0.1984863,0.0773621,0.403595,0.1459351,0.6139526,0.2072449c0.0161133,0.0048523,0.0309143,0.0113831,0.0471497,0.0160522
			c0.0483398,0.0136414,0.0991516,0.0231934,0.1480408,0.0362549c0.1185608,0.0314026,0.2376099,0.0614929,0.3589478,0.0878296
			c0.0310059,0.0069275,0.06073,0.0160828,0.09198,0.0226135c0.047821,0.0098877,0.09729,0.0162659,0.1454468,0.0252075
			c0.1016235,0.0194397,0.2033691,0.037384,0.3063049,0.0534668c0.0401001,0.0061646,0.0791016,0.0149231,0.1193237,0.0207214
			c0.0454407,0.0063477,0.0918274,0.009552,0.1374817,0.0153198c0.0960083,0.012146,0.1920471,0.0230103,0.2888184,0.0323486
			c0.0452271,0.0042725,0.0897522,0.0112,0.1351013,0.0149231c0.0430908,0.0037537,0.0865784,0.0041199,0.1297302,0.0071106
			c0.0981445,0.0067444,0.196167,0.0117798,0.2946167,0.015686c0.0484619,0.0018921,0.0965881,0.0065613,0.1450195,0.0076904
			c0.0388489,0.0009155,0.0776367-0.000946,0.1164551-0.0005798c0.1065063,0.0014954,0.212738,0.0005798,0.3192139-0.0013123
			c0.052124-0.0010986,0.1044312,0.000946,0.1565247-0.0007324c0.030304-0.0011292,0.0603027-0.0046692,0.0905762-0.0061646
			c0.1325684-0.0056152,0.2641602-0.0153198,0.395813-0.0263672c0.0513306-0.0042725,0.1033936-0.0050354,0.154541-0.0102539
			c0.0152283-0.0014954,0.0299377-0.0046692,0.045166-0.0061646c0.2205811-0.0231934,0.4390259-0.0532532,0.6544495-0.0911865
			c0.0115051-0.0020752,0.023468-0.0028076,0.0349426-0.0048828c0.0619202-0.0112,0.1216125-0.0267029,0.1828918-0.039032
			c0.105896-0.0214844,0.211853-0.0424194,0.3157654-0.0674744c0.0763245-0.0184937,0.1505127-0.0401611,0.2256165-0.0605469
			c0.0993042-0.026886,0.1983948-0.0538025,0.2953186-0.084259c0.0218811-0.006897,0.0450439-0.0119629,0.066803-0.019043
			c0.0351257-0.0114136,0.0671692-0.0267334,0.1019897-0.0385132c0.1517639-0.0517578,0.2998657-0.1078186,0.444397-0.1683655
			c0.0548706-0.0229797,0.1098633-0.0453796,0.1635742-0.0696716c0.1855469-0.0837402,0.3664246-0.1723022,0.5365601-0.2711487
			l0.0619202-21.8364868C304.2300415,433.2058411,304.0491638,433.2944031,303.8638,433.3781128z"/>
	</g>
</g>
<g>
	<path class="st6" d="M178.1747284,179.1252441l17.4849243-10.2162018c2.2259216-1.2935638,5.8789673-1.2935791,8.1194611-0.0000305
		l274.4562988,158.4574127c2.240509,1.2935486,2.2524109,3.4095459,0.0264893,4.7030945l-17.4849243,10.216217
		L178.1747284,179.1252441z"/>
</g>
<path class="st7" d="M479.9095459,329.9010925c-0.0054321,0.0614624-0.0097961,0.1227722-0.0209961,0.1838684
	c-0.0090332,0.0489502-0.0237732,0.0975342-0.0364685,0.1463013c-0.0151062,0.0579224-0.0293274,0.1158447-0.0496826,0.1732178
	c-0.0167236,0.0470886-0.0387268,0.0936279-0.0589905,0.1405029c-0.026001,0.0599976-0.052124,0.1199646-0.0839539,0.1790161
	c-0.0232849,0.0433655-0.0510254,0.0861511-0.0774231,0.1289368c-0.0414124,0.0670776-0.0852661,0.1337891-0.1343384,0.1995544
	c-0.0463867,0.0620422-0.0940247,0.1240845-0.1472778,0.1846313c-0.013855,0.0158691-0.0264282,0.0319519-0.040741,0.0476379
	c-0.0738525,0.0809021-0.1552124,0.1599426-0.241394,0.2378845c-0.0539856,0.048584-0.1142883,0.095459-0.1730957,0.1427612
	c-0.0533142,0.0429688-0.1045837,0.0864868-0.1618652,0.1281738c-0.0635986,0.0463257-0.1337891,0.0904236-0.202301,0.1349182
	c-0.0724487,0.0472717-0.1412354,0.0958557-0.2191162,0.1410522l-17.5168152,10.2161865l-0.0618896,21.8364868
	l17.5168152-10.2163391c0.0232849-0.0134583,0.0462952-0.0270996,0.0690918-0.040741
	c0.0531921-0.032135,0.0986938-0.0667114,0.149231-0.0995789c0.0689087-0.0448608,0.1394348-0.0891418,0.2033691-0.1356812
	c0.0568848-0.0414734,0.107605-0.0846252,0.160553-0.1272278c0.0592651-0.0476685,0.1199341-0.0947571,0.1742554-0.1437073
	c0.0103455-0.0093384,0.0230103-0.0181274,0.0331726-0.0274658c0.0744934-0.0687561,0.1430969-0.1392212,0.2080688-0.2103882
	c0.0143127-0.0157166,0.026886-0.0315857,0.040741-0.0474854c0.0361938-0.0412903,0.0734558-0.0822144,0.1065063-0.1242371
	c0.015564-0.0198059,0.0258484-0.0405579,0.0407104-0.0603638c0.0491943-0.065979,0.0930786-0.1326599,0.1345825-0.1999512
	c0.0172119-0.027832,0.039978-0.0547485,0.0558777-0.0829468c0.0084534-0.0149536,0.0132141-0.0304565,0.0213013-0.0454102
	c0.0319824-0.0596008,0.058197-0.1195984,0.0842896-0.1799622c0.0148315-0.0343628,0.0350037-0.0678101,0.0479431-0.1023865
	c0.0046387-0.0123291,0.0063171-0.0248413,0.0107117-0.0371704c0.0204773-0.0577393,0.0347595-0.1158752,0.0499268-0.1739807
	c0.0098877-0.0381165,0.0249939-0.0756836,0.0326233-0.1138c0.0021362-0.0106506,0.001709-0.0213013,0.0036621-0.0319519
	c0.0112305-0.0610962,0.015564-0.1223755,0.0209961-0.1836853c0.003418-0.0386658,0.012146-0.0773315,0.0132446-0.1160278
	c0.0004883-0.0169983,0.0007629-0.0338135,0.0007935-0.0508118l0.0619202-21.8365173
	C479.9234314,329.7901001,479.9144287,329.8455811,479.9095459,329.9010925z"/>
<polygon class="st5" points="95.9841537,278.4920349 188.9423981,332.153656 282.8244324,278.4898682 188.9423981,224.8282166 "/>
<g>
	<polygon class="st4" points="96.6908417,116.9068298 173.9403992,161.5003815 251.9576263,116.9050293 173.9403992,72.3114853 	"/>
	<polygon class="st3" points="116.6927338,116.906662 173.9651947,83.844162 231.8065033,116.9047089 173.9647064,149.9681854 	"/>
	<polygon class="st8" points="96.6908417,116.9068298 96.6908417,278.5505981 173.9403992,323.1441345 173.9403992,161.5003815 	"/>
	<polygon class="st3" points="173.9403992,161.5003815 173.9403992,323.1441345 251.9576263,278.5487976 251.9576263,116.9050293 	
		"/>
</g>
<polygon class="st5" points="201.2906036,339.2747803 294.2488403,392.9364014 388.1308594,339.272583 294.2488403,285.6109619 "/>
<g>
	<g>
		<polygon class="st4" points="230.0526123,141.8001556 242.7937317,134.4440765 242.8456116,152.7468567 230.1045074,160.102951 		
			"/>
	</g>
	<g>
		<polygon class="st4" points="230.2255707,202.8084259 230.1736755,184.5058746 242.9147949,177.1497955 242.9666901,195.4523315 
					"/>
	</g>
	<g>
		<polygon class="st4" points="230.1650391,181.4558105 230.1131439,163.1530151 242.8542633,155.796936 242.9061584,174.0997162 		
			"/>
	</g>
	<g>
		<polygon class="st4" points="230.3466339,245.5112915 230.294754,227.2113495 243.0358734,219.8552704 243.0877533,238.1551971 		
			"/>
	</g>
	<g>
		<polygon class="st4" points="230.2861023,224.158432 230.2342224,205.85849 242.9753418,198.5024109 243.0272217,216.8023376 		
			"/>
	</g>
	<g>
		<polygon class="st4" points="230.4071655,266.8641357 230.3552856,248.5613556 243.096405,241.2052612 243.1482849,259.5080566 		
			"/>
	</g>
	<g>
		<polygon class="st4" points="230.4676971,288.2167664 230.4158173,269.9139709 243.1569366,262.5578918 243.2088165,280.8606873 
					"/>
	</g>
	<g>
		<polygon class="st4" points="214.4169006,211.9355621 214.3650208,193.6330109 227.1061249,186.2769318 227.15802,204.579483 		
			"/>
	</g>
	<g>
		<polygon class="st4" points="214.356369,190.5829468 214.3044739,172.2801666 227.0455933,164.9240723 227.0974884,183.2268524 		
			"/>
	</g>
	<g>
		<polygon class="st4" points="214.2958374,169.2300873 214.2439423,150.9273071 226.9850616,143.5712128 227.0369568,161.8740082 
					"/>
	</g>
	<g>
		<polygon class="st4" points="214.5379639,254.6384277 214.486084,236.3384857 227.2272034,228.9824066 227.2790833,247.2823334 		
			"/>
	</g>
	<g>
		<polygon class="st4" points="214.4774323,233.2855682 214.4255524,214.9856415 227.1666718,207.6295471 227.2185516,225.9294891 
					"/>
	</g>
	<g>
		<polygon class="st4" points="214.6590424,297.3439026 214.6071472,279.0411072 227.3482666,271.6850281 227.4001465,289.9878235 
					"/>
	</g>
	<g>
		<polygon class="st4" points="214.5984955,275.991272 214.5466156,257.6885071 227.287735,250.3324127 227.3396149,268.6351929 		
			"/>
	</g>
	<g>
		<polygon class="st4" points="198.5474854,199.7102051 198.4956055,181.4074249 211.2391968,174.0498962 211.2910919,192.3526917 
					"/>
	</g>
	<g>
		<polygon class="st4" points="198.4869537,178.3573456 198.4350739,160.0545654 211.1786652,152.6970367 211.2305603,170.9998322 
					"/>
	</g>
	<g>
		<polygon class="st4" points="198.7896271,285.1185303 198.7377319,266.8157654 211.4813385,259.4582214 211.5332184,277.7610168 
					"/>
	</g>
	<g>
		<polygon class="st4" points="198.7290955,263.765686 198.6772156,245.465744 211.4208069,238.1082306 211.4726868,256.4081726 		
			"/>
	</g>
	<g>
		<polygon class="st4" points="198.6685486,242.4128265 198.6166687,224.1128998 211.3602753,216.7553711 211.4121552,235.0553131 
					"/>
	</g>
	<g>
		<polygon class="st4" points="198.6080322,221.0628204 198.5561371,202.7602692 211.2997437,195.4027557 211.3516235,213.705307 		
			"/>
	</g>
	<g>
		<polygon class="st4" points="198.8501587,306.4711609 198.7982788,288.1683655 211.5418701,280.8108521 211.5937653,299.1136475 
					"/>
	</g>
	<g>
		<polygon class="st4" points="182.7411041,208.8360291 182.689209,190.5332489 195.4303284,183.1771545 195.4822235,201.47995 		
			"/>
	</g>
	<g>
		<polygon class="st4" points="182.6805573,187.4831696 182.6286774,169.1803894 195.3697968,161.824295 195.4216766,180.1270905 		
			"/>
	</g>
	<g>
		<polygon class="st4" points="182.922699,272.89151 182.8708191,254.591568 195.6119385,247.2354889 195.6638184,265.5354309 		"/>
	</g>
	<g class="st0">
		<g>
			<polygon class="st4" points="182.8621674,251.5386505 182.8102875,233.2387238 195.5513916,225.8826294 195.6032715,244.1825714 
							"/>
		</g>
		<g>
			<polygon class="st4" points="182.8016357,230.1886444 182.7497406,211.8860931 195.49086,204.530014 195.5427551,222.8325653 			
				"/>
		</g>
	</g>
	<g>
		<polygon class="st4" points="183.0437622,315.5969849 182.9918823,297.2941895 195.7330017,289.9381104 195.7848816,308.2409058 
					"/>
	</g>
	<g>
		<polygon class="st4" points="182.9832306,294.2443542 182.9313507,275.9415894 195.6724548,268.5854797 195.72435,286.8882751 		
			"/>
	</g>
</g>
<polygon class="st4" points="201.6134491,88.6859131 278.8630066,133.2794647 356.880249,88.6841125 278.8630066,44.0905685 "/>
<polygon class="st3" points="221.6155853,88.6859589 278.8880615,55.6224823 336.7293701,88.6840057 278.8875732,121.7474823 "/>
<polygon class="st8" points="201.6134491,88.6859131 201.6134491,339.5185547 278.8630066,384.1121216 278.8630066,133.2794647 "/>
<g>
	<line class="st9" x1="265.2183533" y1="360.4809875" x2="215.2578735" y2="331.6398621"/>
	<line class="st9" x1="265.2183533" y1="345.8594666" x2="215.2578735" y2="317.0183411"/>
	<line class="st9" x1="265.2183533" y1="331.2379456" x2="215.2578735" y2="302.3968201"/>
	<line class="st9" x1="265.2183533" y1="316.6164246" x2="215.2578735" y2="287.7752991"/>
	<line class="st9" x1="265.2183533" y1="301.9949036" x2="215.2578735" y2="273.1537781"/>
	<line class="st9" x1="265.2183533" y1="287.3733826" x2="215.2578735" y2="258.5322571"/>
	<line class="st9" x1="265.2183533" y1="272.7518616" x2="215.2578735" y2="243.9107361"/>
	<line class="st9" x1="265.2183533" y1="258.1303406" x2="215.2578735" y2="229.2892151"/>
	<line class="st9" x1="265.2183533" y1="243.5088043" x2="215.2578735" y2="214.6676941"/>
	<line class="st9" x1="265.2183533" y1="228.8872833" x2="215.2578735" y2="200.0461731"/>
	<line class="st9" x1="265.2183533" y1="214.2657623" x2="215.2578735" y2="185.4246521"/>
	<line class="st9" x1="265.2183533" y1="199.6442413" x2="215.2578735" y2="170.8031311"/>
	<line class="st9" x1="265.2183533" y1="185.0227051" x2="215.2578735" y2="156.1815948"/>
	<line class="st9" x1="265.2183533" y1="170.4011841" x2="215.2578735" y2="141.5600739"/>
	<line class="st9" x1="265.2183533" y1="155.7796631" x2="215.2578735" y2="126.9385529"/>
	<line class="st9" x1="215.2578735" y1="112.3170319" x2="265.2183533" y2="141.1581421"/>
</g>
<g>
	<line class="st9" x1="159.395874" y1="297.8476562" x2="109.4353867" y2="269.0065613"/>
	<line class="st9" x1="159.395874" y1="282.057312" x2="109.4353867" y2="253.2162018"/>
	<line class="st9" x1="159.395874" y1="266.2669373" x2="109.4353867" y2="237.4258423"/>
	<line class="st9" x1="159.395874" y1="250.476593" x2="109.4353867" y2="221.6354828"/>
	<line class="st9" x1="159.395874" y1="234.6862335" x2="109.4353867" y2="205.8451233"/>
	<line class="st9" x1="159.395874" y1="218.8958893" x2="109.4353867" y2="190.0547791"/>
	<line class="st9" x1="159.395874" y1="203.1055298" x2="109.4353867" y2="174.2644196"/>
	<line class="st9" x1="159.395874" y1="187.3151703" x2="109.4353867" y2="158.4740601"/>
	<line class="st9" x1="109.4353867" y1="142.6837006" x2="159.395874" y2="171.5248108"/>
</g>
<polygon class="st3" points="278.8630066,133.2794647 278.8630066,384.1121216 356.880249,339.5167542 356.880249,88.6841125 "/>
<g>
	<g>
		<polygon class="st4" points="335.7235107,110.6329803 348.4646301,103.2768936 348.51651,121.5796814 335.7754211,128.9357605 		
			"/>
	</g>
	<g>
		<polygon class="st4" points="335.8964844,171.6412354 335.8446045,153.3386993 348.5856934,145.982605 348.6376038,164.2851562 		
			"/>
	</g>
	<g>
		<polygon class="st4" points="335.8359375,150.28862 335.7840576,131.9858398 348.525177,124.6297455 348.5770569,142.9325409 		
			"/>
	</g>
	<g>
		<polygon class="st4" points="336.0175476,214.344101 335.9656677,196.0441742 348.7067871,188.6880798 348.758667,206.9880219 		
			"/>
	</g>
	<g>
		<polygon class="st4" points="335.9570007,192.9912415 335.9051208,174.6913147 348.6462402,167.3352203 348.6981201,185.6351624 
					"/>
	</g>
	<g>
		<polygon class="st4" points="336.078064,235.6969604 336.0261841,217.394165 348.7673035,210.0380859 348.8191833,228.3408661 		
			"/>
	</g>
	<g>
		<polygon class="st4" points="336.1386108,257.0495911 336.086731,238.7467957 348.8278503,231.3907013 348.8797302,249.6934967 		
			"/>
	</g>
	<g>
		<polygon class="st4" points="336.1991577,278.4024353 336.1472473,260.0996399 348.8883667,252.7435608 348.9402771,271.0463562 
					"/>
	</g>
	<g>
		<polygon class="st4" points="320.0877991,180.7683868 320.0359192,162.4658356 332.7770386,155.1097412 332.8289185,173.4122925 
					"/>
	</g>
	<g>
		<polygon class="st4" points="320.0272827,159.4157562 319.9753723,141.1129761 332.7164917,133.7568817 332.7684021,152.0596771 
					"/>
	</g>
	<g>
		<polygon class="st4" points="319.9667358,138.062912 319.914856,119.7601166 332.6559753,112.4040298 332.7078552,130.7068176 		
			"/>
	</g>
	<g>
		<polygon class="st4" points="320.2088623,223.4712372 320.1569824,205.1713104 332.8981018,197.8152161 332.9499817,216.1151581 
					"/>
	</g>
	<g>
		<polygon class="st4" points="320.1483459,202.1183777 320.0964661,183.8184509 332.8375854,176.4623566 332.8894653,194.7622986 
					"/>
	</g>
	<g>
		<polygon class="st4" points="320.3904724,287.5295715 320.3385925,269.2267761 333.0797119,261.870697 333.1315918,280.1734924 		
			"/>
	</g>
	<g>
		<polygon class="st4" points="320.3299561,266.1767273 320.2780457,247.8739319 333.019165,240.5178375 333.0710449,258.8206177 		
			"/>
	</g>
	<g>
		<polygon class="st4" points="320.2694092,244.8240967 320.2175293,226.5213165 332.9586487,219.1652222 333.0105286,237.4680176 
					"/>
	</g>
	<g>
		<polygon class="st4" points="304.2183838,168.5430145 304.1665039,150.2402344 316.9100952,142.8827057 316.9620056,161.1855011 
					"/>
	</g>
	<g>
		<polygon class="st4" points="304.1578674,147.1901703 304.1059875,128.8873749 316.8495789,121.5298538 316.9014587,139.8326416 
					"/>
	</g>
	<g>
		<polygon class="st4" points="304.4605408,253.951355 304.4086304,235.6485748 317.1522522,228.2910461 317.2041321,246.5938416 		
			"/>
	</g>
	<g>
		<polygon class="st4" points="304.3999939,232.5984955 304.348114,214.2985687 317.0917053,206.94104 317.1435852,225.2409821 		
			"/>
	</g>
	<g>
		<polygon class="st4" points="304.339447,211.2456512 304.2875671,192.9457092 317.031189,185.5881805 317.0830688,203.8881226 		
			"/>
	</g>
	<g>
		<polygon class="st4" points="304.2789307,189.8956451 304.2270508,171.5930939 316.9706421,164.2355652 317.022522,182.5381165 		
			"/>
	</g>
	<g>
		<polygon class="st4" points="304.581604,296.6568298 304.5297241,278.3540344 317.2733154,270.996521 317.3251953,289.2993164 		
			"/>
	</g>
	<g>
		<polygon class="st4" points="304.5210571,275.3039856 304.4691772,257.0011902 317.2127686,249.6436615 317.264679,267.9464417 		
			"/>
	</g>
	<g>
		<polygon class="st4" points="288.4120178,177.6688538 288.3601074,159.3660583 301.1012268,152.009964 301.1531372,170.3127594 		
			"/>
	</g>
	<g>
		<polygon class="st4" points="288.3514709,156.3159943 288.2995911,138.0131989 301.0407104,130.6571198 301.0925903,148.9598999 
					"/>
	</g>
	<g>
		<polygon class="st4" points="288.5935974,241.7243195 288.5417175,223.4243927 301.2828369,216.0682983 301.3347168,234.3682404 
					"/>
	</g>
	<g class="st0">
		<g>
			<polygon class="st4" points="288.5330811,220.3714752 288.4812012,202.0715332 301.22229,194.7154541 301.2741699,213.0153809 
							"/>
		</g>
		<g>
			<polygon class="st4" points="288.4725342,199.0214691 288.4206543,180.7189178 301.1617737,173.3628235 301.2136536,191.6653748 
							"/>
		</g>
	</g>
	<g>
		<polygon class="st4" points="288.7146606,284.4298096 288.6627808,266.1270142 301.4039001,258.7709351 301.45578,277.0737 		"/>
	</g>
	<g>
		<polygon class="st4" points="288.6541443,263.077179 288.6022644,244.7743988 301.3433533,237.4183044 301.3952637,255.7210999 		
			"/>
	</g>
	<g>
		<polygon class="st4" points="288.7752075,305.7826538 288.7233276,287.4798584 301.464447,280.1237793 301.5163269,298.4265747 		
			"/>
	</g>
</g>
<g>
	<g>
		<polygon class="st4" points="335.8964844,321.7116394 335.8446045,303.4090881 348.5856934,296.0529785 348.6376038,314.3555298 
					"/>
	</g>
	<g>
		<polygon class="st4" points="335.8359375,300.3590088 335.7840576,282.0562134 348.525177,274.7001343 348.5770569,293.0029297 		
			"/>
	</g>
	<g>
		<polygon class="st4" points="335.9570007,343.0616455 335.9051208,324.7616882 348.6462402,317.4056091 348.6981201,335.7055359 
					"/>
	</g>
	<g>
		<polygon class="st4" points="320.0877991,330.8387756 320.0359192,312.5362244 332.7770386,305.1801453 332.8289185,323.4826965 
					"/>
	</g>
	<g>
		<polygon class="st4" points="320.0272827,309.486145 319.9753723,291.1833496 332.7164917,283.8272705 332.7684021,302.1300659 		
			"/>
	</g>
	<g>
		<polygon class="st4" points="320.1483459,352.1887817 320.0964661,333.8888245 332.8375854,326.5327454 332.8894653,344.8326721 
					"/>
	</g>
	<g>
		<polygon class="st4" points="304.2183838,318.6134033 304.1665039,300.3106079 316.9100952,292.9530945 316.9620056,311.2558899 
					"/>
	</g>
	<g>
		<polygon class="st4" points="304.339447,361.31604 304.2875671,343.0160828 317.031189,335.6585693 317.0830688,353.9584961 		"/>
	</g>
	<g>
		<polygon class="st4" points="304.2789307,339.9660339 304.2270508,321.6634827 316.9706421,314.3059692 317.022522,332.6085205 		
			"/>
	</g>
	<g>
		<polygon class="st4" points="288.4120178,327.7392273 288.3601074,309.4364624 301.1012268,302.0803528 301.1531372,320.3831482 
					"/>
	</g>
	<g class="st0">
		<g>
			<polygon class="st4" points="288.5330811,370.441864 288.4812012,352.1419373 301.22229,344.7858276 301.2741699,363.0857849 			
				"/>
		</g>
		<g>
			<polygon class="st4" points="288.4725342,349.0918579 288.4206543,330.7893066 301.1617737,323.4332275 301.2136536,341.7357788 
							"/>
		</g>
	</g>
</g>
</svg>
