<svg xmlns="http://www.w3.org/2000/svg" viewBox="0 0 500 500"><defs><style>.cls-1{fill:none}.cls-2{isolation:isolate}.cls-9{fill:#1a73a0}.cls-4{fill:#b1cdeb}.cls-6{fill:#69a7db}.cls-7{fill:#8db9e3}.cls-8{opacity:.7}.cls-10{fill:#d6e3f4}.cls-15{fill:#8c3031}.cls-16{fill:#913232}.cls-17{fill:#953334}.cls-18{fill:#9a3536}.cls-19{fill:#9f3737}</style><clipPath id="clip-path"><path class="cls-1" d="M466.44 301.98L300.4 205.49 44.97 352.92l166.11 96.49 255.36-147.43z"/></clipPath><clipPath id="clip-path-2"><path class="cls-1" d="M232 304.55a3.09 3.09 0 0 0-.15.95V300a3.41 3.41 0 0 1 .15-1 40.52 40.52 0 0 1 0 5.55z"/></clipPath><clipPath id="clip-path-3"><path class="cls-1" d="M250.2 300v5.51c0 1.35-.89 2.69-2.66 3.72v-5.51c1.77-.99 2.66-2.33 2.66-3.72z"/></clipPath><clipPath id="clip-path-4"><path class="cls-1" d="M231.88 305.5V300c0 1.36.9 2.73 2.71 3.77a13.92 13.92 0 0 0 8.15 1.46 12 12 0 0 0 4.79-1.46v5.51a12.28 12.28 0 0 1-4.79 1.47 14 14 0 0 1-8.16-1.47c-1.8-1.05-2.71-2.42-2.7-3.78z"/></clipPath><clipPath id="clip-path-5"><path class="cls-1" d="M354.4 184.38l22.16 12.88c2.61 1.51 4.07 4.88 3.86 9.42l-22.16-12.88c.21-4.54-1.26-7.91-3.86-9.42z"/></clipPath><clipPath id="clip-path-6"><path class="cls-1" d="M266.83 294.73l18.6 10.81c2.18 1.27 3.41 4.09 3.24 7.9l-18.6-10.8c.18-3.81-1.07-6.64-3.24-7.91z"/></clipPath></defs><g id="Layer_1" data-name="Layer 1"><g class="cls-2"><path opacity=".3" fill="#1a73a0" d="M466.44 345.63L300.4 249.14 45.05 396.57l166.03 96.49 255.36-147.43z"/><path class="cls-4" d="M466.44 301.98L300.4 205.49 44.97 352.92l166.11 96.49 255.36-147.43z"/><path class="cls-6" d="M44.97 352.92v18.12l166.16 96.48-.05-18.11-166.11-96.49z"/><path class="cls-7" d="M211.08 449.41l.05 18.11L466.49 320.1l-.05-18.12-255.36 147.43z"/></g><g class="cls-8"><path class="cls-9" d="M323.05 244.92l-12.9 7.49-12.99-7.49 12.9-7.5 12.99 7.5z"/></g><g class="cls-8"><path class="cls-9" d="M306.5 254.53l-12.91 7.5-12.98-7.49 12.9-7.5 12.99 7.49z"/></g><g class="cls-8"><path class="cls-9" d="M289.94 264.15l-12.9 7.5-12.99-7.5 12.91-7.49 12.98 7.49z"/></g><g class="cls-8"><path class="cls-9" d="M273.39 273.77l-12.9 7.5-12.99-7.5 12.9-7.49 12.99 7.49z"/></g><g class="cls-8"><path class="cls-9" d="M256.84 283.39l-12.91 7.5-12.98-7.5 12.9-7.49 12.99 7.49z"/></g><g class="cls-8"><path class="cls-9" d="M240.28 293.01l-12.9 7.5-12.99-7.5 12.91-7.49 12.98 7.49z"/></g><g class="cls-8"><path class="cls-9" d="M223.73 302.63l-12.9 7.5-12.99-7.5 12.9-7.5 12.99 7.5z"/></g><g class="cls-8"><path class="cls-9" d="M207.18 312.25l-12.91 7.5-12.98-7.5 12.9-7.5 12.99 7.5z"/></g><g class="cls-8"><path class="cls-9" d="M190.62 321.87l-12.9 7.5-12.99-7.5 12.91-7.49 12.98 7.49z"/></g><g class="cls-8"><path class="cls-9" d="M174.07 331.5l-12.9 7.49-12.99-7.5 12.9-7.49 12.99 7.5z"/></g><g class="cls-8"><path class="cls-9" d="M157.51 341.12l-12.89 7.49-12.99-7.5 12.9-7.49 12.98 7.5z"/></g><g class="cls-8"><path class="cls-9" d="M140.96 350.73l-12.9 7.5-12.99-7.5 12.9-7.49 12.99 7.49z"/></g><g class="cls-8"><path class="cls-9" d="M124.41 360.35l-12.91 7.5-12.98-7.5 12.9-7.49 12.99 7.49z"/></g><g class="cls-8"><path class="cls-9" d="M340.69 255.1l-12.91 7.5-12.98-7.5 12.9-7.5 12.99 7.5z"/></g><g class="cls-8"><path class="cls-9" d="M324.13 264.72l-12.9 7.5-12.99-7.5 12.91-7.5 12.98 7.5z"/></g><g class="cls-8"><path class="cls-9" d="M307.58 274.34l-12.9 7.5-12.99-7.5 12.9-7.5 12.99 7.5z"/></g><g class="cls-8"><path class="cls-9" d="M291.03 283.96l-12.91 7.5-12.98-7.5 12.9-7.5 12.99 7.5z"/></g><g class="cls-8"><path class="cls-9" d="M274.47 293.58l-12.9 7.49-12.99-7.49 12.91-7.5 12.98 7.5z"/></g><g class="cls-8"><path class="cls-9" d="M232.03 303.2l12.9-7.5 12.99 7.5-12.9 7.49-12.99-7.49z"/></g><g class="cls-8"><path class="cls-9" d="M241.37 312.82l-12.91 7.49-13-7.49 12.9-7.5 1.14.66c-.52 1.65.33 3.43 2.55 4.72a14 14 0 0 0 8.16 1.46z"/></g><g class="cls-8"><path class="cls-9" d="M224.81 322.44l-12.9 7.49-12.99-7.49 12.91-7.5 12.98 7.5z"/></g><g class="cls-8"><path class="cls-9" d="M208.26 332.06l-12.9 7.49-12.99-7.49 12.9-7.5 12.99 7.5z"/></g><g class="cls-8"><path class="cls-9" d="M191.7 341.68l-12.89 7.49-12.99-7.49 12.9-7.5 12.98 7.5z"/></g><g class="cls-8"><path class="cls-9" d="M175.15 351.3l-12.9 7.49-12.99-7.49 12.9-7.5 12.99 7.5z"/></g><g class="cls-8"><path class="cls-9" d="M158.6 360.92l-12.91 7.5-12.98-7.5 12.9-7.5 12.99 7.5z"/></g><g class="cls-8"><path class="cls-9" d="M142.04 370.54l-12.9 7.5-12.98-7.5 12.9-7.5 12.98 7.5z"/></g><g class="cls-8"><path class="cls-9" d="M358.32 265.28l-12.9 7.5-12.99-7.5 12.91-7.5 12.98 7.5z"/></g><g class="cls-8"><path class="cls-9" d="M341.77 274.9l-12.91 7.5-12.98-7.5 12.9-7.5 12.99 7.5z"/></g><g class="cls-8"><path class="cls-9" d="M325.21 284.52l-12.9 7.5-12.98-7.5 12.9-7.5 12.98 7.5z"/></g><g class="cls-8"><path class="cls-9" d="M308.66 294.14l-12.9 7.5-12.99-7.5 12.91-7.5 12.98 7.5z"/></g><g class="cls-8"><path class="cls-9" d="M292.11 303.76l-12.91 7.5-12.98-7.5 12.9-7.5 12.99 7.5z"/></g><g class="cls-8"><path class="cls-9" d="M275.55 313.38l-12.9 7.5-12.98-7.5 12.9-7.5 12.98 7.5z"/></g><g class="cls-8"><path class="cls-9" d="M259 323l-12.9 7.5-12.98-7.5 12.9-7.5L259 323z"/></g><g class="cls-8"><path class="cls-9" d="M242.45 332.62l-12.91 7.5-12.98-7.5 12.91-7.5 12.98 7.5z"/></g><g class="cls-8"><path class="cls-9" d="M225.89 342.24l-12.9 7.49-12.98-7.49 12.9-7.5 12.98 7.5z"/></g><g class="cls-8"><path class="cls-9" d="M209.34 351.86l-12.9 7.49-12.98-7.49 12.89-7.5 12.99 7.5z"/></g><g class="cls-8"><path class="cls-9" d="M192.78 361.48l-12.9 7.49-12.98-7.49 12.9-7.5 12.98 7.5z"/></g><g class="cls-8"><path class="cls-9" d="M176.23 371.1l-12.9 7.5-12.99-7.5 12.91-7.5 12.98 7.5z"/></g><g class="cls-8"><path class="cls-9" d="M159.68 380.72l-12.9 7.49-12.99-7.49 12.9-7.5 12.99 7.5z"/></g><g class="cls-8"><path class="cls-9" d="M326.3 304.32l-112.23 65.22-12.98-7.5 112.22-65.22 12.99 7.5z"/></g><g class="cls-2"><path class="cls-10" d="M325.57 237.98l-12.9 7.5-12.99-7.5 12.91-7.5 12.98 7.5z"/><path class="cls-4" d="M325.57 237.98l-.01 5.51-12.91 7.5.02-5.51 12.9-7.5z"/><path class="cls-7" d="M312.67 245.48l-.02 5.51-12.98-7.5.01-5.51 12.99 7.5z"/></g><g class="cls-2"><path class="cls-10" d="M309.02 247.6l-12.9 7.5-12.99-7.5 12.9-7.5 12.99 7.5z"/><path class="cls-4" d="M309.02 247.6l-.02 5.51-12.9 7.5.02-5.51 12.9-7.5z"/><path class="cls-7" d="M296.12 255.1l-.02 5.51-12.98-7.5.01-5.51 12.99 7.5z"/></g><g class="cls-2"><path class="cls-10" d="M292.47 257.22l-12.91 7.5-12.98-7.5 12.9-7.5 12.99 7.5z"/><path class="cls-4" d="M292.47 257.22l-.02 5.51-12.9 7.5.01-5.51 12.91-7.5z"/><path class="cls-7" d="M279.56 264.72l-.01 5.51-12.99-7.5.02-5.51 12.98 7.5z"/></g><g class="cls-2"><path class="cls-10" d="M275.91 266.84l-12.9 7.5-12.99-7.5 12.91-7.5 12.98 7.5z"/><path class="cls-4" d="M275.91 266.84l-.01 5.51-12.9 7.5.01-5.51 12.9-7.5z"/><path class="cls-7" d="M263.01 274.34l-.01 5.51-12.99-7.5.01-5.51 12.99 7.5z"/></g><g class="cls-2"><path class="cls-10" d="M259.36 276.46l-12.9 7.5-12.99-7.5 12.9-7.5 12.99 7.5z"/><path class="cls-4" d="M259.36 276.46l-.01 5.51-12.91 7.5.02-5.51 12.9-7.5z"/><path class="cls-7" d="M246.46 283.96l-.02 5.51-12.98-7.5.01-5.51 12.99 7.5z"/></g><g class="cls-2"><path class="cls-10" d="M242.81 286.08l-12.9 7.5-12.99-7.5 12.9-7.5 12.99 7.5z"/><path class="cls-4" d="M242.81 286.08l-.02 5.51-12.9 7.5.02-5.51 12.9-7.5z"/><path class="cls-7" d="M229.91 293.58l-.02 5.51-12.99-7.5.02-5.51 12.99 7.5z"/></g><g class="cls-2"><path class="cls-10" d="M226.25 295.7l-12.9 7.5-12.99-7.5 12.91-7.5 12.98 7.5z"/><path class="cls-4" d="M226.25 295.7l-.01 5.51-12.9 7.5.01-5.51 12.9-7.5z"/><path class="cls-7" d="M213.35 303.2l-.01 5.51-12.99-7.5.01-5.51 12.99 7.5z"/></g><g class="cls-2"><path class="cls-10" d="M209.7 305.32l-12.9 7.5-12.99-7.5 12.9-7.5 12.99 7.5z"/><path class="cls-4" d="M209.7 305.32l-.01 5.51-12.91 7.5.02-5.51 12.9-7.5z"/><path class="cls-7" d="M196.8 312.82l-.02 5.51-12.98-7.5.01-5.51 12.99 7.5z"/></g><g class="cls-2"><path class="cls-10" d="M193.15 314.94l-12.9 7.5-12.99-7.5 12.9-7.5 12.99 7.5z"/><path class="cls-4" d="M193.15 314.94l-.02 5.51-12.9 7.5.02-5.51 12.9-7.5z"/><path class="cls-7" d="M180.25 322.44l-.02 5.51-12.99-7.5.02-5.51 12.99 7.5z"/></g><g class="cls-2"><path class="cls-10" d="M176.59 324.56l-12.9 7.5-12.98-7.5 12.89-7.5 12.99 7.5z"/><path class="cls-4" d="M176.59 324.56l-.02 5.51-12.89 7.5.01-5.51 12.9-7.5z"/><path class="cls-7" d="M163.69 332.06l-.01 5.51-12.99-7.5.02-5.51 12.98 7.5z"/></g><g class="cls-2"><path class="cls-10" d="M160.04 334.18l-12.9 7.5-12.99-7.5 12.9-7.5 12.99 7.5z"/><path class="cls-4" d="M160.04 334.18l-.02 5.51-12.9 7.5.02-5.51 12.9-7.5z"/><path class="cls-7" d="M147.14 341.68l-.02 5.51-12.98-7.5.01-5.51 12.99 7.5z"/></g><g class="cls-2"><path class="cls-10" d="M143.49 343.8l-12.91 7.5-12.99-7.5 12.91-7.5 12.99 7.5z"/><path class="cls-4" d="M143.49 343.8l-.02 5.51-12.9 7.5.01-5.51 12.91-7.5z"/><path class="cls-7" d="M130.58 351.3l-.01 5.51-12.99-7.5.01-5.51 12.99 7.5z"/></g><g class="cls-2"><path class="cls-10" d="M126.93 353.42l-12.9 7.5-12.99-7.5 12.9-7.5 12.99 7.5z"/><path class="cls-4" d="M126.93 353.42l-.01 5.51-12.91 7.5.02-5.51 12.9-7.5z"/><path class="cls-7" d="M114.03 360.92l-.02 5.51-12.98-7.5.01-5.51 12.99 7.5z"/></g><g class="cls-2"><path class="cls-10" d="M343.21 248.16l-12.9 7.5-12.99-7.5 12.9-7.5 12.99 7.5z"/><path class="cls-4" d="M343.21 248.16l-.02 5.52-12.9 7.49.02-5.51 12.9-7.5z"/><path class="cls-7" d="M330.31 255.66l-.02 5.51-12.98-7.49.01-5.52 12.99 7.5z"/></g><g class="cls-2"><path class="cls-10" d="M326.66 257.78l-12.91 7.5-12.98-7.5 12.9-7.5 12.99 7.5z"/><path class="cls-4" d="M326.66 257.78l-.02 5.52-12.9 7.49.01-5.51 12.91-7.5z"/><path class="cls-7" d="M313.75 265.28l-.01 5.51-12.99-7.49.02-5.52 12.98 7.5z"/></g><g class="cls-2"><path class="cls-10" d="M310.1 267.4l-12.9 7.5-12.99-7.5 12.91-7.5 12.98 7.5z"/><path class="cls-4" d="M310.1 267.4l-.01 5.52-12.9 7.49.01-5.51 12.9-7.5z"/><path class="cls-7" d="M297.2 274.9l-.01 5.51-12.99-7.49.01-5.52 12.99 7.5z"/></g><g class="cls-2"><path class="cls-10" d="M293.55 277.02l-12.9 7.5-12.99-7.5 12.9-7.5 12.99 7.5z"/><path class="cls-4" d="M293.55 277.02l-.01 5.52-12.91 7.49.02-5.51 12.9-7.5z"/><path class="cls-7" d="M280.65 284.52l-.02 5.51-12.98-7.49.01-5.52 12.99 7.5z"/></g><g class="cls-2"><path class="cls-10" d="M277 286.64l-12.9 7.5-12.99-7.5 12.9-7.5 12.99 7.5z"/><path class="cls-4" d="M277 286.64l-.02 5.51-12.9 7.5.02-5.51 12.9-7.5z"/><path class="cls-7" d="M264.1 294.14l-.02 5.51-12.99-7.5.02-5.51 12.99 7.5zm-16.58 9.62l-.02 5.51-12.98-7.5.01-5.51 12.99 7.5z"/></g><g class="cls-2"><g class="cls-2"><g class="cls-2" clip-path="url(#clip-path-2)"><path d="M232 299v5.51a2.46 2.46 0 0 0-.09.34v-5.51c0-.11 0-.23.08-.34" fill="#9e9e9e"/><path d="M232 299.38v5.51a4.78 4.78 0 0 0-.06.53v-5.52a2.31 2.31 0 0 1 .06-.52" fill="#999"/></g></g><g class="cls-2"><g class="cls-2" clip-path="url(#clip-path-3)"><path class="cls-15" d="M250.2 300v5.51a.22.22 0 0 1 0 .08V300"/><path class="cls-16" d="M250.2 300.12v5.51a2.39 2.39 0 0 1-.06.53v-5.52a2.31 2.31 0 0 0 .06-.52"/><path class="cls-17" d="M250.14 300.64v5.52a3.23 3.23 0 0 1-.14.51v-5.51a2.38 2.38 0 0 0 .15-.52"/><path class="cls-18" d="M250 301.16v5.51a3.54 3.54 0 0 1-.25.52v-5.51a3 3 0 0 0 .24-.52"/><path class="cls-19" d="M249.75 301.68v5.51a3.12 3.12 0 0 1-.37.55v-5.51a5.89 5.89 0 0 0 .37-.55"/><path d="M249.38 302.23v5.51a5.25 5.25 0 0 1-.56.61v-5.51a5.3 5.3 0 0 0 .57-.61" fill="#a43839"/><path d="M248.81 302.84v5.51a7.76 7.76 0 0 1-1.16.86v-5.52a6.69 6.69 0 0 0 1.16-.85" fill="#a93a3b"/><path d="M247.65 303.69v5.52l-.11.06v-5.51a.41.41 0 0 0 .11-.07" fill="#ae3c3c"/></g></g><path class="cls-10" d="M234.56 296.26l12.9-7.5 12.98 7.5-12.9 7.5-12.98-7.5z"/><path class="cls-4" d="M260.44 296.26l-.01 5.51-12.9 7.5.01-5.51 12.9-7.5z"/><g class="cls-2"><g class="cls-2" clip-path="url(#clip-path-4)"><path class="cls-19" d="M242.63 305.24v5.51c-.34 0-.68.06-1 .07v-5.52c.34 0 .68 0 1-.06"/><path class="cls-18" d="M241.62 305.3v5.52h-.93v-5.51h.94"/><path class="cls-17" d="M240.68 305.31v5.51c-.31 0-.61 0-.9-.05v-5.51l.9.05"/><path class="cls-16" d="M239.78 305.26v5.51a8.65 8.65 0 0 1-.89-.1v-5.51c.3 0 .59.08.89.1"/><path class="cls-15" d="M238.89 305.16v5.51c-.31 0-.61-.09-.91-.15V305c.3.07.6.12.9.16"/><path d="M238 305v5.52q-.48-.11-1-.24v-5.51a9.61 9.61 0 0 0 1 .23" fill="#872e2f"/><path d="M237 304.77v5.51c-.37-.11-.74-.23-1.1-.37v-5.51c.35.14.72.26 1.1.37" fill="#822d2d"/><path d="M235.93 304.4v5.51a10.89 10.89 0 0 1-1.33-.64c-1.8-1-2.71-2.41-2.7-3.77V300c0 1.36.9 2.73 2.71 3.77a10.23 10.23 0 0 0 1.33.64" fill="#7d2b2c"/></g></g><path class="cls-10" d="M243.89 305.88l-12.9 7.5-12.99-7.5 12.91-7.5 12.98 7.5z"/><path class="cls-4" d="M243.89 305.88l-.01 5.51-12.91 7.5.02-5.51 12.9-7.5z"/><path class="cls-7" d="M230.99 313.38l-.02 5.51-12.98-7.5.01-5.51 12.99 7.5z"/></g><g class="cls-2"><path class="cls-10" d="M227.34 315.5l-12.9 7.5-12.99-7.5 12.9-7.5 12.99 7.5z"/><path class="cls-4" d="M227.34 315.5l-.02 5.51-12.9 7.5.02-5.51 12.9-7.5z"/><path class="cls-7" d="M214.44 323l-.02 5.51-12.99-7.5.02-5.51 12.99 7.5z"/></g><g class="cls-2"><path class="cls-10" d="M210.79 325.12l-12.91 7.5-12.98-7.5 12.9-7.5 12.99 7.5z"/><path class="cls-4" d="M210.79 325.12l-.02 5.51-12.9 7.5.01-5.51 12.91-7.5z"/><path class="cls-7" d="M197.88 332.62l-.01 5.51-12.99-7.5.02-5.51 12.98 7.5z"/></g><g class="cls-2"><path class="cls-10" d="M194.23 334.74l-12.9 7.5-12.99-7.5 12.9-7.49 12.99 7.49z"/><path class="cls-4" d="M194.23 334.74l-.02 5.51-12.9 7.5.02-5.51 12.9-7.5z"/><path class="cls-7" d="M181.33 342.24l-.02 5.51-12.98-7.5.01-5.51 12.99 7.5z"/></g><g class="cls-2"><path class="cls-10" d="M177.68 344.36l-12.9 7.5-12.99-7.5 12.9-7.5 12.99 7.5z"/><path class="cls-4" d="M177.68 344.36l-.02 5.52-12.9 7.49.02-5.51 12.9-7.5z"/><path class="cls-7" d="M164.78 351.86l-.02 5.51-12.99-7.5.02-5.51 12.99 7.5z"/></g><g class="cls-2"><path class="cls-10" d="M161.12 353.98l-12.9 7.5-12.99-7.5 12.9-7.5 12.99 7.5z"/><path class="cls-4" d="M161.12 353.98l-.01 5.52-12.91 7.49.02-5.51 12.9-7.5z"/><path class="cls-7" d="M148.22 361.48l-.02 5.51-12.98-7.49.01-5.52 12.99 7.5z"/></g><g class="cls-2"><path class="cls-10" d="M144.57 363.6l-12.9 7.5-12.99-7.5 12.9-7.5 12.99 7.5z"/><path class="cls-4" d="M144.57 363.6l-.02 5.51-12.9 7.5.02-5.51 12.9-7.5z"/><path class="cls-7" d="M131.67 371.1l-.02 5.51-12.99-7.5.02-5.51 12.99 7.5z"/></g><g class="cls-2"><path class="cls-10" d="M360.84 258.34l-12.9 7.5-12.98-7.49 12.9-7.5 12.98 7.49z"/><path class="cls-4" d="M360.84 258.34l-.01 5.52-12.9 7.5.01-5.52 12.9-7.5z"/><path class="cls-7" d="M347.94 265.84l-.01 5.52-12.99-7.5.02-5.51 12.98 7.49z"/></g><g class="cls-2"><path class="cls-10" d="M344.29 267.96l-12.9 7.5-12.99-7.49 12.91-7.5 12.98 7.49z"/><path class="cls-4" d="M344.29 267.96l-.02 5.52-12.9 7.49.02-5.51 12.9-7.5z"/><path class="cls-7" d="M331.39 275.46l-.02 5.51-12.98-7.49.01-5.51 12.99 7.49z"/></g><g class="cls-2"><path class="cls-10" d="M327.74 277.58l-12.91 7.5-12.98-7.49 12.9-7.5 12.99 7.49z"/><path class="cls-4" d="M327.74 277.58l-.02 5.52-12.9 7.49.01-5.51 12.91-7.5z"/><path class="cls-7" d="M314.83 285.08l-.01 5.51-12.98-7.49.01-5.51 12.98 7.49z"/></g><g class="cls-2"><path class="cls-10" d="M311.18 287.2l-12.9 7.5-12.98-7.5 12.9-7.49 12.98 7.49z"/><path class="cls-4" d="M311.18 287.2l-.01 5.51-12.9 7.5.01-5.51 12.9-7.5z"/><path class="cls-7" d="M298.28 294.7l-.01 5.51-12.99-7.49.02-5.52 12.98 7.5z"/></g><g class="cls-2"><path class="cls-10" d="M294.63 296.82l-12.9 7.5-12.98-7.5 12.9-7.49 12.98 7.49z"/><path class="cls-4" d="M294.63 296.82l-.01 5.51-12.91 7.5.02-5.51 12.9-7.5z"/><path class="cls-7" d="M281.73 304.32l-.02 5.51-12.98-7.49.02-5.52 12.98 7.5z"/></g><g class="cls-2"><path class="cls-10" d="M278.08 306.44l-12.9 7.5-12.99-7.5 12.91-7.49 12.98 7.49z"/><path class="cls-4" d="M278.08 306.44l-.02 5.51-12.9 7.5.02-5.51 12.9-7.5z"/><path class="cls-7" d="M265.18 313.94l-.02 5.51-12.98-7.49.01-5.52 12.99 7.5z"/></g><g class="cls-2"><path class="cls-10" d="M261.52 316.06l-12.9 7.5-12.98-7.5 12.9-7.49 12.98 7.49z"/><path class="cls-4" d="M261.52 316.06l-.01 5.51-12.9 7.5.01-5.51 12.9-7.5z"/><path class="cls-7" d="M248.62 323.56l-.01 5.51-12.99-7.49.02-5.52 12.98 7.5z"/></g><g class="cls-2"><path class="cls-10" d="M244.97 325.68l-12.9 7.5-12.98-7.5 12.9-7.49 12.98 7.49z"/><path class="cls-4" d="M244.97 325.68l-.01 5.51-12.91 7.5.02-5.51 12.9-7.5z"/><path class="cls-7" d="M232.07 333.18l-.02 5.51-12.98-7.49.02-5.52 12.98 7.5z"/></g><g class="cls-2"><path class="cls-10" d="M228.42 335.3l-12.9 7.5-12.99-7.5 12.91-7.49 12.98 7.49z"/><path class="cls-4" d="M228.42 335.3l-.02 5.51-12.9 7.5.02-5.51 12.9-7.5z"/><path class="cls-7" d="M215.52 342.8l-.02 5.51-12.98-7.49.01-5.52 12.99 7.5z"/></g><g class="cls-2"><path class="cls-10" d="M211.86 344.92l-12.9 7.5-12.98-7.5 12.9-7.49 12.98 7.49z"/><path class="cls-4" d="M211.86 344.92l-.02 5.52-12.89 7.49.01-5.51 12.9-7.5z"/><path class="cls-7" d="M198.96 352.42l-.01 5.51-12.99-7.49.02-5.52 12.98 7.5z"/></g><g class="cls-2"><path class="cls-10" d="M195.31 354.54l-12.9 7.5-12.98-7.5 12.89-7.49 12.99 7.49z"/><path class="cls-4" d="M195.31 354.54l-.02 5.52-12.9 7.49.02-5.51 12.9-7.5z"/><path class="cls-7" d="M182.41 362.04l-.02 5.51-12.98-7.49.02-5.52 12.98 7.5z"/></g><g class="cls-2"><path class="cls-10" d="M178.75 364.16l-12.9 7.5-12.98-7.49 12.9-7.5 12.98 7.49z"/><path class="cls-4" d="M178.75 364.16l-.01 5.52-12.9 7.49.01-5.51 12.9-7.5z"/><path class="cls-7" d="M165.85 371.66l-.01 5.51-12.99-7.49.02-5.51 12.98 7.49z"/></g><g class="cls-2"><path class="cls-10" d="M162.2 373.78l-12.9 7.5-12.98-7.49 12.9-7.5 12.98 7.49z"/><path class="cls-4" d="M162.2 373.78l-.01 5.52-12.91 7.49.02-5.51 12.9-7.5z"/><path class="cls-7" d="M149.3 381.28l-.02 5.51-12.98-7.49.02-5.51 12.98 7.49z"/></g><g class="cls-2"><path class="cls-10" d="M328.82 297.39L216.6 362.6l-12.99-7.5 112.22-65.21 12.99 7.5z"/><path class="cls-4" d="M328.82 297.39l-.01 5.51-112.23 65.21.02-5.51 112.22-65.21z"/><path class="cls-7" d="M216.6 362.6l-.02 5.51-12.98-7.49.01-5.52 12.99 7.5z"/></g><g class="cls-2"><path class="cls-10" d="M349.53 342.11l-65.08 37.83-36.71-21.2 65.08-37.82 36.71 21.19z"/></g><g class="cls-2"><path class="cls-7" d="M300.55 205.5l-.54-192.04L44.97 160.88v192.04L300.55 205.5z"/><path class="cls-9" d="M63.21 171.56L281.58 45.48l.42 149.34L63.63 320.9l-.42-149.34z"/><path class="cls-4" d="M300.01 13.46l-15.66-9.1L29 151.78l15.97 9.1L300.01 13.46z"/><path class="cls-6" d="M44.97 160.88L29 151.78l.54 192.04 15.43 9.1V160.88z"/></g><g class="cls-2"><g clip-path="url(#clip-path-5)"><path class="cls-6" d="M380.42 206.68l-22.16-12.88c.21-4.54-1.25-7.91-3.86-9.42l22.16 12.88c2.61 1.51 4.07 4.88 3.86 9.42"/></g><path class="cls-6" d="M443.33 94.09c.28-.09.56-.2.84-.31h.06c.3-.12.61-.26.91-.41l.26-.13c.33-.17.66-.34 1-.54l-22.16-12.91c-.33.19-.66.37-1 .53l-.26.13c-.3.15-.61.29-.91.42H422c-.28.11-.56.22-.84.31l-.24.08c-.19.07-.39.13-.58.18l-.33.09-.32.08-.36.07-.31.06h-.24c-.34 0-.66.08-1 .09h-.99c-.22 0-.44 0-.66-.07h-.09c-.24 0-.46-.09-.69-.15l-.18-.06-.47-.17-.2-.08-.46-.22-.17-.09L436 93.89h.07l.11.06c.14.08.3.15.45.22h.21l.46.17h.18a5.32 5.32 0 0 0 .69.16h.1c.21 0 .43.06.65.07h1.01a8.35 8.35 0 0 0 1-.1h.24l.31-.06.36-.07.32-.08h.33c.19 0 .39-.11.58-.18z"/><path class="cls-9" d="M410.2 126.83c0-.58.06-1.16.05-1.73 0-6.3-2.24-10.73-5.84-12.82L382.25 99.4c3.6 2.09 5.83 6.52 5.84 12.82v2.09c0 .57-.1 1.14-.17 1.71 0 .16-.05.32-.07.48l-.12.81c0 .18-.06.36-.1.54s-.09.52-.15.78-.09.42-.13.63l-.12.52c-.06.23-.11.46-.17.69s-.09.34-.14.51-.08.28-.11.41c-.17.57-.34 1.14-.53 1.71v.15c-.19.56-.39 1.12-.6 1.67-.05.14-.11.28-.16.41-.18.47-.37.94-.57 1.4a2.14 2.14 0 0 1-.1.22c-.22.52-.46 1-.7 1.54-.07.14-.13.27-.2.4-.19.41-.4.81-.61 1.21l-.19.37c-.27.5-.55 1-.83 1.49l-.17.27c-.25.43-.51.86-.77 1.28l-.24.36c-.33.52-.66 1-1 1.52l-.16.23c-.37.51-.74 1-1.12 1.51l-.14.19c-.48.62-1 1.22-1.48 1.8l-.19.22c-.33.38-.66.74-1 1.1-.34.36-.68.71-1 1.05s-.42.42-.64.62l-.2.19c-.29.27-.58.54-.88.8l-.23.19c-.22.2-.44.39-.67.57l-.33.26-.59.47-.36.27-.59.42c-.11.09-.23.17-.35.25l-.64.43-.31.2-1 .58c-.42.24-.84.47-1.26.68l-.36.17c-.32.16-.63.3-1 .44l-.34.14-.86.33-.24.09-1.07.33-.65.16-.27.07c-.3.06-.61.12-.9.16h-.07l-.78.1h-2.1c-.31 0-.61-.06-.91-.11l-.28-.05a8.08 8.08 0 0 1-1-.23c-.31-.09-.61-.2-.91-.32l-.25-.11c-.25-.11-.5-.23-.74-.36l-.24-.13L376.1 161l.11.06.13.07c.24.13.49.25.74.36l.14.07h.11a9.07 9.07 0 0 0 .92.32 8.52 8.52 0 0 0 1 .23h.28a9 9 0 0 0 .91.1h2.1l.78-.1h.08c.29 0 .59-.1.89-.16l.27-.07.59-.14h.06l1.07-.33.24-.09.87-.33h.12l.21-.1c.32-.14.63-.28.95-.44l.36-.17c.42-.21.84-.44 1.26-.68l1-.58.31-.2.64-.43.36-.25.58-.42.36-.27.59-.47.33-.26c.23-.18.45-.37.67-.56l.23-.2c.3-.26.59-.53.88-.8l.21-.19.55-.53.08-.09c.35-.34.69-.69 1-1.05.33-.36.66-.72 1-1.1l.08-.09.11-.13c.5-.58 1-1.18 1.48-1.8l.1-.14c.38-.49.75-1 1.12-1.52l.11-.15.05-.07c.35-.5.68-1 1-1.52a.71.71 0 0 0 .1-.14l.14-.22.78-1.28.12-.2a.25.25 0 0 1 0-.07c.28-.49.56-1 .83-1.49l.07-.12.12-.25c.21-.4.42-.81.61-1.21.05-.08.09-.17.13-.25l.07-.15c.24-.51.48-1 .7-1.54v-.05a1.34 1.34 0 0 1 .07-.18c.2-.46.39-.92.57-1.39l.09-.23a1.34 1.34 0 0 0 .07-.18c.21-.56.41-1.11.6-1.67a.76.76 0 0 1 0-.11c.18-.57.36-1.14.52-1.71l.06-.21a1.46 1.46 0 0 0 .05-.2c.05-.17.09-.34.14-.51s.11-.46.17-.69l.12-.52c0-.13.06-.25.08-.38a2.21 2.21 0 0 0 .05-.25q.09-.39.15-.78c0-.18.07-.36.1-.55l.12-.8.24-.45v-.1c.07-.57.13-1.14.17-1.71.02-.12.02-.19.03-.36z"/><path class="cls-6" d="M347.86 188.49v-2.21a3.4 3.4 0 0 0 0-.45l-.06-.61-.06-.42-.12-.6c0-.12-.05-.25-.08-.38s-.11-.41-.18-.62 0-.2-.09-.3a8.26 8.26 0 0 0-.34-.87 7 7 0 0 0-2.88-3.31l-22.16-12.88a7 7 0 0 1 2.88 3.31 8.26 8.26 0 0 1 .34.87c0 .1.06.21.09.31a6.13 6.13 0 0 1 .18.61c0 .13.05.26.08.39l.12.59c0 .14 0 .28.05.43s.05.4.07.6v2.66l-.06.7c0 .15 0 .3-.05.46 0 .36-.1.72-.16 1.09a.59.59 0 0 0 0 .13c-.06.31-.13.63-.2.95s-.18.77-.28 1.15a2.86 2.86 0 0 1-.07.28c-.12.43-.25.87-.4 1.3v.07c-.14.41-.29.83-.45 1.24a1.8 1.8 0 0 0-.08.21c-.14.35-.28.69-.43 1l-.18.38c-.13.28-.25.57-.39.85s-.15.3-.23.45l-.4.76c-.08.16-.17.32-.26.48-.19.32-.37.65-.57 1L343.61 201c.12-.19.23-.38.34-.57l.23-.4.27-.48.12-.24c.1-.17.18-.35.27-.52s.16-.3.23-.46.05-.09.07-.14c.12-.23.22-.47.32-.7l.18-.38v-.07c.14-.32.27-.65.4-1 0-.07.06-.14.08-.21.16-.41.3-.82.44-1.23.15-.43.28-.87.4-1.3v-.05a1.55 1.55 0 0 0 .06-.23c.1-.39.2-.77.28-1.15v-.15c.06-.27.11-.54.16-.81a.5.5 0 0 1 0-.12c.06-.32.11-.65.15-1v-.14c0-.05 0-.3.05-.45zm66.62-129.61l-13.91-7.81c-.15.27-.3.54-.46.81s-.37.62-.57.93l-.12.19c-.17.27-.35.52-.53.78l-.19.28c-.22.31-.45.62-.68.91l-.09.13c-.32.41-.65.81-1 1.19l-.18.22-.51.56-.21.22-.72.75-.06.05c-.34.34-.69.66-1 1l-.15.14q-.52.45-1.05.87l-.2.15c-.35.28-.71.54-1.06.78l-.17.11c-.38.25-.75.49-1.12.7s-.57.32-.85.46l-.19.09c-.28.14-.55.27-.83.38l-.15.06-.52.2-.23.07-.44.14-.21.06c-.3.08-.6.14-.89.19l-.43.06h-.57a6.57 6.57 0 0 1-.77 0h-.19l-.55-.07h-.18c-.22 0-.44-.09-.65-.15h-.1a4.56 4.56 0 0 1-.52-.18L382 63c-.17-.07-.33-.15-.48-.23l-.16-.09 22.16 12.88h.07l.09.05c.15.08.31.16.48.23l.09.05h.09c.17.06.34.13.52.18h.08c.22.06.43.11.66.15h.17l.55.07h1.51l.36-.05h.07c.29 0 .59-.12.89-.19h.21l.44-.14.23-.07.52-.2.13-.05c.28-.11.55-.24.83-.38l.19-.09c.28-.15.57-.29.85-.46s.74-.45 1.12-.7l.17-.11c.35-.25.71-.5 1.06-.78l.2-.15c.35-.28.71-.57 1.05-.88l.15-.13c.35-.31.7-.63 1-1 .24-.25.48-.49.72-.75l.21-.22.51-.56.09-.11.09-.11c.33-.39.66-.78 1-1.19l.07-.11c.23-.3.46-.6.68-.91l.11-.15.09-.13.52-.78.1-.15q.3-.47.57-.93c.15-.26.3-.52.44-.78l13.91 7.81z"/><path class="cls-4" d="M334.86 179.53l-22.16-12.88-.81-21.99 22.16 12.87.81 22zM380.5 77.5l-22.16-12.88 19.15-11.06 22.16 12.88L380.5 77.5z"/><path class="cls-6" d="M348.06 134.74v-1.38c0-.11 0-.47-.06-.7s0-.19 0-.28c0-.31-.09-.62-.14-.92v-.13c0-.26-.1-.5-.17-.74 0-.09-.05-.18-.08-.28l-.18-.56-.1-.27c-.08-.19-.15-.37-.24-.54a2.29 2.29 0 0 0-.1-.23 7.69 7.69 0 0 0-.39-.69.21.21 0 0 0 0-.06c-.12-.2-.26-.39-.4-.58s-.11-.12-.16-.19l-.35-.39-.19-.18a4.4 4.4 0 0 0-.39-.35l-.18-.14a6.74 6.74 0 0 0-.62-.42L322 112.83a6.74 6.74 0 0 1 .62.42l.18.15a3.17 3.17 0 0 1 .39.34 1.7 1.7 0 0 1 .19.19c.12.12.24.25.35.38l.16.19c.05.06.28.38.4.58v.06a6.68 6.68 0 0 1 .39.7 1.47 1.47 0 0 1 .1.22c.08.17.16.35.23.54s.07.18.11.28l.18.55c0 .1.06.19.08.28.07.24.12.49.17.74a.79.79 0 0 1 0 .13q.09.45.15.93v.27c0 .09.05.46.06.7s0 .23 0 .35v2.08c0 .36-.07.72-.12 1.09v.26c0 .29-.09.57-.14.85 0 .12 0 .24-.07.36s-.09.41-.13.62-.14.6-.22.9-.14.55-.23.83-.22.7-.34 1c-.06.18-.13.36-.19.53l-.27.71-.2.48-.33.75c-.06.14-.13.29-.2.43s-.26.54-.4.81l-.18.36c-.19.36-.39.73-.6 1.08a.43.43 0 0 1 0 .07c-.22.39-.46.77-.7 1.15-.12.19-.25.37-.37.55l-.41.6c-.28.4-.57.79-.86 1.18l-.09.1c-.3.39-.62.78-1 1.16l-.52.59c-.1.1-.19.21-.29.32-.26.28-.53.56-.8.83l-.08.08-.07.06c-.34.34-.7.67-1.06 1l-.37.32-.81.67-.42.32c-.28.21-.56.42-.84.61l-.38.27c-.41.27-.83.53-1.24.78l22.16 12.87c.42-.24.83-.5 1.24-.77l.38-.27c.28-.19.56-.4.84-.61l.42-.32.81-.67.37-.32c.36-.32.72-.65 1.06-1l.06-.05.08-.09c.27-.27.54-.54.8-.83l.29-.31.41-.45.11-.15c.33-.37.65-.76.95-1.15l.08-.09c.3-.38.58-.77.86-1.17.13-.18.25-.37.37-.55s.26-.37.38-.56c.24-.36.46-.73.68-1.1v-.07c.19-.33.38-.67.56-1a.25.25 0 0 0 0-.07l.18-.36c.11-.21.22-.42.32-.64a.89.89 0 0 0 .08-.17c.07-.14.14-.29.2-.43l.22-.48.11-.27.2-.48c0-.12.1-.23.14-.35s.09-.24.13-.36.13-.35.19-.53.07-.18.1-.28c.08-.25.17-.51.24-.77s.11-.34.15-.52.05-.2.08-.3c.08-.31.15-.6.22-.9 0-.1.05-.2.07-.3s0-.21.06-.32.05-.24.07-.36c.06-.28.1-.57.14-.85a2.34 2.34 0 0 0 0-.26v-.09c0-.34.07-.67.1-1v-.21c.26-.37.32-.67.32-.93zm32.18-53.43c0-.11 0-.23.05-.35l.06-.36v-.26q.06-.51.09-1v-1.82l-22.1-12.9v1.83c0 .33-.05.67-.09 1s0 .42-.08.62 0 .24-.05.35c-.05.33-.11.65-.18 1v.17c0 .09-.05.18-.07.26-.08.39-.18.78-.28 1.17 0 .19-.11.38-.17.57s-.15.5-.23.76-.14.42-.22.64-.14.41-.22.62l-.27.69c-.08.18-.15.36-.23.55s-.21.49-.33.73-.14.32-.22.48-.27.56-.42.84c-.06.12-.11.24-.18.36-.21.39-.42.78-.65 1.17 0 .07-.09.14-.13.22-.19.31-.38.63-.58.94l-.33.49c-.15.22-.29.44-.44.65s-.34.47-.52.7-.22.31-.34.46c-.31.4-.64.8-1 1.19s-.59.66-.9 1-.57.57-.85.84l-.45.42-.69.58-.43.36c-.26.2-.52.38-.78.57l-.37.27c-.38.26-.77.5-1.16.73s-.59.32-.89.47l-.23.11a8.84 8.84 0 0 1-.83.38h-.06c-.26.11-.52.2-.78.29l-.22.08-.56.17-.29.08-.32.08-.33.07h-.57c-.32 0-.63.08-.93.1h-1.02c-.24 0-.48-.05-.71-.09h-.12l-.53-.12-.21-.07-.4-.14-.2-.08-.4-.19-.18-.1 22.16 12.88h.07a.6.6 0 0 1 .11.06l.4.19h.2l.4.14h.21a4.54 4.54 0 0 0 .53.12h.1a5.71 5.71 0 0 0 .71.08h1.02a7.5 7.5 0 0 0 .93-.09h.25a1.65 1.65 0 0 0 .32-.06l.33-.06.32-.08h.29l.56-.17.22-.08c.26-.09.52-.18.78-.29.28-.11.56-.24.84-.38l.22-.11c.3-.15.6-.31.89-.48s.78-.47 1.16-.73l.38-.26.77-.57.43-.36.69-.58.45-.42.38-.35.48-.49.86-.94c.33-.38.66-.78 1-1.18v-.05c.11-.13.2-.28.31-.42s.34-.45.51-.69l.05-.07c.14-.19.27-.39.4-.59s.22-.32.32-.48v-.06c.19-.29.36-.58.54-.88l.13-.22c.22-.37.42-.74.62-1.12.06-.11.11-.23.17-.35s.26-.48.37-.73l.06-.11.21-.48c.09-.19.18-.37.26-.56a1.34 1.34 0 0 0 .07-.18l.23-.54c.06-.16.13-.32.19-.49s.05-.13.08-.2.15-.42.22-.62.11-.3.16-.44l.06-.21c.08-.25.16-.5.23-.75s.09-.28.13-.42a.83.83 0 0 1 0-.15c.1-.39.2-.78.28-1.17l.06-.22v-.18c.31-.3.37-.66.42-.99z"/><path class="cls-4" transform="rotate(-59.84 339.482 107.088)" d="M325.73 94.27h27.54v25.63h-27.54z"/><path class="cls-10" d="M433.33 90.89c2.09 4.46 7.22 5.16 13.08 1.77l-.38 22.7c-5.42 3.12-10.27 9.61-12.31 16.56s-.71 13.14 3.4 15.09l-13.64 23.71c-2.49-1.73-6.35-1.29-10.12.89a21.39 21.39 0 0 0-4.83 3.87c-5.17 5.48-8.41 13.36-8.07 19.63l-20 11.57c.31-6.64-3-10.77-8.15-10.27a12.27 12.27 0 0 0-4.84 1.72 28.4 28.4 0 0 0-10.09 10.77l-13.77-7.9c4.09-6.68 5.42-14.3 3.3-19s-6.94-5.45-12.05-2.5l-.81-22a30.35 30.35 0 0 0 13-16.84c2.15-7.19.79-13.32-3.39-15.25l13.81-23.82c2.5 1.71 6.36 1.25 10.12-.93a21.45 21.45 0 0 0 4.74-3.76c5.1-5.35 8.38-13.16 8.16-19.43l19.15-11.06c-.18 6.5 3.13 10.5 8.25 10a12.31 12.31 0 0 0 4.74-1.71 28.45 28.45 0 0 0 10.1-10.7l13.91 7.81c-4.16 6.7-5.49 14.39-3.31 19.08zm-43 68.73c11-6.37 20-21.85 19.93-34.52s-9-17.8-20.06-11.44-20 21.86-19.93 34.53 9 17.8 20.06 11.43"/></g><g class="cls-2"><g clip-path="url(#clip-path-6)"><path class="cls-6" d="M288.67 313.44l-18.6-10.8c.18-3.81-1.05-6.64-3.24-7.91l18.6 10.81c2.18 1.27 3.41 4.09 3.24 7.9"/></g><path class="cls-6" d="M341.46 219l.7-.26h.05c.25-.11.5-.22.76-.35l.22-.11c.27-.14.55-.28.83-.45L325.44 207q-.42.24-.84.45l-.21.1c-.26.13-.52.25-.77.35h-.06c-.23.1-.47.19-.7.27l-.2.06-.49.15-.28.08-.27.06-.3.06h-.46a7.84 7.84 0 0 1-.82.08h-.88l-.55-.07h-.08a5.43 5.43 0 0 1-.58-.13l-.15-.05a3 3 0 0 1-.39-.14l-.17-.06-.39-.19-.14-.08 18.6 10.81h.15l.38.19h.17l.39.14h.16l.57.13h.08a5.14 5.14 0 0 0 .55.06h.89a7.65 7.65 0 0 0 .81-.08h.21l.26-.05.3-.06.27-.07h.27l.49-.15z"/><path class="cls-9" d="M313.65 246.44c0-.49.05-1 .05-1.45 0-5.28-1.89-9-4.9-10.76l-18.6-10.8c3 1.75 4.89 5.47 4.9 10.75v1.76c0 .47-.08.95-.14 1.43l-.06.41c0 .22-.06.45-.1.67s-.05.31-.08.46-.08.43-.13.65-.07.35-.11.53-.07.29-.1.44-.09.38-.14.58l-.12.43-.09.34c-.14.48-.28 1-.44 1.44a.56.56 0 0 0 0 .12c-.16.47-.33.93-.5 1.4l-.14.35q-.23.59-.48 1.17c0 .06-.05.12-.08.19-.18.43-.38.86-.59 1.29l-.16.33-.51 1-.17.3q-.33.63-.69 1.26a1.76 1.76 0 0 0-.14.23c-.21.36-.43.71-.65 1.07l-.2.3c-.28.43-.56.86-.85 1.27a2.43 2.43 0 0 1-.14.2c-.3.43-.61.85-.93 1.27l-.13.16c-.4.51-.81 1-1.24 1.51l-.16.18c-.27.32-.55.62-.83.92-.28.3-.56.59-.85.88l-.54.52-.17.16c-.25.23-.49.46-.74.67l-.19.17-.57.47-.27.22a8.5 8.5 0 0 1-.5.39l-.3.23-.49.36-.3.2-.54.36-.25.17-.81.49c-.35.2-.71.39-1.06.57l-.3.15-.79.36-.29.12-.73.28-.19.07c-.31.1-.61.2-.91.28l-.54.13-.23.06-.75.14h-.06l-.65.07h-1.77c-.26 0-.51-.05-.76-.09h-.23a7.35 7.35 0 0 1-.84-.19 8.71 8.71 0 0 1-.77-.27l-.21-.09c-.21-.09-.42-.2-.62-.31l-.2-.1 18.42 10.8.09.06.11.05c.2.11.41.21.62.3l.12.06h.1c.25.1.5.19.76.27.27.07.55.14.84.19h.23c.25 0 .51.07.77.09h1.76l.65-.08h.07a6.58 6.58 0 0 0 .75-.14l.22-.05.5-.12.9-.28.2-.08.73-.27h.1l.18-.09c.26-.11.53-.23.79-.36l.31-.15c.35-.17.7-.36 1.06-.57s.53-.31.8-.48l.26-.17.54-.36.29-.21c.17-.11.33-.23.5-.36l.3-.22.49-.39.28-.22.56-.47.19-.17c.25-.22.5-.44.74-.67l.17-.16.47-.45.07-.07c.29-.29.58-.58.86-.88.28-.3.56-.61.83-.92l.07-.08.09-.11c.42-.49.84-1 1.24-1.51l.09-.12c.32-.41.63-.84.94-1.27l.09-.13v-.06c.3-.42.58-.84.86-1.27l.08-.12.11-.19c.22-.35.44-.71.65-1.07l.11-.16v-.07c.24-.41.47-.83.7-1.25l.06-.1a2 2 0 0 1 .1-.21c.18-.33.35-.67.51-1a2.12 2.12 0 0 0 .11-.21l.06-.13c.2-.42.4-.85.59-1.29l.06-.15.48-1.17c0-.06.05-.12.07-.19l.06-.16c.18-.46.35-.93.5-1.39v-.1c.16-.48.31-1 .44-1.43l.06-.18a1 1 0 0 1 0-.17c0-.14.07-.28.11-.43s.1-.38.14-.58.07-.29.11-.43 0-.21.07-.32a1.55 1.55 0 0 1 0-.21l.12-.66.09-.45c0-.23.07-.45.1-.68s0-.21.05-.32v-.08c.06-.48.11-1 .14-1.43.37-.22.38-.32.38-.42z"/><path class="cls-6" d="M261.35 298.18v-2.23a4.43 4.43 0 0 0-.06-.51v-.35c0-.11-.07-.34-.1-.51s0-.21-.07-.32-.09-.34-.15-.52a2.33 2.33 0 0 0-.07-.25c-.09-.25-.18-.49-.29-.73a6 6 0 0 0-2.42-2.78l-18.59-10.81A6 6 0 0 1 242 282a7.69 7.69 0 0 1 .28.72l.08.26.15.52.06.32c0 .16.07.33.1.5s0 .23.05.35l.06.51v2.23c0 .13 0 .39-.05.59s0 .25 0 .38c0 .31-.08.61-.14.92a.43.43 0 0 1 0 .11c0 .26-.1.53-.16.8s-.15.64-.23 1a2.1 2.1 0 0 0-.06.24c-.11.36-.22.72-.34 1.09v.06c-.11.34-.24.69-.37 1 0 .06 0 .12-.07.17l-.36.88-.15.32-.33.7-.19.38c-.11.22-.22.43-.34.64s-.14.27-.22.4-.31.55-.48.82l18.6 10.81.29-.48c.06-.11.12-.23.19-.34l.22-.4.11-.2c.08-.14.15-.29.22-.44l.2-.38.06-.12c.09-.2.18-.39.26-.59l.15-.32v-.06c.12-.27.22-.54.33-.81 0-.06.05-.12.07-.17.13-.34.25-.69.37-1 .12-.37.23-.73.33-1.1 0-.07 0-.13.05-.2.09-.32.17-.65.24-1v-.13c0-.22.09-.44.13-.67v-.1q.08-.4.12-.81a.41.41 0 0 0 0-.11v-.38zm55.89-108.75l-11.67-6.56c-.12.23-.25.46-.38.68s-.31.53-.48.78l-.1.17-.44.65-.17.23c-.18.26-.37.52-.56.77a.76.76 0 0 0-.08.11c-.27.34-.54.67-.82 1l-.16.18-.42.47-.18.18c-.2.22-.4.43-.61.63v.05c-.29.28-.58.55-.88.81l-.12.11c-.29.26-.59.5-.88.73l-.17.13c-.3.23-.6.45-.89.65l-.15.1c-.31.21-.62.41-.94.59l-.7.38-.17.08-.69.32h-.12l-.44.17-.2.07-.37.11-.17.05c-.25.06-.51.12-.75.16h-.36a3.87 3.87 0 0 1-.48 0h-.81l-.46-.06h-.14l-.55-.13h-.09a3.81 3.81 0 0 1-.44-.15l-.15-.06-.4-.2-.13-.07 18.59 10.8h.14a3 3 0 0 0 .4.2h.15l.44.15h.07a4.71 4.71 0 0 0 .54.12h2.23a6.69 6.69 0 0 0 .75-.16h.18l.37-.12.19-.06.44-.17h.11c.23-.09.46-.2.69-.31l.16-.09c.24-.11.47-.24.71-.38s.63-.38.94-.59l.14-.09c.3-.2.6-.42.89-.65l.17-.13c.3-.23.59-.48.88-.73l.13-.11c.29-.26.58-.54.87-.82l.61-.63.17-.19.43-.47.07-.08.08-.1c.28-.32.55-.66.82-1l.12.05.57-.77.09-.12.07-.12c.15-.21.3-.43.44-.65l.09-.13c.16-.26.32-.52.47-.78.13-.21.25-.43.37-.65l11.67 6.55z"/><path class="cls-4" d="M250.44 290.66l-18.6-10.8-.68-18.46 18.6 10.81.68 18.45zm38.3-85.61l-18.6-10.81 16.06-9.27 18.6 10.8-16.06 9.28z"/><path class="cls-6" d="M261.51 253.08v-1.16c0-.09 0-.4-.05-.59s0-.15 0-.23c0-.26-.07-.52-.12-.77v-.12c0-.21-.09-.41-.14-.61s-.05-.16-.07-.24l-.15-.46-.09-.24-.19-.45-.09-.19a5.45 5.45 0 0 0-.33-.58v-.05a5.85 5.85 0 0 0-.34-.48c0-.06-.09-.11-.13-.16s-.19-.23-.29-.33l-.16-.16-.33-.28-.15-.13c-.17-.12-.34-.24-.52-.35l-18.6-10.8a3.64 3.64 0 0 1 .52.35l.15.12a3.11 3.11 0 0 1 .33.29l.16.15.29.33.14.16a5.85 5.85 0 0 1 .34.48 5.54 5.54 0 0 1 .32.59l.09.18c.07.15.13.3.2.46s0 .15.08.23a3.68 3.68 0 0 1 .15.47 2 2 0 0 1 .07.23 6.23 6.23 0 0 1 .15.62.52.52 0 0 1 0 .11q.07.38.12.78a1.64 1.64 0 0 1 0 .23c0 .19 0 .38.05.58s0 .2 0 .29v1.58a1.09 1.09 0 0 0 0 .18c0 .3-.06.6-.1.91v.22c0 .24-.07.47-.11.71l-.06.3c0 .18-.07.35-.11.52s-.12.5-.19.75-.12.47-.19.7-.19.59-.29.88l-.15.44c-.08.2-.16.4-.23.6s-.11.27-.17.4l-.27.63-.17.36c-.11.23-.22.45-.34.68l-.15.3c-.16.31-.33.61-.5.91a.21.21 0 0 0 0 .06c-.19.32-.38.64-.59 1-.1.16-.2.31-.31.46l-.34.51c-.23.33-.47.66-.72 1l-.07.09c-.26.33-.53.65-.8 1l-.44.5-.24.26c-.22.24-.45.47-.67.7l-.07.07-.06.05c-.29.29-.59.57-.89.83l-.31.27-.68.56-.35.27c-.23.18-.47.35-.71.52l-.32.22c-.34.23-.69.45-1 .65l18.6 10.81c.35-.21.69-.43 1-.66l.32-.22c.23-.16.47-.33.7-.51l.35-.27.69-.57.31-.26.89-.83v-.05l.07-.07c.23-.23.45-.46.67-.7.09-.09.16-.18.24-.27l.35-.37.09-.12c.28-.32.54-.64.8-1l.06-.08c.25-.32.49-.65.73-1 .11-.15.21-.31.31-.47l.32-.46.57-.93v-.05c.16-.28.32-.56.47-.85v-.06c.06-.1.11-.21.16-.31l.27-.53.06-.14c.06-.12.12-.25.17-.37l.18-.39.09-.23c.06-.14.12-.27.17-.4l.12-.3.11-.3c0-.15.11-.3.16-.44a2.25 2.25 0 0 0 .08-.24l.21-.64.12-.44c0-.09 0-.17.07-.26l.18-.75a2.44 2.44 0 0 0 .06-.26 2.38 2.38 0 0 0 .05-.26l.06-.3q.07-.36.12-.72v-.21a.22.22 0 0 0 0-.08q.06-.42.09-.84a1 1 0 0 0 0-.17c.11-.32.12-.56.12-.79zm27-44.83c0-.1 0-.2.05-.29s0-.21 0-.31v-.21c0-.29.06-.58.08-.86v-1.53l-18.6-10.81v1.53c0 .29-.05.57-.08.86s0 .35-.07.52 0 .19 0 .29c0 .27-.09.55-.15.82v.14a1.89 1.89 0 0 1-.05.23c-.07.32-.15.65-.24 1 0 .15-.09.31-.14.47s-.13.42-.19.64-.13.36-.19.53-.12.35-.19.53l-.22.57-.19.46c-.09.21-.18.42-.28.62l-.18.4c-.11.24-.23.47-.35.71l-.15.3c-.18.33-.36.66-.55 1a1.74 1.74 0 0 0-.11.18c-.16.27-.32.53-.49.79s-.18.28-.28.42-.24.37-.37.55-.28.39-.43.58-.19.26-.29.38c-.26.34-.53.68-.81 1l-.75.83-.72.7-.38.35-.57.49-.37.3c-.21.17-.43.32-.65.48l-.31.22c-.32.22-.65.43-1 .62l-.75.4-.19.09-.7.32h-.05l-.65.25-.19.06-.47.14-.24.07-.28.07-.27.05h-.48c-.26 0-.52.06-.78.07h-.85a4.09 4.09 0 0 1-.6-.07h-.1l-.44-.1h-.18l-.33-.12-.17-.07-.34-.16-.15-.08 18.59 10.81h.06l.1.05.33.16h.17l.34.11h.17l.44.1h.09l.59.07h.06a.27.27 0 0 1 .09 0h.71a6.94 6.94 0 0 0 .77-.08h.49l.27-.06.27-.06h.24l.47-.14.19-.07q.33-.1.66-.24c.23-.09.46-.2.69-.31l.2-.1.74-.4c.33-.19.65-.39 1-.61l.32-.23c.21-.15.43-.3.64-.47l.37-.3c.19-.16.39-.32.57-.49l.38-.35c.11-.1.22-.19.32-.3s.27-.27.4-.41.49-.52.72-.79c.28-.33.55-.66.82-1 .09-.11.17-.23.26-.35s.29-.38.43-.58v-.06c.12-.16.22-.33.33-.49l.28-.41.45-.73.11-.19c.18-.31.35-.62.52-.94l.15-.29c.1-.21.21-.41.31-.61v-.1c.07-.13.13-.27.19-.4s.15-.32.21-.48a.59.59 0 0 0 .06-.14c.07-.15.13-.3.19-.46s.11-.27.17-.4l.06-.18c.06-.17.13-.34.19-.52s.09-.24.13-.37 0-.11 0-.17c.07-.21.13-.42.2-.63s.07-.24.1-.36v-.12c.09-.33.17-.65.24-1a1.21 1.21 0 0 0 .05-.18v-.15q.47-.6.53-1z"/><path class="cls-4" transform="rotate(-59.84 254.317 229.873)" d="M242.77 219.12h23.11v21.51h-23.11z"/><path class="cls-10" d="M333.07 216.28c1.75 3.75 6.05 4.33 11 1.49l-.31 19c-4.55 2.62-8.62 8.07-10.33 13.9s-.6 11 2.85 12.67l-11.48 19.93c-2.09-1.45-5.33-1.08-8.49.75a17.73 17.73 0 0 0-4.06 3.25c-4.34 4.59-7.05 11.21-6.77 16.47l-16.81 9.7c.25-5.57-2.49-9-6.84-8.61a10.27 10.27 0 0 0-4.06 1.44 23.72 23.72 0 0 0-8.47 9l-11.52-6.63c3.43-5.61 4.54-12 2.77-15.92s-5.82-4.57-10.11-2.1l-.68-18.45a25.5 25.5 0 0 0 10.92-14.13c1.8-6 .66-11.18-2.85-12.81l11.59-20c2.1 1.43 5.33 1.05 8.49-.78a17.67 17.67 0 0 0 4-3.16c4.29-4.49 7-11 6.86-16.3l16.06-9.28c-.15 5.45 2.63 8.81 6.92 8.35a10.18 10.18 0 0 0 4-1.43 23.85 23.85 0 0 0 8.47-9l11.67 6.55c-3.54 5.72-4.66 12.17-2.82 16.1zM297 274c9.25-5.34 16.75-18.33 16.72-29s-7.58-14.94-16.83-9.6-16.76 18.34-16.73 29 7.56 14.9 16.84 9.6"/></g><path opacity=".1" fill="#1a73a0" d="M420.98 275.4l-21.45-12.88-73.71 42.65-.38-.22-94.28 54.43 18.6 10.81 80.09-46.24 3.54 2.13 87.59-50.68z"/></g></svg>