<?xml version="1.0" encoding="utf-8"?>
<!-- Generator: Adobe Illustrator 22.0.1, SVG Export Plug-In . SVG Version: 6.00 Build 0)  -->
<svg version="1.1" id="Layer_1" xmlns="http://www.w3.org/2000/svg" xmlns:xlink="http://www.w3.org/1999/xlink" x="0px" y="0px"
	 viewBox="0 0 500 500" style="enable-background:new 0 0 500 500;" xml:space="preserve">
<style type="text/css">
	.st0{fill:#FFFFFF;}
	.st1{fill:#ECF0F1;}
	.st2{fill:#3D98D3;}
	.st3{fill:#495C6E;}
	.st4{fill:#2C3E50;}
	.st5{fill:#34495E;}
	.st6{fill:#F7DC6F;}
	.st7{fill:#E49701;}
	.st8{fill:#F1C40F;}
	.st9{fill:#B7D162;}
	.st10{fill:#8EB021;}
	.st11{fill:#A5C63B;}
	.st12{fill:#0075A8;}
	.st13{fill:#B1CDEB;}
</style>
<title>spot</title>
<g>
	<path class="st0" d="M423.1,199.9c2.5,1.6,4,4.3,4.2,7.3l-0.6,208.1c0,2.7-1.9,3.8-4.2,2.4l-284.1-164c-2.5-1.6-4-4.3-4.2-7.3
		l0.6-208.2c0-2.7,1.9-3.7,4.2-2.4L423.1,199.9z"/>
	<g>
		<path class="st1" d="M466.5,184.2c-0.1-1-0.2-1.8-0.6-2.6c-0.3-0.7-0.8-1.6-1.3-2.3c-0.3-0.4,0-0.2-0.3-0.2
			c-0.3,0.1-0.6,0.4-0.9,0.5c-2.7,1.6-5.5,3.2-8.2,4.8c-8,4.6-16,9.3-24,13.9c-2,1.2-4,2.3-6,3.5c1.3,1.5,1.9,3.4,1.9,5.3
			c0,0.2,0,0.3,0,0.5c0,1.1,0,2.1,0,3.2c0,4.7,0,9.3,0,14c0,7.4,0,14.7-0.1,22.1c0,9.3-0.1,18.6-0.1,27.8c0,10.2-0.1,20.5-0.1,30.7
			c0,10.4-0.1,20.8-0.1,31.2c0,9.8-0.1,19.5-0.1,29.3c0,8.1,0,16.3-0.1,24.4c0,5.8,0,11.5,0,17.3c0,2.5,0,5.1,0,7.6
			c0,1-0.2,2.2-1.2,2.8c4.6-2.7,9.1-5.3,13.7-8c7.1-4.1,14.2-8.2,21.3-12.4c1.1-0.6,2.2-1.3,3.2-1.9c0.7-0.4,1.5-0.7,1.9-1.5
			c0.3-0.7,0.2-1.8,0.2-2.5c0-1.2,0-2.4,0-3.6c0-4.8,0-9.6,0-14.4c0-7.4,0-14.7,0.1-22.1c0-9.1,0.1-18.3,0.1-27.4
			c0-10,0.1-20.1,0.1-30.1c0-10.3,0.1-20.5,0.1-30.8c0-9.5,0.1-19.1,0.1-28.6c0-8.1,0-16.2,0.1-24.3c0-5.8,0-11.6,0-17.5
			c0-1.8,0-3.6,0-5.4c0-0.9-0.1-1.9,0-2.8C466.3,184.4,466.2,184.6,466.5,184.2z"/>
		<path class="st2" d="M464.4,179.1L464.4,179.1l-0.1-0.2l0,0c0-0.1-0.1-0.1-0.2-0.2l-0.2-0.2l0,0l0,0l-0.1-0.1l-0.2-0.2h0l0,0
			l-0.1-0.1l-0.2-0.2l-0.1-0.1l0,0l-0.1-0.1l-0.2-0.1l-0.1-0.1l0,0l0,0l-0.2-0.1l-0.2-0.1l0,0l-284.1-164l-0.1-0.1l-0.2-0.1H178l0,0
			l0,0l-0.2-0.1l-0.2-0.1h-0.1h-0.1l-0.2-0.1h-0.2c-0.1,0-0.1,0-0.2,0h-0.1h-0.5h-0.2l0,0H176c-0.1,0-0.1,0-0.2,0.1l0,0
			c-0.1,0-0.2,0.1-0.3,0.1l-39.4,22.3l0.3-0.2l0.2-0.1h0.1c0.1,0,0.2,0,0.3,0h0.4l0.4,0.1l0,0l0.4,0.1l0,0c0.1,0,0.3,0.1,0.4,0.2
			l0,0c0.1,0.1,0.3,0.1,0.4,0.2l284.1,164c0.1,0.1,0.3,0.2,0.4,0.3l0,0c0.1,0.1,0.3,0.2,0.4,0.3l0,0l0.4,0.3l0,0
			c0.1,0.1,0.2,0.2,0.4,0.4l0,0l0.4,0.4l0,0c1.3,1.6,2.1,3.5,2.2,5.5l39.3-22.8C466.4,182.3,465.6,180.6,464.4,179.1z"/>
		<path class="st1" d="M463.1,464.4L463.1,464.4L463.1,464.4l-0.2-0.2l-0.1-0.1l0,0l0,0l-0.2-0.1l-0.2-0.1l0,0l-284.1-164l-0.1-0.1
			l-0.2-0.1l-0.1,0l0,0l0,0l-0.2-0.1l-0.2-0.1h-0.1h-0.1h-0.2h-0.1H177c-0.1,0-0.1,0-0.2,0h-0.1h-0.5H176l0,0h-0.1
			c-0.1,0-0.1,0-0.2,0.1l0,0l-0.3,0.1l-39.1,22.7l0.3-0.1l0.2-0.1h0.1c0.1,0,0.2,0,0.3,0h0.4l0.4,0.1l0,0c0.1,0,0.2,0.1,0.4,0.1l0,0
			l0.4,0.1l0,0l0.4,0.2l284.1,164"/>
	</g>
</g>
<g>
	<polygon class="st3" points="39.4,306.9 71,325.2 102.4,306.9 71,288.7 	"/>
	<polygon class="st4" points="39.4,306.9 39.9,348.3 71,366.5 71,325.2 	"/>
	<polygon class="st5" points="71,325.2 71,366.5 102.9,348.3 102.4,306.9 	"/>
</g>
<g>
	<polygon class="st6" points="82.4,258.7 114,276.9 145.4,258.7 114,240.4 	"/>
	<polygon class="st7" points="82.4,258.7 82.9,373.4 114,391.7 114,276.9 	"/>
	<polygon class="st8" points="114,276.9 114,391.7 146,373.4 145.4,258.7 	"/>
</g>
<g>
	<polygon class="st9" points="125.1,210.4 156.7,228.7 188.1,210.4 156.7,192.1 	"/>
	<polygon class="st10" points="125.1,210.4 125.6,396.7 156.7,415 156.7,228.7 	"/>
	<polygon class="st11" points="156.7,228.7 156.7,415 188.6,396.7 188.1,210.4 	"/>
</g>
<path class="st12" d="M134.7,56.7l0.1-18.5c0-2.7,1.9-3.7,4.2-2.4l284.1,164c2.5,1.6,4,4.3,4.2,7.3v18.7L134.7,56.7z"/>
<polygon class="st2" points="427.4,205.1 466.5,184.2 466.5,203 427.3,225.8 "/>
<g>
	<path class="st0" d="M255.2,304.1c13.4,7.8,26.9,21.4,37.1,39.1c20.5,35.5,20.4,73.7-0.2,85.4c-10.3,5.9-23.8,4-37.2-3.8
		s-26.9-21.4-37.1-39.1c-20.5-35.5-20.4-73.7,0.2-85.4C228.3,294.4,241.8,296.3,255.2,304.1z"/>
	<path class="st13" d="M281.6,410.3c2-1.1,3.1-4.1,3.8-6.4c3.4-12.6-1-32.2-11.4-50.1c-8.1-14-18.5-25.1-29.4-31.4
		c-4.8-2.8-9.6-4.4-13-4.4c-1.1,0-2.2,0.2-3.1,0.7c-2,1.1-3.1,4.1-3.8,6.4c-3.4,12.6,1,32.2,11.4,50.1l-13.1,7.5
		c-12.4-21.5-17.3-45.1-12.9-61.6c2-7.4,5.6-12.6,10.9-15.6c3.2-1.8,6.9-2.7,10.6-2.6c6.2,0,13.3,2.2,20.6,6.4
		c13.1,7.6,25.5,20.7,34.9,36.9c12.4,21.5,17.3,45.1,12.9,61.6c-2,7.4-5.6,12.6-10.9,15.6L281.6,410.3z"/>
	<path class="st1" d="M329.3,382.3C329.3,382.3,329.3,382.3,329.3,382.3c0-0.8,0-1.5,0-2.3c0-0.1,0-0.2,0-0.2v-0.2
		c0-0.7-0.1-1.5-0.1-2.2v-0.1c0-0.1,0-0.2,0-0.2c0-0.8-0.1-1.5-0.2-2.3l0,0l0,0c-0.1-0.8-0.2-1.5-0.3-2.3v-0.3c0-0.1,0-0.1,0-0.2
		c-0.1-0.8-0.2-1.5-0.3-2.3c0-0.1,0-0.1,0-0.2s0-0.2,0-0.3c-0.1-0.8-0.3-1.6-0.4-2.4l0,0c0,0,0-0.1,0-0.1c-0.1-0.8-0.3-1.6-0.5-2.4
		c0-0.1,0-0.2,0-0.2v-0.1c-0.2-0.8-0.4-1.6-0.6-2.4c0-0.1,0-0.2,0-0.2l-0.1-0.2c-0.2-0.8-0.4-1.6-0.6-2.4c0,0,0-0.1,0-0.1
		c0-0.1,0-0.2-0.1-0.2c-0.2-0.8-0.5-1.6-0.7-2.4v-0.2v-0.1c-0.2-0.8-0.5-1.6-0.8-2.4l-0.1-0.3c0-0.1-0.1-0.2-0.1-0.2
		c-0.3-0.8-0.5-1.5-0.8-2.3v-0.1c0-0.1-0.1-0.2-0.1-0.2c-0.2-0.7-0.5-1.4-0.8-2l-0.1-0.3l-0.1-0.2c-0.3-0.7-0.6-1.5-0.9-2.2
		l-0.1-0.1c0-0.1-0.1-0.2-0.1-0.3c-0.3-0.6-0.5-1.2-0.8-1.9c0-0.1-0.1-0.2-0.1-0.3c0-0.1-0.1-0.1-0.1-0.2c-0.3-0.7-0.7-1.5-1-2.2
		c0-0.1,0-0.1-0.1-0.1l-0.1-0.3c-0.3-0.7-0.7-1.5-1.1-2.2l-0.1-0.2v-0.1c-0.5-1-1-2-1.5-2.9l-0.1-0.2l-0.1-0.2
		c-0.2-0.4-0.4-0.8-0.6-1.2l-0.3-0.6c-0.3-0.6-0.7-1.2-1-1.8l-0.3-0.6l-0.1-0.2c-0.7-1.1-1.4-2.3-2-3.4l-0.2-0.3
		c-0.7-1.2-1.5-2.3-2.2-3.4v0l0,0c-0.4-0.6-0.9-1.2-1.3-1.9c-0.1-0.2-0.2-0.3-0.4-0.5l-1-1.4c-0.1-0.1-0.2-0.2-0.2-0.3l-0.1-0.1
		c-0.6-0.9-1.3-1.7-2-2.6l-0.1-0.2l-0.1-0.1c-0.6-0.7-1.2-1.5-1.8-2.2l-0.1-0.2l-0.2-0.2c-0.6-0.7-1.1-1.4-1.7-2l-0.1-0.1l-0.2-0.2
		c-0.6-0.7-1.2-1.4-1.9-2.1l0,0l0,0c-0.7-0.7-1.3-1.4-2-2.1l-0.1-0.2l-0.1-0.1c-0.7-0.7-1.3-1.3-2-2l-0.2-0.2l-0.1-0.1
		c-0.7-0.6-1.4-1.3-2-1.9l-0.2-0.2l-0.1-0.1c-0.7-0.6-1.4-1.2-2.1-1.8l-0.1-0.1l-0.2-0.1c-0.7-0.6-1.4-1.1-2-1.7l-0.1-0.1l-0.2-0.1
		c-0.7-0.5-1.4-1-2-1.6l-0.1-0.1L284,296c-0.7-0.5-1.4-1-2.1-1.5l0,0l-0.1-0.1l-2-1.3l-0.1-0.1h-0.1c-0.6-0.4-1.3-0.8-1.9-1.2
		l-0.2-0.1l-0.5-0.3l-1.5-0.8l-0.2-0.1l-0.2-0.1c-0.6-0.3-1.3-0.7-1.9-1l0,0c-0.6-0.3-1.3-0.6-1.9-0.9l-0.2-0.1l-0.1-0.1l-1.8-0.8
		l-0.1-0.1l-0.2-0.1c-0.6-0.2-1.3-0.5-1.9-0.7l0,0h-0.1c-0.6-0.2-1.2-0.4-1.9-0.6l-0.2-0.1h-0.1c-0.6-0.2-1.3-0.4-1.9-0.5l-0.2-0.1
		h-0.1c-0.6-0.2-1.3-0.3-1.9-0.4h-0.1L260,285l-0.5-0.1l-0.7-0.1l-0.5-0.1h-0.2l-0.5,0l-0.6-0.1l-0.6-0.1l-0.6,0h-0.1h-0.4h-0.7H253
		h-0.8h-0.5l-0.8,0.1h-0.3h-0.1l-1.3,0.2H249l-1.2,0.2c-0.1,0-0.1,0-0.2,0h-0.2c-0.6,0.1-1.1,0.2-1.6,0.4h-0.1
		c-0.5,0.1-1,0.3-1.5,0.5H244h-0.1l-0.6,0.2l-0.4,0.2l-0.6,0.3l-0.4,0.2l-0.7,0.3l-0.3,0.2c-0.3,0.2-0.7,0.4-1,0.5l0,0L218,300.3
		c0.3-0.2,0.7-0.4,1-0.5l0.3-0.2l0.7-0.3l0.4-0.2l0.6-0.3l0.4-0.2l0.6-0.2l0.2-0.1c0.5-0.2,1-0.3,1.5-0.5l0.1,0
		c0.5-0.1,1.1-0.3,1.6-0.4l0.3-0.1l1.2-0.2h0.1c0.4-0.1,0.9-0.1,1.4-0.2h0.4l0.8,0h0.5h0.8h1.1h0.5h0.7h0.5l0.6,0l0.6,0l0.6,0.1
		l0.6,0.1l0.5,0.1l0.6,0.1l0.5,0.1l0.5,0.1c0.6,0.1,1.3,0.3,1.9,0.4l0.3,0.1c0.6,0.2,1.3,0.3,1.9,0.5l0.2,0.1
		c0.6,0.2,1.2,0.4,1.9,0.6h0.1c0.6,0.2,1.2,0.5,1.9,0.7l0.4,0.1c0.6,0.2,1.2,0.5,1.8,0.8l0.3,0.1c0.6,0.3,1.3,0.6,1.9,0.9l0,0
		c0.6,0.3,1.3,0.7,1.9,1l0.4,0.2c0.5,0.3,1,0.5,1.5,0.8l0.7,0.4c0.7,0.4,1.3,0.8,1.9,1.2l0.2,0.1c0.7,0.4,1.3,0.9,2,1.3l0.1,0.1
		c0.7,0.5,1.4,1,2.1,1.5l0.3,0.2c0.7,0.5,1.4,1,2,1.5l0.3,0.3c0.7,0.5,1.4,1.1,2,1.7l0.3,0.3c0.7,0.6,1.4,1.2,2,1.8l0.3,0.3
		c0.7,0.6,1.4,1.2,2,1.9l0.3,0.3c0.7,0.6,1.3,1.3,2,2l0.2,0.2c0.7,0.7,1.3,1.4,2,2.1l0,0c0.6,0.7,1.2,1.4,1.9,2.1l0.3,0.3
		c0.6,0.7,1.1,1.3,1.7,2l0.3,0.4c0.6,0.7,1.2,1.4,1.8,2.2l0.2,0.3c0.7,0.9,1.3,1.7,2,2.6c0.1,0.1,0.2,0.3,0.3,0.4
		c0.3,0.5,0.7,0.9,1,1.4c0.1,0.2,0.2,0.3,0.4,0.5c0.4,0.6,0.9,1.2,1.3,1.9l0.1,0.1c0.8,1.1,1.5,2.3,2.2,3.4c0.1,0.1,0.1,0.2,0.2,0.3
		c0.7,1.1,1.4,2.2,2,3.4l0.4,0.8l1,1.8c0.1,0.2,0.2,0.4,0.3,0.6c0.2,0.4,0.4,0.8,0.6,1.2c0.1,0.1,0.1,0.2,0.2,0.4c0.5,1,1,2,1.5,2.9
		l0.1,0.3c0.4,0.7,0.7,1.5,1.1,2.2l0.2,0.4c0.4,0.7,0.7,1.5,1,2.2c0.1,0.2,0.1,0.3,0.2,0.5c0.3,0.6,0.5,1.2,0.8,1.9
		c0.1,0.1,0.1,0.3,0.2,0.4c0.3,0.7,0.6,1.5,0.9,2.2c0.1,0.2,0.1,0.3,0.2,0.5c0.3,0.7,0.5,1.4,0.8,2c0,0.1,0.1,0.2,0.1,0.4
		c0.3,0.8,0.5,1.5,0.8,2.3c0.1,0.2,0.1,0.3,0.2,0.5c0.3,0.8,0.5,1.6,0.8,2.4c0,0.1,0,0.1,0.1,0.2c0.2,0.8,0.5,1.6,0.7,2.4
		c0,0.1,0.1,0.2,0.1,0.4c0.2,0.8,0.4,1.6,0.6,2.4l0.1,0.5c0.2,0.8,0.4,1.6,0.6,2.4c0,0.1,0,0.2,0.1,0.4c0.2,0.8,0.3,1.6,0.5,2.4v0.2
		c0.1,0.8,0.3,1.6,0.4,2.4c0,0.1,0,0.3,0.1,0.4c0.1,0.8,0.2,1.5,0.3,2.3l0.1,0.4c0.1,0.8,0.2,1.6,0.2,2.3l0,0
		c0.1,0.8,0.1,1.5,0.2,2.3v0.4c0,0.7,0.1,1.5,0.1,2.2c0,0.1,0,0.3,0,0.4c0,0.7,0,1.5,0,2.2c0,0.1,0,0.1,0,0.2c0,0.7,0,1.5,0,2.2v0.2
		c0,0.7-0.1,1.5-0.1,2.2v0.4c-0.1,0.7-0.1,1.5-0.2,2.2c0,0.1,0,0.2,0,0.4c-0.1,0.8-0.2,1.5-0.3,2.2l-0.1,0.3
		c-0.1,0.8-0.3,1.5-0.5,2.2c0,0.2-0.1,0.3-0.1,0.5l-0.2,0.8l-0.1,0.6c-0.1,0.2-0.1,0.5-0.2,0.7s-0.1,0.4-0.2,0.5s-0.2,0.6-0.3,0.9
		c0,0.1-0.1,0.3-0.1,0.4c-0.1,0.4-0.3,0.9-0.5,1.3l0,0c-0.2,0.5-0.3,0.9-0.5,1.4l-0.2,0.4c-0.1,0.4-0.3,0.7-0.5,1
		c0,0.1-0.1,0.2-0.1,0.3c-0.3,0.5-0.5,1.1-0.8,1.6c0,0.1-0.1,0.2-0.2,0.3c-0.3,0.5-0.6,1-0.9,1.5l-0.2,0.3c-0.2,0.3-0.5,0.7-0.7,1
		l-0.2,0.3c-0.3,0.4-0.6,0.8-0.9,1.1l-0.2,0.2c-0.2,0.3-0.5,0.6-0.8,0.9c-0.1,0.1-0.1,0.2-0.2,0.3c-0.3,0.4-0.7,0.7-1,1l-0.2,0.2
		c-0.3,0.3-0.6,0.5-0.9,0.8l-0.3,0.2c-0.4,0.3-0.7,0.6-1.1,0.9l-0.1,0.1c-0.4,0.2-0.7,0.5-1.1,0.7l-0.3,0.2
		c-0.4,0.3-0.8,0.5-1.2,0.8l21.8-12.5c0.4-0.2,0.8-0.5,1.2-0.8l0.3-0.2c0.4-0.2,0.7-0.5,1.1-0.7l0.1-0.1c0.4-0.3,0.8-0.6,1.1-0.9
		l0.3-0.2c0.3-0.3,0.6-0.5,0.9-0.8l0.2-0.2c0.3-0.3,0.7-0.7,1-1c0.1-0.1,0.1-0.2,0.2-0.3c0.3-0.3,0.5-0.6,0.8-0.9l0.2-0.2
		c0.3-0.4,0.6-0.8,0.9-1.1l0.2-0.3c0.2-0.3,0.5-0.7,0.7-1l0.1-0.2l0.1-0.1c0.3-0.5,0.6-1,0.9-1.5l0.2-0.3c0.3-0.5,0.6-1.1,0.8-1.6
		c0,0,0-0.1,0-0.1c0-0.1,0.1-0.1,0.1-0.2c0.2-0.3,0.3-0.7,0.5-1l0.2-0.4c0.2-0.5,0.4-0.9,0.5-1.4l0,0l0,0c0.2-0.4,0.3-0.9,0.5-1.3
		c0-0.1,0.1-0.3,0.1-0.4c0.1-0.3,0.2-0.6,0.3-0.9l0.1-0.2c0-0.1,0.1-0.2,0.1-0.3l0.2-0.8c0-0.2,0.1-0.4,0.1-0.5s0.1-0.5,0.2-0.8
		s0-0.2,0.1-0.3v-0.1c0.2-0.7,0.3-1.5,0.5-2.2v-0.2v-0.1c0.1-0.7,0.2-1.5,0.3-2.2c0-0.1,0-0.1,0-0.2s0-0.1,0-0.2
		c0.1-0.7,0.2-1.5,0.2-2.2c0,0,0-0.1,0-0.1s0-0.1,0-0.2c0-0.7,0.1-1.5,0.1-2.2c0,0,0,0,0-0.1v-0.2c0-0.7,0-1.5,0-2.2
		C329.3,382.4,329.3,382.4,329.3,382.3z"/>
</g>
<path class="st2" d="M274,353.8c-8.1-14-18.5-25.1-29.4-31.4c-4.8-2.8-9.6-4.4-13-4.4c-1.1,0-2.2,0.2-3.1,0.7
	c-2,1.1-3.1,4.1-3.8,6.4c-3.4,12.6,1,32.2,11.4,50.1l-13.1,7.5c-12.4-21.5-17.3-45.1-12.9-61.6c2-7.4,5.6-12.6,10.9-15.6
	c3.2-1.8,6.9-2.7,10.6-2.6c6.2,0,13.3,2.2,20.6,6.4c13.1,7.6,25.5,20.7,34.9,36.9L274,353.8z"/>
</svg>
