<svg id="Layer_1" xmlns="http://www.w3.org/2000/svg" viewBox="0 0 500 500"><style>.st0{enable-background:new}.st3{fill:#8db9e3}.st4{fill:#d6e3f4}.st5{fill:#b1cdeb}.st8{fill:#69a7db}</style><g class="st0"><path d="M478.235 387.675c2.24 1.294 2.253 3.41.027 4.703L304.4 493.416c-2.223 1.292-5.876 1.292-8.117-.002L21.827 334.957c-2.24-1.294-2.253-3.41-.03-4.702L195.66 229.218c2.226-1.294 5.879-1.294 8.12 0l274.455 158.457z" fill="#1a73a0" opacity=".3"/><path class="st3" d="M479.91 329.901c-.006.062-.01.123-.021.184-.01.049-.024.097-.037.146-.015.058-.03.116-.05.173-.016.048-.038.094-.059.141-.026.06-.052.12-.084.179-.023.043-.05.086-.077.129a2.723 2.723 0 0 1-.282.384l-.04.048c-.074.08-.156.16-.242.238-.054.048-.114.095-.173.142-.053.043-.104.087-.162.129-.063.046-.133.09-.202.134-.072.048-.141.096-.22.142l-173.86 101.037-.063 21.836L478.2 353.906l.07-.04c.052-.033.098-.068.148-.1.07-.045.14-.09.204-.136.057-.042.107-.085.16-.127.06-.048.12-.095.175-.144.01-.01.023-.018.033-.028.074-.068.143-.139.208-.21l.04-.047c.037-.042.074-.083.107-.125.016-.02.026-.04.04-.06.05-.066.094-.133.135-.2.018-.028.04-.055.056-.083.009-.015.013-.03.021-.045.032-.06.059-.12.085-.18.015-.035.035-.068.048-.103l.01-.037c.02-.058.035-.116.05-.174.01-.038.025-.075.033-.114l.004-.032c.01-.06.015-.122.02-.183.004-.039.013-.078.014-.116v-.051l.063-21.837c0 .056-.01.112-.014.167z"/><path class="st4" d="M478.235 327.366c2.24 1.294 2.253 3.41.027 4.704L304.4 433.107c-2.223 1.292-5.876 1.292-8.117-.001L21.827 274.648c-2.24-1.293-2.253-3.41-.03-4.701L195.66 168.909c2.226-1.294 5.879-1.294 8.12 0l274.455 158.457z"/><path class="st5" d="M303.864 433.378c-.054.024-.11.047-.165.07a7.254 7.254 0 0 1-.613.226c-.096.03-.195.057-.293.084-.076.02-.15.042-.228.06-.103.026-.208.046-.313.068-.073.014-.146.031-.22.044a9.471 9.471 0 0 1-.654.091c-.067.007-.134.011-.2.017a10.276 10.276 0 0 1-.643.033 10.086 10.086 0 0 1-1.14-.044 9.815 9.815 0 0 1-1.09-.17 8.477 8.477 0 0 1-.358-.087l-.195-.052a6.637 6.637 0 0 1-.903-.33c-.05-.022-.1-.041-.147-.064a5.856 5.856 0 0 1-.419-.219L21.827 274.648c-.705-.407-1.19-.895-1.453-1.414a2.084 2.084 0 0 1-.236-.954l-.062 21.836c-.002.858.561 1.717 1.689 2.369L296.22 454.942c.135.078.275.15.419.218.048.023.098.043.147.064.085.038.168.077.255.111.01.005.023.008.034.012.198.077.403.146.614.207l.047.016c.048.014.099.023.148.036.118.032.237.062.359.088l.092.023c.048.01.097.016.145.025.102.02.204.037.306.053l.12.021c.045.006.092.01.137.015.096.013.192.023.29.033.044.004.089.011.134.015l.13.007c.098.007.196.012.295.015.048.002.096.007.145.008h.116c.106.001.213 0 .32-.002h.156l.09-.007c.133-.005.264-.015.396-.026.051-.004.104-.005.155-.01l.045-.006c.22-.024.439-.054.654-.092l.035-.004c.062-.012.122-.027.183-.04.106-.021.212-.042.316-.067.076-.018.15-.04.225-.06.1-.027.199-.054.296-.085l.067-.019c.035-.011.067-.027.102-.038.151-.052.3-.108.444-.169.055-.023.11-.045.164-.07a5.9 5.9 0 0 0 .536-.27l.062-21.837c-.17.099-.35.187-.536.271z"/></g><path d="M178.175 179.125l17.485-10.216c2.226-1.294 5.879-1.294 8.12 0l274.455 158.457c2.24 1.294 2.253 3.41.027 4.704l-17.485 10.216-282.602-163.16z" fill="#4b87af"/><path d="M479.91 329.901c-.006.062-.01.123-.021.184-.01.049-.024.097-.037.146-.015.058-.03.116-.05.173-.016.048-.038.094-.059.141-.026.06-.052.12-.084.179-.023.043-.05.086-.077.129a2.723 2.723 0 0 1-.282.384l-.04.048c-.074.08-.156.16-.242.238-.054.048-.114.095-.173.142-.053.043-.104.087-.162.129-.063.046-.133.09-.202.134-.072.048-.141.096-.22.142l-17.516 10.216-.062 21.836 17.517-10.216.07-.04c.052-.033.098-.068.148-.1.07-.045.14-.09.204-.136.057-.042.107-.085.16-.127.06-.048.12-.095.175-.144.01-.01.023-.018.033-.028.074-.068.143-.139.208-.21l.04-.047c.037-.042.074-.083.107-.125.016-.02.026-.04.04-.06.05-.066.094-.133.135-.2.018-.028.04-.055.056-.083.009-.015.013-.03.021-.045.032-.06.059-.12.085-.18.015-.035.035-.068.048-.103l.01-.037c.02-.058.035-.116.05-.174.01-.038.025-.075.033-.114l.004-.032c.01-.06.015-.122.02-.183.004-.039.013-.078.014-.116v-.051l.063-21.837c0 .056-.01.112-.014.167z" fill="#3a789b"/><path class="st5" d="M95.984 278.492l92.958 53.662 93.882-53.664-93.882-53.662z"/><path class="st4" d="M96.69 116.907l77.25 44.593 78.018-44.595-78.018-44.594z"/><path class="st3" d="M116.693 116.907l57.272-33.063 57.842 33.06-57.842 33.064z"/><path class="st8" d="M96.69 116.907V278.55l77.25 44.593V161.5z"/><path class="st3" d="M173.94 161.5v161.644l78.018-44.595V116.905z"/><path class="st5" d="M201.29 339.275l92.959 53.661 93.882-53.663-93.882-53.662z"/><path class="st4" d="M230.053 141.8l12.74-7.356.053 18.303-12.741 7.356zm.173 61.008l-.052-18.302 12.74-7.356.053 18.302zm-.061-21.352l-.052-18.303 12.741-7.356.052 18.303zm.182 64.055l-.052-18.3 12.74-7.356.053 18.3zm-.061-21.353l-.052-18.3 12.741-7.356.052 18.3zm.121 42.706l-.052-18.303 12.741-7.356.052 18.303zm.061 21.353l-.052-18.303 12.74-7.356.053 18.303zm-16.051-76.281l-.052-18.303 12.741-7.356.052 18.302zm-.061-21.353l-.052-18.303 12.742-7.356.051 18.303zm-.06-21.353l-.052-18.303 12.741-7.356.052 18.303zm.242 85.408l-.052-18.3 12.741-7.356.052 18.3zm-.061-21.352l-.051-18.3 12.74-7.356.053 18.3zm.182 64.058l-.052-18.303 12.741-7.356.052 18.303zm-.061-21.353l-.051-18.302 12.74-7.357.053 18.303zm-16.051-76.281l-.051-18.303 12.743-7.357.052 18.303zm-.06-21.353l-.052-18.302 12.744-7.358.052 18.303zm.303 106.762l-.052-18.303 12.743-7.358.052 18.303zm-.06-21.353l-.053-18.3 12.744-7.358.052 18.3zm-.061-21.353l-.052-18.3 12.743-7.358.052 18.3zm-.061-21.35l-.052-18.303 12.744-7.357.052 18.302zm.242 85.408l-.052-18.303 12.744-7.357.052 18.303zm-16.109-97.635l-.052-18.303 12.741-7.356.052 18.303zm-.061-21.353l-.051-18.303 12.74-7.356.053 18.303zm.243 85.409l-.052-18.3 12.74-7.357.053 18.3z"/><g class="st0"><path class="st4" d="M182.862 251.539l-.052-18.3 12.741-7.356.052 18.3zm-.06-21.35l-.052-18.303 12.74-7.356.053 18.303z"/></g><path class="st4" d="M183.044 315.597l-.052-18.303 12.741-7.356.052 18.303zm-.061-21.353l-.052-18.302 12.741-7.357.052 18.303zm18.63-205.558l77.25 44.593 78.017-44.595-78.017-44.593z"/><path class="st3" d="M221.616 88.686l57.272-33.064 57.841 33.062-57.841 33.063z"/><path class="st8" d="M201.613 88.686v250.833l77.25 44.593V133.28z"/><path d="M265.218 360.481l-49.96-28.841m49.96 14.219l-49.96-28.841m49.96 14.22l-49.96-28.841m49.96 14.219l-49.96-28.841m49.96 14.22l-49.96-28.841m49.96 14.219l-49.96-28.841m49.96 14.22l-49.96-28.841m49.96 14.219l-49.96-28.841m49.96 14.22l-49.96-28.841m49.96 14.219l-49.96-28.841m49.96 14.22l-49.96-28.841m49.96 14.219l-49.96-28.841m49.96 14.22l-49.96-28.841m49.96 14.219l-49.96-28.841m49.96 14.22l-49.96-28.841m0-14.622l49.96 28.841m-105.822 156.69l-49.961-28.841m49.961 13.05l-49.961-28.841m49.961 13.051l-49.961-28.841m49.961 13.051l-49.961-28.842m49.961 13.051l-49.961-28.841m49.961 13.051l-49.961-28.841m49.961 13.051l-49.961-28.842m49.961 13.051l-49.961-28.841m0-15.79l49.961 28.841" fill="none" stroke="#8db9e3" stroke-width="2" stroke-miterlimit="10"/><path class="st3" d="M278.863 133.28v250.832l78.017-44.595V88.684z"/><path class="st4" d="M335.724 110.633l12.74-7.356.053 18.303-12.742 7.356zm.172 61.008l-.051-18.302 12.74-7.356.053 18.302zm-.06-21.352l-.052-18.303 12.741-7.356.052 18.303zm.182 64.055l-.052-18.3 12.74-7.356.053 18.3zm-.061-21.353l-.052-18.3 12.741-7.356.052 18.3zm.121 42.706l-.052-18.303 12.741-7.356.052 18.303zm.061 21.353l-.052-18.303 12.74-7.356.053 18.302zm.061 21.352l-.053-18.302 12.741-7.356.052 18.302zm-16.112-97.634l-.052-18.302 12.741-7.356.052 18.302zm-.061-21.352l-.052-18.303 12.741-7.356.052 18.303zm-.06-21.353l-.052-18.303 12.741-7.356.052 18.303zm.242 85.408l-.052-18.3 12.741-7.356.052 18.3zm-.061-21.353l-.052-18.3 12.742-7.356.051 18.3zm.242 85.412l-.051-18.303 12.74-7.356.053 18.302zm-.06-21.353l-.052-18.303 12.741-7.356.052 18.303zm-.06-21.353l-.052-18.303 12.74-7.356.053 18.303zm-16.052-76.281l-.051-18.303 12.743-7.357.052 18.303zm-.06-21.353l-.052-18.303 12.744-7.357.051 18.303zm.302 106.761l-.051-18.302 12.743-7.358.052 18.303zm-.06-21.353l-.052-18.3 12.744-7.357.052 18.3zm-.06-21.352l-.052-18.3 12.743-7.358.052 18.3zm-.061-21.35l-.052-18.303 12.744-7.357.052 18.302zm.303 106.761l-.052-18.303 12.743-7.357.052 18.302zm-.061-21.353l-.052-18.303 12.744-7.357.052 18.302zm-16.109-97.635l-.052-18.303 12.741-7.356.052 18.303zm-.061-21.353l-.051-18.303 12.74-7.356.053 18.303zm.243 85.408l-.052-18.3 12.74-7.356.053 18.3z"/><g class="st0"><path class="st4" d="M288.533 220.371l-.052-18.3 12.741-7.356.052 18.3zm-.06-21.35l-.052-18.302 12.74-7.356.053 18.302z"/></g><path class="st4" d="M288.715 284.43l-.052-18.303 12.74-7.356.053 18.303zm-.061-21.353l-.052-18.303 12.741-7.356.052 18.303zm.121 42.706l-.052-18.303 12.741-7.356.052 18.303zm47.121 15.929l-.051-18.303 12.74-7.356.053 18.303zm-.06-21.353l-.052-18.303 12.741-7.356.052 18.303zm.121 42.703l-.052-18.3 12.741-7.356.052 18.3zm-15.869-12.223l-.052-18.303 12.741-7.356.052 18.303zm-.061-21.353l-.052-18.303 12.741-7.356.052 18.303zm.121 42.703l-.052-18.3 12.742-7.356.051 18.3zm-15.93-33.576l-.051-18.302 12.743-7.358.052 18.303zm.122 42.703l-.052-18.3 12.743-7.357.052 18.3zm-.061-21.35l-.052-18.303 12.744-7.357.052 18.303zm-15.867-12.226l-.052-18.304 12.741-7.356.052 18.303z"/><g class="st0"><path class="st4" d="M288.533 370.442l-.052-18.3 12.741-7.356.052 18.3zm-.06-21.35l-.052-18.303 12.74-7.356.053 18.303z"/></g></svg>