<svg id="Layer_1" data-name="Layer 1" xmlns="http://www.w3.org/2000/svg" viewBox="0 0 500 500"><defs><style>.cls-1{isolation:isolate}.cls-2{fill:#69a7db}.cls-3{fill:#8db9e3}.cls-4{fill:#b1cdeb}.cls-5{opacity:.3}.cls-6{fill:#1a73a0}.cls-9{fill:#d6e3f4}</style></defs><g class="cls-1"><path class="cls-2" d="M239.09 187.06l-21.14-12.29.08 26.44 21.14 12.28-.08-26.43z"/><path class="cls-3" d="M215.81 99.65l.28 100.69 23-13.28.08 26.43 22.93-39.71 81.99-47.34-.29-100.69-127.99 73.9z"/><path class="cls-2" d="M215.81 99.65l-21.15-12.29.29 100.69 21.14 12.29-.28-100.69z"/><path class="cls-4" d="M343.8 25.75l-21.14-12.29-128 73.9 21.15 12.29 127.99-73.9z"/><g class="cls-5"><path class="cls-6" d="M343.8 252.27l-21.14-12.29-128 73.9 21.15 12.29 127.99-73.9z"/></g></g><path fill="#1a73a0" opacity=".3" d="M190.01 486.54l-117.72-69.2 283.08-163.43 117.71 69.2-283.07 163.43z"/><path class="cls-4" d="M100.09 410.8l102.7 59.68 283.08-163.44-102.7-59.68L100.09 410.8z"/><path class="cls-2" d="M100.09 410.8l.03 8.15 102.69 59.68-.02-8.15-102.7-59.68z"/><path class="cls-3" d="M202.79 470.48l.02 8.15 283.08-163.44-.02-8.15-283.08 163.44z"/><path d="M384 285.85l-15.43-9 15.53-9 15.44 9zm-4.4 2.54l-15.43-9-15.53 9 15.43 9zm-19.91 11.51l-15.44-9-15.53 9 15.43 9zm-50.9 11.5l15.43 9 15.53-9-15.43-9zm-19.94 11.51l15.44 9 15.53-9-15.43-9zm-19.92 11.51l15.43 9 15.53-9-15.43-9zM249 345.92l15.44 9 15.53-9-15.43-9zm-19.92 11.51l15.43 9 15.53-9-15.43-9zm-19.94 11.51l15.44 9 15.53-9-15.43-9zm11 11.51l-15.43-9-15.54 9 15.43 9zM200.24 392l-15.43-9-15.54 9 15.44 9zm-19.93 11.51l-15.43-9-15.54 9 15.43 9zM145 406l-15.53 9 15.43 9 15.53-9zm274.09-117.76l-15.43-9-15.54 9 15.43 9zm-19.93 11.51l-15.44-9-15.53 9 15.43 9zm-19.93 11.5l-15.43-9-15.54 9 15.44 9zm-50.9 11.51l15.43 9 15.54-9-15.44-9zm-19.93 11.51l15.43 9 15.53-9-15.43-9zm-19.93 11.5l15.43 9 15.54-9-15.44-9zm-19.93 11.51l15.43 9 15.53-9-15.43-9zm-19.93 11.51l15.43 9 15.54-9-15.44-9zm-19.93 11.5l15.43 9 15.53-9-15.43-9zm11 11.51l-15.43-9-15.54 9 15.44 9zm-19.92 11.51l-15.44-9-15.53 9 15.43 9zm-19.94 11.51l-15.43-9-15.53 9 15.43 9zm-19.92 11.5l-15.44-9-15.53 9 15.43 9zM438.64 299.6l-15.43-9-15.54 9 15.43 9zm-19.93 11.51l-15.44-9-15.53 9 15.43 9zm-19.93 11.5l-15.43-9-15.54 9 15.43 9zm-50.9 11.51l15.43 9 15.54-9-15.44-9zM328 345.63l15.43 9 15.53-9-15.43-9zm-20 11.5l15.43 9 15.54-9-15.44-9zm-19.93 11.51l15.43 9 15.53-9-15.43-9zm-19.93 11.51l15.43 9 15.54-9-15.44-9zm-19.93 11.51l15.43 9 15.53-9-15.43-9zm11 11.5l-15.43-9-15.54 9 15.44 9zm-19.93 11.51l-15.43-9-15.53 9 15.43 9zm-19.88 11.51l-15.43-9-15.54 9 15.44 9zm-19.92 11.5l-15.44-9-15.53 9 15.43 9zm198.92-92.2l-15.44-9-135.12 78 15.44 9z" opacity=".7" fill="#1a73a0"/><g class="cls-1"><path class="cls-9" d="M401.73 271.57l-15.43-8.97-15.53 8.97 15.43 8.97 15.53-8.97z"/><path class="cls-3" d="M370.77 271.57l.01 4.08 15.43 8.96-.01-4.07-15.43-8.97z"/><path class="cls-3" d="M386.2 280.54l.01 4.07 15.53-8.96-.01-4.08-15.53 8.97z"/></g><g class="cls-1"><path class="cls-9" d="M381.8 283.08l-15.43-8.97-15.54 8.97 15.44 8.97 15.53-8.97z"/><path class="cls-3" d="M350.83 283.08l.02 4.07 15.43 8.97-.01-4.07-15.44-8.97z"/><path class="cls-3" d="M366.27 292.05l.01 4.07 15.53-8.97-.01-4.07-15.53 8.97z"/></g><g class="cls-1"><path class="cls-9" d="M361.87 294.58l-15.43-8.97-15.53 8.97 15.43 8.97 15.53-8.97z"/><path class="cls-3" d="M330.91 294.58l.01 4.08 15.43 8.97-.01-4.08-15.43-8.97z"/><path class="cls-3" d="M346.34 303.55l.01 4.08 15.53-8.97-.01-4.08-15.53 8.97z"/></g><g class="cls-1"><path class="cls-9" d="M310.97 306.09l15.44 8.97 15.53-8.97-15.43-8.97-15.54 8.97z"/><path class="cls-3" d="M310.97 306.09l.02 4.08 15.43 8.97-.01-4.08-15.44-8.97z"/><path class="cls-3" d="M326.41 315.06l.01 4.08 15.53-8.97-.01-4.08-15.53 8.97z"/></g><g class="cls-1"><path class="cls-9" d="M291.04 317.6l15.43 8.97 15.54-8.97-15.44-8.97-15.53 8.97z"/><path class="cls-3" d="M291.04 317.6l.01 4.08 15.44 8.96-.02-4.07-15.43-8.97z"/><path class="cls-3" d="M306.47 326.57l.02 4.07 15.53-8.96-.01-4.08-15.54 8.97z"/></g><g class="cls-1"><path class="cls-9" d="M271.11 329.1l15.44 8.97 15.53-8.97-15.43-8.97-15.54 8.97z"/><path class="cls-3" d="M271.11 329.1l.02 4.08 15.43 8.97-.01-4.08-15.44-8.97zm15.44 8.97l.01 4.08 15.53-8.97-.01-4.08-15.53 8.97z"/></g><g class="cls-1"><path class="cls-9" d="M251.18 340.61l15.43 8.97 15.54-8.97-15.44-8.97-15.53 8.97z"/><path class="cls-3" d="M251.18 340.61l.01 4.08 15.44 8.97-.02-4.08-15.43-8.97z"/><path class="cls-3" d="M266.61 349.58l.02 4.08 15.53-8.97-.01-4.08-15.54 8.97z"/></g><g class="cls-1"><path class="cls-9" d="M231.25 352.12l15.44 8.96 15.53-8.96-15.43-8.97-15.54 8.97z"/><path class="cls-3" d="M231.25 352.12l.02 4.07 15.43 8.97-.01-4.08-15.44-8.96z"/><path class="cls-3" d="M246.69 361.08l.01 4.08 15.53-8.97-.01-4.07-15.53 8.96z"/></g><g class="cls-1"><path class="cls-9" d="M211.32 363.63l15.43 8.96 15.54-8.96-15.43-8.97-15.54 8.97z"/><path class="cls-3" d="M211.32 363.63l.01 4.07 15.44 8.97-.02-4.08-15.43-8.96zm15.43 8.96l.02 4.08 15.53-8.97-.01-4.07-15.54 8.96z"/></g><g class="cls-1"><path class="cls-9" d="M222.36 375.13l-15.44-8.96-15.53 8.96 15.43 8.97 15.54-8.97z"/><path class="cls-3" d="M191.39 375.13l.01 4.08 15.43 8.97-.01-4.08-15.43-8.97z"/><path class="cls-4" d="M206.82 384.1l.01 4.08 15.54-8.97-.01-4.08-15.54 8.97z"/></g><g class="cls-1"><path class="cls-9" d="M202.43 386.64L187 377.67l-15.54 8.97 15.44 8.97 15.53-8.97z"/><path class="cls-3" d="M171.46 386.64l.01 4.07 15.44 8.97-.01-4.07-15.44-8.97z"/><path class="cls-4" d="M186.9 395.61l.01 4.07 15.53-8.97-.01-4.07-15.53 8.97z"/></g><g class="cls-1"><path class="cls-9" d="M182.5 398.15l-15.44-8.97-15.53 8.97 15.43 8.97 15.54-8.97z"/><path class="cls-3" d="M151.53 398.15l.01 4.07 15.43 8.97-.01-4.07-15.43-8.97z"/><path class="cls-4" d="M166.96 407.12l.01 4.07 15.54-8.97-.01-4.07-15.54 8.97z"/></g><g class="cls-1"><path class="cls-9" d="M147.14 400.68l-15.54 8.97 15.44 8.97 15.53-8.97-15.43-8.97z"/><path class="cls-3" d="M131.6 409.65l.01 4.08 15.44 8.96-.01-4.07-15.44-8.97z"/><path class="cls-4" d="M147.04 418.62l.01 4.07 15.53-8.96-.01-4.08-15.53 8.97z"/></g><g class="cls-1"><path class="cls-9" d="M421.28 282.93l-15.44-8.97-15.53 8.97 15.43 8.97 15.54-8.97z"/><path class="cls-3" d="M390.31 282.93l.01 4.07 15.43 8.97-.01-4.07-15.43-8.97zm15.43 8.97l.01 4.07 15.54-8.97-.01-4.07-15.54 8.97z"/></g><g class="cls-1"><path class="cls-9" d="M401.34 294.44l-15.43-8.97-15.53 8.97 15.43 8.96 15.53-8.96z"/><path class="cls-3" d="M370.38 294.44l.01 4.07 15.43 8.97-.01-4.08-15.43-8.96zm15.43 8.96l.01 4.08 15.54-8.97-.02-4.07-15.53 8.96z"/></g><g class="cls-1"><path class="cls-9" d="M381.42 305.94l-15.44-8.97-15.53 8.97 15.43 8.97 15.54-8.97z"/><path class="cls-3" d="M350.45 305.94l.01 4.08 15.43 8.97-.01-4.08-15.43-8.97z"/><path class="cls-3" d="M365.88 314.91l.01 4.08 15.54-8.97-.01-4.08-15.54 8.97z"/></g><g class="cls-1"><path class="cls-9" d="M330.52 317.45l15.43 8.97 15.53-8.97-15.43-8.97-15.53 8.97z"/><path class="cls-3" d="M330.52 317.45l.01 4.07 15.43 8.97-.01-4.07-15.43-8.97z"/><path class="cls-3" d="M345.95 326.42l.01 4.07 15.54-8.97-.02-4.07-15.53 8.97z"/></g><g class="cls-1"><path class="cls-9" d="M310.58 328.96l15.44 8.97 15.53-8.97-15.43-8.97-15.54 8.97z"/><path class="cls-3" d="M310.58 328.96l.02 4.07 15.43 8.97-.01-4.07-15.44-8.97z"/><path class="cls-3" d="M326.02 337.93l.01 4.07 15.53-8.97-.01-4.07-15.53 8.97z"/></g><g class="cls-1"><path class="cls-9" d="M290.66 340.46l15.43 8.97 15.53-8.97-15.43-8.97-15.53 8.97z"/><path class="cls-3" d="M290.66 340.46l.01 4.08 15.43 8.97-.01-4.08-15.43-8.97z"/><path class="cls-3" d="M306.09 349.43l.01 4.08 15.54-8.97-.02-4.08-15.53 8.97z"/></g><g class="cls-1"><path class="cls-9" d="M270.73 351.97l15.43 8.97 15.53-8.97-15.43-8.97-15.53 8.97z"/><path class="cls-3" d="M270.73 351.97l.01 4.08 15.43 8.96-.01-4.07-15.43-8.97z"/><path class="cls-3" d="M286.16 360.94l.01 4.07 15.53-8.96-.01-4.08-15.53 8.97z"/></g><g class="cls-1"><path class="cls-9" d="M250.8 363.47l15.43 8.97 15.53-8.97-15.43-8.96-15.53 8.96z"/><path class="cls-3" d="M250.8 363.47l.01 4.08 15.43 8.97-.01-4.08-15.43-8.97zm15.43 8.97l.01 4.08 15.54-8.97-.02-4.08-15.53 8.97z"/></g><g class="cls-1"><path class="cls-9" d="M230.87 374.98l15.43 8.97 15.53-8.97-15.43-8.97-15.53 8.97z"/><path class="cls-3" d="M230.87 374.98l.01 4.08 15.43 8.97-.01-4.08-15.43-8.97z"/><path class="cls-3" d="M246.3 383.95l.01 4.08 15.53-8.97-.01-4.08-15.53 8.97z"/></g><g class="cls-1"><path class="cls-9" d="M241.9 386.49l-15.43-8.97-15.54 8.97 15.44 8.97 15.53-8.97z"/><path class="cls-3" d="M210.93 386.49l.01 4.08 15.44 8.97-.01-4.08-15.44-8.97z"/><path class="cls-4" d="M226.37 395.46l.01 4.08 15.53-8.97-.01-4.08-15.53 8.97z"/></g><g class="cls-1"><path class="cls-9" d="M221.97 398l-15.43-8.97-15.53 8.97 15.43 8.96 15.53-8.96z"/><path class="cls-3" d="M191.01 398l.01 4.07 15.43 8.97-.01-4.08-15.43-8.96z"/><path class="cls-4" d="M206.44 406.96l.01 4.08 15.53-8.97-.01-4.07-15.53 8.96z"/></g><g class="cls-1"><path class="cls-9" d="M202.04 409.5l-15.43-8.96-15.54 8.96 15.44 8.97 15.53-8.97z"/><path class="cls-3" d="M171.07 409.5l.01 4.08 15.44 8.97-.01-4.08-15.44-8.97z"/><path class="cls-4" d="M186.51 418.47l.01 4.08 15.53-8.97-.01-4.08-15.53 8.97z"/></g><g class="cls-1"><path class="cls-9" d="M182.11 421.01l-15.43-8.97-15.53 8.97 15.43 8.97 15.53-8.97z"/><path class="cls-3" d="M151.15 421.01l.01 4.07 15.43 8.97-.01-4.07-15.43-8.97z"/><path class="cls-4" d="M166.58 429.98l.01 4.07 15.54-8.97-.02-4.07-15.53 8.97z"/></g><g class="cls-1"><path class="cls-9" d="M440.83 294.29l-15.44-8.97-15.53 8.97 15.43 8.97 15.54-8.97z"/><path class="cls-3" d="M409.86 294.29l.01 4.07 15.43 8.97-.01-4.07-15.43-8.97zm15.43 8.97l.01 4.07 15.54-8.97-.01-4.07-15.54 8.97z"/></g><g class="cls-1"><path class="cls-9" d="M420.89 305.8l-15.43-8.97-15.53 8.97 15.43 8.96 15.53-8.96z"/><path class="cls-3" d="M389.93 305.8l.01 4.07 15.43 8.97-.01-4.08-15.43-8.96zm15.43 8.96l.01 4.08 15.53-8.97-.01-4.07-15.53 8.96z"/></g><g class="cls-1"><path class="cls-9" d="M400.97 317.3l-15.44-8.97L370 317.3l15.43 8.97 15.54-8.97z"/><path class="cls-3" d="M370 317.3l.01 4.08 15.43 8.97-.01-4.08L370 317.3zm15.43 8.97l.01 4.08 15.54-8.97-.01-4.08-15.54 8.97z"/></g><g class="cls-1"><path class="cls-9" d="M350.07 328.81l15.43 8.97 15.53-8.97-15.43-8.97-15.53 8.97z"/><path class="cls-3" d="M350.07 328.81l.01 4.07 15.43 8.97-.01-4.07-15.43-8.97zm15.43 8.97l.01 4.07 15.54-8.97-.02-4.07-15.53 8.97z"/></g><g class="cls-1"><path class="cls-9" d="M330.13 340.32l15.44 8.97 15.53-8.97-15.43-8.97-15.54 8.97z"/><path class="cls-3" d="M330.13 340.32l.01 4.07 15.44 8.97-.01-4.07-15.44-8.97z"/><path class="cls-3" d="M345.57 349.29l.01 4.07 15.53-8.97-.01-4.07-15.53 8.97z"/></g><g class="cls-1"><path class="cls-9" d="M310.21 351.82l15.43 8.97 15.53-8.97-15.43-8.97-15.53 8.97z"/><path class="cls-3" d="M310.21 351.82l.01 4.08 15.43 8.97-.01-4.08-15.43-8.97z"/><path class="cls-3" d="M325.64 360.79l.01 4.08 15.54-8.97-.02-4.08-15.53 8.97z"/></g><g class="cls-1"><path class="cls-9" d="M290.27 363.33l15.44 8.97 15.53-8.97-15.43-8.97-15.54 8.97z"/><path class="cls-3" d="M290.27 363.33l.02 4.08 15.43 8.97-.01-4.08-15.44-8.97z"/><path class="cls-3" d="M305.71 372.3l.01 4.08 15.53-8.97-.01-4.08-15.53 8.97z"/></g><g class="cls-1"><path class="cls-9" d="M270.35 374.83l15.43 8.97 15.53-8.97-15.43-8.96-15.53 8.96z"/><path class="cls-3" d="M270.35 374.83l.01 4.08 15.43 8.97-.01-4.08-15.43-8.97z"/><path class="cls-3" d="M285.78 383.8l.01 4.08 15.54-8.97-.02-4.08-15.53 8.97z"/></g><g class="cls-1"><path class="cls-9" d="M250.41 386.34l15.44 8.97 15.53-8.97-15.43-8.96-15.54 8.96z"/><path class="cls-3" d="M250.41 386.34l.02 4.08 15.43 8.97-.01-4.08-15.44-8.97zm15.44 8.97l.01 4.08 15.53-8.97-.01-4.08-15.53 8.97z"/></g><g class="cls-1"><path class="cls-9" d="M261.45 397.85l-15.43-8.97-15.54 8.97 15.43 8.97 15.54-8.97z"/><path class="cls-3" d="M230.48 397.85l.01 4.08 15.44 8.97-.02-4.08-15.43-8.97z"/><path class="cls-4" d="M245.91 406.82l.02 4.08 15.53-8.97-.01-4.08-15.54 8.97z"/></g><g class="cls-1"><path class="cls-9" d="M241.52 409.36l-15.43-8.97-15.53 8.97 15.43 8.96 15.53-8.96z"/><path class="cls-3" d="M210.56 409.36l.01 4.07L226 422.4l-.01-4.08-15.43-8.96z"/><path class="cls-4" d="M225.99 418.32l.01 4.08 15.53-8.97-.01-4.07-15.53 8.96z"/></g><g class="cls-1"><path class="cls-9" d="M221.59 420.87l-15.43-8.97-15.54 8.97 15.44 8.96 15.53-8.96z"/><path class="cls-3" d="M190.62 420.87l.01 4.07 15.44 8.97-.01-4.08-15.44-8.96z"/><path class="cls-4" d="M206.06 429.83l.01 4.08 15.53-8.97-.01-4.07-15.53 8.96z"/></g><g class="cls-1"><path class="cls-9" d="M201.66 432.37l-15.43-8.97-15.53 8.97 15.43 8.97 15.53-8.97z"/><path class="cls-3" d="M170.7 432.37l.01 4.07 15.43 8.97-.01-4.07-15.43-8.97z"/><path class="cls-4" d="M186.13 441.34l.01 4.07 15.53-8.97-.01-4.07-15.53 8.97z"/></g><g class="cls-1"><path class="cls-9" d="M400.58 340.17l-15.43-8.97-135.12 78.01 15.43 8.97 135.12-78.01z"/><path class="cls-3" d="M250.03 409.21l.01 4.08 15.44 8.97-.02-4.08-15.43-8.97z"/><path class="cls-4" d="M265.46 418.18l.02 4.08 135.12-78.01-.02-4.08-135.12 78.01z"/></g><g class="cls-1"><g class="cls-5"><path class="cls-6" d="M205.71 332.19l-21.05-12.58-170.55 98.47 21.05 12.57 170.55-98.46z"/></g><path class="cls-4" d="M35.16 241.43l.38 134.16 109.25-63.08 30.75 17.53-.1-35.22 30.65-17.7-.38-134.16-170.55 98.47z"/><path class="cls-3" d="M35.16 241.43l-21.05-12.58.38 134.16 21.05 12.58-.38-134.16z"/><path class="cls-9" d="M205.71 142.96l-21.05-12.58-170.55 98.47 21.05 12.58 170.55-98.47z"/></g></svg>