<?xml version="1.0" encoding="utf-8"?>
<!-- Generator: Adobe Illustrator 22.1.0, SVG Export Plug-In . SVG Version: 6.00 Build 0)  -->
<svg version="1.1" id="Layer_1" xmlns="http://www.w3.org/2000/svg" xmlns:xlink="http://www.w3.org/1999/xlink" x="0px" y="0px"
	 viewBox="0 0 500 500" style="enable-background:new 0 0 500 500;" xml:space="preserve">
<style type="text/css">
	.st0{fill:url(#SVGID_1_);}
	.st1{opacity:0.2;}
	.st2{fill:url(#SVGID_2_);}
	.st3{fill:#69A7DB;}
	.st4{fill:#236487;}
	.st5{enable-background:new    ;}
	.st6{fill:#FFFFFF;}
	.st7{fill:#EDE6CE;}
	.st8{fill:#F6F3E7;}
	.st9{fill:#3D98D3;}
	.st10{fill:#1F438F;}
	.st11{fill:url(#SVGID_3_);}
</style>
<linearGradient id="SVGID_1_" gradientUnits="userSpaceOnUse" x1="281.4951" y1="391.1099" x2="540.1915" y2="181.6216">
	<stop  offset="0.2182" style="stop-color:#CCCCCC;stop-opacity:0.5"/>
	<stop  offset="0.4792" style="stop-color:#D9D9D9;stop-opacity:0.3331"/>
	<stop  offset="0.9635" style="stop-color:#FCFCFC;stop-opacity:2.331254e-02"/>
	<stop  offset="1" style="stop-color:#FFFFFF;stop-opacity:0"/>
</linearGradient>
<polygon class="st0" points="209.2,301.9 499,130.8 501,361.1 404.6,420.1 "/>
<g>
	<title>spot-ebook</title>
	<g>
		<g class="st1">
			<linearGradient id="SVGID_2_" gradientUnits="userSpaceOnUse" x1="96.2782" y1="398.6459" x2="402.4591" y2="398.6459">
				<stop  offset="0.2182" style="stop-color:#CCCCCC"/>
				<stop  offset="0.4792" style="stop-color:#D9D9D9;stop-opacity:0.6662"/>
				<stop  offset="0.9635" style="stop-color:#FCFCFC;stop-opacity:4.662508e-02"/>
				<stop  offset="1" style="stop-color:#FFFFFF;stop-opacity:0"/>
			</linearGradient>
			<path class="st2" d="M399.1,417.6c-0.5-0.3-1-0.5-1.7-0.8l-2.1-1.2c-2.8-1.1-5.8-2.1-8.8-3c-5.7-1.8-11.1-4-16-6.4
				c-1.3-1-2.1-2.3-2.2-3.6l-3.6-1.8c1.1-1,2.2-2,3.3-3.1l-20.8-12c-1.3,1.5-2.6,2.9-4.1,4.3l-42.2-21.4c-0.4-0.3-0.8-0.5-1.3-0.8
				c-3.2-2.4-2.5-5.8,1.5-7.7c0.3-0.1,0.6-0.2,0.9-0.4l-54.2-31.2l-53.5,31.6c0.8,0.2,1.5,0.6,2.1,0.9c2.2,1.3,3.3,3.2,2.6,5
				c-0.4,1.2-1.6,2.3-3.2,3L154.2,391c-1.6-1.5-3.1-3-4.5-4.6l-20.4,12c1.3,1.2,2.6,2.4,4,3.6c-1.1,0.5-3,1.6-3.6,1.9
				c0.2,1.3-0.5,2.5-1.9,3.5c-4.9,2.5-10.2,4.7-15.8,6.5c-3,0.9-6,1.9-8.8,3.1c-0.7,0.3-1.6,0.8-2.4,1.1c-5,2.1-6.1,6.1-2.2,9.4
				c4.3,2.5,11.1,2.6,15.8,0.1c0.7-0.3,1.5-0.7,2.1-1c2.5-1.4,4.8-2.8,7-4.4c4.4-2.8,9.2-5.3,14.4-7.6c2.1-0.5,4.3-0.7,6.5-0.4
				l3.7-1.5c0.7,0.4,1.4,0.8,2.1,1.2c3.9,2.3,8.1,4.4,12.4,6.4c21.6,9.8,47.8,15.7,75.2,16.9l0.3,2.7c0.4,0.2,0.8,0.4,1.2,0.6
				c1.2,0.7,2,1.6,2.3,2.5c0.3,3.8,0,7.5-1,11.2c-0.6,1.9-1.1,3.9-1.4,5.9c0,0.5,0,1.2,0,1.8c0,1.6,0.9,3.1,2.5,4.4
				c0.3,0.3,0.7,0.5,1,0.7c1.9,1.1,4.5,1.7,7.3,1.7c6.2-0.2,11-3.3,10.6-6.9c0-0.5,0-1.2,0-1.6c-0.3-2-0.9-3.9-1.6-5.9
				c-1.2-3.7-1.7-7.5-1.5-11.3c0.6-1.2,1.8-2.3,3.4-3.2l0.2-2.7c33.9-1.8,65.5-10.9,88.6-25.4l3.9,1.6c2.2-0.2,4.4,0,6.5,0.4
				c4.2,1.8,8.1,3.7,11.8,5.8c1,0.6,1.9,1.1,2.8,1.7c1.6,1.1,3.3,2.1,5,3.2c0.7,0.4,1.4,0.8,2.1,1.2l2.5,1.2
				c4.3,2.4,11.1,2.2,15.2-0.3C403.6,423.9,403.4,420.1,399.1,417.6z M179.8,407.5c-3-1.4-5.9-2.9-8.6-4.5l45.5-19l0.2,0.1
				c3.8-1.6,9-1.4,12.3,0.5c0.3,0.2,0.6,0.4,0.9,0.6c1.1,0.9,1.8,1.9,1.9,3l3.8,32.6C215.3,419.5,195.9,414.9,179.8,407.5z
				 M262.7,420.7l2.5-32.7l0.2-0.1c0.2-3,4.5-5.4,9.8-5.3c1.9,0,3.6,0.4,5.3,1l46.2,18.6C309.5,412.4,287,418.8,262.7,420.7z"/>
		</g>
		<polygon class="st3" points="51.5,403.3 249.6,285.6 447.7,403.3 453.9,399.8 454.6,139.5 267.2,31.3 232.3,31.3 46.1,139.5 
			45.3,399.8 		"/>
		<polygon class="st4" points="51.5,403.3 52.3,143.1 233.9,37.5 265.5,37.5 448.4,143.1 447.7,403.3 249.6,278.2 		"/>
		<g>
			<g class="st5">
				<g>
					<path class="st6" d="M442.2,146.7l-34.6,20.1L264.1,83.9c-19.2-11.1-19.3-29.1-0.2-40.2L442.2,146.7z"/>
				</g>
				<g>
					<polygon class="st7" points="442.2,146.7 441.5,399.7 406.9,419.9 407.6,166.8 					"/>
				</g>
				<path class="st8" d="M264.1,83.9c-9.7-5.6-14.5-12.9-14.5-20.3l-0.7,253.1c0,7.3,4.8,14.7,14.5,20.3l143.5,82.8l0.7-253.1
					L264.1,83.9z"/>
			</g>
		</g>
		<polygon class="st9" points="448.4,143.1 447.7,403.3 453.9,399.8 454.6,139.5 		"/>
		<polygon class="st4" points="46.1,399.7 45.3,139.5 51.5,143.1 52.3,403.3 		"/>
		<polygon class="st9" points="233.9,288.1 51.5,403.3 52.3,143.1 233.9,37.5 		"/>
		<g>
			<g class="st5">
				<g>
					<path class="st6" d="M235.6,43.7c19.2,11.1,19.3,29.1,0.2,40.2L93.3,166.8l-34.8-20.1L235.6,43.7z"/>
				</g>
				<path class="st7" d="M250.1,64.8c0,0.2,0,0.5-0.1,0.7c0,0.2-0.1,0.4-0.1,0.6c0,0.2-0.1,0.5-0.1,0.7c0,0.2-0.1,0.4-0.1,0.6
					c-0.1,0.2-0.1,0.5-0.2,0.7c-0.1,0.2-0.1,0.4-0.2,0.6c-0.1,0.2-0.2,0.5-0.2,0.7c-0.1,0.2-0.2,0.4-0.2,0.6
					c-0.1,0.2-0.2,0.5-0.3,0.7c-0.1,0.2-0.2,0.4-0.3,0.6c-0.1,0.2-0.2,0.5-0.4,0.7c-0.1,0.2-0.2,0.4-0.3,0.6
					c-0.2,0.3-0.4,0.6-0.5,0.9c-0.1,0.2-0.2,0.4-0.3,0.5c-0.2,0.3-0.5,0.6-0.7,0.9c-0.1,0.1-0.2,0.3-0.3,0.4c-0.4,0.5-0.8,1-1.3,1.5
					c-0.1,0.1-0.2,0.3-0.4,0.4c-0.4,0.4-0.7,0.7-1.1,1.1c-0.2,0.2-0.4,0.3-0.5,0.5c-0.2,0.2-0.5,0.4-0.7,0.6
					c-0.2,0.2-0.4,0.4-0.7,0.6c-0.3,0.2-0.5,0.4-0.8,0.6c-0.2,0.2-0.5,0.4-0.7,0.5c-0.3,0.2-0.5,0.4-0.8,0.6
					c-0.3,0.2-0.5,0.4-0.8,0.5c-0.3,0.2-0.6,0.4-0.9,0.6c-0.4,0.2-0.7,0.5-1.1,0.7L93.3,166.8l-0.7,253.1L235.1,337
					c0.2-0.1,0.4-0.2,0.6-0.4c0.2-0.1,0.4-0.2,0.5-0.3c0.3-0.2,0.6-0.4,0.9-0.6c0.3-0.2,0.5-0.4,0.8-0.5c0.3-0.2,0.6-0.4,0.8-0.6
					c0.2-0.2,0.5-0.4,0.7-0.5c0.3-0.2,0.5-0.4,0.8-0.6c0.2-0.2,0.5-0.4,0.7-0.6c0.2-0.2,0.5-0.4,0.7-0.6c0.1-0.1,0.2-0.2,0.3-0.3
					c0.1-0.1,0.2-0.2,0.2-0.2c0.4-0.4,0.8-0.7,1.1-1.1c0.1-0.1,0.2-0.2,0.4-0.4c0.5-0.5,0.9-1,1.3-1.5c0,0,0,0,0.1-0.1
					c0.1-0.1,0.2-0.2,0.3-0.3c0.2-0.3,0.5-0.6,0.7-1c0.1-0.2,0.2-0.4,0.3-0.5c0.2-0.3,0.4-0.6,0.5-0.9c0.1-0.1,0.1-0.2,0.1-0.3
					c0.1-0.1,0.1-0.2,0.2-0.3c0.1-0.2,0.3-0.5,0.4-0.7c0.1-0.2,0.2-0.4,0.3-0.6c0.1-0.2,0.2-0.5,0.3-0.7c0-0.1,0.1-0.2,0.1-0.4
					c0-0.1,0.1-0.2,0.1-0.3c0.1-0.2,0.2-0.5,0.2-0.7c0.1-0.2,0.1-0.4,0.2-0.6c0.1-0.2,0.1-0.5,0.2-0.7c0-0.2,0.1-0.3,0.1-0.5
					c0-0.1,0-0.1,0-0.2c0-0.2,0.1-0.5,0.1-0.7c0-0.2,0.1-0.4,0.1-0.6c0-0.2,0-0.5,0.1-0.7c0-0.2,0-0.5,0-0.7c0,0,0-0.1,0-0.1
					L250.1,64C250.1,64.3,250.1,64.5,250.1,64.8z"/>
				<g>
					<polygon class="st8" points="93.3,166.8 92.6,419.9 57.7,399.8 58.5,146.7 					"/>
				</g>
			</g>
		</g>
		<path class="st10" d="M304.1,244.9l-54.2-31.2l-53.5,31.6v7.6c0.8,0.2,1.5,0.6,2.1,0.9c0,0,0.1,0,0.1,0.1
			c-0.2,0.1-0.4,0.3-0.7,0.4l-41.4,21.9c-1.6-1.5-3.1-3-4.5-4.6l-20.4,12c1.3,1.2,2.6,2.4,4,3.6c-1.1,0.5-3,1.6-3.6,1.9
			c0.2,1.3-0.5,2.5-1.9,3.5c-4.9,2.5-10.2,4.7-15.8,6.5c-3,0.9-6,1.9-8.8,3.1c-0.7,0.3-1.6,0.8-2.4,1.1c-2.7,1.1-4.3,2.8-4.5,4.7h0
			v8.3h0c0,1.4,0.8,2.8,2.4,4.1c4.3,2.5,11.1,2.6,15.8,0.1c0.7-0.3,1.5-0.7,2.1-1c2.5-1.4,4.8-2.8,7-4.4c4.4-2.8,9.2-5.3,14.4-7.6
			c2.1-0.5,4.3-0.7,6.5-0.4l3.7-1.5c0.7,0.4,1.4,0.8,2.1,1.2c3.9,2.3,8.1,4.4,12.4,6.4c21.6,9.8,47.8,15.7,75.2,16.9l0.3,2.7
			c0.4,0.2,0.8,0.4,1.2,0.6c1,0.6,1.7,1.3,2.1,2.1c-0.2,1.4-0.4,2.7-0.8,4.1c-0.6,1.9-1.1,3.9-1.4,5.9c0,0.3,0,0.7,0,1.1h0v6.6
			c0,0.3,0,0.5,0,0.8v0.8h0c0,0,0,0,0,0c0,1.6,0.9,3.1,2.5,4.4c0.3,0.3,0.7,0.5,1,0.7c1.9,1.1,4.5,1.7,7.3,1.7
			c6.2-0.2,11-3.3,10.6-6.9v-6.9c0-0.3,0-0.5,0-0.8v-0.5h0c0-0.4,0-0.8,0-1.1c-0.3-2-0.9-3.9-1.6-5.9c-0.5-1.5-0.8-3-1-4.5
			c0.7-0.9,1.7-1.7,2.9-2.4l0.2-2.7c33.9-1.8,65.5-10.9,88.6-25.4l3.9,1.6c2.2-0.2,4.4,0,6.5,0.4c4.2,1.8,8.1,3.7,11.8,5.8
			c1,0.6,1.9,1.1,2.8,1.7c1.6,1.1,3.3,2.1,5,3.2c0.7,0.4,1.4,0.8,2.1,1.2l2.5,1.2c4.3,2.4,11.1,2.2,15.2-0.3c1.7-1,2.6-2.3,2.8-3.6
			h0.1v-8.2h0c0-1.6-1.1-3.3-3.3-4.6c-0.5-0.3-1-0.5-1.7-0.8l-2.1-1.2c-2.8-1.1-5.8-2.1-8.8-3c-5.7-1.8-11.1-4-16-6.4
			c-1.3-1-2.1-2.3-2.2-3.6l-3.6-1.8c1.1-1,2.2-2,3.3-3.1l-20.8-12c-1.3,1.5-2.6,2.9-4.1,4.3L303,253.8c-0.2-0.1-0.4-0.3-0.7-0.4
			c0.3-0.2,0.6-0.3,0.9-0.5c0.3-0.1,0.6-0.2,0.9-0.4V244.9z M182,292.7c-0.2-0.1-0.3-0.2-0.5-0.2l37.4-15.6l0.2,0.1
			c3.8-1.6,9-1.4,12.3,0.5c0.3,0.2,0.6,0.4,0.9,0.6c1.1,0.9,1.8,1.9,1.9,3L237,306C216.9,304.6,197.9,300,182,292.7z M265.4,305.8
			l1.9-25l0.2-0.1c0.2-3,4.5-5.4,9.8-5.3c1.9,0,3.6,0.4,5.3,1l38,15.3C304.9,299.3,285.8,304.2,265.4,305.8z"/>
		<g>
			<linearGradient id="SVGID_3_" gradientUnits="userSpaceOnUse" x1="200.3144" y1="234.8042" x2="302.6515" y2="380.9568">
				<stop  offset="0" style="stop-color:#1F438F"/>
				<stop  offset="3.516325e-04" style="stop-color:#1F438F"/>
				<stop  offset="2.779709e-02" style="stop-color:#2550AA"/>
				<stop  offset="5.889725e-02" style="stop-color:#2A5AC0"/>
				<stop  offset="9.567124e-02" style="stop-color:#2D62D1"/>
				<stop  offset="0.1411" style="stop-color:#3068DC"/>
				<stop  offset="0.2049" style="stop-color:#326BE3"/>
				<stop  offset="0.382" style="stop-color:#326CE5"/>
			</linearGradient>
			<path class="st11" d="M401.3,302.8c-0.5-0.3-1-0.5-1.7-0.8l-2.1-1.2c-2.8-1.1-5.8-2.1-8.8-3c-5.7-1.8-11.1-4-16-6.4
				c-1.3-1-2.1-2.3-2.2-3.6l-3.6-1.8c1.1-1,2.2-2,3.3-3.1l-20.8-12c-1.3,1.5-2.6,2.9-4.1,4.3L303,253.8c-0.4-0.3-0.8-0.5-1.3-0.8
				c-3.2-2.4-2.5-5.8,1.5-7.7c0.3-0.1,0.6-0.2,0.9-0.4l-54.2-31.2l-53.5,31.6c0.8,0.2,1.5,0.6,2.1,0.9c2.2,1.3,3.3,3.2,2.6,5
				c-0.4,1.2-1.6,2.3-3.2,3l-41.4,21.9c-1.6-1.5-3.1-3-4.5-4.6l-20.4,12c1.3,1.2,2.6,2.4,4,3.6c-1.1,0.5-3,1.6-3.6,1.9
				c0.2,1.3-0.5,2.5-1.9,3.5c-4.9,2.5-10.2,4.7-15.8,6.5c-3,0.9-6,1.9-8.8,3.1c-0.7,0.3-1.6,0.8-2.4,1.1c-5,2.1-6.1,6.1-2.2,9.4
				c4.3,2.5,11.1,2.6,15.8,0.1c0.7-0.3,1.5-0.7,2.1-1c2.5-1.4,4.8-2.8,7-4.4c4.4-2.8,9.2-5.3,14.4-7.6c2.1-0.5,4.3-0.7,6.5-0.4
				l3.7-1.5c0.7,0.4,1.4,0.8,2.1,1.2c3.9,2.3,8.1,4.4,12.4,6.4c21.6,9.8,47.8,15.7,75.2,16.9l0.3,2.7c0.4,0.2,0.8,0.4,1.2,0.6
				c1.2,0.7,2,1.6,2.3,2.5c0.3,3.8,0,7.5-1,11.2c-0.6,1.9-1.1,3.9-1.4,5.9c0,0.5,0,1.2,0,1.8c0,1.6,0.9,3.1,2.5,4.4
				c0.3,0.3,0.7,0.5,1,0.7c1.9,1.1,4.5,1.7,7.3,1.7c6.2-0.2,11-3.3,10.6-6.9c0-0.5,0-1.2,0-1.6c-0.3-2-0.9-3.9-1.6-5.9
				c-1.2-3.7-1.7-7.5-1.5-11.3c0.6-1.2,1.8-2.3,3.4-3.2l0.2-2.7c33.9-1.8,65.5-10.9,88.6-25.4l3.9,1.6c2.2-0.2,4.4,0,6.5,0.4
				c4.2,1.8,8.1,3.7,11.8,5.8c1,0.6,1.9,1.1,2.8,1.7c1.6,1.1,3.3,2.1,5,3.2c0.7,0.4,1.4,0.8,2.1,1.2l2.5,1.2
				c4.3,2.4,11.1,2.2,15.2-0.3C405.7,309.1,405.6,305.3,401.3,302.8z M182,292.7c-3-1.4-5.9-2.9-8.6-4.5l45.5-19l0.2,0.1
				c3.8-1.6,9-1.4,12.3,0.5c0.3,0.2,0.6,0.4,0.9,0.6c1.1,0.9,1.8,1.9,1.9,3l3.8,32.6C217.5,304.7,198.1,300.1,182,292.7z
				 M264.9,305.9l2.5-32.7l0.2-0.1c0.2-3,4.5-5.4,9.8-5.3c1.9,0,3.6,0.4,5.3,1l46.2,18.6C311.6,297.6,289.1,304,264.9,305.9z"/>
		</g>
	</g>
</g>
</svg>
