<svg xmlns="http://www.w3.org/2000/svg" xmlns:xlink="http://www.w3.org/1999/xlink" viewBox="0 0 500 500"><defs><style>.cls-1{fill:none;}.cls-2{isolation:isolate;}.cls-29,.cls-3,.cls-9{fill:#1a73a0;}.cls-3{opacity:0.3;}.cls-4{fill:#b1cdeb;}.cls-5{clip-path:url(#clip-path);}.cls-6{fill:#69a7db;}.cls-7{fill:#8db9e3;}.cls-8{opacity:0.7;}.cls-10{fill:#d6e3f4;}.cls-11{clip-path:url(#clip-path-2);}.cls-12{fill:#9e9e9e;}.cls-13{fill:#999;}.cls-14{clip-path:url(#clip-path-3);}.cls-15{fill:#8c3031;}.cls-16{fill:#913232;}.cls-17{fill:#953334;}.cls-18{fill:#9a3536;}.cls-19{fill:#9f3737;}.cls-20{fill:#a43839;}.cls-21{fill:#a93a3b;}.cls-22{fill:#ae3c3c;}.cls-23{clip-path:url(#clip-path-4);}.cls-24{fill:#872e2f;}.cls-25{fill:#822d2d;}.cls-26{fill:#7d2b2c;}.cls-27{clip-path:url(#clip-path-5);}.cls-28{clip-path:url(#clip-path-6);}.cls-29{opacity:0.1;}</style><clipPath id="clip-path"><polygon class="cls-1" points="466.44 301.98 300.4 205.49 44.97 352.92 211.08 449.41 466.44 301.98"/></clipPath><clipPath id="clip-path-2"><path class="cls-1" d="M232,304.55a3.09,3.09,0,0,0-.15.95V300A3.41,3.41,0,0,1,232,299,40.52,40.52,0,0,1,232,304.55Z"/></clipPath><clipPath id="clip-path-3"><path class="cls-1" d="M250.2,300v5.51c0,1.35-.89,2.69-2.66,3.72v-5.51C249.31,302.73,250.2,301.39,250.2,300Z"/></clipPath><clipPath id="clip-path-4"><path class="cls-1" d="M231.88,305.5V300c0,1.36.9,2.73,2.71,3.77a13.92,13.92,0,0,0,8.15,1.46,12,12,0,0,0,4.79-1.46v5.51a12.28,12.28,0,0,1-4.79,1.47,14,14,0,0,1-8.16-1.47C232.78,308.23,231.87,306.86,231.88,305.5Z"/></clipPath><clipPath id="clip-path-5"><path class="cls-1" d="M354.4,184.38l22.16,12.88c2.61,1.51,4.07,4.88,3.86,9.42L358.26,193.8C358.47,189.26,357,185.89,354.4,184.38Z"/></clipPath><clipPath id="clip-path-6"><path class="cls-1" d="M266.83,294.73l18.6,10.81c2.18,1.27,3.41,4.09,3.24,7.9l-18.6-10.8C270.25,298.83,269,296,266.83,294.73Z"/></clipPath></defs><title>spot</title><g id="Layer_1" data-name="Layer 1"><g class="cls-2"><polygon class="cls-3" points="466.44 345.63 300.4 249.14 45.05 396.57 211.08 493.06 466.44 345.63"/><polygon class="cls-4" points="466.44 301.98 300.4 205.49 44.97 352.92 211.08 449.41 466.44 301.98"/><polygon class="cls-6" points="44.97 352.92 44.97 371.04 211.13 467.52 211.08 449.41 44.97 352.92"/><polygon class="cls-7" points="211.08 449.41 211.13 467.52 466.49 320.1 466.44 301.98 211.08 449.41"/></g><g class="cls-8"><polygon class="cls-9" points="323.05 244.92 310.15 252.41 297.16 244.92 310.06 237.42 323.05 244.92"/></g><g class="cls-8"><polygon class="cls-9" points="306.5 254.53 293.59 262.03 280.61 254.54 293.51 247.04 306.5 254.53"/></g><g class="cls-8"><polygon class="cls-9" points="289.94 264.15 277.04 271.65 264.05 264.15 276.96 256.66 289.94 264.15"/></g><g class="cls-8"><polygon class="cls-9" points="273.39 273.77 260.49 281.27 247.5 273.77 260.4 266.28 273.39 273.77"/></g><g class="cls-8"><polygon class="cls-9" points="256.84 283.39 243.93 290.89 230.95 283.39 243.85 275.9 256.84 283.39"/></g><g class="cls-8"><polygon class="cls-9" points="240.28 293.01 227.38 300.51 214.39 293.01 227.3 285.52 240.28 293.01"/></g><g class="cls-8"><polygon class="cls-9" points="223.73 302.63 210.83 310.13 197.84 302.63 210.74 295.13 223.73 302.63"/></g><g class="cls-8"><polygon class="cls-9" points="207.18 312.25 194.27 319.75 181.29 312.25 194.19 304.75 207.18 312.25"/></g><g class="cls-8"><polygon class="cls-9" points="190.62 321.87 177.72 329.37 164.73 321.87 177.64 314.38 190.62 321.87"/></g><g class="cls-8"><polygon class="cls-9" points="174.07 331.5 161.17 338.99 148.18 331.49 161.08 324 174.07 331.5"/></g><g class="cls-8"><polygon class="cls-9" points="157.51 341.12 144.62 348.61 131.63 341.11 144.53 333.62 157.51 341.12"/></g><g class="cls-8"><polygon class="cls-9" points="140.96 350.73 128.06 358.23 115.07 350.73 127.97 343.24 140.96 350.73"/></g><g class="cls-8"><polygon class="cls-9" points="124.41 360.35 111.5 367.85 98.52 360.35 111.42 352.86 124.41 360.35"/></g><g class="cls-8"><polygon class="cls-9" points="340.69 255.1 327.78 262.6 314.8 255.1 327.7 247.6 340.69 255.1"/></g><g class="cls-8"><polygon class="cls-9" points="324.13 264.72 311.23 272.22 298.24 264.72 311.15 257.22 324.13 264.72"/></g><g class="cls-8"><polygon class="cls-9" points="307.58 274.34 294.68 281.84 281.69 274.34 294.59 266.84 307.58 274.34"/></g><g class="cls-8"><polygon class="cls-9" points="291.03 283.96 278.12 291.46 265.14 283.96 278.04 276.46 291.03 283.96"/></g><g class="cls-8"><polygon class="cls-9" points="274.47 293.58 261.57 301.07 248.58 293.58 261.49 286.08 274.47 293.58"/></g><g class="cls-8"><polygon class="cls-9" points="232.03 303.2 244.93 295.7 257.92 303.2 245.02 310.69 232.03 303.2"/></g><g class="cls-8"><path class="cls-9" d="M241.37,312.82l-12.91,7.49-13-7.49,12.9-7.5,1.14.66c-.52,1.65.33,3.43,2.55,4.72a14,14,0,0,0,8.16,1.46Z"/></g><g class="cls-8"><polygon class="cls-9" points="224.81 322.44 211.91 329.93 198.92 322.44 211.83 314.94 224.81 322.44"/></g><g class="cls-8"><polygon class="cls-9" points="208.26 332.06 195.36 339.55 182.37 332.06 195.27 324.56 208.26 332.06"/></g><g class="cls-8"><polygon class="cls-9" points="191.7 341.68 178.81 349.17 165.82 341.68 178.72 334.18 191.7 341.68"/></g><g class="cls-8"><polygon class="cls-9" points="175.15 351.3 162.25 358.79 149.26 351.3 162.16 343.8 175.15 351.3"/></g><g class="cls-8"><polygon class="cls-9" points="158.6 360.92 145.69 368.42 132.71 360.92 145.61 353.42 158.6 360.92"/></g><g class="cls-8"><polygon class="cls-9" points="142.04 370.54 129.14 378.04 116.16 370.54 129.06 363.04 142.04 370.54"/></g><g class="cls-8"><polygon class="cls-9" points="358.32 265.28 345.42 272.78 332.43 265.28 345.34 257.78 358.32 265.28"/></g><g class="cls-8"><polygon class="cls-9" points="341.77 274.9 328.86 282.4 315.88 274.9 328.78 267.4 341.77 274.9"/></g><g class="cls-8"><polygon class="cls-9" points="325.21 284.52 312.31 292.02 299.33 284.52 312.23 277.02 325.21 284.52"/></g><g class="cls-8"><polygon class="cls-9" points="308.66 294.14 295.76 301.64 282.77 294.14 295.68 286.64 308.66 294.14"/></g><g class="cls-8"><polygon class="cls-9" points="292.11 303.76 279.2 311.26 266.22 303.76 279.12 296.26 292.11 303.76"/></g><g class="cls-8"><polygon class="cls-9" points="275.55 313.38 262.65 320.88 249.67 313.38 262.57 305.88 275.55 313.38"/></g><g class="cls-8"><polygon class="cls-9" points="259 323 246.1 330.5 233.12 323 246.02 315.5 259 323"/></g><g class="cls-8"><polygon class="cls-9" points="242.45 332.62 229.54 340.12 216.56 332.62 229.47 325.12 242.45 332.62"/></g><g class="cls-8"><polygon class="cls-9" points="225.89 342.24 212.99 349.73 200.01 342.24 212.91 334.74 225.89 342.24"/></g><g class="cls-8"><polygon class="cls-9" points="209.34 351.86 196.44 359.35 183.46 351.86 196.35 344.36 209.34 351.86"/></g><g class="cls-8"><polygon class="cls-9" points="192.78 361.48 179.88 368.97 166.9 361.48 179.8 353.98 192.78 361.48"/></g><g class="cls-8"><polygon class="cls-9" points="176.23 371.1 163.33 378.6 150.34 371.1 163.25 363.6 176.23 371.1"/></g><g class="cls-8"><polygon class="cls-9" points="159.68 380.72 146.78 388.21 133.79 380.72 146.69 373.22 159.68 380.72"/></g><g class="cls-8"><polygon class="cls-9" points="326.3 304.32 214.07 369.54 201.09 362.04 313.31 296.82 326.3 304.32"/></g><g class="cls-2"><polygon class="cls-10" points="325.57 237.98 312.67 245.48 299.68 237.98 312.59 230.48 325.57 237.98"/><polygon class="cls-4" points="325.57 237.98 325.56 243.49 312.65 250.99 312.67 245.48 325.57 237.98"/><polygon class="cls-7" points="312.67 245.48 312.65 250.99 299.67 243.49 299.68 237.98 312.67 245.48"/></g><g class="cls-2"><polygon class="cls-10" points="309.02 247.6 296.12 255.1 283.13 247.6 296.03 240.1 309.02 247.6"/><polygon class="cls-4" points="309.02 247.6 309 253.11 296.1 260.61 296.12 255.1 309.02 247.6"/><polygon class="cls-7" points="296.12 255.1 296.1 260.61 283.12 253.11 283.13 247.6 296.12 255.1"/></g><g class="cls-2"><polygon class="cls-10" points="292.47 257.22 279.56 264.72 266.58 257.22 279.48 249.72 292.47 257.22"/><polygon class="cls-4" points="292.47 257.22 292.45 262.73 279.55 270.23 279.56 264.72 292.47 257.22"/><polygon class="cls-7" points="279.56 264.72 279.55 270.23 266.56 262.73 266.58 257.22 279.56 264.72"/></g><g class="cls-2"><polygon class="cls-10" points="275.91 266.84 263.01 274.34 250.02 266.84 262.93 259.34 275.91 266.84"/><polygon class="cls-4" points="275.91 266.84 275.9 272.35 263 279.85 263.01 274.34 275.91 266.84"/><polygon class="cls-7" points="263.01 274.34 263 279.85 250.01 272.35 250.02 266.84 263.01 274.34"/></g><g class="cls-2"><polygon class="cls-10" points="259.36 276.46 246.46 283.96 233.47 276.46 246.37 268.96 259.36 276.46"/><polygon class="cls-4" points="259.36 276.46 259.35 281.97 246.44 289.47 246.46 283.96 259.36 276.46"/><polygon class="cls-7" points="246.46 283.96 246.44 289.47 233.46 281.97 233.47 276.46 246.46 283.96"/></g><g class="cls-2"><polygon class="cls-10" points="242.81 286.08 229.91 293.58 216.92 286.08 229.82 278.58 242.81 286.08"/><polygon class="cls-4" points="242.81 286.08 242.79 291.59 229.89 299.09 229.91 293.58 242.81 286.08"/><polygon class="cls-7" points="229.91 293.58 229.89 299.09 216.9 291.59 216.92 286.08 229.91 293.58"/></g><g class="cls-2"><polygon class="cls-10" points="226.25 295.7 213.35 303.2 200.36 295.7 213.27 288.2 226.25 295.7"/><polygon class="cls-4" points="226.25 295.7 226.24 301.21 213.34 308.71 213.35 303.2 226.25 295.7"/><polygon class="cls-7" points="213.35 303.2 213.34 308.71 200.35 301.21 200.36 295.7 213.35 303.2"/></g><g class="cls-2"><polygon class="cls-10" points="209.7 305.32 196.8 312.82 183.81 305.32 196.71 297.82 209.7 305.32"/><polygon class="cls-4" points="209.7 305.32 209.69 310.83 196.78 318.33 196.8 312.82 209.7 305.32"/><polygon class="cls-7" points="196.8 312.82 196.78 318.33 183.8 310.83 183.81 305.32 196.8 312.82"/></g><g class="cls-2"><polygon class="cls-10" points="193.15 314.94 180.25 322.44 167.26 314.94 180.16 307.44 193.15 314.94"/><polygon class="cls-4" points="193.15 314.94 193.13 320.45 180.23 327.95 180.25 322.44 193.15 314.94"/><polygon class="cls-7" points="180.25 322.44 180.23 327.95 167.24 320.45 167.26 314.94 180.25 322.44"/></g><g class="cls-2"><polygon class="cls-10" points="176.59 324.56 163.69 332.06 150.71 324.56 163.6 317.06 176.59 324.56"/><polygon class="cls-4" points="176.59 324.56 176.57 330.07 163.68 337.57 163.69 332.06 176.59 324.56"/><polygon class="cls-7" points="163.69 332.06 163.68 337.57 150.69 330.07 150.71 324.56 163.69 332.06"/></g><g class="cls-2"><polygon class="cls-10" points="160.04 334.18 147.14 341.68 134.15 334.18 147.05 326.68 160.04 334.18"/><polygon class="cls-4" points="160.04 334.18 160.02 339.69 147.12 347.19 147.14 341.68 160.04 334.18"/><polygon class="cls-7" points="147.14 341.68 147.12 347.19 134.14 339.69 134.15 334.18 147.14 341.68"/></g><g class="cls-2"><polygon class="cls-10" points="143.49 343.8 130.58 351.3 117.59 343.8 130.5 336.3 143.49 343.8"/><polygon class="cls-4" points="143.49 343.8 143.47 349.31 130.57 356.81 130.58 351.3 143.49 343.8"/><polygon class="cls-7" points="130.58 351.3 130.57 356.81 117.58 349.31 117.59 343.8 130.58 351.3"/></g><g class="cls-2"><polygon class="cls-10" points="126.93 353.42 114.03 360.92 101.04 353.42 113.94 345.92 126.93 353.42"/><polygon class="cls-4" points="126.93 353.42 126.92 358.93 114.01 366.43 114.03 360.92 126.93 353.42"/><polygon class="cls-7" points="114.03 360.92 114.01 366.43 101.03 358.93 101.04 353.42 114.03 360.92"/></g><g class="cls-2"><polygon class="cls-10" points="343.21 248.16 330.31 255.66 317.32 248.16 330.22 240.66 343.21 248.16"/><polygon class="cls-4" points="343.21 248.16 343.19 253.68 330.29 261.17 330.31 255.66 343.21 248.16"/><polygon class="cls-7" points="330.31 255.66 330.29 261.17 317.31 253.68 317.32 248.16 330.31 255.66"/></g><g class="cls-2"><polygon class="cls-10" points="326.66 257.78 313.75 265.28 300.77 257.78 313.67 250.28 326.66 257.78"/><polygon class="cls-4" points="326.66 257.78 326.64 263.3 313.74 270.79 313.75 265.28 326.66 257.78"/><polygon class="cls-7" points="313.75 265.28 313.74 270.79 300.75 263.3 300.77 257.78 313.75 265.28"/></g><g class="cls-2"><polygon class="cls-10" points="310.1 267.4 297.2 274.9 284.21 267.4 297.12 259.9 310.1 267.4"/><polygon class="cls-4" points="310.1 267.4 310.09 272.92 297.19 280.41 297.2 274.9 310.1 267.4"/><polygon class="cls-7" points="297.2 274.9 297.19 280.41 284.2 272.92 284.21 267.4 297.2 274.9"/></g><g class="cls-2"><polygon class="cls-10" points="293.55 277.02 280.65 284.52 267.66 277.02 280.56 269.52 293.55 277.02"/><polygon class="cls-4" points="293.55 277.02 293.54 282.54 280.63 290.03 280.65 284.52 293.55 277.02"/><polygon class="cls-7" points="280.65 284.52 280.63 290.03 267.65 282.54 267.66 277.02 280.65 284.52"/></g><g class="cls-2"><polygon class="cls-10" points="277 286.64 264.1 294.14 251.11 286.64 264.01 279.14 277 286.64"/><polygon class="cls-4" points="277 286.64 276.98 292.15 264.08 299.65 264.1 294.14 277 286.64"/><polygon class="cls-7" points="264.1 294.14 264.08 299.65 251.09 292.15 251.11 286.64 264.1 294.14"/><polygon class="cls-7" points="247.52 303.76 247.5 309.27 234.52 301.77 234.53 296.26 247.52 303.76"/></g><g class="cls-2"><g class="cls-2"><g class="cls-11"><g class="cls-2"><path class="cls-12" d="M232,299v5.51a2.46,2.46,0,0,0-.09.34l0-5.51c0-.11,0-.23.08-.34"/><path class="cls-13" d="M232,299.38l0,5.51a4.78,4.78,0,0,0-.06.53l0-5.52a2.31,2.31,0,0,1,.06-.52"/></g></g></g><g class="cls-2"><g class="cls-14"><g class="cls-2"><path class="cls-15" d="M250.2,300v5.51a.22.22,0,0,1,0,.08l0-5.51V300"/><path class="cls-16" d="M250.2,300.12l0,5.51a2.39,2.39,0,0,1-.06.53l0-5.52a2.31,2.31,0,0,0,.06-.52"/><path class="cls-17" d="M250.14,300.64l0,5.52a3.23,3.23,0,0,1-.14.51v-5.51a2.38,2.38,0,0,0,.15-.52"/><path class="cls-18" d="M250,301.16v5.51a3.54,3.54,0,0,1-.25.52l0-5.51a3,3,0,0,0,.24-.52"/><path class="cls-19" d="M249.75,301.68l0,5.51a3.12,3.12,0,0,1-.37.55l0-5.51a5.89,5.89,0,0,0,.37-.55"/><path class="cls-20" d="M249.38,302.23l0,5.51a5.25,5.25,0,0,1-.56.61v-5.51a5.3,5.3,0,0,0,.57-.61"/><path class="cls-21" d="M248.81,302.84v5.51a7.76,7.76,0,0,1-1.16.86v-5.52a6.69,6.69,0,0,0,1.16-.85"/><path class="cls-22" d="M247.65,303.69v5.52l-.11.06v-5.51a.41.41,0,0,0,.11-.07"/></g></g></g><polygon class="cls-10" points="234.56 296.26 247.46 288.76 260.44 296.26 247.54 303.76 234.56 296.26"/><polygon class="cls-4" points="260.44 296.26 260.43 301.77 247.53 309.27 247.54 303.76 260.44 296.26"/><g class="cls-2"><g class="cls-23"><g class="cls-2"><path class="cls-19" d="M242.63,305.24v5.51c-.34,0-.68.06-1,.07l0-5.52c.34,0,.68,0,1-.06"/><path class="cls-18" d="M241.62,305.3l0,5.52h-.93v-5.51c.31,0,.63,0,.94,0"/><path class="cls-17" d="M240.68,305.31v5.51c-.31,0-.61,0-.9-.05v-5.51l.9.05"/><path class="cls-16" d="M239.78,305.26v5.51a8.65,8.65,0,0,1-.89-.1v-5.51c.3,0,.59.08.89.1"/><path class="cls-15" d="M238.89,305.16v5.51c-.31,0-.61-.09-.91-.15l0-5.52c.3.07.6.12.9.16"/><path class="cls-24" d="M238,305l0,5.52q-.48-.11-1-.24l0-5.51a9.61,9.61,0,0,0,1,.23"/><path class="cls-25" d="M237,304.77l0,5.51c-.37-.11-.74-.23-1.1-.37l0-5.51c.35.14.72.26,1.1.37"/><path class="cls-26" d="M235.93,304.4l0,5.51a10.89,10.89,0,0,1-1.33-.64c-1.8-1-2.71-2.41-2.7-3.77V300c0,1.36.9,2.73,2.71,3.77a10.23,10.23,0,0,0,1.33.64"/></g></g></g><polygon class="cls-10" points="243.89 305.88 230.99 313.38 218 305.88 230.91 298.38 243.89 305.88"/><polygon class="cls-4" points="243.89 305.88 243.88 311.39 230.97 318.89 230.99 313.38 243.89 305.88"/><polygon class="cls-7" points="230.99 313.38 230.97 318.89 217.99 311.39 218 305.88 230.99 313.38"/></g><g class="cls-2"><polygon class="cls-10" points="227.34 315.5 214.44 323 201.45 315.5 214.35 308 227.34 315.5"/><polygon class="cls-4" points="227.34 315.5 227.32 321.01 214.42 328.51 214.44 323 227.34 315.5"/><polygon class="cls-7" points="214.44 323 214.42 328.51 201.43 321.01 201.45 315.5 214.44 323"/></g><g class="cls-2"><polygon class="cls-10" points="210.79 325.12 197.88 332.62 184.9 325.12 197.8 317.62 210.79 325.12"/><polygon class="cls-4" points="210.79 325.12 210.77 330.63 197.87 338.13 197.88 332.62 210.79 325.12"/><polygon class="cls-7" points="197.88 332.62 197.87 338.13 184.88 330.63 184.9 325.12 197.88 332.62"/></g><g class="cls-2"><polygon class="cls-10" points="194.23 334.74 181.33 342.24 168.34 334.74 181.24 327.25 194.23 334.74"/><polygon class="cls-4" points="194.23 334.74 194.21 340.25 181.31 347.75 181.33 342.24 194.23 334.74"/><polygon class="cls-7" points="181.33 342.24 181.31 347.75 168.33 340.25 168.34 334.74 181.33 342.24"/></g><g class="cls-2"><polygon class="cls-10" points="177.68 344.36 164.78 351.86 151.79 344.36 164.69 336.86 177.68 344.36"/><polygon class="cls-4" points="177.68 344.36 177.66 349.88 164.76 357.37 164.78 351.86 177.68 344.36"/><polygon class="cls-7" points="164.78 351.86 164.76 357.37 151.77 349.87 151.79 344.36 164.78 351.86"/></g><g class="cls-2"><polygon class="cls-10" points="161.12 353.98 148.22 361.48 135.23 353.98 148.13 346.48 161.12 353.98"/><polygon class="cls-4" points="161.12 353.98 161.11 359.5 148.2 366.99 148.22 361.48 161.12 353.98"/><polygon class="cls-7" points="148.22 361.48 148.2 366.99 135.22 359.5 135.23 353.98 148.22 361.48"/></g><g class="cls-2"><polygon class="cls-10" points="144.57 363.6 131.67 371.1 118.68 363.6 131.58 356.1 144.57 363.6"/><polygon class="cls-4" points="144.57 363.6 144.55 369.11 131.65 376.61 131.67 371.1 144.57 363.6"/><polygon class="cls-7" points="131.67 371.1 131.65 376.61 118.66 369.11 118.68 363.6 131.67 371.1"/></g><g class="cls-2"><polygon class="cls-10" points="360.84 258.34 347.94 265.84 334.96 258.35 347.86 250.85 360.84 258.34"/><polygon class="cls-4" points="360.84 258.34 360.83 263.86 347.93 271.36 347.94 265.84 360.84 258.34"/><polygon class="cls-7" points="347.94 265.84 347.93 271.36 334.94 263.86 334.96 258.35 347.94 265.84"/></g><g class="cls-2"><polygon class="cls-10" points="344.29 267.96 331.39 275.46 318.4 267.97 331.31 260.47 344.29 267.96"/><polygon class="cls-4" points="344.29 267.96 344.27 273.48 331.37 280.97 331.39 275.46 344.29 267.96"/><polygon class="cls-7" points="331.39 275.46 331.37 280.97 318.39 273.48 318.4 267.97 331.39 275.46"/></g><g class="cls-2"><polygon class="cls-10" points="327.74 277.58 314.83 285.08 301.85 277.59 314.75 270.09 327.74 277.58"/><polygon class="cls-4" points="327.74 277.58 327.72 283.1 314.82 290.59 314.83 285.08 327.74 277.58"/><polygon class="cls-7" points="314.83 285.08 314.82 290.59 301.84 283.1 301.85 277.59 314.83 285.08"/></g><g class="cls-2"><polygon class="cls-10" points="311.18 287.2 298.28 294.7 285.3 287.2 298.2 279.71 311.18 287.2"/><polygon class="cls-4" points="311.18 287.2 311.17 292.71 298.27 300.21 298.28 294.7 311.18 287.2"/><polygon class="cls-7" points="298.28 294.7 298.27 300.21 285.28 292.72 285.3 287.2 298.28 294.7"/></g><g class="cls-2"><polygon class="cls-10" points="294.63 296.82 281.73 304.32 268.75 296.82 281.65 289.33 294.63 296.82"/><polygon class="cls-4" points="294.63 296.82 294.62 302.33 281.71 309.83 281.73 304.32 294.63 296.82"/><polygon class="cls-7" points="281.73 304.32 281.71 309.83 268.73 302.34 268.75 296.82 281.73 304.32"/></g><g class="cls-2"><polygon class="cls-10" points="278.08 306.44 265.18 313.94 252.19 306.44 265.1 298.95 278.08 306.44"/><polygon class="cls-4" points="278.08 306.44 278.06 311.95 265.16 319.45 265.18 313.94 278.08 306.44"/><polygon class="cls-7" points="265.18 313.94 265.16 319.45 252.18 311.96 252.19 306.44 265.18 313.94"/></g><g class="cls-2"><polygon class="cls-10" points="261.52 316.06 248.62 323.56 235.64 316.06 248.54 308.57 261.52 316.06"/><polygon class="cls-4" points="261.52 316.06 261.51 321.57 248.61 329.07 248.62 323.56 261.52 316.06"/><polygon class="cls-7" points="248.62 323.56 248.61 329.07 235.62 321.58 235.64 316.06 248.62 323.56"/></g><g class="cls-2"><polygon class="cls-10" points="244.97 325.68 232.07 333.18 219.09 325.68 231.99 318.19 244.97 325.68"/><polygon class="cls-4" points="244.97 325.68 244.96 331.19 232.05 338.69 232.07 333.18 244.97 325.68"/><polygon class="cls-7" points="232.07 333.18 232.05 338.69 219.07 331.2 219.09 325.68 232.07 333.18"/></g><g class="cls-2"><polygon class="cls-10" points="228.42 335.3 215.52 342.8 202.53 335.3 215.44 327.81 228.42 335.3"/><polygon class="cls-4" points="228.42 335.3 228.4 340.81 215.5 348.31 215.52 342.8 228.42 335.3"/><polygon class="cls-7" points="215.52 342.8 215.5 348.31 202.52 340.82 202.53 335.3 215.52 342.8"/></g><g class="cls-2"><polygon class="cls-10" points="211.86 344.92 198.96 352.42 185.98 344.92 198.88 337.43 211.86 344.92"/><polygon class="cls-4" points="211.86 344.92 211.84 350.44 198.95 357.93 198.96 352.42 211.86 344.92"/><polygon class="cls-7" points="198.96 352.42 198.95 357.93 185.96 350.44 185.98 344.92 198.96 352.42"/></g><g class="cls-2"><polygon class="cls-10" points="195.31 354.54 182.41 362.04 169.43 354.54 182.32 347.05 195.31 354.54"/><polygon class="cls-4" points="195.31 354.54 195.29 360.06 182.39 367.55 182.41 362.04 195.31 354.54"/><polygon class="cls-7" points="182.41 362.04 182.39 367.55 169.41 360.06 169.43 354.54 182.41 362.04"/></g><g class="cls-2"><polygon class="cls-10" points="178.75 364.16 165.85 371.66 152.87 364.17 165.77 356.67 178.75 364.16"/><polygon class="cls-4" points="178.75 364.16 178.74 369.68 165.84 377.17 165.85 371.66 178.75 364.16"/><polygon class="cls-7" points="165.85 371.66 165.84 377.17 152.85 369.68 152.87 364.17 165.85 371.66"/></g><g class="cls-2"><polygon class="cls-10" points="162.2 373.78 149.3 381.28 136.32 373.79 149.22 366.29 162.2 373.78"/><polygon class="cls-4" points="162.2 373.78 162.19 379.3 149.28 386.79 149.3 381.28 162.2 373.78"/><polygon class="cls-7" points="149.3 381.28 149.28 386.79 136.3 379.3 136.32 373.79 149.3 381.28"/></g><g class="cls-2"><polygon class="cls-10" points="328.82 297.39 216.6 362.6 203.61 355.1 315.83 289.89 328.82 297.39"/><polygon class="cls-4" points="328.82 297.39 328.81 302.9 216.58 368.11 216.6 362.6 328.82 297.39"/><polygon class="cls-7" points="216.6 362.6 216.58 368.11 203.6 360.62 203.61 355.1 216.6 362.6"/></g><g class="cls-2"><polygon class="cls-10" points="349.53 342.11 284.45 379.94 247.74 358.74 312.82 320.92 349.53 342.11"/></g><g class="cls-2"><polygon class="cls-7" points="300.55 205.5 300.01 13.46 44.97 160.88 44.97 352.92 300.55 205.5"/><polygon class="cls-9" points="63.21 171.56 281.58 45.48 282 194.82 63.63 320.9 63.21 171.56"/><polygon class="cls-4" points="300.01 13.46 284.35 4.36 29 151.78 44.97 160.88 300.01 13.46"/><polygon class="cls-6" points="44.97 160.88 29 151.78 29.54 343.82 44.97 352.92 44.97 160.88"/></g><g class="cls-2"><g class="cls-2"><g class="cls-27"><path class="cls-6" d="M380.42,206.68,358.26,193.8c.21-4.54-1.25-7.91-3.86-9.42l22.16,12.88c2.61,1.51,4.07,4.88,3.86,9.42"/></g></g><path class="cls-6" d="M443.33,94.09c.28-.09.56-.2.84-.31h0l.06,0c.3-.12.61-.26.91-.41l.26-.13c.33-.17.66-.34,1-.54L424.24,79.79c-.33.19-.66.37-1,.53l-.26.13c-.3.15-.61.29-.91.42l-.07,0c-.28.11-.56.22-.84.31l-.24.08c-.19.07-.39.13-.58.18l-.33.09-.32.08-.36.07-.31.06-.24,0c-.34,0-.66.08-1,.09H417l-.21,0c-.22,0-.44,0-.66-.07l-.09,0c-.24,0-.46-.09-.69-.15l-.18-.06-.47-.17-.2-.08-.46-.22-.17-.09h0L436,93.89l.07,0,.11.06c.14.08.3.15.45.22l.09,0,.12,0,.46.17.12,0h.06a5.32,5.32,0,0,0,.69.16h.1c.21,0,.43.06.65.07h.21c.26,0,.53,0,.8,0h0a8.35,8.35,0,0,0,1-.1h.11l.13,0,.31-.06.36-.07.32-.08.2,0,.13,0c.19,0,.39-.11.58-.18Z"/><path class="cls-9" d="M410.2,126.83c0-.58.06-1.16.05-1.73,0-6.3-2.24-10.73-5.84-12.82L382.25,99.4c3.6,2.09,5.83,6.52,5.84,12.82,0,.57,0,1.15,0,1.73,0,.12,0,.24,0,.36,0,.57-.1,1.14-.17,1.71,0,.16-.05.32-.07.48l-.12.81c0,.18-.06.36-.1.54s-.09.52-.15.78-.09.42-.13.63l-.12.52c-.06.23-.11.46-.17.69s-.09.34-.14.51-.08.28-.11.41c-.17.57-.34,1.14-.53,1.71,0,.05,0,.1,0,.15-.19.56-.39,1.12-.6,1.67-.05.14-.11.28-.16.41-.18.47-.37.94-.57,1.4a2.14,2.14,0,0,1-.1.22c-.22.52-.46,1-.7,1.54-.07.14-.13.27-.2.4-.19.41-.4.81-.61,1.21l-.19.37c-.27.5-.55,1-.83,1.49l-.17.27c-.25.43-.51.86-.77,1.28l-.24.36c-.33.52-.66,1-1,1.52l-.16.23c-.37.51-.74,1-1.12,1.51l-.14.19c-.48.62-1,1.22-1.48,1.8l-.19.22c-.33.38-.66.74-1,1.1h0c-.34.36-.68.71-1,1.05s-.42.42-.64.62l-.2.19c-.29.27-.58.54-.88.8l-.23.19c-.22.2-.44.39-.67.57l-.33.26-.59.47-.36.27-.59.42c-.11.09-.23.17-.35.25l-.64.43-.31.2-1,.58c-.42.24-.84.47-1.26.68l-.36.17c-.32.16-.63.3-1,.44l-.34.14-.86.33-.24.09-1.07.33-.65.16-.27.07c-.3.06-.61.12-.9.16h-.07l-.78.1-.27,0-.57,0h-1.26c-.31,0-.61-.06-.91-.11l-.28-.05a8.08,8.08,0,0,1-1-.23h0c-.31-.09-.61-.2-.91-.32l-.25-.11c-.25-.11-.5-.23-.74-.36l-.24-.13h0L376.1,161l.11.06.13.07c.24.13.49.25.74.36l.14.07.11,0a9.07,9.07,0,0,0,.92.32h0a8.52,8.52,0,0,0,1,.23l.12,0,.16,0a9,9,0,0,0,.91.1l.14,0h1.32c.13,0,.25,0,.37,0h.27l.78-.1h.08c.29,0,.59-.1.89-.16l.27-.07.59-.14.06,0,1.07-.33.24-.09.87-.33.12,0,.21-.1c.32-.14.63-.28.95-.44l.36-.17c.42-.21.84-.44,1.26-.68l1-.58.31-.2.64-.43.36-.25.58-.42.36-.27.59-.47.33-.26c.23-.18.45-.37.67-.56l.23-.2c.3-.26.59-.53.88-.8l.21-.19.55-.53.08-.09c.35-.34.69-.69,1-1.05h0c.33-.36.66-.72,1-1.1l.08-.09.11-.13c.5-.58,1-1.18,1.48-1.8l0,0,.1-.14c.38-.49.75-1,1.12-1.52l.11-.15.05-.07c.35-.5.68-1,1-1.52a.71.71,0,0,0,.1-.14l.14-.22.78-1.28.12-.2a.25.25,0,0,1,0-.07c.28-.49.56-1,.83-1.49l.07-.12.12-.25c.21-.4.42-.81.61-1.21.05-.08.09-.17.13-.25l.07-.15c.24-.51.48-1,.7-1.54l0-.05a1.34,1.34,0,0,1,.07-.18c.2-.46.39-.92.57-1.39l.09-.23a1.34,1.34,0,0,0,.07-.18c.21-.56.41-1.11.6-1.67v0a.76.76,0,0,1,0-.11c.18-.57.36-1.14.52-1.71l.06-.21a1.46,1.46,0,0,0,.05-.2c.05-.17.09-.34.14-.51s.11-.46.17-.69l.12-.52c0-.13.06-.25.08-.38a2.21,2.21,0,0,0,.05-.25q.09-.39.15-.78c0-.18.07-.36.1-.55l.12-.8L410,129s0-.07,0-.1c.07-.57.13-1.14.17-1.71C410.19,127.07,410.19,127,410.2,126.83Z"/><path class="cls-6" d="M347.86,188.49c0-.16,0-.31,0-.47s0-.44,0-.65v-.47c0-.21,0-.42,0-.62a3.4,3.4,0,0,0,0-.45l-.06-.61-.06-.42-.12-.6c0-.12-.05-.25-.08-.38s-.11-.41-.18-.62,0-.2-.09-.3a8.26,8.26,0,0,0-.34-.87,7,7,0,0,0-2.88-3.31l-22.16-12.88a7,7,0,0,1,2.88,3.31,8.26,8.26,0,0,1,.34.87c0,.1.06.21.09.31a6.13,6.13,0,0,1,.18.61c0,.13.05.26.08.39l.12.59c0,.14,0,.28.05.43s.05.4.07.6l0,.45c0,.21,0,.41,0,.63v.46c0,.22,0,.43,0,.65s0,.32,0,.47l-.06.7c0,.15,0,.3-.05.46,0,.36-.1.72-.16,1.09a.59.59,0,0,0,0,.13c-.06.31-.13.63-.2.95s-.18.77-.28,1.15a2.86,2.86,0,0,1-.07.28c-.12.43-.25.87-.4,1.3v.07c-.14.41-.29.83-.45,1.24a1.8,1.8,0,0,0-.08.21c-.14.35-.28.69-.43,1l-.18.38c-.13.28-.25.57-.39.85s-.15.3-.23.45l-.4.76c-.08.16-.17.32-.26.48-.19.32-.37.65-.57,1L343.61,201c.12-.19.23-.38.34-.57l.23-.4.27-.48.12-.24c.1-.17.18-.35.27-.52s.16-.3.23-.46.05-.09.07-.14c.12-.23.22-.47.32-.7l.18-.38,0-.07c.14-.32.27-.65.4-1,0-.07.06-.14.08-.21h0c.16-.41.3-.82.44-1.23v0h0v0c.15-.43.28-.87.4-1.3v-.05a1.55,1.55,0,0,0,.06-.23c.1-.39.2-.77.28-1.15,0,0,0-.1,0-.15.06-.27.11-.54.16-.81a.5.5,0,0,1,0-.12c.06-.32.11-.65.15-1,0-.05,0-.09,0-.14s0-.3.05-.45Z"/><path class="cls-6" d="M414.48,58.88l-13.91-7.81c-.15.27-.3.54-.46.81s-.37.62-.57.93l-.12.19c-.17.27-.35.52-.53.78l-.19.28c-.22.31-.45.62-.68.91l-.09.13c-.32.41-.65.81-1,1.19l-.18.22-.51.56-.21.22-.72.75-.06.05c-.34.34-.69.66-1,1l-.15.14q-.52.45-1.05.87l-.2.15c-.35.28-.71.54-1.06.78l-.17.11c-.38.25-.75.49-1.12.7s-.57.32-.85.46l-.19.09c-.28.14-.55.27-.83.38l-.15.06-.52.2-.23.07-.44.14-.21.06c-.3.08-.6.14-.89.19l-.43.06-.57,0a6.57,6.57,0,0,1-.77,0h-.19l-.55-.07-.18,0c-.22,0-.44-.09-.65-.15l-.1,0a4.56,4.56,0,0,1-.52-.18L382,63c-.17-.07-.33-.15-.48-.23l-.16-.09,22.16,12.88.07,0,.09.05c.15.08.31.16.48.23l.09.05.09,0c.17.06.34.13.52.18l.08,0h0c.22.06.43.11.66.15h.17l.55.07h.19c.25,0,.51,0,.77,0h0l.55,0,.36-.05h.07c.29,0,.59-.12.89-.19l.08,0,.13,0,.44-.14.23-.07.52-.2.13-.05h0c.28-.11.55-.24.83-.38l.19-.09c.28-.15.57-.29.85-.46s.74-.45,1.12-.7l.17-.11c.35-.25.71-.5,1.06-.78l.2-.15c.35-.28.71-.57,1.05-.88l.15-.13c.35-.31.7-.63,1-1l0,0h0c.24-.25.48-.49.72-.75l.21-.22.51-.56.09-.11.09-.11c.33-.39.66-.78,1-1.19l0,0,.07-.11c.23-.3.46-.6.68-.91l.11-.15.09-.13.52-.78.1-.15,0,0q.3-.47.57-.93l0,0c.15-.26.3-.52.44-.78l13.91,7.81Z"/><polygon class="cls-4" points="334.86 179.53 312.7 166.65 311.89 144.66 334.05 157.53 334.86 179.53"/><polygon class="cls-4" points="380.5 77.5 358.34 64.62 377.49 53.56 399.65 66.44 380.5 77.5"/><path class="cls-6" d="M348.06,134.74c0-.12,0-.23,0-.35s0-.46,0-.69,0-.23,0-.34,0-.47-.06-.7,0-.19,0-.28c0-.31-.09-.62-.14-.92l0-.13c0-.26-.1-.5-.17-.74,0-.09-.05-.18-.08-.28l-.18-.56-.1-.27c-.08-.19-.15-.37-.24-.54a2.29,2.29,0,0,0-.1-.23,7.69,7.69,0,0,0-.39-.69.21.21,0,0,0,0-.06c-.12-.2-.26-.39-.4-.58s-.11-.12-.16-.19l-.35-.39-.19-.18a4.4,4.4,0,0,0-.39-.35l-.18-.14a6.74,6.74,0,0,0-.62-.42L322,112.83a6.74,6.74,0,0,1,.62.42l.18.15a3.17,3.17,0,0,1,.39.34,1.7,1.7,0,0,1,.19.19c.12.12.24.25.35.38s.11.13.16.19.28.38.4.58l0,.06a6.68,6.68,0,0,1,.39.7,1.47,1.47,0,0,1,.1.22c.08.17.16.35.23.54s.07.18.11.28l.18.55c0,.1.06.19.08.28.07.24.12.49.17.74a.79.79,0,0,1,0,.13q.09.45.15.93c0,.09,0,.18,0,.27s.05.46.06.7,0,.23,0,.35,0,.45,0,.68v.35c0,.28,0,.56,0,.84,0,.08,0,.14,0,.21,0,.36-.07.72-.12,1.09,0,.09,0,.18,0,.26,0,.29-.09.57-.14.85,0,.12,0,.24-.07.36s-.09.41-.13.62-.14.6-.22.9-.14.55-.23.83-.22.7-.34,1c-.06.18-.13.36-.19.53l-.27.71-.2.48-.33.75c-.06.14-.13.29-.2.43s-.26.54-.4.81l-.18.36c-.19.36-.39.73-.6,1.08a.43.43,0,0,1,0,.07c-.22.39-.46.77-.7,1.15-.12.19-.25.37-.37.55l-.41.6c-.28.4-.57.79-.86,1.18l-.09.1c-.3.39-.62.78-1,1.16l-.52.59c-.1.1-.19.21-.29.32-.26.28-.53.56-.8.83l-.08.08-.07.06c-.34.34-.7.67-1.06,1l-.37.32-.81.67-.42.32c-.28.21-.56.42-.84.61l-.38.27c-.41.27-.83.53-1.24.78l22.16,12.87c.42-.24.83-.5,1.24-.77l.38-.27c.28-.19.56-.4.84-.61l.42-.32.81-.67.37-.32c.36-.32.72-.65,1.06-1l.06-.05h0l.08-.09c.27-.27.54-.54.8-.83l.29-.31.41-.45.11-.15c.33-.37.65-.76.95-1.15l.08-.09v0c.3-.38.58-.77.86-1.17l0,0c.13-.18.25-.37.37-.55s.26-.37.38-.56l0,0c.24-.36.46-.73.68-1.1h0l0-.07c.19-.33.38-.67.56-1a.25.25,0,0,0,0-.07l.18-.36c.11-.21.22-.42.32-.64a.89.89,0,0,0,.08-.17c.07-.14.14-.29.2-.43l.22-.48.11-.27.2-.48c0-.12.1-.23.14-.35s.09-.24.13-.36.13-.35.19-.53.07-.18.1-.28c.08-.25.17-.51.24-.77s.11-.34.15-.52.05-.2.08-.3c.08-.31.15-.6.22-.9,0-.1.05-.2.07-.3s0-.21.06-.32.05-.24.07-.36c.06-.28.1-.57.14-.85a2.34,2.34,0,0,0,0-.26s0-.06,0-.09c0-.34.07-.67.1-1,0-.07,0-.14,0-.21C348,135.3,348.06,135,348.06,134.74Z"/><path class="cls-6" d="M380.24,81.31c0-.11,0-.23.05-.35l.06-.36c0-.09,0-.17,0-.26q.06-.51.09-1l0-.43c0-.47,0-.94,0-1.39L358.34,64.62c0,.45,0,.92,0,1.39l0,.44c0,.33-.05.67-.09,1s0,.42-.08.62,0,.24-.05.35c-.05.33-.11.65-.18,1l0,.17c0,.09-.05.18-.07.26-.08.39-.18.78-.28,1.17,0,.19-.11.38-.17.57s-.15.5-.23.76-.14.42-.22.64-.14.41-.22.62l-.27.69c-.08.18-.15.36-.23.55s-.21.49-.33.73-.14.32-.22.48-.27.56-.42.84c-.06.12-.11.24-.18.36-.21.39-.42.78-.65,1.17,0,.07-.09.14-.13.22-.19.31-.38.63-.58.94l-.33.49c-.15.22-.29.44-.44.65s-.34.47-.52.7-.22.31-.34.46c-.31.4-.64.8-1,1.19s-.59.66-.9,1-.57.57-.85.84l-.45.42-.69.58-.43.36c-.26.2-.52.38-.78.57l-.37.27c-.38.26-.77.5-1.16.73s-.59.32-.89.47l-.23.11a8.84,8.84,0,0,1-.83.38l-.06,0c-.26.11-.52.2-.78.29l-.22.08-.56.17-.29.08-.32.08-.33.07-.32,0-.25,0c-.32,0-.63.08-.93.1h-.15c-.23,0-.46,0-.69,0h-.18c-.24,0-.48-.05-.71-.09l-.12,0-.53-.12-.21-.07-.4-.14-.2-.08-.4-.19-.18-.1,22.16,12.88.07,0a.6.6,0,0,1,.11.06l.4.19.08,0,.12,0,.4.14.12,0,.09,0a4.54,4.54,0,0,0,.53.12l.1,0h0a5.71,5.71,0,0,0,.71.08h.18c.23,0,.46,0,.69,0h.15a7.5,7.5,0,0,0,.93-.09h.09l.16,0a1.65,1.65,0,0,0,.32-.06l.33-.06.32-.08.16,0,.13,0,.56-.17.22-.08c.26-.09.52-.18.78-.29h0l0,0c.28-.11.56-.24.84-.38l.22-.11c.3-.15.6-.31.89-.48s.78-.47,1.16-.73l.38-.26.77-.57.43-.36.69-.58.45-.42.38-.35.48-.49.86-.94,0,0c.33-.38.66-.78,1-1.18l0-.05c.11-.13.2-.28.31-.42s.34-.45.51-.69l.05-.07c.14-.19.27-.39.4-.59s.22-.32.32-.48l0-.06c.19-.29.36-.58.54-.88l.13-.22h0c.22-.37.42-.74.62-1.12l0,0c.06-.11.11-.23.17-.35s.26-.48.37-.73l.06-.11.21-.48c.09-.19.18-.37.26-.56a1.34,1.34,0,0,0,.07-.18l.23-.54c.06-.16.13-.32.19-.49s.05-.13.08-.2.15-.42.22-.62.11-.3.16-.44l.06-.21c.08-.25.16-.5.23-.75s.09-.28.13-.42a.83.83,0,0,1,0-.15c.1-.39.2-.78.28-1.17l.06-.22v0l0-.18C380.13,82,380.19,81.64,380.24,81.31Z"/><rect class="cls-4" x="325.73" y="94.27" width="27.54" height="25.63" transform="translate(76.33 346.81) rotate(-59.84)"/><path class="cls-10" d="M433.33,90.89c2.09,4.46,7.22,5.16,13.08,1.77l-.38,22.7c-5.42,3.12-10.27,9.61-12.31,16.56s-.71,13.14,3.4,15.09l-13.64,23.71c-2.49-1.73-6.35-1.29-10.12.89a21.39,21.39,0,0,0-4.83,3.87c-5.17,5.48-8.41,13.36-8.07,19.63l-20,11.57c.31-6.64-3-10.77-8.15-10.27a12.27,12.27,0,0,0-4.84,1.72,28.4,28.4,0,0,0-10.09,10.77L343.61,201c4.09-6.68,5.42-14.3,3.3-19s-6.94-5.45-12.05-2.5l-.81-22a30.35,30.35,0,0,0,13-16.84c2.15-7.19.79-13.32-3.39-15.25l13.81-23.82c2.5,1.71,6.36,1.25,10.12-.93a21.45,21.45,0,0,0,4.74-3.76c5.1-5.35,8.38-13.16,8.16-19.43l19.15-11.06c-.18,6.5,3.13,10.5,8.25,10a12.31,12.31,0,0,0,4.74-1.71A28.45,28.45,0,0,0,422.73,64l13.91,7.81C432.48,78.51,431.15,86.2,433.33,90.89Zm-43,68.73c11-6.37,20-21.85,19.93-34.52s-9-17.8-20.06-11.44-20,21.86-19.93,34.53,9,17.8,20.06,11.43"/></g><g class="cls-2"><g class="cls-2"><g class="cls-28"><path class="cls-6" d="M288.67,313.44l-18.6-10.8c.18-3.81-1.05-6.64-3.24-7.91l18.6,10.81c2.18,1.27,3.41,4.09,3.24,7.9"/></g></g><path class="cls-6" d="M341.46,219l.7-.26h0l.05,0c.25-.11.5-.22.76-.35l.22-.11c.27-.14.55-.28.83-.45L325.44,207q-.42.24-.84.45l-.21.1c-.26.13-.52.25-.77.35l-.06,0c-.23.1-.47.19-.7.27l-.2.06-.49.15-.28.08-.27.06-.3.06-.26,0-.2,0a7.84,7.84,0,0,1-.82.08h-.88l-.55-.07h-.08a5.43,5.43,0,0,1-.58-.13l-.15-.05a3,3,0,0,1-.39-.14l-.17-.06-.39-.19-.14-.08h0l18.6,10.81.06,0,.09,0,.38.19.08,0,.09,0,.39.14.11,0h.05l.57.13h.08a5.14,5.14,0,0,0,.55.06h.89a7.65,7.65,0,0,0,.81-.08h.09l.12,0,.26-.05.3-.06.27-.07.16,0,.11,0,.49-.15Z"/><path class="cls-9" d="M313.65,246.44c0-.49.05-1,.05-1.45,0-5.28-1.89-9-4.9-10.76l-18.6-10.8c3,1.75,4.89,5.47,4.9,10.75,0,.48,0,1,0,1.45,0,.11,0,.21,0,.31,0,.47-.08.95-.14,1.43l-.06.41c0,.22-.06.45-.1.67s-.05.31-.08.46-.08.43-.13.65-.07.35-.11.53-.07.29-.1.44-.09.38-.14.58l-.12.43-.09.34c-.14.48-.28,1-.44,1.44a.56.56,0,0,0,0,.12c-.16.47-.33.93-.5,1.4l-.14.35q-.23.59-.48,1.17c0,.06-.05.12-.08.19-.18.43-.38.86-.59,1.29l-.16.33-.51,1-.17.3q-.33.63-.69,1.26a1.76,1.76,0,0,0-.14.23c-.21.36-.43.71-.65,1.07l-.2.3c-.28.43-.56.86-.85,1.27a2.43,2.43,0,0,1-.14.2c-.3.43-.61.85-.93,1.27l-.13.16c-.4.51-.81,1-1.24,1.51l-.16.18c-.27.32-.55.62-.83.92h0c-.28.3-.56.59-.85.88l-.54.52-.17.16c-.25.23-.49.46-.74.67l-.19.17-.57.47-.27.22c-.17.14-.33.27-.5.39l-.3.23-.49.36-.3.2-.54.36-.25.17-.81.49c-.35.2-.71.39-1.06.57l-.3.15-.79.36-.29.12-.73.28-.19.07c-.31.1-.61.2-.91.28l-.54.13-.23.06-.75.14h-.06l-.65.07-.23,0-.48,0h-.88l-.18,0c-.26,0-.51-.05-.76-.09l-.23,0a7.35,7.35,0,0,1-.84-.19h0c-.27-.08-.52-.17-.77-.27l-.21-.09c-.21-.09-.42-.2-.62-.31l-.2-.1h0L285,275.11l.09.06.11.05c.2.11.41.21.62.3l.12.06.1,0c.25.1.5.19.76.27h0c.27.07.55.14.84.19l.1,0,.13,0c.25,0,.51.07.77.09h1.23l.31,0,.22,0,.65-.08h.07a6.58,6.58,0,0,0,.75-.14l.22-.05.5-.12h0l.9-.28.2-.08.73-.27.1,0,.18-.09c.26-.11.53-.23.79-.36l.31-.15c.35-.17.7-.36,1.06-.57s.53-.31.8-.48l.26-.17.54-.36.29-.21c.17-.11.33-.23.5-.36l.3-.22.49-.39.28-.22.56-.47.19-.17c.25-.22.5-.44.74-.67l.17-.16.47-.45.07-.07c.29-.29.58-.58.86-.88h0c.28-.3.56-.61.83-.92l.07-.08.09-.11c.42-.49.84-1,1.24-1.51l0,0,.09-.12c.32-.41.63-.84.94-1.27l.09-.13,0-.06c.3-.42.58-.84.86-1.27l.08-.12.11-.19c.22-.35.44-.71.65-1.07l.11-.16,0-.07c.24-.41.47-.83.7-1.25l.06-.1a2,2,0,0,1,.1-.21c.18-.33.35-.67.51-1a2.12,2.12,0,0,0,.11-.21l.06-.13c.2-.42.4-.85.59-1.29l0,0,.06-.15.48-1.17c0-.06.05-.12.07-.19l.06-.16c.18-.46.35-.93.5-1.39v0l0-.1c.16-.48.31-1,.44-1.43l.06-.18a1,1,0,0,1,0-.17c0-.14.07-.28.11-.43s.1-.38.14-.58.07-.29.11-.43,0-.21.07-.32a1.55,1.55,0,0,1,0-.21l.12-.66.09-.45c0-.23.07-.45.1-.68s0-.21.05-.32v-.08c.06-.48.11-1,.14-1.43C313.64,246.64,313.65,246.54,313.65,246.44Z"/><path class="cls-6" d="M261.35,298.18c0-.13,0-.26,0-.39s0-.37,0-.55v-.39c0-.18,0-.35,0-.53l0-.37a4.43,4.43,0,0,0-.06-.51c0-.12,0-.24,0-.35s-.07-.34-.1-.51,0-.21-.07-.32-.09-.34-.15-.52a2.33,2.33,0,0,0-.07-.25c-.09-.25-.18-.49-.29-.73a6,6,0,0,0-2.42-2.78l-18.59-10.81A6,6,0,0,1,242,282a7.69,7.69,0,0,1,.28.72l.08.26.15.52.06.32c0,.16.07.33.1.5s0,.23.05.35l.06.51c0,.13,0,.25,0,.38s0,.35,0,.52,0,.26,0,.39,0,.37,0,.55,0,.26,0,.39,0,.39-.05.59,0,.25,0,.38c0,.31-.08.61-.14.92a.43.43,0,0,1,0,.11c0,.26-.1.53-.16.8s-.15.64-.23,1a2.1,2.1,0,0,0-.06.24c-.11.36-.22.72-.34,1.09v.06c-.11.34-.24.69-.37,1,0,.06,0,.12-.07.17l-.36.88-.15.32-.33.7-.19.38c-.11.22-.22.43-.34.64s-.14.27-.22.4-.31.55-.48.82l18.6,10.81.29-.48c.06-.11.12-.23.19-.34l.22-.4.11-.2c.08-.14.15-.29.22-.44l.2-.38.06-.12c.09-.2.18-.39.26-.59l.15-.32,0-.06c.12-.27.22-.54.33-.81,0-.06.05-.12.07-.17v0c.13-.34.25-.69.37-1v0h0v0c.12-.37.23-.73.33-1.1v0c0-.07,0-.13.05-.2.09-.32.17-.65.24-1l0-.13c0-.22.09-.44.13-.67,0,0,0-.07,0-.1q.08-.4.12-.81a.41.41,0,0,0,0-.11c0-.13,0-.26,0-.38Z"/><path class="cls-6" d="M317.24,189.43l-11.67-6.56c-.12.23-.25.46-.38.68s-.31.53-.48.78l-.1.17-.44.65-.17.23c-.18.26-.37.52-.56.77a.76.76,0,0,0-.08.11c-.27.34-.54.67-.82,1l-.16.18-.42.47-.18.18c-.2.22-.4.43-.61.63l0,.05c-.29.28-.58.55-.88.81l-.12.11c-.29.26-.59.5-.88.73l-.17.13c-.3.23-.6.45-.89.65l-.15.1c-.31.21-.62.41-.94.59l-.7.38-.17.08-.69.32-.12,0-.44.17-.2.07-.37.11-.17.05c-.25.06-.51.12-.75.16l-.36,0a3.87,3.87,0,0,1-.48,0c-.22,0-.43,0-.64,0h-.17l-.46-.06-.14,0-.55-.13-.09,0a3.81,3.81,0,0,1-.44-.15l-.15-.06-.4-.2-.13-.07,18.59,10.8.06,0,.08,0a3,3,0,0,0,.4.2l.08,0,.07,0,.44.15.07,0h0a4.71,4.71,0,0,0,.54.12l.05,0h.1l.46,0h.16c.21,0,.43,0,.64,0h0l.46,0,.31,0h.05a6.69,6.69,0,0,0,.75-.16h.07l.11,0,.37-.12.19-.06.44-.17.11,0h0c.23-.09.46-.2.69-.31l.16-.09c.24-.11.47-.24.71-.38s.63-.38.94-.59l.14-.09c.3-.2.6-.42.89-.65l.17-.13c.3-.23.59-.48.88-.73l.13-.11c.29-.26.58-.54.87-.82l0,0h0l.61-.63.17-.19.43-.47.07-.08.08-.1c.28-.32.55-.66.82-1l0,0L322,197l.57-.77.09-.12.07-.12c.15-.21.3-.43.44-.65l.09-.13,0,0c.16-.26.32-.52.47-.78l0,0c.13-.21.25-.43.37-.65l11.67,6.55Z"/><polygon class="cls-4" points="250.44 290.66 231.84 279.86 231.16 261.4 249.76 272.21 250.44 290.66"/><polygon class="cls-4" points="288.74 205.05 270.14 194.24 286.2 184.97 304.8 195.77 288.74 205.05"/><path class="cls-6" d="M261.51,253.08c0-.1,0-.2,0-.29s0-.39,0-.58,0-.2,0-.29,0-.4-.05-.59,0-.15,0-.23c0-.26-.07-.52-.12-.77l0-.12c0-.21-.09-.41-.14-.61s-.05-.16-.07-.24l-.15-.46-.09-.24-.19-.45-.09-.19a5.45,5.45,0,0,0-.33-.58l0-.05a5.85,5.85,0,0,0-.34-.48c0-.06-.09-.11-.13-.16s-.19-.23-.29-.33-.11-.11-.16-.16l-.33-.28-.15-.13c-.17-.12-.34-.24-.52-.35l-18.6-10.8a3.64,3.64,0,0,1,.52.35l.15.12a3.11,3.11,0,0,1,.33.29l.16.15.29.33.14.16a5.85,5.85,0,0,1,.34.48l0,0a5.54,5.54,0,0,1,.32.59l.09.18c.07.15.13.3.2.46s0,.15.08.23a3.68,3.68,0,0,1,.15.47,2,2,0,0,1,.07.23,6.23,6.23,0,0,1,.15.62.52.52,0,0,1,0,.11q.07.38.12.78a1.64,1.64,0,0,1,0,.23c0,.19,0,.38.05.58s0,.2,0,.29,0,.39,0,.58v.29l0,.71a1.09,1.09,0,0,0,0,.18c0,.3-.06.6-.1.91,0,.07,0,.15,0,.22,0,.24-.07.47-.11.71l-.06.3c0,.18-.07.35-.11.52s-.12.5-.19.75-.12.47-.19.7-.19.59-.29.88l-.15.44c-.08.2-.16.4-.23.6s-.11.27-.17.4l-.27.63-.17.36c-.11.23-.22.45-.34.68l-.15.3c-.16.31-.33.61-.5.91a.21.21,0,0,0,0,.06c-.19.32-.38.64-.59,1-.1.16-.2.31-.31.46l-.34.51c-.23.33-.47.66-.72,1l-.07.09c-.26.33-.53.65-.8,1l-.44.5-.24.26c-.22.24-.45.47-.67.7l-.07.07-.06.05c-.29.29-.59.57-.89.83l-.31.27-.68.56-.35.27c-.23.18-.47.35-.71.52l-.32.22c-.34.23-.69.45-1,.65l18.6,10.81c.35-.21.69-.43,1-.66l.32-.22c.23-.16.47-.33.7-.51l.35-.27.69-.57.31-.26.89-.83,0-.05h0l.07-.07c.23-.23.45-.46.67-.7.09-.09.16-.18.24-.27l.35-.37.09-.12c.28-.32.54-.64.8-1l.06-.08h0c.25-.32.49-.65.73-1l0,0c.11-.15.21-.31.31-.47l.32-.46,0,0,.57-.93h0l0-.05c.16-.28.32-.56.47-.85l0-.06c.06-.1.11-.21.16-.31l.27-.53.06-.14c.06-.12.12-.25.17-.37l.18-.39.09-.23c.06-.14.12-.27.17-.4l.12-.3.11-.3c0-.15.11-.3.16-.44a2.25,2.25,0,0,0,.08-.24l.21-.64.12-.44c0-.09,0-.17.07-.26l.18-.75a2.44,2.44,0,0,0,.06-.26,2.38,2.38,0,0,0,.05-.26l.06-.3q.07-.36.12-.72l0-.21a.22.22,0,0,0,0-.08q.06-.42.09-.84a1,1,0,0,0,0-.17C261.5,253.55,261.51,253.31,261.51,253.08Z"/><path class="cls-6" d="M288.51,208.25c0-.1,0-.2.05-.29s0-.21,0-.31,0-.14,0-.21c0-.29.06-.58.08-.86l0-.37c0-.39,0-.78,0-1.16l-18.6-10.81c0,.38,0,.77,0,1.17,0,.12,0,.24,0,.36,0,.29-.05.57-.08.86s0,.35-.07.52,0,.19,0,.29c0,.27-.09.55-.15.82l0,.14a1.89,1.89,0,0,1-.05.23c-.07.32-.15.65-.24,1,0,.15-.09.31-.14.47s-.13.42-.19.64-.13.36-.19.53-.12.35-.19.53l-.22.57-.19.46c-.09.21-.18.42-.28.62l-.18.4c-.11.24-.23.47-.35.71l-.15.3c-.18.33-.36.66-.55,1a1.74,1.74,0,0,0-.11.18c-.16.27-.32.53-.49.79s-.18.28-.28.42-.24.37-.37.55-.28.39-.43.58-.19.26-.29.38c-.26.34-.53.68-.81,1l-.75.83-.72.7-.38.35-.57.49-.37.3c-.21.17-.43.32-.65.48l-.31.22c-.32.22-.65.43-1,.62l-.75.4-.19.09-.7.32-.05,0-.65.25-.19.06-.47.14-.24.07-.28.07-.27.05-.27,0-.21,0c-.26,0-.52.06-.78.07h-.85a4.09,4.09,0,0,1-.6-.07l-.1,0-.44-.1-.18,0-.33-.12-.17-.07-.34-.16-.15-.08,18.59,10.81.06,0,.1.05.33.16.06,0,.11,0,.34.11.09,0,.08,0,.44.1.09,0h0l.59.07h.06a.27.27,0,0,1,.09,0h.71a6.94,6.94,0,0,0,.77-.08h.08l.14,0,.27,0,.27-.06.27-.06.13,0,.11,0,.47-.14.19-.07q.33-.1.66-.24h0l0,0c.23-.09.46-.2.69-.31l.2-.1.74-.4c.33-.19.65-.39,1-.61l.32-.23c.21-.15.43-.3.64-.47l.37-.3c.19-.16.39-.32.57-.49l.38-.35c.11-.1.22-.19.32-.3s.27-.27.4-.41.49-.52.72-.79l0,0c.28-.33.55-.66.82-1l0,0c.09-.11.17-.23.26-.35s.29-.38.43-.58l0-.06c.12-.16.22-.33.33-.49l.28-.41,0,0,.45-.73.11-.19h0c.18-.31.35-.62.52-.94l0,0,.15-.29c.1-.21.21-.41.31-.61l0-.1c.07-.13.13-.27.19-.4s.15-.32.21-.48a.59.59,0,0,0,.06-.14c.07-.15.13-.3.19-.46s.11-.27.17-.4l.06-.18c.06-.17.13-.34.19-.52s.09-.24.13-.37,0-.11,0-.17c.07-.21.13-.42.2-.63s.07-.24.1-.36l0-.12c.09-.33.17-.65.24-1a1.21,1.21,0,0,0,.05-.18v0c0-.05,0-.1,0-.15Q288.45,208.65,288.51,208.25Z"/><rect class="cls-4" x="242.77" y="219.12" width="23.11" height="21.51" transform="translate(-72.21 334.27) rotate(-59.84)"/><path class="cls-10" d="M333.07,216.28c1.75,3.75,6.05,4.33,11,1.49l-.31,19c-4.55,2.62-8.62,8.07-10.33,13.9s-.6,11,2.85,12.67L324.8,283.27c-2.09-1.45-5.33-1.08-8.49.75a17.73,17.73,0,0,0-4.06,3.25c-4.34,4.59-7.05,11.21-6.77,16.47l-16.81,9.7c.25-5.57-2.49-9-6.84-8.61a10.27,10.27,0,0,0-4.06,1.44,23.72,23.72,0,0,0-8.47,9l-11.52-6.63c3.43-5.61,4.54-12,2.77-15.92s-5.82-4.57-10.11-2.1l-.68-18.45a25.5,25.5,0,0,0,10.92-14.13c1.8-6,.66-11.18-2.85-12.81l11.59-20c2.1,1.43,5.33,1.05,8.49-.78a17.67,17.67,0,0,0,4-3.16c4.29-4.49,7-11,6.86-16.3l16.06-9.28c-.15,5.45,2.63,8.81,6.92,8.35a10.18,10.18,0,0,0,4-1.43,23.85,23.85,0,0,0,8.47-9l11.67,6.55C332.35,205.9,331.23,212.35,333.07,216.28ZM297,274c9.25-5.34,16.75-18.33,16.72-29s-7.58-14.94-16.83-9.6-16.76,18.34-16.73,29S287.72,279.3,297,274"/></g><polygon class="cls-29" points="420.98 275.4 399.53 262.52 325.82 305.17 325.44 304.95 231.16 359.38 249.76 370.19 329.85 323.95 333.39 326.08 420.98 275.4"/></g></svg>