<?xml version="1.0" encoding="utf-8"?>
<!-- Generator: Adobe Illustrator 22.0.1, SVG Export Plug-In . SVG Version: 6.00 Build 0)  -->
<svg version="1.1" id="Layer_1" xmlns="http://www.w3.org/2000/svg" xmlns:xlink="http://www.w3.org/1999/xlink" x="0px" y="0px"
	 viewBox="0 0 500 500" style="enable-background:new 0 0 500 500;" xml:space="preserve">
<style type="text/css">
	.st0{opacity:0.3;fill:#ECF0F1;enable-background:new    ;}
	.st1{fill:#173575;}
	.st2{fill:#224FB0;}
	.st3{fill:#2D69EA;}
	.st4{fill:#5787EE;}
	.st5{clip-path:url(#SVGID_2_);}
	.st6{fill:#B1B4B5;}
	.st7{fill:#767879;}
	.st8{fill:#C1C3C4;}
	.st9{fill:#ECF0F1;}
	.st10{clip-path:url(#SVGID_4_);}
	.st11{fill:#34495E;}
	.st12{fill:#2C3E50;}
	.st13{fill:#566573;}
	.st14{fill:#2B333A;}
</style>
<title>spot</title>
<polygon class="st0" points="41.2,417.5 231.6,307.6 265.5,327.3 75.2,437.2 "/>
<g>
	<polygon class="st1" points="118.1,334.9 84.2,315.1 18.1,258.3 52,278 	"/>
	<polygon class="st2" points="170.2,38.5 136.3,18.8 231.6,16.5 265.5,36.2 	"/>
	<polygon class="st3" points="170.2,38.5 265.5,36.2 289.4,140.9 223.8,273.9 118.1,334.9 52,278 75.2,146.1 	"/>
	<polygon class="st2" points="52,278 18.1,258.3 41.2,126.4 75.2,146.1 	"/>
	<polygon class="st4" points="75.2,146.1 41.2,126.4 136.3,18.8 170.2,38.5 	"/>
</g>
<g>
	<g>
		<g>
			<defs>
				<path id="SVGID_1_" d="M329.5,261.7l37.5,21.8c4.4,2.6,6.9,8.2,6.5,15.9L336,277.6C336.4,269.9,333.9,264.2,329.5,261.7z"/>
			</defs>
			<clipPath id="SVGID_2_">
				<use xlink:href="#SVGID_1_"  style="overflow:visible;"/>
			</clipPath>
			<g class="st5">
				<path class="st6" d="M373.5,299.4L336,277.6c0.4-7.7-2.1-13.4-6.5-15.9l37.5,21.8C371.4,286,373.9,291.7,373.5,299.4"/>
			</g>
		</g>
	</g>
	<path class="st6" d="M479.9,109c0.5-0.2,0.9-0.3,1.4-0.5l0,0h0.1c0.5-0.2,1-0.4,1.5-0.7l0.4-0.2c0.6-0.3,1.1-0.6,1.7-0.9
		l-37.5-21.8c-0.6,0.3-1.1,0.6-1.7,0.9l-0.4,0.2c-0.5,0.3-1,0.5-1.5,0.7h-0.1c-0.5,0.2-0.9,0.4-1.4,0.5l-0.4,0.1
		c-0.3,0.1-0.7,0.2-1,0.3c-0.2,0.1-0.4,0.1-0.5,0.2l-0.5,0.1l-0.6,0.1l-0.5,0.1l-0.4,0.1c-0.5,0.1-1.1,0.1-1.6,0.2h-0.1
		c-0.5,0-0.9,0-1.3,0h-0.4c-0.4,0-0.8-0.1-1.1-0.1h-0.2c-0.4-0.1-0.8-0.2-1.1-0.3l-0.3-0.1c-0.3-0.1-0.5-0.2-0.8-0.3l-0.3-0.1
		c-0.3-0.1-0.5-0.2-0.8-0.4l-0.3-0.2l0,0l37.5,21.8l0.1,0.1l0.2,0.1c0.2,0.1,0.5,0.3,0.8,0.4l0.1,0.1l0.2,0.1
		c0.2,0.1,0.5,0.2,0.8,0.3l0.2,0.1h0.1c0.4,0.1,0.8,0.2,1.1,0.3l0,0h0.1c0.4,0.1,0.7,0.1,1.1,0.1h0.2h0.2c0.4,0,0.9,0,1.4,0h0.1
		c0.6,0,1.1-0.1,1.6-0.2h0.2h0.2l0.5-0.1l0.6-0.1l0.5-0.1l0.3-0.1l0.2-0.1l1-0.3L479.9,109z"/>
	<path class="st7" d="M423.9,164.3c0.1-1,0.1-2,0.1-2.9c0-10.6-3.8-18.1-9.9-21.7L376.6,118c6.1,3.5,9.9,11,9.9,21.7
		c0,1,0,2-0.1,2.9v0.6c-0.1,1-0.2,1.9-0.3,2.9c0,0.3-0.1,0.5-0.1,0.8c-0.1,0.5-0.1,0.9-0.2,1.4c0,0.3-0.1,0.6-0.2,0.9
		s-0.2,0.9-0.2,1.3s-0.1,0.7-0.2,1.1s-0.1,0.6-0.2,0.9l-0.3,1.2c-0.1,0.3-0.1,0.6-0.2,0.9s-0.1,0.5-0.2,0.7c-0.3,1-0.6,1.9-0.9,2.9
		c0,0.1,0,0.2-0.1,0.2c-0.3,1-0.7,1.9-1,2.8l-0.3,0.7c-0.3,0.8-0.6,1.6-1,2.4c0,0.1-0.1,0.3-0.2,0.4c-0.4,0.9-0.8,1.7-1.2,2.6
		l-0.3,0.7c-0.3,0.7-0.7,1.4-1,2c-0.1,0.2-0.2,0.4-0.3,0.6c-0.5,0.9-0.9,1.7-1.4,2.5l-0.3,0.5c-0.4,0.7-0.9,1.5-1.3,2.2l-0.4,0.6
		c-0.6,0.9-1.1,1.7-1.7,2.6l-0.3,0.4c-0.6,0.9-1.2,1.7-1.9,2.6l-0.2,0.3c-0.8,1-1.6,2-2.5,3l-0.3,0.4c-0.5,0.6-1.1,1.2-1.7,1.9l0,0
		c-0.6,0.6-1.1,1.2-1.7,1.8l-1.1,1.1l-0.3,0.3c-0.5,0.5-1,0.9-1.5,1.4l-0.4,0.3l-1.1,1l-0.5,0.4l-1,0.8l-0.6,0.4l-1,0.7L356,196
		c-0.4,0.2-0.7,0.5-1.1,0.7l-0.5,0.3c-0.5,0.3-1.1,0.7-1.6,1c-0.7,0.4-1.4,0.8-2.1,1.1l-0.6,0.3c-0.5,0.3-1.1,0.5-1.6,0.7l-0.6,0.2
		c-0.5,0.2-1,0.4-1.5,0.6l-0.4,0.1c-0.6,0.2-1.2,0.4-1.8,0.6l-1.1,0.3l-0.5,0.1c-0.5,0.1-1,0.2-1.5,0.3H341
		c-0.4,0.1-0.9,0.1-1.3,0.2h-0.5l-1,0.1h-0.4c-0.3,0-0.7,0-1,0h-0.3c-0.1,0-0.2,0-0.4,0c-0.5,0-1-0.1-1.5-0.2l-0.5-0.1
		c-0.6-0.1-1.1-0.2-1.7-0.4h-0.1c-0.5-0.2-1-0.4-1.5-0.6l-0.4-0.2c-0.4-0.2-0.8-0.4-1.2-0.6l-0.4-0.2l0,0l37.5,21.8l0.2,0.1l0.2,0.1
		c0.4,0.2,0.8,0.4,1.2,0.6l0.2,0.1l0.2,0.1c0.5,0.2,1,0.4,1.5,0.6h0.1c0.6,0.2,1.1,0.3,1.7,0.4h0.2c0.1,0,0.2,0,0.3,0
		c0.5,0.1,1,0.1,1.5,0.2h0.2h0.1h0.3c0.3,0,0.7,0,1,0h0.8l0.6-0.1h0.5c0.4,0,0.9-0.1,1.3-0.2h0.1c0.5-0.1,1-0.2,1.5-0.3l0.5-0.1
		c0.3-0.1,0.7-0.1,1-0.2h0.1c0.6-0.2,1.2-0.4,1.8-0.6l0.4-0.1c0.5-0.2,1-0.4,1.5-0.6l0.2-0.1l0.4-0.2c0.5-0.2,1.1-0.5,1.6-0.7
		l0.6-0.3c0.7-0.4,1.4-0.7,2.1-1.1c0.5-0.3,1.1-0.6,1.6-1l0.5-0.3c0.4-0.2,0.7-0.5,1.1-0.7l0.6-0.4l1-0.7l0.6-0.5
		c0.3-0.2,0.7-0.5,1-0.8l0.6-0.4l1.1-1l0.4-0.3c0.5-0.4,1-0.9,1.5-1.4l0.3-0.3c0.3-0.3,0.6-0.6,0.9-0.9l0.1-0.1
		c0.6-0.6,1.2-1.2,1.7-1.8l0,0c0.6-0.6,1.1-1.2,1.7-1.9l0.1-0.2l0.2-0.2c0.9-1,1.7-2,2.5-3l0.1-0.1c0.1-0.1,0.1-0.2,0.2-0.2
		c0.6-0.8,1.3-1.7,1.9-2.6l0.2-0.3l0.1-0.1c0.6-0.8,1.2-1.7,1.7-2.6l0.2-0.2c0.1-0.1,0.1-0.2,0.2-0.4c0.5-0.7,0.9-1.4,1.3-2.1
		c0.1-0.1,0.1-0.2,0.2-0.3s0-0.1,0.1-0.1c0.5-0.8,1-1.7,1.4-2.5c0-0.1,0.1-0.1,0.1-0.2c0.1-0.1,0.1-0.3,0.2-0.4c0.4-0.7,0.7-1.4,1-2
		l0.2-0.4l0.1-0.2c0.4-0.9,0.8-1.7,1.2-2.6c0,0,0-0.1,0-0.1l0.1-0.3c0.3-0.8,0.7-1.6,1-2.4c0-0.1,0.1-0.2,0.2-0.4l0.1-0.3
		c0.4-0.9,0.7-1.9,1-2.8v-0.1l0.1-0.2c0.3-1,0.6-1.9,0.9-2.9c0-0.1,0.1-0.2,0.1-0.4l0.1-0.3c0.1-0.3,0.1-0.6,0.2-0.9
		s0.2-0.8,0.3-1.2l0.2-0.9c0-0.2,0.1-0.4,0.1-0.6s0-0.3,0.1-0.4c0.1-0.4,0.2-0.9,0.3-1.3s0.1-0.6,0.2-0.9c0.1-0.5,0.1-0.9,0.2-1.4
		c0-0.2,0.1-0.4,0.1-0.6c0-0.1,0-0.1,0-0.2c0.1-1,0.2-1.9,0.3-2.9C423.8,164.8,423.8,164.5,423.9,164.3z"/>
	<path class="st6" d="M318.4,268.6v-0.8c0-0.4,0-0.7,0-1.1s0-0.5,0-0.8s0-0.7,0-1.1s0-0.5,0-0.8s-0.1-0.7-0.1-1s-0.1-0.5-0.1-0.7
		s-0.1-0.7-0.2-1s-0.1-0.4-0.1-0.6c-0.1-0.4-0.2-0.7-0.3-1c0-0.2-0.1-0.4-0.1-0.5c-0.2-0.5-0.4-1-0.6-1.5c-1-2.3-2.7-4.3-4.9-5.6
		l-37.5-21.8c2.2,1.3,3.9,3.3,4.9,5.6c0.2,0.5,0.4,1,0.6,1.5c0.1,0.2,0.1,0.4,0.2,0.5c0.1,0.4,0.2,0.7,0.3,1s0.1,0.4,0.1,0.6
		s0.1,0.7,0.2,1l0.1,0.7c0,0.3,0.1,0.7,0.1,1c0,0.2,0,0.5,0,0.8s0,0.7,0,1.1s0,0.5,0,0.8v1.1c0,0.3,0,0.5,0,0.8s-0.1,0.8-0.1,1.2
		s0,0.5-0.1,0.8c-0.1,0.6-0.2,1.2-0.3,1.9c0,0.1,0,0.1,0,0.2c-0.1,0.5-0.2,1.1-0.3,1.6s-0.3,1.3-0.5,1.9c0,0.1-0.1,0.3-0.1,0.5
		c-0.2,0.7-0.4,1.5-0.7,2.2v0c0,0,0,0,0,0.1c-0.2,0.7-0.5,1.4-0.8,2.1c-0.1,0.1-0.1,0.2-0.1,0.4c-0.2,0.6-0.5,1.2-0.7,1.8
		c-0.1,0.2-0.2,0.4-0.3,0.6c-0.2,0.5-0.4,1-0.7,1.4c-0.1,0.2-0.3,0.5-0.4,0.8c-0.2,0.4-0.4,0.9-0.7,1.3l-0.5,0.8
		c-0.3,0.5-0.6,1.1-1,1.6l37.5,21.8c0.2-0.3,0.4-0.6,0.6-1s0.2-0.5,0.4-0.7l0.5-0.8c0.1-0.1,0.1-0.3,0.2-0.4
		c0.2-0.3,0.3-0.6,0.5-0.9l0.4-0.8l0.1-0.2c0.2-0.4,0.4-0.8,0.5-1.2l0.3-0.6c0,0,0-0.1,0-0.1c0.2-0.5,0.5-1.1,0.7-1.6l0.1-0.4l0,0
		c0.3-0.7,0.5-1.4,0.7-2.1v-0.1l0,0v0c0.2-0.7,0.5-1.5,0.7-2.2c0,0,0-0.1,0-0.1l0.1-0.4c0.2-0.7,0.3-1.3,0.5-2c0-0.1,0-0.2,0.1-0.3
		c0.1-0.5,0.2-0.9,0.3-1.4c0-0.1,0-0.1,0-0.2c0.1-0.5,0.2-1.1,0.2-1.6c0-0.1,0-0.1,0-0.2c0-0.3,0-0.5,0.1-0.8S318.4,269,318.4,268.6
		z"/>
	<path class="st6" d="M431.1,49.4l-23.5-13.2c-0.2,0.5-0.5,0.9-0.8,1.4s-0.6,1-1,1.6l-0.2,0.3c-0.3,0.4-0.6,0.9-0.9,1.3l-0.3,0.5
		c-0.4,0.5-0.8,1-1.1,1.5c-0.1,0.1-0.1,0.2-0.2,0.2c-0.5,0.7-1.1,1.4-1.7,2l-0.3,0.4c-0.3,0.3-0.6,0.6-0.9,1l-0.3,0.4
		c-0.4,0.4-0.8,0.9-1.2,1.3c-0.6,0.6-0.1,0.1-0.1,0.1c-0.6,0.6-1.2,1.1-1.8,1.6l-0.2,0.2c-0.6,0.5-1.2,1-1.8,1.5l-0.3,0.3
		c-0.6,0.5-1.2,0.9-1.8,1.3l-0.3,0.2c-0.6,0.4-1.3,0.8-1.9,1.2s-1,0.5-1.4,0.8l-0.3,0.2c-0.5,0.2-0.9,0.4-1.4,0.6l-0.3,0.1l-0.9,0.3
		l-0.4,0.1l-0.8,0.2l-0.4,0.1c-0.5,0.1-1,0.2-1.5,0.3c-0.2,0-0.5,0.1-0.7,0.1s-0.7,0.1-1,0.1s-0.9,0-1.3,0h-0.3l-0.8-0.2l-0.3,0
		c-0.4-0.1-0.7-0.2-1.1-0.2l-0.2-0.1c-0.3-0.1-0.6-0.2-0.9-0.3l-0.3-0.1c-0.3-0.1-0.6-0.3-0.8-0.4l-0.3-0.1l37.4,21.8l0.1,0.1
		l0.1,0.1c0.3,0.1,0.5,0.3,0.8,0.4l0.1,0.1l0.1,0.1c0.3,0.1,0.6,0.2,0.9,0.3h0.1l0,0c0.4,0.1,0.7,0.2,1.1,0.2h0.1h0.2
		c0.3,0,0.6,0.1,0.9,0.1h0.2h0.1c0.4,0,0.8,0,1.3,0h0c0.3,0,0.6,0,0.9-0.1l0.6-0.1h0.1c0.5-0.1,1-0.2,1.5-0.3c0,0,0.1,0,0.1,0
		l0.2-0.1l0.8-0.2l0.4-0.1c0.3-0.1,0.6-0.2,0.9-0.3l0.2-0.1l0,0c0.5-0.2,0.9-0.4,1.4-0.6l0.3-0.2c0.5-0.2,1-0.5,1.4-0.8
		s1.3-0.8,1.9-1.2l0.3-0.2c0.6-0.4,1.2-0.8,1.8-1.3l0.3-0.3c0.6-0.5,1.2-1,1.8-1.5l0.2-0.2c0.6-0.5,1.2-1.1,1.8-1.7l0.1-0.1l0,0
		l1.2-1.3l0.3-0.4c0.3-0.3,0.6-0.6,0.9-1l0.1-0.2c0.1-0.1,0.1-0.1,0.2-0.2c0.6-0.7,1.1-1.3,1.6-2l0,0l0.1-0.2c0.4-0.5,0.8-1,1.1-1.5
		l0.2-0.2l0.1-0.2c0.3-0.4,0.6-0.9,0.9-1.3l0.2-0.3c0,0,0,0,0-0.1c0.3-0.5,0.6-1,1-1.6l0,0c0.3-0.4,0.5-0.9,0.7-1.3l23.5,13.2
		L431.1,49.4z"/>
	<polygon class="st8" points="296.4,253.5 259,231.7 257.6,194.5 295.1,216.3 	"/>
	<polygon class="st8" points="373.6,80.9 336.1,59.1 368.5,40.4 406,62.2 	"/>
	<path class="st6" d="M318.8,177.7v-0.6c0-0.4,0-0.8,0-1.2v-0.6c0-0.4-0.1-0.8-0.1-1.2c0-0.2,0-0.3,0-0.5c-0.1-0.5-0.1-1-0.2-1.6
		c0-0.1,0-0.2,0-0.2c-0.1-0.4-0.2-0.8-0.3-1.2l-0.1-0.5c-0.1-0.3-0.2-0.6-0.3-0.9c-0.1-0.2-0.1-0.3-0.2-0.5
		c-0.1-0.3-0.3-0.6-0.4-0.9l-0.2-0.4c-0.2-0.4-0.4-0.8-0.6-1.2l-0.1-0.1c-0.2-0.3-0.5-0.7-0.7-1c-0.1-0.1-0.2-0.2-0.3-0.3
		c-0.2-0.2-0.4-0.4-0.6-0.7l-0.3-0.3c-0.2-0.2-0.4-0.4-0.7-0.6l-0.3-0.2c-0.3-0.3-0.7-0.5-1-0.7l-37.5-21.8c0.4,0.2,0.7,0.4,1,0.7
		l0.3,0.2c0.2,0.2,0.5,0.4,0.7,0.6s0.2,0.2,0.3,0.3s0.4,0.4,0.6,0.7c0.1,0.1,0.2,0.2,0.3,0.3c0.2,0.3,0.5,0.7,0.7,1
		c0,0,0,0.1,0.1,0.1c0.2,0.4,0.5,0.8,0.6,1.2l0.2,0.4c0.1,0.3,0.3,0.6,0.4,0.9c0.1,0.1,0.1,0.3,0.2,0.5c0.1,0.3,0.2,0.6,0.3,0.9
		c0,0.2,0.1,0.3,0.1,0.5c0.1,0.4,0.2,0.8,0.3,1.2c0,0.1,0,0.2,0,0.2c0.1,0.5,0.2,1,0.2,1.6c0,0.1,0,0.3,0,0.5c0,0.4,0.1,0.8,0.1,1.2
		v0.6c0,0.4,0,0.8,0,1.2v0.6c0,0.5,0,0.9-0.1,1.4c0,0.1,0,0.2,0,0.4c0,0.6-0.1,1.2-0.2,1.8c0,0.1,0,0.3-0.1,0.4
		c-0.1,0.5-0.1,1-0.2,1.4l-0.1,0.6c-0.1,0.3-0.1,0.7-0.2,1c-0.1,0.5-0.2,1-0.4,1.5s-0.2,0.9-0.4,1.4s-0.4,1.2-0.6,1.8
		c-0.1,0.3-0.2,0.6-0.3,0.9s-0.3,0.8-0.5,1.2s-0.2,0.5-0.3,0.8c-0.2,0.4-0.4,0.8-0.5,1.3c-0.1,0.2-0.2,0.5-0.3,0.7
		c-0.2,0.4-0.4,0.9-0.7,1.4c-0.1,0.2-0.2,0.4-0.3,0.6c-0.3,0.6-0.7,1.2-1,1.8l-0.1,0.1c-0.4,0.6-0.8,1.3-1.2,1.9
		c-0.2,0.3-0.4,0.6-0.6,0.9s-0.5,0.7-0.7,1c-0.5,0.7-1,1.3-1.5,2l-0.1,0.2c-0.5,0.7-1.1,1.3-1.6,2c-0.3,0.3-0.6,0.7-0.9,1l-0.5,0.5
		c-0.5,0.5-0.9,0.9-1.4,1.4c0,0-0.1,0.1-0.1,0.1l-0.1,0.1c-0.6,0.6-1.2,1.1-1.8,1.7L264,190c-0.5,0.4-0.9,0.8-1.4,1.1l-0.7,0.6
		c-0.5,0.4-1,0.7-1.4,1l-0.6,0.4c-0.7,0.5-1.4,0.9-2.1,1.3l37.5,21.8c0.7-0.4,1.4-0.9,2.1-1.3l0.6-0.4c0.5-0.3,1-0.7,1.4-1
		c0.2-0.2,0.5-0.4,0.7-0.5c0.5-0.4,0.9-0.8,1.4-1.1l0.6-0.5c0.6-0.5,1.2-1.1,1.8-1.7l0.1-0.1l0,0l0.1-0.1c0.5-0.4,0.9-0.9,1.4-1.4
		c0.2-0.2,0.3-0.4,0.5-0.5l0.7-0.8l0.2-0.2c0.5-0.6,1.1-1.3,1.6-1.9l0.1-0.1l0,0c0.5-0.6,1-1.3,1.5-2v-0.1c0.2-0.3,0.4-0.6,0.6-0.9
		s0.4-0.6,0.6-0.9v-0.1c0.4-0.6,0.8-1.2,1.1-1.9l0,0c0,0,0.1-0.1,0.1-0.1c0.3-0.6,0.6-1.1,1-1.7c0,0,0-0.1,0.1-0.1l0.3-0.6l0.5-1.1
		c0-0.1,0.1-0.2,0.1-0.3c0.1-0.2,0.2-0.5,0.3-0.7s0.2-0.5,0.4-0.8s0.1-0.3,0.2-0.5l0.3-0.8l0.2-0.6c0.1-0.2,0.1-0.4,0.2-0.6
		s0.2-0.6,0.3-0.9c0-0.1,0.1-0.3,0.2-0.5c0.1-0.4,0.3-0.9,0.4-1.3s0.2-0.6,0.2-0.9s0.1-0.4,0.1-0.5c0.1-0.5,0.3-1,0.4-1.5
		c0-0.2,0.1-0.3,0.1-0.5s0.1-0.4,0.1-0.5l0.1-0.6c0.1-0.5,0.2-1,0.2-1.4c0-0.1,0-0.3,0.1-0.4c0,0,0-0.1,0-0.1
		c0.1-0.6,0.1-1.1,0.2-1.7c0-0.1,0-0.2,0-0.4C318.7,178.7,318.8,178.2,318.8,177.7z"/>
	<path class="st6" d="M373.2,87.4l0.1-0.6c0-0.2,0.1-0.4,0.1-0.6s0-0.3,0-0.4c0.1-0.6,0.1-1.2,0.2-1.7c0-0.2,0-0.5,0-0.7
		c0-0.8,0-1.6,0-2.3l-37.4-21.8c0,0.8,0,1.6,0,2.3c0,0.2,0,0.5,0,0.7c0,0.6-0.1,1.2-0.1,1.7c0,0.3-0.1,0.7-0.1,1
		c0,0.2,0,0.4-0.1,0.6c-0.1,0.6-0.2,1.1-0.3,1.7c0,0.1,0,0.2,0,0.3s-0.1,0.3-0.1,0.4c-0.1,0.7-0.3,1.3-0.5,2c-0.1,0.3-0.2,0.6-0.3,1
		s-0.2,0.9-0.4,1.3l-0.4,1.1l-0.4,1c-0.1,0.4-0.3,0.8-0.5,1.2l-0.4,0.9c-0.2,0.4-0.4,0.8-0.6,1.2s-0.2,0.5-0.4,0.8
		c-0.2,0.5-0.5,1-0.7,1.4l-0.3,0.6c-0.4,0.7-0.7,1.3-1.1,2l-0.2,0.4c-0.3,0.5-0.6,1.1-1,1.6l-0.5,0.8c-0.2,0.4-0.5,0.8-0.8,1.1
		l-0.9,1.2c-0.2,0.3-0.4,0.5-0.6,0.8c-0.5,0.7-1.1,1.4-1.6,2s-1,1.1-1.5,1.7s-1,1-1.5,1.4c-0.3,0.2-0.5,0.5-0.8,0.7s-0.8,0.7-1.2,1
		l-0.7,0.6c-0.4,0.3-0.9,0.6-1.3,1c-0.2,0.2-0.4,0.3-0.6,0.5c-0.6,0.4-1.3,0.8-2,1.2s-1,0.6-1.5,0.8l-0.4,0.2
		c-0.5,0.2-0.9,0.4-1.4,0.6H311c-0.4,0.2-0.9,0.3-1.3,0.5l-0.4,0.1l-1,0.3l-0.5,0.1l-0.5,0.1l-0.5,0.1l-0.5,0.1l-0.4,0.1
		c-0.5,0.1-1,0.1-1.6,0.2h-0.3c-0.4,0-0.8,0-1.2,0h-0.3c-0.4,0-0.8-0.1-1.2-0.1h-0.2c-0.3-0.1-0.6-0.1-0.9-0.2l-0.4-0.1
		c-0.2-0.1-0.5-0.2-0.7-0.2l-0.3-0.1c-0.2-0.1-0.5-0.2-0.7-0.3l-0.3-0.2l37.5,21.8l0.1,0.1l0.2,0.1c0.2,0.1,0.5,0.2,0.7,0.3
		c0,0,0.1,0,0.1,0.1l0.2,0.1c0.2,0.1,0.5,0.2,0.7,0.2l0.2,0.1h0.1c0.3,0.1,0.6,0.2,0.9,0.2h0.2h0c0.4,0.1,0.8,0.1,1.2,0.1h0.3
		c0.4,0,0.8,0,1.2,0c0.1,0,0.1,0,0.2,0h0.1c0.5,0,1-0.1,1.6-0.2h0.2h0.3l0.5-0.1l0.5-0.1l0.5-0.1l0.3-0.1l0.2-0.1l1-0.3l0.4-0.1
		c0.4-0.2,0.9-0.3,1.3-0.5l0,0h0.1c0.5-0.2,0.9-0.4,1.4-0.6l0.4-0.2c0.5-0.3,1-0.5,1.5-0.8c0.7-0.4,1.3-0.8,2-1.2l0.6-0.5
		c0.4-0.3,0.9-0.6,1.3-1l0.7-0.6c0.4-0.3,0.8-0.6,1.1-1s0.5-0.5,0.8-0.7s0.4-0.4,0.6-0.6l0.8-0.8c0.5-0.5,1-1.1,1.5-1.6l0.1-0.1
		c0.6-0.7,1.1-1.3,1.6-2L363,110c0.2-0.2,0.3-0.5,0.5-0.7c0.3-0.4,0.6-0.8,0.9-1.2l0.1-0.1l0.7-1c0.2-0.3,0.4-0.5,0.5-0.8
		c0,0,0-0.1,0.1-0.1c0.3-0.5,0.6-1,0.9-1.5c0.1-0.1,0.2-0.2,0.2-0.4l0,0c0.4-0.6,0.7-1.2,1-1.9c0,0,0-0.1,0-0.1l0.3-0.6
		c0.2-0.4,0.4-0.8,0.6-1.2l0.1-0.2c0.1-0.3,0.2-0.5,0.4-0.8s0.3-0.6,0.4-1l0.1-0.3c0.1-0.3,0.2-0.6,0.4-0.9l0.3-0.8
		c0-0.1,0.1-0.2,0.1-0.3c0.1-0.3,0.2-0.7,0.4-1s0.2-0.5,0.3-0.8c0-0.1,0.1-0.2,0.1-0.3c0.1-0.4,0.3-0.8,0.4-1.3
		c0.1-0.2,0.1-0.5,0.2-0.7c0-0.1,0-0.2,0.1-0.2c0.2-0.7,0.3-1.3,0.5-2c0-0.1,0.1-0.2,0.1-0.4c0,0,0,0,0-0.1c0-0.1,0-0.2,0-0.3
		C373,88.5,373.1,87.9,373.2,87.4z"/>
	
		<rect x="281" y="109.3" transform="matrix(0.5024 -0.8646 0.8646 0.5024 38.1769 328.2381)" class="st8" width="46.6" height="43.4"/>
	<path class="st9" d="M463,103.6c3.5,7.6,12.2,8.7,22.1,3l-0.6,38.4c-9.2,5.3-17.4,16.2-20.8,28c-3.5,12-1.2,22.2,5.8,25.5
		l-23.1,40.1c-4.2-2.9-10.7-2.2-17.1,1.5c-3,1.8-5.8,4-8.2,6.6c-8.7,9.3-14.2,22.6-13.6,33.2l-33.9,19.6c0.5-11.2-5-18.2-13.8-17.4
		c-2.9,0.4-5.7,1.4-8.2,2.9c-6.4,3.7-12.9,10.5-17.1,18.2l-23.2-13.4c6.9-11.3,9.2-24.2,5.6-32.1c-3.5-7.7-11.8-9.2-20.4-4.2
		l-1.4-37.2c9.9-5.7,18.5-16.9,22-28.5c3.6-12.2,1.3-22.5-5.8-25.8l23.4-40.3c4.2,2.9,10.7,2.1,17.1-1.6c3-1.7,5.6-3.9,8-6.4
		c8.6-9.1,14.2-22.3,13.8-32.9L406,62.2c-0.3,11,5.3,17.8,14,16.8c2.8-0.4,5.6-1.4,8-2.9c6.4-3.7,12.9-10.4,17-18.2l23.5,13.2
		C461.5,82.6,459.3,95.6,463,103.6z M390.2,219.8c18.7-10.8,33.8-36.9,33.8-58.4s-15.3-30.1-33.9-19.3s-33.8,37-33.7,58.4
		S371.6,230.6,390.2,219.8"/>
</g>
<g>
	<g>
		<g>
			<defs>
				<path id="SVGID_3_" d="M181.4,448.3l31.4,18.3c3.7,2.1,5.8,6.9,5.5,13.4l-31.4-18.3C187.2,455.2,185.1,450.4,181.4,448.3z"/>
			</defs>
			<clipPath id="SVGID_4_">
				<use xlink:href="#SVGID_3_"  style="overflow:visible;"/>
			</clipPath>
			<g class="st10">
				<path class="st11" d="M218.3,479.9l-31.4-18.3c0.3-6.4-1.8-11.2-5.5-13.4l31.4,18.3C216.5,468.7,218.6,473.5,218.3,479.9"/>
			</g>
		</g>
	</g>
	<path class="st11" d="M307.6,320.2c0.4-0.1,0.8-0.3,1.2-0.5l0,0h0.1c0.4-0.2,0.9-0.4,1.3-0.6l0.4-0.2c0.5-0.2,0.9-0.5,1.4-0.8
		l-31.4-18.3c-0.5,0.3-1,0.5-1.4,0.8l-0.4,0.2c-0.4,0.2-0.9,0.4-1.3,0.6l-0.1,0l-1.2,0.5l-0.3,0.1c-0.3,0.1-0.6,0.2-0.8,0.2
		l-0.5,0.1l-0.5,0.1l-0.5,0.1l-0.5,0.1l-0.3,0c-0.5,0.1-0.9,0.1-1.4,0.1h-0.1c-0.4,0-0.8,0-1.1,0h-0.3c-0.3,0-0.6-0.1-0.9-0.1h-0.1
		c-0.3-0.1-0.7-0.1-1-0.2l-0.3-0.1c-0.2-0.1-0.4-0.1-0.6-0.2c-0.1,0-0.2-0.1-0.3-0.1c-0.2-0.1-0.4-0.2-0.6-0.3l-0.2-0.1l0,0
		l31.4,18.3l0.1,0.1l0.2,0.1c0.2,0.1,0.4,0.2,0.6,0.3l0.1,0.1l0.2,0.1l0.7,0.2l0.2,0.1h0.1c0.3,0.1,0.7,0.2,1,0.2h0.1
		c0.3,0,0.6,0.1,0.9,0.1h0.1h0.1c0.4,0,0.8,0,1.1,0h0.1c0.5,0,0.9-0.1,1.4-0.1h0.1h0.2l0.4-0.1l0.5-0.1l0.5-0.1l0.3-0.1l0.2-0.1
		l0.8-0.3L307.6,320.2z"/>
	<path class="st12" d="M260.6,366.6c0-0.8,0.1-1.6,0.1-2.5c0-8.9-3.2-15.2-8.3-18.2l-31.4-18.3c5.1,3,8.3,9.2,8.3,18.2
		c0,0.8,0,1.6-0.1,2.5v0.5c-0.1,0.8-0.1,1.6-0.2,2.4c0,0.2-0.1,0.5-0.1,0.7s-0.1,0.8-0.2,1.1s-0.1,0.5-0.1,0.8s-0.1,0.7-0.2,1.1
		s-0.1,0.6-0.2,0.9s-0.1,0.5-0.2,0.8l-0.2,1c-0.1,0.2-0.1,0.5-0.2,0.7s-0.1,0.4-0.2,0.6c-0.2,0.8-0.5,1.6-0.7,2.4
		c0,0.1,0,0.1-0.1,0.2c-0.3,0.8-0.6,1.6-0.9,2.4c-0.1,0.2-0.1,0.4-0.2,0.6c-0.3,0.7-0.5,1.3-0.8,2c-0.1,0.1-0.1,0.2-0.1,0.3
		c-0.3,0.7-0.6,1.5-1,2.2l-0.3,0.6c-0.3,0.6-0.6,1.1-0.9,1.7c-0.1,0.2-0.2,0.4-0.3,0.5c-0.4,0.7-0.8,1.4-1.2,2.1l-0.2,0.4
		c-0.4,0.6-0.7,1.2-1.1,1.8l-0.3,0.5c-0.5,0.7-0.9,1.5-1.4,2.1l-0.2,0.3c-0.5,0.7-1.1,1.4-1.6,2.1l-0.2,0.3
		c-0.7,0.9-1.4,1.7-2.1,2.5l-0.3,0.3c-0.5,0.5-0.9,1-1.4,1.5l0,0c-0.5,0.5-1,1-1.4,1.5l-0.9,0.9l-0.3,0.3c-0.4,0.4-0.8,0.8-1.2,1.1
		l-0.3,0.3l-1,0.8l-0.5,0.4l-0.9,0.7l-0.5,0.4l-0.8,0.6l-0.5,0.4l-0.9,0.6l-0.4,0.3c-0.4,0.3-0.9,0.6-1.4,0.8
		c-0.6,0.4-1.2,0.7-1.8,1l-0.5,0.2c-0.4,0.2-0.9,0.4-1.3,0.6l-0.5,0.2c-0.4,0.2-0.8,0.3-1.2,0.5l-0.3,0.1c-0.5,0.2-1,0.3-1.5,0.5
		l-0.9,0.2l-0.4,0.1c-0.4,0.1-0.9,0.2-1.3,0.2H191c-0.4,0-0.7,0.1-1.1,0.1h-0.4h-0.8h-0.4h-0.8h-0.3h-0.3c-0.4,0-0.9-0.1-1.3-0.1
		l-0.4-0.1c-0.5-0.1-1-0.2-1.4-0.3l0,0c-0.4-0.1-0.9-0.3-1.3-0.5l-0.4-0.1c-0.4-0.2-0.7-0.3-1-0.5c-0.1-0.1-0.2-0.1-0.3-0.2l0,0
		l31.4,18.3l0.1,0.1l0.2,0.1c0.3,0.2,0.7,0.3,1.1,0.5l0.2,0.1h0.2c0.4,0.2,0.9,0.3,1.3,0.5l0,0l0,0c0.5,0.1,0.9,0.2,1.4,0.3h0.2
		c0.1,0,0.2,0,0.2,0c0.4,0.1,0.9,0.1,1.3,0.1h0.2h1.9h0.5h0.4c0.4,0,0.7-0.1,1.1-0.1h0.1c0.4-0.1,0.9-0.1,1.3-0.2
		c0.1,0,0.3-0.1,0.4-0.1l0.9-0.2h0.1c0.5-0.1,1-0.3,1.5-0.5l0.3-0.1c0.4-0.1,0.8-0.3,1.2-0.5l0.2-0.1l0.3-0.1
		c0.4-0.2,0.9-0.4,1.3-0.6l0.5-0.2c0.6-0.3,1.2-0.6,1.8-1s0.9-0.5,1.4-0.8l0.4-0.3l0.9-0.6l0.5-0.4l0.8-0.6l0.5-0.4l0.8-0.6l0.5-0.4
		l1-0.8l0.3-0.3l1.2-1.1l0.3-0.3c0.3-0.2,0.5-0.5,0.8-0.8l0.1-0.1c0.5-0.5,1-1,1.4-1.5l0,0c0.5-0.5,0.9-1,1.4-1.6l0.1-0.1l0.1-0.2
		c0.7-0.8,1.4-1.7,2.1-2.5v-0.1l0.1-0.2c0.5-0.7,1.1-1.4,1.6-2.1l0.2-0.2c0,0,0-0.1,0.1-0.1c0.5-0.7,1-1.4,1.4-2.1
		c0-0.1,0.1-0.1,0.1-0.2c0.1-0.1,0.1-0.2,0.2-0.3c0.4-0.6,0.7-1.2,1.1-1.8l0.2-0.3l0.1-0.1c0.4-0.7,0.8-1.4,1.2-2.1l0.1-0.2
		c0.1-0.1,0.1-0.2,0.2-0.4c0.3-0.6,0.6-1.1,0.9-1.7c0.1-0.1,0.1-0.2,0.2-0.4c0-0.1,0.1-0.1,0.1-0.2c0.4-0.7,0.7-1.5,1-2.2V385
		c0-0.1,0.1-0.2,0.1-0.2c0.3-0.7,0.5-1.3,0.8-2l0.1-0.3l0.1-0.3c0.3-0.8,0.6-1.6,0.9-2.4c0,0,0,0,0-0.1c0,0,0-0.1,0-0.2
		c0.3-0.8,0.5-1.6,0.7-2.4l0.1-0.3c0-0.1,0.1-0.2,0.1-0.3c0.1-0.2,0.1-0.5,0.2-0.7s0.2-0.6,0.2-1s0.1-0.5,0.2-0.7l0.1-0.5
		c0-0.1,0-0.2,0.1-0.4l0.2-1.1c0-0.3,0.1-0.5,0.1-0.8s0.1-0.8,0.2-1.1c0-0.2,0.1-0.4,0.1-0.5s0-0.1,0-0.1c0.1-0.8,0.2-1.6,0.2-2.4
		C260.6,367,260.6,366.8,260.6,366.6z"/>
	<path class="st11" d="M172.1,454.1c0-0.2,0-0.5,0-0.7s0-0.6,0-0.9v-0.6c0-0.3,0-0.6,0-0.9s0-0.4,0-0.6s-0.1-0.6-0.1-0.9
		s-0.1-0.4-0.1-0.6s-0.1-0.6-0.2-0.9s-0.1-0.4-0.1-0.5s-0.2-0.6-0.2-0.9c0-0.1-0.1-0.3-0.1-0.4c-0.1-0.4-0.3-0.8-0.5-1.2
		c-0.8-2-2.3-3.6-4.1-4.7L135.2,422c1.8,1.1,3.3,2.8,4.1,4.7c0.2,0.4,0.3,0.8,0.5,1.2c0,0.1,0.1,0.3,0.1,0.4s0.2,0.6,0.2,0.9
		s0.1,0.4,0.1,0.5s0.1,0.6,0.2,0.9s0.1,0.4,0.1,0.6s0.1,0.6,0.1,0.9s0,0.4,0.1,0.6v0.9c0,0.2,0,0.4,0,0.7v0.9v0.7l-0.1,1
		c0,0.2,0,0.4-0.1,0.6c-0.1,0.5-0.1,1-0.2,1.5v0.2c-0.1,0.5-0.2,0.9-0.3,1.4s-0.3,1.1-0.4,1.6c0,0.1-0.1,0.3-0.1,0.4
		c-0.2,0.6-0.4,1.2-0.6,1.9l0,0c0,0,0,0,0,0.1c-0.2,0.6-0.4,1.2-0.6,1.8c0,0.1-0.1,0.2-0.1,0.3c-0.2,0.5-0.4,1-0.6,1.5
		c-0.1,0.2-0.2,0.4-0.2,0.5c-0.2,0.4-0.4,0.8-0.6,1.2l-0.3,0.6c-0.2,0.4-0.4,0.7-0.6,1.1s-0.2,0.5-0.4,0.7c-0.3,0.5-0.5,0.9-0.8,1.4
		l31.4,18.3c0.2-0.3,0.3-0.5,0.5-0.8l0.3-0.6l0.4-0.7l0.2-0.3c0.1-0.2,0.2-0.5,0.4-0.7l0.3-0.6l0.1-0.2c0.2-0.3,0.3-0.7,0.4-1
		l0.2-0.5v-0.1c0.2-0.5,0.4-0.9,0.6-1.4l0.1-0.3l0,0c0.2-0.6,0.4-1.2,0.6-1.8c0,0,0,0,0,0l0,0l0,0c0.2-0.6,0.4-1.2,0.6-1.9
		c0,0,0,0,0-0.1l0.1-0.3c0.1-0.5,0.3-1.1,0.4-1.6l0.1-0.2c0.1-0.4,0.1-0.8,0.2-1.1v-0.2c0.1-0.5,0.1-0.9,0.2-1.4c0-0.1,0-0.1,0-0.2
		s0-0.4,0.1-0.6S172.1,454.5,172.1,454.1z"/>
	<path class="st11" d="M266.6,270.2l-19.7-11.1c-0.2,0.4-0.4,0.8-0.6,1.1s-0.5,0.9-0.8,1.3c-0.1,0.1-0.1,0.2-0.2,0.3
		c-0.2,0.4-0.5,0.7-0.7,1.1l-0.3,0.4c-0.3,0.4-0.6,0.9-0.9,1.3l-0.1,0.2c-0.4,0.6-0.9,1.1-1.4,1.7l-0.3,0.3
		c-0.2,0.3-0.5,0.5-0.7,0.8c-0.1,0.1-0.2,0.2-0.3,0.3c-0.3,0.4-0.7,0.7-1,1.1l-0.1,0.1c-0.5,0.5-1,0.9-1.5,1.4l-0.2,0.2
		c-0.5,0.4-1,0.9-1.5,1.2l-0.3,0.2c-0.5,0.4-1,0.8-1.5,1.1l-0.2,0.2c-0.5,0.4-1.1,0.7-1.6,1s-0.8,0.4-1.2,0.6l-0.3,0.1
		c-0.4,0.2-0.8,0.4-1.2,0.5l-0.2,0.1l-0.7,0.3l-0.3,0.1l-0.6,0.2l-0.3,0.1c-0.4,0.1-0.9,0.2-1.3,0.3l-0.6,0.1c-0.3,0-0.6,0-0.8,0
		s-0.7,0-1.1,0h-0.3c-0.3,0-0.5,0-0.8-0.1h-0.2c-0.3,0-0.6-0.1-0.9-0.2l-0.1,0c-0.3-0.1-0.5-0.2-0.7-0.3l-0.2-0.1
		c-0.2-0.1-0.5-0.2-0.7-0.3l-0.2-0.1l31.4,18.3l0.1,0l0.1,0.1c0.2,0.1,0.4,0.2,0.7,0.3l0.1,0.1l0.1,0l0.7,0.3h0.1l0,0
		c0.3,0.1,0.6,0.1,0.9,0.2h0.1h0.2c0.3,0,0.5,0.1,0.8,0.1h0.2h0.1c0.4,0,0.7,0,1.1,0l0,0l0.8-0.1l0.5-0.1h0.1
		c0.4-0.1,0.9-0.2,1.3-0.3h0.1c0.1,0,0.1,0,0.2-0.1c0.2,0,0.4-0.1,0.6-0.2l0.3-0.1l0.7-0.3l0.2-0.1l0,0c0.4-0.2,0.8-0.3,1.2-0.5
		l0.3-0.1c0.4-0.2,0.8-0.4,1.2-0.6s1.1-0.6,1.6-1l0.2-0.1c0.5-0.4,1-0.7,1.5-1.1l0.3-0.2c0.5-0.4,1-0.8,1.5-1.2l0.2-0.2
		c0.5-0.4,1-0.9,1.5-1.4l0,0l0,0c0.3-0.4,0.7-0.7,1-1.1c0.1-0.1,0.2-0.2,0.3-0.3l0.7-0.8l0.1-0.1l0.1-0.2c0.5-0.5,0.9-1.1,1.4-1.7
		l0,0l0.1-0.1c0.3-0.4,0.6-0.9,1-1.3c0-0.1,0.1-0.1,0.1-0.2c0-0.1,0.1-0.1,0.1-0.2c0.2-0.4,0.5-0.7,0.7-1.1l0.1-0.2v-0.1
		c0.3-0.4,0.5-0.9,0.8-1.3v0c0.2-0.4,0.4-0.7,0.6-1.1l19.7,11.1L266.6,270.2z"/>
	<polygon class="st13" points="153.7,441.4 122.2,423.1 121.1,391.9 152.5,410.2 	"/>
	<polygon class="st13" points="218.4,296.6 187,278.4 214.2,262.7 245.6,280.9 	"/>
	<path class="st11" d="M172.4,377.9c0-0.2,0-0.3,0-0.5c0-0.3,0-0.7,0-1c0-0.2,0-0.3,0-0.5c0-0.3-0.1-0.7-0.1-1c0-0.1,0-0.3,0-0.4
		c-0.1-0.5-0.1-0.9-0.2-1.3c0-0.1,0-0.1,0-0.2c-0.1-0.4-0.2-0.7-0.2-1c0-0.1-0.1-0.3-0.1-0.4s-0.2-0.5-0.3-0.8l-0.1-0.4
		c-0.1-0.3-0.2-0.5-0.3-0.8s-0.1-0.2-0.1-0.3c-0.2-0.3-0.4-0.7-0.6-1l-0.1-0.1c-0.2-0.3-0.4-0.6-0.6-0.8l-0.2-0.3
		c-0.2-0.2-0.3-0.4-0.5-0.5l-0.3-0.3c-0.2-0.2-0.4-0.3-0.6-0.5l-0.3-0.2c-0.3-0.2-0.6-0.4-0.9-0.6l-31.4-18.3
		c0.3,0.2,0.6,0.4,0.9,0.6l0.3,0.2c0.2,0.2,0.4,0.3,0.6,0.5l0.3,0.3c0.2,0.2,0.3,0.4,0.5,0.5s0.1,0.2,0.2,0.3
		c0.2,0.3,0.4,0.5,0.6,0.8l0.1,0.1c0.2,0.3,0.4,0.7,0.6,1l0.1,0.3l0.3,0.8l0.1,0.4c0.1,0.3,0.2,0.5,0.3,0.8s0.1,0.2,0.1,0.4
		c0.1,0.3,0.2,0.7,0.2,1c0,0.1,0,0.1,0,0.2c0.1,0.4,0.1,0.9,0.2,1.3c0,0.1,0,0.3,0,0.4c0,0.3,0.1,0.7,0.1,1c0,0.2,0,0.3,0,0.5
		s0,0.6,0,1c0,0.2,0,0.3,0,0.5c0,0.4,0,0.8,0,1.2c0,0.1,0,0.2,0,0.3c0,0.5-0.1,1-0.2,1.5c0,0.1,0,0.2-0.1,0.4
		c-0.1,0.4-0.1,0.8-0.2,1.2c0,0.2-0.1,0.3-0.1,0.5s-0.1,0.6-0.2,0.9s-0.2,0.8-0.3,1.3s-0.2,0.8-0.3,1.2s-0.3,1-0.5,1.5l-0.3,0.8
		c-0.1,0.3-0.2,0.7-0.4,1s-0.2,0.5-0.3,0.7s-0.3,0.7-0.5,1l-0.3,0.6c-0.2,0.4-0.4,0.8-0.6,1.1l-0.3,0.5c-0.3,0.5-0.6,1-0.9,1.5
		l-0.1,0.1c-0.3,0.5-0.6,1.1-1,1.6l-0.5,0.8l-0.6,0.9c-0.4,0.6-0.8,1.1-1.2,1.7l-0.1,0.1c-0.4,0.5-0.9,1.1-1.4,1.6
		c-0.2,0.3-0.5,0.6-0.8,0.8l-0.4,0.5c-0.4,0.4-0.8,0.8-1.1,1.2c0,0-0.1,0.1-0.1,0.1l-0.1,0.1c-0.5,0.5-1,1-1.5,1.4l-0.5,0.5
		c-0.4,0.3-0.8,0.6-1.2,1l-0.6,0.5c-0.4,0.3-0.8,0.6-1.2,0.9l-0.5,0.4c-0.6,0.4-1.2,0.8-1.8,1.1l31.4,18.3c0.6-0.3,1.2-0.7,1.8-1.1
		l0.5-0.4c0.4-0.3,0.8-0.6,1.2-0.9c0.2-0.1,0.4-0.3,0.6-0.5c0.4-0.3,0.8-0.6,1.2-1c0.2-0.1,0.4-0.3,0.5-0.5c0.5-0.5,1-0.9,1.5-1.4
		l0.1-0.1l0,0l0.1-0.1c0.4-0.4,0.8-0.8,1.1-1.2l0.4-0.5l0.6-0.6l0.2-0.2c0.5-0.5,0.9-1.1,1.3-1.6l0.1-0.1l0,0
		c0.4-0.5,0.8-1.1,1.2-1.7l0,0c0.2-0.3,0.4-0.5,0.5-0.8s0.4-0.5,0.5-0.8v0c0.3-0.5,0.6-1,0.9-1.6l0,0v-0.1c0.3-0.5,0.5-1,0.8-1.4
		l0.1-0.1c0.1-0.2,0.2-0.3,0.2-0.5s0.3-0.6,0.5-0.9c0-0.1,0.1-0.2,0.1-0.2s0.2-0.4,0.3-0.6l0.3-0.7c0.1-0.1,0.1-0.3,0.2-0.4
		s0.2-0.5,0.3-0.7l0.2-0.5c0.1-0.2,0.1-0.3,0.2-0.5l0.3-0.8c0-0.1,0.1-0.3,0.1-0.4c0.1-0.4,0.2-0.7,0.3-1.1s0.1-0.5,0.2-0.7
		s0.1-0.3,0.1-0.4c0.1-0.4,0.2-0.9,0.3-1.3c0-0.1,0.1-0.3,0.1-0.4l0.1-0.4c0-0.2,0.1-0.3,0.1-0.5c0.1-0.4,0.1-0.8,0.2-1.2l0.1-0.4
		c0,0,0-0.1,0-0.1c0.1-0.5,0.1-1,0.1-1.4c0-0.1,0-0.2,0-0.3C172.3,378.7,172.4,378.2,172.4,377.9z"/>
	<path class="st11" d="M218.1,302c0-0.2,0.1-0.3,0.1-0.5s0.1-0.3,0.1-0.5s0-0.2,0-0.4c0.1-0.5,0.1-1,0.1-1.4c0-0.2,0-0.4,0-0.6
		c0-0.7,0-1.3,0-2L187,278.3c0,0.6,0,1.3,0,2c0,0.2,0,0.4,0,0.6c0,0.5-0.1,1-0.1,1.4c0,0.3-0.1,0.6-0.1,0.9s-0.1,0.3-0.1,0.5
		c-0.1,0.5-0.1,0.9-0.2,1.4c0,0.1,0,0.2-0.1,0.2s-0.1,0.2-0.1,0.4c-0.1,0.5-0.2,1.1-0.4,1.7l-0.2,0.8c-0.1,0.4-0.2,0.7-0.3,1.1
		c-0.1,0.3-0.2,0.6-0.3,0.9s-0.2,0.6-0.3,0.9l-0.4,1c-0.1,0.3-0.2,0.5-0.3,0.8s-0.3,0.7-0.5,1s-0.2,0.5-0.3,0.7
		c-0.2,0.4-0.4,0.8-0.6,1.2l-0.3,0.5c-0.3,0.6-0.6,1.1-0.9,1.7c-0.1,0.1-0.1,0.2-0.2,0.3c-0.3,0.5-0.5,0.9-0.8,1.3l-0.5,0.7
		c-0.2,0.3-0.4,0.6-0.6,0.9s-0.5,0.7-0.7,1l-0.5,0.6c-0.5,0.6-0.9,1.1-1.4,1.7c-0.4,0.5-0.8,1-1.3,1.4s-0.8,0.8-1.2,1.2
		c-0.2,0.2-0.4,0.4-0.6,0.6s-0.6,0.6-1,0.8l-0.6,0.5c-0.4,0.3-0.7,0.5-1.1,0.8l-0.5,0.4c-0.6,0.4-1.1,0.7-1.6,1s-0.8,0.5-1.3,0.7
		l-0.3,0.2l-1.2,0.5h-0.1c-0.4,0.2-0.7,0.3-1.1,0.4l-0.3,0.1c-0.3,0.1-0.5,0.2-0.8,0.2l-0.4,0.1l-0.5,0.1l-0.5,0.1l-0.4,0.1h-0.4
		c-0.4,0.1-0.9,0.1-1.3,0.1H160c-0.3,0-0.7,0-1,0h-0.2c-0.3,0-0.7-0.1-1-0.1h-0.2c-0.2,0-0.5-0.1-0.7-0.2l-0.3-0.1
		c-0.2-0.1-0.4-0.1-0.6-0.2l-0.3-0.1l-0.6-0.3l-0.3-0.1l31.4,18.3l0.1,0c0.1,0,0.1,0.1,0.2,0.1c0.2,0.1,0.4,0.2,0.6,0.3
		c0,0,0.1,0,0.1,0l0.2,0.1l0.6,0.2l0.2,0.1c0,0,0.1,0,0.1,0l0.8,0.2h0.1l0,0c0.3,0.1,0.7,0.1,1,0.1h0.2c0.3,0,0.6,0,1,0h0.2
		c0.4,0,0.9-0.1,1.3-0.1h0.1h0.2l0.4-0.1l0.5-0.1l0.5-0.1l0.2-0.1h0.2l0.8-0.2l0.3-0.1c0.4-0.1,0.7-0.3,1.1-0.4l0,0h0.1
		c0.4-0.2,0.8-0.3,1.2-0.5l0.3-0.2c0.4-0.2,0.8-0.4,1.3-0.7s1.1-0.7,1.6-1l0.5-0.4c0.4-0.3,0.7-0.5,1.1-0.8c0.2-0.2,0.4-0.3,0.6-0.5
		s0.6-0.5,1-0.8l0.6-0.6l0.5-0.5l0.7-0.7c0.4-0.4,0.8-0.9,1.2-1.3v-0.1c0.5-0.5,0.9-1.1,1.4-1.7l0.1-0.1c0.1-0.2,0.3-0.4,0.4-0.6
		s0.5-0.6,0.7-1l0.1-0.1c0.2-0.3,0.4-0.5,0.6-0.8l0.5-0.7c0,0,0-0.1,0.1-0.1c0.3-0.4,0.5-0.8,0.8-1.2l0.2-0.3l0,0
		c0.3-0.5,0.6-1,0.9-1.6v-0.1c0.1-0.2,0.2-0.3,0.2-0.5l0.5-1c0-0.1,0.1-0.1,0.1-0.2c0.1-0.2,0.2-0.5,0.3-0.7s0.2-0.5,0.4-0.8
		c0-0.1,0.1-0.2,0.1-0.2c0.1-0.3,0.2-0.5,0.3-0.8l0.3-0.7c0-0.1,0.1-0.2,0.1-0.3c0.1-0.3,0.2-0.6,0.3-0.9s0.2-0.4,0.2-0.6
		s0.1-0.2,0.1-0.3c0.1-0.4,0.2-0.7,0.3-1.1c0.1-0.2,0.1-0.4,0.2-0.6s0-0.1,0-0.2c0.1-0.6,0.3-1.1,0.4-1.7c0-0.1,0.1-0.2,0.1-0.3
		s0,0,0-0.1s0-0.2,0.1-0.2C217.9,303,218,302.5,218.1,302z"/>
	
		<rect x="140.7" y="320.4" transform="matrix(0.5024 -0.8646 0.8646 0.5024 -213.0267 307.0306)" class="st13" width="39.1" height="36.4"/>
	<path class="st14" d="M293.4,315.6c3,6.3,10.2,7.3,18.5,2.5l-0.5,32.2c-7.7,4.4-14.6,13.6-17.5,23.5c-3,10-1,18.6,4.8,21.4
		l-19.4,33.6c-3.5-2.5-9-1.8-14.4,1.3c-2.5,1.5-4.9,3.3-6.9,5.5c-7.3,7.8-11.9,19-11.4,27.9l-28.4,16.4c0.4-9.4-4.2-15.3-11.6-14.6
		c-2.4,0.3-4.8,1.1-6.9,2.4c-6,3.7-11,9-14.3,15.3l-19.5-11.2c5.8-9.5,7.7-20.3,4.7-26.9s-9.9-7.7-17.1-3.5l-1.2-31.2
		c8.3-4.8,15.6-14.2,18.5-23.9c3.1-10.2,1.1-18.9-4.8-21.6l19.6-33.8c3.5,2.4,9,1.8,14.4-1.3c2.5-1.5,4.7-3.3,6.7-5.3
		c7.2-7.6,11.9-18.7,11.6-27.6l27.2-15.7c-0.2,9.2,4.4,14.9,11.7,14.1c2.4-0.3,4.7-1.2,6.7-2.4c6-3.7,11-9,14.3-15.2l19.7,11.1
		C292.2,298.1,290.3,309,293.4,315.6z M232.4,413.2c15.6-9,28.3-31,28.3-49s-12.8-25.3-28.5-16.2s-28.3,31-28.3,49
		S216.8,422.2,232.4,413.2"/>
</g>
</svg>
