<svg id="Layer_1" data-name="Layer 1" xmlns="http://www.w3.org/2000/svg" viewBox="0 0 500 500"><defs><style>.cls-1{isolation:isolate}.cls-2{fill:#b1cdeb}.cls-3{fill:#8db9e3}.cls-4{fill:#67a0ce}.cls-6{fill:#d6e3f4}.cls-7{fill:#69a7db}</style></defs><g class="cls-1"><path class="cls-2" d="M423.15 199.86a9.29 9.29 0 0 1 4.21 7.28l-.59 208.15c0 2.67-1.91 3.75-4.23 2.41l-284.11-164a9.29 9.29 0 0 1-4.2-7.27l.59-208.16c0-2.66 1.92-3.74 4.23-2.41z"/><g class="cls-1"><path class="cls-3" d="M466.48 184.21a1.34 1.34 0 0 0 0-.2v-.41a.76.76 0 0 0 0-.21v-.21c0-.08 0-.15-.05-.22a1.74 1.74 0 0 0-.05-.22l-.06-.23-.06-.22c0-.07 0-.14-.07-.22l-.08-.21c0-.07-.05-.14-.07-.21l-.09-.2a1.8 1.8 0 0 0-.08-.21l-.1-.2c0-.08-.07-.15-.1-.22l-.14-.26-.2-.37c-.11-.17-.21-.34-.32-.5l-.27-.39-.19-.24-39.24 22.74.19.24.27.39c.11.16.22.33.32.5s.14.24.2.37l.14.25c0 .08.07.15.1.23s.07.14.1.2a1.8 1.8 0 0 1 .08.21l.09.2c0 .07.05.14.07.21a1.8 1.8 0 0 1 .08.21c0 .08.05.15.07.22l.06.22a2 2 0 0 1 .06.23 1.42 1.42 0 0 1 .05.22 1.42 1.42 0 0 1 .05.22 1.55 1.55 0 0 0 0 .21v.21a1.49 1.49 0 0 0 0 .21v.2a1.34 1.34 0 0 1 0 .2 1.21 1.21 0 0 1 0 .19l-.59 208.15a3.44 3.44 0 0 1 0 .46 2.28 2.28 0 0 1-.06.39v.05a1.79 1.79 0 0 1-.09.35.25.25 0 0 1 0 .07 1.88 1.88 0 0 1-.12.3 2.91 2.91 0 0 1-.17.3 2 2 0 0 1-.29.36l-.08.08a1.88 1.88 0 0 1-.36.27l39.13-22.74a1.88 1.88 0 0 0 .39-.18l.08-.08a1.7 1.7 0 0 0 .29-.36 2 2 0 0 0 .16-.29l.09-.2v-.1a.64.64 0 0 1 0-.07.14.14 0 0 0 0-.06l.06-.21v-1.03l.59-208.15a1.21 1.21 0 0 0 .21-.24z"/><path class="cls-4" d="M464.44 179.06l-.15-.19c0-.07-.11-.13-.16-.19l-.17-.19-.12-.13-.18-.17h-.05l-.09-.08-.19-.17-.08-.06-.06-.05-.19-.14-.13-.09-.18-.12-.18-.1-284.1-164-.13-.07-.17-.09h-.12l-.17-.07-.17-.06h-.17l-.17-.05h-.17a.58.58 0 0 0-.19 0h-.92a.9.9 0 0 0-.22.06 2.41 2.41 0 0 0-.33.15l-39.43 22.3.33-.15.24-.07h.07a1.65 1.65 0 0 1 .31 0h.43l.35.06.37.11a2.56 2.56 0 0 1 .4.16 4.11 4.11 0 0 1 .42.21l284.1 164a3 3 0 0 1 .42.27c.13.09.26.18.38.28l.36.31c.12.11.24.23.35.35l.36.4a9.25 9.25 0 0 1 2.2 5.53l39.13-22.74a9.16 9.16 0 0 0-1.83-5.21z"/><path d="M463.15 464.41l-.06-.05-.19-.14-.13-.09-.18-.12-.18-.11-284.1-164-.13-.07-.17-.09-.12-.05-.17-.07-.17-.06h-.51a.58.58 0 0 0-.19 0h-.92a.9.9 0 0 0-.22.06l-.33.15-39.13 22.74.33-.15.24-.08h.07a1.65 1.65 0 0 1 .31 0h.43l.35.06a2.59 2.59 0 0 1 .37.11l.4.15.42.21 284.1 164" fill="#1a73a0" opacity=".3"/></g></g><g class="cls-1"><path class="cls-6" d="M39.37 306.91l31.41 18.26 31.62-18.26-31.41-18.25-31.62 18.25z"/><path class="cls-7" d="M39.37 306.91l.53 41.34 31.41 18.26-.53-41.34-31.41-18.26z"/><path class="cls-3" d="M70.78 325.17l.53 41.34 31.62-18.26-.53-41.34-31.62 18.26z"/></g><g class="cls-1"><path class="cls-6" d="M82.41 258.65l31.42 18.26 31.61-18.26-31.41-18.25-31.62 18.25z"/><path class="cls-7" d="M82.41 258.65l.53 114.78 31.41 18.25-.52-114.77-31.42-18.26z"/><path class="cls-3" d="M113.83 276.91l.52 114.77 31.62-18.25-.53-114.78-31.61 18.26z"/></g><g class="cls-1"><path class="cls-6" d="M125.05 210.4l31.41 18.25 31.62-18.26-31.41-18.25-31.62 18.26z"/><path class="cls-7" d="M125.05 210.4l.53 186.31 31.41 18.25-.53-186.31-31.41-18.25z"/><path class="cls-3" d="M156.46 228.65l.53 186.31 31.62-18.25-.53-186.32-31.62 18.26z"/></g><path d="M134.73 56.74l.09-18.5c0-2.66 1.92-3.74 4.23-2.41l284.1 164a9.29 9.29 0 0 1 4.21 7.28v18.69z" fill="#4b87af"/><path class="cls-4" d="M427.36 207.14l39.13-22.74v18.66l-39.17 22.77.04-18.69z"/><g class="cls-1"><path class="cls-6" d="M255.21 304.06c13.45 7.76 26.89 21.43 37.12 39.15 20.46 35.45 20.36 73.69-.24 85.43-10.3 5.87-23.77 4-37.22-3.77s-26.87-21.43-37.12-39.15c-20.47-35.45-20.36-73.69.24-85.43 10.3-5.87 23.77-4 37.22 3.77z"/><path class="cls-2" d="M281.61 410.26c2-1.13 3.14-4.1 3.76-6.4 3.4-12.57-1.05-32.22-11.36-50.07-8.07-14-18.5-25.13-29.38-31.41-4.82-2.79-9.57-4.38-13-4.38a6.32 6.32 0 0 0-3.13.67c-2 1.13-3.13 4.1-3.75 6.39-3.41 12.57 1 32.23 11.36 50.08L223 382.69c-12.4-21.48-17.33-45.07-12.86-61.58 2-7.36 5.65-12.6 10.86-15.57a21.15 21.15 0 0 1 10.61-2.65c6.22 0 13.34 2.21 20.6 6.4 13.14 7.59 25.53 20.71 34.91 36.94 12.4 21.48 17.33 45.08 12.85 61.59-2 7.36-5.64 12.6-10.85 15.57z"/><path class="cls-3" d="M329.34 382.34v-2.68c0-.73-.06-1.46-.11-2.2v-.15a2 2 0 0 1 0-.25c-.05-.75-.11-1.51-.18-2.27-.07-.77-.16-1.55-.26-2.33v-.26a1.11 1.11 0 0 0 0-.17c-.1-.75-.21-1.52-.33-2.29v-.18c0-.06 0-.17-.05-.26-.12-.79-.26-1.59-.41-2.39a.5.5 0 0 0 0-.12c-.15-.79-.31-1.59-.49-2.39v-.35c-.18-.81-.37-1.61-.57-2.42 0-.08 0-.16-.05-.24l-.06-.24c-.21-.81-.42-1.62-.64-2.43a.5.5 0 0 0 0-.13c0-.08 0-.16-.07-.25-.22-.78-.45-1.56-.69-2.35v-.22c-.25-.8-.51-1.61-.77-2.41l-.09-.27a2.25 2.25 0 0 1-.08-.24q-.39-1.14-.81-2.31v-.09a2.6 2.6 0 0 0-.1-.25c-.24-.68-.5-1.35-.76-2l-.11-.3-.07-.18c-.29-.74-.59-1.48-.89-2.21l-.06-.14c0-.11-.09-.21-.13-.31-.26-.62-.52-1.24-.79-1.85 0-.11-.1-.22-.14-.33a1.42 1.42 0 0 1-.08-.18c-.34-.74-.68-1.49-1-2.24a1 1 0 0 0-.07-.15l-.13-.28c-.34-.73-.7-1.46-1.06-2.19l-.11-.23v-.08c-.49-1-1-2-1.52-2.94l-.11-.21-.09-.16c-.21-.4-.43-.79-.64-1.18l-.32-.59c-.33-.58-.66-1.17-1-1.75l-.33-.58-.12-.19c-.67-1.14-1.35-2.26-2-3.37l-.21-.32c-.73-1.16-1.48-2.31-2.24-3.43v-.05c-.43-.63-.86-1.25-1.3-1.87-.12-.17-.25-.34-.37-.52l-1-1.41c-.08-.11-.16-.21-.23-.32l-.1-.12c-.65-.88-1.31-1.74-2-2.59l-.14-.19-.1-.12c-.57-.73-1.16-1.45-1.75-2.16l-.15-.2-.17-.19c-.57-.68-1.15-1.36-1.73-2l-.09-.11-.17-.19c-.62-.7-1.24-1.39-1.86-2.06q-1-1-2-2.07l-.15-.17-.08-.07c-.66-.67-1.32-1.33-2-2l-.17-.17-.12-.11c-.68-.65-1.35-1.28-2-1.89l-.17-.16-.15-.13c-.68-.61-1.37-1.21-2.06-1.79l-.15-.14-.17-.13c-.68-.58-1.36-1.13-2.05-1.68l-.14-.11-.19-.14c-.67-.54-1.35-1.05-2-1.56l-.1-.08-.74-.31c-.69-.5-1.38-1-2.06-1.46l-.1-.07-2-1.31-.14-.09h-.06c-.65-.41-1.29-.8-1.94-1.19l-.2-.12-.5-.29-1.5-.84-.16-.09-.21-.11c-.64-.34-1.28-.68-1.92-1-.64-.32-1.27-.61-1.9-.9l-.21-.09-.13-.06-1.83-.78-.15-.06-.2-.08c-.63-.25-1.26-.48-1.88-.7h-.11c-.62-.22-1.24-.42-1.85-.61l-.18-.06h-.08c-.63-.19-1.26-.36-1.89-.52l-.19-.06h-.15c-.64-.16-1.28-.3-1.91-.42h-.14l-.41-.07-.52-.09-.66-.11-.51-.08h-.16l-.46-.05-.57-.07-.61-.06-.57-.05h-4.18l-.8.06h-.44l-1.34.16h-.15l-1.19.2a.86.86 0 0 1-.17 0h-.17c-.55.12-1.09.24-1.63.39h-.15c-.52.14-1 .3-1.54.48h-.24l-.61.22-.44.18-.63.26-.41.18-.68.33-.34.16c-.33.17-.66.35-1 .54L218 300.29c.33-.19.66-.37 1-.54l.34-.17.67-.32.41-.18.63-.27.44-.17.61-.23.24-.08c.51-.17 1-.33 1.54-.47l.15-.05c.54-.14 1.09-.27 1.64-.38l.34-.07 1.19-.2h.14c.44-.07.89-.12 1.35-.16h.44l.79-.05h4.18l.58.05.6.05.58.07.61.08.52.08.65.1.53.1.54.1c.64.13 1.27.27 1.91.43l.34.08c.63.16 1.26.34 1.9.53l.25.08c.62.18 1.23.38 1.85.6h.15c.62.22 1.25.46 1.88.71l.36.14c.6.25 1.22.51 1.83.78l.33.15c.63.28 1.26.58 1.89.89.64.32 1.28.66 1.93 1l.36.2q.75.4 1.5.84l.7.41c.65.38 1.29.78 1.94 1.19l.21.13c.66.42 1.32.86 2 1.31l.14.09c.69.48 1.37 1 2.06 1.47l.29.21c.68.5 1.36 1 2 1.55l.32.26c.69.54 1.37 1.1 2.05 1.67l.33.28c.69.58 1.37 1.18 2.05 1.79l.32.28c.68.62 1.36 1.25 2 1.89l.3.29c.66.64 1.32 1.29 2 2l.24.24c.66.68 1.32 1.37 2 2.08q.94 1 1.86 2.07l.27.3c.58.66 1.15 1.33 1.72 2l.33.39c.59.71 1.17 1.42 1.75 2.16l.24.3c.66.85 1.32 1.72 2 2.6.11.14.21.29.32.44.34.46.69.93 1 1.41.13.17.25.34.37.52.44.62.87 1.24 1.3 1.87l.06.08c.76 1.12 1.5 2.26 2.24 3.42.06.11.13.22.2.33.69 1.1 1.38 2.23 2.05 3.37l.44.76 1 1.76c.11.19.21.39.32.59.22.39.43.78.64 1.17.07.13.14.25.2.38.52 1 1 2 1.52 2.94l.15.31c.37.73.72 1.46 1.06 2.19l.21.43c.35.74.69 1.49 1 2.24.07.17.15.34.22.5.27.62.53 1.24.79 1.86.07.15.13.29.19.44.31.74.6 1.48.89 2.21.06.16.12.33.19.49.26.67.51 1.35.76 2 0 .12.08.23.13.35.27.77.54 1.54.8 2.31.06.17.11.34.17.5.27.81.53 1.61.77 2.42 0 .07.05.14.07.22.24.78.47 1.57.68 2.35 0 .12.08.25.11.37.22.82.44 1.63.64 2.44l.12.47c.2.81.38 1.62.56 2.42 0 .12 0 .24.08.36.17.8.33 1.59.48 2.38v.17c.15.8.29 1.6.42 2.39 0 .15 0 .29.07.44.12.77.22 1.53.32 2.29l.06.43c.09.78.18 1.56.25 2.33.07.76.13 1.52.18 2.27v.4c0 .74.07 1.47.1 2.19v2.63a1.21 1.21 0 0 1 0 .19c0 .74 0 1.48-.05 2.2v.24c0 .74-.08 1.47-.14 2.2v.37c-.06.73-.14 1.46-.23 2.18v.36q-.15 1.13-.33 2.22l-.06.32c-.13.76-.28 1.51-.45 2.24 0 .16-.07.32-.11.48l-.18.75-.15.56c-.06.25-.13.5-.2.74s-.1.35-.16.53-.18.61-.28.91c0 .14-.09.28-.13.42-.15.43-.3.86-.46 1.28q-.25.69-.54 1.35l-.16.39c-.15.35-.31.7-.47 1-.05.1-.09.21-.14.31-.27.55-.54 1.08-.83 1.6a2.69 2.69 0 0 1-.16.29c-.29.52-.59 1-.9 1.51l-.18.29c-.22.34-.45.67-.68 1l-.19.26q-.42.58-.87 1.14l-.2.24q-.37.46-.78.9a2.85 2.85 0 0 1-.23.26q-.48.53-1 1l-.18.17c-.29.28-.59.55-.89.82l-.28.24c-.36.3-.73.6-1.11.89l-.12.09c-.35.25-.7.5-1.06.74l-.31.21q-.6.39-1.23.75L313.82 416q.63-.36 1.23-.75l.31-.21c.36-.24.71-.48 1.06-.74l.12-.09c.38-.29.75-.58 1.11-.89l.27-.24c.31-.26.61-.54.9-.82l.18-.17c.34-.33.67-.67 1-1 .08-.09.15-.18.23-.26.27-.3.53-.6.78-.91l.19-.23c.3-.37.6-.76.88-1.15l.18-.26c.24-.33.46-.66.69-1l.12-.19.06-.09c.31-.49.61-1 .9-1.52l.16-.28c.28-.52.56-1.06.82-1.6a.36.36 0 0 0 0-.09c0-.07.07-.15.11-.23.16-.34.31-.68.47-1l.16-.39c.19-.45.37-.9.54-1.36q.24-.64.45-1.29c.05-.14.09-.28.14-.41.09-.31.19-.61.28-.92l.06-.2c0-.11.06-.22.09-.32l.21-.75c.05-.18.1-.37.14-.55s.13-.51.19-.76.05-.22.08-.33v-.14q.24-1.11.45-2.25v-.32q.18-1.1.33-2.22v-.35c.09-.72.16-1.45.23-2.19v-.37c.05-.72.1-1.45.13-2.2v-.23c0-.73.05-1.46.05-2.2.21-.1.22-.15.22-.19z"/></g><path d="M274 353.79c-8.07-14-18.5-25.13-29.38-31.41-4.82-2.79-9.57-4.38-13-4.38a6.32 6.32 0 0 0-3.13.67c-2 1.13-3.13 4.1-3.75 6.39-3.41 12.57 1 32.23 11.36 50.08l-13.1 7.55c-12.4-21.48-17.33-45.07-12.86-61.58 2-7.36 5.65-12.6 10.86-15.57a21.15 21.15 0 0 1 10.61-2.65c6.22 0 13.34 2.21 20.6 6.4 13.14 7.59 25.53 20.71 34.91 36.94z" fill="#3d98d3"/></svg>