<?xml version="1.0" encoding="utf-8"?>
<!-- Generator: Adobe Illustrator 22.1.0, SVG Export Plug-In . SVG Version: 6.00 Build 0)  -->
<svg version="1.1" id="Layer_1" xmlns="http://www.w3.org/2000/svg" xmlns:xlink="http://www.w3.org/1999/xlink" x="0px" y="0px"
	 viewBox="0 0 500 500" style="enable-background:new 0 0 500 500;" xml:space="preserve">
<style type="text/css">
	.st0{fill:#DEE1E3;}
	.st1{fill:#3D3D3D;}
	.st2{fill:#0F0F0F;}
	.st3{fill:#313131;}
	.st4{enable-background:new    ;}
	.st5{fill:#8E9295;}
	.st6{fill:#BDC3C7;}
	.st7{fill:#FFFFFF;}
	.st8{fill:#A5C63B;}
	.st9{fill:#ECF0F1;}
	.st10{fill:#34495E;}
	.st11{fill:#F15354;}
	.st12{fill:#F7F9F9;}
	.st13{fill:#80992E;}
	.st14{fill:#3A3A3A;}
</style>
<g>
	<polygon class="st0" points="189.007,486.54 71.29,417.343 354.366,253.909 472.083,323.105 	"/>
	<g>
		<g>
			<polygon class="st1" points="100.093,410.795 202.788,470.476 485.865,307.041 383.169,247.361 			"/>
		</g>
		<g>
			<polygon class="st2" points="100.093,410.795 100.116,418.947 202.811,478.627 202.788,470.476 			"/>
		</g>
		<g>
			<polygon class="st3" points="202.788,470.476 202.811,478.627 485.888,315.193 485.865,307.041 			"/>
		</g>
	</g>
	<path class="st2" d="M384.011,285.851l-15.433-8.969l15.534-8.968l15.433,8.969L384.011,285.851z M379.612,288.391l-15.433-8.969
		l-15.534,8.969l15.433,8.969L379.612,288.391z M359.686,299.896l-15.433-8.969l-15.534,8.968l15.433,8.969L359.686,299.896z
		 M308.786,311.404l15.433,8.969l15.534-8.968l-15.433-8.969L308.786,311.404z M288.853,322.912l15.433,8.969l15.534-8.968
		l-15.433-8.969L288.853,322.912z M268.927,334.416l15.433,8.969l15.534-8.968l-15.433-8.969L268.927,334.416z M248.994,345.925
		l15.433,8.969l15.534-8.968l-15.433-8.969L248.994,345.925z M229.067,357.429l15.433,8.969l15.534-8.968l-15.433-8.969
		L229.067,357.429z M209.134,368.938l15.433,8.969l15.534-8.968l-15.433-8.969L209.134,368.938z M220.168,380.446l-15.433-8.969
		l-15.534,8.969l15.433,8.969L220.168,380.446z M200.242,391.951l-15.433-8.969l-15.534,8.969l15.433,8.969L200.242,391.951z
		 M180.309,403.459l-15.433-8.969l-15.534,8.969l15.433,8.969L180.309,403.459z M144.949,405.995l-15.534,8.969l15.433,8.969
		l15.534-8.969L144.949,405.995z M419.089,288.24l-15.433-8.969l-15.534,8.968l15.433,8.969L419.089,288.24z M399.156,299.748
		l-15.433-8.969l-15.534,8.969l15.433,8.969L399.156,299.748z M379.229,311.253l-15.433-8.969l-15.534,8.968l15.433,8.969
		L379.229,311.253z M328.329,322.761l15.433,8.969l15.534-8.968l-15.433-8.969L328.329,322.761z M308.396,334.269l15.433,8.969
		l15.534-8.968l-15.433-8.969L308.396,334.269z M288.47,345.774l15.433,8.969l15.534-8.968l-15.433-8.969L288.47,345.774z
		 M268.537,357.282l15.433,8.969l15.534-8.968l-15.433-8.969L268.537,357.282z M248.611,368.787l15.433,8.969l15.534-8.968
		l-15.433-8.969L248.611,368.787z M228.678,380.295l15.433,8.969l15.534-8.968l-15.433-8.969L228.678,380.295z M239.712,391.803
		l-15.433-8.969l-15.534,8.969l15.433,8.969L239.712,391.803z M219.785,403.308l-15.433-8.969l-15.534,8.969l15.433,8.969
		L219.785,403.308z M199.852,414.816l-15.433-8.969l-15.534,8.969l15.433,8.969L199.852,414.816z M179.926,426.321l-15.433-8.969
		l-15.534,8.969l15.433,8.969L179.926,426.321z M438.638,299.601l-15.433-8.969l-15.534,8.968l15.433,8.969L438.638,299.601z
		 M418.705,311.109l-15.433-8.969l-15.534,8.969l15.433,8.969L418.705,311.109z M398.779,322.614l-15.433-8.969l-15.534,8.968
		l15.433,8.969L398.779,322.614z M347.879,334.122l15.433,8.969l15.534-8.968l-15.433-8.969L347.879,334.122z M327.946,345.63
		l15.433,8.969l15.534-8.968l-15.433-8.969L327.946,345.63z M308.02,357.135l15.433,8.969l15.534-8.968l-15.433-8.969
		L308.02,357.135z M288.087,368.643l15.433,8.969l15.534-8.968l-15.433-8.969L288.087,368.643z M268.16,380.148l15.433,8.969
		l15.534-8.968l-15.433-8.969L268.16,380.148z M248.227,391.656l15.433,8.969l15.534-8.968l-15.433-8.969L248.227,391.656z
		 M259.261,403.164l-15.433-8.969l-15.534,8.969l15.433,8.969L259.261,403.164z M239.335,414.669l-15.433-8.969l-15.534,8.969
		l15.433,8.969L239.335,414.669z M219.402,426.177l-15.433-8.969l-15.534,8.969l15.433,8.969L219.402,426.177z M199.475,437.682
		l-15.433-8.969l-15.534,8.969l15.433,8.969L199.475,437.682z M398.396,345.483l-15.433-8.969l-135.119,78.011l15.433,8.969
		L398.396,345.483z"/>
	<g>
		<g class="st4">
			<g>
				<g>
					<polygon class="st0" points="401.732,271.57 386.3,262.602 370.766,271.57 386.199,280.539 					"/>
					<polygon class="st5" points="370.766,271.57 370.777,275.646 386.211,284.614 386.199,280.539 					"/>
					<polygon class="st6" points="386.199,280.539 386.211,284.614 401.744,275.646 401.732,271.57 					"/>
					<polygon class="st0" points="381.8,283.078 366.367,274.109 350.833,283.078 366.266,292.047 					"/>
					<polygon class="st5" points="350.833,283.078 350.845,287.154 366.277,296.123 366.266,292.047 					"/>
					<polygon class="st6" points="366.266,292.047 366.277,296.123 381.812,287.154 381.8,283.078 					"/>
					<polygon class="st0" points="361.873,294.583 346.44,285.614 330.906,294.583 346.34,303.552 					"/>
					<polygon class="st5" points="330.906,294.583 330.918,298.658 346.352,307.627 346.34,303.552 					"/>
					<polygon class="st6" points="346.34,303.552 346.352,307.627 361.885,298.659 361.873,294.583 					"/>
					<polygon class="st0" points="310.974,306.091 326.406,315.06 341.94,306.091 326.508,297.123 					"/>
					<polygon class="st5" points="310.974,306.091 310.985,310.167 326.418,319.136 326.406,315.06 					"/>
					<polygon class="st6" points="326.406,315.06 326.418,319.136 341.952,310.167 341.94,306.091 					"/>
					<polygon class="st0" points="291.041,317.6 306.474,326.568 322.008,317.6 306.574,308.631 					"/>
					<polygon class="st5" points="291.041,317.6 291.052,321.675 306.485,330.644 306.474,326.568 					"/>
					<polygon class="st6" points="306.474,326.568 306.485,330.644 322.02,321.676 322.008,317.6 					"/>
					<polygon class="st0" points="271.114,329.104 286.547,338.072 302.081,329.104 286.648,320.136 					"/>
					<polygon class="st5" points="271.114,329.104 271.126,333.18 286.559,342.148 286.547,338.072 					"/>
					<polygon class="st6" points="286.547,338.072 286.559,342.148 302.093,333.18 302.081,329.104 					"/>
					<polygon class="st0" points="251.182,340.612 266.614,349.581 282.148,340.612 266.715,331.644 					"/>
					<polygon class="st5" points="251.182,340.612 251.192,344.688 266.626,353.657 266.614,349.581 					"/>
					<polygon class="st6" points="266.614,349.581 266.626,353.657 282.159,344.688 282.148,340.612 					"/>
					<polygon class="st0" points="231.255,352.117 246.688,361.086 262.222,352.117 246.789,343.148 					"/>
					<polygon class="st5" points="231.255,352.117 231.266,356.192 246.699,365.161 246.688,361.086 					"/>
					<polygon class="st6" points="246.688,361.086 246.699,365.161 262.233,356.192 262.222,352.117 					"/>
					<polygon class="st0" points="211.322,363.625 226.755,372.594 242.289,363.625 226.855,354.656 					"/>
					<polygon class="st5" points="211.322,363.625 211.333,367.701 226.767,376.67 226.755,372.594 					"/>
					<polygon class="st6" points="226.755,372.594 226.767,376.67 242.3,367.701 242.289,363.625 					"/>
					<polygon class="st0" points="222.356,375.134 206.923,366.165 191.389,375.134 206.822,384.103 					"/>
					<polygon class="st5" points="191.389,375.134 191.4,379.209 206.833,388.178 206.822,384.103 					"/>
					<polygon class="st6" points="206.822,384.103 206.833,388.178 222.367,379.209 222.356,375.134 					"/>
					<polygon class="st0" points="202.429,386.638 186.997,377.669 171.462,386.638 186.896,395.606 					"/>
					<polygon class="st5" points="171.462,386.638 171.474,390.714 186.907,399.683 186.896,395.606 					"/>
					<polygon class="st6" points="186.896,395.606 186.907,399.683 202.441,390.714 202.429,386.638 					"/>
					<polygon class="st0" points="182.497,398.146 167.063,389.178 151.529,398.146 166.962,407.115 					"/>
					<polygon class="st5" points="151.529,398.146 151.541,402.222 166.974,411.19 166.962,407.115 					"/>
					<polygon class="st6" points="166.962,407.115 166.974,411.19 182.508,402.223 182.497,398.146 					"/>
					<polygon class="st0" points="147.137,400.683 131.603,409.65 147.036,418.619 162.57,409.651 					"/>
					<polygon class="st5" points="131.603,409.65 131.614,413.727 147.047,422.695 147.036,418.619 					"/>
					<polygon class="st6" points="147.036,418.619 147.047,422.695 162.582,413.727 162.57,409.651 					"/>
					<polygon class="st0" points="421.276,282.928 405.843,273.959 390.31,282.928 405.742,291.896 					"/>
					<polygon class="st5" points="390.31,282.928 390.32,287.003 405.754,295.972 405.742,291.896 					"/>
					<polygon class="st6" points="405.742,291.896 405.754,295.972 421.288,287.003 421.276,282.928 					"/>
					<polygon class="st0" points="401.344,294.436 385.91,285.467 370.376,294.436 385.81,303.404 					"/>
					<polygon class="st5" points="370.376,294.436 370.388,298.512 385.821,307.48 385.81,303.404 					"/>
					<polygon class="st6" points="385.81,303.404 385.821,307.48 401.354,298.512 401.344,294.436 					"/>
					<polygon class="st0" points="381.417,305.94 365.983,296.972 350.45,305.94 365.883,314.909 					"/>
					<polygon class="st5" points="350.45,305.94 350.461,310.016 365.895,318.984 365.883,314.909 					"/>
					<polygon class="st6" points="365.883,314.909 365.895,318.984 381.428,310.017 381.417,305.94 					"/>
					<polygon class="st0" points="330.517,317.448 345.95,326.417 361.483,317.448 346.051,308.479 					"/>
					<polygon class="st5" points="330.517,317.448 330.528,321.524 345.962,330.493 345.95,326.417 					"/>
					<polygon class="st6" points="345.95,326.417 345.962,330.493 361.495,321.524 361.483,317.448 					"/>
					<polygon class="st0" points="310.584,328.957 326.017,337.926 341.551,328.957 326.118,319.988 					"/>
					<polygon class="st5" points="310.584,328.957 310.596,333.032 326.028,342.001 326.017,337.926 					"/>
					<polygon class="st6" points="326.017,337.926 326.028,342.001 341.562,333.033 341.551,328.957 					"/>
					<polygon class="st0" points="290.657,340.461 306.091,349.43 321.624,340.462 306.191,331.493 					"/>
					<polygon class="st5" points="290.657,340.461 290.669,344.537 306.103,353.506 306.091,349.43 					"/>
					<polygon class="st6" points="306.091,349.43 306.103,353.506 321.636,344.537 321.624,340.462 					"/>
					<polygon class="st0" points="270.725,351.97 286.157,360.938 301.691,351.97 286.259,343.001 					"/>
					<polygon class="st5" points="270.725,351.97 270.736,356.045 286.169,365.014 286.157,360.938 					"/>
					<polygon class="st6" points="286.157,360.938 286.169,365.014 301.703,356.046 301.691,351.97 					"/>
					<polygon class="st0" points="250.798,363.474 266.231,372.442 281.765,363.475 266.332,354.506 					"/>
					<polygon class="st5" points="250.798,363.474 250.81,367.55 266.242,376.519 266.231,372.442 					"/>
					<polygon class="st6" points="266.231,372.442 266.242,376.519 281.776,367.55 281.765,363.475 					"/>
					<polygon class="st0" points="230.865,374.982 246.298,383.951 261.832,374.982 246.399,366.014 					"/>
					<polygon class="st5" points="230.865,374.982 230.876,379.059 246.31,388.027 246.298,383.951 					"/>
					<polygon class="st6" points="246.298,383.951 246.31,388.027 261.844,379.059 261.832,374.982 					"/>
					<polygon class="st0" points="241.899,386.491 226.466,377.522 210.932,386.491 226.365,395.459 					"/>
					<polygon class="st5" points="210.932,386.491 210.944,390.566 226.376,399.535 226.365,395.459 					"/>
					<polygon class="st6" points="226.365,395.459 226.376,399.535 241.911,390.566 241.899,386.491 					"/>
					<polygon class="st0" points="221.973,397.995 206.54,389.026 191.006,397.995 206.438,406.964 					"/>
					<polygon class="st5" points="191.006,397.995 191.017,402.071 206.45,411.04 206.438,406.964 					"/>
					<polygon class="st6" points="206.438,406.964 206.45,411.04 221.984,402.071 221.973,397.995 					"/>
					<polygon class="st0" points="202.04,409.504 186.606,400.535 171.073,409.504 186.506,418.473 					"/>
					<polygon class="st5" points="171.073,409.504 171.084,413.579 186.517,422.548 186.506,418.473 					"/>
					<polygon class="st6" points="186.506,418.473 186.517,422.548 202.051,413.579 202.04,409.504 					"/>
					<polygon class="st0" points="182.113,421.008 166.68,412.04 151.146,421.008 166.579,429.977 					"/>
					<polygon class="st5" points="151.146,421.008 151.158,425.084 166.591,434.053 166.579,429.977 					"/>
					<polygon class="st6" points="166.579,429.977 166.591,434.053 182.125,425.084 182.113,421.008 					"/>
					<polygon class="st0" points="440.826,294.288 425.393,285.32 409.859,294.288 425.292,303.257 					"/>
					<polygon class="st5" points="409.859,294.288 409.87,298.364 425.304,307.333 425.292,303.257 					"/>
					<polygon class="st6" points="425.292,303.257 425.304,307.333 440.837,298.364 440.826,294.288 					"/>
					<polygon class="st0" points="420.893,305.797 405.46,296.828 389.926,305.797 405.358,314.766 					"/>
					<polygon class="st5" points="389.926,305.797 389.938,309.872 405.37,318.841 405.358,314.766 					"/>
					<polygon class="st6" points="405.358,314.766 405.37,318.841 420.904,309.873 420.893,305.797 					"/>
					<polygon class="st0" points="400.966,317.302 385.533,308.333 370,317.301 385.433,326.27 					"/>
					<polygon class="st5" points="370,317.301 370.011,321.377 385.444,330.346 385.433,326.27 					"/>
					<polygon class="st6" points="385.433,326.27 385.444,330.346 400.978,321.377 400.966,317.302 					"/>
					<polygon class="st0" points="350.066,328.81 365.5,337.778 381.033,328.81 365.601,319.841 					"/>
					<polygon class="st5" points="350.066,328.81 350.078,332.886 365.511,341.854 365.5,337.778 					"/>
					<polygon class="st6" points="365.5,337.778 365.511,341.854 381.045,332.886 381.033,328.81 					"/>
					<polygon class="st0" points="330.134,340.317 345.566,349.286 361.101,340.318 345.668,331.35 					"/>
					<polygon class="st5" points="330.134,340.317 330.146,344.394 345.578,353.362 345.566,349.286 					"/>
					<polygon class="st6" points="345.566,349.286 345.578,353.362 361.112,344.394 361.101,340.318 					"/>
					<polygon class="st0" points="310.207,351.822 325.641,360.791 341.174,351.822 325.741,342.854 					"/>
					<polygon class="st5" points="310.207,351.822 310.219,355.898 325.651,364.867 325.641,360.791 					"/>
					<polygon class="st6" points="325.641,360.791 325.651,364.867 341.186,355.898 341.174,351.822 					"/>
					<polygon class="st0" points="290.274,363.331 305.707,372.299 321.241,363.331 305.809,354.362 					"/>
					<polygon class="st5" points="290.274,363.331 290.286,367.406 305.719,376.375 305.707,372.299 					"/>
					<polygon class="st6" points="305.707,372.299 305.719,376.375 321.253,367.406 321.241,363.331 					"/>
					<polygon class="st0" points="270.348,374.835 285.78,383.804 301.314,374.835 285.882,365.867 					"/>
					<polygon class="st5" points="270.348,374.835 270.359,378.911 285.792,387.88 285.78,383.804 					"/>
					<polygon class="st6" points="285.78,383.804 285.792,387.88 301.326,378.911 301.314,374.835 					"/>
					<polygon class="st0" points="250.415,386.344 265.848,395.312 281.382,386.344 265.948,377.375 					"/>
					<polygon class="st5" points="250.415,386.344 250.426,390.419 265.859,399.388 265.848,395.312 					"/>
					<polygon class="st6" points="265.848,395.312 265.859,399.388 281.394,390.42 281.382,386.344 					"/>
					<polygon class="st0" points="261.449,397.852 246.016,388.883 230.482,397.852 245.915,406.82 					"/>
					<polygon class="st5" points="230.482,397.852 230.494,401.928 245.926,410.896 245.915,406.82 					"/>
					<polygon class="st6" points="245.915,406.82 245.926,410.896 261.46,401.928 261.449,397.852 					"/>
					<polygon class="st0" points="241.522,409.356 226.089,400.388 210.556,409.356 225.988,418.325 					"/>
					<polygon class="st5" points="210.556,409.356 210.567,413.433 226,422.4 225.988,418.325 					"/>
					<polygon class="st6" points="225.988,418.325 226,422.4 241.534,413.433 241.522,409.356 					"/>
					<polygon class="st0" points="221.589,420.864 206.156,411.896 190.623,420.864 206.055,429.833 					"/>
					<polygon class="st5" points="190.623,420.864 190.634,424.94 206.067,433.909 206.055,429.833 					"/>
					<polygon class="st6" points="206.055,429.833 206.067,433.909 221.601,424.94 221.589,420.864 					"/>
					<polygon class="st0" points="201.663,432.369 186.23,423.4 170.696,432.369 186.129,441.338 					"/>
					<polygon class="st5" points="170.696,432.369 170.708,436.445 186.141,445.414 186.129,441.338 					"/>
					<polygon class="st6" points="186.129,441.338 186.141,445.414 201.674,436.445 201.663,432.369 					"/>
					<polygon class="st0" points="400.583,340.171 385.15,331.202 250.031,409.213 265.464,418.182 					"/>
					<polygon class="st5" points="250.031,409.213 250.043,413.289 265.476,422.257 265.464,418.182 					"/>
					<polygon class="st6" points="265.464,418.182 265.476,422.257 400.595,344.246 400.583,340.171 					"/>
				</g>
			</g>
		</g>
	</g>
</g>
<path class="st7" d="M26.233,755.627c0-130.339,105.661-236,236-236s236,105.661,236,236"/>
<g>
	<path class="st8" d="M262.233,540.596c-118.758,0-215.031,96.273-215.031,215.031h215.031l143.032-160.546
		C367.259,561.198,317.156,540.596,262.233,540.596z"/>
	<path class="st9" d="M405.265,595.081L262.233,755.627h215.031C477.264,691.791,449.438,634.463,405.265,595.081z"/>
</g>
<path class="st7" d="M124.233,755.627c0-76.215,61.785-138,138-138s138,61.785,138,138"/>
<g>
	<rect x="2.746" y="751.762" class="st10" width="518.974" height="7.459"/>
</g>
<circle class="st11" cx="262.233" cy="755.492" r="22"/>
<polygon class="st11" points="270.44,769.323 253.561,755.214 405.027,583.357 412.7,589.77 "/>
<g>
	<g class="st4">
		<g>
			<path class="st12" d="M226.398,137.75c76.348-44.079,138.442-8.694,138.691,79.043L88.608,376.42
				C88.359,288.683,150.05,181.83,226.398,137.75z"/>
		</g>
		<path class="st12" d="M88.745,368.79c0.017-0.451,0.035-0.903,0.055-1.356c0.038-0.875,0.083-1.752,0.133-2.63
			c0.024-0.416,0.045-0.832,0.072-1.249c0.071-1.119,0.151-2.241,0.24-3.365c0.013-0.164,0.023-0.327,0.036-0.491
			c0.105-1.286,0.224-2.576,0.353-3.868c0.038-0.38,0.081-0.761,0.121-1.141c0.097-0.923,0.199-1.846,0.308-2.772
			c0.054-0.459,0.111-0.918,0.168-1.378c0.091-0.735,0.189-1.47,0.288-2.206c0.119-0.888,0.244-1.776,0.374-2.666
			c0.092-0.633,0.186-1.266,0.284-1.899c0.14-0.906,0.288-1.814,0.44-2.722c0.102-0.615,0.203-1.23,0.311-1.846
			c0.167-0.958,0.345-1.917,0.524-2.877c0.105-0.564,0.206-1.128,0.316-1.692c0.219-1.127,0.451-2.256,0.686-3.385
			c0.084-0.402,0.161-0.804,0.247-1.207c0.091-0.429,0.191-0.859,0.284-1.288c0.208-0.952,0.417-1.903,0.636-2.856
			c0.124-0.539,0.256-1.079,0.384-1.618c0.2-0.845,0.4-1.69,0.61-2.535c0.143-0.579,0.293-1.158,0.44-1.738
			c0.205-0.807,0.411-1.614,0.625-2.422c0.158-0.598,0.321-1.195,0.483-1.793c0.183-0.674,0.369-1.349,0.557-2.023
			c0.571-2.041,1.164-4.083,1.784-6.123c0.109-0.36,0.223-0.719,0.334-1.079c0.594-1.928,1.208-3.856,1.846-5.782
			c0.084-0.254,0.164-0.509,0.249-0.763c0.639-1.913,1.303-3.823,1.983-5.732c0.164-0.459,0.331-0.918,0.497-1.378
			c0.628-1.734,1.269-3.466,1.93-5.195c0.088-0.231,0.173-0.462,0.262-0.693c0.706-1.833,1.434-3.662,2.177-5.488
			c0.19-0.468,0.385-0.936,0.577-1.403c0.627-1.521,1.266-3.039,1.918-4.553c0.16-0.372,0.317-0.745,0.478-1.116
			c0.773-1.776,1.562-3.548,2.369-5.315c0.186-0.408,0.377-0.815,0.565-1.223c0.66-1.432,1.331-2.86,2.013-4.284
			c0.224-0.469,0.448-0.938,0.674-1.406c0.849-1.752,1.71-3.5,2.591-5.24c0.095-0.188,0.193-0.374,0.289-0.561
			c0.799-1.571,1.613-3.135,2.438-4.695c0.255-0.483,0.512-0.965,0.77-1.447c0.809-1.512,1.629-3.02,2.461-4.52
			c0.139-0.25,0.274-0.502,0.414-0.753c0.958-1.716,1.933-3.423,2.921-5.122c0.252-0.433,0.506-0.864,0.76-1.295
			c0.854-1.455,1.719-2.904,2.594-4.345c0.215-0.355,0.428-0.711,0.645-1.065c1.047-1.71,2.11-3.41,3.186-5.099
			c0.235-0.369,0.474-0.735,0.71-1.103c1.002-1.559,2.016-3.11,3.043-4.651c0.21-0.315,0.417-0.631,0.627-0.945
			c1.166-1.737,2.349-3.46,3.545-5.171c0.256-0.367,0.515-0.731,0.772-1.096c1.339-1.9,2.691-3.788,4.067-5.654
			c0.027-0.036,0.054-0.072,0.081-0.108c1.361-1.844,2.744-3.666,4.139-5.474c0.244-0.316,0.486-0.634,0.731-0.949
			c1.597-2.055,3.218-4.084,4.858-6.089c0.243-0.297,0.485-0.594,0.728-0.89c1.634-1.984,3.289-3.941,4.964-5.872
			c0.327-0.377,0.653-0.754,0.981-1.128c0.769-0.878,1.542-1.749,2.319-2.615c0.372-0.415,0.742-0.832,1.115-1.244
			c1.039-1.146,2.084-2.282,3.137-3.407c0.107-0.114,0.211-0.231,0.318-0.344c1.159-1.235,2.328-2.453,3.503-3.662
			c0.357-0.367,0.717-0.727,1.075-1.092c0.831-0.845,1.664-1.685,2.503-2.517c0.561-0.557,1.124-1.11,1.689-1.661
			c0.37-0.361,0.74-0.723,1.111-1.081c0.705-0.679,1.414-1.352,2.124-2.021c0.298-0.281,0.594-0.565,0.892-0.843
			c1.006-0.94,2.017-1.871,3.033-2.791c0.171-0.155,0.344-0.306,0.515-0.46c0.848-0.764,1.699-1.522,2.554-2.271
			c0.356-0.312,0.714-0.618,1.07-0.928c0.679-0.588,1.359-1.174,2.042-1.753c0.398-0.337,0.797-0.672,1.196-1.006
			c0.656-0.549,1.313-1.093,1.973-1.634c0.403-0.33,0.805-0.659,1.209-0.985c0.686-0.554,1.374-1.102,2.063-1.647
			c0.371-0.293,0.742-0.589,1.114-0.88c0.838-0.654,1.68-1.299,2.524-1.939c0.222-0.168,0.443-0.341,0.665-0.508
			c1.065-0.802,2.135-1.591,3.208-2.369c0.292-0.211,0.585-0.417,0.877-0.626c0.785-0.564,1.572-1.123,2.361-1.674
			c0.395-0.276,0.792-0.546,1.188-0.819c0.696-0.479,1.393-0.954,2.093-1.422c0.422-0.282,0.844-0.562,1.267-0.841
			c0.691-0.455,1.383-0.905,2.076-1.35c0.415-0.267,0.83-0.534,1.247-0.797c0.747-0.472,1.496-0.935,2.247-1.395
			c0.357-0.219,0.712-0.441,1.07-0.657c1.106-0.669,2.214-1.327,3.326-1.969c1.472-0.85,2.937-1.66,4.398-2.451
			c0.42-0.228,0.84-0.449,1.259-0.672c1.118-0.594,2.233-1.17,3.344-1.729c0.381-0.192,0.763-0.388,1.143-0.576
			c1.438-0.71,2.87-1.396,4.296-2.049c0.236-0.108,0.469-0.207,0.705-0.314c1.208-0.546,2.411-1.07,3.609-1.575
			c0.454-0.191,0.907-0.38,1.36-0.565c0.834-0.342,1.665-0.672,2.494-0.993c0.46-0.178,0.92-0.359,1.378-0.531
			c0.92-0.346,1.835-0.675,2.748-0.997c0.351-0.123,0.704-0.255,1.053-0.375c1.256-0.43,2.506-0.84,3.75-1.224
			c0.233-0.072,0.463-0.135,0.695-0.205c1.012-0.306,2.02-0.601,3.023-0.877c0.599-0.165,1.194-0.319,1.789-0.473
			c0.45-0.116,0.901-0.237,1.35-0.347c0.648-0.159,1.292-0.305,1.937-0.451c0.413-0.094,0.828-0.194,1.239-0.283
			c0.731-0.157,1.456-0.299,2.182-0.44c0.32-0.062,0.642-0.132,0.961-0.191c1.042-0.193,2.079-0.369,3.11-0.528
			c0.07-0.011,0.14-0.019,0.21-0.03c0.911-0.138,1.818-0.262,2.72-0.374c0.318-0.039,0.634-0.072,0.951-0.108
			c0.66-0.075,1.317-0.145,1.972-0.206c0.352-0.033,0.703-0.062,1.054-0.091c0.633-0.052,1.264-0.096,1.893-0.134
			c0.334-0.02,0.669-0.042,1.002-0.059c0.823-0.041,1.641-0.073,2.455-0.091c0.096-0.002,0.194-0.007,0.29-0.009
			c0.913-0.017,1.819-0.017,2.72-0.006c0.261,0.003,0.519,0.011,0.779,0.017c0.661,0.014,1.319,0.036,1.974,0.066
			c0.283,0.013,0.566,0.026,0.848,0.042c0.383,0.021,0.762,0.053,1.142,0.08c1.034,0.073,2.059,0.164,3.076,0.276
			c0.274,0.03,0.551,0.055,0.824,0.088c1.223,0.147,2.433,0.322,3.631,0.526c0.267,0.045,0.531,0.099,0.797,0.147
			c0.945,0.171,1.882,0.36,2.811,0.567c0.313,0.07,0.626,0.137,0.937,0.211c1.147,0.271,2.284,0.561,3.405,0.886
			c0.094,0.027,0.186,0.059,0.279,0.087c1.025,0.302,2.036,0.63,3.038,0.976c0.309,0.107,0.616,0.217,0.923,0.328
			c0.891,0.322,1.774,0.662,2.647,1.02c0.203,0.083,0.41,0.161,0.612,0.246c1.054,0.444,2.092,0.917,3.118,1.413
			c0.254,0.123,0.504,0.253,0.757,0.379c0.815,0.407,1.622,0.831,2.419,1.271c0.419,0.231,0.842,0.455,1.256,0.695l-14.096-8.192
			c-0.251-0.146-0.504-0.291-0.757-0.433c-0.163-0.092-0.334-0.171-0.498-0.262c-0.797-0.44-1.603-0.864-2.419-1.271
			c-0.252-0.126-0.502-0.256-0.757-0.379c-1.026-0.496-2.064-0.969-3.118-1.413c-0.05-0.021-0.099-0.047-0.149-0.068
			c-0.152-0.064-0.31-0.116-0.463-0.178c-0.873-0.358-1.755-0.697-2.647-1.02c-0.307-0.111-0.614-0.221-0.923-0.328
			c-1.003-0.346-2.015-0.675-3.04-0.976c-0.077-0.023-0.151-0.051-0.228-0.073c-0.016-0.005-0.033-0.008-0.049-0.013
			c-1.121-0.325-2.259-0.615-3.406-0.886c-0.311-0.073-0.624-0.141-0.937-0.211c-0.929-0.206-1.866-0.395-2.811-0.567
			c-0.188-0.034-0.37-0.08-0.558-0.112c-0.079-0.014-0.16-0.021-0.239-0.035c-1.198-0.204-2.408-0.379-3.631-0.526
			c-0.273-0.033-0.55-0.058-0.824-0.088c-1.017-0.112-2.043-0.203-3.077-0.276c-0.195-0.014-0.385-0.04-0.581-0.052
			c-0.186-0.012-0.375-0.017-0.561-0.028c-0.282-0.016-0.565-0.029-0.848-0.042c-0.655-0.03-1.313-0.051-1.973-0.066
			c-0.26-0.006-0.518-0.014-0.779-0.017c-0.902-0.011-1.807-0.012-2.72,0.006c-0.096,0.002-0.193,0.007-0.29,0.009
			c-0.657,0.015-1.315,0.033-1.977,0.063c-0.159,0.007-0.32,0.02-0.479,0.028c-0.333,0.017-0.668,0.039-1.002,0.059
			c-0.629,0.038-1.26,0.083-1.893,0.134c-0.351,0.029-0.702,0.058-1.054,0.091c-0.655,0.061-1.312,0.131-1.972,0.206
			c-0.317,0.036-0.633,0.069-0.951,0.108c-0.902,0.112-1.809,0.235-2.72,0.374c-0.07,0.011-0.14,0.019-0.21,0.03
			c-0.009,0.001-0.017,0.002-0.026,0.004c-1.022,0.157-2.051,0.333-3.085,0.524c-0.317,0.059-0.638,0.128-0.956,0.19
			c-0.727,0.141-1.454,0.283-2.186,0.441c-0.41,0.088-0.824,0.188-1.235,0.282c-0.646,0.147-1.291,0.292-1.94,0.452
			c-0.448,0.11-0.898,0.231-1.348,0.347c-0.471,0.122-0.939,0.235-1.412,0.363c-0.125,0.034-0.253,0.075-0.379,0.11
			c-1.003,0.276-2.011,0.57-3.023,0.877c-0.232,0.07-0.462,0.133-0.695,0.205c-1.243,0.384-2.494,0.794-3.75,1.224
			c-0.35,0.12-0.703,0.251-1.053,0.375c-0.913,0.322-1.829,0.651-2.748,0.997c-0.458,0.172-0.918,0.353-1.378,0.531
			c-0.829,0.322-1.66,0.652-2.494,0.993c-0.253,0.103-0.502,0.196-0.755,0.301c-0.201,0.083-0.404,0.179-0.605,0.264
			c-1.197,0.504-2.399,1.029-3.606,1.574c-0.237,0.107-0.471,0.207-0.708,0.315c-1.425,0.653-2.857,1.338-4.295,2.048
			c-0.38,0.188-0.762,0.384-1.143,0.576c-1.111,0.559-2.226,1.136-3.344,1.729c-0.42,0.223-0.839,0.444-1.259,0.672
			c-1.461,0.791-2.926,1.601-4.398,2.451c-1.112,0.642-2.221,1.3-3.327,1.969c-0.356,0.216-0.711,0.438-1.067,0.656
			c-0.752,0.461-1.503,0.925-2.251,1.398c-0.415,0.262-0.828,0.528-1.242,0.794c-0.695,0.446-1.388,0.896-2.08,1.352
			c-0.422,0.279-0.844,0.558-1.266,0.841c-0.701,0.469-1.399,0.945-2.096,1.425c-0.394,0.271-0.789,0.54-1.183,0.815
			c-0.791,0.552-1.579,1.113-2.367,1.678c-0.291,0.209-0.584,0.414-0.874,0.624c-1.073,0.778-2.143,1.567-3.208,2.369
			c-0.222,0.167-0.442,0.339-0.663,0.507c-0.845,0.641-1.688,1.286-2.528,1.942c-0.37,0.289-0.738,0.582-1.106,0.874
			c-0.692,0.547-1.383,1.097-2.072,1.653c-0.402,0.325-0.802,0.652-1.202,0.98c-0.662,0.542-1.322,1.089-1.981,1.64
			c-0.397,0.332-0.794,0.664-1.189,1c-0.686,0.582-1.37,1.17-2.052,1.761c-0.354,0.307-0.709,0.611-1.062,0.92
			c-0.861,0.754-1.718,1.518-2.572,2.287c-0.166,0.149-0.332,0.295-0.498,0.444c-1.018,0.921-2.03,1.853-3.038,2.795
			c-0.294,0.275-0.586,0.555-0.88,0.832c-0.714,0.673-1.428,1.35-2.137,2.033c-0.369,0.355-0.736,0.715-1.103,1.073
			c-0.381,0.372-0.765,0.739-1.145,1.113c-0.186,0.183-0.368,0.372-0.553,0.556c-0.837,0.83-1.668,1.668-2.497,2.511
			c-0.359,0.365-0.72,0.727-1.078,1.095c-1.175,1.208-2.344,2.427-3.502,3.661c-0.107,0.114-0.211,0.23-0.318,0.344
			c-1.053,1.125-2.098,2.261-3.138,3.408c-0.374,0.413-0.744,0.83-1.117,1.246c-0.776,0.866-1.549,1.736-2.317,2.614
			c-0.193,0.22-0.389,0.435-0.582,0.656c-0.134,0.154-0.264,0.316-0.398,0.471c-1.675,1.933-3.331,3.891-4.966,5.875
			c-0.243,0.295-0.484,0.591-0.726,0.887c-1.641,2.007-3.262,4.036-4.86,6.093c-0.088,0.113-0.179,0.221-0.266,0.334
			c-0.156,0.201-0.306,0.409-0.462,0.611c-1.396,1.809-2.779,3.632-4.141,5.476c-0.027,0.036-0.054,0.072-0.081,0.108
			c-1.376,1.866-2.728,3.755-4.068,5.656c-0.148,0.21-0.302,0.414-0.449,0.624c-0.108,0.154-0.212,0.313-0.32,0.467
			c-1.197,1.713-2.381,3.438-3.549,5.177c-0.209,0.311-0.413,0.624-0.621,0.936c-1.029,1.544-2.045,3.097-3.049,4.66
			c-0.152,0.237-0.311,0.47-0.463,0.707c-0.083,0.13-0.162,0.262-0.245,0.392c-1.077,1.69-2.14,3.39-3.187,5.1
			c-0.216,0.353-0.428,0.709-0.643,1.063c-0.876,1.443-1.741,2.892-2.596,4.348c-0.155,0.264-0.317,0.524-0.471,0.789
			c-0.098,0.168-0.191,0.338-0.288,0.506c-0.988,1.701-1.965,3.408-2.923,5.126c-0.137,0.246-0.27,0.494-0.407,0.74
			c-0.834,1.504-1.655,3.014-2.466,4.529c-0.133,0.249-0.272,0.494-0.405,0.743c-0.125,0.235-0.243,0.472-0.367,0.708
			c-0.824,1.559-1.637,3.122-2.436,4.692c-0.095,0.188-0.194,0.374-0.289,0.562c-0.881,1.74-1.742,3.488-2.591,5.24
			c-0.09,0.185-0.185,0.369-0.274,0.555c-0.136,0.283-0.265,0.568-0.4,0.852c-0.682,1.424-1.353,2.853-2.013,4.284
			c-0.188,0.408-0.379,0.814-0.565,1.223c-0.806,1.767-1.596,3.539-2.369,5.316c-0.047,0.108-0.097,0.216-0.144,0.324
			c-0.114,0.262-0.219,0.526-0.332,0.789c-0.653,1.517-1.293,3.037-1.921,4.56c-0.192,0.466-0.386,0.932-0.576,1.399
			c-0.743,1.827-1.471,3.656-2.177,5.489c-0.021,0.055-0.045,0.111-0.066,0.166c-0.067,0.175-0.129,0.352-0.196,0.527
			c-0.661,1.729-1.303,3.461-1.93,5.195c-0.166,0.459-0.333,0.918-0.497,1.378c-0.68,1.909-1.344,3.819-1.983,5.732
			c-0.024,0.072-0.051,0.144-0.075,0.216c-0.061,0.182-0.114,0.364-0.174,0.546c-0.638,1.927-1.252,3.855-1.846,5.784
			c-0.111,0.359-0.224,0.718-0.333,1.076c-0.62,2.04-1.213,4.081-1.783,6.121c-0.052,0.187-0.112,0.374-0.164,0.561
			c-0.136,0.489-0.262,0.978-0.395,1.467c-0.162,0.597-0.324,1.194-0.482,1.79c-0.213,0.807-0.419,1.615-0.625,2.422
			c-0.147,0.579-0.297,1.159-0.44,1.738c-0.209,0.845-0.409,1.69-0.61,2.535c-0.128,0.539-0.26,1.079-0.384,1.618
			c-0.219,0.953-0.428,1.904-0.636,2.856c-0.094,0.429-0.193,0.859-0.284,1.288c-0.011,0.05-0.023,0.101-0.033,0.151
			c-0.076,0.355-0.142,0.709-0.216,1.064c-0.234,1.125-0.465,2.25-0.683,3.373c-0.11,0.568-0.212,1.135-0.318,1.703
			c-0.179,0.957-0.356,1.914-0.523,2.869c-0.108,0.618-0.209,1.235-0.312,1.852c-0.151,0.905-0.298,1.81-0.438,2.713
			c-0.098,0.636-0.192,1.271-0.285,1.906c-0.13,0.888-0.255,1.776-0.374,2.662c-0.046,0.343-0.1,0.687-0.144,1.029
			c-0.051,0.396-0.095,0.79-0.144,1.185c-0.057,0.456-0.113,0.911-0.167,1.367c-0.11,0.929-0.212,1.856-0.309,2.783
			c-0.04,0.378-0.083,0.758-0.121,1.136c-0.129,1.291-0.248,2.579-0.353,3.864c-0.014,0.173-0.025,0.345-0.038,0.517
			c-0.088,1.115-0.168,2.228-0.238,3.339c-0.026,0.419-0.048,0.838-0.072,1.257c-0.05,0.876-0.095,1.751-0.133,2.624
			c-0.02,0.454-0.039,0.908-0.055,1.361c-0.033,0.881-0.058,1.76-0.078,2.638c-0.009,0.402-0.021,0.805-0.028,1.206
			c-0.022,1.264-0.034,2.525-0.031,3.781l14.096,8.192c-0.004-1.257,0.009-2.52,0.031-3.785c0.007-0.397,0.019-0.795,0.028-1.193
			C88.687,370.56,88.712,369.676,88.745,368.79z"/>
	</g>
</g>
<g>
	<g>
		<path class="st7" d="M310.26,139.671c25.946,11.57,42.355,40.749,42.477,83.719L226.78,296.111L310.26,139.671z"/>
	</g>
	<g>
		<path class="st13" d="M226.37,151.37c32.172-18.575,61.562-21.654,83.89-11.699l-83.479,156.44l-125.957,72.721
			C100.597,288.894,156.803,191.535,226.37,151.37z"/>
	</g>
</g>
<g>
	<path class="st9" d="M226.443,203.103c44.642-25.774,80.954-5.088,81.099,46.216L145.87,342.661
		C145.725,291.357,181.802,228.877,226.443,203.103z"/>
</g>
<g>
	<polygon class="st1" points="378.567,209.138 378.582,214.156 74.583,389.67 74.568,384.652 	"/>
</g>
<g>
	<path class="st11" d="M226.533,288.6c7.119-4.11,12.903-0.814,12.926,7.366c0.023,8.18-5.723,18.141-12.842,22.251
		c-7.119,4.11-12.903,0.807-12.926-7.374C213.668,302.663,219.414,292.71,226.533,288.6z"/>
</g>
<g>
	<polygon class="st11" points="307.054,142.143 311.561,143.869 228.572,312.834 218.655,309.051 	"/>
</g>
<polygon class="st3" points="74.538,384.705 60.442,376.513 60.441,380.833 74.583,389.67 "/>
<polygon class="st14" points="88.746,376.466 74.512,368.228 60.442,376.513 74.538,384.705 "/>
</svg>
