<?xml version="1.0" encoding="utf-8"?>
<!-- Generator: Adobe Illustrator 22.1.0, SVG Export Plug-In . SVG Version: 6.00 Build 0)  -->
<svg version="1.1" id="Layer_1" xmlns="http://www.w3.org/2000/svg" xmlns:xlink="http://www.w3.org/1999/xlink" x="0px" y="0px"
	 viewBox="0 0 500 500" style="enable-background:new 0 0 500 500;" xml:space="preserve">
<style type="text/css">
	.st0{fill:#8EB021;}
	.st1{fill:#A5C63B;}
	.st2{fill:#C9DD89;}
	.st3{fill:#F8F9F9;}
	.st4{fill:#3D3D3D;}
	.st5{fill:#0F0F0F;}
	.st6{fill:#313131;}
	.st7{opacity:0.3;fill:#090909;enable-background:new    ;}
	.st8{fill:#2A2B2B;}
	.st9{fill:#ECF0F1;}
	.st10{fill:#BDC3C7;}
	.st11{fill:#FFFFFF;}
</style>
<title>spot</title>
<g>
	<polygon class="st0" points="260.7999878,213.5 282,201.1999969 282.1000061,174.8000031 260.8999939,187.1000061 	"/>
	<polygon class="st1" points="156.2000122,25.7999992 155.8999939,126.4000015 237.8999939,173.8000031 260.7999878,213.5 
		260.8999939,187.1000061 283.8999939,200.3000031 284.1999817,99.6999969 	"/>
	<polygon class="st0" points="283.8999939,200.3000031 305.1000061,188.1000061 305.2999878,87.4000015 284.1999817,99.6999969 	"/>
	<polygon class="st2" points="284.1999817,99.6999969 305.2999878,87.4000015 177.2999878,13.5 156.2000122,25.7999992 	"/>
	<g>
		<polygon class="st3" points="284.1999817,326.2000122 305.2999878,313.8999939 177.2999878,240 156.2000122,252.3000031 		"/>
	</g>
</g>
<polygon class="st3" points="26.8999882,323.1000061 144.6000061,253.8999939 427.6999817,417.2999878 310,486.5 "/>
<polygon class="st4" points="116.7999802,247.3999939 14.1000004,307 297.1999817,470.5 399.8999939,410.7999878 "/>
<polygon class="st5" points="297.1999817,470.5 297.1999817,478.6000061 399.8999939,419 399.8999939,410.7999878 "/>
<polygon class="st6" points="14.1000004,307 14.1000004,315.2000122 297.1999817,478.6000061 297.1999817,470.5 "/>
<path class="st7" d="M100.4999924,276.8999939l15.3999939-9l15.5000076,9l-15.4000015,9L100.4999924,276.8999939z
	 M135.8999939,297.3999939l15.3999939-9l-15.5-9l-15.4000015,9L135.8999939,297.3999939z M155.7999878,308.8999939l15.3999939-9
	l-15.5-9l-15.3999939,9L155.7999878,308.8999939z M175.7000122,302.3999939l-15.3999939,9l15.5,9l15.3999939-9
	L175.7000122,302.3999939z M195.6000061,313.8999939l-15.3999939,9l15.5,9l15.3999939-9L195.6000061,313.8999939z
	 M215.6000061,325.3999939l-15.3999939,9l15.5,9l15.3999939-9L215.6000061,325.3999939z M235.5,336.8999939l-15.3999939,9l15.5,9
	l15.3999939-9L235.5,336.8999939z M255.3999939,348.3999939l-15.3999939,9l15.5,9l15.3999939-9L255.3999939,348.3999939z
	 M275.3999939,359.8999939l-15.3999939,9l15.5,9l15.3999939-9L275.3999939,359.8999939z M295.3999939,389.5l15.3999939-9l-15.5-9
	l-15.3999939,9L295.3999939,389.5z M315.2999878,401l15.3999939-9l-15.5-9l-15.3999939,9L315.2999878,401z M335.1999817,412.5
	l15.3999939-9l-15.5-9l-15.3999939,9L335.1999817,412.5z M339.6000061,415l15.5,9L370.5,415l-15.5-9L339.6000061,415z
	 M96.3999863,297.2000122l15.3999939-9l-15.5-9l-15.3999939,9L96.3999863,297.2000122z M116.2999802,308.7999878l15.4000015-9
	l-15.5000076-9l-15.3999939,9L116.2999802,308.7999878z M136.2999878,320.2999878l15.3999939-9l-15.5-9l-15.4000015,9
	L136.2999878,320.2999878z M156.2000122,313.7999878l-15.3999939,9l15.5,9l15.3999939-9L156.2000122,313.7999878z
	 M176.1000061,325.2999878l-15.3999939,9l15.5,9l15.3999939-9L176.1000061,325.2999878z M196,336.7999878l-15.3999939,9l15.5,9
	l15.3999939-9L196,336.7999878z M216,348.2999878l-15.3999939,9l15.5,9l15.3999939-9L216,348.2999878z M235.8999939,359.7999878
	l-15.3999939,9l15.5,9l15.3999939-9L235.8999939,359.7999878z M255.8000183,371.2999878l-15.3999939,9l15.4999847,9l15.3999786-9
	L255.8000183,371.2999878z M275.7999878,400.7999878l15.3999939-9l-15.5-9l-15.3999939,9L275.7999878,400.7999878z
	 M295.6999817,412.2999878l15.3999939-9l-15.5-9l-15.3999939,9L295.6999817,412.2999878z M315.6999817,423.7999878l15.3999939-9
	l-15.5-9l-15.3999939,9L315.6999817,423.7999878z M335.6000061,435.2999878l15.3999939-9l-15.5-9l-15.3999939,9
	L335.6000061,435.2999878z M76.8999863,308.6000061l15.3999939-9l-15.5-9l-15.3999939,9L76.8999863,308.6000061z
	 M96.7999802,320.1000061l15.3999939-9l-15.5-9l-15.3999939,9L96.7999802,320.1000061z M116.7000046,331.6000061l15.4000015-9
	l-15.5000076-9l-15.3999939,9L116.7000046,331.6000061z M136.6000061,325.1000061l-15.4000015,9l15.5000076,9l15.3999939-9
	L136.6000061,325.1000061z M156.5,336.6000061l-15.3999939,9l15.5,9l15.3999939-9L156.5,336.6000061z M176.5,348.1000061
	l-15.3999939,9l15.5,9l15.3999939-9L176.5,348.1000061z M196.3999939,359.6000061l-15.3999939,9l15.5,9l15.3999939-9
	L196.3999939,359.6000061z M216.3999939,371.2000122l-15.3999939,9l15.5,9l15.3999939-9L216.3999939,371.2000122z
	 M236.2999878,382.7000122l-15.3999939,9l15.5,9l15.4000092-9L236.2999878,382.7000122z M256.2999878,412.2000122l15.3999939-9
	l-15.5-9l-15.3999939,9L256.2999878,412.2000122z M276.1999817,423.7000122l15.3999939-9l-15.5-9l-15.3999939,9
	L276.1999817,423.7000122z M296.1000061,435.2000122l15.3999939-9l-15.5-9l-15.3999939,9L296.1000061,435.2000122z M316,446.7000122
	l15.3999939-9l-15.5-9l-15.3999939,9L316,446.7000122z M236.7000122,423.5l15.3999939-9l-135.1000061-78l-15.3999939,9
	L236.7000122,423.5z"/>
<g>
	<polygon class="st8" points="113.7999802,280.5 129.2000122,271.6000061 113.7000046,262.6000061 98.2999802,271.6000061 	"/>
	<polygon class="st5" points="113.7999802,280.5 113.7999802,284.6000061 129.2000122,275.7000122 129.2000122,271.6000061 	"/>
	<polygon class="st6" points="98.2999802,271.6000061 98.2999802,275.7000122 113.7999802,284.6000061 113.7999802,280.5 	"/>
</g>
<g>
	<polygon class="st8" points="133.7000122,292.1000061 149.2000122,283.1000061 133.6000061,274.1000061 118.2000046,283.1000061 	
		"/>
	<polygon class="st5" points="133.7000122,292.1000061 133.7000122,296.1000061 149.1000061,287.2000122 149.2000122,283.1000061 	
		"/>
	<polygon class="st6" points="118.2000046,283.1000061 118.2000046,287.2000122 133.7000122,296.1000061 133.7000122,292.1000061 	
		"/>
</g>
<g>
	<polygon class="st8" points="153.7000122,303.6000061 169.1000061,294.6000061 153.6000061,285.6000061 138.1000061,294.6000061 	
		"/>
	<polygon class="st5" points="153.7000122,303.6000061 153.6000061,307.6000061 169.1000061,298.7000122 169.1000061,294.6000061 	
		"/>
	<polygon class="st6" points="138.1000061,294.6000061 138.1000061,298.7000122 153.6000061,307.6000061 153.7000122,303.6000061 	
		"/>
</g>
<g>
	<polygon class="st8" points="173.5,297.1000061 158.1000061,306.1000061 173.6000061,315.1000061 189,306.1000061 	"/>
	<polygon class="st5" points="173.6000061,315.1000061 173.6000061,319.1000061 189,310.2000122 189,306.1000061 	"/>
	<polygon class="st6" points="158.1000061,306.1000061 158,310.2000122 173.6000061,319.1000061 173.6000061,315.1000061 	"/>
</g>
<g>
	<polygon class="st8" points="193.3999939,308.6000061 178,317.6000061 193.5,326.6000061 209,317.6000061 	"/>
	<polygon class="st5" points="193.5,326.6000061 193.5,330.6000061 209,321.7000122 209,317.6000061 	"/>
	<polygon class="st6" points="178,317.6000061 178,321.7000122 193.5,330.6000061 193.5,326.6000061 	"/>
</g>
<g>
	<polygon class="st8" points="213.3999939,320.1000061 197.8999939,329.1000061 213.5,338.1000061 228.8999939,329.1000061 	"/>
	<polygon class="st5" points="213.5,338.1000061 213.3999939,342.2000122 228.8999939,333.2000122 228.8999939,329.1000061 	"/>
	<polygon class="st6" points="197.8999939,329.1000061 197.8999939,333.2000122 213.3999939,342.2000122 213.5,338.1000061 	"/>
</g>
<g>
	<polygon class="st8" points="233.2999878,331.6000061 217.8999939,340.6000061 233.3999939,349.6000061 248.8000031,340.6000061 	
		"/>
	<polygon class="st5" points="233.3999939,349.6000061 233.3999939,353.7000122 248.8000031,344.7000122 248.8000031,340.6000061 	
		"/>
	<polygon class="st6" points="217.8999939,340.6000061 217.7999878,344.7000122 233.3999939,353.7000122 233.3999939,349.6000061 	
		"/>
</g>
<g>
	<polygon class="st8" points="253.1999969,343.2000122 237.7999878,352.1000061 253.3000031,361.1000061 268.7999878,352.1000061 	
		"/>
	<polygon class="st5" points="253.3000031,361.1000061 253.3000031,365.2000122 268.6999817,356.2000122 268.7999878,352.1000061 	
		"/>
	<polygon class="st6" points="237.7999878,352.1000061 237.7999878,356.2000122 253.3000031,365.2000122 253.3000031,361.1000061 	
		"/>
</g>
<g>
	<polygon class="st8" points="273.1000061,354.7000122 257.6999817,363.6000061 273.1999817,372.6000061 288.6999817,363.6000061 	
		"/>
	<polygon class="st5" points="273.1999817,372.6000061 273.1999817,376.7000122 288.6999817,367.7000122 288.6999817,363.6000061 	
		"/>
	<polygon class="st6" points="257.6999817,363.6000061 257.6999817,367.7000122 273.1999817,376.7000122 273.1999817,372.6000061 	
		"/>
</g>
<g>
	<polygon class="st8" points="293.1999817,384.1000061 308.6000061,375.1000061 293.1000061,366.2000122 277.6000061,375.1000061 	
		"/>
	<polygon class="st5" points="293.1999817,384.1000061 293.1999817,388.2000122 308.6000061,379.2000122 308.6000061,375.1000061 	
		"/>
	<polygon class="st6" points="277.6000061,375.1000061 277.6000061,379.2000122 293.1999817,388.2000122 293.1999817,384.1000061 	
		"/>
</g>
<g>
	<polygon class="st8" points="313.1000061,395.6000061 328.5,386.6000061 313,377.7000122 297.6000061,386.6000061 	"/>
	<polygon class="st5" points="313.1000061,395.6000061 313.1000061,399.7000122 328.5,390.7000122 328.5,386.6000061 	"/>
	<polygon class="st6" points="297.6000061,386.6000061 297.6000061,390.7000122 313.1000061,399.7000122 313.1000061,395.6000061 	
		"/>
</g>
<g>
	<polygon class="st8" points="333,407.1000061 348.5,398.2000122 332.8999939,389.2000122 317.5,398.2000122 	"/>
	<polygon class="st5" points="333,407.1000061 333,411.2000122 348.5,402.2000122 348.5,398.2000122 	"/>
	<polygon class="st6" points="317.5,398.2000122 317.5,402.2000122 333,411.2000122 333,407.1000061 	"/>
</g>
<g>
	<polygon class="st8" points="337.3999939,409.7000122 353,418.6000061 368.3999939,409.7000122 352.8999939,400.7000122 	"/>
	<polygon class="st5" points="353,418.6000061 352.8999939,422.7000122 368.3999939,413.7000122 368.3999939,409.7000122 	"/>
	<polygon class="st6" points="337.3999939,409.7000122 337.3999939,413.7000122 352.8999939,422.7000122 353,418.6000061 	"/>
</g>
<g>
	<polygon class="st8" points="94.2999802,291.8999939 109.7000046,282.8999939 94.2000046,274 78.7000046,282.8999939 	"/>
	<polygon class="st5" points="94.2999802,291.8999939 94.2000046,296 109.7000046,287 109.7000046,282.8999939 	"/>
	<polygon class="st6" points="78.7000046,282.8999939 78.7000046,287 94.2000046,296 94.2999802,291.8999939 	"/>
</g>
<g>
	<polygon class="st8" points="114.2000046,303.3999939 129.6000061,294.3999939 114.0999985,285.5 98.7000046,294.3999939 	"/>
	<polygon class="st5" points="114.2000046,303.3999939 114.2000046,307.5 129.6000061,298.5 129.6000061,294.3999939 	"/>
	<polygon class="st6" points="98.7000046,294.3999939 98.5999985,298.5 114.2000046,307.5 114.2000046,303.3999939 	"/>
</g>
<g>
	<polygon class="st8" points="134.1000061,314.8999939 149.5,305.8999939 134,297 118.5999985,305.8999939 	"/>
	<polygon class="st5" points="134.1000061,314.8999939 134.1000061,319 149.5,310 149.5,305.8999939 	"/>
	<polygon class="st6" points="118.5999985,305.8999939 118.5999985,310 134.1000061,319 134.1000061,314.8999939 	"/>
</g>
<g>
	<polygon class="st8" points="154,308.5 138.5,317.5 154,326.3999939 169.5,317.5 	"/>
	<polygon class="st5" points="154,326.3999939 154,330.5 169.5,321.5 169.5,317.5 	"/>
	<polygon class="st6" points="138.5,317.5 138.5,321.5 154,330.5 154,326.3999939 	"/>
</g>
<g>
	<polygon class="st8" points="173.8999939,320 158.5,329 174,337.8999939 189.3999939,329 	"/>
	<polygon class="st5" points="174,337.8999939 174,342 189.3999939,333 189.3999939,329 	"/>
	<polygon class="st6" points="158.5,329 158.3999939,333 174,342 174,337.8999939 	"/>
</g>
<g>
	<polygon class="st8" points="193.7999878,331.5 178.3999939,340.5 193.8999939,349.3999939 209.2999878,340.5 	"/>
	<polygon class="st5" points="193.8999939,349.3999939 193.8999939,353.5 209.2999878,344.5 209.2999878,340.5 	"/>
	<polygon class="st6" points="178.3999939,340.5 178.3999939,344.5 193.8999939,353.5 193.8999939,349.3999939 	"/>
</g>
<g>
	<polygon class="st8" points="213.7000122,343 198.2999878,352 213.7999878,360.8999939 229.2999878,352 	"/>
	<polygon class="st5" points="213.7999878,360.8999939 213.7999878,365 229.2999878,356.1000061 229.2999878,352 	"/>
	<polygon class="st6" points="198.2999878,352 198.2999878,356.1000061 213.7999878,365 213.7999878,360.8999939 	"/>
</g>
<g>
	<polygon class="st8" points="233.7000122,354.5 218.2000122,363.5 233.7999878,372.3999939 249.1999969,363.5 	"/>
	<polygon class="st5" points="233.7999878,372.3999939 233.7999878,376.5 249.1999969,367.6000061 249.1999969,363.5 	"/>
	<polygon class="st6" points="218.2000122,363.5 218.2000122,367.6000061 233.7999878,376.5 233.7999878,372.3999939 	"/>
</g>
<g>
	<polygon class="st8" points="253.6000061,366 238.2000122,375 253.6999969,384 269.1000061,375 	"/>
	<polygon class="st5" points="253.6999969,384 253.6999969,388 269.1000061,379.1000061 269.1000061,375 	"/>
	<polygon class="st6" points="238.2000122,375 238.2000122,379.1000061 253.6999969,388 253.6999969,384 	"/>
</g>
<g>
	<polygon class="st8" points="273.6000061,395.5 289.1000061,386.5 273.5,377.5 258.1000061,386.5 	"/>
	<polygon class="st5" points="273.6000061,395.5 273.6000061,399.5 289.1000061,390.6000061 289.1000061,386.5 	"/>
	<polygon class="st6" points="258.1000061,386.5 258.1000061,390.6000061 273.6000061,399.5 273.6000061,395.5 	"/>
</g>
<g>
	<polygon class="st8" points="293.6000061,407 309,398 293.5,389 278,398 	"/>
	<polygon class="st5" points="293.6000061,407 293.6000061,411 309,402.1000061 309,398 	"/>
	<polygon class="st6" points="278,398 278,402.1000061 293.6000061,411 293.6000061,407 	"/>
</g>
<g>
	<polygon class="st8" points="313.5,418.5 328.8999939,409.5 313.3999939,400.5 298,409.5 	"/>
	<polygon class="st5" points="313.5,418.5 313.5,422.6000061 328.8999939,413.6000061 328.8999939,409.5 	"/>
	<polygon class="st6" points="298,409.5 297.8999939,413.6000061 313.5,422.6000061 313.5,418.5 	"/>
</g>
<g>
	<polygon class="st8" points="333.3999939,430 348.8999939,421 333.2999878,412 317.8999939,421 	"/>
	<polygon class="st5" points="333.3999939,430 333.3999939,434.1000061 348.7999878,425.1000061 348.8999939,421 	"/>
	<polygon class="st6" points="317.8999939,421 317.8999939,425.1000061 333.3999939,434.1000061 333.3999939,430 	"/>
</g>
<g>
	<polygon class="st8" points="74.7000046,303.2999878 90.0999985,294.2999878 74.5999985,285.2999878 59.2000046,294.2999878 	"/>
	<polygon class="st5" points="74.7000046,303.2999878 74.7000046,307.2999878 90.0999985,298.3999939 90.0999985,294.2999878 	"/>
	<polygon class="st6" points="59.2000046,294.2999878 59.2000046,298.3999939 74.7000046,307.2999878 74.7000046,303.2999878 	"/>
</g>
<g>
	<polygon class="st8" points="94.5999985,314.7999878 110.0999985,305.7999878 94.4999924,296.7999878 79.0999985,305.7999878 	"/>
	<polygon class="st5" points="94.5999985,314.7999878 94.5999985,318.7999878 110.0999985,309.8999939 110.0999985,305.7999878 	"/>
	<polygon class="st6" points="79.0999985,305.7999878 79.0999985,309.8999939 94.5999985,318.7999878 94.5999985,314.7999878 	"/>
</g>
<g>
	<polygon class="st8" points="114.5999985,326.2999878 130,317.2999878 114.4999924,308.2999878 98.9999924,317.2999878 	"/>
	<polygon class="st5" points="114.5999985,326.2999878 114.5999985,330.3999939 130,321.3999939 130,317.2999878 	"/>
	<polygon class="st6" points="98.9999924,317.2999878 98.9999924,321.3999939 114.5999985,330.3999939 114.5999985,326.2999878 	"/>
</g>
<g>
	<polygon class="st8" points="134.3999939,319.7999878 118.9999924,328.7999878 134.5,337.7999878 149.8999939,328.7999878 	"/>
	<polygon class="st5" points="134.5,337.7999878 134.5,341.8999939 149.8999939,332.8999939 149.8999939,328.7999878 	"/>
	<polygon class="st6" points="118.9999924,328.7999878 118.9999924,332.8999939 134.5,341.8999939 134.5,337.7999878 	"/>
</g>
<g>
	<polygon class="st8" points="154.2999878,331.3999939 138.8999939,340.2999878 154.3999939,349.2999878 169.8999939,340.2999878 	
		"/>
	<polygon class="st5" points="154.3999939,349.2999878 154.3999939,353.3999939 169.8999939,344.3999939 169.8999939,340.2999878 	
		"/>
	<polygon class="st6" points="138.8999939,340.2999878 138.8999939,344.3999939 154.3999939,353.3999939 154.3999939,349.2999878 	
		"/>
</g>
<g>
	<polygon class="st8" points="174.2999878,342.8999939 158.7999878,351.7999878 174.3999939,360.7999878 189.7999878,351.7999878 	
		"/>
	<polygon class="st5" points="174.3999939,360.7999878 174.3999939,364.8999939 189.7999878,355.8999939 189.7999878,351.7999878 	
		"/>
	<polygon class="st6" points="158.7999878,351.7999878 158.7999878,355.8999939 174.3999939,364.8999939 174.3999939,360.7999878 	
		"/>
</g>
<g>
	<polygon class="st8" points="194.2000122,354.3999939 178.7999878,363.2999878 194.2999878,372.2999878 209.7000122,363.2999878 	
		"/>
	<polygon class="st5" points="194.2999878,372.2999878 194.2999878,376.3999939 209.7000122,367.3999939 209.7000122,363.2999878 	
		"/>
	<polygon class="st6" points="178.7999878,363.2999878 178.7999878,367.3999939 194.2999878,376.3999939 194.2999878,372.2999878 	
		"/>
</g>
<g>
	<polygon class="st8" points="214.1000061,365.8999939 198.7000122,374.7999878 214.2000122,383.7999878 229.6000061,374.7999878 	
		"/>
	<polygon class="st5" points="214.2000122,383.7999878 214.2000122,387.8999939 229.6000061,378.8999939 229.6000061,374.7999878 	
		"/>
	<polygon class="st6" points="198.7000122,374.7999878 198.7000122,378.8999939 214.2000122,387.8999939 214.2000122,383.7999878 	
		"/>
</g>
<g>
	<polygon class="st8" points="234,377.3999939 218.6000061,386.2999878 234.1000061,395.2999878 249.6000061,386.2999878 	"/>
	<polygon class="st5" points="234.1000061,395.2999878 234.1000061,399.3999939 249.6000061,390.3999939 249.6000061,386.2999878 	
		"/>
	<polygon class="st6" points="218.6000061,386.2999878 218.6000061,390.3999939 234.1000061,399.3999939 234.1000061,395.2999878 	
		"/>
</g>
<g>
	<polygon class="st8" points="254.1000061,406.7999878 269.5,397.8999939 254,388.8999939 238.5,397.8999939 	"/>
	<polygon class="st5" points="254.1000061,406.7999878 254.1000061,410.8999939 269.5,401.8999939 269.5,397.8999939 	"/>
	<polygon class="st6" points="238.5,397.8999939 238.5,401.8999939 254.1000061,410.8999939 254.1000061,406.7999878 	"/>
</g>
<g>
	<polygon class="st8" points="274,418.2999878 289.3999939,409.3999939 273.8999939,400.3999939 258.5,409.3999939 	"/>
	<polygon class="st5" points="274,418.2999878 274,422.3999939 289.3999939,413.3999939 289.3999939,409.3999939 	"/>
	<polygon class="st6" points="258.5,409.3999939 258.5,413.3999939 274,422.3999939 274,418.2999878 	"/>
</g>
<g>
	<polygon class="st8" points="293.8999939,429.7999878 309.3999939,420.8999939 293.7999878,411.8999939 278.3999939,420.8999939 	
		"/>
	<polygon class="st5" points="293.8999939,429.7999878 293.8999939,433.8999939 309.3999939,424.8999939 309.3999939,420.8999939 	
		"/>
	<polygon class="st6" points="278.3999939,420.8999939 278.3999939,424.8999939 293.8999939,433.8999939 293.8999939,429.7999878 	
		"/>
</g>
<g>
	<polygon class="st8" points="313.8999939,441.2999878 329.2999878,432.3999939 313.7999878,423.3999939 298.2999878,432.3999939 	
		"/>
	<polygon class="st5" points="313.8999939,441.2999878 313.8999939,445.3999939 329.2999878,436.3999939 329.2999878,432.3999939 	
		"/>
	<polygon class="st6" points="298.2999878,432.3999939 298.2999878,436.3999939 313.8999939,445.3999939 313.8999939,441.2999878 	
		"/>
</g>
<g>
	<polygon class="st8" points="234.5,418.2000122 250,409.2000122 114.8999863,331.2000122 99.3999863,340.2000122 	"/>
	<polygon class="st5" points="234.5,418.2000122 234.5,422.2999878 250,413.2999878 250,409.2000122 	"/>
	<polygon class="st6" points="99.3999863,340.2000122 99.3999863,344.2999878 234.5,422.2999878 234.5,418.2000122 	"/>
</g>
<g>
	<g>
		<polygon class="st3" points="464.7999878,430.7000122 485.8999939,418.1000061 315.2999878,319.6000061 294.2999878,332.2000122 
					"/>
	</g>
	<polygon class="st9" points="294.2999878,143 293.8999939,277.1000061 324.6000061,294.7999878 324.5,330 355.1999817,312.5 
		464.5,375.6000061 464.7999878,241.3999939 	"/>
	<polygon class="st10" points="464.5,375.6000061 485.5,363 485.8999939,228.8999939 464.7999878,241.3999939 	"/>
	<polygon class="st11" points="464.7999878,241.3999939 485.8999939,228.8999939 315.2999878,130.3999939 294.2999878,143 	"/>
</g>
</svg>
