<svg id="Layer_1" data-name="Layer 1" xmlns="http://www.w3.org/2000/svg" xmlns:xlink="http://www.w3.org/1999/xlink" viewBox="0 0 500 500"><defs><style>.cls-1{fill:none;}.cls-2{fill:#1a73a0;opacity:0.3;}.cls-3{isolation:isolate;}.cls-4{fill:#4b87af;}.cls-5{fill:#67a0ce;}.cls-6{fill:#d6e3f4;}.cls-7{fill:#b1cdeb;}.cls-8{clip-path:url(#clip-path);}.cls-9{fill:#69a7db;}.cls-10{clip-path:url(#clip-path-2);}</style><clipPath id="clip-path"><path class="cls-1" d="M329.49,261.67,367,283.45c4.41,2.56,6.89,8.25,6.54,15.93L336,277.6C336.37,269.92,333.89,264.23,329.49,261.67Z"/></clipPath><clipPath id="clip-path-2"><path class="cls-1" d="M181.4,448.3l31.44,18.27c3.7,2.15,5.78,6.92,5.48,13.37l-31.44-18.28C187.17,455.22,185.09,450.44,181.4,448.3Z"/></clipPath></defs><title>spot</title><polygon class="cls-2" points="41.25 417.46 231.59 307.57 265.51 327.28 75.17 437.17 41.25 417.46"/><g class="cls-3"><polygon class="cls-4" points="118.13 334.85 84.21 315.13 18.08 258.26 52 277.98 118.13 334.85"/><polygon class="cls-5" points="170.19 38.46 136.27 18.75 231.59 16.46 265.51 36.17 170.19 38.46"/><polygon class="cls-6" points="170.19 38.46 265.51 36.17 289.35 140.94 223.76 273.86 118.13 334.85 52 277.98 75.17 146.07 170.19 38.46"/><polygon class="cls-5" points="52 277.98 18.08 258.26 41.25 126.35 75.17 146.07 52 277.98"/><polygon class="cls-7" points="75.17 146.07 41.25 126.35 136.27 18.75 170.19 38.46 75.17 146.07"/></g><g class="cls-3"><g class="cls-3"><g class="cls-8"><path class="cls-9" d="M373.5,299.38,336,277.6c.35-7.68-2.13-13.37-6.53-15.93L367,283.45c4.41,2.56,6.89,8.25,6.54,15.93"/></g></g><path class="cls-9" d="M479.89,109c.46-.17.93-.34,1.41-.54h0l.1,0c.51-.22,1-.45,1.54-.71l.43-.21c.56-.28,1.12-.58,1.69-.91L447.61,84.78c-.57.33-1.14.63-1.69.91l-.43.21c-.52.26-1,.49-1.55.71l-.12,0c-.47.2-.94.37-1.41.54l-.41.13q-.5.17-1,.3a5.62,5.62,0,0,1-.55.15l-.54.13-.61.13-.53.1-.41.06a15.94,15.94,0,0,1-1.64.16h-.08c-.46,0-.9,0-1.34,0l-.36,0c-.38,0-.75-.07-1.11-.13l-.17,0a11.29,11.29,0,0,1-1.15-.27l-.32-.1q-.39-.12-.78-.27l-.34-.14c-.27-.12-.52-.25-.78-.38l-.3-.16h0l37.48,21.78.12.07.18.09c.25.13.51.26.78.38l.15.07.19.07c.25.1.52.19.78.27l.21.08.11,0a10.7,10.7,0,0,0,1.15.27h0l.14,0c.36.06.73.1,1.1.13l.18,0h.18c.44,0,.89,0,1.35,0h.07a15.86,15.86,0,0,0,1.65-.16l.19,0,.22,0,.53-.1.6-.13.55-.13.33-.08.22-.07,1-.3Z"/><path class="cls-5" d="M423.85,164.34c.06-1,.1-2,.1-2.93,0-10.64-3.81-18.14-9.88-21.67L376.59,118c6.08,3.53,9.85,11,9.88,21.67,0,1,0,2-.1,2.93l0,.61c-.07,1-.16,1.93-.29,2.9,0,.27-.07.54-.11.8-.07.46-.13.91-.21,1.37-.05.3-.1.61-.16.92s-.16.88-.25,1.32-.15.7-.23,1.06-.13.59-.2.89l-.3,1.16c-.07.29-.14.58-.22.87s-.13.46-.2.68c-.27,1-.56,1.94-.88,2.9,0,.09-.05.17-.08.25-.32,1-.66,1.88-1,2.82l-.27.7c-.31.79-.63,1.58-1,2.36,0,.13-.1.26-.16.38-.38.88-.78,1.74-1.19,2.61l-.33.67c-.33.68-.68,1.37-1,2-.1.21-.21.42-.32.62-.45.85-.92,1.69-1.41,2.53l-.27.46q-.64,1.1-1.32,2.16l-.39.62c-.56.86-1.13,1.72-1.72,2.56l-.27.38c-.62.87-1.25,1.73-1.89,2.56l-.25.33c-.81,1-1.64,2-2.5,3l-.32.38c-.55.63-1.11,1.25-1.67,1.85h0c-.57.61-1.15,1.19-1.73,1.77l-1.09,1.06-.34.32c-.49.46-1,.91-1.49,1.35l-.38.33-1.14,1-.55.44-1,.79-.6.45-1,.72L356,196c-.36.25-.73.49-1.09.72l-.52.34c-.54.34-1.07.67-1.62,1-.72.42-1.43.79-2.13,1.15l-.61.3c-.54.26-1.08.5-1.61.73l-.57.25c-.49.2-1,.38-1.46.56l-.4.14c-.61.21-1.22.4-1.82.56l-1.1.28-.45.11c-.52.11-1,.2-1.53.28H341c-.44.07-.87.12-1.31.16l-.45,0-1,.06h-.43c-.34,0-.67,0-1,0l-.34,0c-.13,0-.24,0-.36,0-.53,0-1-.1-1.54-.18l-.47-.07c-.58-.11-1.15-.24-1.7-.4h-.06c-.52-.16-1-.35-1.54-.55l-.43-.18c-.43-.19-.84-.39-1.25-.61l-.4-.22h0l37.48,21.78.19.11.22.11c.41.22.82.42,1.25.61l.23.11.2.07c.5.2,1,.39,1.54.55h.06a15.94,15.94,0,0,0,1.69.39l.2,0c.09,0,.19,0,.27,0,.51.08,1,.14,1.54.18l.24,0h.12l.34,0c.33,0,.67,0,1,0h.78l.62-.05.46,0c.43,0,.87-.09,1.31-.16h.13c.5-.08,1-.18,1.52-.29l.45-.11c.34-.07.67-.15,1-.24l.08,0c.61-.16,1.21-.35,1.83-.56l.39-.14c.49-.18,1-.36,1.47-.56l.2-.08.37-.17c.53-.23,1.07-.47,1.6-.73l.62-.3c.7-.36,1.41-.73,2.13-1.15.54-.31,1.08-.64,1.62-1l.52-.34q.54-.34,1.08-.72l.6-.42,1-.72.6-.46c.34-.25.67-.51,1-.78l.56-.44,1.13-1,.39-.33c.5-.44,1-.89,1.49-1.35l.34-.33c.32-.3.63-.59.94-.9l.15-.15c.58-.58,1.16-1.16,1.72-1.77h0c.57-.6,1.13-1.22,1.68-1.85l.14-.16.18-.22c.86-1,1.69-2,2.5-3l.07-.08c.06-.07.11-.16.17-.23.65-.84,1.28-1.7,1.9-2.57l.19-.26.08-.12c.59-.84,1.16-1.7,1.71-2.56l.17-.25c.08-.12.15-.25.23-.38.45-.71.89-1.42,1.32-2.15.06-.11.13-.22.2-.33s.05-.09.07-.13c.49-.84.95-1.68,1.41-2.52a2.12,2.12,0,0,1,.11-.21c.08-.14.14-.28.21-.42.36-.68.7-1.36,1-2l.21-.42.12-.25c.41-.87.81-1.73,1.19-2.61,0,0,0-.05,0-.08l.12-.3c.34-.78.66-1.57,1-2.36.05-.13.11-.25.16-.38l.12-.32c.35-.94.69-1.87,1-2.81l0-.07.06-.19c.31-1,.61-1.93.88-2.89,0-.13.08-.25.11-.37l.09-.32c.07-.29.15-.58.22-.87s.2-.78.29-1.17l.21-.88c0-.21.1-.42.14-.63s.05-.29.08-.44c.09-.43.18-.87.26-1.31s.11-.62.16-.92c.08-.46.14-.91.21-1.36,0-.22.07-.44.09-.65,0-.06,0-.11,0-.17.12-1,.22-1.93.28-2.89C423.83,164.75,423.84,164.54,423.85,164.34Z"/><path class="cls-9" d="M318.43,268.62l0-.79c0-.37,0-.74,0-1.11s0-.52,0-.78,0-.71,0-1.06,0-.51-.05-.76-.07-.69-.12-1-.06-.48-.1-.72-.12-.67-.19-1-.09-.43-.14-.64q-.14-.54-.3-1.05c-.05-.17-.09-.35-.15-.51q-.25-.76-.57-1.47a12.11,12.11,0,0,0-4.88-5.61l-37.47-21.78a12.1,12.1,0,0,1,4.87,5.61c.21.47.4,1,.57,1.46.06.17.1.35.16.52.1.35.21.69.29,1s.1.43.14.64.14.67.2,1l.09.72q.07.5.12,1c0,.25,0,.5.05.76s0,.7,0,1.06,0,.52,0,.78l0,1.11c0,.26,0,.53,0,.79s-.07.79-.11,1.18,0,.51-.08.77c-.07.62-.16,1.23-.27,1.86,0,.07,0,.14,0,.21-.1.53-.21,1.07-.33,1.61s-.3,1.3-.47,1.95c0,.15-.08.31-.12.47-.21.73-.43,1.46-.68,2.2v.05a.14.14,0,0,0,0,.06c-.24.7-.49,1.4-.76,2.11a3.65,3.65,0,0,0-.14.35c-.24.58-.47,1.17-.73,1.76-.09.21-.2.43-.3.65-.21.47-.43.95-.66,1.42-.12.25-.26.51-.39.76-.22.43-.44.86-.67,1.29l-.45.81q-.47.82-1,1.65l37.48,21.78c.19-.32.39-.64.58-1s.25-.45.38-.68l.45-.81c.07-.13.15-.26.22-.4.16-.29.3-.59.45-.89l.39-.76.12-.25c.19-.39.36-.78.54-1.17l.3-.65a.61.61,0,0,0,.05-.12c.24-.55.46-1.09.67-1.64l.15-.35v0c.26-.69.51-1.39.74-2.08l0-.06h0v-.05c.25-.74.47-1.47.68-2.2a.24.24,0,0,1,0-.08l.09-.39q.27-1,.48-1.95c0-.08,0-.17.07-.26.09-.45.18-.9.26-1.35,0-.07,0-.14,0-.21.09-.55.18-1.1.25-1.64,0-.07,0-.14,0-.22,0-.26.05-.51.08-.77S318.4,269,318.43,268.62Z"/><path class="cls-9" d="M431.09,49.43,407.56,36.22c-.25.46-.5.92-.77,1.37s-.63,1-1,1.57l-.21.33c-.29.44-.59.88-.89,1.31l-.33.48c-.37.52-.75,1-1.14,1.54-.06.07-.11.15-.16.22-.54.69-1.09,1.36-1.66,2l-.31.36c-.28.33-.57.64-.86,1l-.34.38q-.62.65-1.23,1.26s-.07.06-.1.1c-.58.57-1.16,1.11-1.76,1.64l-.25.22c-.58.52-1.18,1-1.78,1.48l-.33.26c-.6.46-1.2.9-1.8,1.31l-.29.19c-.63.42-1.26.82-1.89,1.19s-1,.53-1.43.77l-.33.16c-.46.23-.93.44-1.39.64l-.26.1-.88.33-.39.13-.75.23-.35.1c-.51.13-1,.24-1.51.32-.24,0-.49.08-.72.1s-.66.06-1,.07-.87,0-1.29,0l-.33,0L379,57.2l-.3-.05c-.37-.07-.74-.15-1.1-.25l-.18-.06c-.3-.09-.59-.2-.88-.31l-.3-.13a8.86,8.86,0,0,1-.82-.4l-.27-.14L412.6,77.64l.12.07.15.07a8.86,8.86,0,0,0,.82.4l.15.07.15.06c.29.11.58.22.88.31l.14,0h0c.36.1.73.18,1.1.25l.1,0,.2,0c.3,0,.61.08.92.1l.21,0h.13c.42,0,.84,0,1.28,0H419c.3,0,.61,0,.92-.07l.62-.08.11,0c.49-.08,1-.19,1.51-.32a.5.5,0,0,1,.13,0l.22-.07.75-.23.39-.13c.29-.1.59-.22.88-.34l.21-.08h0c.47-.2.93-.41,1.4-.64l.33-.16c.47-.24.95-.5,1.43-.77s1.26-.77,1.89-1.19l.29-.19c.6-.41,1.2-.85,1.79-1.31l.34-.26c.6-.47,1.19-1,1.78-1.48l.25-.22c.59-.53,1.18-1.08,1.76-1.65l.07-.06,0,0,1.23-1.26.34-.38c.29-.31.58-.62.86-1l.15-.17c.06-.06.11-.13.16-.19q.85-1,1.65-2l0,0,.13-.17c.39-.5.77-1,1.14-1.54l.18-.25.15-.23c.3-.43.6-.87.88-1.31l.18-.26a.25.25,0,0,1,0-.07c.33-.52.65-1,1-1.57l0,0c.26-.44.5-.88.74-1.32l23.52,13.21Z"/><polygon class="cls-7" points="296.44 253.47 258.97 231.69 257.59 194.49 295.07 216.27 296.44 253.47"/><polygon class="cls-7" points="373.63 80.91 336.15 59.13 368.53 40.44 406.01 62.22 373.63 80.91"/><path class="cls-9" d="M318.77,177.72v-.59c0-.39,0-.78,0-1.16l0-.59c0-.4-.06-.79-.1-1.18,0-.16,0-.31,0-.47-.06-.53-.14-1-.24-1.55,0-.08,0-.16-.05-.24-.09-.42-.18-.83-.29-1.24l-.14-.47c-.1-.32-.2-.63-.31-.94-.06-.16-.11-.32-.17-.47-.13-.31-.26-.62-.39-.91l-.18-.38a13.28,13.28,0,0,0-.65-1.18l-.07-.1c-.22-.34-.45-.66-.69-1a4,4,0,0,0-.26-.32c-.19-.23-.39-.45-.59-.66l-.32-.32c-.21-.2-.44-.39-.66-.58l-.31-.25a10.64,10.64,0,0,0-1-.7l-37.48-21.78a9.58,9.58,0,0,1,1.05.7l.31.25c.23.19.45.38.66.58s.22.21.32.32.4.43.59.66a4,4,0,0,1,.26.32,11.3,11.3,0,0,1,.69,1,.86.86,0,0,1,.07.1,13.28,13.28,0,0,1,.65,1.18l.18.38c.13.29.27.6.39.91.06.15.12.31.17.47.11.31.22.62.31.94.05.16.1.31.14.47.11.41.21.82.29,1.25a1.89,1.89,0,0,1,.05.23q.15.75.24,1.56c0,.15,0,.3.05.46,0,.39.07.78.09,1.18l0,.59c0,.38,0,.77,0,1.16v.59c0,.47,0,.94-.07,1.43,0,.11,0,.23,0,.35-.05.6-.12,1.22-.2,1.84,0,.15,0,.3-.07.44-.06.48-.14,1-.23,1.44l-.12.61c-.07.34-.15.69-.23,1-.11.5-.23,1-.37,1.52s-.24.93-.38,1.4-.38,1.18-.58,1.77c-.1.3-.21.6-.32.89s-.3.81-.46,1.21-.22.54-.34.81c-.17.42-.36.84-.55,1.26-.11.24-.22.49-.34.74-.21.45-.44.91-.67,1.36-.11.2-.21.41-.31.61-.33.61-.67,1.23-1,1.83l-.06.12c-.39.65-.78,1.3-1.19,1.94-.2.31-.42.62-.63.93s-.45.68-.68,1c-.48.68-1,1.34-1.47,2l-.14.18c-.52.66-1.06,1.31-1.61,2-.29.34-.58.68-.88,1l-.48.53c-.45.48-.9.95-1.36,1.41a1.85,1.85,0,0,0-.14.14l-.11.1q-.88.87-1.8,1.68l-.62.53c-.46.39-.91.77-1.38,1.14l-.7.55c-.47.35-.95.7-1.43,1l-.65.45c-.69.46-1.38.9-2.09,1.31l37.48,21.78c.7-.41,1.4-.85,2.09-1.31l.65-.45c.48-.33.95-.68,1.42-1,.24-.17.48-.36.71-.54.46-.37.92-.75,1.37-1.14l.63-.53q.92-.81,1.8-1.68l.09-.09h0l.14-.15c.46-.45.91-.92,1.35-1.4.17-.17.32-.36.49-.53l.68-.76.2-.25c.55-.64,1.09-1.29,1.61-1.95l.12-.15,0,0c.5-.65,1-1.31,1.47-2l0-.06c.22-.31.42-.62.63-.94s.43-.62.64-.94l0-.07q.59-.91,1.14-1.86h0a.75.75,0,0,0,.07-.12c.33-.56.64-1.13.95-1.7a.54.54,0,0,1,.07-.13l.3-.61.55-1.07a2.55,2.55,0,0,1,.13-.29c.12-.25.23-.5.34-.74s.25-.53.36-.8.13-.31.19-.46l.33-.81.25-.6c.08-.2.14-.41.22-.61s.21-.59.32-.89c.05-.15.11-.31.17-.47.14-.43.28-.87.41-1.3s.17-.59.25-.88.08-.35.13-.52c.13-.51.26-1,.37-1.52,0-.17.09-.34.13-.51s.06-.35.1-.53l.12-.61c.09-.48.16-1,.23-1.44,0-.15,0-.29.07-.44a.77.77,0,0,0,0-.15c.08-.57.13-1.13.18-1.69,0-.12,0-.23,0-.35C318.73,178.66,318.76,178.19,318.77,177.72Z"/><path class="cls-9" d="M373.18,87.37l.09-.6c0-.2.07-.41.09-.61s0-.29,0-.44c.07-.58.12-1.15.16-1.72,0-.24,0-.49.05-.74,0-.79.05-1.58,0-2.35L336.15,59.13c0,.77,0,1.56,0,2.35,0,.25,0,.5-.05.74,0,.57-.09,1.15-.15,1.72,0,.35-.08.7-.14,1a5.58,5.58,0,0,1-.09.59q-.12.83-.3,1.65c0,.1,0,.19,0,.29s-.08.3-.11.45q-.21,1-.48,2c-.09.31-.19.63-.28,1s-.25.86-.39,1.28l-.37,1.09-.38,1c-.15.39-.3.78-.46,1.16l-.38.93c-.18.42-.37.83-.56,1.25s-.24.54-.37.8c-.22.48-.46,1-.71,1.43l-.3.6c-.36.67-.72,1.33-1.11,2l-.22.36c-.32.53-.64,1.07-1,1.59l-.55.83c-.25.37-.5.75-.75,1.11l-.87,1.18c-.2.26-.38.52-.58.77-.54.69-1.08,1.36-1.65,2s-1,1.13-1.51,1.67-1,1-1.45,1.42c-.26.24-.51.48-.76.7s-.77.67-1.16,1l-.74.61c-.43.33-.87.64-1.3,1-.21.15-.42.32-.63.46-.65.44-1.31.85-2,1.23s-1,.55-1.51.81l-.38.19c-.47.23-.94.44-1.41.64l-.1,0c-.44.18-.88.35-1.32.5l-.38.13-.95.29-.48.13-.55.13-.55.12-.54.1-.44.07c-.52.07-1.05.13-1.56.15h-.26c-.39,0-.78,0-1.16,0l-.3,0a11.58,11.58,0,0,1-1.2-.14l-.21,0c-.31-.06-.6-.13-.89-.21l-.36-.1c-.23-.07-.45-.15-.67-.24l-.34-.14c-.23-.1-.45-.21-.68-.33l-.31-.16,37.48,21.78.11.07.2.09c.22.12.45.23.68.33a.67.67,0,0,0,.12.06l.21.08c.23.09.45.17.68.24l.2.07.15,0c.29.08.59.15.89.21l.17,0h.05a11.58,11.58,0,0,0,1.2.14h.3c.38,0,.77,0,1.16,0a1.08,1.08,0,0,1,.18,0h.08a14.23,14.23,0,0,0,1.56-.16h.16l.28,0,.53-.1.55-.12.55-.13.27-.06.22-.07,1-.29.38-.13c.43-.15.87-.32,1.32-.5h0l.08,0c.47-.2.94-.41,1.4-.64l.39-.19c.5-.26,1-.52,1.5-.81.66-.38,1.31-.79,2-1.23l.64-.46c.43-.31.87-.62,1.3-1l.74-.61c.39-.32.77-.64,1.15-1s.51-.46.76-.7.44-.39.65-.6l.81-.82c.49-.52,1-1.06,1.45-1.6l.06-.07q.84-1,1.65-2L363,110c.18-.23.34-.48.52-.71.29-.39.58-.77.86-1.17l.1-.12.66-1c.18-.27.37-.54.55-.82a.86.86,0,0,0,.07-.1c.31-.49.61-1,.9-1.48.08-.13.16-.25.23-.38l0,0c.36-.62.71-1.25,1.05-1.88a.2.2,0,0,1,0-.08l.3-.6c.21-.41.42-.82.62-1.23l.09-.2c.13-.26.25-.53.37-.8s.3-.64.44-1l.12-.29c.13-.31.25-.62.38-.92l.33-.82c0-.12.08-.23.13-.35.13-.35.25-.7.37-1s.19-.5.27-.75a3.37,3.37,0,0,0,.1-.34c.14-.43.27-.85.4-1.28.07-.24.15-.47.21-.71a2.1,2.1,0,0,0,.06-.24c.18-.67.34-1.33.49-2,0-.13.07-.25.09-.38a.64.64,0,0,0,0-.07c0-.1,0-.19.05-.29C373,88.46,373.09,87.91,373.18,87.37Z"/><rect class="cls-7" x="280.99" y="109.28" width="46.57" height="43.35" transform="translate(38.17 328.24) rotate(-59.84)"/><path class="cls-6" d="M463,103.55c3.53,7.56,12.2,8.73,22.1,3l-.64,38.38c-9.16,5.28-17.36,16.25-20.81,28-3.52,12-1.21,22.24,5.75,25.54l-23.06,40.08c-4.22-2.92-10.74-2.17-17.12,1.51a36.55,36.55,0,0,0-8.18,6.55c-8.74,9.26-14.21,22.6-13.65,33.2L373.5,299.38c.51-11.23-5-18.21-13.79-17.36a20.72,20.72,0,0,0-8.19,2.9c-6.38,3.68-12.88,10.45-17.07,18.22l-23.21-13.36c6.91-11.3,9.16-24.19,5.59-32.08-3.52-7.73-11.75-9.22-20.39-4.23l-1.37-37.2c9.9-5.72,18.54-16.89,22-28.48,3.64-12.17,1.33-22.53-5.75-25.8L334.7,121.7c4.22,2.89,10.74,2.12,17.11-1.56a36.16,36.16,0,0,0,8-6.36c8.63-9.06,14.17-22.26,13.81-32.87L406,62.22c-.3,11,5.3,17.76,13.95,16.83a21,21,0,0,0,8-2.88C434.34,72.49,440.85,65.74,445,58l23.52,13.21C461.53,82.62,459.28,95.62,463,103.55ZM390.24,219.79C408.89,209,424,182.84,424,161.41s-15.28-30.1-33.93-19.34-33.77,37-33.71,58.39,15.28,30.1,33.93,19.33"/></g><g class="cls-3"><g class="cls-3"><g class="cls-10"><path class="cls-9" d="M218.32,479.94l-31.44-18.28c.29-6.44-1.79-11.22-5.48-13.36l31.44,18.27c3.7,2.15,5.78,6.92,5.48,13.37"/></g></g><path class="cls-9" d="M307.6,320.17c.39-.14.78-.28,1.18-.45h0l.08,0c.43-.18.86-.38,1.3-.59l.36-.18c.47-.24.94-.49,1.41-.76l-31.44-18.28c-.48.28-.95.52-1.42.76l-.36.18c-.44.21-.87.41-1.3.59l-.1.05-1.18.45-.34.11c-.28.09-.56.18-.83.25l-.47.13-.45.11-.51.1-.45.09-.34.05c-.47.06-.93.11-1.38.13h-.07c-.38,0-.75,0-1.12,0l-.3,0c-.32,0-.63-.06-.94-.11l-.13,0c-.33-.06-.66-.14-1-.22l-.27-.09c-.22-.07-.44-.14-.65-.23a2.52,2.52,0,0,1-.29-.12c-.22-.09-.44-.2-.65-.31l-.25-.14h0l31.44,18.28.1.06.16.07c.21.12.43.22.65.32l.12.06.16.06.66.23.18.06.09,0a7.45,7.45,0,0,0,1,.22h.14c.31.05.62.09.93.11l.15,0h.15a10.63,10.63,0,0,0,1.13,0h.06a13.35,13.35,0,0,0,1.39-.14h.15l.19,0,.44-.08.51-.11.46-.11.28-.06.18-.06.83-.26Z"/><path class="cls-5" d="M260.58,366.62c0-.82.08-1.64.07-2.45,0-8.93-3.19-15.23-8.28-18.19l-31.45-18.27c5.1,3,8.26,9.25,8.29,18.19,0,.81,0,1.63-.08,2.45l0,.51q-.09,1.22-.24,2.43c0,.23-.06.45-.1.68s-.11.76-.17,1.14-.09.52-.14.78-.13.73-.21,1.1-.12.6-.19.89-.11.5-.17.75l-.24,1c-.07.25-.13.49-.19.73s-.11.39-.17.58c-.23.81-.47,1.62-.74,2.43a1.72,1.72,0,0,1-.07.21c-.26.79-.55,1.58-.85,2.37-.07.19-.15.39-.22.59-.26.66-.53,1.32-.81,2-.05.11-.09.22-.14.32-.32.74-.65,1.46-1,2.19l-.27.56c-.28.58-.57,1.15-.87,1.72-.09.17-.18.35-.28.52-.38.71-.77,1.42-1.17,2.11l-.24.4c-.36.61-.73,1.21-1.1,1.8l-.33.52c-.47.73-.95,1.45-1.44,2.15l-.23.33c-.52.73-1.05,1.44-1.59,2.15l-.2.27q-1,1.31-2.1,2.55l-.27.32c-.46.52-.93,1-1.41,1.55h0c-.47.51-1,1-1.44,1.49l-.92.88-.28.27c-.41.39-.83.77-1.25,1.14l-.32.27-1,.81-.46.37-.85.66-.5.38-.84.6-.5.36-.91.6-.44.29c-.45.28-.9.56-1.35.82-.61.35-1.2.66-1.8,1l-.51.25c-.45.22-.9.43-1.34.62l-.48.2c-.42.17-.83.33-1.23.47l-.34.13c-.51.17-1,.33-1.52.47l-.92.22-.38.1c-.44.09-.86.17-1.29.23l-.1,0c-.37.05-.73.1-1.09.13l-.39,0-.81,0h-.36l-.84,0h-.29l-.3,0q-.66-.06-1.29-.15l-.4-.07a13.91,13.91,0,0,1-1.42-.33h0a13.29,13.29,0,0,1-1.3-.46l-.36-.15c-.36-.16-.71-.33-1-.52-.11-.06-.23-.11-.34-.18h0l31.45,18.28.15.09.19.09q.51.27,1.05.51l.19.1.17,0a11.63,11.63,0,0,0,1.29.46l0,0h0c.46.13.94.24,1.42.33l.17,0a1.6,1.6,0,0,0,.23,0q.63.1,1.29.15l.2,0h1.88l.52,0,.38,0c.37,0,.73-.07,1.1-.13h.11c.42-.07.85-.15,1.27-.24.13,0,.26-.06.38-.09l.85-.21.07,0c.51-.14,1-.29,1.53-.47l.33-.12c.41-.15.82-.3,1.23-.47l.17-.07.32-.14c.44-.19.89-.39,1.34-.61l.51-.25c.59-.3,1.19-.62,1.79-1s.91-.54,1.36-.83l.44-.28.91-.61.5-.35.84-.61.5-.38.84-.65.47-.38,1-.8.33-.28,1.25-1.13.28-.28c.27-.25.53-.49.79-.75l.12-.13c.49-.48,1-1,1.45-1.48h0c.48-.51.94-1,1.41-1.56l.12-.13.15-.19c.71-.83,1.42-1.68,2.1-2.55l0-.07.15-.2c.54-.7,1.07-1.42,1.59-2.15l.16-.22a.61.61,0,0,1,.07-.1c.49-.71,1-1.42,1.43-2.15a2.43,2.43,0,0,0,.14-.2c.07-.11.13-.22.2-.32.37-.6.74-1.2,1.1-1.81l.17-.28.06-.11c.41-.7.8-1.4,1.18-2.11l.1-.18c.06-.11.11-.23.18-.35.29-.57.58-1.14.86-1.71.06-.12.13-.24.18-.36a2,2,0,0,0,.1-.21c.35-.72.68-1.45,1-2.18l0-.07c0-.09.07-.17.11-.25.28-.66.54-1.32.8-2l.14-.32.09-.27c.3-.79.58-1.57.85-2.36a.14.14,0,0,1,0-.06s0-.1.05-.16c.26-.81.51-1.61.74-2.42l.09-.31a2.68,2.68,0,0,0,.07-.27c.07-.24.13-.49.19-.73s.17-.65.25-1,.11-.49.17-.74l.12-.53c0-.12,0-.24.07-.36l.21-1.11c.05-.26.1-.51.14-.77s.12-.76.17-1.14c0-.18.06-.37.08-.55s0-.09,0-.13c.1-.82.18-1.63.23-2.43C260.56,367,260.57,366.8,260.58,366.62Z"/><path class="cls-9" d="M172.11,454.13c0-.23,0-.45,0-.67s0-.62,0-.93v-.65c0-.3,0-.6,0-.89s0-.43,0-.64-.06-.58-.1-.86-.05-.4-.08-.6-.1-.57-.16-.85-.07-.36-.12-.54-.16-.59-.25-.88c0-.14-.08-.29-.13-.43a13.06,13.06,0,0,0-.48-1.23,10.08,10.08,0,0,0-4.09-4.7L135.24,422a10.22,10.22,0,0,1,4.09,4.71q.25.58.48,1.23c0,.14.08.29.13.43s.17.58.25.88.07.36.11.54.12.56.16.85.06.39.09.6.07.56.09.85,0,.43.05.64l0,.89c0,.22,0,.44,0,.66l0,.93,0,.66-.09,1c0,.22,0,.43-.07.65-.06.51-.14,1-.23,1.55l0,.18c-.08.45-.17.9-.27,1.36s-.26,1.08-.4,1.63c0,.13-.07.26-.1.39-.18.62-.36,1.23-.57,1.85v0a.14.14,0,0,0,0,.06c-.2.58-.41,1.17-.64,1.76,0,.1-.08.2-.12.3-.19.49-.39,1-.61,1.47-.07.18-.16.36-.24.55-.19.39-.37.79-.56,1.19l-.33.64c-.18.36-.37.72-.56,1.08s-.25.45-.38.68c-.26.46-.52.93-.8,1.39l31.44,18.27c.17-.27.33-.54.49-.81l.32-.57.38-.69.18-.33c.13-.24.25-.49.38-.74l.33-.65.1-.2c.16-.33.3-.66.45-1l.25-.54,0-.1c.2-.46.38-.92.56-1.38l.12-.29v0c.22-.59.43-1.17.63-1.75a.43.43,0,0,1,0-.05h0v0c.2-.62.39-1.24.56-1.85a.14.14,0,0,0,0-.06l.08-.34c.15-.54.28-1.09.4-1.63l.06-.22c.08-.38.15-.76.22-1.13l0-.18c.08-.46.15-.92.21-1.37,0-.06,0-.12,0-.19s0-.43.07-.64S172.09,454.45,172.11,454.13Z"/><path class="cls-9" d="M266.65,270.21l-19.74-11.09c-.21.39-.43.77-.65,1.15s-.53.89-.8,1.32c-.06.09-.13.18-.19.28-.24.37-.48.73-.74,1.1l-.28.4c-.31.43-.63.87-.95,1.29l-.14.18c-.45.58-.91,1.14-1.39,1.69l-.26.31c-.23.27-.48.53-.72.79-.09.11-.19.22-.29.32-.34.36-.68.72-1,1.06l-.08.08c-.49.48-1,.93-1.48,1.38l-.2.18c-.5.43-1,.85-1.5,1.24l-.28.22c-.5.39-1,.76-1.51,1.1l-.24.16c-.53.35-1.06.69-1.59,1s-.8.44-1.2.64l-.27.14c-.4.19-.79.37-1.18.53l-.21.09-.74.28-.33.11-.63.19-.29.08c-.43.11-.85.2-1.27.27l-.6.09c-.28,0-.55,0-.82,0s-.73,0-1.08,0l-.28,0c-.26,0-.52-.05-.77-.09l-.25,0a7,7,0,0,1-.93-.21l-.15-.05a6.49,6.49,0,0,1-.74-.26l-.25-.11c-.23-.1-.46-.21-.68-.33l-.23-.12,31.45,18.28.1.05.12.07c.23.12.45.23.69.33l.12.06.13.05.74.26.12,0h0c.3.08.61.15.92.21l.08,0,.17,0q.39.06.78.09l.17,0h.11c.35,0,.71,0,1.08,0h0l.77-.06.52-.07.09,0a9.94,9.94,0,0,0,1.27-.27l.1,0a1.06,1.06,0,0,0,.19-.06c.21-.05.42-.12.63-.19l.33-.11.74-.28.18-.07h0q.58-.24,1.17-.54l.28-.13c.4-.21.8-.42,1.2-.65s1.06-.64,1.59-1l.24-.15c.5-.35,1-.72,1.5-1.1l.29-.22c.5-.4,1-.81,1.49-1.24l.21-.19c.5-.44,1-.9,1.48-1.38l.05-.05,0,0c.34-.35.69-.7,1-1.06.1-.11.19-.22.29-.32l.72-.8.13-.14.13-.16c.47-.55.94-1.11,1.39-1.69l0,0,.1-.14c.33-.43.65-.86,1-1.3.05-.07.11-.14.15-.21a1.27,1.27,0,0,0,.13-.19c.25-.36.5-.73.74-1.1l.15-.22,0-.06c.28-.43.55-.87.81-1.31l0-.05c.22-.36.43-.73.63-1.1l19.73,11.08Z"/><polygon class="cls-7" points="153.67 441.41 122.22 423.14 121.07 391.92 152.51 410.2 153.67 441.41"/><polygon class="cls-7" points="218.44 296.62 186.99 278.35 214.16 262.66 245.6 280.94 218.44 296.62"/><path class="cls-9" d="M172.4,377.85c0-.17,0-.33,0-.49,0-.33,0-.66,0-1,0-.16,0-.33,0-.49,0-.34-.05-.67-.08-1,0-.13,0-.26,0-.39-.05-.45-.12-.88-.2-1.31,0-.06,0-.13,0-.19-.07-.36-.16-.71-.25-1.05,0-.13-.07-.26-.11-.39s-.17-.53-.26-.79l-.15-.4c-.1-.26-.21-.51-.33-.76s-.09-.22-.14-.32c-.17-.34-.35-.67-.55-1l-.06-.08a9.92,9.92,0,0,0-.57-.82l-.23-.27c-.16-.19-.32-.37-.49-.55l-.27-.26a6.23,6.23,0,0,0-.55-.49l-.26-.21a10.38,10.38,0,0,0-.88-.59l-31.45-18.28a9,9,0,0,1,.88.59l.26.21c.19.16.38.32.55.49l.27.27c.17.17.34.36.5.55s.15.17.22.27q.3.39.57.81l.06.09a9.37,9.37,0,0,1,.55,1l.15.31.33.77.14.39c.09.26.18.53.26.8s.08.25.12.39q.13.51.24,1.05c0,.06,0,.12,0,.19.09.42.15.86.2,1.3,0,.13,0,.26,0,.39,0,.33.06.66.08,1,0,.17,0,.33,0,.5s0,.64,0,1c0,.17,0,.33,0,.5,0,.39,0,.79,0,1.19,0,.1,0,.2,0,.3,0,.51-.1,1-.17,1.54,0,.13,0,.25-.05.38-.06.4-.13.8-.2,1.2,0,.17-.07.34-.1.51s-.13.59-.19.88-.2.84-.31,1.27-.21.78-.32,1.18-.32,1-.49,1.48l-.27.75c-.12.34-.25.68-.39,1s-.18.46-.28.69-.3.7-.46,1.05l-.29.62c-.18.38-.37.76-.56,1.14l-.26.51c-.27.52-.56,1-.85,1.54l-.06.1c-.32.55-.65,1.09-1,1.63l-.52.78-.57.85c-.4.57-.81,1.12-1.23,1.67l-.12.15c-.44.55-.89,1.1-1.35,1.64-.25.28-.49.56-.75.84l-.4.45c-.37.4-.75.79-1.14,1.18a1.36,1.36,0,0,0-.12.12l-.09.08c-.49.49-1,.95-1.51,1.41l-.52.45c-.38.32-.76.64-1.15.95l-.6.46c-.39.3-.79.59-1.19.87l-.54.37c-.58.39-1.17.76-1.76,1.1l31.44,18.28c.6-.34,1.18-.72,1.76-1.1l.54-.38q.62-.42,1.2-.87c.2-.15.4-.3.59-.46.39-.3.78-.62,1.16-.95.17-.15.35-.29.52-.45.51-.45,1-.92,1.51-1.4l.08-.08h0l.12-.12c.38-.38.76-.78,1.14-1.18l.4-.45.58-.63.17-.21c.46-.53.91-1.08,1.34-1.64l.11-.12v0c.42-.54.83-1.1,1.23-1.66l0,0c.18-.26.35-.53.53-.8s.36-.52.53-.79l0-.05c.33-.52.65-1,.95-1.57h0l0-.09c.28-.48.54-1,.8-1.43l.06-.11c.09-.17.17-.34.25-.51s.32-.6.46-.9c0-.08.07-.17.11-.25s.19-.41.29-.62l.3-.66c.06-.13.11-.26.16-.39s.19-.45.28-.68l.21-.51c.06-.16.11-.34.18-.5l.27-.75c0-.13.09-.26.14-.4.12-.36.23-.72.34-1.09s.15-.49.22-.74.06-.29.1-.43c.12-.43.22-.86.32-1.28,0-.14.07-.29.1-.43l.09-.44c0-.17.06-.34.1-.51.07-.41.14-.81.19-1.21l.06-.37a.5.5,0,0,1,0-.12c.06-.48.11-1,.15-1.42,0-.1,0-.2,0-.3Q172.39,378.43,172.4,377.85Z"/><path class="cls-9" d="M218.06,302c0-.17.05-.33.07-.5s.06-.34.08-.51,0-.25,0-.37c.05-.49.1-1,.13-1.44,0-.21,0-.42,0-.62,0-.67,0-1.33,0-2L187,278.34c0,.65,0,1.31,0,2,0,.21,0,.41,0,.62,0,.48-.07,1-.13,1.44,0,.3-.07.59-.11.89s-.05.33-.08.49c-.07.46-.15.92-.25,1.38,0,.08,0,.17-.05.25s-.06.25-.09.37c-.12.55-.25,1.11-.4,1.66l-.24.8q-.15.54-.33,1.08c-.09.3-.2.6-.31.91s-.2.59-.31.88l-.39,1c-.1.26-.21.52-.32.78s-.3.69-.46,1-.21.45-.31.68c-.19.4-.4.8-.6,1.19l-.26.51c-.29.56-.6,1.11-.92,1.66-.06.11-.13.21-.19.31-.27.45-.54.9-.82,1.34l-.47.69c-.21.31-.41.63-.63.93s-.48.66-.73,1l-.48.65q-.68.87-1.38,1.68c-.42.48-.84,1-1.27,1.4s-.81.81-1.22,1.2c-.21.2-.42.4-.64.59s-.64.56-1,.83l-.62.5c-.36.29-.73.55-1.09.81l-.53.38c-.55.37-1.1.72-1.65,1s-.84.47-1.26.68l-.32.16-1.18.54-.09,0q-.56.24-1.11.42l-.31.11c-.27.09-.53.17-.8.24l-.41.11-.46.11-.46.1-.45.09-.36,0a12.28,12.28,0,0,1-1.32.13h-.21c-.33,0-.66,0-1,0h-.25c-.34,0-.68-.06-1-.12l-.18,0c-.25-.05-.5-.1-.74-.17l-.3-.09c-.19-.06-.38-.12-.57-.2l-.28-.11-.57-.28-.26-.13,31.45,18.27.09.05a.91.91,0,0,0,.17.09,5.94,5.94,0,0,0,.57.27.31.31,0,0,0,.1.05l.18.07.57.2.16.06a.5.5,0,0,1,.13,0l.75.17.14,0h0a8.2,8.2,0,0,0,1,.12h.25c.32,0,.64,0,1,0h.22c.43,0,.87-.07,1.31-.13l.13,0,.24,0,.45-.08.46-.1.46-.11.22-.06.19,0,.79-.25.32-.1q.56-.19,1.11-.42h0l.06,0c.4-.16.79-.34,1.18-.53l.33-.16c.42-.22.84-.44,1.26-.68s1.1-.67,1.64-1l.53-.38c.37-.26.74-.52,1.1-.8.21-.16.41-.34.62-.51s.65-.54,1-.83l.64-.59.54-.5.68-.69c.41-.44.82-.88,1.22-1.34l0-.06c.48-.55.94-1.11,1.39-1.68l.05-.07c.15-.19.29-.39.44-.59s.49-.65.72-1l.08-.11c.19-.27.37-.55.55-.83l.47-.69a.35.35,0,0,1,.05-.08c.26-.41.51-.83.76-1.25l.2-.31v0c.3-.52.6-1.05.88-1.58l0-.07c.09-.16.17-.33.25-.5l.53-1a1.22,1.22,0,0,0,.07-.17c.11-.22.21-.45.31-.67s.25-.54.37-.81a2.44,2.44,0,0,0,.1-.24c.11-.26.21-.52.32-.77l.28-.69c0-.1.07-.2.1-.29.11-.3.22-.59.32-.89s.16-.41.22-.62.06-.19.09-.29c.12-.36.23-.71.33-1.07.06-.2.13-.4.18-.6s0-.14,0-.2c.15-.56.29-1.11.41-1.66,0-.11.06-.21.08-.32s0,0,0-.06,0-.16.05-.24C217.9,303,218,302.49,218.06,302Z"/><rect class="cls-7" x="140.7" y="320.43" width="39.08" height="36.37" transform="translate(-213.04 307.02) rotate(-59.84)"/><path class="cls-6" d="M293.41,315.62c3,6.34,10.23,7.33,18.54,2.53l-.53,32.2c-7.69,4.43-14.57,13.63-17.47,23.5-2.95,10-1,18.65,4.83,21.42L279.43,428.9c-3.55-2.45-9-1.82-14.37,1.27a30.53,30.53,0,0,0-6.86,5.5c-7.33,7.77-11.93,19-11.45,27.86l-28.43,16.41c.43-9.42-4.21-15.28-11.57-14.57a17.28,17.28,0,0,0-6.86,2.43,40.3,40.3,0,0,0-14.33,15.29l-19.48-11.21c5.8-9.49,7.69-20.3,4.69-26.92s-9.85-7.73-17.1-3.55l-1.16-31.21c8.31-4.8,15.56-14.17,18.47-23.9,3.06-10.21,1.12-18.91-4.82-21.65l19.61-33.8c3.54,2.42,9,1.77,14.36-1.31a30.67,30.67,0,0,0,6.72-5.34c7.24-7.6,11.89-18.68,11.59-27.58l27.16-15.68c-.24,9.21,4.45,14.9,11.71,14.12a17.64,17.64,0,0,0,6.73-2.42,40.42,40.42,0,0,0,14.32-15.24l19.73,11.08C292.19,298.06,290.3,309,293.41,315.62Zm-61,97.54c15.65-9,28.34-31,28.28-49s-12.82-25.26-28.46-16.23-28.34,31-28.29,49,12.82,25.25,28.47,16.22"/></g></svg>