<svg id="Layer_1" xmlns="http://www.w3.org/2000/svg" viewBox="0 0 500 500"><style>.st0{fill:#fff}.st1{fill:#ecf0f1}.st2{fill:#3d98d3}</style><path class="st0" d="M423.1 199.9c2.5 1.6 4 4.3 4.2 7.3l-.6 208.1c0 2.7-1.9 3.8-4.2 2.4l-284.1-164c-2.5-1.6-4-4.3-4.2-7.3l.6-208.2c0-2.7 1.9-3.7 4.2-2.4l284.1 164.1z"/><path class="st1" d="M466.5 184.2c-.1-1-.2-1.8-.6-2.6-.3-.7-.8-1.6-1.3-2.3-.3-.4 0-.2-.3-.2-.3.1-.6.4-.9.5-2.7 1.6-5.5 3.2-8.2 4.8-8 4.6-16 9.3-24 13.9-2 1.2-4 2.3-6 3.5 1.3 1.5 1.9 3.4 1.9 5.3v17.7c0 7.4 0 14.7-.1 22.1 0 9.3-.1 18.6-.1 27.8 0 10.2-.1 20.5-.1 30.7 0 10.4-.1 20.8-.1 31.2 0 9.8-.1 19.5-.1 29.3 0 8.1 0 16.3-.1 24.4v24.9c0 1-.2 2.2-1.2 2.8 4.6-2.7 9.1-5.3 13.7-8 7.1-4.1 14.2-8.2 21.3-12.4 1.1-.6 2.2-1.3 3.2-1.9.7-.4 1.5-.7 1.9-1.5.3-.7.2-1.8.2-2.5v-18c0-7.4 0-14.7.1-22.1 0-9.1.1-18.3.1-27.4 0-10 .1-20.1.1-30.1 0-10.3.1-20.5.1-30.8 0-9.5.1-19.1.1-28.6 0-8.1 0-16.2.1-24.3v-22.9c0-.9-.1-1.9 0-2.8.1-.3 0-.1.3-.5z"/><path class="st2" d="M464.4 179.1l-.1-.2c0-.1-.1-.1-.2-.2l-.2-.2-.1-.1-.2-.2-.1-.1-.2-.2-.1-.1-.1-.1-.2-.1-.1-.1-.2-.1-.2-.1-284.1-164-.1-.1-.2-.1-.2-.1-.2-.1h-.2l-.2-.1H176c-.1 0-.1 0-.2.1-.1 0-.2.1-.3.1l-39.4 22.3.3-.2.2-.1h.8l.4.1.4.1c.1 0 .3.1.4.2.1.1.3.1.4.2l284.1 164c.1.1.3.2.4.3.1.1.3.2.4.3l.4.3.4.4.4.4c1.3 1.6 2.1 3.5 2.2 5.5l39.3-22.8c-.2-1.7-1-3.4-2.2-4.9z"/><path class="st1" d="M463.1 464.4l-.2-.2-.1-.1-.2-.1-.2-.1-284.1-164-.1-.1-.2-.1h-.1l-.2-.1-.2-.1h-1.6c-.1 0-.1 0-.2.1l-.3.1-39.1 22.7.3-.1.2-.1h.8l.4.1c.1 0 .2.1.4.1l.4.1.4.2 284.1 164"/><path fill="#495c6e" d="M39.4 306.9L71 325.2l31.4-18.3L71 288.7z"/><path fill="#2c3e50" d="M39.4 306.9l.5 41.4L71 366.5v-41.3z"/><path fill="#34495e" d="M71 325.2v41.3l31.9-18.2-.5-41.4z"/><path fill="#f7dc6f" d="M82.4 258.7l31.6 18.2 31.4-18.2-31.4-18.3z"/><path fill="#e49701" d="M82.4 258.7l.5 114.7 31.1 18.3V276.9z"/><path fill="#f1c40f" d="M114 276.9v114.8l32-18.3-.6-114.7z"/><path fill="#b7d162" d="M125.1 210.4l31.6 18.3 31.4-18.3-31.4-18.3z"/><path fill="#8eb021" d="M125.1 210.4l.5 186.3 31.1 18.3V228.7z"/><path fill="#a5c63b" d="M156.7 228.7V415l31.9-18.3-.5-186.3z"/><path d="M134.7 56.7l.1-18.5c0-2.7 1.9-3.7 4.2-2.4l284.1 164c2.5 1.6 4 4.3 4.2 7.3v18.7L134.7 56.7z" fill="#0075a8"/><path class="st2" d="M427.4 205.1l39.1-20.9V203l-39.2 22.8z"/><path class="st0" d="M255.2 304.1c13.4 7.8 26.9 21.4 37.1 39.1 20.5 35.5 20.4 73.7-.2 85.4-10.3 5.9-23.8 4-37.2-3.8s-26.9-21.4-37.1-39.1c-20.5-35.5-20.4-73.7.2-85.4 10.3-5.9 23.8-4 37.2 3.8z"/><path d="M281.6 410.3c2-1.1 3.1-4.1 3.8-6.4 3.4-12.6-1-32.2-11.4-50.1-8.1-14-18.5-25.1-29.4-31.4-4.8-2.8-9.6-4.4-13-4.4-1.1 0-2.2.2-3.1.7-2 1.1-3.1 4.1-3.8 6.4-3.4 12.6 1 32.2 11.4 50.1l-13.1 7.5c-12.4-21.5-17.3-45.1-12.9-61.6 2-7.4 5.6-12.6 10.9-15.6 3.2-1.8 6.9-2.7 10.6-2.6 6.2 0 13.3 2.2 20.6 6.4 13.1 7.6 25.5 20.7 34.9 36.9 12.4 21.5 17.3 45.1 12.9 61.6-2 7.4-5.6 12.6-10.9 15.6l-7.5-13.1z" fill="#b1cdeb"/><path class="st1" d="M329.3 382.3v-2.7c0-.7-.1-1.5-.1-2.2v-.3c0-.8-.1-1.5-.2-2.3-.1-.8-.2-1.5-.3-2.3v-.5c-.1-.8-.2-1.5-.3-2.3v-.5c-.1-.8-.3-1.6-.4-2.4v-.1c-.1-.8-.3-1.6-.5-2.4v-.3l-.6-2.4v-.2l-.1-.2-.6-2.4v-.1c0-.1 0-.2-.1-.2-.2-.8-.5-1.6-.7-2.4v-.3c-.2-.8-.5-1.6-.8-2.4l-.1-.3c0-.1-.1-.2-.1-.2-.3-.8-.5-1.5-.8-2.3v-.1c0-.1-.1-.2-.1-.2-.2-.7-.5-1.4-.8-2l-.1-.3-.1-.2c-.3-.7-.6-1.5-.9-2.2l-.1-.1c0-.1-.1-.2-.1-.3-.3-.6-.5-1.2-.8-1.9 0-.1-.1-.2-.1-.3 0-.1-.1-.1-.1-.2-.3-.7-.7-1.5-1-2.2 0-.1 0-.1-.1-.1l-.1-.3c-.3-.7-.7-1.5-1.1-2.2l-.1-.2v-.1c-.5-1-1-2-1.5-2.9l-.1-.2-.1-.2-.6-1.2-.3-.6c-.3-.6-.7-1.2-1-1.8l-.3-.6-.1-.2c-.7-1.1-1.4-2.3-2-3.4l-.2-.3c-.7-1.2-1.5-2.3-2.2-3.4-.4-.6-.9-1.2-1.3-1.9-.1-.2-.2-.3-.4-.5l-1-1.4c-.1-.1-.2-.2-.2-.3l-.1-.1c-.6-.9-1.3-1.7-2-2.6l-.1-.2-.1-.1c-.6-.7-1.2-1.5-1.8-2.2l-.1-.2-.2-.2c-.6-.7-1.1-1.4-1.7-2l-.1-.1-.2-.2c-.6-.7-1.2-1.4-1.9-2.1-.7-.7-1.3-1.4-2-2.1l-.1-.2-.1-.1-2-2-.2-.2-.1-.1c-.7-.6-1.4-1.3-2-1.9l-.2-.2-.1-.1-2.1-1.8-.1-.1-.2-.1c-.7-.6-1.4-1.1-2-1.7l-.1-.1-.2-.1c-.7-.5-1.4-1-2-1.6l-.1-.1-.8-.3-2.1-1.5-.1-.1-2-1.3-.1-.1h-.1c-.6-.4-1.3-.8-1.9-1.2l-.2-.1-.5-.3-1.5-.8-.2-.1-.2-.1c-.6-.3-1.3-.7-1.9-1-.6-.3-1.3-.6-1.9-.9l-.2-.1-.1-.1-1.8-.8-.1-.1-.2-.1c-.6-.2-1.3-.5-1.9-.7h-.1c-.6-.2-1.2-.4-1.9-.6l-.2-.1h-.1c-.6-.2-1.3-.4-1.9-.5l-.2-.1h-.1c-.6-.2-1.3-.3-1.9-.4h-.1l-.5.1-.5-.1-.7-.1-.5-.1h-.7l-.6-.1-.6-.1h-4.7l-.8.1h-.4l-1.3.2h-.2l-1.2.2h-.4c-.6.1-1.1.2-1.6.4h-.1c-.5.1-1 .3-1.5.5h-.3l-.6.2-.4.2-.6.3-.4.2-.7.3-.3.2c-.3.2-.7.4-1 .5L218 300.3c.3-.2.7-.4 1-.5l.3-.2.7-.3.4-.2.6-.3.4-.2.6-.2.2-.1c.5-.2 1-.3 1.5-.5h.1c.5-.1 1.1-.3 1.6-.4l.3-.1 1.2-.2h.1c.4-.1.9-.1 1.4-.2h6.5l.6.1.6.1.5.1.6.1.5.1.5.1c.6.1 1.3.3 1.9.4l.3.1c.6.2 1.3.3 1.9.5l.2.1c.6.2 1.2.4 1.9.6h.1c.6.2 1.2.5 1.9.7l.4.1c.6.2 1.2.5 1.8.8l.3.1c.6.3 1.3.6 1.9.9.6.3 1.3.7 1.9 1l.4.2c.5.3 1 .5 1.5.8l.7.4c.7.4 1.3.8 1.9 1.2l.2.1c.7.4 1.3.9 2 1.3l.1.1 2.1 1.5.3.2c.7.5 1.4 1 2 1.5l.3.3c.7.5 1.4 1.1 2 1.7l.3.3c.7.6 1.4 1.2 2 1.8l.3.3c.7.6 1.4 1.2 2 1.9l.3.3c.7.6 1.3 1.3 2 2l.2.2c.7.7 1.3 1.4 2 2.1.6.7 1.2 1.4 1.9 2.1l.3.3c.6.7 1.1 1.3 1.7 2l.3.4c.6.7 1.2 1.4 1.8 2.2l.2.3c.7.9 1.3 1.7 2 2.6.1.1.2.3.3.4.3.5.7.9 1 1.4.1.2.2.3.4.5.4.6.9 1.2 1.3 1.9l.1.1c.8 1.1 1.5 2.3 2.2 3.4.1.1.1.2.2.3.7 1.1 1.4 2.2 2 3.4l.4.8 1 1.8.3.6.6 1.2c.1.1.1.2.2.4.5 1 1 2 1.5 2.9l.1.3c.4.7.7 1.5 1.1 2.2l.2.4c.4.7.7 1.5 1 2.2.1.2.1.3.2.5.3.6.5 1.2.8 1.9.1.1.1.3.2.4.3.7.6 1.5.9 2.2.1.2.1.3.2.5.3.7.5 1.4.8 2 0 .1.1.2.1.4.3.8.5 1.5.8 2.3.1.2.1.3.2.5.3.8.5 1.6.8 2.4 0 .1 0 .1.1.2.2.8.5 1.6.7 2.4 0 .1.1.2.1.4l.6 2.4.1.5.6 2.4c0 .1 0 .2.1.4.2.8.3 1.6.5 2.4v.2c.1.8.3 1.6.4 2.4 0 .1 0 .3.1.4.1.8.2 1.5.3 2.3l.1.4c.1.8.2 1.6.2 2.3.1.8.1 1.5.2 2.3v.4c0 .7.1 1.5.1 2.2v5.2c0 .7-.1 1.5-.1 2.2v.4c-.1.7-.1 1.5-.2 2.2v.4c-.1.8-.2 1.5-.3 2.2l-.1.3c-.1.8-.3 1.5-.5 2.2 0 .2-.1.3-.1.5l-.2.8-.1.6c-.1.2-.1.5-.2.7s-.1.4-.2.5-.2.6-.3.9c0 .1-.1.3-.1.4-.1.4-.3.9-.5 1.3-.2.5-.3.9-.5 1.4l-.2.4c-.1.4-.3.7-.5 1 0 .1-.1.2-.1.3-.3.5-.5 1.1-.8 1.6 0 .1-.1.2-.2.3l-.9 1.5-.2.3c-.2.3-.5.7-.7 1l-.2.3c-.3.4-.6.8-.9 1.1l-.2.2c-.2.3-.5.6-.8.9-.1.1-.1.2-.2.3-.3.4-.7.7-1 1l-.2.2c-.3.3-.6.5-.9.8l-.3.2c-.4.3-.7.6-1.1.9l-.1.1c-.4.2-.7.5-1.1.7l-.3.2c-.4.3-.8.5-1.2.8l21.8-12.5c.4-.2.8-.5 1.2-.8l.3-.2c.4-.2.7-.5 1.1-.7l.1-.1c.4-.3.8-.6 1.1-.9l.3-.2c.3-.3.6-.5.9-.8l.2-.2 1-1c.1-.1.1-.2.2-.3.3-.3.5-.6.8-.9l.2-.2c.3-.4.6-.8.9-1.1l.2-.3c.2-.3.5-.7.7-1l.1-.2.1-.1.9-1.5.2-.3c.3-.5.6-1.1.8-1.6v-.1c0-.1.1-.1.1-.2.2-.3.3-.7.5-1l.2-.4c.2-.5.4-.9.5-1.4.2-.4.3-.9.5-1.3 0-.1.1-.3.1-.4l.3-.9.1-.2c0-.1.1-.2.1-.3l.2-.8c0-.2.1-.4.1-.5s.1-.5.2-.8 0-.2.1-.3v-.1c.2-.7.3-1.5.5-2.2v-.3c.1-.7.2-1.5.3-2.2v-.4c.1-.7.2-1.5.2-2.2v-.3c0-.7.1-1.5.1-2.2v-2.5c1-.2 1-.2 1-.3z"/><path class="st2" d="M274 353.8c-8.1-14-18.5-25.1-29.4-31.4-4.8-2.8-9.6-4.4-13-4.4-1.1 0-2.2.2-3.1.7-2 1.1-3.1 4.1-3.8 6.4-3.4 12.6 1 32.2 11.4 50.1l-13.1 7.5c-12.4-21.5-17.3-45.1-12.9-61.6 2-7.4 5.6-12.6 10.9-15.6 3.2-1.8 6.9-2.7 10.6-2.6 6.2 0 13.3 2.2 20.6 6.4 13.1 7.6 25.5 20.7 34.9 36.9l-13.1 7.6z"/></svg>