<svg id="Layer_1" xmlns="http://www.w3.org/2000/svg" viewBox="0 0 500 500"><style>.st0{fill:#8eb021}.st3{fill:#f8f9f9}.st5{fill:#0f0f0f}.st6{fill:#313131}.st8{fill:#2a2b2b}</style><path class="st0" d="M260.8 213.5l21.2-12.3.1-26.4-21.2 12.3z"/><path fill="#a5c63b" d="M156.2 25.8l-.3 100.6 82 47.4 22.9 39.7.1-26.4 23 13.2.3-100.6z"/><path class="st0" d="M283.9 200.3l21.2-12.2.2-100.7-21.1 12.3z"/><path fill="#c9dd89" d="M284.2 99.7l21.1-12.3-128-73.9-21.1 12.3z"/><path class="st3" d="M284.2 326.2l21.1-12.3-128-73.9-21.1 12.3zm-257.3-3.1l117.7-69.2 283.1 163.4L310 486.5z"/><path fill="#3d3d3d" d="M116.8 247.4L14.1 307l283.1 163.5 102.7-59.7z"/><path class="st5" d="M297.2 470.5v8.1L399.9 419v-8.2z"/><path class="st6" d="M14.1 307v8.2l283.1 163.4v-8.1z"/><path d="M100.5 276.9l15.4-9 15.5 9-15.4 9-15.5-9zm35.4 20.5l15.4-9-15.5-9-15.4 9 15.5 9zm19.9 11.5l15.4-9-15.5-9-15.4 9 15.5 9zm19.9-6.5l-15.4 9 15.5 9 15.4-9-15.5-9zm19.9 11.5l-15.4 9 15.5 9 15.4-9-15.5-9zm20 11.5l-15.4 9 15.5 9 15.4-9-15.5-9zm19.9 11.5l-15.4 9 15.5 9 15.4-9-15.5-9zm19.9 11.5l-15.4 9 15.5 9 15.4-9-15.5-9zm20 11.5l-15.4 9 15.5 9 15.4-9-15.5-9zm20 29.6l15.4-9-15.5-9-15.4 9 15.5 9zm19.9 11.5l15.4-9-15.5-9-15.4 9 15.5 9zm19.9 11.5l15.4-9-15.5-9-15.4 9 15.5 9zm4.4 2.5l15.5 9 15.4-9-15.5-9-15.4 9zM96.4 297.2l15.4-9-15.5-9-15.4 9 15.5 9zm19.9 11.6l15.4-9-15.5-9-15.4 9 15.5 9zm20 11.5l15.4-9-15.5-9-15.4 9 15.5 9zm19.9-6.5l-15.4 9 15.5 9 15.4-9-15.5-9zm19.9 11.5l-15.4 9 15.5 9 15.4-9-15.5-9zm19.9 11.5l-15.4 9 15.5 9 15.4-9-15.5-9zm20 11.5l-15.4 9 15.5 9 15.4-9-15.5-9zm19.9 11.5l-15.4 9 15.5 9 15.4-9-15.5-9zm19.9 11.5l-15.4 9 15.5 9 15.4-9-15.5-9zm20 29.5l15.4-9-15.5-9-15.4 9 15.5 9zm19.9 11.5l15.4-9-15.5-9-15.4 9 15.5 9zm20 11.5l15.4-9-15.5-9-15.4 9 15.5 9zm19.9 11.5l15.4-9-15.5-9-15.4 9 15.5 9zM76.9 308.6l15.4-9-15.5-9-15.4 9 15.5 9zm19.9 11.5l15.4-9-15.5-9-15.4 9 15.5 9zm19.9 11.5l15.4-9-15.5-9-15.4 9 15.5 9zm19.9-6.5l-15.4 9 15.5 9 15.4-9-15.5-9zm19.9 11.5l-15.4 9 15.5 9 15.4-9-15.5-9zm20 11.5l-15.4 9 15.5 9 15.4-9-15.5-9zm19.9 11.5l-15.4 9 15.5 9 15.4-9-15.5-9zm20 11.6l-15.4 9 15.5 9 15.4-9-15.5-9zm19.9 11.5l-15.4 9 15.5 9 15.4-9-15.5-9zm20 29.5l15.4-9-15.5-9-15.4 9 15.5 9zm19.9 11.5l15.4-9-15.5-9-15.4 9 15.5 9zm19.9 11.5l15.4-9-15.5-9-15.4 9 15.5 9zm19.9 11.5l15.4-9-15.5-9-15.4 9 15.5 9zm-79.3-23.2l15.4-9-135.1-78-15.4 9 135.1 78z" opacity=".3" fill="#090909"/><path class="st8" d="M113.8 280.5l15.4-8.9-15.5-9-15.4 9z"/><path class="st5" d="M113.8 280.5v4.1l15.4-8.9v-4.1z"/><path class="st6" d="M98.3 271.6v4.1l15.5 8.9v-4.1z"/><path class="st8" d="M133.7 292.1l15.5-9-15.6-9-15.4 9z"/><path class="st5" d="M133.7 292.1v4l15.4-8.9.1-4.1z"/><path class="st6" d="M118.2 283.1v4.1l15.5 8.9v-4z"/><path class="st8" d="M153.7 303.6l15.4-9-15.5-9-15.5 9z"/><path class="st5" d="M153.7 303.6l-.1 4 15.5-8.9v-4.1z"/><path class="st6" d="M138.1 294.6v4.1l15.5 8.9.1-4z"/><path class="st8" d="M173.5 297.1l-15.4 9 15.5 9 15.4-9z"/><path class="st5" d="M173.6 315.1v4l15.4-8.9v-4.1z"/><path class="st6" d="M158.1 306.1l-.1 4.1 15.6 8.9v-4z"/><path class="st8" d="M193.4 308.6l-15.4 9 15.5 9 15.5-9z"/><path class="st5" d="M193.5 326.6v4l15.5-8.9v-4.1z"/><path class="st6" d="M178 317.6v4.1l15.5 8.9v-4z"/><path class="st8" d="M213.4 320.1l-15.5 9 15.6 9 15.4-9z"/><path class="st5" d="M213.5 338.1l-.1 4.1 15.5-9v-4.1z"/><path class="st6" d="M197.9 329.1v4.1l15.5 9 .1-4.1z"/><path class="st8" d="M233.3 331.6l-15.4 9 15.5 9 15.4-9z"/><path class="st5" d="M233.4 349.6v4.1l15.4-9v-4.1z"/><path class="st6" d="M217.9 340.6l-.1 4.1 15.6 9v-4.1z"/><path class="st8" d="M253.2 343.2l-15.4 8.9 15.5 9 15.5-9z"/><path class="st5" d="M253.3 361.1v4.1l15.4-9 .1-4.1z"/><path class="st6" d="M237.8 352.1v4.1l15.5 9v-4.1z"/><path class="st8" d="M273.1 354.7l-15.4 8.9 15.5 9 15.5-9z"/><path class="st5" d="M273.2 372.6v4.1l15.5-9v-4.1z"/><path class="st6" d="M257.7 363.6v4.1l15.5 9v-4.1z"/><path class="st8" d="M293.2 384.1l15.4-9-15.5-8.9-15.5 8.9z"/><path class="st5" d="M293.2 384.1v4.1l15.4-9v-4.1z"/><path class="st6" d="M277.6 375.1v4.1l15.6 9v-4.1z"/><path class="st8" d="M313.1 395.6l15.4-9-15.5-8.9-15.4 8.9z"/><path class="st5" d="M313.1 395.6v4.1l15.4-9v-4.1z"/><path class="st6" d="M297.6 386.6v4.1l15.5 9v-4.1z"/><path class="st8" d="M333 407.1l15.5-8.9-15.6-9-15.4 9z"/><path class="st5" d="M333 407.1v4.1l15.5-9v-4z"/><path class="st6" d="M317.5 398.2v4l15.5 9v-4.1z"/><path class="st8" d="M337.4 409.7l15.6 8.9 15.4-8.9-15.5-9z"/><path class="st5" d="M353 418.6l-.1 4.1 15.5-9v-4z"/><path class="st6" d="M337.4 409.7v4l15.5 9 .1-4.1z"/><path class="st8" d="M94.3 291.9l15.4-9-15.5-8.9-15.5 8.9z"/><path class="st5" d="M94.3 291.9l-.1 4.1 15.5-9v-4.1z"/><path class="st6" d="M78.7 282.9v4.1l15.5 9 .1-4.1z"/><path class="st8" d="M114.2 303.4l15.4-9-15.5-8.9-15.4 8.9z"/><path class="st5" d="M114.2 303.4v4.1l15.4-9v-4.1z"/><path class="st6" d="M98.7 294.4l-.1 4.1 15.6 9v-4.1z"/><path class="st8" d="M134.1 314.9l15.4-9L134 297l-15.4 8.9z"/><path class="st5" d="M134.1 314.9v4.1l15.4-9v-4.1z"/><path class="st6" d="M118.6 305.9v4.1l15.5 9v-4.1z"/><path class="st8" d="M154 308.5l-15.5 9 15.5 8.9 15.5-8.9z"/><path class="st5" d="M154 326.4v4.1l15.5-9v-4z"/><path class="st6" d="M138.5 317.5v4l15.5 9v-4.1z"/><path class="st8" d="M173.9 320l-15.4 9 15.5 8.9 15.4-8.9z"/><path class="st5" d="M174 337.9v4.1l15.4-9v-4z"/><path class="st6" d="M158.5 329l-.1 4 15.6 9v-4.1z"/><path class="st8" d="M193.8 331.5l-15.4 9 15.5 8.9 15.4-8.9z"/><path class="st5" d="M193.9 349.4v4.1l15.4-9v-4z"/><path class="st6" d="M178.4 340.5v4l15.5 9v-4.1z"/><path class="st8" d="M213.7 343l-15.4 9 15.5 8.9 15.5-8.9z"/><path class="st5" d="M213.8 360.9v4.1l15.5-8.9V352z"/><path class="st6" d="M198.3 352v4.1l15.5 8.9v-4.1z"/><path class="st8" d="M233.7 354.5l-15.5 9 15.6 8.9 15.4-8.9z"/><path class="st5" d="M233.8 372.4v4.1l15.4-8.9v-4.1z"/><path class="st6" d="M218.2 363.5v4.1l15.6 8.9v-4.1z"/><path class="st8" d="M253.6 366l-15.4 9 15.5 9 15.4-9z"/><path class="st5" d="M253.7 384v4l15.4-8.9V375z"/><path class="st6" d="M238.2 375v4.1l15.5 8.9v-4z"/><path class="st8" d="M273.6 395.5l15.5-9-15.6-9-15.4 9z"/><path class="st5" d="M273.6 395.5v4l15.5-8.9v-4.1z"/><path class="st6" d="M258.1 386.5v4.1l15.5 8.9v-4z"/><path class="st8" d="M293.6 407l15.4-9-15.5-9-15.5 9z"/><path class="st5" d="M293.6 407v4l15.4-8.9V398z"/><path class="st6" d="M278 398v4.1l15.6 8.9v-4z"/><path class="st8" d="M313.5 418.5l15.4-9-15.5-9-15.4 9z"/><path class="st5" d="M313.5 418.5v4.1l15.4-9v-4.1z"/><path class="st6" d="M298 409.5l-.1 4.1 15.6 9v-4.1z"/><path class="st8" d="M333.4 430l15.5-9-15.6-9-15.4 9z"/><path class="st5" d="M333.4 430v4.1l15.4-9 .1-4.1z"/><path class="st6" d="M317.9 421v4.1l15.5 9V430z"/><path class="st8" d="M74.7 303.3l15.4-9-15.5-9-15.4 9z"/><path class="st5" d="M74.7 303.3v4l15.4-8.9v-4.1z"/><path class="st6" d="M59.2 294.3v4.1l15.5 8.9v-4z"/><path class="st8" d="M94.6 314.8l15.5-9-15.6-9-15.4 9z"/><path class="st5" d="M94.6 314.8v4l15.5-8.9v-4.1z"/><path class="st6" d="M79.1 305.8v4.1l15.5 8.9v-4z"/><path class="st8" d="M114.6 326.3l15.4-9-15.5-9-15.5 9z"/><path class="st5" d="M114.6 326.3v4.1l15.4-9v-4.1z"/><path class="st6" d="M99 317.3v4.1l15.6 9v-4.1z"/><path class="st8" d="M134.4 319.8l-15.4 9 15.5 9 15.4-9z"/><path class="st5" d="M134.5 337.8v4.1l15.4-9v-4.1z"/><path class="st6" d="M119 328.8v4.1l15.5 9v-4.1z"/><path class="st8" d="M154.3 331.4l-15.4 8.9 15.5 9 15.5-9z"/><path class="st5" d="M154.4 349.3v4.1l15.5-9v-4.1z"/><path class="st6" d="M138.9 340.3v4.1l15.5 9v-4.1z"/><path class="st8" d="M174.3 342.9l-15.5 8.9 15.6 9 15.4-9z"/><path class="st5" d="M174.4 360.8v4.1l15.4-9v-4.1z"/><path class="st6" d="M158.8 351.8v4.1l15.6 9v-4.1z"/><path class="st8" d="M194.2 354.4l-15.4 8.9 15.5 9 15.4-9z"/><path class="st5" d="M194.3 372.3v4.1l15.4-9v-4.1z"/><path class="st6" d="M178.8 363.3v4.1l15.5 9v-4.1z"/><path class="st8" d="M214.1 365.9l-15.4 8.9 15.5 9 15.4-9z"/><path class="st5" d="M214.2 383.8v4.1l15.4-9v-4.1z"/><path class="st6" d="M198.7 374.8v4.1l15.5 9v-4.1z"/><path class="st8" d="M234 377.4l-15.4 8.9 15.5 9 15.5-9z"/><path class="st5" d="M234.1 395.3v4.1l15.5-9v-4.1z"/><path class="st6" d="M218.6 386.3v4.1l15.5 9v-4.1z"/><path class="st8" d="M254.1 406.8l15.4-8.9-15.5-9-15.5 9z"/><path class="st5" d="M254.1 406.8v4.1l15.4-9v-4z"/><path class="st6" d="M238.5 397.9v4l15.6 9v-4.1z"/><path class="st8" d="M274 418.3l15.4-8.9-15.5-9-15.4 9z"/><path class="st5" d="M274 418.3v4.1l15.4-9v-4z"/><path class="st6" d="M258.5 409.4v4l15.5 9v-4.1z"/><path class="st8" d="M293.9 429.8l15.5-8.9-15.6-9-15.4 9z"/><path class="st5" d="M293.9 429.8v4.1l15.5-9v-4z"/><path class="st6" d="M278.4 420.9v4l15.5 9v-4.1z"/><path class="st8" d="M313.9 441.3l15.4-8.9-15.5-9-15.5 9z"/><path class="st5" d="M313.9 441.3v4.1l15.4-9v-4z"/><path class="st6" d="M298.3 432.4v4l15.6 9v-4.1z"/><path class="st8" d="M234.5 418.2l15.5-9-135.1-78-15.5 9z"/><path class="st5" d="M234.5 418.2v4.1l15.5-9v-4.1z"/><path class="st6" d="M99.4 340.2v4.1l135.1 78v-4.1z"/><path class="st3" d="M464.8 430.7l21.1-12.6-170.6-98.5-21 12.6z"/><path fill="#ecf0f1" d="M294.3 143l-.4 134.1 30.7 17.7-.1 35.2 30.7-17.5 109.3 63.1.3-134.2z"/><path fill="#bdc3c7" d="M464.5 375.6l21-12.6.4-134.1-21.1 12.5z"/><path fill="#fff" d="M464.8 241.4l21.1-12.5-170.6-98.5-21 12.6z"/></svg>