<svg id="Layer_1" data-name="Layer 1" xmlns="http://www.w3.org/2000/svg" viewBox="0 0 500 500"><defs><style>.cls-1{isolation:isolate;}.cls-2{fill:#69a7db;}.cls-3{fill:#8db9e3;}.cls-4{fill:#b1cdeb;}.cls-5,.cls-7{opacity:0.3;}.cls-6,.cls-7,.cls-8{fill:#1a73a0;}.cls-8{opacity:0.7;}.cls-9{fill:#d6e3f4;}</style></defs><title>spot</title><g class="cls-1"><polygon class="cls-2" points="239.09 187.06 217.95 174.77 218.03 201.21 239.17 213.49 239.09 187.06"/><polygon class="cls-3" points="215.81 99.65 216.09 200.34 239.09 187.06 239.17 213.49 262.1 173.78 344.09 126.44 343.8 25.75 215.81 99.65"/><polygon class="cls-2" points="215.81 99.65 194.66 87.36 194.95 188.05 216.09 200.34 215.81 99.65"/><polygon class="cls-4" points="343.8 25.75 322.66 13.46 194.66 87.36 215.81 99.65 343.8 25.75"/><g class="cls-5"><polygon class="cls-6" points="343.8 252.27 322.66 239.98 194.66 313.88 215.81 326.17 343.8 252.27"/></g></g><polygon class="cls-7" points="190.01 486.54 72.29 417.34 355.37 253.91 473.08 323.11 190.01 486.54"/><polygon class="cls-4" points="100.09 410.8 202.79 470.48 485.87 307.04 383.17 247.36 100.09 410.8"/><polygon class="cls-2" points="100.09 410.8 100.12 418.95 202.81 478.63 202.79 470.48 100.09 410.8"/><polygon class="cls-3" points="202.79 470.48 202.81 478.63 485.89 315.19 485.87 307.04 202.79 470.48"/><path class="cls-8" d="M384,285.85l-15.43-9,15.53-9,15.44,9Zm-4.4,2.54-15.43-9-15.53,9,15.43,9ZM359.69,299.9l-15.44-9-15.53,9,15.43,9Zm-50.9,11.5,15.43,9,15.53-9-15.43-9Zm-19.94,11.51,15.44,9,15.53-9-15.43-9Zm-19.92,11.51,15.43,9,15.53-9-15.43-9ZM249,345.92l15.44,9,15.53-9-15.43-9Zm-19.92,11.51,15.43,9,15.53-9-15.43-9Zm-19.94,11.51,15.44,9,15.53-9-15.43-9Zm11,11.51-15.43-9-15.54,9,15.43,9ZM200.24,392l-15.43-9-15.54,9,15.44,9Zm-19.93,11.51-15.43-9-15.54,9,15.43,9ZM145,406l-15.53,9,15.43,9,15.53-9ZM419.09,288.24l-15.43-9-15.54,9,15.43,9Zm-19.93,11.51-15.44-9-15.53,9,15.43,9Zm-19.93,11.5-15.43-9-15.54,9,15.44,9Zm-50.9,11.51,15.43,9,15.54-9-15.44-9ZM308.4,334.27l15.43,9,15.53-9-15.43-9Zm-19.93,11.5,15.43,9,15.54-9-15.44-9Zm-19.93,11.51,15.43,9,15.53-9-15.43-9Zm-19.93,11.51,15.43,9,15.54-9-15.44-9Zm-19.93,11.5,15.43,9,15.53-9-15.43-9Zm11,11.51-15.43-9-15.54,9,15.44,9Zm-19.92,11.51-15.44-9-15.53,9,15.43,9Zm-19.94,11.51-15.43-9-15.53,9,15.43,9Zm-19.92,11.5-15.44-9-15.53,9,15.43,9ZM438.64,299.6l-15.43-9-15.54,9,15.43,9Zm-19.93,11.51-15.44-9-15.53,9,15.43,9Zm-19.93,11.5-15.43-9-15.54,9,15.43,9Zm-50.9,11.51,15.43,9,15.54-9-15.44-9ZM328,345.63l15.43,9,15.53-9-15.43-9ZM308,357.13l15.43,9,15.54-9-15.44-9Zm-19.93,11.51,15.43,9,15.53-9-15.43-9Zm-19.93,11.51,15.43,9,15.54-9-15.44-9Zm-19.93,11.51,15.43,9,15.53-9-15.43-9Zm11,11.5-15.43-9-15.54,9,15.44,9Zm-19.93,11.51-15.43-9-15.53,9,15.43,9ZM219.4,426.18l-15.43-9-15.54,9,15.44,9Zm-19.92,11.5-15.44-9-15.53,9,15.43,9Zm198.92-92.2-15.44-9-135.12,78,15.44,9Z"/><g class="cls-1"><polygon class="cls-9" points="401.73 271.57 386.3 262.6 370.77 271.57 386.2 280.54 401.73 271.57"/><polygon class="cls-3" points="370.77 271.57 370.78 275.65 386.21 284.61 386.2 280.54 370.77 271.57"/><polygon class="cls-3" points="386.2 280.54 386.21 284.61 401.74 275.65 401.73 271.57 386.2 280.54"/></g><g class="cls-1"><polygon class="cls-9" points="381.8 283.08 366.37 274.11 350.83 283.08 366.27 292.05 381.8 283.08"/><polygon class="cls-3" points="350.83 283.08 350.85 287.15 366.28 296.12 366.27 292.05 350.83 283.08"/><polygon class="cls-3" points="366.27 292.05 366.28 296.12 381.81 287.15 381.8 283.08 366.27 292.05"/></g><g class="cls-1"><polygon class="cls-9" points="361.87 294.58 346.44 285.61 330.91 294.58 346.34 303.55 361.87 294.58"/><polygon class="cls-3" points="330.91 294.58 330.92 298.66 346.35 307.63 346.34 303.55 330.91 294.58"/><polygon class="cls-3" points="346.34 303.55 346.35 307.63 361.88 298.66 361.87 294.58 346.34 303.55"/></g><g class="cls-1"><polygon class="cls-9" points="310.97 306.09 326.41 315.06 341.94 306.09 326.51 297.12 310.97 306.09"/><polygon class="cls-3" points="310.97 306.09 310.99 310.17 326.42 319.14 326.41 315.06 310.97 306.09"/><polygon class="cls-3" points="326.41 315.06 326.42 319.14 341.95 310.17 341.94 306.09 326.41 315.06"/></g><g class="cls-1"><polygon class="cls-9" points="291.04 317.6 306.47 326.57 322.01 317.6 306.57 308.63 291.04 317.6"/><polygon class="cls-3" points="291.04 317.6 291.05 321.68 306.49 330.64 306.47 326.57 291.04 317.6"/><polygon class="cls-3" points="306.47 326.57 306.49 330.64 322.02 321.68 322.01 317.6 306.47 326.57"/></g><g class="cls-1"><polygon class="cls-9" points="271.11 329.1 286.55 338.07 302.08 329.1 286.65 320.13 271.11 329.1"/><polygon class="cls-3" points="271.11 329.1 271.13 333.18 286.56 342.15 286.55 338.07 271.11 329.1"/><polygon class="cls-3" points="286.55 338.07 286.56 342.15 302.09 333.18 302.08 329.1 286.55 338.07"/></g><g class="cls-1"><polygon class="cls-9" points="251.18 340.61 266.61 349.58 282.15 340.61 266.71 331.64 251.18 340.61"/><polygon class="cls-3" points="251.18 340.61 251.19 344.69 266.63 353.66 266.61 349.58 251.18 340.61"/><polygon class="cls-3" points="266.61 349.58 266.63 353.66 282.16 344.69 282.15 340.61 266.61 349.58"/></g><g class="cls-1"><polygon class="cls-9" points="231.25 352.12 246.69 361.08 262.22 352.12 246.79 343.15 231.25 352.12"/><polygon class="cls-3" points="231.25 352.12 231.27 356.19 246.7 365.16 246.69 361.08 231.25 352.12"/><polygon class="cls-3" points="246.69 361.08 246.7 365.16 262.23 356.19 262.22 352.12 246.69 361.08"/></g><g class="cls-1"><polygon class="cls-9" points="211.32 363.63 226.75 372.59 242.29 363.63 226.86 354.66 211.32 363.63"/><polygon class="cls-3" points="211.32 363.63 211.33 367.7 226.77 376.67 226.75 372.59 211.32 363.63"/><polygon class="cls-3" points="226.75 372.59 226.77 376.67 242.3 367.7 242.29 363.63 226.75 372.59"/></g><g class="cls-1"><polygon class="cls-9" points="222.36 375.13 206.92 366.17 191.39 375.13 206.82 384.1 222.36 375.13"/><polygon class="cls-3" points="191.39 375.13 191.4 379.21 206.83 388.18 206.82 384.1 191.39 375.13"/><polygon class="cls-4" points="206.82 384.1 206.83 388.18 222.37 379.21 222.36 375.13 206.82 384.1"/></g><g class="cls-1"><polygon class="cls-9" points="202.43 386.64 187 377.67 171.46 386.64 186.9 395.61 202.43 386.64"/><polygon class="cls-3" points="171.46 386.64 171.47 390.71 186.91 399.68 186.9 395.61 171.46 386.64"/><polygon class="cls-4" points="186.9 395.61 186.91 399.68 202.44 390.71 202.43 386.64 186.9 395.61"/></g><g class="cls-1"><polygon class="cls-9" points="182.5 398.15 167.06 389.18 151.53 398.15 166.96 407.12 182.5 398.15"/><polygon class="cls-3" points="151.53 398.15 151.54 402.22 166.97 411.19 166.96 407.12 151.53 398.15"/><polygon class="cls-4" points="166.96 407.12 166.97 411.19 182.51 402.22 182.5 398.15 166.96 407.12"/></g><g class="cls-1"><polygon class="cls-9" points="147.14 400.68 131.6 409.65 147.04 418.62 162.57 409.65 147.14 400.68"/><polygon class="cls-3" points="131.6 409.65 131.61 413.73 147.05 422.69 147.04 418.62 131.6 409.65"/><polygon class="cls-4" points="147.04 418.62 147.05 422.69 162.58 413.73 162.57 409.65 147.04 418.62"/></g><g class="cls-1"><polygon class="cls-9" points="421.28 282.93 405.84 273.96 390.31 282.93 405.74 291.9 421.28 282.93"/><polygon class="cls-3" points="390.31 282.93 390.32 287 405.75 295.97 405.74 291.9 390.31 282.93"/><polygon class="cls-3" points="405.74 291.9 405.75 295.97 421.29 287 421.28 282.93 405.74 291.9"/></g><g class="cls-1"><polygon class="cls-9" points="401.34 294.44 385.91 285.47 370.38 294.44 385.81 303.4 401.34 294.44"/><polygon class="cls-3" points="370.38 294.44 370.39 298.51 385.82 307.48 385.81 303.4 370.38 294.44"/><polygon class="cls-3" points="385.81 303.4 385.82 307.48 401.36 298.51 401.34 294.44 385.81 303.4"/></g><g class="cls-1"><polygon class="cls-9" points="381.42 305.94 365.98 296.97 350.45 305.94 365.88 314.91 381.42 305.94"/><polygon class="cls-3" points="350.45 305.94 350.46 310.02 365.89 318.99 365.88 314.91 350.45 305.94"/><polygon class="cls-3" points="365.88 314.91 365.89 318.99 381.43 310.02 381.42 305.94 365.88 314.91"/></g><g class="cls-1"><polygon class="cls-9" points="330.52 317.45 345.95 326.42 361.48 317.45 346.05 308.48 330.52 317.45"/><polygon class="cls-3" points="330.52 317.45 330.53 321.52 345.96 330.49 345.95 326.42 330.52 317.45"/><polygon class="cls-3" points="345.95 326.42 345.96 330.49 361.5 321.52 361.48 317.45 345.95 326.42"/></g><g class="cls-1"><polygon class="cls-9" points="310.58 328.96 326.02 337.93 341.55 328.96 326.12 319.99 310.58 328.96"/><polygon class="cls-3" points="310.58 328.96 310.6 333.03 326.03 342 326.02 337.93 310.58 328.96"/><polygon class="cls-3" points="326.02 337.93 326.03 342 341.56 333.03 341.55 328.96 326.02 337.93"/></g><g class="cls-1"><polygon class="cls-9" points="290.66 340.46 306.09 349.43 321.62 340.46 306.19 331.49 290.66 340.46"/><polygon class="cls-3" points="290.66 340.46 290.67 344.54 306.1 353.51 306.09 349.43 290.66 340.46"/><polygon class="cls-3" points="306.09 349.43 306.1 353.51 321.64 344.54 321.62 340.46 306.09 349.43"/></g><g class="cls-1"><polygon class="cls-9" points="270.73 351.97 286.16 360.94 301.69 351.97 286.26 343 270.73 351.97"/><polygon class="cls-3" points="270.73 351.97 270.74 356.05 286.17 365.01 286.16 360.94 270.73 351.97"/><polygon class="cls-3" points="286.16 360.94 286.17 365.01 301.7 356.05 301.69 351.97 286.16 360.94"/></g><g class="cls-1"><polygon class="cls-9" points="250.8 363.47 266.23 372.44 281.76 363.47 266.33 354.51 250.8 363.47"/><polygon class="cls-3" points="250.8 363.47 250.81 367.55 266.24 376.52 266.23 372.44 250.8 363.47"/><polygon class="cls-3" points="266.23 372.44 266.24 376.52 281.78 367.55 281.76 363.47 266.23 372.44"/></g><g class="cls-1"><polygon class="cls-9" points="230.87 374.98 246.3 383.95 261.83 374.98 246.4 366.01 230.87 374.98"/><polygon class="cls-3" points="230.87 374.98 230.88 379.06 246.31 388.03 246.3 383.95 230.87 374.98"/><polygon class="cls-3" points="246.3 383.95 246.31 388.03 261.84 379.06 261.83 374.98 246.3 383.95"/></g><g class="cls-1"><polygon class="cls-9" points="241.9 386.49 226.47 377.52 210.93 386.49 226.37 395.46 241.9 386.49"/><polygon class="cls-3" points="210.93 386.49 210.94 390.57 226.38 399.54 226.37 395.46 210.93 386.49"/><polygon class="cls-4" points="226.37 395.46 226.38 399.54 241.91 390.57 241.9 386.49 226.37 395.46"/></g><g class="cls-1"><polygon class="cls-9" points="221.97 398 206.54 389.03 191.01 398 206.44 406.96 221.97 398"/><polygon class="cls-3" points="191.01 398 191.02 402.07 206.45 411.04 206.44 406.96 191.01 398"/><polygon class="cls-4" points="206.44 406.96 206.45 411.04 221.98 402.07 221.97 398 206.44 406.96"/></g><g class="cls-1"><polygon class="cls-9" points="202.04 409.5 186.61 400.54 171.07 409.5 186.51 418.47 202.04 409.5"/><polygon class="cls-3" points="171.07 409.5 171.08 413.58 186.52 422.55 186.51 418.47 171.07 409.5"/><polygon class="cls-4" points="186.51 418.47 186.52 422.55 202.05 413.58 202.04 409.5 186.51 418.47"/></g><g class="cls-1"><polygon class="cls-9" points="182.11 421.01 166.68 412.04 151.15 421.01 166.58 429.98 182.11 421.01"/><polygon class="cls-3" points="151.15 421.01 151.16 425.08 166.59 434.05 166.58 429.98 151.15 421.01"/><polygon class="cls-4" points="166.58 429.98 166.59 434.05 182.13 425.08 182.11 421.01 166.58 429.98"/></g><g class="cls-1"><polygon class="cls-9" points="440.83 294.29 425.39 285.32 409.86 294.29 425.29 303.26 440.83 294.29"/><polygon class="cls-3" points="409.86 294.29 409.87 298.36 425.3 307.33 425.29 303.26 409.86 294.29"/><polygon class="cls-3" points="425.29 303.26 425.3 307.33 440.84 298.36 440.83 294.29 425.29 303.26"/></g><g class="cls-1"><polygon class="cls-9" points="420.89 305.8 405.46 296.83 389.93 305.8 405.36 314.76 420.89 305.8"/><polygon class="cls-3" points="389.93 305.8 389.94 309.87 405.37 318.84 405.36 314.76 389.93 305.8"/><polygon class="cls-3" points="405.36 314.76 405.37 318.84 420.9 309.87 420.89 305.8 405.36 314.76"/></g><g class="cls-1"><polygon class="cls-9" points="400.97 317.3 385.53 308.33 370 317.3 385.43 326.27 400.97 317.3"/><polygon class="cls-3" points="370 317.3 370.01 321.38 385.44 330.35 385.43 326.27 370 317.3"/><polygon class="cls-3" points="385.43 326.27 385.44 330.35 400.98 321.38 400.97 317.3 385.43 326.27"/></g><g class="cls-1"><polygon class="cls-9" points="350.07 328.81 365.5 337.78 381.03 328.81 365.6 319.84 350.07 328.81"/><polygon class="cls-3" points="350.07 328.81 350.08 332.88 365.51 341.85 365.5 337.78 350.07 328.81"/><polygon class="cls-3" points="365.5 337.78 365.51 341.85 381.05 332.88 381.03 328.81 365.5 337.78"/></g><g class="cls-1"><polygon class="cls-9" points="330.13 340.32 345.57 349.29 361.1 340.32 345.67 331.35 330.13 340.32"/><polygon class="cls-3" points="330.13 340.32 330.14 344.39 345.58 353.36 345.57 349.29 330.13 340.32"/><polygon class="cls-3" points="345.57 349.29 345.58 353.36 361.11 344.39 361.1 340.32 345.57 349.29"/></g><g class="cls-1"><polygon class="cls-9" points="310.21 351.82 325.64 360.79 341.17 351.82 325.74 342.85 310.21 351.82"/><polygon class="cls-3" points="310.21 351.82 310.22 355.9 325.65 364.87 325.64 360.79 310.21 351.82"/><polygon class="cls-3" points="325.64 360.79 325.65 364.87 341.19 355.9 341.17 351.82 325.64 360.79"/></g><g class="cls-1"><polygon class="cls-9" points="290.27 363.33 305.71 372.3 321.24 363.33 305.81 354.36 290.27 363.33"/><polygon class="cls-3" points="290.27 363.33 290.29 367.41 305.72 376.38 305.71 372.3 290.27 363.33"/><polygon class="cls-3" points="305.71 372.3 305.72 376.38 321.25 367.41 321.24 363.33 305.71 372.3"/></g><g class="cls-1"><polygon class="cls-9" points="270.35 374.83 285.78 383.8 301.31 374.83 285.88 365.87 270.35 374.83"/><polygon class="cls-3" points="270.35 374.83 270.36 378.91 285.79 387.88 285.78 383.8 270.35 374.83"/><polygon class="cls-3" points="285.78 383.8 285.79 387.88 301.33 378.91 301.31 374.83 285.78 383.8"/></g><g class="cls-1"><polygon class="cls-9" points="250.41 386.34 265.85 395.31 281.38 386.34 265.95 377.38 250.41 386.34"/><polygon class="cls-3" points="250.41 386.34 250.43 390.42 265.86 399.39 265.85 395.31 250.41 386.34"/><polygon class="cls-3" points="265.85 395.31 265.86 399.39 281.39 390.42 281.38 386.34 265.85 395.31"/></g><g class="cls-1"><polygon class="cls-9" points="261.45 397.85 246.02 388.88 230.48 397.85 245.91 406.82 261.45 397.85"/><polygon class="cls-3" points="230.48 397.85 230.49 401.93 245.93 410.9 245.91 406.82 230.48 397.85"/><polygon class="cls-4" points="245.91 406.82 245.93 410.9 261.46 401.93 261.45 397.85 245.91 406.82"/></g><g class="cls-1"><polygon class="cls-9" points="241.52 409.36 226.09 400.39 210.56 409.36 225.99 418.32 241.52 409.36"/><polygon class="cls-3" points="210.56 409.36 210.57 413.43 226 422.4 225.99 418.32 210.56 409.36"/><polygon class="cls-4" points="225.99 418.32 226 422.4 241.53 413.43 241.52 409.36 225.99 418.32"/></g><g class="cls-1"><polygon class="cls-9" points="221.59 420.87 206.16 411.9 190.62 420.87 206.06 429.83 221.59 420.87"/><polygon class="cls-3" points="190.62 420.87 190.63 424.94 206.07 433.91 206.06 429.83 190.62 420.87"/><polygon class="cls-4" points="206.06 429.83 206.07 433.91 221.6 424.94 221.59 420.87 206.06 429.83"/></g><g class="cls-1"><polygon class="cls-9" points="201.66 432.37 186.23 423.4 170.7 432.37 186.13 441.34 201.66 432.37"/><polygon class="cls-3" points="170.7 432.37 170.71 436.44 186.14 445.41 186.13 441.34 170.7 432.37"/><polygon class="cls-4" points="186.13 441.34 186.14 445.41 201.67 436.44 201.66 432.37 186.13 441.34"/></g><g class="cls-1"><polygon class="cls-9" points="400.58 340.17 385.15 331.2 250.03 409.21 265.46 418.18 400.58 340.17"/><polygon class="cls-3" points="250.03 409.21 250.04 413.29 265.48 422.26 265.46 418.18 250.03 409.21"/><polygon class="cls-4" points="265.46 418.18 265.48 422.26 400.6 344.25 400.58 340.17 265.46 418.18"/></g><g class="cls-1"><g class="cls-5"><polygon class="cls-6" points="205.71 332.19 184.66 319.61 14.11 418.08 35.16 430.65 205.71 332.19"/></g><polygon class="cls-4" points="35.16 241.43 35.54 375.59 144.79 312.51 175.54 330.04 175.44 294.82 206.09 277.12 205.71 142.96 35.16 241.43"/><polygon class="cls-3" points="35.16 241.43 14.11 228.85 14.49 363.01 35.54 375.59 35.16 241.43"/><polygon class="cls-9" points="205.71 142.96 184.66 130.38 14.11 228.85 35.16 241.43 205.71 142.96"/></g></svg>