<svg id="Layer_1" xmlns="http://www.w3.org/2000/svg" viewBox="0 0 500 500"><style>.st4{fill:#236487}.st5{enable-background:new}.st6{fill:#fff}.st7{fill:#ede6ce}.st8{fill:#f6f3e7}.st9{fill:#3d98d3}</style><linearGradient id="SVGID_1_" gradientUnits="userSpaceOnUse" x1="281.495" y1="391.11" x2="540.192" y2="181.622"><stop offset=".218" stop-color="#ccc" stop-opacity=".5"/><stop offset=".479" stop-color="#d9d9d9" stop-opacity=".333"/><stop offset=".964" stop-color="#fcfcfc" stop-opacity=".023"/><stop offset="1" stop-color="#fff" stop-opacity="0"/></linearGradient><path fill="url(#SVGID_1_)" d="M209.2 301.9L499 130.8l2 230.3-96.4 59z"/><g opacity=".2"><linearGradient id="SVGID_2_" gradientUnits="userSpaceOnUse" x1="96.278" y1="398.646" x2="402.459" y2="398.646"><stop offset=".218" stop-color="#ccc"/><stop offset=".479" stop-color="#d9d9d9" stop-opacity=".666"/><stop offset=".964" stop-color="#fcfcfc" stop-opacity=".047"/><stop offset="1" stop-color="#fff" stop-opacity="0"/></linearGradient><path d="M399.1 417.6c-.5-.3-1-.5-1.7-.8l-2.1-1.2c-2.8-1.1-5.8-2.1-8.8-3-5.7-1.8-11.1-4-16-6.4-1.3-1-2.1-2.3-2.2-3.6l-3.6-1.8c1.1-1 2.2-2 3.3-3.1l-20.8-12c-1.3 1.5-2.6 2.9-4.1 4.3l-42.2-21.4c-.4-.3-.8-.5-1.3-.8-3.2-2.4-2.5-5.8 1.5-7.7.3-.1.6-.2.9-.4l-54.2-31.2-53.5 31.6c.8.2 1.5.6 2.1.9 2.2 1.3 3.3 3.2 2.6 5-.4 1.2-1.6 2.3-3.2 3l-41.6 22c-1.6-1.5-3.1-3-4.5-4.6l-20.4 12c1.3 1.2 2.6 2.4 4 3.6-1.1.5-3 1.6-3.6 1.9.2 1.3-.5 2.5-1.9 3.5-4.9 2.5-10.2 4.7-15.8 6.5-3 .9-6 1.9-8.8 3.1-.7.3-1.6.8-2.4 1.1-5 2.1-6.1 6.1-2.2 9.4 4.3 2.5 11.1 2.6 15.8.1.7-.3 1.5-.7 2.1-1 2.5-1.4 4.8-2.8 7-4.4 4.4-2.8 9.2-5.3 14.4-7.6 2.1-.5 4.3-.7 6.5-.4l3.7-1.5 2.1 1.2c3.9 2.3 8.1 4.4 12.4 6.4 21.6 9.8 47.8 15.7 75.2 16.9l.3 2.7 1.2.6c1.2.7 2 1.6 2.3 2.5.3 3.8 0 7.5-1 11.2-.6 1.9-1.1 3.9-1.4 5.9v1.8c0 1.6.9 3.1 2.5 4.4.3.3.7.5 1 .7 1.9 1.1 4.5 1.7 7.3 1.7 6.2-.2 11-3.3 10.6-6.9v-1.6c-.3-2-.9-3.9-1.6-5.9-1.2-3.7-1.7-7.5-1.5-11.3.6-1.2 1.8-2.3 3.4-3.2l.2-2.7c33.9-1.8 65.5-10.9 88.6-25.4l3.9 1.6c2.2-.2 4.4 0 6.5.4 4.2 1.8 8.1 3.7 11.8 5.8 1 .6 1.9 1.1 2.8 1.7 1.6 1.1 3.3 2.1 5 3.2l2.1 1.2 2.5 1.2c4.3 2.4 11.1 2.2 15.2-.3 4.1-2.6 3.9-6.4-.4-8.9zm-219.3-10.1c-3-1.4-5.9-2.9-8.6-4.5l45.5-19 .2.1c3.8-1.6 9-1.4 12.3.5l.9.6c1.1.9 1.8 1.9 1.9 3l3.8 32.6c-20.5-1.3-39.9-5.9-56-13.3zm82.9 13.2l2.5-32.7.2-.1c.2-3 4.5-5.4 9.8-5.3 1.9 0 3.6.4 5.3 1l46.2 18.6c-17.2 10.2-39.7 16.6-64 18.5z" fill="url(#SVGID_2_)"/></g><path fill="#69a7db" d="M51.5 403.3l198.1-117.7 198.1 117.7 6.2-3.5.7-260.3L267.2 31.3h-34.9L46.1 139.5l-.8 260.3z"/><path class="st4" d="M51.5 403.3l.8-260.2L233.9 37.5h31.6l182.9 105.6-.7 260.2-198.1-125.1z"/><g class="st5"><path class="st6" d="M442.2 146.7l-34.6 20.1-143.5-82.9c-19.2-11.1-19.3-29.1-.2-40.2l178.3 103z"/><path class="st7" d="M442.2 146.7l-.7 253-34.6 20.2.7-253.1z"/><path class="st8" d="M264.1 83.9c-9.7-5.6-14.5-12.9-14.5-20.3l-.7 253.1c0 7.3 4.8 14.7 14.5 20.3l143.5 82.8.7-253.1-143.5-82.8z"/></g><path class="st9" d="M448.4 143.1l-.7 260.2 6.2-3.5.7-260.3z"/><path class="st4" d="M46.1 399.7l-.8-260.2 6.2 3.6.8 260.2z"/><path class="st9" d="M233.9 288.1L51.5 403.3l.8-260.2L233.9 37.5z"/><g class="st5"><path class="st6" d="M235.6 43.7c19.2 11.1 19.3 29.1.2 40.2L93.3 166.8l-34.8-20.1 177.1-103z"/><path class="st7" d="M250.1 64.8c0 .2 0 .5-.1.7 0 .2-.1.4-.1.6 0 .2-.1.5-.1.7 0 .2-.1.4-.1.6-.1.2-.1.5-.2.7-.1.2-.1.4-.2.6-.1.2-.2.5-.2.7-.1.2-.2.4-.2.6-.1.2-.2.5-.3.7l-.3.6c-.1.2-.2.5-.4.7l-.3.6c-.2.3-.4.6-.5.9-.1.2-.2.4-.3.5-.2.3-.5.6-.7.9-.1.1-.2.3-.3.4-.4.5-.8 1-1.3 1.5-.1.1-.2.3-.4.4l-1.1 1.1c-.2.2-.4.3-.5.5-.2.2-.5.4-.7.6-.2.2-.4.4-.7.6-.3.2-.5.4-.8.6-.2.2-.5.4-.7.5-.3.2-.5.4-.8.6-.3.2-.5.4-.8.5l-.9.6c-.4.2-.7.5-1.1.7L93.3 166.8l-.7 253.1L235.1 337c.2-.1.4-.2.6-.4.2-.1.4-.2.5-.3l.9-.6c.3-.2.5-.4.8-.5.3-.2.6-.4.8-.6.2-.2.5-.4.7-.5.3-.2.5-.4.8-.6.2-.2.5-.4.7-.6.2-.2.5-.4.7-.6l.3-.3.2-.2c.4-.4.8-.7 1.1-1.1l.4-.4c.5-.5.9-1 1.3-1.5l.1-.1.3-.3c.2-.3.5-.6.7-1 .1-.2.2-.4.3-.5.2-.3.4-.6.5-.9.1-.1.1-.2.1-.3.1-.1.1-.2.2-.3.1-.2.3-.5.4-.7l.3-.6c.1-.2.2-.5.3-.7 0-.1.1-.2.1-.4 0-.1.1-.2.1-.3.1-.2.2-.5.2-.7.1-.2.1-.4.2-.6.1-.2.1-.5.2-.7 0-.2.1-.3.1-.5v-.2c0-.2.1-.5.1-.7 0-.2.1-.4.1-.6 0-.2 0-.5.1-.7v-.8l.8-253.2v.8z"/><path class="st8" d="M93.3 166.8l-.7 253.1-34.9-20.1.8-253.1z"/></g><path d="M304.1 244.9l-54.2-31.2-53.5 31.6v7.6c.8.2 1.5.6 2.1.9 0 0 .1 0 .1.1-.2.1-.4.3-.7.4l-41.4 21.9c-1.6-1.5-3.1-3-4.5-4.6l-20.4 12c1.3 1.2 2.6 2.4 4 3.6-1.1.5-3 1.6-3.6 1.9.2 1.3-.5 2.5-1.9 3.5-4.9 2.5-10.2 4.7-15.8 6.5-3 .9-6 1.9-8.8 3.1-.7.3-1.6.8-2.4 1.1-2.7 1.1-4.3 2.8-4.5 4.7v8.3c0 1.4.8 2.8 2.4 4.1 4.3 2.5 11.1 2.6 15.8.1.7-.3 1.5-.7 2.1-1 2.5-1.4 4.8-2.8 7-4.4 4.4-2.8 9.2-5.3 14.4-7.6 2.1-.5 4.3-.7 6.5-.4l3.7-1.5 2.1 1.2c3.9 2.3 8.1 4.4 12.4 6.4 21.6 9.8 47.8 15.7 75.2 16.9l.3 2.7 1.2.6c1 .6 1.7 1.3 2.1 2.1-.2 1.4-.4 2.7-.8 4.1-.6 1.9-1.1 3.9-1.4 5.9v9.3c0 1.6.9 3.1 2.5 4.4.3.3.7.5 1 .7 1.9 1.1 4.5 1.7 7.3 1.7 6.2-.2 11-3.3 10.6-6.9v-9.3c-.3-2-.9-3.9-1.6-5.9-.5-1.5-.8-3-1-4.5.7-.9 1.7-1.7 2.9-2.4l.2-2.7c33.9-1.8 65.5-10.9 88.6-25.4l3.9 1.6c2.2-.2 4.4 0 6.5.4 4.2 1.8 8.1 3.7 11.8 5.8 1 .6 1.9 1.1 2.8 1.7 1.6 1.1 3.3 2.1 5 3.2l2.1 1.2 2.5 1.2c4.3 2.4 11.1 2.2 15.2-.3 1.7-1 2.6-2.3 2.8-3.6h.1v-8.2c0-1.6-1.1-3.3-3.3-4.6-.5-.3-1-.5-1.7-.8l-2.1-1.2c-2.8-1.1-5.8-2.1-8.8-3-5.7-1.8-11.1-4-16-6.4-1.3-1-2.1-2.3-2.2-3.6l-3.6-1.8c1.1-1 2.2-2 3.3-3.1l-20.8-12c-1.3 1.5-2.6 2.9-4.1 4.3L303 253.8c-.2-.1-.4-.3-.7-.4.3-.2.6-.3.9-.5.3-.1.6-.2.9-.4v-7.6zM182 292.7c-.2-.1-.3-.2-.5-.2l37.4-15.6.2.1c3.8-1.6 9-1.4 12.3.5l.9.6c1.1.9 1.8 1.9 1.9 3L237 306c-20.1-1.4-39.1-6-55-13.3zm83.4 13.1l1.9-25 .2-.1c.2-3 4.5-5.4 9.8-5.3 1.9 0 3.6.4 5.3 1l38 15.3c-15.7 7.6-34.8 12.5-55.2 14.1z" fill="#1f438f"/><linearGradient id="SVGID_3_" gradientUnits="userSpaceOnUse" x1="200.314" y1="234.804" x2="302.651" y2="380.957"><stop offset="0" stop-color="#1f438f"/><stop offset="0" stop-color="#1f438f"/><stop offset=".028" stop-color="#2550aa"/><stop offset=".059" stop-color="#2a5ac0"/><stop offset=".096" stop-color="#2d62d1"/><stop offset=".141" stop-color="#3068dc"/><stop offset=".205" stop-color="#326be3"/><stop offset=".382" stop-color="#326ce5"/></linearGradient><path d="M401.3 302.8c-.5-.3-1-.5-1.7-.8l-2.1-1.2c-2.8-1.1-5.8-2.1-8.8-3-5.7-1.8-11.1-4-16-6.4-1.3-1-2.1-2.3-2.2-3.6l-3.6-1.8c1.1-1 2.2-2 3.3-3.1l-20.8-12c-1.3 1.5-2.6 2.9-4.1 4.3L303 253.8c-.4-.3-.8-.5-1.3-.8-3.2-2.4-2.5-5.8 1.5-7.7.3-.1.6-.2.9-.4l-54.2-31.2-53.5 31.6c.8.2 1.5.6 2.1.9 2.2 1.3 3.3 3.2 2.6 5-.4 1.2-1.6 2.3-3.2 3l-41.4 21.9c-1.6-1.5-3.1-3-4.5-4.6l-20.4 12c1.3 1.2 2.6 2.4 4 3.6-1.1.5-3 1.6-3.6 1.9.2 1.3-.5 2.5-1.9 3.5-4.9 2.5-10.2 4.7-15.8 6.5-3 .9-6 1.9-8.8 3.1-.7.3-1.6.8-2.4 1.1-5 2.1-6.1 6.1-2.2 9.4 4.3 2.5 11.1 2.6 15.8.1.7-.3 1.5-.7 2.1-1 2.5-1.4 4.8-2.8 7-4.4 4.4-2.8 9.2-5.3 14.4-7.6 2.1-.5 4.3-.7 6.5-.4l3.7-1.5 2.1 1.2c3.9 2.3 8.1 4.4 12.4 6.4 21.6 9.8 47.8 15.7 75.2 16.9l.3 2.7 1.2.6c1.2.7 2 1.6 2.3 2.5.3 3.8 0 7.5-1 11.2-.6 1.9-1.1 3.9-1.4 5.9v1.8c0 1.6.9 3.1 2.5 4.4.3.3.7.5 1 .7 1.9 1.1 4.5 1.7 7.3 1.7 6.2-.2 11-3.3 10.6-6.9v-1.6c-.3-2-.9-3.9-1.6-5.9-1.2-3.7-1.7-7.5-1.5-11.3.6-1.2 1.8-2.3 3.4-3.2l.2-2.7c33.9-1.8 65.5-10.9 88.6-25.4l3.9 1.6c2.2-.2 4.4 0 6.5.4 4.2 1.8 8.1 3.7 11.8 5.8 1 .6 1.9 1.1 2.8 1.7 1.6 1.1 3.3 2.1 5 3.2l2.1 1.2 2.5 1.2c4.3 2.4 11.1 2.2 15.2-.3 3.9-2.5 3.8-6.3-.5-8.8zM182 292.7c-3-1.4-5.9-2.9-8.6-4.5l45.5-19 .2.1c3.8-1.6 9-1.4 12.3.5l.9.6c1.1.9 1.8 1.9 1.9 3L238 306c-20.5-1.3-39.9-5.9-56-13.3zm82.9 13.2l2.5-32.7.2-.1c.2-3 4.5-5.4 9.8-5.3 1.9 0 3.6.4 5.3 1l46.2 18.6c-17.3 10.2-39.8 16.6-64 18.5z" fill="url(#SVGID_3_)"/></svg>