<svg id="Layer_1" xmlns="http://www.w3.org/2000/svg" viewBox="0 0 500 500"><style>.st0{fill:#dee1e3}.st1{fill:#3d3d3d}.st2{fill:#0f0f0f}.st3{fill:#313131}.st4{enable-background:new}.st5{fill:#8e9295}.st6{fill:#bdc3c7}.st7{fill:#fff}.st9{fill:#ecf0f1}.st11{fill:#f15354}.st12{fill:#f7f9f9}</style><path class="st0" d="M189.007 486.54L71.29 417.343l283.076-163.434 117.717 69.196z"/><path class="st1" d="M100.093 410.795l102.695 59.681 283.077-163.435-102.696-59.68z"/><path class="st2" d="M100.093 410.795l.023 8.152 102.695 59.68-.023-8.151z"/><path class="st3" d="M202.788 470.476l.023 8.151 283.077-163.434-.023-8.152z"/><path class="st2" d="M384.011 285.851l-15.433-8.969 15.534-8.968 15.433 8.969-15.534 8.968zm-4.399 2.54l-15.433-8.969-15.534 8.969 15.433 8.969 15.534-8.969zm-19.926 11.505l-15.433-8.969-15.534 8.968 15.433 8.969 15.534-8.968zm-50.9 11.508l15.433 8.969 15.534-8.968-15.433-8.969-15.534 8.968zm-19.933 11.508l15.433 8.969 15.534-8.968-15.433-8.969-15.534 8.968zm-19.926 11.504l15.433 8.969 15.534-8.968-15.433-8.969-15.534 8.968zm-19.933 11.509l15.433 8.969 15.534-8.968-15.433-8.969-15.534 8.968zm-19.927 11.504l15.433 8.969 15.534-8.968-15.433-8.969-15.534 8.968zm-19.933 11.509l15.433 8.969 15.534-8.968-15.433-8.969-15.534 8.968zm11.034 11.508l-15.433-8.969-15.534 8.969 15.433 8.969 15.534-8.969zm-19.926 11.505l-15.433-8.969-15.534 8.969 15.433 8.969 15.534-8.969zm-19.933 11.508l-15.433-8.969-15.534 8.969 15.433 8.969 15.534-8.969zm-35.36 2.536l-15.534 8.969 15.433 8.969 15.534-8.969-15.433-8.969zm274.14-117.755l-15.433-8.969-15.534 8.968 15.433 8.969 15.534-8.968zm-19.933 11.508l-15.433-8.969-15.534 8.969 15.433 8.969 15.534-8.969zm-19.927 11.505l-15.433-8.969-15.534 8.968 15.433 8.969 15.534-8.968zm-50.9 11.508l15.433 8.969 15.534-8.968-15.433-8.969-15.534 8.968zm-19.933 11.508l15.433 8.969 15.534-8.968-15.433-8.969-15.534 8.968zm-19.926 11.505l15.433 8.969 15.534-8.968-15.433-8.969-15.534 8.968zm-19.933 11.508l15.433 8.969 15.534-8.968-15.433-8.969-15.534 8.968zm-19.926 11.505l15.433 8.969 15.534-8.968-15.433-8.969-15.534 8.968zm-19.933 11.508l15.433 8.969 15.534-8.968-15.433-8.969-15.534 8.968zm11.034 11.508l-15.433-8.969-15.534 8.969 15.433 8.969 15.534-8.969zm-19.927 11.505l-15.433-8.969-15.534 8.969 15.433 8.969 15.534-8.969zm-19.933 11.508l-15.433-8.969-15.534 8.969 15.433 8.969 15.534-8.969zm-19.926 11.505l-15.433-8.969-15.534 8.969 15.433 8.969 15.534-8.969zm258.712-126.72l-15.433-8.969-15.534 8.968 15.433 8.969 15.534-8.968zm-19.933 11.508l-15.433-8.969-15.534 8.969 15.433 8.969 15.534-8.969zm-19.926 11.505l-15.433-8.969-15.534 8.968 15.433 8.969 15.534-8.968zm-50.9 11.508l15.433 8.969 15.534-8.968-15.433-8.969-15.534 8.968zm-19.933 11.508l15.433 8.969 15.534-8.968-15.433-8.969-15.534 8.968zm-19.926 11.505l15.433 8.969 15.534-8.968-15.433-8.969-15.534 8.968zm-19.933 11.508l15.433 8.969 15.534-8.968-15.433-8.969-15.534 8.968zm-19.927 11.505l15.433 8.969 15.534-8.968-15.433-8.969-15.534 8.968zm-19.933 11.508l15.433 8.969 15.534-8.968-15.433-8.969-15.534 8.968zm11.034 11.508l-15.433-8.969-15.534 8.969 15.433 8.969 15.534-8.969zm-19.926 11.505l-15.433-8.969-15.534 8.969 15.433 8.969 15.534-8.969zm-19.933 11.508l-15.433-8.969-15.534 8.969 15.433 8.969 15.534-8.969zm-19.927 11.505l-15.433-8.969-15.534 8.969 15.433 8.969 15.534-8.969zm198.921-92.199l-15.433-8.969-135.119 78.011 15.433 8.969 135.119-78.011z"/><g class="st4"><path class="st0" d="M401.732 271.57l-15.432-8.968-15.534 8.968 15.433 8.969z"/><path class="st5" d="M370.766 271.57l.011 4.076 15.434 8.968-.012-4.075z"/><path class="st6" d="M386.199 280.539l.012 4.075 15.533-8.968-.012-4.076z"/><path class="st0" d="M381.8 283.078l-15.433-8.969-15.534 8.969 15.433 8.969z"/><path class="st5" d="M350.833 283.078l.012 4.076 15.432 8.969-.011-4.076z"/><path class="st6" d="M366.266 292.047l.011 4.076 15.535-8.969-.012-4.076z"/><path class="st0" d="M361.873 294.583l-15.433-8.969-15.534 8.969 15.434 8.969z"/><path class="st5" d="M330.906 294.583l.012 4.075 15.434 8.969-.012-4.075z"/><path class="st6" d="M346.34 303.552l.012 4.075 15.533-8.968-.012-4.076z"/><path class="st0" d="M310.974 306.091l15.432 8.969 15.534-8.969-15.432-8.968z"/><path class="st5" d="M310.974 306.091l.011 4.076 15.433 8.969-.012-4.076z"/><path class="st6" d="M326.406 315.06l.012 4.076 15.534-8.969-.012-4.076z"/><path class="st0" d="M291.041 317.6l15.433 8.968 15.534-8.968-15.434-8.969z"/><path class="st5" d="M291.041 317.6l.011 4.075 15.433 8.969-.011-4.076z"/><path class="st6" d="M306.474 326.568l.011 4.076 15.535-8.968-.012-4.076z"/><path class="st0" d="M271.114 329.104l15.433 8.968 15.534-8.968-15.433-8.968z"/><path class="st5" d="M271.114 329.104l.012 4.076 15.433 8.968-.012-4.076z"/><path class="st6" d="M286.547 338.072l.012 4.076 15.534-8.968-.012-4.076z"/><path class="st0" d="M251.182 340.612l15.432 8.969 15.534-8.969-15.433-8.968z"/><path class="st5" d="M251.182 340.612l.01 4.076 15.434 8.969-.012-4.076z"/><path class="st6" d="M266.614 349.581l.012 4.076 15.533-8.969-.011-4.076z"/><path class="st0" d="M231.255 352.117l15.433 8.969 15.534-8.969-15.433-8.969z"/><path class="st5" d="M231.255 352.117l.011 4.075 15.433 8.969-.011-4.075z"/><path class="st6" d="M246.688 361.086l.011 4.075 15.534-8.969-.011-4.075z"/><path class="st0" d="M211.322 363.625l15.433 8.969 15.534-8.969-15.434-8.969z"/><path class="st5" d="M211.322 363.625l.011 4.076 15.434 8.969-.012-4.076z"/><path class="st6" d="M226.755 372.594l.012 4.076 15.533-8.969-.011-4.076z"/><path class="st0" d="M222.356 375.134l-15.433-8.969-15.534 8.969 15.433 8.969z"/><path class="st5" d="M191.389 375.134l.011 4.075 15.433 8.969-.011-4.075z"/><path class="st6" d="M206.822 384.103l.011 4.075 15.534-8.969-.011-4.075z"/><path class="st0" d="M202.429 386.638l-15.432-8.969-15.535 8.969 15.434 8.968z"/><path class="st5" d="M171.462 386.638l.012 4.076 15.433 8.969-.011-4.077z"/><path class="st6" d="M186.896 395.606l.011 4.077 15.534-8.969-.012-4.076z"/><path class="st0" d="M182.497 398.146l-15.434-8.968-15.534 8.968 15.433 8.969z"/><path class="st5" d="M151.529 398.146l.012 4.076 15.433 8.968-.012-4.075z"/><path class="st6" d="M166.962 407.115l.012 4.075 15.534-8.967-.011-4.077z"/><path class="st0" d="M147.137 400.683l-15.534 8.967 15.433 8.969 15.534-8.968z"/><path class="st5" d="M131.603 409.65l.011 4.077 15.433 8.968-.011-4.076z"/><path class="st6" d="M147.036 418.619l.011 4.076 15.535-8.968-.012-4.076z"/><path class="st0" d="M421.276 282.928l-15.433-8.969-15.533 8.969 15.432 8.968z"/><path class="st5" d="M390.31 282.928l.01 4.075 15.434 8.969-.012-4.076z"/><path class="st6" d="M405.742 291.896l.012 4.076 15.534-8.969-.012-4.075z"/><path class="st0" d="M401.344 294.436l-15.434-8.969-15.534 8.969 15.434 8.968z"/><path class="st5" d="M370.376 294.436l.012 4.076 15.433 8.968-.011-4.076z"/><path class="st6" d="M385.81 303.404l.011 4.076 15.533-8.968-.01-4.076z"/><path class="st0" d="M381.417 305.94l-15.434-8.968-15.533 8.968 15.433 8.969z"/><path class="st5" d="M350.45 305.94l.011 4.076 15.434 8.968-.012-4.075z"/><path class="st6" d="M365.883 314.909l.012 4.075 15.533-8.967-.011-4.077z"/><path class="st0" d="M330.517 317.448l15.433 8.969 15.533-8.969-15.432-8.969z"/><path class="st5" d="M330.517 317.448l.011 4.076 15.434 8.969-.012-4.076z"/><path class="st6" d="M345.95 326.417l.012 4.076 15.533-8.969-.012-4.076z"/><path class="st0" d="M310.584 328.957l15.433 8.969 15.534-8.969-15.433-8.969z"/><path class="st5" d="M310.584 328.957l.012 4.075 15.432 8.969-.011-4.075z"/><path class="st6" d="M326.017 337.926l.011 4.075 15.534-8.968-.011-4.076z"/><path class="st0" d="M290.657 340.461l15.434 8.969 15.533-8.968-15.433-8.969z"/><path class="st5" d="M290.657 340.461l.012 4.076 15.434 8.969-.012-4.076z"/><path class="st6" d="M306.091 349.43l.012 4.076 15.533-8.969-.012-4.075z"/><path class="st0" d="M270.725 351.97l15.432 8.968 15.534-8.968-15.432-8.969z"/><path class="st5" d="M270.725 351.97l.011 4.075 15.433 8.969-.012-4.076z"/><path class="st6" d="M286.157 360.938l.012 4.076 15.534-8.968-.012-4.076z"/><path class="st0" d="M250.798 363.474l15.433 8.968 15.534-8.967-15.433-8.969z"/><path class="st5" d="M250.798 363.474l.012 4.076 15.432 8.969-.011-4.077z"/><path class="st6" d="M266.231 372.442l.011 4.077 15.534-8.969-.011-4.075z"/><path class="st0" d="M230.865 374.982l15.433 8.969 15.534-8.969-15.433-8.968z"/><path class="st5" d="M230.865 374.982l.011 4.077 15.434 8.968-.012-4.076z"/><path class="st6" d="M246.298 383.951l.012 4.076 15.534-8.968-.012-4.077z"/><path class="st0" d="M241.899 386.491l-15.433-8.969-15.534 8.969 15.433 8.968z"/><path class="st5" d="M210.932 386.491l.012 4.075 15.432 8.969-.011-4.076z"/><path class="st6" d="M226.365 395.459l.011 4.076 15.535-8.969-.012-4.075z"/><path class="st0" d="M221.973 397.995l-15.433-8.969-15.534 8.969 15.432 8.969z"/><path class="st5" d="M191.006 397.995l.011 4.076 15.433 8.969-.012-4.076z"/><path class="st6" d="M206.438 406.964l.012 4.076 15.534-8.969-.011-4.076z"/><path class="st0" d="M202.04 409.504l-15.434-8.969-15.533 8.969 15.433 8.969z"/><path class="st5" d="M171.073 409.504l.011 4.075 15.433 8.969-.011-4.075z"/><path class="st6" d="M186.506 418.473l.011 4.075 15.534-8.969-.011-4.075z"/><path class="st0" d="M182.113 421.008l-15.433-8.968-15.534 8.968 15.433 8.969z"/><path class="st5" d="M151.146 421.008l.012 4.076 15.433 8.969-.012-4.076z"/><path class="st6" d="M166.579 429.977l.012 4.076 15.534-8.969-.012-4.076z"/><path class="st0" d="M440.826 294.288l-15.433-8.968-15.534 8.968 15.433 8.969z"/><path class="st5" d="M409.859 294.288l.011 4.076 15.434 8.969-.012-4.076z"/><path class="st6" d="M425.292 303.257l.012 4.076 15.533-8.969-.011-4.076z"/><path class="st0" d="M420.893 305.797l-15.433-8.969-15.534 8.969 15.432 8.969z"/><path class="st5" d="M389.926 305.797l.012 4.075 15.432 8.969-.012-4.075z"/><path class="st6" d="M405.358 314.766l.012 4.075 15.534-8.968-.011-4.076z"/><path class="st0" d="M400.966 317.302l-15.433-8.969L370 317.301l15.433 8.969z"/><path class="st5" d="M370 317.301l.011 4.076 15.433 8.969-.011-4.076z"/><path class="st6" d="M385.433 326.27l.011 4.076 15.534-8.969-.012-4.075z"/><path class="st0" d="M350.066 328.81l15.434 8.968 15.533-8.968-15.432-8.969z"/><path class="st5" d="M350.066 328.81l.012 4.076 15.433 8.968-.011-4.076z"/><path class="st6" d="M365.5 337.778l.011 4.076 15.534-8.968-.012-4.076z"/><path class="st0" d="M330.134 340.317l15.432 8.969 15.535-8.968-15.433-8.968z"/><path class="st5" d="M330.134 340.317l.012 4.077 15.432 8.968-.012-4.076z"/><path class="st6" d="M345.566 349.286l.012 4.076 15.534-8.968-.011-4.076z"/><path class="st0" d="M310.207 351.822l15.434 8.969 15.533-8.969-15.433-8.968z"/><path class="st5" d="M310.207 351.822l.012 4.076 15.432 8.969-.01-4.076z"/><path class="st6" d="M325.641 360.791l.01 4.076 15.535-8.969-.012-4.076z"/><path class="st0" d="M290.274 363.331l15.433 8.968 15.534-8.968-15.432-8.969z"/><path class="st5" d="M290.274 363.331l.012 4.075 15.433 8.969-.012-4.076z"/><path class="st6" d="M305.707 372.299l.012 4.076 15.534-8.969-.012-4.075z"/><path class="st0" d="M270.348 374.835l15.432 8.969 15.534-8.969-15.432-8.968z"/><path class="st5" d="M270.348 374.835l.011 4.076 15.433 8.969-.012-4.076z"/><path class="st6" d="M285.78 383.804l.012 4.076 15.534-8.969-.012-4.076z"/><path class="st0" d="M250.415 386.344l15.433 8.968 15.534-8.968-15.434-8.969z"/><path class="st5" d="M250.415 386.344l.011 4.075 15.433 8.969-.011-4.076z"/><path class="st6" d="M265.848 395.312l.011 4.076 15.535-8.968-.012-4.076z"/><path class="st0" d="M261.449 397.852l-15.433-8.969-15.534 8.969 15.433 8.968z"/><path class="st5" d="M230.482 397.852l.012 4.076 15.432 8.968-.011-4.076z"/><path class="st6" d="M245.915 406.82l.011 4.076 15.534-8.968-.011-4.076z"/><path class="st0" d="M241.522 409.356l-15.433-8.968-15.533 8.968 15.432 8.969z"/><path class="st5" d="M210.556 409.356l.011 4.077L226 422.4l-.012-4.075z"/><path class="st6" d="M225.988 418.325L226 422.4l15.534-8.967-.012-4.077z"/><path class="st0" d="M221.589 420.864l-15.433-8.968-15.533 8.968 15.432 8.969z"/><path class="st5" d="M190.623 420.864l.011 4.076 15.433 8.969-.012-4.076z"/><path class="st6" d="M206.055 429.833l.012 4.076 15.534-8.969-.012-4.076z"/><path class="st0" d="M201.663 432.369L186.23 423.4l-15.534 8.969 15.433 8.969z"/><path class="st5" d="M170.696 432.369l.012 4.076 15.433 8.969-.012-4.076z"/><path class="st6" d="M186.129 441.338l.012 4.076 15.533-8.969-.011-4.076z"/><path class="st0" d="M400.583 340.171l-15.433-8.969-135.119 78.011 15.433 8.969z"/><path class="st5" d="M250.031 409.213l.012 4.076 15.433 8.968-.012-4.075z"/><path class="st6" d="M265.464 418.182l.012 4.075 135.119-78.011-.012-4.075z"/></g><path class="st7" d="M26.233 755.627c0-130.339 105.661-236 236-236s236 105.661 236 236"/><path d="M262.233 540.596c-118.758 0-215.031 96.273-215.031 215.031h215.031l143.032-160.546c-38.006-33.883-88.109-54.485-143.032-54.485z" fill="#a5c63b"/><path class="st9" d="M405.265 595.081L262.233 755.627h215.031c0-63.836-27.826-121.164-71.999-160.546z"/><path class="st7" d="M124.233 755.627c0-76.215 61.785-138 138-138s138 61.785 138 138"/><path fill="#34495e" d="M2.746 751.762H521.72v7.459H2.746z"/><circle class="st11" cx="262.233" cy="755.492" r="22"/><path class="st11" d="M270.44 769.323l-16.879-14.109 151.466-171.857 7.673 6.413z"/><g class="st4"><path class="st12" d="M226.398 137.75c76.348-44.079 138.442-8.694 138.691 79.043L88.608 376.42c-.249-87.737 61.442-194.59 137.79-238.67z"/><path class="st12" d="M88.745 368.79a210.5 210.5 0 0 1 .188-3.986c.024-.416.045-.832.072-1.249.071-1.119.151-2.241.24-3.365l.036-.491c.105-1.286.224-2.576.353-3.868.038-.38.081-.761.121-1.141.097-.923.199-1.846.308-2.772.054-.459.111-.918.168-1.378.091-.735.189-1.47.288-2.206a227.576 227.576 0 0 1 1.098-7.287c.102-.615.203-1.23.311-1.846.167-.958.345-1.917.524-2.877.105-.564.206-1.128.316-1.692.219-1.127.451-2.256.686-3.385.084-.402.161-.804.247-1.207.091-.429.191-.859.284-1.288.208-.952.417-1.903.636-2.856.124-.539.256-1.079.384-1.618.2-.845.4-1.69.61-2.535.143-.579.293-1.158.44-1.738.205-.807.411-1.614.625-2.422.158-.598.321-1.195.483-1.793a286.502 286.502 0 0 1 2.341-8.146c.109-.36.223-.719.334-1.079a288.78 288.78 0 0 1 1.846-5.782c.084-.254.164-.509.249-.763a306.157 306.157 0 0 1 1.983-5.732c.164-.459.331-.918.497-1.378a313.319 313.319 0 0 1 1.93-5.195c.088-.231.173-.462.262-.693a314.26 314.26 0 0 1 2.177-5.488c.19-.468.385-.936.577-1.403a315.89 315.89 0 0 1 1.918-4.553c.16-.372.317-.745.478-1.116a325.107 325.107 0 0 1 2.369-5.315c.186-.408.377-.815.565-1.223.66-1.432 1.331-2.86 2.013-4.284.224-.469.448-.938.674-1.406.849-1.752 1.71-3.5 2.591-5.24.095-.188.193-.374.289-.561a331.48 331.48 0 0 1 3.208-6.142 340.39 340.39 0 0 1 2.461-4.52c.139-.25.274-.502.414-.753a336.099 336.099 0 0 1 6.275-10.762c.215-.355.428-.711.645-1.065 1.047-1.71 2.11-3.41 3.186-5.099.235-.369.474-.735.71-1.103a334.601 334.601 0 0 1 3.043-4.651c.21-.315.417-.631.627-.945a332.167 332.167 0 0 1 3.545-5.171c.256-.367.515-.731.772-1.096 1.339-1.9 2.691-3.788 4.067-5.654l.081-.108a321.49 321.49 0 0 1 4.139-5.474c.244-.316.486-.634.731-.949a312.151 312.151 0 0 1 4.858-6.089l.728-.89a300.76 300.76 0 0 1 4.964-5.872c.327-.377.653-.754.981-1.128.769-.878 1.542-1.749 2.319-2.615.372-.415.742-.832 1.115-1.244a291.538 291.538 0 0 1 3.137-3.407c.107-.114.211-.231.318-.344a289.852 289.852 0 0 1 3.503-3.662c.357-.367.717-.727 1.075-1.092a283.041 283.041 0 0 1 4.192-4.178c.37-.361.74-.723 1.111-1.081.705-.679 1.414-1.352 2.124-2.021.298-.281.594-.565.892-.843 1.006-.94 2.017-1.871 3.033-2.791.171-.155.344-.306.515-.46.848-.764 1.699-1.522 2.554-2.271.356-.312.714-.618 1.07-.928.679-.588 1.359-1.174 2.042-1.753a276.967 276.967 0 0 1 4.378-3.625c.686-.554 1.374-1.102 2.063-1.647.371-.293.742-.589 1.114-.88.838-.654 1.68-1.299 2.524-1.939.222-.168.443-.341.665-.508a220.346 220.346 0 0 1 3.208-2.369c.292-.211.585-.417.877-.626.785-.564 1.572-1.123 2.361-1.674.395-.276.792-.546 1.188-.819a188.098 188.098 0 0 1 3.36-2.263c.691-.455 1.383-.905 2.076-1.35.415-.267.83-.534 1.247-.797.747-.472 1.496-.935 2.247-1.395.357-.219.712-.441 1.07-.657a189.417 189.417 0 0 1 3.326-1.969c1.472-.85 2.937-1.66 4.398-2.451.42-.228.84-.449 1.259-.672a169.47 169.47 0 0 1 3.344-1.729c.381-.192.763-.388 1.143-.576 1.438-.71 2.87-1.396 4.296-2.049.236-.108.469-.207.705-.314a153.93 153.93 0 0 1 4.969-2.14 136.01 136.01 0 0 1 2.494-.993c.46-.178.92-.359 1.378-.531.92-.346 1.835-.675 2.748-.997.351-.123.704-.255 1.053-.375 1.256-.43 2.506-.84 3.75-1.224.233-.072.463-.135.695-.205 1.012-.306 2.02-.601 3.023-.877.599-.165 1.194-.319 1.789-.473.45-.116.901-.237 1.35-.347.648-.159 1.292-.305 1.937-.451.413-.094.828-.194 1.239-.283.731-.157 1.456-.299 2.182-.44.32-.062.642-.132.961-.191a104.71 104.71 0 0 1 3.11-.528l.21-.03c.911-.138 1.818-.262 2.72-.374.318-.039.634-.072.951-.108.66-.075 1.317-.145 1.972-.206a95.68 95.68 0 0 1 2.947-.225c.334-.02.669-.042 1.002-.059a88.82 88.82 0 0 1 2.455-.091l.29-.009a88.164 88.164 0 0 1 2.72-.006c.261.003.519.011.779.017.661.014 1.319.036 1.974.066.283.013.566.026.848.042.383.021.762.053 1.142.08 1.034.073 2.059.164 3.076.276.274.03.551.055.824.088 1.223.147 2.433.322 3.631.526.267.045.531.099.797.147.945.171 1.882.36 2.811.567.313.07.626.137.937.211 1.147.271 2.284.561 3.405.886.094.027.186.059.279.087a69.379 69.379 0 0 1 6.608 2.324c.203.083.41.161.612.246 1.054.444 2.092.917 3.118 1.413.254.123.504.253.757.379a66.23 66.23 0 0 1 2.419 1.271c.419.231.842.455 1.256.695l-14.096-8.192a56.777 56.777 0 0 0-.757-.433c-.163-.092-.334-.171-.498-.262a65.42 65.42 0 0 0-2.419-1.271c-.252-.126-.502-.256-.757-.379a66.306 66.306 0 0 0-3.118-1.413c-.05-.021-.099-.047-.149-.068-.152-.064-.31-.116-.463-.178a67.93 67.93 0 0 0-3.57-1.348 68.558 68.558 0 0 0-3.04-.976c-.077-.023-.151-.051-.228-.073l-.049-.013a70.218 70.218 0 0 0-3.406-.886c-.311-.073-.624-.141-.937-.211a75.12 75.12 0 0 0-2.811-.567c-.188-.034-.37-.08-.558-.112-.079-.014-.16-.021-.239-.035a74.799 74.799 0 0 0-3.631-.526c-.273-.033-.55-.058-.824-.088a78.826 78.826 0 0 0-3.077-.276c-.195-.014-.385-.04-.581-.052-.186-.012-.375-.017-.561-.028a85.697 85.697 0 0 0-2.821-.108c-.26-.006-.518-.014-.779-.017a85.116 85.116 0 0 0-2.72.006c-.096.002-.193.007-.29.009-.657.015-1.315.033-1.977.063-.159.007-.32.02-.479.028-.333.017-.668.039-1.002.059-.629.038-1.26.083-1.893.134-.351.029-.702.058-1.054.091-.655.061-1.312.131-1.972.206-.317.036-.633.069-.951.108-.902.112-1.809.235-2.72.374l-.21.03a103.587 103.587 0 0 0-3.111.528c-.317.059-.638.128-.956.19-.727.141-1.454.283-2.186.441-.41.088-.824.188-1.235.282-.646.147-1.291.292-1.94.452-.448.11-.898.231-1.348.347-.471.122-.939.235-1.412.363-.125.034-.253.075-.379.11-1.003.276-2.011.57-3.023.877-.232.07-.462.133-.695.205a130.67 130.67 0 0 0-3.75 1.224c-.35.12-.703.251-1.053.375-.913.322-1.829.651-2.748.997-.458.172-.918.353-1.378.531-.829.322-1.66.652-2.494.993-.253.103-.502.196-.755.301-.201.083-.404.179-.605.264a153.692 153.692 0 0 0-3.606 1.574c-.237.107-.471.207-.708.315a164.59 164.59 0 0 0-4.295 2.048c-.38.188-.762.384-1.143.576a175.047 175.047 0 0 0-3.344 1.729c-.42.223-.839.444-1.259.672a182.972 182.972 0 0 0-4.398 2.451c-1.112.642-2.221 1.3-3.327 1.969-.356.216-.711.438-1.067.656-.752.461-1.503.925-2.251 1.398-.415.262-.828.528-1.242.794a204.748 204.748 0 0 0-3.346 2.193c-.701.469-1.399.945-2.096 1.425-.394.271-.789.54-1.183.815-.791.552-1.579 1.113-2.367 1.678-.291.209-.584.414-.874.624a220.346 220.346 0 0 0-3.208 2.369c-.222.167-.442.339-.663.507-.845.641-1.688 1.286-2.528 1.942-.37.289-.738.582-1.106.874-.692.547-1.383 1.097-2.072 1.653a249.236 249.236 0 0 0-3.183 2.62c-.397.332-.794.664-1.189 1-.686.582-1.37 1.17-2.052 1.761-.354.307-.709.611-1.062.92a248.95 248.95 0 0 0-2.572 2.287l-.498.444c-1.018.921-2.03 1.853-3.038 2.795-.294.275-.586.555-.88.832-.714.673-1.428 1.35-2.137 2.033-.369.355-.736.715-1.103 1.073-.381.372-.765.739-1.145 1.113-.186.183-.368.372-.553.556a281.69 281.69 0 0 0-2.497 2.511c-.359.365-.72.727-1.078 1.095a282.772 282.772 0 0 0-3.502 3.661c-.107.114-.211.23-.318.344a292.41 292.41 0 0 0-3.138 3.408c-.374.413-.744.83-1.117 1.246-.776.866-1.549 1.736-2.317 2.614-.193.22-.389.435-.582.656-.134.154-.264.316-.398.471a310.789 310.789 0 0 0-4.966 5.875c-.243.295-.484.591-.726.887a312.509 312.509 0 0 0-4.86 6.093c-.088.113-.179.221-.266.334-.156.201-.306.409-.462.611a325.772 325.772 0 0 0-4.141 5.476l-.081.108a325.803 325.803 0 0 0-4.068 5.656c-.148.21-.302.414-.449.624-.108.154-.212.313-.32.467a340.042 340.042 0 0 0-3.549 5.177c-.209.311-.413.624-.621.936a330.033 330.033 0 0 0-3.049 4.66c-.152.237-.311.47-.463.707-.083.13-.162.262-.245.392-1.077 1.69-2.14 3.39-3.187 5.1-.216.353-.428.709-.643 1.063a346.152 346.152 0 0 0-2.596 4.348c-.155.264-.317.524-.471.789-.098.168-.191.338-.288.506a336.608 336.608 0 0 0-2.923 5.126c-.137.246-.27.494-.407.74a348.172 348.172 0 0 0-2.466 4.529c-.133.249-.272.494-.405.743-.125.235-.243.472-.367.708a341.808 341.808 0 0 0-2.436 4.692c-.095.188-.194.374-.289.562a334.978 334.978 0 0 0-2.591 5.24c-.09.185-.185.369-.274.555-.136.283-.265.568-.4.852a326.296 326.296 0 0 0-2.013 4.284c-.188.408-.379.814-.565 1.223a330.018 330.018 0 0 0-2.369 5.316l-.144.324c-.114.262-.219.526-.332.789a321.714 321.714 0 0 0-1.921 4.56c-.192.466-.386.932-.576 1.399a317.52 317.52 0 0 0-2.177 5.489l-.066.166c-.067.175-.129.352-.196.527a304.581 304.581 0 0 0-1.93 5.195c-.166.459-.333.918-.497 1.378a306.157 306.157 0 0 0-1.983 5.732l-.075.216c-.061.182-.114.364-.174.546a288.954 288.954 0 0 0-1.846 5.784c-.111.359-.224.718-.333 1.076-.62 2.04-1.213 4.081-1.783 6.121-.052.187-.112.374-.164.561-.136.489-.262.978-.395 1.467-.162.597-.324 1.194-.482 1.79-.213.807-.419 1.615-.625 2.422-.147.579-.297 1.159-.44 1.738-.209.845-.409 1.69-.61 2.535-.128.539-.26 1.079-.384 1.618a271.28 271.28 0 0 0-.636 2.856c-.094.429-.193.859-.284 1.288l-.033.151c-.076.355-.142.709-.216 1.064a258.29 258.29 0 0 0-.683 3.373c-.11.568-.212 1.135-.318 1.703a247.66 247.66 0 0 0-.523 2.869c-.108.618-.209 1.235-.312 1.852-.151.905-.298 1.81-.438 2.713a258.075 258.075 0 0 0-.659 4.568c-.046.343-.1.687-.144 1.029-.051.396-.095.79-.144 1.185a205.793 205.793 0 0 0-.476 4.15c-.04.378-.083.758-.121 1.136a214.88 214.88 0 0 0-.353 3.864c-.014.173-.025.345-.038.517a211.388 211.388 0 0 0-.238 3.339c-.026.419-.048.838-.072 1.257a194.464 194.464 0 0 0-.266 6.623c-.009.402-.021.805-.028 1.206a191.138 191.138 0 0 0-.031 3.781l14.096 8.192c-.004-1.257.009-2.52.031-3.785.007-.397.019-.795.028-1.193.023-.889.048-1.773.081-2.659z"/></g><path class="st7" d="M310.26 139.671c25.946 11.57 42.355 40.749 42.477 83.719L226.78 296.111l83.48-156.44z"/><path d="M226.37 151.37c32.172-18.575 61.562-21.654 83.89-11.699l-83.479 156.44-125.957 72.721c-.227-79.938 55.979-177.297 125.546-217.462z" fill="#80992e"/><path class="st9" d="M226.443 203.103c44.642-25.774 80.954-5.088 81.099 46.216L145.87 342.661c-.145-51.304 35.932-113.784 80.573-139.558z"/><path class="st1" d="M378.567 209.138l.015 5.018L74.583 389.67l-.015-5.018z"/><path class="st11" d="M226.533 288.6c7.119-4.11 12.903-.814 12.926 7.366.023 8.18-5.723 18.141-12.842 22.251-7.119 4.11-12.903.807-12.926-7.374-.023-8.18 5.723-18.133 12.842-22.243z"/><path class="st11" d="M307.054 142.143l4.507 1.726-82.989 168.965-9.917-3.783z"/><path class="st3" d="M74.538 384.705l-14.096-8.192-.001 4.32 14.142 8.837z"/><path fill="#3a3a3a" d="M88.746 376.466l-14.234-8.238-14.07 8.285 14.096 8.192z"/></svg>