<svg id="Layer_1" xmlns="http://www.w3.org/2000/svg" xmlns:xlink="http://www.w3.org/1999/xlink" viewBox="0 0 500 500"><style>.st2{fill:#224fb0}.st6{fill:#b1b4b5}.st8{fill:#c1c3c4}.st11{fill:#34495e}.st13{fill:#566573}</style><path opacity=".3" fill="#ecf0f1" d="M41.2 417.5l190.4-109.9 33.9 19.7L75.2 437.2z"/><path fill="#173575" d="M118.1 334.9l-33.9-19.8-66.1-56.8L52 278z"/><path class="st2" d="M170.2 38.5l-33.9-19.7 95.3-2.3 33.9 19.7z"/><path fill="#2d69ea" d="M170.2 38.5l95.3-2.3 23.9 104.7-65.6 133-105.7 61L52 278l23.2-131.9z"/><path class="st2" d="M52 278l-33.9-19.7 23.1-131.9 34 19.7z"/><path fill="#5787ee" d="M75.2 146.1l-34-19.7 95.1-107.6 33.9 19.7z"/><defs><path id="SVGID_1_" d="M329.5 261.7l37.5 21.8c4.4 2.6 6.9 8.2 6.5 15.9L336 277.6c.4-7.7-2.1-13.4-6.5-15.9z"/></defs><clipPath id="SVGID_2_"><use xlink:href="#SVGID_1_" overflow="visible"/></clipPath><g clip-path="url(#SVGID_2_)"><path class="st6" d="M373.5 299.4L336 277.6c.4-7.7-2.1-13.4-6.5-15.9l37.5 21.8c4.4 2.5 6.9 8.2 6.5 15.9"/></g><path class="st6" d="M479.9 109c.5-.2.9-.3 1.4-.5h.1c.5-.2 1-.4 1.5-.7l.4-.2c.6-.3 1.1-.6 1.7-.9l-37.5-21.8c-.6.3-1.1.6-1.7.9l-.4.2c-.5.3-1 .5-1.5.7h-.1c-.5.2-.9.4-1.4.5l-.4.1c-.3.1-.7.2-1 .3-.2.1-.4.1-.5.2l-.5.1-.6.1-.5.1-.4.1c-.5.1-1.1.1-1.6.2h-1.8c-.4 0-.8-.1-1.1-.1h-.2c-.4-.1-.8-.2-1.1-.3l-.3-.1c-.3-.1-.5-.2-.8-.3l-.3-.1c-.3-.1-.5-.2-.8-.4l-.3-.2 37.5 21.8.1.1.2.1c.2.1.5.3.8.4l.1.1.2.1c.2.1.5.2.8.3l.2.1h.1c.4.1.8.2 1.1.3h.1c.4.1.7.1 1.1.1h1.9c.6 0 1.1-.1 1.6-.2h.4l.5-.1.6-.1.5-.1.3-.1.2-.1 1-.3.4-.3z"/><path d="M423.9 164.3c.1-1 .1-2 .1-2.9 0-10.6-3.8-18.1-9.9-21.7L376.6 118c6.1 3.5 9.9 11 9.9 21.7 0 1 0 2-.1 2.9v.6c-.1 1-.2 1.9-.3 2.9 0 .3-.1.5-.1.8-.1.5-.1.9-.2 1.4 0 .3-.1.6-.2.9s-.2.9-.2 1.3-.1.7-.2 1.1-.1.6-.2.9l-.3 1.2c-.1.3-.1.6-.2.9s-.1.5-.2.7c-.3 1-.6 1.9-.9 2.9 0 .1 0 .2-.1.2-.3 1-.7 1.9-1 2.8l-.3.7c-.3.8-.6 1.6-1 2.4 0 .1-.1.3-.2.4-.4.9-.8 1.7-1.2 2.6l-.3.7c-.3.7-.7 1.4-1 2l-.3.6c-.5.9-.9 1.7-1.4 2.5l-.3.5c-.4.7-.9 1.5-1.3 2.2l-.4.6c-.6.9-1.1 1.7-1.7 2.6l-.3.4c-.6.9-1.2 1.7-1.9 2.6l-.2.3c-.8 1-1.6 2-2.5 3l-.3.4c-.5.6-1.1 1.2-1.7 1.9-.6.6-1.1 1.2-1.7 1.8l-1.1 1.1-.3.3c-.5.5-1 .9-1.5 1.4l-.4.3-1.1 1-.5.4-1 .8-.6.4-1 .7-.8.2c-.4.2-.7.5-1.1.7l-.5.3c-.5.3-1.1.7-1.6 1-.7.4-1.4.8-2.1 1.1l-.6.3c-.5.3-1.1.5-1.6.7l-.6.2-1.5.6-.4.1-1.8.6-1.1.3-.5.1-1.5.3h-.1c-.4.1-.9.1-1.3.2h-.5l-1 .1h-2.1c-.5 0-1-.1-1.5-.2l-.5-.1c-.6-.1-1.1-.2-1.7-.4h-.1l-1.5-.6-.4-.2-1.2-.6-.4-.2 37.5 21.8.2.1.2.1 1.2.6.2.1.2.1 1.5.6h.1c.6.2 1.1.3 1.7.4h.5c.5.1 1 .1 1.5.2h2.4l.6-.1h.5c.4 0 .9-.1 1.3-.2h.1l1.5-.3.5-.1c.3-.1.7-.1 1-.2h.1l1.8-.6.4-.1 1.5-.6.2-.1.4-.2c.5-.2 1.1-.5 1.6-.7l.6-.3c.7-.4 1.4-.7 2.1-1.1.5-.3 1.1-.6 1.6-1l.5-.3c.4-.2.7-.5 1.1-.7l.6-.4 1-.7.6-.5c.3-.2.7-.5 1-.8l.6-.4 1.1-1 .4-.3c.5-.4 1-.9 1.5-1.4l.3-.3.9-.9.1-.1c.6-.6 1.2-1.2 1.7-1.8.6-.6 1.1-1.2 1.7-1.9l.1-.2.2-.2c.9-1 1.7-2 2.5-3l.1-.1c.1-.1.1-.2.2-.2.6-.8 1.3-1.7 1.9-2.6l.2-.3.1-.1c.6-.8 1.2-1.7 1.7-2.6l.2-.2c.1-.1.1-.2.2-.4.5-.7.9-1.4 1.3-2.1.1-.1.1-.2.2-.3s0-.1.1-.1c.5-.8 1-1.7 1.4-2.5 0-.1.1-.1.1-.2.1-.1.1-.3.2-.4.4-.7.7-1.4 1-2l.2-.4.1-.2c.4-.9.8-1.7 1.2-2.6v-.1l.1-.3c.3-.8.7-1.6 1-2.4 0-.1.1-.2.2-.4l.1-.3c.4-.9.7-1.9 1-2.8v-.1l.1-.2c.3-1 .6-1.9.9-2.9 0-.1.1-.2.1-.4l.1-.3c.1-.3.1-.6.2-.9s.2-.8.3-1.2l.2-.9c0-.2.1-.4.1-.6s0-.3.1-.4c.1-.4.2-.9.3-1.3s.1-.6.2-.9c.1-.5.1-.9.2-1.4 0-.2.1-.4.1-.6v-.2c.1-1 .2-1.9.3-2.9.1-.2.1-.5.2-.7z" fill="#767879"/><path class="st6" d="M318.4 268.6V264c0-.3-.1-.7-.1-1s-.1-.5-.1-.7-.1-.7-.2-1-.1-.4-.1-.6c-.1-.4-.2-.7-.3-1 0-.2-.1-.4-.1-.5l-.6-1.5c-1-2.3-2.7-4.3-4.9-5.6l-37.5-21.8c2.2 1.3 3.9 3.3 4.9 5.6l.6 1.5c.1.2.1.4.2.5.1.4.2.7.3 1s.1.4.1.6.1.7.2 1l.1.7c0 .3.1.7.1 1v4.6c0 .3-.1.8-.1 1.2s0 .5-.1.8c-.1.6-.2 1.2-.3 1.9v.2c-.1.5-.2 1.1-.3 1.6s-.3 1.3-.5 1.9c0 .1-.1.3-.1.5-.2.7-.4 1.5-.7 2.2v.1c-.2.7-.5 1.4-.8 2.1-.1.1-.1.2-.1.4-.2.6-.5 1.2-.7 1.8l-.3.6c-.2.5-.4 1-.7 1.4-.1.2-.3.5-.4.8-.2.4-.4.9-.7 1.3l-.5.8c-.3.5-.6 1.1-1 1.6l37.5 21.8c.2-.3.4-.6.6-1s.2-.5.4-.7l.5-.8c.1-.1.1-.3.2-.4.2-.3.3-.6.5-.9l.4-.8.1-.2c.2-.4.4-.8.5-1.2l.3-.6v-.1c.2-.5.5-1.1.7-1.6l.1-.4c.3-.7.5-1.4.7-2.1v-.1c.2-.7.5-1.5.7-2.2v-.1l.1-.4c.2-.7.3-1.3.5-2 0-.1 0-.2.1-.3.1-.5.2-.9.3-1.4v-.2c.1-.5.2-1.1.2-1.6v-.2c0-.3 0-.5.1-.8s.2-.7.2-1.1zM431.1 49.4l-23.5-13.2c-.2.5-.5.9-.8 1.4s-.6 1-1 1.6l-.2.3c-.3.4-.6.9-.9 1.3l-.3.5c-.4.5-.8 1-1.1 1.5-.1.1-.1.2-.2.2-.5.7-1.1 1.4-1.7 2l-.3.4c-.3.3-.6.6-.9 1l-.3.4c-.4.4-.8.9-1.2 1.3l-.1.1c-.6.6-1.2 1.1-1.8 1.6l-.2.2-1.8 1.5-.3.3c-.6.5-1.2.9-1.8 1.3l-.3.2c-.6.4-1.3.8-1.9 1.2s-1 .5-1.4.8l-.3.2c-.5.2-.9.4-1.4.6l-.3.1-.9.3-.4.1-.8.2-.4.1-1.5.3c-.2 0-.5.1-.7.1s-.7.1-1 .1h-1.6l-.8-.2h-.3c-.4-.1-.7-.2-1.1-.2l-.2-.1-.9-.3-.3-.1c-.3-.1-.6-.3-.8-.4l-.3-.1 37.4 21.8.1.1.1.1c.3.1.5.3.8.4l.1.1.1.1.9.3h.1c.4.1.7.2 1.1.2h.3c.3 0 .6.1.9.1h1.6c.3 0 .6 0 .9-.1l.6-.1h.1l1.5-.3h.1l.2-.1.8-.2.4-.1.9-.3.2-.1c.5-.2.9-.4 1.4-.6l.3-.2c.5-.2 1-.5 1.4-.8s1.3-.8 1.9-1.2l.3-.2c.6-.4 1.2-.8 1.8-1.3l.3-.3 1.8-1.5.2-.2c.6-.5 1.2-1.1 1.8-1.7l.1-.1 1.2-1.3.3-.4c.3-.3.6-.6.9-1l.1-.2.2-.2c.6-.7 1.1-1.3 1.6-2l.1-.2c.4-.5.8-1 1.1-1.5l.2-.2.1-.2c.3-.4.6-.9.9-1.3l.2-.3v-.1c.3-.5.6-1 1-1.6.3-.4.5-.9.7-1.3l23.5 13.2-36.6-21.8z"/><path class="st8" d="M296.4 253.5L259 231.7l-1.4-37.2 37.5 21.8zm77.2-172.6l-37.5-21.8 32.4-18.7L406 62.2z"/><path class="st6" d="M318.8 177.7v-2.4c0-.4-.1-.8-.1-1.2v-.5c-.1-.5-.1-1-.2-1.6v-.2l-.3-1.2-.1-.5-.3-.9c-.1-.2-.1-.3-.2-.5-.1-.3-.3-.6-.4-.9l-.2-.4-.6-1.2-.1-.1c-.2-.3-.5-.7-.7-1l-.3-.3c-.2-.2-.4-.4-.6-.7l-.3-.3c-.2-.2-.4-.4-.7-.6l-.3-.2c-.3-.3-.7-.5-1-.7l-37.5-21.8c.4.2.7.4 1 .7l.3.2c.2.2.5.4.7.6l.3.3c.1.1.4.4.6.7l.3.3c.2.3.5.7.7 1 0 0 0 .1.1.1.2.4.5.8.6 1.2l.2.4c.1.3.3.6.4.9.1.1.1.3.2.5l.3.9c0 .2.1.3.1.5l.3 1.2v.2c.1.5.2 1 .2 1.6v.5c0 .4.1.8.1 1.2v2.4c0 .5 0 .9-.1 1.4v.4c0 .6-.1 1.2-.2 1.8 0 .1 0 .3-.1.4-.1.5-.1 1-.2 1.4l-.1.6c-.1.3-.1.7-.2 1-.1.5-.2 1-.4 1.5s-.2.9-.4 1.4-.4 1.2-.6 1.8l-.3.9c-.1.3-.3.8-.5 1.2s-.2.5-.3.8c-.2.4-.4.8-.5 1.3-.1.2-.2.5-.3.7-.2.4-.4.9-.7 1.4l-.3.6c-.3.6-.7 1.2-1 1.8l-.1.1c-.4.6-.8 1.3-1.2 1.9l-.6.9c-.2.3-.5.7-.7 1-.5.7-1 1.3-1.5 2l-.1.2c-.5.7-1.1 1.3-1.6 2-.3.3-.6.7-.9 1l-.5.5-1.4 1.4-.1.1-.1.1c-.6.6-1.2 1.1-1.8 1.7l-.5.8c-.5.4-.9.8-1.4 1.1l-.7.6c-.5.4-1 .7-1.4 1l-.6.4c-.7.5-1.4.9-2.1 1.3l37.5 21.8c.7-.4 1.4-.9 2.1-1.3l.6-.4c.5-.3 1-.7 1.4-1 .2-.2.5-.4.7-.5.5-.4.9-.8 1.4-1.1l.6-.5c.6-.5 1.2-1.1 1.8-1.7l.1-.1.1-.1c.5-.4.9-.9 1.4-1.4.2-.2.3-.4.5-.5l.7-.8.2-.2c.5-.6 1.1-1.3 1.6-1.9l.1-.1c.5-.6 1-1.3 1.5-2v-.1l.6-.9.6-.9v-.1c.4-.6.8-1.2 1.1-1.9l.1-.1c.3-.6.6-1.1 1-1.7 0 0 0-.1.1-.1l.3-.6.5-1.1c0-.1.1-.2.1-.3.1-.2.2-.5.3-.7s.2-.5.4-.8.1-.3.2-.5l.3-.8.2-.6c.1-.2.1-.4.2-.6s.2-.6.3-.9c0-.1.1-.3.2-.5.1-.4.3-.9.4-1.3s.2-.6.2-.9.1-.4.1-.5c.1-.5.3-1 .4-1.5 0-.2.1-.3.1-.5s.1-.4.1-.5l.1-.6c.1-.5.2-1 .2-1.4 0-.1 0-.3.1-.4v-.1c.1-.6.1-1.1.2-1.7v-.4c.2-.9.3-1.4.3-1.9zm54.4-90.3l.1-.6c0-.2.1-.4.1-.6v-.4c.1-.6.1-1.2.2-1.7v-3l-37.4-21.8v3c0 .6-.1 1.2-.1 1.7 0 .3-.1.7-.1 1 0 .2 0 .4-.1.6-.1.6-.2 1.1-.3 1.7v.3c0 .1-.1.3-.1.4-.1.7-.3 1.3-.5 2-.1.3-.2.6-.3 1s-.2.9-.4 1.3l-.4 1.1-.4 1c-.1.4-.3.8-.5 1.2l-.4.9-.6 1.2c-.2.4-.2.5-.4.8-.2.5-.5 1-.7 1.4l-.3.6c-.4.7-.7 1.3-1.1 2l-.2.4c-.3.5-.6 1.1-1 1.6l-.5.8c-.2.4-.5.8-.8 1.1l-.9 1.2c-.2.3-.4.5-.6.8-.5.7-1.1 1.4-1.6 2s-1 1.1-1.5 1.7-1 1-1.5 1.4c-.3.2-.5.5-.8.7s-.8.7-1.2 1l-.7.6c-.4.3-.9.6-1.3 1-.2.2-.4.3-.6.5-.6.4-1.3.8-2 1.2s-1 .6-1.5.8l-.4.2c-.5.2-.9.4-1.4.6-.4.2-.9.3-1.3.5l-.4.1-1 .3-.5.1-.5.1-.5.1-.5.1-.4.1c-.5.1-1 .1-1.6.2h-1.8c-.4 0-.8-.1-1.2-.1h-.2c-.3-.1-.6-.1-.9-.2l-.4-.1c-.2-.1-.5-.2-.7-.2l-.3-.1c-.2-.1-.5-.2-.7-.3l-.3-.2 37.5 21.8.1.1.2.1c.2.1.5.2.7.3 0 0 .1 0 .1.1l.2.1c.2.1.5.2.7.2l.2.1h.1c.3.1.6.2.9.2h.2c.4.1.8.1 1.2.1h1.8c.5 0 1-.1 1.6-.2h.5l.5-.1.5-.1.5-.1.3-.1.2-.1 1-.3.4-.1c.4-.2.9-.3 1.3-.5h.1c.5-.2.9-.4 1.4-.6l.4-.2c.5-.3 1-.5 1.5-.8.7-.4 1.3-.8 2-1.2l.6-.5c.4-.3.9-.6 1.3-1l.7-.6c.4-.3.8-.6 1.1-1s.5-.5.8-.7.4-.4.6-.6l.8-.8c.5-.5 1-1.1 1.5-1.6l.1-.1c.6-.7 1.1-1.3 1.6-2v-.3c.2-.2.3-.5.5-.7l.9-1.2.1-.1.7-1c.2-.3.4-.5.5-.8 0 0 0-.1.1-.1l.9-1.5c.1-.1.2-.2.2-.4.4-.6.7-1.2 1-1.9v-.1l.3-.6.6-1.2.1-.2c.1-.3.2-.5.4-.8s.3-.6.4-1l.1-.3c.1-.3.2-.6.4-.9l.3-.8c0-.1.1-.2.1-.3.1-.3.2-.7.4-1s.2-.5.3-.8c0-.1.1-.2.1-.3.1-.4.3-.8.4-1.3.1-.2.1-.5.2-.7 0-.1 0-.2.1-.2.2-.7.3-1.3.5-2 0-.1.1-.2.1-.4V89c.3-.5.4-1.1.5-1.6z"/><path transform="rotate(-59.84 304.279 130.954)" class="st8" d="M281 109.3h46.6v43.4H281z"/><path d="M463 103.6c3.5 7.6 12.2 8.7 22.1 3l-.6 38.4c-9.2 5.3-17.4 16.2-20.8 28-3.5 12-1.2 22.2 5.8 25.5l-23.1 40.1c-4.2-2.9-10.7-2.2-17.1 1.5-3 1.8-5.8 4-8.2 6.6-8.7 9.3-14.2 22.6-13.6 33.2l-33.9 19.6c.5-11.2-5-18.2-13.8-17.4-2.9.4-5.7 1.4-8.2 2.9-6.4 3.7-12.9 10.5-17.1 18.2l-23.2-13.4c6.9-11.3 9.2-24.2 5.6-32.1-3.5-7.7-11.8-9.2-20.4-4.2l-1.4-37.2c9.9-5.7 18.5-16.9 22-28.5 3.6-12.2 1.3-22.5-5.8-25.8l23.4-40.3c4.2 2.9 10.7 2.1 17.1-1.6 3-1.7 5.6-3.9 8-6.4 8.6-9.1 14.2-22.3 13.8-32.9L406 62.2c-.3 11 5.3 17.8 14 16.8 2.8-.4 5.6-1.4 8-2.9 6.4-3.7 12.9-10.4 17-18.2l23.5 13.2c-7 11.5-9.2 24.5-5.5 32.5zm-72.8 116.2c18.7-10.8 33.8-36.9 33.8-58.4s-15.3-30.1-33.9-19.3-33.8 37-33.7 58.4 15.2 30.1 33.8 19.3" fill="#ecf0f1"/><defs><path id="SVGID_3_" d="M181.4 448.3l31.4 18.3c3.7 2.1 5.8 6.9 5.5 13.4l-31.4-18.3c.3-6.5-1.8-11.3-5.5-13.4z"/></defs><clipPath id="SVGID_4_"><use xlink:href="#SVGID_3_" overflow="visible"/></clipPath><g clip-path="url(#SVGID_4_)"><path class="st11" d="M218.3 479.9l-31.4-18.3c.3-6.4-1.8-11.2-5.5-13.4l31.4 18.3c3.7 2.2 5.8 7 5.5 13.4"/></g><path class="st11" d="M307.6 320.2c.4-.1.8-.3 1.2-.5h.1c.4-.2.9-.4 1.3-.6l.4-.2c.5-.2.9-.5 1.4-.8l-31.4-18.3c-.5.3-1 .5-1.4.8l-.4.2c-.4.2-.9.4-1.3.6h-.1l-1.2.5-.3.1c-.3.1-.6.2-.8.2l-.5.1-.5.1-.5.1-.5.1h-.3c-.5.1-.9.1-1.4.1h-1.5c-.3 0-.6-.1-.9-.1h-.1c-.3-.1-.7-.1-1-.2l-.3-.1c-.2-.1-.4-.1-.6-.2-.1 0-.2-.1-.3-.1l-.6-.3-.2-.1 31.4 18.3.1.1.2.1.6.3.1.1.2.1.7.2.2.1h.1c.3.1.7.2 1 .2h.1c.3 0 .6.1.9.1h1.4c.5 0 .9-.1 1.4-.1h.3l.4-.1.5-.1.5-.1.3-.1.2-.1.8-.3.3-.1z"/><path d="M260.6 366.6c0-.8.1-1.6.1-2.5 0-8.9-3.2-15.2-8.3-18.2L221 327.6c5.1 3 8.3 9.2 8.3 18.2 0 .8 0 1.6-.1 2.5v.5c-.1.8-.1 1.6-.2 2.4 0 .2-.1.5-.1.7s-.1.8-.2 1.1-.1.5-.1.8-.1.7-.2 1.1-.1.6-.2.9-.1.5-.2.8l-.2 1c-.1.2-.1.5-.2.7s-.1.4-.2.6c-.2.8-.5 1.6-.7 2.4 0 .1 0 .1-.1.2l-.9 2.4c-.1.2-.1.4-.2.6-.3.7-.5 1.3-.8 2-.1.1-.1.2-.1.3-.3.7-.6 1.5-1 2.2l-.3.6c-.3.6-.6 1.1-.9 1.7-.1.2-.2.4-.3.5l-1.2 2.1-.2.4c-.4.6-.7 1.2-1.1 1.8l-.3.5c-.5.7-.9 1.5-1.4 2.1l-.2.3c-.5.7-1.1 1.4-1.6 2.1l-.2.3c-.7.9-1.4 1.7-2.1 2.5l-.3.3c-.5.5-.9 1-1.4 1.5-.5.5-1 1-1.4 1.5l-.9.9-.3.3c-.4.4-.8.8-1.2 1.1l-.3.3-1 .8-.5.4-.9.7-.5.4-.8.6-.5.4-.9.6-.4.3c-.4.3-.9.6-1.4.8-.6.4-1.2.7-1.8 1l-.5.2c-.4.2-.9.4-1.3.6l-.5.2c-.4.2-.8.3-1.2.5l-.3.1c-.5.2-1 .3-1.5.5l-.9.2-.4.1c-.4.1-.9.2-1.3.2h-.4c-.4 0-.7.1-1.1.1h-3c-.4 0-.9-.1-1.3-.1l-.4-.1c-.5-.1-1-.2-1.4-.3-.4-.1-.9-.3-1.3-.5l-.4-.1c-.4-.2-.7-.3-1-.5-.1-.1-.2-.1-.3-.2l31.4 18.3.1.1.2.1c.3.2.7.3 1.1.5l.2.1h.2c.4.2.9.3 1.3.5.5.1.9.2 1.4.3h.4c.4.1.9.1 1.3.1h3c.4 0 .7-.1 1.1-.1h.1c.4-.1.9-.1 1.3-.2.1 0 .3-.1.4-.1l.9-.2h.1c.5-.1 1-.3 1.5-.5l.3-.1c.4-.1.8-.3 1.2-.5l.2-.1.3-.1c.4-.2.9-.4 1.3-.6l.5-.2c.6-.3 1.2-.6 1.8-1s.9-.5 1.4-.8l.4-.3.9-.6.5-.4.8-.6.5-.4.8-.6.5-.4 1-.8.3-.3 1.2-1.1.3-.3c.3-.2.5-.5.8-.8l.1-.1c.5-.5 1-1 1.4-1.5.5-.5.9-1 1.4-1.6l.1-.1.1-.2c.7-.8 1.4-1.7 2.1-2.5v-.1l.1-.2c.5-.7 1.1-1.4 1.6-2.1l.2-.2s0-.1.1-.1c.5-.7 1-1.4 1.4-2.1 0-.1.1-.1.1-.2.1-.1.1-.2.2-.3.4-.6.7-1.2 1.1-1.8l.2-.3.1-.1 1.2-2.1.1-.2c.1-.1.1-.2.2-.4.3-.6.6-1.1.9-1.7.1-.1.1-.2.2-.4 0-.1.1-.1.1-.2.4-.7.7-1.5 1-2.2v.1c0-.1.1-.2.1-.2.3-.7.5-1.3.8-2l.1-.3.1-.3.9-2.4v-.3c.3-.8.5-1.6.7-2.4l.1-.3c0-.1.1-.2.1-.3.1-.2.1-.5.2-.7s.2-.6.2-1 .1-.5.2-.7l.1-.5c0-.1 0-.2.1-.4l.2-1.1c0-.3.1-.5.1-.8s.1-.8.2-1.1c0-.2.1-.4.1-.5v-.1c.1-.8.2-1.6.2-2.4.3-.2.3-.4.3-.6z" fill="#2c3e50"/><path class="st11" d="M172.1 454.1v-3.7c0-.2-.1-.6-.1-.9s-.1-.4-.1-.6-.1-.6-.2-.9-.1-.4-.1-.5-.2-.6-.2-.9c0-.1-.1-.3-.1-.4-.1-.4-.3-.8-.5-1.2-.8-2-2.3-3.6-4.1-4.7L135.2 422c1.8 1.1 3.3 2.8 4.1 4.7.2.4.3.8.5 1.2 0 .1.1.3.1.4s.2.6.2.9.1.4.1.5.1.6.2.9.1.4.1.6.1.6.1.9 0 .4.1.6v3.2l-.1 1c0 .2 0 .4-.1.6-.1.5-.1 1-.2 1.5v.2c-.1.5-.2.9-.3 1.4s-.3 1.1-.4 1.6c0 .1-.1.3-.1.4-.2.6-.4 1.2-.6 1.9v.1l-.6 1.8c0 .1-.1.2-.1.3l-.6 1.5c-.1.2-.2.4-.2.5l-.6 1.2-.3.6c-.2.4-.4.7-.6 1.1s-.2.5-.4.7c-.3.5-.5.9-.8 1.4l31.4 18.3c.2-.3.3-.5.5-.8l.3-.6.4-.7.2-.3c.1-.2.2-.5.4-.7l.3-.6.1-.2c.2-.3.3-.7.4-1l.2-.5v-.1c.2-.5.4-.9.6-1.4l.1-.3.6-1.8c.2-.6.4-1.2.6-1.9v-.1l.1-.3c.1-.5.3-1.1.4-1.6l.1-.2c.1-.4.1-.8.2-1.1v-.2c.1-.5.1-.9.2-1.4v-.2c0-.1 0-.4.1-.6s.2-.9.2-1.3zm94.5-183.9l-19.7-11.1c-.2.4-.4.8-.6 1.1s-.5.9-.8 1.3c-.1.1-.1.2-.2.3-.2.4-.5.7-.7 1.1l-.3.4c-.3.4-.6.9-.9 1.3l-.1.2c-.4.6-.9 1.1-1.4 1.7l-.3.3c-.2.3-.5.5-.7.8l-.3.3c-.3.4-.7.7-1 1.1l-.1.1c-.5.5-1 .9-1.5 1.4l-.2.2c-.5.4-1 .9-1.5 1.2l-.3.2c-.5.4-1 .8-1.5 1.1l-.2.2c-.5.4-1.1.7-1.6 1s-.8.4-1.2.6l-.3.1c-.4.2-.8.4-1.2.5l-.2.1-.7.3-.3.1-.6.2-.3.1c-.4.1-.9.2-1.3.3l-.6.1h-2.2c-.3 0-.5 0-.8-.1h-.2c-.3 0-.6-.1-.9-.2h-.1c-.3-.1-.5-.2-.7-.3l-.2-.1c-.2-.1-.5-.2-.7-.3l-.2-.1 31.4 18.3h.1l.1.1c.2.1.4.2.7.3l.1.1h.1l.7.3h.1c.3.1.6.1.9.2h.3c.3 0 .5.1.8.1h1.4l.8-.1.5-.1h.1c.4-.1.9-.2 1.3-.3h.1c.1 0 .1 0 .2-.1.2 0 .4-.1.6-.2l.3-.1.7-.3.2-.1c.4-.2.8-.3 1.2-.5l.3-.1 1.2-.6c.4-.2 1.1-.6 1.6-1l.2-.1c.5-.4 1-.7 1.5-1.1l.3-.2 1.5-1.2.2-.2c.5-.4 1-.9 1.5-1.4.3-.4.7-.7 1-1.1l.3-.3.7-.8.1-.1.1-.2c.5-.5.9-1.1 1.4-1.7l.1-.1c.3-.4.6-.9 1-1.3 0-.1.1-.1.1-.2s.1-.1.1-.2c.2-.4.5-.7.7-1.1l.1-.2v-.1c.3-.4.5-.9.8-1.3.2-.4.4-.7.6-1.1l19.7 11.1-31.2-18.5z"/><path class="st13" d="M153.7 441.4l-31.5-18.3-1.1-31.2 31.4 18.3zm64.7-144.8L187 278.4l27.2-15.7 31.4 18.2z"/><path class="st11" d="M172.4 377.9v-2c0-.3-.1-.7-.1-1v-.4c-.1-.5-.1-.9-.2-1.3v-.2c-.1-.4-.2-.7-.2-1 0-.1-.1-.3-.1-.4s-.2-.5-.3-.8l-.1-.4c-.1-.3-.2-.5-.3-.8s-.1-.2-.1-.3c-.2-.3-.4-.7-.6-1l-.1-.1c-.2-.3-.4-.6-.6-.8l-.2-.3c-.2-.2-.3-.4-.5-.5l-.3-.3c-.2-.2-.4-.3-.6-.5l-.3-.2-.9-.6-31.4-18.3.9.6.3.2c.2.2.4.3.6.5l.3.3c.2.2.3.4.5.5s.1.2.2.3c.2.3.4.5.6.8l.1.1c.2.3.4.7.6 1l.1.3.3.8.1.4c.1.3.2.5.3.8s.1.2.1.4c.1.3.2.7.2 1v.2c.1.4.1.9.2 1.3v.4c0 .3.1.7.1 1v3.5c0 .5-.1 1-.2 1.5 0 .1 0 .2-.1.4-.1.4-.1.8-.2 1.2 0 .2-.1.3-.1.5s-.1.6-.2.9-.2.8-.3 1.3-.2.8-.3 1.2-.3 1-.5 1.5l-.3.8c-.1.3-.2.7-.4 1s-.2.5-.3.7-.3.7-.5 1l-.3.6c-.2.4-.4.8-.6 1.1l-.3.5-.9 1.5-.1.1c-.3.5-.6 1.1-1 1.6l-.5.8-.6.9c-.4.6-.8 1.1-1.2 1.7l-.1.1c-.4.5-.9 1.1-1.4 1.6-.2.3-.5.6-.8.8l-.4.5c-.4.4-.8.8-1.1 1.2l-.1.1-.1.1c-.5.5-1 1-1.5 1.4l-.5.5c-.4.3-.8.6-1.2 1l-.6.5-1.2.9-.5.4c-.6.4-1.2.8-1.8 1.1l31.4 18.3c.6-.3 1.2-.7 1.8-1.1l.5-.4 1.2-.9c.2-.1.4-.3.6-.5.4-.3.8-.6 1.2-1 .2-.1.4-.3.5-.5.5-.5 1-.9 1.5-1.4l.1-.1.1-.1c.4-.4.8-.8 1.1-1.2l.4-.5.6-.6.2-.2c.5-.5.9-1.1 1.3-1.6l.1-.1c.4-.5.8-1.1 1.2-1.7.2-.3.4-.5.5-.8s.4-.5.5-.8c.3-.5.6-1 .9-1.6v-.1c.3-.5.5-1 .8-1.4l.1-.1c.1-.2.2-.3.2-.5s.3-.6.5-.9c0-.1.1-.2.1-.2l.3-.6.3-.7c.1-.1.1-.3.2-.4s.2-.5.3-.7l.2-.5c.1-.2.1-.3.2-.5l.3-.8c0-.1.1-.3.1-.4.1-.4.2-.7.3-1.1s.1-.5.2-.7.1-.3.1-.4c.1-.4.2-.9.3-1.3 0-.1.1-.3.1-.4l.1-.4c0-.2.1-.3.1-.5.1-.4.1-.8.2-1.2l.1-.4v-.1c.1-.5.1-1 .1-1.4v-.3c.6-.6.7-1.1.7-1.4zm45.7-75.9c0-.2.1-.3.1-.5s.1-.3.1-.5v-.4c.1-.5.1-1 .1-1.4v-2.6L187 278.3v2.6c0 .5-.1 1-.1 1.4 0 .3-.1.6-.1.9s-.1.3-.1.5c-.1.5-.1.9-.2 1.4 0 .1 0 .2-.1.2s-.1.2-.1.4c-.1.5-.2 1.1-.4 1.7l-.2.8c-.1.4-.2.7-.3 1.1l-.3.9-.3.9-.4 1c-.1.3-.2.5-.3.8s-.3.7-.5 1-.2.5-.3.7l-.6 1.2-.3.5c-.3.6-.6 1.1-.9 1.7-.1.1-.1.2-.2.3-.3.5-.5.9-.8 1.3l-.5.7-.6.9c-.2.3-.5.7-.7 1l-.5.6c-.5.6-.9 1.1-1.4 1.7-.4.5-.8 1-1.3 1.4s-.8.8-1.2 1.2l-.6.6c-.2.2-.6.6-1 .8l-.6.5c-.4.3-.7.5-1.1.8l-.5.4c-.6.4-1.1.7-1.6 1s-.8.5-1.3.7l-.3.2-1.2.5h-.1c-.4.2-.7.3-1.1.4l-.3.1c-.3.1-.5.2-.8.2l-.4.1-.5.1-.5.1-.4.1h-.4c-.4.1-.9.1-1.3.1h-1.5c-.3 0-.7-.1-1-.1h-.2c-.2 0-.5-.1-.7-.2l-.3-.1c-.2-.1-.4-.1-.6-.2l-.3-.1-.6-.3-.3-.1 31.4 18.3h.1c.1 0 .1.1.2.1l.6.3h.1l.2.1.6.2.2.1h.1l.8.2h.1c.3.1.7.1 1 .1h1.4c.4 0 .9-.1 1.3-.1h.3l.4-.1.5-.1.5-.1.2-.1h.2l.8-.2.3-.1c.4-.1.7-.3 1.1-.4h.1c.4-.2.8-.3 1.2-.5l.3-.2c.4-.2.8-.4 1.3-.7s1.1-.7 1.6-1l.5-.4c.4-.3.7-.5 1.1-.8.2-.2.4-.3.6-.5s.6-.5 1-.8l.6-.6.5-.5.7-.7c.4-.4.8-.9 1.2-1.3v-.1c.5-.5.9-1.1 1.4-1.7l.1-.1c.1-.2.3-.4.4-.6s.5-.6.7-1l.1-.1c.2-.3.4-.5.6-.8l.5-.7s0-.1.1-.1c.3-.4.5-.8.8-1.2l.2-.3c.3-.5.6-1 .9-1.6v-.1c.1-.2.2-.3.2-.5l.5-1c0-.1.1-.1.1-.2.1-.2.2-.5.3-.7s.2-.5.4-.8c0-.1.1-.2.1-.2.1-.3.2-.5.3-.8l.3-.7c0-.1.1-.2.1-.3l.3-.9c.1-.3.2-.4.2-.6s.1-.2.1-.3c.1-.4.2-.7.3-1.1.1-.2.1-.4.2-.6s0-.1 0-.2c.1-.6.3-1.1.4-1.7 0-.1.1-.2.1-.3v-.1c0-.1 0-.2.1-.2.2-.3.3-.8.4-1.3z"/><path transform="rotate(-59.84 160.247 338.608)" class="st13" d="M140.7 320.4h39.1v36.4h-39.1z"/><path d="M293.4 315.6c3 6.3 10.2 7.3 18.5 2.5l-.5 32.2c-7.7 4.4-14.6 13.6-17.5 23.5-3 10-1 18.6 4.8 21.4l-19.4 33.6c-3.5-2.5-9-1.8-14.4 1.3-2.5 1.5-4.9 3.3-6.9 5.5-7.3 7.8-11.9 19-11.4 27.9l-28.4 16.4c.4-9.4-4.2-15.3-11.6-14.6-2.4.3-4.8 1.1-6.9 2.4-6 3.7-11 9-14.3 15.3l-19.5-11.2c5.8-9.5 7.7-20.3 4.7-26.9s-9.9-7.7-17.1-3.5l-1.2-31.2c8.3-4.8 15.6-14.2 18.5-23.9 3.1-10.2 1.1-18.9-4.8-21.6l19.6-33.8c3.5 2.4 9 1.8 14.4-1.3 2.5-1.5 4.7-3.3 6.7-5.3 7.2-7.6 11.9-18.7 11.6-27.6l27.2-15.7c-.2 9.2 4.4 14.9 11.7 14.1 2.4-.3 4.7-1.2 6.7-2.4 6-3.7 11-9 14.3-15.2l19.7 11.1c-5.7 9.5-7.6 20.4-4.5 27zm-61 97.6c15.6-9 28.3-31 28.3-49s-12.8-25.3-28.5-16.2-28.3 31-28.3 49 12.9 25.2 28.5 16.2" fill="#2b333a"/></svg>