<svg xmlns="http://www.w3.org/2000/svg" viewBox="0 0 400 400"><defs><style>.cls-2{fill:#fff}.cls-3{fill:#cae4ef}.cls-5{fill:#75a5ba;fill-rule:evenodd}.cls-8{fill:#192938}.cls-11{fill:#005b86}.cls-12{fill:#1c2f3f}.cls-13{fill:#95a5a6}.cls-14{fill:#7f8c8d}.cls-15{fill:#473f3a}.cls-16{fill:#0071bc}.cls-18{fill:#2b2b2b}.cls-19{fill:#262626}.cls-21{fill:#191919}</style></defs><g id="Layer_1" data-name="Layer 1"><path fill="#ecf0f1" d="M0 0h400v400H0z"/><path class="cls-2" d="M-31.51 29.8h225v204h-225z"/><path class="cls-3" d="M-21.51 39.8h205v184h-205z"/><path fill="#4c8291" d="M-20 153.64h205v70.17H-20z"/><path id="_Path_" data-name="&lt;Path&gt;" class="cls-5" d="M41.51 91.5c-1.2 4-1.32 5.65-4.15 8.92a53.28 53.28 0 0 1-4.3 4.54l2.09-.61s-1.48 1.52-3.58 3.54-6.26 4.48-5.76 4.39 2.3-.66 3.48-1l-1.06 1.08c-2 1.33-4.84 3.23-4.74 3.27a7 7 0 0 0 1.49-.18c-1.06 1-2.21 2-3.48 3.11.4-.06 3.38-.82 6.61-1.66-.42.42-.4.41-1.08 1.07s-1.9 1.43-1.51 1.39a34.7 34.7 0 0 0 4.86-1.9 19.33 19.33 0 0 0 2.83-1.89l.29-.08a25.75 25.75 0 0 0-2.26 3.15c.79-.2 4.48-2.42 4.41-2.29-3 5-8.93 8.37-8.7 8.37.68 0 4.19-1 3.88-.58s-4 3.24-5.9 4.61-2.63 1.84-2.29 1.76 1.47-.23 3-.55a52.25 52.25 0 0 1-6.16 4.47s2.08-.48 4.65-1.15c-1.6 1.38-2.86 2.29-2.53 2.29s6.36-2.52 6.21-2.25-1.79 1.91-1.79 1.91a49.5 49.5 0 0 0 4.78-2.12 3.86 3.86 0 0 1 .95-.57s-1.69 2.45-1.06 2.13 2.16-.78 2.57-1c-1.58 4.92-8 7.77-8 7.77h2.86s-1.73 1.25-4.09 2.85-5.43 3.1-5.07 3.13a23.12 23.12 0 0 0 2.81 0 113.8 113.8 0 0 1-9.93 5.63l5-1.09c-2.58 1.73-4.9 3.09-4.37 3s7.24-2.55 6.9-2.28-2.62 2.07-2.17 2.13 4.72-1.94 6.09-2.7a16.18 16.18 0 0 1 1.49-.8s-2.4 3.23-1.95 3a24.28 24.28 0 0 0 7.49-4.68 15.62 15.62 0 0 1-7.43 8.15c-3.43 2-5.34 2.52-4.35 2.52s2.67-.16 2.67-.16 2.23-.47-2.72 2.43-9.22 4.5-7.93 4.27a19.61 19.61 0 0 1 4 .36C8.8 171 4.08 172.9 4.93 173a24.77 24.77 0 0 0 3.71-.73c-2 1.41-3.39 2.5-2.81 2.47 1.53-.07 7.7-3.2 7.32-2.74s-3.89 3.13-2.67 2.74 8.69-4.34 8.46-3.88-3.27 3.66-1.6 2.51c1.15-.78 3.78-1.68 6-2.83-.91 1.11-2.09 2.5-3.47 4-1.72 1-3.53 2-4.9 2.64-3.12 1.45-3.65 2.06-3.65 2.06l1.52.45a42 42 0 0 1-4.57 2.9C3.83 185.28.93 186 1.77 186s2.52 0 2.13.15-4.19 2.29-4.19 2.29a7.32 7.32 0 0 0 1.89.12c-3.37 2-5.75 3.22-5.05 3.15.45 0 1.63-.14 3.23-.32-2.27 1.08-3.88 1.84-3.39 1.84 1.14 0 6.47-1.22 6.47-1.22s-2.66 2-2 1.76 9.14-2.71 9.14-2.71-1.68 2.29-1.3 2.14 7.24-4 7.24-4-2.36 3.43-1.29 2.74c.58-.37 3.61-2.49 6.23-4.32-.9 1.2-2.05 2.67-3.36 4.23a31.59 31.59 0 0 1-3.89 2.42c-2.29 1.1-3.58 1.52-3.16 1.52s2.06.08 2.06.08a11.35 11.35 0 0 1-3.28 2.86c-2.55 1.67-4.12 2.36-3.85 2.44s1.94-.17 1.6.03-5.6 3.62-5.41 3.62a6.17 6.17 0 0 0 1.69 0c-2.17 1.57-3.1 2.2-2 2a21.1 21.1 0 0 0 2.37-.64c-.94.86-1.42 1.43-1.08 1.47 1.29.16 5.26-1.37 5.26-1.37s-1 1.53-.54 1.3 5.11-2.67 5.11-2.67-.31 1.91.15 1.53 5.56-4.35 5.56-4.35l1 1a64.11 64.11 0 0 0-4.92 5.42 32 32 0 0 1 3.82-.81c-.85.85-1.35 1.44-.94 1.41 1.07-.07 5.87-1.45 5.87-1.45s-.61 1.53.31 1.15 7.39-3.28 7.39-3.28-.38 2.06.31 1.83 5.79-3.89 5.79-3.89 0 2.29.45 1.91a13.55 13.55 0 0 0 1-1.06v11.58h6.65v-11.57c.49.57.84 1 1 1.06.45.38.45-1.91.45-1.91s5.11 3.66 5.8 3.89.3-1.83.3-1.83 6.48 2.9 7.39 3.28.31-1.15.31-1.15 4.8 1.38 5.87 1.45c.41 0-.09-.56-.93-1.41a31.6 31.6 0 0 1 3.81.81 64.11 64.11 0 0 0-4.92-5.42l1-1s5.1 4 5.56 4.35.15-1.53.15-1.53 4.65 2.44 5.11 2.67-.54-1.3-.54-1.3 4 1.53 5.26 1.37c.34 0-.14-.61-1.08-1.47a21.1 21.1 0 0 0 2.37.64c1.1.17.17-.46-2-2a6.14 6.14 0 0 0 1.69 0c.19 0-5.07-3.39-5.41-3.62s1.29 0 1.56-.07-1.3-.77-3.85-2.44a11.18 11.18 0 0 1-3.27-2.86s1.63-.08 2.05-.08-.87-.42-3.16-1.52a31.59 31.59 0 0 1-3.89-2.42c-1.31-1.56-2.45-3-3.36-4.23 2.62 1.83 5.65 3.95 6.24 4.32 1.06.69-1.3-2.74-1.3-2.74s6.86 3.88 7.24 4-1.3-2.14-1.3-2.14 8.46 2.52 9.15 2.75-2-1.76-2-1.76 5.33 1.22 6.48 1.22c.48 0-1.13-.76-3.4-1.84 1.6.18 2.78.28 3.23.32.7.07-1.67-1.2-5-3.15a7.24 7.24 0 0 0 1.89-.12s-3.81-2.14-4.19-2.29 1.29-.08 2.13-.15-2.06-.76-6.48-3.43a42 42 0 0 1-4.57-2.9l1.52-.45s-.53-.61-3.65-2.06c-1.37-.63-3.18-1.63-4.9-2.64-1.38-1.51-2.56-2.9-3.47-4 2.2 1.15 4.83 2 6 2.83 1.68 1.15-1.37-2-1.6-2.51s7.24 3.5 8.46 3.88-2.29-2.28-2.67-2.74 5.79 2.67 7.32 2.74c.58 0-.81-1.06-2.81-2.47a24.77 24.77 0 0 0 3.71.73c.86-.11-3.87-2-9.61-5.81a19.61 19.61 0 0 1 4-.36c1.29.23-3-1.38-7.93-4.27s-2.72-2.43-2.72-2.43 1.68.16 2.67.16-.92-.54-4.35-2.52a15.66 15.66 0 0 1-7.43-8.15 24.28 24.28 0 0 0 7.49 4.68c.45.26-2-3-2-3a16.18 16.18 0 0 1 1.49.8c1.37.76 5.65 2.77 6.1 2.7S64 153 63.67 152.71s6.37 2.22 6.9 2.28-1.79-1.3-4.37-3l5 1.09a113.07 113.07 0 0 1-9.94-5.63 23.12 23.12 0 0 0 2.81 0c.36 0-2.7-1.53-5.07-3.13s-4.09-2.85-4.09-2.85h2.86s-6.45-2.85-8-7.77c.4.22 1.94.69 2.57 1s-1.07-2.13-1.07-2.13a3.86 3.86 0 0 1 1 .57 49.5 49.5 0 0 0 4.73 2.09s-1.64-1.64-1.79-1.91 5.88 2.25 6.21 2.25-.92-.91-2.53-2.29c2.58.67 4.65 1.15 4.65 1.15a51.75 51.75 0 0 1-6.2-4.43c1.56.32 2.69.46 3 .55s-.42-.38-2.29-1.76-5.6-4.22-5.9-4.61 3.2.58 3.89.58c.23 0-5.72-3.36-8.7-8.37-.08-.13 3.61 2.09 4.4 2.29a25.75 25.75 0 0 0-2.26-3.15l.29.08a19.33 19.33 0 0 0 2.83 1.89 34.7 34.7 0 0 0 4.86 1.9c.4 0-.83-.73-1.51-1.39s-.66-.65-1.08-1.07c3.23.84 6.21 1.6 6.61 1.66-1.26-1.1-2.42-2.13-3.48-3.11a7 7 0 0 0 1.49.18c.11 0-2.7-1.94-4.74-3.27l-1.06-1.08c1.19.34 3 .9 3.48 1s-3.66-2.37-5.76-4.39-3.58-3.54-3.58-3.54L50 105a52.14 52.14 0 0 1-4.31-4.54c-2.87-3.31-2.99-4.91-4.18-8.96z"/><path id="_Path_2" data-name="&lt;Path&gt;" class="cls-5" d="M139.88 108.8c-1.1 3.75-1.22 5.22-3.83 8.25a47.42 47.42 0 0 1-4 4.19l1.94-.56s-1.38 1.41-3.31 3.27-5.79 4.15-5.33 4.06 2.12-.61 3.22-.92l-1 1c-1.89 1.24-4.48 3-4.39 3a6.76 6.76 0 0 0 1.39-.16c-1 .9-2 1.85-3.22 2.87.37-.06 3.12-.76 6.11-1.54-.39.39-.37.38-1 1s-1.76 1.32-1.39 1.29a31.64 31.64 0 0 0 4.49-1.76 18.39 18.39 0 0 0 2.62-1.75l.26-.07a25.47 25.47 0 0 0-2.09 2.91c.73-.18 4.14-2.23 4.07-2.11-2.75 4.63-8.25 7.73-8 7.73.64 0 3.88-.88 3.59-.53s-3.73 3-5.45 4.26-2.43 1.7-2.12 1.62 1.36-.21 2.81-.5a48.3 48.3 0 0 1-5.69 4.13s1.92-.45 4.3-1.07c-1.49 1.28-2.65 2.12-2.34 2.12s5.88-2.32 5.74-2.08-1.66 1.76-1.66 1.76a43.81 43.81 0 0 0 4.42-1.95 3.62 3.62 0 0 1 .88-.53s-1.56 2.26-1 2 2-.72 2.37-.93c-1.45 4.56-7.43 7.19-7.42 7.19h2.65s-1.6 1.15-3.79 2.63-5 2.86-4.68 2.89a20.91 20.91 0 0 0 2.59 0 104.79 104.79 0 0 1-9.18 5.21l4.59-1c-2.39 1.6-4.53 2.85-4 2.8s6.69-2.36 6.38-2.11-2.43 1.91-2 2a35.65 35.65 0 0 0 5.64-2.5c1.26-.71 1.37-.74 1.37-.74s-2.22 3-1.8 2.75a22.45 22.45 0 0 0 6.92-4.33 14.51 14.51 0 0 1-6.87 7.54c-3.17 1.83-4.93 2.32-4 2.32s2.46-.14 2.46-.14 2.07-.43-2.51 2.24-8.53 4.16-7.33 3.95a17.91 17.91 0 0 1 3.7.34c-5.31 3.49-9.67 5.26-8.88 5.36a22.59 22.59 0 0 0 3.43-.66c-1.85 1.3-3.14 2.31-2.6 2.28 1.41-.07 7.12-3 6.77-2.54s-3.6 2.89-2.47 2.54 8-4 7.82-3.59-3 3.38-1.48 2.32c1.07-.73 3.5-1.55 5.53-2.62-.84 1-1.93 2.31-3.21 3.71-1.59.94-3.26 1.85-4.52 2.44a13 13 0 0 0-3.39 1.9l1.41.42a36.9 36.9 0 0 1-4.22 2.68c-4.09 2.47-6.77 3.1-6 3.17s2.32 0 2 .14-3.87 2.12-3.87 2.12a7.09 7.09 0 0 0 1.74.11c-3.12 1.8-5.32 3-4.67 2.91.42 0 1.51-.13 3-.29-2.1 1-3.59 1.7-3.14 1.7 1.06 0 6-1.13 6-1.13s-2.47 1.83-1.83 1.62 8.45-2.53 8.45-2.53-1.55 2.11-1.2 2 6.7-3.74 6.7-3.74-2.19 3.17-1.2 2.54c.54-.35 3.34-2.3 5.76-4a83.19 83.19 0 0 1-3.1 3.92 30.06 30.06 0 0 1-3.6 2.23c-2.11 1-3.31 1.41-2.92 1.41s1.9.07 1.9.07a10.29 10.29 0 0 1-3 2.65c-2.36 1.55-3.81 2.18-3.56 2.25s1.76-.14 1.45.07-5.18 3.35-5 3.35a6.1 6.1 0 0 0 1.57 0c-2 1.45-2.87 2-1.85 1.88a19.26 19.26 0 0 0 2.18-.59c-.86.8-1.3 1.33-1 1.36 1.19.14 4.86-1.26 4.86-1.26s-.92 1.4-.5 1.19 4.72-2.46 4.72-2.46-.28 1.76.15 1.41 5.14-4 5.14-4l1 .91a62 62 0 0 0-4.54 5 32.35 32.35 0 0 1 3.52-.74c-.78.78-1.24 1.33-.86 1.3 1-.07 5.43-1.34 5.43-1.34s-.57 1.41.28 1.06 6.83-3 6.83-3-.35 1.9.29 1.69 5.35-3.59 5.35-3.59 0 2.11.42 1.76a12.87 12.87 0 0 0 .88-1v10.57H143v-10.69a12.87 12.87 0 0 0 .88 1c.42.35.42-1.76.42-1.76s4.72 3.38 5.36 3.59.28-1.69.28-1.69 6 2.68 6.83 3 .29-1.06.29-1.06 4.44 1.27 5.42 1.34c.39 0-.08-.52-.86-1.3a33.5 33.5 0 0 1 3.53.74 63.51 63.51 0 0 0-4.55-5l1-.91s4.72 3.66 5.14 4 .14-1.41.14-1.41l4.72 2.46c.42.21-.49-1.19-.49-1.19s3.66 1.4 4.86 1.26c.31 0-.14-.56-1-1.36a18.71 18.71 0 0 0 2.19.59c1 .16.16-.43-1.85-1.88a6 6 0 0 0 1.56 0c.18 0-4.68-3.14-5-3.35s1.2 0 1.44-.07-1.19-.7-3.56-2.25a10.13 10.13 0 0 1-3-2.65s1.51-.07 1.9-.07-.81-.38-2.92-1.41a29.29 29.29 0 0 1-3.6-2.23c-1.21-1.44-2.27-2.8-3.11-3.92 2.43 1.7 5.23 3.65 5.77 4 1 .63-1.2-2.54-1.2-2.54s6.34 3.6 6.69 3.74-1.2-2-1.2-2 7.82 2.32 8.46 2.53-1.83-1.62-1.83-1.62 4.93 1.13 6 1.13c.45 0-1-.71-3.15-1.7 1.49.16 2.58.25 3 .29.65.07-1.55-1.11-4.67-2.91a7.23 7.23 0 0 0 1.75-.11s-3.52-2-3.88-2.12 1.2-.07 2-.14-1.91-.7-6-3.17a36.94 36.94 0 0 1-4.23-2.68l1.41-.42a12.68 12.68 0 0 0-3.38-1.9c-1.26-.59-2.94-1.5-4.53-2.44-1.28-1.4-2.37-2.68-3.21-3.71 2 1.07 4.47 1.89 5.53 2.62 1.55 1.06-1.27-1.9-1.48-2.32s6.69 3.24 7.82 3.59-2.11-2.11-2.46-2.54 5.35 2.47 6.76 2.54c.54 0-.75-1-2.59-2.28a22.34 22.34 0 0 0 3.42.66c.8-.1-3.57-1.87-8.88-5.36a18 18 0 0 1 3.71-.34c1.19.21-2.75-1.27-7.33-3.95s-2.52-2.24-2.52-2.24 1.55.14 2.47.14-.85-.49-4-2.32a14.51 14.51 0 0 1-6.87-7.54 22.69 22.69 0 0 0 6.92 4.33c.42.24-1.8-2.75-1.8-2.75s.11 0 1.38.74a36 36 0 0 0 5.63 2.5c.42-.06-1.69-1.73-2-2s5.88 2.06 6.37 2.11-1.65-1.2-4-2.8l4.59 1a104.79 104.79 0 0 1-9.18-5.21 21.07 21.07 0 0 0 2.6 0c.33 0-2.5-1.41-4.69-2.89s-3.78-2.63-3.78-2.63h2.64s-6-2.63-7.42-7.19c.38.21 1.8.65 2.38.93s-1-2-1-2a3.35 3.35 0 0 1 .88.53 44.83 44.83 0 0 0 4.42 1.95s-1.51-1.51-1.65-1.76 5.43 2.08 5.74 2.08-.86-.84-2.35-2.12c2.39.62 4.31 1.07 4.31 1.07a48.3 48.3 0 0 1-5.69-4.13c1.44.29 2.49.43 2.8.5s-.39-.35-2.11-1.62-5.18-3.91-5.46-4.26 3 .53 3.59.53c.22 0-5.28-3.1-8-7.73-.07-.12 3.34 1.93 4.07 2.11a24.2 24.2 0 0 0-2.09-2.91l.27.07a18.2 18.2 0 0 0 2.61 1.75 31.67 31.67 0 0 0 4.5 1.76c.37 0-.76-.68-1.39-1.29s-.62-.6-1-1c3 .78 5.74 1.48 6.11 1.54-1.17-1-2.24-2-3.22-2.87a6.75 6.75 0 0 0 1.38.16c.09 0-2.5-1.79-4.38-3l-1-1c1.09.31 2.75.83 3.21.92s-3.39-2.19-5.32-4.06-3.31-3.27-3.31-3.27l1.93.56a47.42 47.42 0 0 1-4-4.19c-2.79-2.93-2.89-4.38-4.01-8.13z"/><path id="_Path_3" data-name="&lt;Path&gt;" class="cls-5" d="M108.14 102.85c-.75 2.54-.83 3.54-2.6 5.59a32.71 32.71 0 0 1-2.7 2.84l1.31-.38s-.93 1-2.24 2.22-3.93 2.81-3.61 2.76 1.43-.42 2.18-.63l-.67.68a35.81 35.81 0 0 0-3 2 5.52 5.52 0 0 0 .94-.11c-.67.61-1.39 1.26-2.19 1.95.25 0 2.12-.52 4.15-1-.27.27-.25.26-.68.68s-1.19.89-.94.87a21.49 21.49 0 0 0 3-1.2 11.61 11.61 0 0 0 1.78-1.18h.18a17 17 0 0 0-1.42 2c.49-.12 2.81-1.51 2.76-1.43-1.87 3.14-5.6 5.24-5.45 5.24.43 0 2.62-.59 2.43-.35s-2.53 2-3.7 2.89-1.64 1.15-1.43 1.1.92-.15 1.9-.35a32.05 32.05 0 0 1-3.86 2.8s1.3-.3 2.92-.72c-1 .87-1.8 1.44-1.59 1.44s4-1.58 3.89-1.41-1.12 1.19-1.12 1.19a30.23 30.23 0 0 0 3-1.32c.52-.36.6-.36.6-.36s-1.06 1.53-.67 1.34 1.35-.49 1.61-.63c-1 3.09-5 4.87-5 4.87h1.79s-1.09.78-2.57 1.78-3.4 1.94-3.17 2a13.14 13.14 0 0 0 1.76 0 69 69 0 0 1-6.23 3.53l3.11-.68c-1.62 1.08-3.07 1.94-2.74 1.9s4.54-1.6 4.33-1.43-1.65 1.29-1.37 1.33a23.42 23.42 0 0 0 3.83-1.69c.86-.48.93-.5.93-.5s-1.51 2-1.22 1.86a15.2 15.2 0 0 0 4.69-2.93 9.78 9.78 0 0 1-4.66 5.11c-2.15 1.24-3.34 1.57-2.72 1.57s1.67-.09 1.67-.09 1.4-.3-1.7 1.52-5.79 2.82-5 2.67a12.92 12.92 0 0 1 2.51.23c-3.6 2.37-6.56 3.58-6 3.64a14.2 14.2 0 0 0 2.33-.45c-1.25.88-2.13 1.57-1.76 1.55 1-.05 4.83-2 4.59-1.72s-2.44 2-1.68 1.72 5.45-2.72 5.31-2.44-2.06 2.3-1 1.58c.73-.49 2.38-1.05 3.76-1.78-.57.7-1.31 1.57-2.18 2.52-1.08.63-2.22 1.26-3.07 1.65a8.84 8.84 0 0 0-2.3 1.29l1 .29a28.88 28.88 0 0 1-2.88 1.73c-2.77 1.68-4.58 2.11-4.06 2.15s1.58 0 1.34.1-2.63 1.43-2.63 1.43a4.68 4.68 0 0 0 1.19.08c-2.12 1.22-3.61 2-3.17 2 .28 0 1-.09 2-.2-1.43.67-2.44 1.15-2.13 1.15.71 0 4.06-.76 4.06-.76s-1.68 1.24-1.25 1.09 5.74-1.72 5.74-1.72-1.05 1.44-.81 1.34 4.54-2.53 4.54-2.53-1.49 2.15-.82 1.72c.37-.24 2.27-1.56 3.91-2.71-.56.75-1.28 1.68-2.1 2.66a21.07 21.07 0 0 1-2.44 1.51c-1.44.69-2.25 1-2 1h1.29a7 7 0 0 1-2 1.8 21.48 21.48 0 0 0-2.41 1.52c.16 0 1.19-.09 1 0S83 173.9 83.1 173.9a3.59 3.59 0 0 0 1.06 0c-1.36 1-1.94 1.38-1.25 1.28a14.34 14.34 0 0 0 1.48-.4c-.58.54-.88.9-.67.92a12.48 12.48 0 0 0 3.29-.86s-.62 1-.33.81l3.2-1.67s-.19 1.2.1 1 3.48-2.73 3.48-2.73l.66.62a41.29 41.29 0 0 0-3.09 3.4 20.71 20.71 0 0 1 2.4-.5c-.53.53-.85.9-.59.88.67 0 3.68-.91 3.68-.91s-.38 1 .19.72 4.64-2.06 4.64-2.06-.24 1.29.19 1.15 3.63-2.44 3.63-2.44 0 1.44.29 1.2c.06-.06.29-.31.59-.66v7.25h4.17v-7.3c.3.35.53.6.59.66.29.24.29-1.2.29-1.2s3.2 2.3 3.63 2.44.19-1.15.19-1.15 4.07 1.82 4.64 2.06.19-.72.19-.72 3 .86 3.68.91c.26 0-.06-.35-.58-.88a20.84 20.84 0 0 1 2.39.5 41.29 41.29 0 0 0-3.09-3.4l.66-.62s3.2 2.49 3.49 2.73.09-1 .09-1l3.2 1.67c.29.15-.33-.81-.33-.81a12.47 12.47 0 0 0 3.3.86c.21 0-.1-.38-.68-.92a14.34 14.34 0 0 0 1.48.4c.69.1.11-.29-1.25-1.28a3.59 3.59 0 0 0 1.06 0c.12 0-3.18-2.12-3.39-2.27s.81 0 1 0a24.17 24.17 0 0 0-2.42-1.52 7 7 0 0 1-2-1.8h1.29c.26 0-.55-.27-2-1a20.29 20.29 0 0 1-2.45-1.51c-.81-1-1.53-1.91-2.1-2.66 1.64 1.15 3.54 2.47 3.91 2.71.67.43-.81-1.72-.81-1.72s4.3 2.44 4.54 2.53-.82-1.34-.82-1.34 5.31 1.58 5.74 1.72-1.25-1.09-1.25-1.09 3.35.76 4.07.76c.3 0-.71-.48-2.13-1.15 1 .11 1.74.17 2 .2.44 0-1-.76-3.16-2a4.63 4.63 0 0 0 1.18-.08s-2.39-1.33-2.63-1.43.81-.05 1.34-.1-1.29-.47-4.06-2.15a28.88 28.88 0 0 1-2.87-1.81l1-.29a8.84 8.84 0 0 0-2.3-1.29c-.85-.39-2-1-3.07-1.65-.86-1-1.6-1.82-2.17-2.52 1.38.73 3 1.29 3.75 1.78 1 .72-.86-1.29-1-1.58s4.54 2.2 5.31 2.44-1.44-1.43-1.68-1.72 3.64 1.67 4.59 1.72c.37 0-.5-.67-1.76-1.55a14.4 14.4 0 0 0 2.33.45c.54-.06-2.43-1.27-6-3.64a12.86 12.86 0 0 1 2.51-.23c.81.15-1.87-.86-5-2.67s-1.71-1.52-1.71-1.52 1.05.09 1.67.09-.57-.33-2.72-1.57a9.82 9.82 0 0 1-4.66-5.11 15.2 15.2 0 0 0 4.69 2.93c.29.17-1.22-1.86-1.22-1.86s.07 0 .93.5a23.8 23.8 0 0 0 3.83 1.69c.28 0-1.15-1.17-1.36-1.33s4 1.39 4.32 1.43-1.12-.82-2.74-1.9l3.11.68a69.69 69.69 0 0 1-6.22-3.53 13.17 13.17 0 0 0 1.76 0c.22 0-1.7-1-3.18-2s-2.57-1.78-2.57-1.78h1.79s-4-1.78-5-4.87c.26.14 1.22.43 1.61.63s-.66-1.34-.66-1.34a2.34 2.34 0 0 1 .59.36 30.23 30.23 0 0 0 3 1.32s-1-1-1.12-1.19 3.68 1.41 3.89 1.41-.69-.52-1.69-1.43c1.62.42 2.92.72 2.92.72a32.05 32.05 0 0 1-3.86-2.8c1 .2 1.69.29 1.9.35s-.26-.24-1.43-1.1-3.51-2.65-3.7-2.89 2 .35 2.44.35c.14 0-3.59-2.1-5.46-5.24 0-.08 2.27 1.31 2.76 1.43a17.8 17.8 0 0 0-1.41-2h.17a11.61 11.61 0 0 0 1.78 1.18 21.52 21.52 0 0 0 3 1.2c.25 0-.52-.46-1-.87s-.41-.41-.67-.68c2 .53 3.89 1 4.14 1-.79-.69-1.52-1.34-2.18-1.95a5.36 5.36 0 0 0 .93.11 35.81 35.81 0 0 0-3-2l-.66-.68c.74.21 1.86.57 2.18.63s-2.3-1.49-3.61-2.76-2.25-2.22-2.25-2.22l1.31.38a32.71 32.71 0 0 1-2.7-2.84c-1.6-1.93-1.71-2.93-2.46-5.47z"/><path d="M70.4 219c-8.44-5.09-8.73-5.53-8.73-5.53l2.91-.87s-1-1.17-7-3.93c-2.6-1.21-6.07-3.11-9.35-5.05-2.64-2.88-4.9-5.53-6.64-7.65 4.21 2.2 9.23 3.91 11.43 5.41 3.2 2.18-2.62-3.93-3.06-4.8s13.84 6.7 16.17 7.42-4.37-4.37-5.09-5.24S72.1 203.86 75 204c1.12.06-1.54-2-5.36-4.72a46.12 46.12 0 0 0 7.08 1.38c1.64-.2-7.38-3.86-18.34-11.08 2.41-.24 5.73-1 7.64-.7 2.48.43-5.67-2.62-15.13-8.15s-5.2-4.64-5.2-4.64 3.2.29 5.09.29-1.74-1-8.29-4.8c-7.39-4.26-10.56-7.82-14.2-15.56 5.65 5.69 13.42 8.42 14.3 8.93s-3.72-5.68-3.72-5.68.22.07 2.84 1.53 10.8 5.3 11.66 5.2-3.5-3.57-4.15-4.08 12.16 4.25 13.17 4.37-3.39-2.51-8.39-5.81l9.49 2.08a215 215 0 0 1-19-10.75 44.77 44.77 0 0 0 5.36.06c.68-.06-5.17-2.91-9.68-6s-7.82-5.44-7.82-5.44l5.46-.08s-12.32-5.44-15.32-14.84c.78.41 3.72 1.32 4.91 1.92s-2-4.08-2-4.08a7.13 7.13 0 0 1 1.82 1.09c1.6 1.1 9.13 4 9.13 4s-3.13-3.13-3.42-3.64 11.23 4.3 11.86 4.3-1.77-1.75-4.84-4.38c4.92 1.28 8.89 2.2 8.89 2.2a100.56 100.56 0 0 1-11.76-8.53c3 .6 5.16.88 5.8 1s-.8-.73-4.37-3.35-10.69-8.08-11.28-8.8 6.12 1.09 7.43 1.09c.44 0-10.92-6.41-16.62-16-.14-.24 6.91 4 8.42 4.37.39.1-3-4.25-4.32-6l.55.14a35.44 35.44 0 0 0 5.4 3.61 64.33 64.33 0 0 0 9.28 3.64c.76.08-1.57-1.4-2.87-2.65s-1.27-1.25-2.07-2c6.18 1.6 11.86 3 12.63 3.18-2.42-2.11-4.63-4.08-6.66-5.94a15.41 15.41 0 0 0 2.86.34c.2-.08-5.16-3.71-9-6.26-.71-.7-1.38-1.39-2-2.06 2.26.65 5.68 1.73 6.64 1.91s-7-4.52-11-8.38-6.9-6.7-6.9-6.7l4 1.17a98.72 98.72 0 0 1-8.21-8.7c-5.4-6.26-5.63-9.3-7.91-17C4.59 52.74 4.36 55.78-1 62a99.82 99.82 0 0 1-8.26 8.7l4-1.17s-2.83 2.92-6.84 6.77a85 85 0 0 1-9.82 7.39v.69c1.48-.41 3.79-1.13 5.47-1.61l-2 2.06-3.43 2.28v7.22l3.18-.82c-.79.8-.76.79-2.06 2-.33.31-.72.64-1.11 1v1.15a70.21 70.21 0 0 0 7.51-3.1A35.11 35.11 0 0 0-9 91l.55-.14c-1.35 1.76-4.71 6.11-4.32 6 1.51-.38 8.56-4.61 8.41-4.37-5.69 9.57-17 16-16.61 16 1.31 0 8-1.82 7.42-1.09-.44.56-4.75 3.9-8.34 6.61v11.73c1.59-.6 2.72-1 2.63-.82a37.38 37.38 0 0 1-2.63 2.84v.49a76.35 76.35 0 0 0 8.34-3.73 7.13 7.13 0 0 1 1.82-1.09s-3.23 4.67-2 4.08 4.13-1.51 4.91-1.92c-2.19 6.84-9.31 11.58-13 13.66v1.21l3.16.05s-1.21.87-3.16 2.24v18.82a35 35 0 0 0 7.27-5.57c-2.24 4.77-4.31 8-7.3 10.69 0 19.63-.09 38.85-.18 56.69h39.92q30.47 0 60.92.08A81.65 81.65 0 0 1 70.4 219z" fill="#a0c4d8" fill-rule="evenodd"/><path class="cls-3" d="M-21.51 39.8h205v184h-205z" opacity=".6"/><path class="cls-2" d="M76 29.8h9.97v204H76z"/><path class="cls-2" transform="rotate(-90 80.985 131.805)" d="M76 29.8h9.97v204H76z"/></g><g id="Layer_2" data-name="Layer 2"><path class="cls-8" d="M325.92 400V253.42a17 17 0 0 0-17-17h-31.77V400z"/><path d="M121.52 400V246.28a17 17 0 0 1 17-17H267a17 17 0 0 1 17 17V400" fill="#333"/><path d="M202.78 278.9a49.7 49.7 0 0 1-49.65-49.65h20a29.65 29.65 0 0 0 59.3 0h20a49.7 49.7 0 0 1-49.65 49.65z" fill="#1a1a1a"/><path class="cls-11" d="M242.43 229.25a39.65 39.65 0 0 1-79.3 0"/><path class="cls-12" d="M121.52 400V246.28a17 17 0 0 1 17-17s10.72.09 14.59 0C164 229 214 400 214 400"/><path class="cls-12" d="M202.61 400l1-33.91s31.22-136.84 48.79-136.84H267a17 17 0 0 1 17 17V400"/><path class="cls-8" d="M204 343.6v31.87c-19.2-92.64-58.59-83.37-58.59-138.25 0-11 4.59-17 14-17H174z"/><path class="cls-2" d="M272.33 298.81v1.7h.61c.5 0 1.07-.16 1.07-.89s-.39-.81-.86-.81zm-1.71-1.24h2.85c1.35 0 2.26.65 2.26 1.92a2 2 0 0 1-1.39 1.88 2.07 2.07 0 0 1 .48.65c.29.59.48 1.23 1.08 1.23a.8.8 0 0 0 .28-.05l-.13 1.22a3.45 3.45 0 0 1-.69.09c-.82 0-1.29-.32-1.77-1.41-.21-.49-.49-1.35-.87-1.35h-.39v2.73h-1.71v-6.91zm-5 6.91h4.68v-1.27h-3v-1.62h2.41v-1.27h-2.41v-1.48h2.87v-1.27h-4.58v6.91zm-6.21 0h1.72v-2.93h2.1v2.93h1.71v-6.91h-1.71v2.61h-2.1v-2.61h-1.73v6.91zm-6.17-3.5c0 2.52 1.21 3.62 3.08 3.62s2.86-1 2.75-2.43l-1.5-.16a1.08 1.08 0 0 1-1.16 1.34c-.74 0-1.4-.48-1.4-2.36s.61-2.34 1.35-2.34 1.21.44 1 1.54l1.6-.14c.22-1.5-.59-2.61-2.61-2.61s-3.15 1-3.15 3.54m-5.91 3.5h1.4v-3.32c0-.38-.05-.84-.08-1.23a12 12 0 0 0 .5 1.13l1.89 3.42h1.79v-6.91h-1.4v3.32c0 .4 0 .95.07 1.34-.17-.41-.37-.93-.52-1.23l-1.82-3.43h-1.83v6.91zm-4.14-2.58h1.49l-.47-1.45a6.5 6.5 0 0 1-.24-1.19 8.3 8.3 0 0 1-.26 1.18l-.48 1.46zm0-4.33h1.73l2.34 6.91h-1.73l-.43-1.31h-2.32l-.42 1.31h-1.49l2.32-6.91zm-5.71 1.24v1.7h.61c.49 0 1.07-.16 1.07-.89s-.39-.81-.86-.81zm-1.71-1.24h2.85c1.35 0 2.26.65 2.26 1.92a2 2 0 0 1-1.39 1.88 2.24 2.24 0 0 1 .48.65c.28.59.48 1.23 1.08 1.23a.8.8 0 0 0 .28-.05l-.13 1.22a3.45 3.45 0 0 1-.69.09c-.82 0-1.29-.32-1.77-1.41-.21-.49-.49-1.35-.87-1.35h-.39v2.73h-1.71v-6.91zM268.37 286l-.27-1.61c-.09-.52-.29-.94-.45-.94s-.29.43-.29 1v.42a1 1 0 0 1-1 1h-.51V287h1.68a.8.8 0 0 0 .8-.95m-3.77-1.4h-5.38v-.25c0-.52-.13-1-.29-1s-.36.42-.45.94l-.27 1.61a.8.8 0 0 0 .8.95h1.59a1.25 1.25 0 0 0 .45-.08.57.57 0 0 1-.57.48h-2.23a.58.58 0 0 1-.57-.68l.22-1.35a.58.58 0 0 0-.57-.68H246.2a.59.59 0 0 0-.53.34l-2.09 3.18a.15.15 0 0 0 0 .17l.41.48a.14.14 0 0 0 .2 0l1.42-1.12v6.8a.58.58 0 0 0 .58.58h3.15a.58.58 0 0 0 .58-.58v-2.37a.58.58 0 0 1 .59-.58h7.85a.58.58 0 0 1 .59.58v2.37a.58.58 0 0 0 .58.58h3.15a.58.58 0 0 0 .58-.58V292h-1.66a1 1 0 0 1-1-1v-1.64a1 1 0 0 1 .39-.76v1.95a1 1 0 0 0 1 1h2.58a1 1 0 0 0 .95-1v-5a1 1 0 0 0-.95-1m12.13 13.33s.07 0 .07-.06 0-.06-.07-.06h-.08v.12zm-.17-.2h.16c.08 0 .17 0 .17.14a.12.12 0 0 1-.11.12l.11.19h-.1l-.1-.18v.18h-.09v-.45zm.5.23a.33.33 0 0 0-.35-.37.37.37 0 0 0 0 .73.33.33 0 0 0 .35-.36zm-.82 0a.46.46 0 0 1 .47-.47.47.47 0 1 1-.47.47z"/><path class="cls-8" d="M141.75 187.33h-25.83a15 15 0 0 0-15 15v128.75a15 15 0 0 0 15 15h10.83a15 15 0 0 0 15-15zm92.91 32.87h14.59c9.44 0 14 6.05 14 17C263.28 284 225 302 204.69 362v-18.4z"/><path class="cls-13" transform="rotate(-89.78 204.563 396.39)" d="M204.08 394.89h1.01v3h-1.01z"/><path class="cls-13" transform="rotate(-89.78 204.575 392.433)" d="M204.09 390.94h1.01v3h-1.01z"/><path class="cls-13" transform="rotate(-89.78 204.598 388.485)" d="M204.11 386.99h1.01v3h-1.01z"/><path class="cls-13" transform="rotate(-89.78 204.61 384.538)" d="M204.13 383.04h1.01v3h-1.01z"/><path class="cls-13" transform="rotate(-89.78 204.623 380.58)" d="M204.14 379.09h1.01v3h-1.01z"/><path class="cls-13" transform="rotate(-89.78 204.64 376.627)" d="M204.16 375.13h1.01v3h-1.01z"/><path class="cls-13" transform="rotate(-89.78 204.658 372.675)" d="M204.17 371.18h1.01v3h-1.01z"/><path class="cls-13" transform="rotate(-89.78 204.675 368.722)" d="M204.19 367.23h1.01v3h-1.01z"/><path class="cls-13" transform="rotate(-89.78 204.693 364.77)" d="M204.2 363.28h1.01v3h-1.01z"/><path class="cls-13" transform="rotate(-89.78 204.705 360.812)" d="M204.22 359.32h1.01v3h-1.01z"/><path class="cls-13" transform="rotate(-89.78 204.718 356.864)" d="M204.23 355.37h1.01v3h-1.01z"/><path class="cls-13" transform="rotate(-89.78 204.735 352.912)" d="M204.25 351.42h1.01v3h-1.01z"/><path class="cls-13" transform="rotate(-89.78 204.753 348.959)" d="M204.26 347.46h1.01v3h-1.01z"/><path class="cls-13" transform="rotate(-76.37 205.154 344.676)" d="M204.65 343.18h1.01v3h-1.01z"/><path class="cls-13" transform="rotate(-76.33 206.129 339.44)" d="M205.6 337.93h1.01v3h-1.01z"/><path class="cls-13" transform="rotate(-76.33 207.082 335.517)" d="M206.56 334.01h1.01v3h-1.01z"/><path class="cls-13" transform="rotate(-76.37 208.02 331.588)" d="M207.51 330.08h1.01v3h-1.01z"/><path class="cls-13" transform="rotate(-76.33 208.988 327.67)" d="M208.46 326.16h1.01v3h-1.01z"/><path class="cls-13" transform="rotate(-76.33 209.941 323.747)" d="M209.41 322.24h1.01v3h-1.01z"/><path class="cls-13" transform="rotate(-76.37 210.88 319.813)" d="M210.37 318.31h1.01v3h-1.01z"/><path class="cls-13" transform="rotate(-76.37 211.828 315.887)" d="M211.32 314.39h1.01v3h-1.01z"/><path class="cls-13" transform="rotate(-76.33 212.8 311.977)" d="M212.27 310.47h1.01v3h-1.01z"/><path class="cls-13" transform="rotate(-76.33 213.754 308.054)" d="M213.23 306.54h1.01v3h-1.01z"/><path class="cls-13" transform="rotate(-76.37 214.69 304.123)" d="M214.18 302.62h1.01v3h-1.01z"/><path class="cls-14" transform="rotate(-89.78 203.53 398.361)" d="M203.05 396.87h1v3h-1z"/><path class="cls-14" transform="rotate(-89.7 203.58 394.419)" d="M203.07 392.92h1v3h-1z"/><path class="cls-14" transform="rotate(-89.78 203.565 390.456)" d="M203.09 388.96h1v3h-1z"/><path class="cls-14" transform="rotate(-89.78 203.582 386.513)" d="M203.1 385.01h1v3h-1z"/><path class="cls-14" transform="rotate(-89.7 203.628 382.567)" d="M203.12 381.06h1v3h-1z"/><path class="cls-14" transform="rotate(-89.78 203.617 378.608)" d="M203.14 377.11h1v3h-1z"/><path class="cls-14" transform="rotate(-89.7 203.663 374.662)" d="M203.15 373.16h1v3h-1z"/><path class="cls-14" transform="rotate(-89.7 203.678 370.706)" d="M203.17 369.2h1v3h-1z"/><path class="cls-14" transform="rotate(-89.78 203.665 366.745)" d="M203.19 365.25h1v3h-1z"/><path class="cls-14" transform="rotate(-89.7 203.712 362.8)" d="M203.21 361.3h1v3h-1z"/><path class="cls-14" transform="rotate(-89.7 203.727 358.845)" d="M203.22 357.34h1v3h-1z"/><path class="cls-14" transform="rotate(-89.78 203.717 354.887)" d="M203.24 353.39h1v3h-1z"/><path class="cls-14" transform="rotate(-89.7 203.766 350.944)" d="M203.26 349.44h1v3h-1z"/><path class="cls-14" transform="rotate(-89.7 203.78 346.989)" d="M203.28 345.49h1v3h-1z"/><path class="cls-14" transform="rotate(-13.08 203.19 342.103)" d="M201.62 341.55h3v1h-3z"/><path class="cls-14" transform="rotate(-13.08 202.268 338.197)" d="M200.72 337.66h3v1h-3z"/><path class="cls-14" transform="rotate(-13.07 201.335 334.285)" d="M199.82 333.78h3v1h-3z"/><path class="cls-14" transform="rotate(-13.07 200.412 330.376)" d="M198.92 329.89h3v1h-3z"/><path class="cls-14" transform="rotate(-13.03 199.476 326.469)" d="M198.02 326.01h3v1h-3z"/><path class="cls-14" transform="rotate(-13.02 198.535 322.534)" d="M197.12 322.12h3v1h-3z"/><path class="cls-14" transform="rotate(-13.02 197.645 318.66)" d="M196.21 318.24h3v1h-3z"/><path class="cls-14" transform="rotate(-13.08 196.851 314.908)" d="M195.31 314.35h3v1h-3z"/><path class="cls-14" transform="rotate(-13.08 195.968 311.051)" d="M194.41 310.47h3v1h-3z"/><path class="cls-14" transform="rotate(-13.07 195.033 307.075)" d="M193.51 306.58h3v1h-3z"/><path class="cls-14" transform="rotate(-13.07 194.105 303.21)" d="M192.61 302.7h3v1h-3z"/><rect class="cls-15" x="146.75" y="81.45" width="115" height="87" rx="16" ry="16"/><path class="cls-11" d="M312.45 115.25l-6.3-37.7c-2-12.1-6.8-22-10.6-22s-6.9 9.9-6.9 22.2v9.8c0 12.2-9.8 20.9-22 20.9h-9.8c-.7 0-1.2 1.4-3.2 1.4v27c2 0 2.5.6 3.2.6h37c12.3 0 20.6-10.1 18.6-22.2zm-216.9 0l6.2-37.7c2-12.1 7.1-22 10.8-22s7.2 10 7.2 22.2v9.8c0 12.2 9.3 20.9 21.5 20.9h9.8c.7 0 1.7 1.4 2.7 1.4v27c-1 0-2 .6-2.7.6h-37c-12.2 0-20.5-10.1-18.5-22.2z"/><rect class="cls-15" x="146.75" y="76.45" width="81" height="87" rx="16" ry="16"/><rect class="cls-15" x="219.7" y="76.45" width="41.95" height="87" rx="16" ry="16"/><path class="cls-16" d="M256.75 232.45a11 11 0 0 1-11 11h-83a11 11 0 0 1-11-11v-139a11 11 0 0 1 11-11h83a11 11 0 0 1 11 11z"/><path d="M221.56 206.89v-12.2c-11.29 8.15-27 6.6-35.18-4.68 5.25 12.42 13.62 23.57 35.18 16.88z" fill="#151210"/><path class="cls-18" d="M240.65 158.35a10.73 10.73 0 0 0-1.8-5.8 3 3 0 0 1-2.8 2.1 3 3 0 0 1-3-3 3 3 0 0 1 1.5-2.6 9.9 9.9 0 0 0-13.8 9.2m-34.4.1a10.73 10.73 0 0 0-1.8-5.8 3 3 0 0 1-2.8 2.1 3 3 0 0 1-3-3 3 3 0 0 1 1.5-2.6 9.9 9.9 0 0 0-13.8 9.2"/><path class="cls-15" d="M151.75 100.45v-7a11 11 0 0 1 11-11h83a11 11 0 0 1 11 11v7z"/><path class="cls-15" d="M231.87 99.79h-80.12v41.43c0-41.43 44.5 21.73 85.87-37.93 30.13 0 3 55.06 19.13 60.51v-64z"/><path class="cls-2" d="M218.19 202.89l3.37-8.2c-11.29 8.15-27 6.6-35.18-4.68 5.25 12.42 19.28 17.44 31.81 12.88z"/><path class="cls-19" d="M156.77 123.72c22.77-13.81 56.23-11.16 74.12-8.35 16.47 2.59 27.42 8.64 36.1 18v-24.62c0-29.57-6.38-53.55-60.79-53.55-53.54 0-60.79 24-60.79 53.55v24.75c2.6-3.86 7-7.16 11.36-9.78"/><path class="cls-19" d="M256.77 119.41h-2.07v.45c.7.32 1.39.64 2.07 1v-1.42m0-5.18h-2.07v3.11h2.07v-3.11m0-5.18h-2.07v3.11h2.07v-3.11m0-5.2h-2.08v3.11h2.08v-3.12m-.12-5.21l-2.07.07c0 1 .06 2.06.08 3.09h2.07c0-1 0-2.09-.08-3.13m-.26-5.22l-2.07.14q.1 1.55.18 3.09l2.07-.1c-.05-1-.11-2.09-.18-3.13m-.49-5.21l-2 .25c.12 1 .22 2 .31 3.06l2.06-.18c-.09-1-.19-2.09-.32-3.13M255.1 83l-2 .38c.19 1 .36 2 .5 3l2.05-.29c-.15-1-.32-2.09-.51-3.11m-1.19-5.14l-2 .56c.26 1 .51 1.94.74 3l2-.45c-.23-1-.49-2.09-.77-3.07m-1.73-5l-1.91.79c.37.9.73 1.85 1 2.84l2-.65c-.34-1-.71-2-1.11-3m-2.41-4.76L248 69.19a28.85 28.85 0 0 1 1.44 2.64l1.87-.91c-.48-1-1-1.93-1.54-2.81m-3.24-4.29L245 65.23a24.9 24.9 0 0 1 1.88 2.31l1.68-1.22a26.13 26.13 0 0 0-2-2.5m-4.06-3.53l-.05.06-1.17 1.65a19.81 19.81 0 0 1 2.32 1.85l1.4-1.55a24.65 24.65 0 0 0-2.18-1.76l-.35-.25m-4.77-2.47l-.24.57-.52 1.23a22.85 22.85 0 0 1 2.67 1.32l.83-1.45.2-.35c-.62-.36-1.26-.69-1.92-1l-1-.32m-5.11-1.46l-.11.52-.28 1.24a28.26 28.26 0 0 1 2.88.8l.39-1.17.19-.55c-1-.28-2-.56-3.07-.84"/><path class="cls-18" d="M208.28 49.57a7.92 7.92 0 0 0-3.93 0c-39.3 11.25-52 5.15-52 59.18v17.8c0-.48 1.34-.92 2-1.36l-.92 1.36c14.41-10.58 35.64-12.93 52.76-13.36 17.11.43 38.34 2.78 52.75 13.36l-1.35-1.36c.67.44 1.57.88 1.57 1.36v-17.8c0-54-11.64-47.93-50.9-59.18"/><path d="M249.04 63.53a22.06 22.06 0 0 1 5 6.72 22.54 22.54 0 0 0-3.42-5.09 20.89 20.89 0 0 0-1.63-1.63m-40.71-13.96h.06-.06" fill="#959595"/><path class="cls-21" d="M254.7 116.34v-3.11h2.07v3.11h-2.07m0-5.18v-3.11h2.07v3.11h-2.07m0-5.18v-3.11h2.08v3.12h-2.08m-.05-5.18c0-1 0-2.06-.08-3.09l2.07-.07c0 1 .06 2.09.08 3.13h-2.07m-.16-5.15q-.07-1.55-.18-3.09l2.07-.14c.07 1 .13 2.09.18 3.13l-2.07.1m-.34-5.13c-.09-1-.19-2-.31-3.06l2-.25c.13 1 .23 2.08.32 3.13l-2.06.18m-.58-5.1c-.15-1-.31-2-.5-3l2-.38c.19 1 .36 2.06.51 3.11l-2.05.29m-.9-5c-.23-1-.48-2-.75-3l2-.56c.28 1 .54 2 .77 3.07l-2 .45m-1.34-4.9c-.32-1-.68-1.94-1-2.84l1.91-.79c.4.94.77 1.94 1.11 3l-2 .65m-1.88-4.67a28.85 28.85 0 0 0-1.4-2.64l1.77-1.08c.54.88 1.06 1.83 1.54 2.81l-1.87.91m-2.55-4.29a24.9 24.9 0 0 0-1.89-2.31l1.52-1.41a26.13 26.13 0 0 1 2 2.5l-1.68 1.22m-39.1-17.09c.21 13.55.33 39.2.3 61a200.7 200.7 0 0 1 25.32 2.38 85.39 85.39 0 0 1 21.29 6v-.45h2.07v1.42c.82.4 1.62.81 2.41 1.23v-15.61c-.17-17.15-1.66-27.82-5.08-34.86v-.05a22.06 22.06 0 0 0-5-6.72 25.94 25.94 0 0 0-5.8-3.72A24.65 24.65 0 0 1 245 61.3l-1.4 1.54a19.81 19.81 0 0 0-2.32-1.84l1.14-1.64c-.64-.3-1.3-.59-2-.86l-.83 1.44a24.5 24.5 0 0 0-2.67-1.31l.52-1.23c-.64-.22-1.31-.43-2-.64l-.39 1.17a28.26 28.26 0 0 0-2.88-.8l.28-1.24c-6.54-1.82-14.51-3.54-24.14-6.29h-.06a3.89 3.89 0 0 0-.49-.12"/><path d="M202.29 85.74v-4.82c0-.31-.1-.38-.39-.39h-3.13a.41.41 0 0 1-.42-.22 9.33 9.33 0 0 0-3.15-3 .41.41 0 0 1-.24-.51 35.3 35.3 0 0 0 .04-9c-.07-.57 0-.84.52-1.13a8.45 8.45 0 0 0 2.83-2.62.25.25 0 0 1 .29-.13 27.9 27.9 0 0 0 5.24.39c2.74.06 5.47 0 8.2-.14a16.14 16.14 0 0 0 2.19-.25.28.28 0 0 1 .34.14 5.94 5.94 0 0 0 2.92 2.26.25.25 0 0 1 .19.31 4.31 4.31 0 0 0 .27 2.3c.08.18 0 .24-.18.24h-3.17a.44.44 0 0 1-.34-.19c-.39-.44-.79-.87-1.17-1.31a.56.56 0 0 0-.45-.2h-12.24a.64.64 0 0 0-.44.15q-.63.59-1.29 1.14a.58.58 0 0 0-.21.48v6.17a.61.61 0 0 0 .21.51L200 77.2a.45.45 0 0 0 .33.15l1.68.07c.14 0 .26 0 .26-.18a12.36 12.36 0 0 0-.1-1.92 1.6 1.6 0 0 0-1.29-1.24c-.45-.14-.46-.16-.23-.58a5.15 5.15 0 0 0 .65-2.19c0-.16 0-.29.25-.25a32.37 32.37 0 0 0 4.51.22c3.68 0 7.37 0 11-.16a23 23 0 0 0 2.75-.22c.19 0 .2 0 .21.19a14.27 14.27 0 0 0 1.28 5.29c.07.18.08.27-.15.27h-3.11c-.22 0-.24-.14-.29-.3a2.72 2.72 0 0 0-1.75-2.07 2 2 0 0 0-.54-.07h-9.2c-.23 0-.33 0-.32.3v2.65c0 .23.07.3.29.3a77.37 77.37 0 0 0 8.06-.11.32.32 0 0 1 .37.21 8.28 8.28 0 0 0 3.28 3.38c.15.08.2.15.17.32a38.72 38.72 0 0 0-.19 7.22 19.49 19.49 0 0 0 .21 2.29.26.26 0 0 1-.17.3 8.65 8.65 0 0 0-3.31 3.32c-.06.11-.12.18-.27.15a22.07 22.07 0 0 0-4-.26h-4.06c-.32 0-.43.1-.4.42s0 .76 0 1.13a2.09 2.09 0 0 0 2 2.3c.39 0 .39 0 .22.42a8.56 8.56 0 0 0-.89 2.56c0 .17-.11.19-.25.19h-5.72c-.13 0-.21 0-.23-.18a8.63 8.63 0 0 0-.93-2.65c-.13-.26-.07-.31.2-.34a2.17 2.17 0 0 0 2-2.27v-1.27c0-.21-.06-.29-.27-.29a18.61 18.61 0 0 0-3.26.21.3.3 0 0 1-.38-.18 8.77 8.77 0 0 0-3.27-3.27.27.27 0 0 1-.15-.33 22.85 22.85 0 0 0-.27-6.34c0-.21 0-.25.22-.25h3.27c.28 0 .35.09.34.35v4.2a1.08 1.08 0 0 0 .29.84c.37.41.73.82 1.08 1.25a.46.46 0 0 0 .42.18h1.69c.27 0 .32-.1.31-.35-.06-1.61-.05-3.24-.05-4.87zm9.82 1.94c-.35-.1-.67-.21-1-.29a19.4 19.4 0 0 0-4.93-.25c-.25 0-.27.13-.27.33v3.2c0 .22 0 .31.28.31h6.58a.38.38 0 0 0 .33-.13c.42-.5.85-1 1.28-1.49a.6.6 0 0 0 .14-.41V83a.67.67 0 0 0-.18-.46c-.48-.55-1-1.11-1.43-1.67a.54.54 0 0 0-.41-.21c-2.09-.11-4.18 0-6.27-.11-.25 0-.33.09-.32.34v3.06c0 .3.08.4.38.41a16.73 16.73 0 0 0 5.84-.54 14.4 14.4 0 0 0-.02 3.86z" fill="#fc5a04" id="ZSl4fg.tif"/><path class="cls-13" d="M203 349h3v3h-3zm4 11h-5l1-8h3l1 8z"/><path class="cls-19" d="M158.26 120.85h-2.07v-1.44h2.07zm0-3.51h-2.07v-3.11h2.07zm0-5.18h-2.07V109h2.07zm0-5.18h-2.08v-3.12h2.07c.03 1.05.02 2.14.02 3.14zm0-5.17h-2.07c0-1 .05-2.09.08-3.13l2.07.07c.03.99 0 2.03-.02 3.06zm.17-5.16l-2.08-.1c.05-1 .11-2.09.18-3.13l2.07.14c-.01 1.03-.07 2.06-.11 3.09zm.33-5.13l-2.06-.18c.09-1 .19-2.09.32-3.13l2 .25c-.02 1.01-.11 2.03-.2 3.06zm.58-5.1l-2.05-.29c.15-1 .32-2.09.51-3.11l2 .38c-.09.99-.25 2-.4 3.02zm.91-5l-2-.45c.23-1 .49-2.08.77-3.07l2 .56c-.24.93-.49 1.93-.71 2.94zm1.33-4.9l-2-.65c.34-1 .71-2 1.11-3l1.91.8c-.28.9-.6 1.85-.96 2.83zm1.88-4.67l-1.87-.91a31.34 31.34 0 0 1 1.55-2.81l1.86 1.06a28.85 28.85 0 0 0-1.48 2.64zm2.55-4.29l-1.68-1.22a27.74 27.74 0 0 1 2-2.5l1.67 1.39a25.2 25.2 0 0 0-1.93 2.31zm3.29-3.7L168 62.3a24.64 24.64 0 0 1 2.54-2l1.18 1.7a21.62 21.62 0 0 0-2.36 1.84zm4-2.91l-1-1.79a25.87 25.87 0 0 1 2.89-1.43l.81 1.91a25.43 25.43 0 0 0-2.65 1.29zm4.53-2l-.66-2c1-.33 2-.62 3.09-.86l.45 2a28.26 28.26 0 0 0-2.83.83z"/><path d="M273.81 136.47a2.56 2.56 0 0 1-.81.66 2.56 2.56 0 0 0 .81-.66m-10.56-12.89a48.46 48.46 0 0 1 5.95 4.64c-.73-.67-1.48-1.32-2.27-2a48.3 48.3 0 0 0-3.68-2.69m-.06 0h.05-.05m-.07 0h.05-.05m-2.56-1.59h.07-.07m-2-1.13c.69.37 1.36.74 2 1.12l-1.38-.78-.64-.34m-13.38-5.14h.05-.05m-.18 0h.05-.05m-.09 0h.05-.05m-.1 0h.06-.06m-.1 0h.07-.07m-.3-.08l.29.07-.29-.07m-.09 0h.09-.09m-.1 0h.09-.09M234 113a98.78 98.78 0 0 1 10.25 2.2A98.78 98.78 0 0 0 234 113m-.1 0h.09-.09m-.1 0h.08-.08m-.34 0h.1-.1" fill="#bfbfbf"/><path d="M273.85 133.07c-8.47-10.52-22.08-17.32-40.44-20.2-19.54-3.07-56.08-6-81.19 9.27a50.52 50.52 0 0 0-12.53 11 2.69 2.69 0 0 0 2.06 4.42 2.63 2.63 0 0 0 1.35-.36c.15-.08 14.66-8.4 37.56-12.52 21.06-3.79 53.76-4.7 89.93 12.49a2.7 2.7 0 0 0 3.26-4.12" fill="#ff5900"/><path d="M208.09 110.49v11.87a149 149 0 0 1 63.81 14.76 2.74 2.74 0 0 0 .67.21 2.11 2.11 0 0 0 .47-.19 2.56 2.56 0 0 0 .81-.66 2.72 2.72 0 0 0 .58-1.68 2.69 2.69 0 0 0-.59-1.68 43.69 43.69 0 0 0-4.47-4.77 48.46 48.46 0 0 0-5.95-4.64h-.1c-.75-.49-1.52-1-2.31-1.43h-.12c-.66-.38-1.33-.75-2-1.12s-1.17-.6-1.77-.89-1.37-.65-2.07-1a74.78 74.78 0 0 0-9-3.28h-1.28l-.29-.07h-.18A98.78 98.78 0 0 0 234 113h-.51a200.7 200.7 0 0 0-25.32-2.38" fill="#bf4300"/><path class="cls-16" d="M141.75 187.74v-28.58h-19a11.06 11.06 0 0 0-11 11v17.55"/><path class="cls-21" d="M147.75 218.78h-3a3 3 0 0 1-3-3v-56.91a3 3 0 0 1 3-3h3z"/></g><g id="Layer_3" data-name="Layer 3"><path fill="#f5d9a1" d="M.97 358.99h398.44V400H.97z"/><path class="cls-2" d="M371 378.74h-33.63l-3-56.61H374l-3 56.61z"/><path fill="#313131" d="M337.37 311.63H371l3 9.81h-39.63l3-9.81z"/><path d="M332 323.45v-4.72a2 2 0 0 1 2-2h40.33a2 2 0 0 1 2 2v4.72z" fill="#3d3d3d"/><path d="M373.94 361.11l1.31-24.86h-42.13l1.32 24.84c12.87-.09 26.71-.03 39.5.02z" fill="#9e9b86"/></g></svg>