<svg xmlns="http://www.w3.org/2000/svg" viewBox="0 0 400 400"><defs><style>.cls-1{isolation:isolate;}.cls-2{fill:#ecf0f1;}.cls-3{fill:#4d4d4d;}.cls-4{fill:#c7deed;}.cls-5{fill:#fff;}.cls-6{fill:none;stroke:#fff;stroke-miterlimit:10;stroke-width:1.98px;}.cls-7{fill:#666;}.cls-8{fill:#005b86;}.cls-9{fill:#0071bc;}.cls-10{fill:#151210;}.cls-11{fill:#0768a4;}.cls-12,.cls-16{fill:#29373c;}.cls-13{fill:#34495e;}.cls-14{fill:#262626;}.cls-15,.cls-17{fill:#2b2b2b;}.cls-15{opacity:0.3;mix-blend-mode:multiply;}.cls-16{opacity:0.75;}.cls-18{fill:#f5d9a1;}.cls-19{fill:#313131;}.cls-20{fill:#090909;}.cls-21{fill:#3d3d3d;}.cls-22{fill:#7d9617;}.cls-23{fill:#8eb021;}.cls-24{fill:#a5c63b;}.cls-25{fill:#e49701;}</style></defs><title>team</title><g class="cls-1"><g id="Layer_1" data-name="Layer 1"><rect class="cls-2" width="400" height="400"/><rect class="cls-3" x="165.43" y="10.53" width="204" height="225" transform="translate(390.47 -144.4) rotate(90)"/><rect class="cls-4" x="164.93" y="31.03" width="205" height="184"/><polygon class="cls-5" points="374.37 37.8 161.37 37.8 164.49 31.03 371.26 31.03 374.37 37.8"/><polygon class="cls-5" points="374.37 49.29 161.37 49.29 164.49 42.53 371.26 42.53 374.37 49.29"/><polygon class="cls-5" points="374.37 60.79 161.37 60.79 164.49 54.02 371.26 54.02 374.37 60.79"/><polygon class="cls-5" points="374.37 72.28 161.37 72.28 164.49 65.52 371.26 65.52 374.37 72.28"/><polygon class="cls-5" points="374.37 83.78 161.37 83.78 164.49 77.01 371.26 77.01 374.37 83.78"/><polygon class="cls-5" points="374.37 95.27 161.37 95.27 164.49 88.5 371.26 88.5 374.37 95.27"/><polygon class="cls-5" points="374.37 106.76 161.37 106.76 164.49 100 371.26 100 374.37 106.76"/><polygon class="cls-5" points="374.37 118.26 161.37 118.26 164.49 111.49 371.26 111.49 374.37 118.26"/><polygon class="cls-5" points="374.37 129.75 161.37 129.75 164.49 122.98 371.26 122.98 374.37 129.75"/><polygon class="cls-5" points="374.37 141.24 161.37 141.24 164.49 134.48 371.26 134.48 374.37 141.24"/><polygon class="cls-5" points="374.37 152.74 161.37 152.74 164.49 145.97 371.26 145.97 374.37 152.74"/><polygon class="cls-5" points="374.37 164.23 161.37 164.23 164.49 157.47 371.26 157.47 374.37 164.23"/><polygon class="cls-5" points="374.37 175.73 161.37 175.73 164.49 168.96 371.26 168.96 374.37 175.73"/><polygon class="cls-5" points="374.37 187.22 161.37 187.22 164.49 180.45 371.26 180.45 374.37 187.22"/><polygon class="cls-5" points="374.37 198.71 161.37 198.71 164.49 191.95 371.26 191.95 374.37 198.71"/><polygon class="cls-5" points="374.37 210.21 161.37 210.21 164.49 203.44 371.26 203.44 374.37 210.21"/><polygon class="cls-5" points="374.37 221.7 161.37 221.7 164.49 214.93 371.26 214.93 374.37 221.7"/><line class="cls-6" x1="204.49" y1="31.03" x2="204.49" y2="221.7"/><line class="cls-6" x1="329.93" y1="31.03" x2="329.93" y2="221.7"/></g><g id="Layer_2" data-name="Layer 2"><path class="cls-3" d="M78.08,400V262.42a17,17,0,0,1,17-17H304.89a17,17,0,0,1,17,17V400Z"/><path class="cls-7" d="M117.52,400V255.28a17,17,0,0,1,17-17H263a17,17,0,0,1,17,17V400"/><path class="cls-3" d="M198.78,287.9a49.7,49.7,0,0,1-49.65-49.65h20a29.65,29.65,0,0,0,59.3,0h20A49.7,49.7,0,0,1,198.78,287.9Z"/><path class="cls-8" d="M238.43,238.25a39.65,39.65,0,0,1-79.3,0"/><path class="cls-8" d="M309,124.05l-6.3-37.7c-2-12.1-6.8-22-10.6-22s-6.9,9.9-6.9,22.2v9.8c0,12.2-9.8,20.9-22,20.9h-9.8c-.7,0-1.2,1.4-3.2,1.4v27c2,0,2.5.6,3.2.6h37C302.65,146.25,311,136.15,309,124.05Z"/><path class="cls-8" d="M91.05,124.05l6.2-37.7c2-12.1,7.1-22,10.8-22s7.2,10,7.2,22.2v9.8c0,12.2,9.3,20.9,21.5,20.9h9.8c.7,0,1.7,1.4,2.7,1.4v27c-1,0-2,.6-2.7.6h-37C97.35,146.25,89.05,136.15,91.05,124.05Z"/><path class="cls-9" d="M253.25,241.25a11,11,0,0,1-11,11h-83a11,11,0,0,1-11-11v-139a11,11,0,0,1,11-11h83a11,11,0,0,1,11,11Z"/><path class="cls-10" d="M177.35,200.75c.7,13.2,8.3,18.8,21.2,18.8s22.2-5.6,22.9-18.8"/><path class="cls-5" d="M177.35,200.75c1.7,8.2,3.4,7.3,22.1,7.3,19,0,20.4,1,22-7.3"/><path class="cls-11" d="M253.25,147.17h-7.08a8.73,8.73,0,0,1-8.71-8.7v-24.3a8.73,8.73,0,0,1,8.71-8.7h7.08"/><path class="cls-11" d="M148.25,105.47h7.08a8.73,8.73,0,0,1,8.71,8.7v24.3a8.73,8.73,0,0,1-8.71,8.7h-7.08"/><path class="cls-12" d="M152.77,132.72c22.77-13.81,56.23-11.16,74.12-8.35,16.47,2.59,27.42,8.64,36.1,18V117.75c0-29.57-6.38-53.55-60.79-53.55-53.54,0-60.79,24-60.79,53.55V142.5c2.6-3.86,7-7.16,11.36-9.78"/><path class="cls-13" d="M204.28,58.57a7.92,7.92,0,0,0-3.93,0c-39.3,11.25-52,5.15-52,59.18v17.8c0-.48,1.34-.92,2-1.36l-.92,1.36c14.41-10.58,35.64-12.93,52.76-13.36,17.11.43,38.34,2.78,52.75,13.36l-1.35-1.36c.67.44,1.57.88,1.57,1.36v-17.8c0-54-11.64-47.93-50.9-59.18"/><path class="cls-12" d="M154.26,129.85h-2.07v-1.44h2.07Zm0-3.51h-2.07v-3.11h2.07Zm0-5.18h-2.07V118h2.07Zm0-5.18h-2.08c0-1,0-2.08,0-3.12l2.07,0C154.28,113.91,154.27,115,154.27,116Zm0-5.17-2.07,0c0-1,.05-2.09.08-3.13l2.07.07C154.37,108.74,154.34,109.78,154.32,110.81Zm.17-5.16-2.08-.1c.05-1,.11-2.09.18-3.13l2.07.14C154.59,103.59,154.53,104.62,154.49,105.65Zm.33-5.13-2.06-.18c.09-1,.19-2.09.32-3.13l2,.25C155,98.47,154.91,99.49,154.82,100.52Zm.58-5.1-2.05-.29c.15-1,.32-2.09.51-3.11l2,.38C155.71,93.39,155.55,94.4,155.4,95.42Zm.91-5-2-.45c.23-1,.49-2.08.77-3.07l2,.56C156.78,88.39,156.53,89.39,156.31,90.4Zm1.33-4.9-2-.65c.34-1,.71-2,1.11-3l1.91.8C158.32,83.57,158,84.52,157.64,85.5Zm1.88-4.67-1.87-.91a31.34,31.34,0,0,1,1.55-2.81L161,78.19A28.85,28.85,0,0,0,159.52,80.83Zm2.55-4.29-1.68-1.22a27.74,27.74,0,0,1,2-2.5L164,74.23A25.2,25.2,0,0,0,162.07,76.54Zm3.29-3.7L164,71.3a24.64,24.64,0,0,1,2.54-2l1.18,1.7A21.62,21.62,0,0,0,165.36,72.84Zm4-2.91-1-1.79a25.87,25.87,0,0,1,2.89-1.43l.81,1.91A25.43,25.43,0,0,0,169.35,69.93Zm4.53-2-.66-2c1-.33,2-.62,3.09-.86l.45,2A28.26,28.26,0,0,0,173.88,67.92Z"/><path class="cls-12" d="M269.85,142.07c-8.47-10.52-22.08-17.32-40.44-20.2-19.54-3.07-56.08-6-81.19,9.27a50.52,50.52,0,0,0-12.53,11,2.69,2.69,0,0,0,2.06,4.42,2.63,2.63,0,0,0,1.35-.36c.15-.08,14.66-8.4,37.56-12.52,21.06-3.79,53.76-4.7,89.94,12.49a2.69,2.69,0,0,0,3.25-4.12"/><path class="cls-14" d="M252.77,128.41H250.7v.45c.7.32,1.39.64,2.07,1v-1.42m0-5.18H250.7v3.11h2.07v-3.11m0-5.18H250.7v3.11h2.07v-3.11m0-5.2-2.08,0c0,1,0,2.08,0,3.11h2.08c0-1,0-2.07,0-3.12m-.12-5.21-2.07.07c0,1,.06,2.06.08,3.09l2.07,0c0-1,0-2.09-.08-3.13m-.26-5.22-2.07.14q.1,1.55.18,3.09l2.07-.1c-.05-1-.11-2.09-.18-3.13m-.49-5.21-2,.25c.12,1,.22,2,.31,3.06l2.06-.18c-.09-1-.19-2.09-.32-3.13M251.1,92l-2,.38c.19,1,.36,2,.5,3l2.05-.29c-.15-1-.32-2.09-.51-3.11m-1.19-5.14-2,.56c.26,1,.51,1.94.74,3l2-.45c-.23-1-.49-2.09-.77-3.07m-1.73-5-1.91.79c.37.9.73,1.85,1,2.84l2-.65c-.34-1-.71-2-1.11-3m-2.41-4.76L244,78.19a28.85,28.85,0,0,1,1.44,2.64l1.87-.91c-.48-1-1-1.93-1.54-2.81m-3.24-4.29L241,74.23a24.9,24.9,0,0,1,1.88,2.31l1.68-1.22a26.13,26.13,0,0,0-2-2.5m-4.06-3.53-.05.06L237.28,71a19.81,19.81,0,0,1,2.32,1.85L241,71.3a24.65,24.65,0,0,0-2.18-1.76l-.35-.25m-4.77-2.47-.24.57-.52,1.23a22.85,22.85,0,0,1,2.67,1.32l.83-1.45.2-.35c-.62-.36-1.26-.69-1.92-1l-1-.32m-5.11-1.46-.11.52-.28,1.24a28.26,28.26,0,0,1,2.88.8l.39-1.17.19-.55c-1-.28-2-.56-3.07-.84"/><path class="cls-15" d="M204.09,119.49c0,4.13,0,8.12,0,11.87a149,149,0,0,1,63.81,14.76,2.74,2.74,0,0,0,.67.21,2.63,2.63,0,0,0,1.33-.9,2.7,2.7,0,0,0,0-3.36,45.22,45.22,0,0,0-6.86-6.83,51.83,51.83,0,0,0-7.81-5.17c-.79-.43-1.59-.84-2.41-1.24s-1.37-.65-2.07-1a85.39,85.39,0,0,0-21.29-6,200.7,200.7,0,0,0-25.32-2.38"/><path class="cls-16" d="M250.7,125.34v-3.11h2.07v3.11H250.7m0-5.18v-3.11h2.07v3.11H250.7m0-5.18c0-1,0-2.07,0-3.11l2.08,0c0,1.05,0,2.09,0,3.12h-2.08m-.05-5.18c0-1,0-2.06-.08-3.09l2.07-.07c0,1,.06,2.09.08,3.13l-2.07,0m-.16-5.15q-.07-1.55-.18-3.09l2.07-.14c.07,1,.13,2.09.18,3.13l-2.07.1m-.34-5.13c-.09-1-.19-2-.31-3.06l2-.25c.13,1,.23,2.08.32,3.13l-2.06.18m-.58-5.1c-.14-1-.31-2-.5-3l2-.38c.19,1,.36,2.06.51,3.11l-2.05.29m-.9-5c-.23-1-.48-2-.74-3l2-.56c.28,1,.54,2,.77,3.07l-2,.45m-1.34-4.9c-.32-1-.68-1.94-1-2.84l1.91-.79c.4.94.77,1.95,1.11,3l-2,.65m-1.88-4.67A28.85,28.85,0,0,0,244,77.19l1.77-1.08c.54.88,1.06,1.83,1.54,2.81l-1.87.91m-2.55-4.29A24.9,24.9,0,0,0,241,73.23l1.52-1.41a26.13,26.13,0,0,1,2,2.5l-1.68,1.22m-39.1-17.09c.21,13.55.33,39.2.3,61a200.7,200.7,0,0,1,25.32,2.38,85.39,85.39,0,0,1,21.29,6v-.45h2.07v1.42c.82.4,1.62.81,2.41,1.24V117.75c0-24.51-2.4-36.64-8.68-43.64a24.07,24.07,0,0,0-7.68-5.57A24.65,24.65,0,0,1,241,70.3l-1.4,1.54A19.81,19.81,0,0,0,237.28,70l1.14-1.64c-.64-.3-1.3-.59-2-.86l-.83,1.45a22.85,22.85,0,0,0-2.67-1.32l.52-1.23c-.64-.22-1.31-.43-2-.64l-.39,1.17a28.26,28.26,0,0,0-2.88-.8l.28-1.24c-6.56-1.83-14.54-3.54-24.2-6.31a3.89,3.89,0,0,0-.49-.12"/><path class="cls-17" d="M236.25,163.4a2.06,2.06,0,1,1-3-2.4,6.73,6.73,0,0,0-2.62-.52,6.89,6.89,0,1,0,5.62,2.92Z"/><path class="cls-17" d="M173.9,163.4a2.06,2.06,0,1,1-3-2.4,6.73,6.73,0,0,0-2.62-.52,6.89,6.89,0,1,0,5.62,2.92Z"/><path class="cls-5" d="M218.63,101.71v1.7h.61c.49,0,1.07-.15,1.07-.89a.75.75,0,0,0-.86-.81Zm-1.71-1.24h2.85c1.35,0,2.26.66,2.26,1.93a1.93,1.93,0,0,1-1.39,1.87,2.29,2.29,0,0,1,.48.66c.28.58.48,1.23,1.08,1.23a.8.8,0,0,0,.28,0l-.13,1.22a3.45,3.45,0,0,1-.69.09c-.82,0-1.29-.32-1.77-1.42-.21-.49-.49-1.35-.87-1.35h-.39v2.74h-1.71v-6.92Zm-5,6.92h4.68v-1.27h-3V104.5H216v-1.27h-2.41v-1.49h2.87v-1.27h-4.58v6.92Zm-6.21,0h1.71v-2.93h2.1v2.93h1.71v-6.92h-1.71v2.61h-2.1v-2.61H205.7v6.92Zm-6.17-3.51c0,2.52,1.21,3.63,3.08,3.63s2.86-1,2.75-2.44l-1.5-.15a1.09,1.09,0,0,1-1.16,1.34c-.74,0-1.4-.48-1.4-2.37s.6-2.33,1.35-2.33,1.21.44,1,1.53l1.59-.14c.23-1.49-.58-2.6-2.6-2.6s-3.15,1-3.15,3.53m-5.91,3.51H195v-3.32c0-.38-.05-.84-.08-1.23h0a9.85,9.85,0,0,0,.5,1.13l1.89,3.42h1.79v-6.92h-1.4v3.32c0,.4.05.95.07,1.34h0c-.17-.41-.37-.93-.52-1.23l-1.82-3.43h-1.83v6.92Zm-4.14-2.58H191l-.47-1.46a6.35,6.35,0,0,1-.24-1.19h0a8,8,0,0,1-.26,1.18l-.48,1.47Zm0-4.34h1.73l2.34,6.92h-1.73l-.43-1.31h-2.32l-.42,1.31h-1.49l2.32-6.92Zm-5.71,1.24v1.7h.61c.49,0,1.07-.15,1.07-.89a.75.75,0,0,0-.86-.81Zm-1.71-1.24h2.84c1.36,0,2.27.66,2.27,1.93a1.93,1.93,0,0,1-1.4,1.87,2.15,2.15,0,0,1,.49.66c.28.58.48,1.23,1.08,1.23a.8.8,0,0,0,.28,0l-.13,1.22a3.45,3.45,0,0,1-.69.09c-.82,0-1.29-.32-1.77-1.42-.21-.49-.49-1.35-.87-1.35h-.39v2.74h-1.71v-6.92Z"/><path class="cls-5" d="M214.67,88.92l-.27-1.62c-.09-.51-.29-.94-.45-.94s-.29.43-.29,1v.42a1,1,0,0,1-1,1h-.51v1.16h1.68a.79.79,0,0,0,.8-.94"/><path class="cls-5" d="M210.86,87.55h-5.38v-.24c0-.53-.13-1-.29-1s-.36.43-.45.94l-.27,1.62a.79.79,0,0,0,.8.94h1.59a1.29,1.29,0,0,0,.45-.07.58.58,0,0,1-.57.48h-2.23a.58.58,0,0,1-.57-.68l.22-1.36a.58.58,0,0,0-.57-.68H192.5a.59.59,0,0,0-.53.35l-2.09,3.17a.17.17,0,0,0,0,.18l.41.48a.15.15,0,0,0,.2,0l1.42-1.12v6.79a.58.58,0,0,0,.58.58h3.15a.58.58,0,0,0,.58-.58V95.06a.59.59,0,0,1,.58-.59h7.86a.6.6,0,0,1,.59.59v2.36a.58.58,0,0,0,.58.58H209a.58.58,0,0,0,.58-.58V94.88H207.9a1,1,0,0,1-1-1V92.29a1,1,0,0,1,.39-.77v2a1,1,0,0,0,.95,1h2.58a1,1,0,0,0,.95-1v-5a1,1,0,0,0-.95-1"/><path class="cls-5" d="M223,100.79a.07.07,0,0,0,.07-.07.07.07,0,0,0-.07-.06h-.09v.13Zm-.18-.21H223c.08,0,.17,0,.17.15a.12.12,0,0,1-.11.12l.11.19h-.1l-.11-.19h0V101h-.09v-.46Zm.51.24a.33.33,0,0,0-.35-.37.37.37,0,0,0,0,.73.33.33,0,0,0,.35-.36Zm-.82,0a.47.47,0,1,1,.93,0,.47.47,0,0,1-.93,0Z"/></g><g id="Layer_3" data-name="Layer 3"><rect class="cls-18" x="-0.37" y="358.99" width="400" height="41.01"/><rect class="cls-19" x="124.95" y="366.2" width="147.67" height="106.13"/><rect class="cls-20" x="195.83" y="366.2" width="5.83" height="106.13"/><rect class="cls-21" x="42.67" y="380.52" width="70.83" height="42.19" rx="3.65" ry="3.65" transform="translate(479.69 323.53) rotate(90)"/><rect class="cls-19" x="50.36" y="388.21" width="55.45" height="32.19" transform="translate(482.39 326.23) rotate(90)"/><path class="cls-22" d="M356.09,342.05c0,4.65-1.54,7-3.45,7s-3.44-2.36-3.44-7c0-4,1.94-33.2,3.44-33.2S356.09,338,356.09,342.05Z"/><path class="cls-23" d="M351.89,345l-8.65-28.2s-2.78,12.78,2.77,25l2.28,6.55Z"/><path class="cls-22" d="M354.9,345.83,365.33,323s.92,11.09-5.11,20.78l-2.65,5.27Z"/><path class="cls-22" d="M351.42,341.92,344,313.36s9.07,9.43,10.75,22.75l1.5,6.77Z"/><path class="cls-23" d="M354.36,340c0,5.08,1.69,7.66,3.77,7.66s3.76-2.58,3.76-7.66c0-4.39-2.13-36.26-3.76-36.26S354.36,335.57,354.36,340Z"/><path class="cls-24" d="M364.25,349.58l10.25-27.66s-11.05,8.56-14.07,21.64l-2.16,6.59Z"/><path class="cls-24" d="M346,349l-10.26-27.67s10,8.47,13,21.55l2.16,6.59Z"/><path class="cls-22" d="M358.13,347.62c2.08,0,3.76-2.58,3.76-7.66,0-4.39-2.13-36.26-3.76-36.26"/><path class="cls-23" d="M352.64,349.06c-1.9,0-3.44-2.36-3.44-7,0-4,1.94-33.2,3.44-33.2"/><path class="cls-24" d="M355.17,345.17l10.26-27.67s-11.06,8.57-14.07,21.65l-2.16,6.58Z"/><path class="cls-25" d="M339.66,341.42V370a2.56,2.56,0,0,0,2.56,2.56H368a2.56,2.56,0,0,0,2.56-2.56V341.42Z"/><circle class="cls-19" cx="78.08" cy="372.01" r="2.81"/><rect class="cls-5" x="150.71" y="350.43" width="96.14" height="137.67" transform="translate(618.04 220.49) rotate(90)"/><rect class="cls-2" x="129.94" y="371.2" width="68.84" height="96.14"/></g></g></svg>