<svg xmlns="http://www.w3.org/2000/svg" xmlns:xlink="http://www.w3.org/1999/xlink" viewBox="0 0 400 400"><defs><style>.cls-1,.cls-15{fill:none;}.cls-2{fill:#313131;}.cls-3{fill:#34495e;}.cls-4{fill:#2c3e50;}.cls-5{fill:#192e3d;}.cls-6{fill:url(#New_Pattern_Swatch_1);}.cls-7{fill:#0071bc;}.cls-8{fill:#0a2440;}.cls-9{fill:#0d3055;}.cls-10{fill:#005b86;}.cls-11{fill:#726658;}.cls-12{fill:#2b2b2b;}.cls-13{fill:#fff1bc;}.cls-14{fill:#8c6239;}.cls-15{stroke:#00395e;stroke-miterlimit:10;}.cls-16{fill:#5d6d7e;}.cls-17{fill:#3d3d3d;}</style><pattern id="New_Pattern_Swatch_1" data-name="New Pattern Swatch 1" width="72" height="72" patternTransform="translate(-7.27 66.02)" patternUnits="userSpaceOnUse" viewBox="0 0 72 72"><rect class="cls-1" width="72" height="72"/><path class="cls-2" d="M34.84,72a1.06,1.06,0,0,0-.31-.76l-.77-.77a1.07,1.07,0,0,0-1.52,0l-.77.77a1.06,1.06,0,0,0-.31.76H28.84a1.06,1.06,0,0,0-.31-.76l-.77-.77a1.07,1.07,0,0,0-1.52,0l-.77.77a1.06,1.06,0,0,0-.31.76H22.84a1.06,1.06,0,0,0-.31-.76l-.77-.77a1.07,1.07,0,0,0-1.52,0l-.77.77a1.06,1.06,0,0,0-.31.76H16.84a1.06,1.06,0,0,0-.31-.76l-.77-.77a1.07,1.07,0,0,0-1.52,0l-.77.77a1.06,1.06,0,0,0-.31.76H10.84a1.06,1.06,0,0,0-.31-.76l-.77-.77a1.07,1.07,0,0,0-1.52,0l-.77.77a1.06,1.06,0,0,0-.31.76H5.29l-.76-.76-.77-.77L3,69.71H3l-.76.76-.77.77a1.06,1.06,0,0,0-.31.76H0V70.84a1.06,1.06,0,0,0,.76-.31l.77-.77a1.07,1.07,0,0,0,0-1.52l-.77-.77A1.06,1.06,0,0,0,0,67.16V64.84a1.06,1.06,0,0,0,.76-.31l.77-.77a1.07,1.07,0,0,0,0-1.52l-.77-.77A1.06,1.06,0,0,0,0,61.16V58.84a1.06,1.06,0,0,0,.76-.31l.77-.77a1.07,1.07,0,0,0,0-1.52l-.77-.77A1.06,1.06,0,0,0,0,55.16V52.84a1.06,1.06,0,0,0,.76-.31l.77-.77a1.07,1.07,0,0,0,0-1.52l-.77-.77A1.06,1.06,0,0,0,0,49.16V46.84a1.06,1.06,0,0,0,.76-.31l.77-.77a1.07,1.07,0,0,0,0-1.52l-.77-.77A1.06,1.06,0,0,0,0,43.16V40.84a1.06,1.06,0,0,0,.76-.31l.77-.77a1.07,1.07,0,0,0,0-1.52l-.77-.77A1.06,1.06,0,0,0,0,37.16V34.84a1.06,1.06,0,0,0,.76-.31l.77-.77a1.07,1.07,0,0,0,0-1.52l-.77-.77A1.06,1.06,0,0,0,0,31.16V28.84a1.06,1.06,0,0,0,.76-.31l.77-.77a1.07,1.07,0,0,0,0-1.52l-.09-.1C1,25.72.52,25.23.34,25A.38.38,0,0,0,0,25V22.84a1.06,1.06,0,0,0,.76-.31l.77-.77a1.07,1.07,0,0,0,0-1.52l-.77-.77A1.06,1.06,0,0,0,0,19.16V16.84a1.06,1.06,0,0,0,.76-.31l.77-.77a1.07,1.07,0,0,0,0-1.52l-.77-.77A1.06,1.06,0,0,0,0,13.16V10.84a1.06,1.06,0,0,0,.76-.31l.77-.77a1.07,1.07,0,0,0,0-1.52L.76,7.47A1.06,1.06,0,0,0,0,7.16V4.88a1.16,1.16,0,0,0,.76-.35l.77-.77a1.07,1.07,0,0,0,0-1.52L.76,1.47A1.06,1.06,0,0,0,0,1.16V0H1.16a1.06,1.06,0,0,0,.31.76l.77.77L3,2.29H3l.76-.76L4.53.76,5.29,0H7.16a1.06,1.06,0,0,0,.31.76l.77.77a1.07,1.07,0,0,0,1.52,0l.77-.77A1.06,1.06,0,0,0,10.84,0h2.32a1.06,1.06,0,0,0,.31.76l.77.77a1.07,1.07,0,0,0,1.52,0l.77-.77A1.06,1.06,0,0,0,16.84,0h2.32a1.06,1.06,0,0,0,.31.76l.77.77a1.07,1.07,0,0,0,1.52,0l.77-.77A1.06,1.06,0,0,0,22.84,0h2.32a1.06,1.06,0,0,0,.31.76l.77.77a1.07,1.07,0,0,0,1.52,0l.77-.77A1.06,1.06,0,0,0,28.84,0h2.32a1.06,1.06,0,0,0,.31.76l.77.77a1.07,1.07,0,0,0,1.52,0l.77-.77A1.06,1.06,0,0,0,34.84,0h2.32a1.06,1.06,0,0,0,.31.76l.77.77a1.07,1.07,0,0,0,1.52,0l.77-.77A1.06,1.06,0,0,0,40.84,0h2.32a1.06,1.06,0,0,0,.31.76l.77.77a1.07,1.07,0,0,0,1.52,0l.77-.77A1.06,1.06,0,0,0,46.84,0h2.32a1.06,1.06,0,0,0,.31.76l.77.77a1.07,1.07,0,0,0,1.52,0l.77-.77A1.06,1.06,0,0,0,52.84,0h1.87l.76.76.77.77a1.07,1.07,0,0,0,1.52,0l.77-.77A1.06,1.06,0,0,0,58.84,0h1.87l.76.76.77.77a1.07,1.07,0,0,0,1.52,0l.77-.77A1.06,1.06,0,0,0,64.84,0h1.87l.76.76.77.77a1.07,1.07,0,0,0,1.52,0l.77-.77A1.06,1.06,0,0,0,70.84,0H72V1.16a1.06,1.06,0,0,0-.76.31l-.77.77c-.42.42-.53,1-.24,1.28l1.14,1.15a.8.8,0,0,0,.63.21V7.16a1.06,1.06,0,0,0-.76.31l-.77.77a1.07,1.07,0,0,0,0,1.52l.77.77a1.06,1.06,0,0,0,.76.31v2.32a1.06,1.06,0,0,0-.76.31l-.77.77a1.07,1.07,0,0,0,0,1.52l.77.77a1.06,1.06,0,0,0,.76.31v2.32a1.06,1.06,0,0,0-.76.31l-.77.77a1.07,1.07,0,0,0,0,1.52l.77.77a1.06,1.06,0,0,0,.76.31V25a1.73,1.73,0,0,0-.76.47l-.77.77a1.07,1.07,0,0,0,0,1.52l.77.77a1.06,1.06,0,0,0,.76.31v2.32a1.06,1.06,0,0,0-.76.31l-.77.77a1.07,1.07,0,0,0,0,1.52l.77.77a1.06,1.06,0,0,0,.76.31v2.32a1.06,1.06,0,0,0-.76.31l-.77.77a1.07,1.07,0,0,0,0,1.52l.77.77a1.06,1.06,0,0,0,.76.31v2.32a1.06,1.06,0,0,0-.76.31l-.77.77a1.07,1.07,0,0,0,0,1.52l.77.77a1.06,1.06,0,0,0,.76.31v2.32a1.06,1.06,0,0,0-.76.31l-.77.77a1.07,1.07,0,0,0,0,1.52l.77.77a1.06,1.06,0,0,0,.76.31v2.32a1.06,1.06,0,0,0-.76.31l-.77.77a1.07,1.07,0,0,0,0,1.52l.77.77a1.06,1.06,0,0,0,.76.31v2.32a1.06,1.06,0,0,0-.76.31l-.77.77a1.07,1.07,0,0,0,0,1.52l.77.77a1.06,1.06,0,0,0,.76.31v2.32a1.06,1.06,0,0,0-.76.31l-.77.77a1.07,1.07,0,0,0,0,1.52l.77.77a1.06,1.06,0,0,0,.76.31V72H70.84a1.06,1.06,0,0,0-.31-.76l-.77-.77L69,69.71h0l-.77.76-.76.77-.76.76H64.84a1.06,1.06,0,0,0-.31-.76l-.77-.77a1.07,1.07,0,0,0-1.52,0l-.77.77-.76.76H58.84a1.06,1.06,0,0,0-.31-.76l-.77-.77a1.07,1.07,0,0,0-1.52,0l-.77.77-.76.76H52.84a1.06,1.06,0,0,0-.31-.76l-.77-.77a1.07,1.07,0,0,0-1.52,0l-.77.77a1.06,1.06,0,0,0-.31.76H46.84a1.06,1.06,0,0,0-.31-.76l-.77-.77a1.07,1.07,0,0,0-1.52,0l-.77.77a1.06,1.06,0,0,0-.31.76H40.84a1.06,1.06,0,0,0-.31-.76l-.77-.77a1.07,1.07,0,0,0-1.52,0l-.77.77a1.06,1.06,0,0,0-.31.76Zm4.92-4.47.77-.77a1.07,1.07,0,0,0,0-1.52l-.77-.77a1.07,1.07,0,0,0-1.52,0l-.77.77a1.07,1.07,0,0,0,0,1.52l.77.77A1.07,1.07,0,0,0,39.76,67.53ZM17.24,37.47l-.77.77a1.07,1.07,0,0,0,0,1.52l.77.77a1.07,1.07,0,0,0,1.52,0l.77-.77a1.07,1.07,0,0,0,0-1.52l-.77-.77A1.07,1.07,0,0,0,17.24,37.47Zm0-2.94a1.07,1.07,0,0,0,1.52,0l.77-.77a1.07,1.07,0,0,0,0-1.52l-.77-.77a1.07,1.07,0,0,0-1.52,0l-.77.77a1.07,1.07,0,0,0,0,1.52Zm3,3a1.07,1.07,0,0,0,1.52,0l.77-.77a1.07,1.07,0,0,0,0-1.52l-.77-.77a1.07,1.07,0,0,0-1.52,0l-.77.77a1.07,1.07,0,0,0,0,1.52Zm2.23-3.77.77.77a1.07,1.07,0,0,0,1.52,0l.77-.77a1.07,1.07,0,0,0,0-1.52l-.77-.77a1.07,1.07,0,0,0-1.52,0l-.77.77A1.07,1.07,0,0,0,22.47,33.76Zm0,6,.77.77a1.07,1.07,0,0,0,1.52,0l.77-.77a1.07,1.07,0,0,0,0-1.52l-.77-.77a1.07,1.07,0,0,0-1.52,0l-.77.77A1.07,1.07,0,0,0,22.47,39.76Zm3.77-2.23a1.07,1.07,0,0,0,1.52,0l.77-.77a1.07,1.07,0,0,0,0-1.52l-.77-.77a1.07,1.07,0,0,0-1.52,0l-.77.77a1.07,1.07,0,0,0,0,1.52Zm2.23-3.77.77.77a1.07,1.07,0,0,0,1.52,0l.77-.77a1.07,1.07,0,0,0,0-1.52l-.77-.77a1.07,1.07,0,0,0-1.52,0l-.77.77A1.07,1.07,0,0,0,28.47,33.76Zm0,6,.77.77a1.07,1.07,0,0,0,1.52,0l.77-.77a1.07,1.07,0,0,0,0-1.52l-.77-.77a1.07,1.07,0,0,0-1.52,0l-.77.77A1.07,1.07,0,0,0,28.47,39.76Zm3.77-2.23a1.07,1.07,0,0,0,1.52,0l.77-.77a1.07,1.07,0,0,0,0-1.52l-.77-.77a1.07,1.07,0,0,0-1.52,0l-.77.77a1.07,1.07,0,0,0,0,1.52Zm22.52-3,.77-.77a1.07,1.07,0,0,0,0-1.52l-.77-.77a1.07,1.07,0,0,0-1.52,0l-.77.77a1.07,1.07,0,0,0,0,1.52l.77.77A1.07,1.07,0,0,0,54.76,34.53Zm0,2.94a1.07,1.07,0,0,0-1.52,0l-.77.77a1.07,1.07,0,0,0,0,1.52l.77.77a1.07,1.07,0,0,0,1.52,0l.77-.77a1.07,1.07,0,0,0,0-1.52Zm-3-3a1.07,1.07,0,0,0-1.52,0l-.77.77a1.07,1.07,0,0,0,0,1.52l.77.77a1.07,1.07,0,0,0,1.52,0l.77-.77a1.07,1.07,0,0,0,0-1.52Zm-2.23,3.77-.77-.77a1.07,1.07,0,0,0-1.52,0l-.77.77a1.07,1.07,0,0,0,0,1.52l.77.77a1.07,1.07,0,0,0,1.52,0l.77-.77A1.07,1.07,0,0,0,49.53,38.24Zm0-6-.77-.77a1.07,1.07,0,0,0-1.52,0l-.77.77a1.07,1.07,0,0,0,0,1.52l.77.77a1.07,1.07,0,0,0,1.52,0l.77-.77A1.07,1.07,0,0,0,49.53,32.24Zm-3.77,2.23a1.07,1.07,0,0,0-1.52,0l-.77.77a1.07,1.07,0,0,0,0,1.52l.77.77a1.07,1.07,0,0,0,1.52,0l.77-.77a1.07,1.07,0,0,0,0-1.52Zm-2.23,3.77-.77-.77a1.07,1.07,0,0,0-1.52,0l-.77.77a1.07,1.07,0,0,0,0,1.52l.77.77a1.07,1.07,0,0,0,1.52,0l.77-.77A1.07,1.07,0,0,0,43.53,38.24Zm0-6-.77-.77a1.07,1.07,0,0,0-1.52,0l-.77.77a1.07,1.07,0,0,0,0,1.52l.77.77a1.07,1.07,0,0,0,1.52,0l.77-.77A1.07,1.07,0,0,0,43.53,32.24Zm-3.77,2.23a1.07,1.07,0,0,0-1.52,0l-.77.77a1.07,1.07,0,0,0,0,1.52l.77.77a1.07,1.07,0,0,0,1.52,0l.77-.77a1.07,1.07,0,0,0,0-1.52Zm-2.23-2.23-.77-.77a1.07,1.07,0,0,0-1.52,0l-.77.77a1.07,1.07,0,0,0,0,1.52l.77.77a1.07,1.07,0,0,0,1.52,0l.77-.77A1.07,1.07,0,0,0,37.53,32.24Zm-3.06,7.52.77.77a1.07,1.07,0,0,0,1.52,0l.77-.77a1.07,1.07,0,0,0,0-1.52l-.77-.77a1.07,1.07,0,0,0-1.52,0l-.77.77A1.07,1.07,0,0,0,34.47,39.76Zm3,3,.77.77a1.07,1.07,0,0,0,1.52,0l.77-.77a1.07,1.07,0,0,0,0-1.52l-.77-.77a1.07,1.07,0,0,0-1.52,0l-.77.77A1.07,1.07,0,0,0,37.47,42.76Zm3,3,.77.77a1.07,1.07,0,0,0,1.52,0l.77-.77a1.07,1.07,0,0,0,0-1.52l-.77-.77a1.07,1.07,0,0,0-1.52,0l-.77.77A1.07,1.07,0,0,0,40.47,45.76Zm3.77-2.23a1.07,1.07,0,0,0,1.52,0l.77-.77a1.07,1.07,0,0,0,0-1.52l-.77-.77a1.07,1.07,0,0,0-1.52,0l-.77.77a1.07,1.07,0,0,0,0,1.52Zm2.23,2.23.77.77a1.07,1.07,0,0,0,1.52,0l.77-.77a1.07,1.07,0,0,0,0-1.52l-.77-.77a1.07,1.07,0,0,0-1.52,0l-.77.77A1.07,1.07,0,0,0,46.47,45.76Zm3.77-2.23a1.07,1.07,0,0,0,1.52,0l.77-.77a1.07,1.07,0,0,0,0-1.52l-.77-.77a1.07,1.07,0,0,0-1.52,0l-.77.77a1.07,1.07,0,0,0,0,1.52Zm2.23,2.23.77.77a1.07,1.07,0,0,0,1.52,0l.77-.77a1.07,1.07,0,0,0,0-1.52l-.77-.77a1.07,1.07,0,0,0-1.52,0l-.77.77A1.07,1.07,0,0,0,52.47,45.76Zm3.77-2.23a1.07,1.07,0,0,0,1.52,0l.77-.77a1.07,1.07,0,0,0,0-1.52l-.77-.77a1.07,1.07,0,0,0-1.52,0l-.77.77a1.07,1.07,0,0,0,0,1.52Zm1.52-6,.77-.77a1.07,1.07,0,0,0,0-1.52l-.77-.77a1.07,1.07,0,0,0-1.52,0l-.77.77a1.07,1.07,0,0,0,0,1.52l.77.77A1.07,1.07,0,0,0,57.76,37.53Zm0-6,.77-.77a1.07,1.07,0,0,0,0-1.52l-.77-.77a1.07,1.07,0,0,0-1.52,0l-.77.77a1.07,1.07,0,0,0,0,1.52l.77.77A1.07,1.07,0,0,0,57.76,31.53Zm-2.23-5.29-.77-.77a1.07,1.07,0,0,0-1.52,0l-.77.77a1.07,1.07,0,0,0,0,1.52l.77.77a1.07,1.07,0,0,0,1.52,0l.77-.77A1.07,1.07,0,0,0,55.53,26.24Zm-3.77,2.23a1.07,1.07,0,0,0-1.52,0l-.77.77a1.07,1.07,0,0,0,0,1.52l.77.77a1.07,1.07,0,0,0,1.52,0l.77-.77a1.07,1.07,0,0,0,0-1.52Zm-2.23-2.23-.77-.77a1.07,1.07,0,0,0-1.52,0l-.77.77a1.07,1.07,0,0,0,0,1.52l.77.77a1.07,1.07,0,0,0,1.52,0l.77-.77A1.07,1.07,0,0,0,49.53,26.24Zm-3.77,2.23a1.07,1.07,0,0,0-1.52,0l-.77.77a1.07,1.07,0,0,0,0,1.52l.77.77a1.07,1.07,0,0,0,1.52,0l.77-.77a1.07,1.07,0,0,0,0-1.52Zm-2.23-2.23-.77-.77a1.07,1.07,0,0,0-1.52,0l-.77.77a1.07,1.07,0,0,0,0,1.52l.77.77a1.07,1.07,0,0,0,1.52,0l.77-.77A1.07,1.07,0,0,0,43.53,26.24Zm-3.77,2.23a1.07,1.07,0,0,0-1.52,0l-.77.77a1.07,1.07,0,0,0,0,1.52l.77.77a1.07,1.07,0,0,0,1.52,0l.77-.77a1.07,1.07,0,0,0,0-1.52Zm-2.23-2.23-.77-.77a1.07,1.07,0,0,0-1.52,0l-.77.77a1.07,1.07,0,0,0,0,1.52l.77.77a1.07,1.07,0,0,0,1.52,0l.77-.77A1.07,1.07,0,0,0,37.53,26.24Zm-3.77,2.23a1.07,1.07,0,0,0-1.52,0l-.77.77a1.07,1.07,0,0,0,0,1.52l.77.77a1.07,1.07,0,0,0,1.52,0l.77-.77a1.07,1.07,0,0,0,0-1.52Zm-2.23-2.23-.77-.77a1.07,1.07,0,0,0-1.52,0l-.77.77a1.07,1.07,0,0,0,0,1.52l.77.77a1.07,1.07,0,0,0,1.52,0l.77-.77A1.07,1.07,0,0,0,31.53,26.24Zm-3.77,2.23a1.07,1.07,0,0,0-1.52,0l-.77.77a1.07,1.07,0,0,0,0,1.52l.77.77a1.07,1.07,0,0,0,1.52,0l.77-.77a1.07,1.07,0,0,0,0-1.52Zm-2.23-2.23-.77-.77a1.07,1.07,0,0,0-1.52,0l-.77.77a1.07,1.07,0,0,0,0,1.52l.77.77a1.07,1.07,0,0,0,1.52,0l.77-.77A1.07,1.07,0,0,0,25.53,26.24Zm-3.77,2.23a1.07,1.07,0,0,0-1.52,0l-.77.77a1.07,1.07,0,0,0,0,1.52l.77.77a1.07,1.07,0,0,0,1.52,0l.77-.77a1.07,1.07,0,0,0,0-1.52Zm-2.23-2.23-.77-.77a1.07,1.07,0,0,0-1.52,0l-.77.77a1.07,1.07,0,0,0,0,1.52l.77.77a1.07,1.07,0,0,0,1.52,0l.77-.77A1.07,1.07,0,0,0,19.53,26.24Zm-3.77,2.23a1.07,1.07,0,0,0-1.52,0l-.77.77a1.07,1.07,0,0,0,0,1.52l.77.77a1.07,1.07,0,0,0,1.52,0l.77-.77a1.07,1.07,0,0,0,0-1.52Zm-2.29,6.77a1.07,1.07,0,0,0,0,1.52l.77.77a1.07,1.07,0,0,0,1.52,0l.77-.77a1.07,1.07,0,0,0,0-1.52l-.77-.77a1.07,1.07,0,0,0-1.52,0Zm0,6a1.07,1.07,0,0,0,0,1.52l.77.77a1.07,1.07,0,0,0,1.52,0l.77-.77a1.07,1.07,0,0,0,0-1.52l-.77-.77a1.07,1.07,0,0,0-1.52,0Zm3,4.52.77.77a1.07,1.07,0,0,0,1.52,0l.77-.77a1.07,1.07,0,0,0,0-1.52l-.77-.77a1.07,1.07,0,0,0-1.52,0l-.77.77A1.07,1.07,0,0,0,16.47,45.76Zm3.77-2.23a1.07,1.07,0,0,0,1.52,0l.77-.77a1.07,1.07,0,0,0,0-1.52l-.77-.77a1.07,1.07,0,0,0-1.52,0l-.77.77a1.07,1.07,0,0,0,0,1.52Zm2.23,2.23.77.77a1.07,1.07,0,0,0,1.52,0l.77-.77a1.07,1.07,0,0,0,0-1.52l-.77-.77a1.07,1.07,0,0,0-1.52,0l-.77.77A1.07,1.07,0,0,0,22.47,45.76Zm3.77-2.23a1.07,1.07,0,0,0,1.52,0l.77-.77a1.07,1.07,0,0,0,0-1.52l-.77-.77a1.07,1.07,0,0,0-1.52,0l-.77.77a1.07,1.07,0,0,0,0,1.52Zm2.23,2.23.77.77a1.07,1.07,0,0,0,1.52,0l.77-.77a1.07,1.07,0,0,0,0-1.52l-.77-.77a1.07,1.07,0,0,0-1.52,0l-.77.77A1.07,1.07,0,0,0,28.47,45.76Zm3.77-2.23a1.07,1.07,0,0,0,1.52,0l.77-.77a1.07,1.07,0,0,0,0-1.52l-.77-.77a1.07,1.07,0,0,0-1.52,0l-.77.77a1.07,1.07,0,0,0,0,1.52Zm2.23,2.23.77.77a1.07,1.07,0,0,0,1.52,0l.77-.77a1.07,1.07,0,0,0,0-1.52l-.77-.77a1.07,1.07,0,0,0-1.52,0l-.77.77A1.07,1.07,0,0,0,34.47,45.76Zm3,3,.77.77a1.07,1.07,0,0,0,1.52,0l.77-.77a1.07,1.07,0,0,0,0-1.52l-.77-.77a1.07,1.07,0,0,0-1.52,0l-.77.77A1.07,1.07,0,0,0,37.47,48.76Zm3,3,.77.77a1.07,1.07,0,0,0,1.52,0l.77-.77a1.07,1.07,0,0,0,0-1.52l-.77-.77a1.07,1.07,0,0,0-1.52,0l-.77.77A1.07,1.07,0,0,0,40.47,51.76Zm3.77-2.23a1.07,1.07,0,0,0,1.52,0l.77-.77a1.07,1.07,0,0,0,0-1.52l-.77-.77a1.07,1.07,0,0,0-1.52,0l-.77.77a1.07,1.07,0,0,0,0,1.52Zm2.23,2.23.77.77a1.07,1.07,0,0,0,1.52,0l.77-.77a1.07,1.07,0,0,0,0-1.52l-.77-.77a1.07,1.07,0,0,0-1.52,0l-.77.77A1.07,1.07,0,0,0,46.47,51.76Zm3.77-2.23a1.07,1.07,0,0,0,1.52,0l.77-.77a1.07,1.07,0,0,0,0-1.52l-.77-.77a1.07,1.07,0,0,0-1.52,0l-.77.77a1.07,1.07,0,0,0,0,1.52Zm2.23,2.23.77.77a1.07,1.07,0,0,0,1.52,0l.77-.77a1.07,1.07,0,0,0,0-1.52l-.77-.77a1.07,1.07,0,0,0-1.52,0l-.77.77A1.07,1.07,0,0,0,52.47,51.76Zm3.77-2.23a1.07,1.07,0,0,0,1.52,0l.77-.77a1.07,1.07,0,0,0,0-1.52l-.77-.77a1.07,1.07,0,0,0-1.52,0l-.77.77a1.07,1.07,0,0,0,0,1.52Zm2.23,2.23.77.77a1.07,1.07,0,0,0,1.52,0l.77-.77a1.07,1.07,0,0,0,0-1.52l-.77-.77a1.07,1.07,0,0,0-1.52,0l-.77.77A1.07,1.07,0,0,0,58.47,51.76Zm2.29-5.23.77-.77a1.07,1.07,0,0,0,0-1.52l-.77-.77a1.07,1.07,0,0,0-1.52,0l-.77.77a1.07,1.07,0,0,0,0,1.52l.77.77A1.07,1.07,0,0,0,60.76,46.53Zm0-6,.77-.77a1.07,1.07,0,0,0,0-1.52l-.77-.77a1.07,1.07,0,0,0-1.52,0l-.77.77a1.07,1.07,0,0,0,0,1.52l.77.77A1.07,1.07,0,0,0,60.76,40.53Zm0-6,.77-.77a1.07,1.07,0,0,0,0-1.52l-.77-.77a1.07,1.07,0,0,0-1.52,0l-.77.77a1.07,1.07,0,0,0,0,1.52l.77.77A1.07,1.07,0,0,0,60.76,34.53Zm0-6,.77-.77a1.07,1.07,0,0,0,0-1.52l-.77-.77a1.07,1.07,0,0,0-1.52,0l-.77.77a1.07,1.07,0,0,0,0,1.52l.77.77A1.07,1.07,0,0,0,60.76,28.53Zm0-6,.77-.77a1.07,1.07,0,0,0,0-1.52l-.77-.77a1.07,1.07,0,0,0-1.52,0l-.77.77a1.07,1.07,0,0,0,0,1.52l.77.77A1.07,1.07,0,0,0,60.76,22.53Zm-3-.06a1.07,1.07,0,0,0-1.52,0l-.77.77a1.07,1.07,0,0,0,0,1.52l.77.77a1.07,1.07,0,0,0,1.52,0l.77-.77a1.07,1.07,0,0,0,0-1.52Zm-2.23-2.23-.77-.77a1.07,1.07,0,0,0-1.52,0l-.77.77a1.07,1.07,0,0,0,0,1.52l.77.77a1.07,1.07,0,0,0,1.52,0l.77-.77A1.07,1.07,0,0,0,55.53,20.24Zm-3.77,2.23a1.07,1.07,0,0,0-1.52,0l-.77.77a1.07,1.07,0,0,0,0,1.52l.77.77a1.07,1.07,0,0,0,1.52,0l.77-.77a1.07,1.07,0,0,0,0-1.52Zm-2.23-2.23-.77-.77a1.07,1.07,0,0,0-1.52,0l-.77.77a1.07,1.07,0,0,0,0,1.52l.77.77a1.07,1.07,0,0,0,1.52,0l.77-.77A1.07,1.07,0,0,0,49.53,20.24Zm-3.77,2.23a1.07,1.07,0,0,0-1.52,0l-.77.77a1.07,1.07,0,0,0,0,1.52l.77.77a1.07,1.07,0,0,0,1.52,0l.77-.77a1.07,1.07,0,0,0,0-1.52Zm-2.23-2.23-.77-.77a1.07,1.07,0,0,0-1.52,0l-.77.77a1.07,1.07,0,0,0,0,1.52l.77.77a1.07,1.07,0,0,0,1.52,0l.77-.77A1.07,1.07,0,0,0,43.53,20.24Zm-3.77,2.23a1.07,1.07,0,0,0-1.52,0l-.77.77a1.07,1.07,0,0,0,0,1.52l.77.77a1.07,1.07,0,0,0,1.52,0l.77-.77a1.07,1.07,0,0,0,0-1.52Zm-2.23-2.23-.77-.77a1.07,1.07,0,0,0-1.52,0l-.77.77a1.07,1.07,0,0,0,0,1.52l.77.77a1.07,1.07,0,0,0,1.52,0l.77-.77A1.07,1.07,0,0,0,37.53,20.24Zm-3.77,2.23a1.07,1.07,0,0,0-1.52,0l-.77.77a1.07,1.07,0,0,0,0,1.52l.77.77a1.07,1.07,0,0,0,1.52,0l.77-.77a1.07,1.07,0,0,0,0-1.52Zm-2.23-2.23-.77-.77a1.07,1.07,0,0,0-1.52,0l-.77.77a1.07,1.07,0,0,0,0,1.52l.77.77a1.07,1.07,0,0,0,1.52,0l.77-.77A1.07,1.07,0,0,0,31.53,20.24Zm-3.77,2.23a1.07,1.07,0,0,0-1.52,0l-.77.77a1.07,1.07,0,0,0,0,1.52l.77.77a1.07,1.07,0,0,0,1.52,0l.77-.77a1.07,1.07,0,0,0,0-1.52Zm-2.23-2.23-.77-.77a1.07,1.07,0,0,0-1.52,0l-.77.77a1.07,1.07,0,0,0,0,1.52l.77.77a1.07,1.07,0,0,0,1.52,0l.77-.77A1.07,1.07,0,0,0,25.53,20.24Zm-3.77,2.23a1.07,1.07,0,0,0-1.52,0l-.77.77a1.07,1.07,0,0,0,0,1.52l.77.77a1.07,1.07,0,0,0,1.52,0l.77-.77a1.07,1.07,0,0,0,0-1.52Zm-2.23-2.23-.77-.77a1.07,1.07,0,0,0-1.52,0l-.77.77a1.07,1.07,0,0,0,0,1.52l.77.77a1.07,1.07,0,0,0,1.52,0l.77-.77A1.07,1.07,0,0,0,19.53,20.24Zm-3.77,2.23a1.07,1.07,0,0,0-1.52,0l-.77.77a1.07,1.07,0,0,0,0,1.52l.77.77a1.07,1.07,0,0,0,1.52,0l.77-.77a1.07,1.07,0,0,0,0-1.52Zm-2.23-2.23-.77-.77a1.07,1.07,0,0,0-1.52,0l-.77.77a1.07,1.07,0,0,0,0,1.52l.77.77a1.07,1.07,0,0,0,1.52,0l.77-.77A1.07,1.07,0,0,0,13.53,20.24Zm-2.29,5.23-.77.77a1.07,1.07,0,0,0,0,1.52l.77.77a1.07,1.07,0,0,0,1.52,0l.77-.77a1.07,1.07,0,0,0,0-1.52l-.77-.77A1.07,1.07,0,0,0,11.24,25.47Zm0,6-.77.77a1.07,1.07,0,0,0,0,1.52l.77.77a1.07,1.07,0,0,0,1.52,0l.77-.77a1.07,1.07,0,0,0,0-1.52l-.77-.77A1.07,1.07,0,0,0,11.24,31.47Zm0,6-.77.77a1.07,1.07,0,0,0,0,1.52l.77.77a1.07,1.07,0,0,0,1.52,0l.77-.77a1.07,1.07,0,0,0,0-1.52l-.77-.77A1.07,1.07,0,0,0,11.24,37.47Zm-.77,6.77a1.07,1.07,0,0,0,0,1.52l.77.77a1.07,1.07,0,0,0,1.52,0l.77-.77a1.07,1.07,0,0,0,0-1.52l-.77-.77a1.07,1.07,0,0,0-1.52,0Zm.77,5.23-.77.77a1.07,1.07,0,0,0,0,1.52l.77.77a1.07,1.07,0,0,0,1.52,0l.77-.77a1.07,1.07,0,0,0,0-1.52l-.77-.77A1.07,1.07,0,0,0,11.24,49.47Zm3,.06a1.07,1.07,0,0,0,1.52,0l.77-.77a1.07,1.07,0,0,0,0-1.52l-.77-.77a1.07,1.07,0,0,0-1.52,0l-.77.77a1.07,1.07,0,0,0,0,1.52Zm2.23,2.23.77.77a1.07,1.07,0,0,0,1.52,0l.77-.77a1.07,1.07,0,0,0,0-1.52l-.77-.77a1.07,1.07,0,0,0-1.52,0l-.77.77A1.07,1.07,0,0,0,16.47,51.76Zm3.77-2.23a1.07,1.07,0,0,0,1.52,0l.77-.77a1.07,1.07,0,0,0,0-1.52l-.77-.77a1.07,1.07,0,0,0-1.52,0l-.77.77a1.07,1.07,0,0,0,0,1.52Zm2.23,2.23.77.77a1.07,1.07,0,0,0,1.52,0l.77-.77a1.07,1.07,0,0,0,0-1.52l-.77-.77a1.07,1.07,0,0,0-1.52,0l-.77.77A1.07,1.07,0,0,0,22.47,51.76Zm3.77-2.23a1.07,1.07,0,0,0,1.52,0l.77-.77a1.07,1.07,0,0,0,0-1.52l-.77-.77a1.07,1.07,0,0,0-1.52,0l-.77.77a1.07,1.07,0,0,0,0,1.52Zm2.23,2.23.77.77a1.07,1.07,0,0,0,1.52,0l.77-.77a1.07,1.07,0,0,0,0-1.52l-.77-.77a1.07,1.07,0,0,0-1.52,0l-.77.77A1.07,1.07,0,0,0,28.47,51.76Zm3.77-2.23a1.07,1.07,0,0,0,1.52,0l.77-.77a1.07,1.07,0,0,0,0-1.52l-.77-.77a1.07,1.07,0,0,0-1.52,0l-.77.77a1.07,1.07,0,0,0,0,1.52Zm2.23,2.23.77.77a1.07,1.07,0,0,0,1.52,0l.77-.77a1.07,1.07,0,0,0,0-1.52l-.77-.77a1.07,1.07,0,0,0-1.52,0l-.77.77A1.07,1.07,0,0,0,34.47,51.76Zm3,3,.77.77a1.07,1.07,0,0,0,1.52,0l.77-.77a1.07,1.07,0,0,0,0-1.52l-.77-.77a1.07,1.07,0,0,0-1.52,0l-.77.77A1.07,1.07,0,0,0,37.47,54.76Zm3,3,.77.77a1.07,1.07,0,0,0,1.52,0l.77-.77a1.07,1.07,0,0,0,0-1.52l-.77-.77a1.07,1.07,0,0,0-1.52,0l-.77.77A1.07,1.07,0,0,0,40.47,57.76Zm3.77-2.23a1.07,1.07,0,0,0,1.52,0l.77-.77a1.07,1.07,0,0,0,0-1.52l-.77-.77a1.07,1.07,0,0,0-1.52,0l-.77.77a1.07,1.07,0,0,0,0,1.52Zm2.23,2.23.77.77a1.07,1.07,0,0,0,1.52,0l.77-.77a1.07,1.07,0,0,0,0-1.52l-.77-.77a1.07,1.07,0,0,0-1.52,0l-.77.77A1.07,1.07,0,0,0,46.47,57.76Zm3.77-2.23a1.07,1.07,0,0,0,1.52,0l.77-.77a1.07,1.07,0,0,0,0-1.52l-.77-.77a1.07,1.07,0,0,0-1.52,0l-.77.77a1.07,1.07,0,0,0,0,1.52Zm2.23,2.23.77.77a1.07,1.07,0,0,0,1.52,0l.77-.77a1.07,1.07,0,0,0,0-1.52l-.77-.77a1.07,1.07,0,0,0-1.52,0l-.77.77A1.07,1.07,0,0,0,52.47,57.76Zm3.77-2.23a1.07,1.07,0,0,0,1.52,0l.77-.77a1.07,1.07,0,0,0,0-1.52l-.77-.77a1.07,1.07,0,0,0-1.52,0l-.77.77a1.07,1.07,0,0,0,0,1.52Zm2.23,2.23.77.77a1.07,1.07,0,0,0,1.52,0l.77-.77a1.07,1.07,0,0,0,0-1.52l-.77-.77a1.07,1.07,0,0,0-1.52,0l-.77.77A1.07,1.07,0,0,0,58.47,57.76Zm3.77-2.23a1.07,1.07,0,0,0,1.52,0l.77-.77a1.07,1.07,0,0,0,0-1.52l-.77-.77a1.07,1.07,0,0,0-1.52,0l-.77.77a1.07,1.07,0,0,0,0,1.52Zm1.52-6,.77-.77a1.07,1.07,0,0,0,0-1.52l-.77-.77a1.07,1.07,0,0,0-1.52,0l-.77.77a1.07,1.07,0,0,0,0,1.52l.77.77A1.07,1.07,0,0,0,63.76,49.53Zm0-6,.77-.77a1.07,1.07,0,0,0,0-1.52l-.77-.77a1.07,1.07,0,0,0-1.52,0l-.77.77a1.07,1.07,0,0,0,0,1.52l.77.77A1.07,1.07,0,0,0,63.76,43.53Zm0-6,.77-.77a1.07,1.07,0,0,0,0-1.52l-.77-.77a1.07,1.07,0,0,0-1.52,0l-.77.77a1.07,1.07,0,0,0,0,1.52l.77.77A1.07,1.07,0,0,0,63.76,37.53Zm0-6,.77-.77a1.07,1.07,0,0,0,0-1.52l-.77-.77a1.07,1.07,0,0,0-1.52,0l-.77.77a1.07,1.07,0,0,0,0,1.52l.77.77A1.07,1.07,0,0,0,63.76,31.53Zm0-6,.77-.77a1.07,1.07,0,0,0,0-1.52l-.77-.77a1.07,1.07,0,0,0-1.52,0l-.77.77a1.07,1.07,0,0,0,0,1.52l.77.77A1.07,1.07,0,0,0,63.76,25.53Zm0-6,.77-.77a1.07,1.07,0,0,0,0-1.52l-.77-.77a1.07,1.07,0,0,0-1.52,0l-.77.77a1.07,1.07,0,0,0,0,1.52l.77.77A1.07,1.07,0,0,0,63.76,19.53Zm-2.23-5.29-.77-.77a1.07,1.07,0,0,0-1.52,0l-.77.77a1.07,1.07,0,0,0,0,1.52l.77.77a1.07,1.07,0,0,0,1.52,0l.77-.77A1.07,1.07,0,0,0,61.53,14.24Zm-3.77,2.23a1.07,1.07,0,0,0-1.52,0l-.77.77a1.07,1.07,0,0,0,0,1.52l.77.77a1.07,1.07,0,0,0,1.52,0l.77-.77a1.07,1.07,0,0,0,0-1.52Zm-2.23-2.23-.77-.77a1.07,1.07,0,0,0-1.52,0l-.77.77a1.07,1.07,0,0,0,0,1.52l.77.77a1.07,1.07,0,0,0,1.52,0l.77-.77A1.07,1.07,0,0,0,55.53,14.24Zm-3.77,2.23a1.07,1.07,0,0,0-1.52,0l-.77.77a1.07,1.07,0,0,0,0,1.52l.77.77a1.07,1.07,0,0,0,1.52,0l.77-.77a1.07,1.07,0,0,0,0-1.52Zm-2.23-2.23-.77-.77a1.07,1.07,0,0,0-1.52,0l-.77.77a1.07,1.07,0,0,0,0,1.52l.77.77a1.07,1.07,0,0,0,1.52,0l.77-.77A1.07,1.07,0,0,0,49.53,14.24Zm-3.77,2.23a1.07,1.07,0,0,0-1.52,0l-.77.77a1.07,1.07,0,0,0,0,1.52l.77.77a1.07,1.07,0,0,0,1.52,0l.77-.77a1.07,1.07,0,0,0,0-1.52Zm-2.23-2.23-.77-.77a1.07,1.07,0,0,0-1.52,0l-.77.77a1.07,1.07,0,0,0,0,1.52l.77.77a1.07,1.07,0,0,0,1.52,0l.77-.77A1.07,1.07,0,0,0,43.53,14.24Zm-3.77,2.23a1.07,1.07,0,0,0-1.52,0l-.77.77a1.07,1.07,0,0,0,0,1.52l.77.77a1.07,1.07,0,0,0,1.52,0l.77-.77a1.07,1.07,0,0,0,0-1.52Zm-2.23-2.23-.77-.77a1.07,1.07,0,0,0-1.52,0l-.77.77a1.07,1.07,0,0,0,0,1.52l.77.77a1.07,1.07,0,0,0,1.52,0l.77-.77A1.07,1.07,0,0,0,37.53,14.24Zm-3.77,2.23a1.07,1.07,0,0,0-1.52,0l-.77.77a1.07,1.07,0,0,0,0,1.52l.77.77a1.07,1.07,0,0,0,1.52,0l.77-.77a1.07,1.07,0,0,0,0-1.52Zm-2.23-2.23-.77-.77a1.07,1.07,0,0,0-1.52,0l-.77.77a1.07,1.07,0,0,0,0,1.52l.77.77a1.07,1.07,0,0,0,1.52,0l.77-.77A1.07,1.07,0,0,0,31.53,14.24Zm-3.77,2.23a1.07,1.07,0,0,0-1.52,0l-.77.77a1.07,1.07,0,0,0,0,1.52l.77.77a1.07,1.07,0,0,0,1.52,0l.77-.77a1.07,1.07,0,0,0,0-1.52Zm-2.23-2.23-.77-.77a1.07,1.07,0,0,0-1.52,0l-.77.77a1.07,1.07,0,0,0,0,1.52l.77.77a1.07,1.07,0,0,0,1.52,0l.77-.77A1.07,1.07,0,0,0,25.53,14.24Zm-3.77,2.23a1.07,1.07,0,0,0-1.52,0l-.77.77a1.07,1.07,0,0,0,0,1.52l.77.77a1.07,1.07,0,0,0,1.52,0l.77-.77a1.07,1.07,0,0,0,0-1.52Zm-2.23-2.23-.77-.77a1.07,1.07,0,0,0-1.52,0l-.77.77a1.07,1.07,0,0,0,0,1.52l.77.77a1.07,1.07,0,0,0,1.52,0l.77-.77A1.07,1.07,0,0,0,19.53,14.24Zm-3.77,2.23a1.07,1.07,0,0,0-1.52,0l-.77.77a1.07,1.07,0,0,0,0,1.52l.77.77a1.07,1.07,0,0,0,1.52,0l.77-.77a1.07,1.07,0,0,0,0-1.52Zm-2.23-2.23-.77-.77a1.07,1.07,0,0,0-1.52,0l-.77.77a1.07,1.07,0,0,0,0,1.52l.77.77a1.07,1.07,0,0,0,1.52,0l.77-.77A1.07,1.07,0,0,0,13.53,14.24ZM9.76,16.47a1.07,1.07,0,0,0-1.52,0l-.77.77a1.07,1.07,0,0,0,0,1.52l.77.77a1.07,1.07,0,0,0,1.52,0l.77-.77a1.07,1.07,0,0,0,0-1.52ZM7.47,23.24a1.07,1.07,0,0,0,0,1.52l.77.77a1.07,1.07,0,0,0,1.52,0l.77-.77a1.07,1.07,0,0,0,0-1.52l-.77-.77a1.07,1.07,0,0,0-1.52,0Zm.77,5.23-.77.77a1.07,1.07,0,0,0,0,1.52l.77.77a1.07,1.07,0,0,0,1.52,0l.77-.77a1.07,1.07,0,0,0,0-1.52l-.77-.77A1.07,1.07,0,0,0,8.24,28.47Zm0,6-.77.77a1.07,1.07,0,0,0,0,1.52l.77.77a1.07,1.07,0,0,0,1.52,0l.77-.77a1.07,1.07,0,0,0,0-1.52l-.77-.77A1.07,1.07,0,0,0,8.24,34.47Zm0,6-.77.77a1.07,1.07,0,0,0,0,1.52l.77.77a1.07,1.07,0,0,0,1.52,0l.77-.77a1.07,1.07,0,0,0,0-1.52l-.77-.77A1.07,1.07,0,0,0,8.24,40.47Zm-.77,6.77a1.07,1.07,0,0,0,0,1.52l.77.77a1.07,1.07,0,0,0,1.52,0l.77-.77a1.07,1.07,0,0,0,0-1.52l-.77-.77a1.07,1.07,0,0,0-1.52,0Zm.77,5.23-.77.77a1.07,1.07,0,0,0,0,1.52l.77.77a1.07,1.07,0,0,0,1.52,0l.77-.77a1.07,1.07,0,0,0,0-1.52l-.77-.77A1.07,1.07,0,0,0,8.24,52.47Zm2.23,5.29.77.77a1.07,1.07,0,0,0,1.52,0l.77-.77a1.07,1.07,0,0,0,0-1.52l-.77-.77a1.07,1.07,0,0,0-1.52,0l-.77.77A1.07,1.07,0,0,0,10.47,57.76Zm3.77-2.23a1.07,1.07,0,0,0,1.52,0l.77-.77a1.07,1.07,0,0,0,0-1.52l-.77-.77a1.07,1.07,0,0,0-1.52,0l-.77.77a1.07,1.07,0,0,0,0,1.52Zm2.23,2.23.77.77a1.07,1.07,0,0,0,1.52,0l.77-.77a1.07,1.07,0,0,0,0-1.52l-.77-.77a1.07,1.07,0,0,0-1.52,0l-.77.77A1.07,1.07,0,0,0,16.47,57.76Zm3.77-2.23a1.07,1.07,0,0,0,1.52,0l.77-.77a1.07,1.07,0,0,0,0-1.52l-.77-.77a1.07,1.07,0,0,0-1.52,0l-.77.77a1.07,1.07,0,0,0,0,1.52Zm2.23,2.23.77.77a1.07,1.07,0,0,0,1.52,0l.77-.77a1.07,1.07,0,0,0,0-1.52l-.77-.77a1.07,1.07,0,0,0-1.52,0l-.77.77A1.07,1.07,0,0,0,22.47,57.76Zm3.77-2.23a1.07,1.07,0,0,0,1.52,0l.77-.77a1.07,1.07,0,0,0,0-1.52l-.77-.77a1.07,1.07,0,0,0-1.52,0l-.77.77a1.07,1.07,0,0,0,0,1.52Zm2.23,2.23.77.77a1.07,1.07,0,0,0,1.52,0l.77-.77a1.07,1.07,0,0,0,0-1.52l-.77-.77a1.07,1.07,0,0,0-1.52,0l-.77.77A1.07,1.07,0,0,0,28.47,57.76Zm3.77-2.23a1.07,1.07,0,0,0,1.52,0l.77-.77a1.07,1.07,0,0,0,0-1.52l-.77-.77a1.07,1.07,0,0,0-1.52,0l-.77.77a1.07,1.07,0,0,0,0,1.52Zm2.23,2.23.77.77a1.07,1.07,0,0,0,1.52,0l.77-.77a1.07,1.07,0,0,0,0-1.52l-.77-.77a1.07,1.07,0,0,0-1.52,0l-.77.77A1.07,1.07,0,0,0,34.47,57.76Zm3,3,.77.77a1.07,1.07,0,0,0,1.52,0l.77-.77a1.07,1.07,0,0,0,0-1.52l-.77-.77a1.07,1.07,0,0,0-1.52,0l-.77.77A1.07,1.07,0,0,0,37.47,60.76Zm3,3,.77.77a1.07,1.07,0,0,0,1.52,0l.77-.77a1.07,1.07,0,0,0,0-1.52l-.77-.77a1.07,1.07,0,0,0-1.52,0l-.77.77A1.07,1.07,0,0,0,40.47,63.76Zm3.77-2.23a1.07,1.07,0,0,0,1.52,0l.77-.77a1.07,1.07,0,0,0,0-1.52l-.77-.77a1.07,1.07,0,0,0-1.52,0l-.77.77a1.07,1.07,0,0,0,0,1.52Zm2.23,2.23.77.77a1.07,1.07,0,0,0,1.52,0l.77-.77a1.07,1.07,0,0,0,0-1.52l-.77-.77a1.07,1.07,0,0,0-1.52,0l-.77.77A1.07,1.07,0,0,0,46.47,63.76Zm3.77-2.23a1.07,1.07,0,0,0,1.52,0l.77-.77a1.07,1.07,0,0,0,0-1.52l-.77-.77a1.07,1.07,0,0,0-1.52,0l-.77.77a1.07,1.07,0,0,0,0,1.52Zm2.23,2.23.77.77a1.07,1.07,0,0,0,1.52,0l.77-.77a1.07,1.07,0,0,0,0-1.52l-.77-.77a1.07,1.07,0,0,0-1.52,0l-.77.77A1.07,1.07,0,0,0,52.47,63.76Zm3.77-2.23a1.07,1.07,0,0,0,1.52,0l.77-.77a1.07,1.07,0,0,0,0-1.52l-.77-.77a1.07,1.07,0,0,0-1.52,0l-.77.77a1.07,1.07,0,0,0,0,1.52Zm2.23,2.23.77.77a1.07,1.07,0,0,0,1.52,0l.77-.77a1.07,1.07,0,0,0,0-1.52l-.77-.77a1.07,1.07,0,0,0-1.52,0l-.77.77A1.07,1.07,0,0,0,58.47,63.76Zm3.77-2.23a1.07,1.07,0,0,0,1.52,0l.77-.77a1.07,1.07,0,0,0,0-1.52l-.77-.77a1.07,1.07,0,0,0-1.52,0l-.77.77a1.07,1.07,0,0,0,0,1.52Zm2.23,2.23.77.77a1.07,1.07,0,0,0,1.52,0l.77-.77a1.07,1.07,0,0,0,0-1.52l-.77-.77a1.07,1.07,0,0,0-1.52,0l-.77.77A1.07,1.07,0,0,0,64.47,63.76Zm2.29-5.23.77-.77a1.07,1.07,0,0,0,0-1.52l-.77-.77a1.07,1.07,0,0,0-1.52,0l-.77.77a1.07,1.07,0,0,0,0,1.52l.77.77A1.07,1.07,0,0,0,66.76,58.53Zm0-6,.76-.75c.42-.42.76-.77.77-.77l-.76-.77-.77-.77a1.07,1.07,0,0,0-1.52,0l-.77.77a1.07,1.07,0,0,0,0,1.52l.77.77A1.07,1.07,0,0,0,66.76,52.53Zm0-6,.77-.77a1.07,1.07,0,0,0,0-1.52l-.77-.77a1.07,1.07,0,0,0-1.52,0l-.77.77a1.07,1.07,0,0,0,0,1.52l.77.77A1.07,1.07,0,0,0,66.76,46.53Zm0-6,.77-.77a1.07,1.07,0,0,0,0-1.52l-.77-.77a1.07,1.07,0,0,0-1.52,0l-.77.77a1.07,1.07,0,0,0,0,1.52l.77.77A1.07,1.07,0,0,0,66.76,40.53Zm0-6,.77-.77a1.07,1.07,0,0,0,0-1.52l-.77-.77a1.07,1.07,0,0,0-1.52,0l-.77.77a1.07,1.07,0,0,0,0,1.52l.77.77A1.07,1.07,0,0,0,66.76,34.53Zm0-6,.77-.77a1.07,1.07,0,0,0,0-1.52l-.77-.77a1.07,1.07,0,0,0-1.52,0l-.77.77a1.07,1.07,0,0,0,0,1.52l.77.77A1.07,1.07,0,0,0,66.76,28.53Zm0-6,.77-.77c.42-.42.76-.76.76-.77h0l-.76-.77-.76-.75a1.07,1.07,0,0,0-1.52,0l-.77.77a1.07,1.07,0,0,0,0,1.52l.77.77A1.07,1.07,0,0,0,66.76,22.53Zm0-6,.77-.77a1.07,1.07,0,0,0,0-1.52l-.77-.77a1.07,1.07,0,0,0-1.52,0l-.77.77a1.07,1.07,0,0,0,0,1.52l.77.77A1.07,1.07,0,0,0,66.76,16.53Zm0-6,.77-.77a1.07,1.07,0,0,0,0-1.52l-.77-.77a1.07,1.07,0,0,0-1.52,0l-.77.77a1.07,1.07,0,0,0,0,1.52l.77.77A1.07,1.07,0,0,0,66.76,10.53Zm-3-.06a1.07,1.07,0,0,0-1.52,0l-.77.77a1.07,1.07,0,0,0,0,1.52l.77.77a1.07,1.07,0,0,0,1.52,0l.77-.77a1.07,1.07,0,0,0,0-1.52ZM61.53,8.24l-.77-.77a1.07,1.07,0,0,0-1.52,0l-.77.77a1.07,1.07,0,0,0,0,1.52l.77.77a1.07,1.07,0,0,0,1.52,0l.77-.77A1.07,1.07,0,0,0,61.53,8.24Zm-3.77,2.23a1.07,1.07,0,0,0-1.52,0l-.77.77a1.07,1.07,0,0,0,0,1.52l.77.77a1.07,1.07,0,0,0,1.52,0l.77-.77a1.07,1.07,0,0,0,0-1.52ZM55.53,8.24l-.77-.77a1.07,1.07,0,0,0-1.52,0l-.77.77a1.07,1.07,0,0,0,0,1.52l.77.77a1.07,1.07,0,0,0,1.52,0l.77-.77A1.07,1.07,0,0,0,55.53,8.24Zm-3.77,2.23a1.07,1.07,0,0,0-1.52,0l-.77.77a1.07,1.07,0,0,0,0,1.52l.77.77a1.07,1.07,0,0,0,1.52,0l.77-.77a1.07,1.07,0,0,0,0-1.52ZM49.53,8.24l-.77-.77a1.07,1.07,0,0,0-1.52,0l-.77.77a1.07,1.07,0,0,0,0,1.52l.77.77a1.07,1.07,0,0,0,1.52,0l.77-.77A1.07,1.07,0,0,0,49.53,8.24Zm-3.77,2.23a1.07,1.07,0,0,0-1.52,0l-.77.77a1.07,1.07,0,0,0,0,1.52l.77.77a1.07,1.07,0,0,0,1.52,0l.77-.77a1.07,1.07,0,0,0,0-1.52ZM43.53,8.24l-.77-.77a1.07,1.07,0,0,0-1.52,0l-.77.77a1.07,1.07,0,0,0,0,1.52l.77.77a1.07,1.07,0,0,0,1.52,0l.77-.77A1.07,1.07,0,0,0,43.53,8.24Zm-3.77,2.23a1.07,1.07,0,0,0-1.52,0l-.77.77a1.07,1.07,0,0,0,0,1.52l.77.77a1.07,1.07,0,0,0,1.52,0l.77-.77a1.07,1.07,0,0,0,0-1.52ZM37.53,8.24l-.77-.77a1.07,1.07,0,0,0-1.52,0l-.77.77a1.07,1.07,0,0,0,0,1.52l.77.77a1.07,1.07,0,0,0,1.52,0l.77-.77A1.07,1.07,0,0,0,37.53,8.24Zm-3.77,2.23a1.07,1.07,0,0,0-1.52,0l-.77.77a1.07,1.07,0,0,0,0,1.52l.77.77a1.07,1.07,0,0,0,1.52,0l.77-.77a1.07,1.07,0,0,0,0-1.52ZM31.53,8.24l-.77-.77a1.07,1.07,0,0,0-1.52,0l-.77.77a1.07,1.07,0,0,0,0,1.52l.77.77a1.07,1.07,0,0,0,1.52,0l.77-.77A1.07,1.07,0,0,0,31.53,8.24Zm-3.77,2.23a1.07,1.07,0,0,0-1.52,0l-.77.77a1.07,1.07,0,0,0,0,1.52l.77.77a1.07,1.07,0,0,0,1.52,0l.77-.77a1.07,1.07,0,0,0,0-1.52ZM25.53,8.24l-.77-.77a1.07,1.07,0,0,0-1.52,0l-.77.77a1.07,1.07,0,0,0,0,1.52l.77.77a1.07,1.07,0,0,0,1.52,0l.77-.77A1.07,1.07,0,0,0,25.53,8.24Zm-3.77,2.23a1.07,1.07,0,0,0-1.52,0l-.77.77a1.07,1.07,0,0,0,0,1.52l.77.77a1.07,1.07,0,0,0,1.52,0l.77-.77a1.07,1.07,0,0,0,0-1.52ZM19.53,8.24l-.77-.77a1.07,1.07,0,0,0-1.52,0l-.77.77a1.07,1.07,0,0,0,0,1.52l.77.77a1.07,1.07,0,0,0,1.52,0l.77-.77A1.07,1.07,0,0,0,19.53,8.24Zm-3.77,2.23a1.07,1.07,0,0,0-1.52,0l-.77.77a1.07,1.07,0,0,0,0,1.52l.77.77a1.07,1.07,0,0,0,1.52,0l.77-.77a1.07,1.07,0,0,0,0-1.52ZM13.53,8.24l-.77-.77a1.07,1.07,0,0,0-1.52,0l-.77.77a1.07,1.07,0,0,0,0,1.52l.77.77a1.07,1.07,0,0,0,1.52,0l.77-.77A1.07,1.07,0,0,0,13.53,8.24ZM9.76,10.47a1.07,1.07,0,0,0-1.52,0l-.77.77a1.07,1.07,0,0,0,0,1.52l.77.77a1.07,1.07,0,0,0,1.52,0l.77-.77a1.07,1.07,0,0,0,0-1.52ZM7.53,8.24l-.77-.77a1.07,1.07,0,0,0-1.52,0l-.77.77a1.07,1.07,0,0,0,0,1.52l.77.77a1.07,1.07,0,0,0,1.52,0l.77-.77A1.07,1.07,0,0,0,7.53,8.24Zm-3.06,6a1.07,1.07,0,0,0,0,1.52l.77.77a1.07,1.07,0,0,0,1.52,0l.77-.77a1.07,1.07,0,0,0,0-1.52l-.77-.77a1.07,1.07,0,0,0-1.52,0Zm.77,5.23-.77.77a1.07,1.07,0,0,0,0,1.52l.77.77a1.07,1.07,0,0,0,1.52,0l.77-.77a1.07,1.07,0,0,0,0-1.52l-.77-.77A1.07,1.07,0,0,0,5.24,19.47Zm-.77,6.77a1.07,1.07,0,0,0,0,1.52l.77.77a1.07,1.07,0,0,0,1.52,0l.77-.77a1.07,1.07,0,0,0,0-1.52l-.77-.77a1.07,1.07,0,0,0-1.52,0Zm.77,5.23-.77.77a1.07,1.07,0,0,0,0,1.52l.77.77a1.07,1.07,0,0,0,1.52,0l.77-.77a1.07,1.07,0,0,0,0-1.52l-.77-.77A1.07,1.07,0,0,0,5.24,31.47Zm0,6-.77.77a1.07,1.07,0,0,0,0,1.52l.77.77a1.07,1.07,0,0,0,1.52,0l.77-.77a1.07,1.07,0,0,0,0-1.52l-.77-.77A1.07,1.07,0,0,0,5.24,37.47ZM4.5,44.21,3.72,45s.33.35.75.77l.77.77a1.07,1.07,0,0,0,1.52,0l.77-.77a1.07,1.07,0,0,0,0-1.52l-.77-.77a1.07,1.07,0,0,0-1.52,0Zm.74,5.26-.77.77a1.07,1.07,0,0,0,0,1.52l.77.77a1.07,1.07,0,0,0,1.52,0l.77-.77a1.07,1.07,0,0,0,0-1.52l-.77-.77A1.07,1.07,0,0,0,5.24,49.47Zm0,6-.77.77a1.07,1.07,0,0,0,0,1.52l.77.77a1.07,1.07,0,0,0,1.52,0l.77-.77a1.07,1.07,0,0,0,0-1.52l-.77-.77A1.07,1.07,0,0,0,5.24,55.47Zm0,6-.77.77a1.07,1.07,0,0,0,0,1.52l.77.77a1.07,1.07,0,0,0,1.52,0l.77-.77a1.07,1.07,0,0,0,0-1.52l-.77-.77A1.07,1.07,0,0,0,5.24,61.47Zm3,.06a1.07,1.07,0,0,0,1.52,0l.77-.77a1.07,1.07,0,0,0,0-1.52l-.77-.77a1.07,1.07,0,0,0-1.52,0l-.77.77a1.07,1.07,0,0,0,0,1.52Zm2.23,2.23.77.77a1.07,1.07,0,0,0,1.52,0l.77-.77a1.07,1.07,0,0,0,0-1.52l-.77-.77a1.07,1.07,0,0,0-1.52,0l-.77.77A1.07,1.07,0,0,0,10.47,63.76Zm3.77-2.23a1.07,1.07,0,0,0,1.52,0l.77-.77a1.07,1.07,0,0,0,0-1.52l-.77-.77a1.07,1.07,0,0,0-1.52,0l-.77.77a1.07,1.07,0,0,0,0,1.52Zm2.23,2.23.77.77a1.07,1.07,0,0,0,1.52,0l.77-.77a1.07,1.07,0,0,0,0-1.52l-.77-.77a1.07,1.07,0,0,0-1.52,0l-.77.77A1.07,1.07,0,0,0,16.47,63.76Zm3.77-2.23a1.07,1.07,0,0,0,1.52,0l.77-.77a1.07,1.07,0,0,0,0-1.52l-.77-.77a1.07,1.07,0,0,0-1.52,0l-.77.77a1.07,1.07,0,0,0,0,1.52Zm2.23,2.23.77.77a1.07,1.07,0,0,0,1.52,0l.77-.77a1.07,1.07,0,0,0,0-1.52l-.77-.77a1.07,1.07,0,0,0-1.52,0l-.77.77A1.07,1.07,0,0,0,22.47,63.76Zm3.77-2.23a1.07,1.07,0,0,0,1.52,0l.77-.77a1.07,1.07,0,0,0,0-1.52l-.77-.77a1.07,1.07,0,0,0-1.52,0l-.77.77a1.07,1.07,0,0,0,0,1.52Zm2.23,2.23.77.77a1.07,1.07,0,0,0,1.52,0l.77-.77a1.07,1.07,0,0,0,0-1.52l-.77-.77a1.07,1.07,0,0,0-1.52,0l-.77.77A1.07,1.07,0,0,0,28.47,63.76Zm3.77-2.23a1.07,1.07,0,0,0,1.52,0l.77-.77a1.07,1.07,0,0,0,0-1.52l-.77-.77a1.07,1.07,0,0,0-1.52,0l-.77.77a1.07,1.07,0,0,0,0,1.52Zm2.23,2.23.77.77a1.07,1.07,0,0,0,1.52,0l.77-.77a1.07,1.07,0,0,0,0-1.52l-.77-.77a1.07,1.07,0,0,0-1.52,0l-.77.77A1.07,1.07,0,0,0,34.47,63.76Zm9.06,4.48-.77-.77a1.07,1.07,0,0,0-1.52,0l-.77.77a1.07,1.07,0,0,0,0,1.52l.77.77a1.07,1.07,0,0,0,1.52,0l.77-.77A1.07,1.07,0,0,0,43.53,68.24Zm2.23-.71.77-.77a1.07,1.07,0,0,0,0-1.52l-.77-.77a1.07,1.07,0,0,0-1.52,0l-.77.77a1.07,1.07,0,0,0,0,1.52l.77.77A1.07,1.07,0,0,0,45.76,67.53Zm3.77.71-.77-.77a1.07,1.07,0,0,0-1.52,0l-.77.77a1.07,1.07,0,0,0,0,1.52l.77.77a1.07,1.07,0,0,0,1.52,0l.77-.77A1.07,1.07,0,0,0,49.53,68.24Zm2.23-.71.77-.77a1.07,1.07,0,0,0,0-1.52l-.77-.77a1.07,1.07,0,0,0-1.52,0l-.77.77a1.07,1.07,0,0,0,0,1.52l.77.77A1.07,1.07,0,0,0,51.76,67.53Zm3.77.71-.77-.77a1.07,1.07,0,0,0-1.52,0l-.77.77a1.07,1.07,0,0,0,0,1.52l.77.77a1.07,1.07,0,0,0,1.52,0l.77-.77A1.07,1.07,0,0,0,55.53,68.24Zm3-1.48a1.07,1.07,0,0,0,0-1.52l-.77-.77a1.07,1.07,0,0,0-1.52,0l-.77.77a1.07,1.07,0,0,0,0,1.52l.77.77a1.07,1.07,0,0,0,1.52,0Zm3,1.48-.77-.77a1.07,1.07,0,0,0-1.52,0l-.77.77a1.07,1.07,0,0,0,0,1.52l.77.77a1.07,1.07,0,0,0,1.52,0l.77-.77A1.07,1.07,0,0,0,61.53,68.24Zm3-1.48a1.07,1.07,0,0,0,0-1.52l-.77-.77a1.07,1.07,0,0,0-1.52,0l-.77.77a1.07,1.07,0,0,0,0,1.52l.77.77a1.07,1.07,0,0,0,1.52,0ZM68.27,69l-.78-.79-.73-.72a1.07,1.07,0,0,0-1.52,0l-.77.77a1.07,1.07,0,0,0,0,1.52l.77.77a1.07,1.07,0,0,0,1.52,0l.77-.77A10.74,10.74,0,0,0,68.27,69Zm1.49-4.51L69,63.71h0l-.76.77-.76.76a1.07,1.07,0,0,0,0,1.52l.72.73.79.78a10.74,10.74,0,0,0,.78-.74l.77-.77a1.07,1.07,0,0,0,0-1.52Zm0-6L69,57.71h0l-.76.76-.76.76a1.07,1.07,0,0,0,0,1.52l.73.73.76.76,0,0a10.74,10.74,0,0,0,.78-.74l.77-.77a1.07,1.07,0,0,0,0-1.52Zm0-6L69,51.71l-.77.77-.75.76a1.07,1.07,0,0,0,0,1.52l.73.73.76.77,0,0s.36-.33.78-.75l.77-.77a1.07,1.07,0,0,0,0-1.52Zm0-6c-.42-.42-.76-.76-.77-.75h0l-.76.77-.75.75a1.07,1.07,0,0,0,0,1.52l.73.74.77.76v0s.36-.33.78-.75l.77-.77a1.07,1.07,0,0,0,0-1.52Zm0-6c-.42-.42-.76-.76-.77-.75h0l-.76.76-.75.75a1.07,1.07,0,0,0,0,1.52l.74.74.76.76,0,0s.35-.33.77-.75l.77-.77a1.07,1.07,0,0,0,0-1.52Zm0-6c-.42-.42-.77-.76-.77-.75h0s-.35.35-.77.77l-.74.74a1.07,1.07,0,0,0,0,1.52l.74.75.77.76h0s.35-.33.77-.75l.77-.77a1.07,1.07,0,0,0,0-1.52Zm0-6c-.42-.42-.77-.76-.77-.75l0,0-.76.76-.74.74a1.07,1.07,0,0,0,0,1.52l.75.75.76.76h0s.35-.33.77-.75l.77-.77a1.07,1.07,0,0,0,0-1.52Zm0-6c-.42-.42-.77-.76-.78-.75v0l-.77.76-.73.74a1.07,1.07,0,0,0,0,1.52l.75.75.76.77h0l.77-.76.77-.77a1.07,1.07,0,0,0,0-1.52Zm0-6a10.74,10.74,0,0,0-.78-.74h0l-.76.77-.73.73a1.07,1.07,0,0,0,0,1.52l.77.77a1.07,1.07,0,0,0,1.52,0l.77-.77a1.07,1.07,0,0,0,0-1.52Zm0-6A10.74,10.74,0,0,0,69,9.73l0,0-.76.76-.73.73a1.07,1.07,0,0,0,0,1.52l.76.76.76.76h0l.77-.76.77-.77a1.07,1.07,0,0,0,0-1.52ZM69,3.75l-.77.76-.72.73a1.07,1.07,0,0,0,0,1.52l.76.76.76.77h0l.76-.76.77-.77a1,1,0,0,0,.14-1.38L69.52,4.23a5,5,0,0,0-.54-.5Zm-4.49,0,.77.77a1.07,1.07,0,0,0,1.52,0l.77-.77L68.29,3h0l-.76-.77-.77-.76a1.07,1.07,0,0,0-1.52,0l-.77.77A1.07,1.07,0,0,0,64.47,3.76Zm-2.23.71-.77.77a1.07,1.07,0,0,0,0,1.52l.77.77a1.07,1.07,0,0,0,1.52,0l.77-.77a1.07,1.07,0,0,0,0-1.52l-.77-.77A1.07,1.07,0,0,0,62.24,4.47Zm-3.77-.71.77.77a1.07,1.07,0,0,0,1.52,0l.77-.77a1.07,1.07,0,0,0,0-1.52l-.77-.77a1.07,1.07,0,0,0-1.52,0l-.77.77A1.07,1.07,0,0,0,58.47,3.76Zm-2.23.71-.77.77a1.07,1.07,0,0,0,0,1.52l.77.77a1.07,1.07,0,0,0,1.52,0l.77-.77a1.07,1.07,0,0,0,0-1.52l-.77-.77A1.07,1.07,0,0,0,56.24,4.47Zm-3.77-.71.77.77a1.07,1.07,0,0,0,1.52,0l.77-.77a1.07,1.07,0,0,0,0-1.52l-.77-.77a1.07,1.07,0,0,0-1.52,0l-.77.77A1.07,1.07,0,0,0,52.47,3.76Zm-2.23.71-.77.77a1.07,1.07,0,0,0,0,1.52l.77.77a1.07,1.07,0,0,0,1.52,0l.77-.77a1.07,1.07,0,0,0,0-1.52l-.77-.77A1.07,1.07,0,0,0,50.24,4.47Zm-3.77-.71.77.77a1.07,1.07,0,0,0,1.52,0l.77-.77a1.07,1.07,0,0,0,0-1.52l-.77-.77a1.07,1.07,0,0,0-1.52,0l-.77.77A1.07,1.07,0,0,0,46.47,3.76Zm-2.23.71-.77.77a1.07,1.07,0,0,0,0,1.52l.77.77a1.07,1.07,0,0,0,1.52,0l.77-.77a1.07,1.07,0,0,0,0-1.52l-.77-.77A1.07,1.07,0,0,0,44.24,4.47Zm-3.77-.71.77.77a1.07,1.07,0,0,0,1.52,0l.77-.77a1.07,1.07,0,0,0,0-1.52l-.77-.77a1.07,1.07,0,0,0-1.52,0l-.77.77A1.07,1.07,0,0,0,40.47,3.76Zm-2.23.71-.77.77a1.07,1.07,0,0,0,0,1.52l.77.77a1.07,1.07,0,0,0,1.52,0l.77-.77a1.07,1.07,0,0,0,0-1.52l-.77-.77A1.07,1.07,0,0,0,38.24,4.47Zm-3.77-.71.77.77a1.07,1.07,0,0,0,1.52,0l.77-.77a1.07,1.07,0,0,0,0-1.52l-.77-.77a1.07,1.07,0,0,0-1.52,0l-.77.77A1.07,1.07,0,0,0,34.47,3.76Zm-2.23.71-.77.77a1.07,1.07,0,0,0,0,1.52l.77.77a1.07,1.07,0,0,0,1.52,0l.77-.77a1.07,1.07,0,0,0,0-1.52l-.77-.77A1.07,1.07,0,0,0,32.24,4.47Zm-3.77-.71.77.77a1.07,1.07,0,0,0,1.52,0l.77-.77a1.07,1.07,0,0,0,0-1.52l-.77-.77a1.07,1.07,0,0,0-1.52,0l-.77.77A1.07,1.07,0,0,0,28.47,3.76Zm-2.23.71-.77.77a1.07,1.07,0,0,0,0,1.52l.77.77a1.07,1.07,0,0,0,1.52,0l.77-.77a1.07,1.07,0,0,0,0-1.52l-.77-.77A1.07,1.07,0,0,0,26.24,4.47Zm-3.77-.71.77.77a1.07,1.07,0,0,0,1.52,0l.77-.77a1.07,1.07,0,0,0,0-1.52l-.77-.77a1.07,1.07,0,0,0-1.52,0l-.77.77A1.07,1.07,0,0,0,22.47,3.76Zm-3,1.48a1.07,1.07,0,0,0,0,1.52l.77.77a1.07,1.07,0,0,0,1.52,0l.77-.77a1.07,1.07,0,0,0,0-1.52l-.77-.77a1.07,1.07,0,0,0-1.52,0Zm-3-1.48.77.77a1.07,1.07,0,0,0,1.52,0l.77-.77a1.07,1.07,0,0,0,0-1.52l-.77-.77a1.07,1.07,0,0,0-1.52,0l-.77.77A1.07,1.07,0,0,0,16.47,3.76Zm-2.23.71-.77.77a1.07,1.07,0,0,0,0,1.52l.77.77a1.07,1.07,0,0,0,1.52,0l.77-.77a1.07,1.07,0,0,0,0-1.52l-.77-.77A1.07,1.07,0,0,0,14.24,4.47Zm-3.77-.71.77.77a1.07,1.07,0,0,0,1.52,0l.77-.77a1.07,1.07,0,0,0,0-1.52l-.77-.77a1.07,1.07,0,0,0-1.52,0l-.77.77A1.07,1.07,0,0,0,10.47,3.76Zm-3,1.48a1.07,1.07,0,0,0,0,1.52l.77.77a1.07,1.07,0,0,0,1.52,0l.77-.77a1.07,1.07,0,0,0,0-1.52l-.77-.77a1.07,1.07,0,0,0-1.52,0ZM3.73,3l.78.79.73.72a1.07,1.07,0,0,0,1.52,0l.77-.77a1.07,1.07,0,0,0,0-1.52l-.77-.77a1.07,1.07,0,0,0-1.52,0l-.77.77A10.74,10.74,0,0,0,3.73,3ZM2.24,7.53,3,8.29H3l.77-.77.76-.76a1.07,1.07,0,0,0,0-1.52l-.72-.73L3,3.73a10.74,10.74,0,0,0-.78.74l-.77.77a1.07,1.07,0,0,0,0,1.52Zm0,6,.76.76H3l.76-.76.76-.76a1.07,1.07,0,0,0,0-1.52l-.73-.73L3,9.75l0,0a10.74,10.74,0,0,0-.78.74l-.77.77a1.07,1.07,0,0,0,0,1.52Zm0,6,.77.76H3l.77-.76.75-.76a1.07,1.07,0,0,0,0-1.52l-.73-.73L3,15.74H3a10.74,10.74,0,0,0-.78.74l-.77.77a1.07,1.07,0,0,0,0,1.52Zm-.1,5.91.1.09.77.76H3l.76-.77.75-.75a1.07,1.07,0,0,0,0-1.52l-.74-.74L3,21.74l0,0s-.35.33-.77.75l-.77.77c-.42.42-.61.91-.43,1.1S1.72,25,2.14,25.44Zm.1,6.09c.42.42.76.76.77.75H3l.76-.76.75-.75a1.07,1.07,0,0,0,0-1.52l-.74-.74L3,27.74l0,0s-.35.33-.77.75l-.77.77a1.07,1.07,0,0,0,0,1.52Zm0,6c.42.42.76.76.77.75H3l.77-.76.74-.75a1.07,1.07,0,0,0,0-1.52l-.74-.74L3,33.73H3s-.35.33-.77.75l-.77.77a1.07,1.07,0,0,0,0,1.52Zm0,6c.42.42.77.76.77.75l.78-.78.74-.74a1.07,1.07,0,0,0,0-1.52l-.75-.75L3,39.73H3s-.35.33-.77.75l-.77.77a1.07,1.07,0,0,0,0,1.52Zm0,6c.42.42.77.76.77.75l0,0,.76-.76.74-.74a1.07,1.07,0,0,0,0-1.52l-.75-.75L3,45.72H3s-.35.33-.77.75l-.77.77a1.07,1.07,0,0,0,0,1.52Zm0,6c.42.42.77.75.78.75v0l.77-.77.73-.73a1.07,1.07,0,0,0,0-1.52l-.75-.76L3,51.72H3l-.77.76-.77.77a1.07,1.07,0,0,0,0,1.52Zm0,6a10.74,10.74,0,0,0,.78.74l0,0,.76-.76.73-.73a1.07,1.07,0,0,0,0-1.52l-.76-.76L3,57.72H3l-.76.76-.77.77a1.07,1.07,0,0,0,0,1.52Zm1.52,6,.77-.77a1.07,1.07,0,0,0,0-1.52l-.76-.76L3,63.71H3l-.76.76-.77.77a1.07,1.07,0,0,0,0,1.52l.77.77A1.07,1.07,0,0,0,3.76,67.53Zm3.77.71-.77-.77a1.07,1.07,0,0,0-1.52,0l-.73.72L3.75,69l0,0a10.74,10.74,0,0,0,.74.78l.77.77a1.07,1.07,0,0,0,1.52,0l.77-.77A1.07,1.07,0,0,0,7.53,68.24Zm2.23-.71.77-.77a1.07,1.07,0,0,0,0-1.52l-.77-.77a1.07,1.07,0,0,0-1.52,0l-.77.77a1.07,1.07,0,0,0,0,1.52l.77.77A1.07,1.07,0,0,0,9.76,67.53Zm3.77.71-.77-.77a1.07,1.07,0,0,0-1.52,0l-.77.77a1.07,1.07,0,0,0,0,1.52l.77.77a1.07,1.07,0,0,0,1.52,0l.77-.77A1.07,1.07,0,0,0,13.53,68.24Zm2.23-.71.77-.77a1.07,1.07,0,0,0,0-1.52l-.77-.77a1.07,1.07,0,0,0-1.52,0l-.77.77a1.07,1.07,0,0,0,0,1.52l.77.77A1.07,1.07,0,0,0,15.76,67.53Zm3.77.71-.77-.77a1.07,1.07,0,0,0-1.52,0l-.77.77a1.07,1.07,0,0,0,0,1.52l.77.77a1.07,1.07,0,0,0,1.52,0l.77-.77A1.07,1.07,0,0,0,19.53,68.24Zm2.23-.71.77-.77a1.07,1.07,0,0,0,0-1.52l-.77-.77a1.07,1.07,0,0,0-1.52,0l-.77.77a1.07,1.07,0,0,0,0,1.52l.77.77A1.07,1.07,0,0,0,21.76,67.53Zm3.77.71-.77-.77a1.07,1.07,0,0,0-1.52,0l-.77.77a1.07,1.07,0,0,0,0,1.52l.77.77a1.07,1.07,0,0,0,1.52,0l.77-.77A1.07,1.07,0,0,0,25.53,68.24Zm2.23-.71.77-.77a1.07,1.07,0,0,0,0-1.52l-.77-.77a1.07,1.07,0,0,0-1.52,0l-.77.77a1.07,1.07,0,0,0,0,1.52l.77.77A1.07,1.07,0,0,0,27.76,67.53Zm3.77.71-.77-.77a1.07,1.07,0,0,0-1.52,0l-.77.77a1.07,1.07,0,0,0,0,1.52l.77.77a1.07,1.07,0,0,0,1.52,0l.77-.77A1.07,1.07,0,0,0,31.53,68.24Zm2.23-.71.77-.77a1.07,1.07,0,0,0,0-1.52l-.77-.77a1.07,1.07,0,0,0-1.52,0l-.77.77a1.07,1.07,0,0,0,0,1.52l.77.77A1.07,1.07,0,0,0,33.76,67.53Zm1.48,3a1.07,1.07,0,0,0,1.52,0l.77-.77a1.07,1.07,0,0,0,0-1.52l-.77-.77a1.07,1.07,0,0,0-1.52,0l-.77.77a1.07,1.07,0,0,0,0,1.52Z"/></pattern></defs><title>team</title><g id="Layer_1" data-name="Layer 1"><rect class="cls-3" width="400" height="400"/><rect class="cls-4" x="120.06" y="229.71" width="354" height="13.37" rx="1.41" ry="1.41"/><rect class="cls-4" x="149.99" y="229.9" width="20" height="171"/><path class="cls-3" d="M120.19,231.12a1.41,1.41,0,0,1,1.41-1.41H472.78a1.42,1.42,0,0,1,1.41,1.41Z"/><path class="cls-3" d="M474.19,241.67a1.41,1.41,0,0,1-1.41,1.41H121.6a1.41,1.41,0,0,1-1.41-1.41Z"/><rect class="cls-4" x="141.83" y="54.9" width="117" height="187" transform="translate(348.73 -51.94) rotate(90)"/><rect class="cls-5" x="151.83" y="64.9" width="97" height="167" transform="translate(348.73 -51.94) rotate(90)"/><rect class="cls-4" x="188.33" y="206.9" width="24" height="18"/><rect class="cls-4" x="158.19" y="223.71" width="84" height="6"/><rect class="cls-4" x="335.3" y="54.9" width="117" height="187" transform="translate(542.19 -245.4) rotate(90)"/><rect class="cls-5" x="345.3" y="64.9" width="97" height="167" transform="translate(542.19 -245.4) rotate(90)"/><rect class="cls-4" x="381.8" y="206.9" width="24" height="18"/><rect class="cls-4" x="350.81" y="223.71" width="84" height="6"/><rect class="cls-4" x="250.99" y="220.71" width="7" height="7"/><rect class="cls-4" x="260.1" y="220.71" width="7" height="7"/><rect class="cls-4" x="269.21" y="220.71" width="7" height="7"/><rect class="cls-4" x="278.32" y="220.71" width="7" height="7"/><rect class="cls-4" x="287.43" y="220.71" width="7" height="7"/><rect class="cls-4" x="296.54" y="220.71" width="7" height="7"/><rect class="cls-4" x="305.65" y="220.71" width="7" height="7"/><rect class="cls-4" x="314.77" y="220.71" width="7" height="7"/><rect class="cls-4" x="323.88" y="220.71" width="7" height="7"/><rect class="cls-4" x="332.99" y="220.71" width="7" height="7"/><rect class="cls-4" x="246.99" y="223.71" width="96" height="6"/><path class="cls-6" d="M79.4,408.33l1.8-9c.11-.55,10.92-56.62-4.44-121.44-4.22-17.79-1.43-33.55,8.08-45.57,11.71-14.82,33.85-23.66,59.22-23.66H265.17c25.36,0,47.5,8.84,59.21,23.66,9.51,12,12.3,27.78,8.08,45.57-15.4,65-4.55,120.89-4.44,121.44l1.8,9Z"/><path class="cls-2" d="M265.17,216.19c33.08,0,70.25,16.75,60,60-16,67.34-4.5,124.64-4.5,124.64H88.55s11.47-57.3-4.49-124.64c-10.26-43.25,26.91-60,60-60H265.17m0-15H144.06a104.52,104.52,0,0,0-35,5.81C96.31,211.61,86.17,218.57,79,227.7c-7.65,9.68-15.51,26.55-9.49,51.95,15,63.08,4.49,117.72,4.38,118.26l-3.53,17.91H339l-3.59-17.94c-.11-.52-10.57-55.16,4.38-118.24,6-25.4-1.84-42.27-9.49-51.95-7.22-9.13-17.36-16.09-30.13-20.7a104.5,104.5,0,0,0-35-5.81Z"/></g><g id="Layer_2" data-name="Layer 2"><path class="cls-7" d="M96.09,400V319.54c0-9.44,7.06-17,15.85-17H296.06c8.79,0,15.85,7.59,15.85,17V400Z"/><path class="cls-8" d="M90.5,317.57V262.42c0-9.44,7.06-17,15.85-17h195.3c8.79,0,15.85,7.58,15.85,17v55.15Z"/><path class="cls-9" d="M127.21,400V255.28c0-9.45,7.06-17,15.85-17h119.6c8.79,0,15.85,7.58,15.85,17V400"/><path class="cls-8" d="M202.86,287.9c-25.48,0-46.22-22.27-46.22-49.65h18.62c0,16.35,12.38,29.65,27.6,29.65s27.61-13.3,27.61-29.65h18.62C249.09,265.63,228.35,287.9,202.86,287.9Z"/><path class="cls-10" d="M239.78,238.25c0,21.9-16.53,39.65-36.92,39.65S166,260.15,166,238.25"/><path class="cls-10" d="M304.45,124.25l-5.86-37.7c-1.86-12.1-6.33-22-9.87-22s-6.42,9.9-6.42,22.2v9.8c0,12.2-9.13,20.9-20.49,20.9h-9.12c-.65,0-1.12,1.4-3,1.4v27c1.86,0,2.33.6,3,.6h34.45C298.59,146.45,306.31,136.35,304.45,124.25Z"/><path class="cls-10" d="M102.53,124.25l5.77-37.7c1.86-12.1,6.61-22,10.06-22s6.7,10,6.7,22.2v9.8c0,12.2,8.66,20.9,20,20.9h9.13c.65,0,1.58,1.4,2.51,1.4v27c-.93,0-1.86.6-2.51.6H119.75C108.4,146.45,100.67,136.35,102.53,124.25Z"/><path class="cls-11" d="M165.09,152.45c-8.21,0-14.9-7.18-14.9-16v-35c0-8.82,6.69-16,14.9-16h45.62c8.21,0,14.89,7.18,14.89,16v35c0,8.82-6.68,16-14.89,16Z"/><path class="cls-11" d="M233,148.45c-8.21,0-14.89-7.18-14.89-16v-31c0-8.82,6.68-16,14.89-16h9.27c8.21,0,14.89,7.18,14.89,16v31c0,8.82-6.68,16-14.89,16Z"/><path class="cls-7" d="M252.6,241.45c0,6.1-4.56,11-10.24,11H165.09c-5.68,0-10.24-4.9-10.24-11v-139c0-6.1,4.56-11,10.24-11h77.27c5.68,0,10.24,4.9,10.24,11Z"/><path class="cls-11" d="M154.12,91.45v37c8.16-37,18,8.51,66.78-27,28,0,16.71,37.06,31.7,42.51V91.45Z"/><path class="cls-11" d="M220.31,95.14c22.92,17.37,6.35,18,15.68,31.74h0C233.57,113.52,241.93,106.76,220.31,95.14Z"/><path class="cls-12" d="M237.75,163.4a1.94,1.94,0,0,1-1.82,1.43,2,2,0,0,1-1.92-2.06,2.07,2.07,0,0,1,1-1.77,6,6,0,0,0-2.45-.52,6.89,6.89,0,1,0,6.41,6.87A7.22,7.22,0,0,0,237.75,163.4Z"/><path class="cls-12" d="M179.7,163.4a1.93,1.93,0,0,1-1.82,1.43,2,2,0,0,1-1.92-2.06,2.1,2.1,0,0,1,.95-1.77,5.9,5.9,0,0,0-2.44-.52,6.89,6.89,0,1,0,6.4,6.87A7.14,7.14,0,0,0,179.7,163.4Z"/><path class="cls-13" d="M161.46,339.48c0-1.35-1.56-.76-1.56-1.9,0-.72.74-.88,1.26-.88s.83,0,1.25,0c2.44,0,3.92-.25,4.62-.25,2.29,0,4.5,1.43,4.5,4.14s-2.12,4.14-4.46,4.14c-.51,0-1-.09-1.47-.09-.2,0-.26.09-.26.29V346c0,2.26,1.27,1.32,1.27,2.37s-2.42,1.23-3.18,1.23-3.19,0-3.19-1.2c0-1,1.22-.38,1.22-1.86Zm4.51-.87c-.65,0-.63.22-.63.58v2.71c0,.38-.16.8.75.8,1.11,0,1.55-.9,1.55-2S167.1,338.61,166,338.61Z"/><path class="cls-13" d="M173.29,340.49c0-2.8-1.28-1.64-1.28-2.76s1.31-1.12,2-1.12c.36,0,.69,0,1,.05a8.74,8.74,0,0,0,1,.07c.54,0,1.08,0,1.64-.07s1.09-.05,1.63-.05c1.9,0,4.1.9,4.1,3.31a2.87,2.87,0,0,1-1.43,2.62c-.15.09-.26.14-.26.36s.21.34.42.43c1.17.47,1.7,1.3,1.93,3.26.2,1.68,1.3.67,1.3,1.77,0,.69-.78,1.41-2.68,1.41-2.69,0-3-1.66-3.55-4-.19-.83-.47-1.65-1.4-1.65-.37,0-.5.06-.5,1.2a11.35,11.35,0,0,0,.12,1.75c.13.83,1,.58,1,1.45,0,.65-.42,1.14-3.15,1.14-.81,0-3.2,0-3.2-1.32,0-.94,1.27-.29,1.27-2.64Zm3.9.8c0,.47-.12.87.44.87,1.09,0,1.45-.65,1.45-1.77,0-.89-.21-1.79-1.18-1.79-.63,0-.61.41-.64,1Z"/><path class="cls-13" d="M192.7,336.73a8.08,8.08,0,0,0,2.84-.36c1,0,1.37,1.77,1.37,2.57,0,.6-.22,1.3-.88,1.3-1.33,0-.25-1.73-3.45-1.73-1.87,0-1.68.36-1.68,2.44,0,1.05,0,1.08,1.08,1.08,1.27,0,.31-2,1.51-2,1,0,1,2.05,1,2.75s-.11,2.91-1.12,2.91,0-1.89-1.7-1.89c-.71,0-.69.68-.69,1.26,0,2.64.16,2.51,1.93,2.51,3.45,0,2.48-2.55,3.86-2.55.54,0,.8.66.8,1.16,0,1.23-.9,3.44-1.58,3.44-.12,0-.39-.06-.74-.11a12.51,12.51,0,0,0-1.41-.09H187c-1.11,0-1.13-.54-1.13-.78,0-1,1.15-.2,1.26-2.12a34.14,34.14,0,0,0,0-6.23c-.11-2.77-1.39-1.34-1.39-2.62,0-1.11,1.41-.93,2.1-.93Z"/><path class="cls-13" d="M206.12,336.73a5.81,5.81,0,0,0,1.31-.12,2,2,0,0,1,.69-.13c.66,0,2,1.39,2,3.35,0,.9-.43,1.5-1.29,1.5-1.47,0-1.45-2.14-2.31-2.14-.66,0-.59,1-.59,1.12v5.55c0,2.15,1.55,1.12,1.55,2.39,0,.56-.32,1.36-3.47,1.36-.86,0-4,0-4-1.36,0-1,1-.58,1.38-1.27a7.86,7.86,0,0,0,.25-1.91l.13-4c.07-1.9-.28-1.88-.52-1.88-.76,0-1.13,2.14-2.49,2.14a1.18,1.18,0,0,1-1-1.31c0-1.53,1.21-3.54,2.17-3.54a4.57,4.57,0,0,1,.62.13,8.7,8.7,0,0,0,1.45.12Z"/><path class="cls-13" d="M217.27,345.09a7.07,7.07,0,0,0-.74,1.64c0,.44.91.42,1.16.42,2.94,0,2-2.39,3.27-2.39.84,0,1.21.54,1.21,1.39,0,2-1.11,3.42-1.7,3.42-.09,0-.41,0-.76-.09s-.74-.07-1-.07h-7.1c-.57,0-1.19.16-1.19-.69a1.91,1.91,0,0,1,.35-.9l4.24-7.74a2,2,0,0,0,.3-.69c0-.47-.69-.52-1.11-.52-2.12,0-1.6,2.44-2.79,2.44-.69,0-1.16-.85-1.16-1.54,0-1.37,1.16-3.25,1.56-3.25.09,0,.2.05.54.12a13.74,13.74,0,0,0,2,.09c.73,0,2,0,3.27-.1s2.39-.15,2.79-.15a.83.83,0,0,1,.86.89,3,3,0,0,1-.4,1Z"/><path class="cls-13" d="M229.48,336.73a8.15,8.15,0,0,0,2.84-.36c1,0,1.37,1.77,1.37,2.57,0,.6-.22,1.3-.88,1.3-1.33,0-.25-1.73-3.45-1.73-1.87,0-1.68.36-1.68,2.44,0,1.05,0,1.08,1.07,1.08,1.28,0,.32-2,1.52-2,1,0,1,2.05,1,2.75s-.11,2.91-1.12,2.91,0-1.89-1.71-1.89c-.7,0-.68.68-.68,1.26,0,2.64.16,2.51,1.93,2.51,3.45,0,2.48-2.55,3.86-2.55.53,0,.8.66.8,1.16,0,1.23-.91,3.44-1.58,3.44-.12,0-.39-.06-.74-.11a12.51,12.51,0,0,0-1.41-.09h-6.92c-1.11,0-1.13-.54-1.13-.78,0-1,1.15-.2,1.26-2.12a34.14,34.14,0,0,0,0-6.23c-.11-2.77-1.39-1.34-1.39-2.62,0-1.11,1.41-.93,2.1-.93Z"/><path class="cls-13" d="M236.39,349.41c-.54,0-1.4,0-1.4-.8,0-1.12,1.31-.18,1.36-2.28,0-1.32,0-2.47,0-3.54s-.09-2.1-.12-3.11c0-1.52-1.52-.72-1.52-1.75,0-1.32,2.65-1.39,3.47-1.39,3.37,0,3.53.61,3.53,1.22,0,1.05-1.32.26-1.32,2v5.75c0,1.3.2,1.93,1.39,1.93,2.86,0,1.89-2.51,3-2.51.76,0,1.05.87,1.05,1.55,0,1.41-1,3.22-1.72,3.22a4.07,4.07,0,0,1-.84-.13,5.62,5.62,0,0,0-1.26-.12Z"/><path class="cls-13" d="M184.24,355.62c0-1.86-1.23-1-1.23-2.13,0-.84,1-1,1.57-1h5.49c4.67,0,6.2,3.11,6.2,6.36s-1.83,6.53-6.09,6.53c-.72,0-1.33,0-1.85-.06l-1.45,0c-.47,0-1,0-1.43,0s-.94.06-1.43.06-1.29-.31-1.29-1c0-1.31,1.33.14,1.38-2.5Zm4,6.62c0,.92.14,1.3,1,1.3,2.13,0,2.5-2.34,2.5-4.14,0-4.23-1.49-4.9-2.78-4.9-.71,0-.76.3-.76,1Z"/><path class="cls-13" d="M200.12,358.8a12.05,12.05,0,0,0,1.21-4.27c0-1.24.54-2.18,2-2.18s2.39,1.6,3,2.8c.28.52,2.82,6.05,3.43,7.54s1.46.54,1.46,1.57c0,1.32-2.39,1.27-3.23,1.27-2.41,0-3.85,0-3.85-1.14,0-.87,1-.55,1-1.18,0-.81-.42-.88-3.13-.88-.87,0-1.39,0-1.39.92,0,.7,1.07.23,1.07,1.17s-1.81,1.11-2.49,1.11c-2.4,0-2.62-.49-2.62-1.07,0-.85.91-.6,1.39-1.25a10,10,0,0,0,1-1.93Zm3.53,1.3c.17,0,.68,0,.68-.23a6.88,6.88,0,0,0-.62-1.47c-.16-.29-.44-1-.81-1s-.69,1.09-.76,1.29a6.32,6.32,0,0,0-.35,1.12c0,.31.42.25.6.25Z"/><path class="cls-13" d="M218.88,357.43a3.73,3.73,0,0,0-.79,2.8,8.45,8.45,0,0,0,.23,2.73c.24.52,1.13.41,1.13,1.26,0,1.31-2.66,1.31-3.48,1.31-3.3,0-3.74-.82-3.74-1.31,0-1,1-.61,1.26-1.35a9.43,9.43,0,0,0,.27-3,3,3,0,0,0-.74-2.19l-1.9-2.37c-.83-1-1.92-.74-1.92-1.63,0-.41-.12-1.23,3.8-1.23,3.5,0,3.47.71,3.47,1.11s-.47.65-.47,1,.67,1.53,1.09,1.53,1.15-.95,1.15-1.37-.49-.54-.49-1.23c0-1.07,1.95-1.07,2.59-1.07,2.1,0,2.66.28,2.66,1.07,0,1.16-1.21.49-2.05,1.47Z"/><path class="cls-13" d="M174.44,310.63c0-5.82-.43-7.15-.9-7.8-1-1.33-2.65-1.46-2.65-3.21,0-3.3,8.72-3.3,9.57-3.3,2.56,0,7.81.09,7.81,3.21,0,1.65-1.62,1.56-2.6,2.75-.81,1-.85,5.14-.85,8.35v4.54c0,8.17.51,8,1.36,8.54,1.07.68,2.09.91,2.09,2.33s-.38,3.45-9.73,3.45c-1.8,0-7.18-.05-7.18-3,0-1.46,1.46-1.7,2.14-2.57.51-.64.94-2.33.94-8.76Z"/><path class="cls-14" d="M224.16,329.49a2.72,2.72,0,0,1-2.61-2.81c0-.26,0-.52,0-.8a21.5,21.5,0,0,1-7.11,1.18,20.8,20.8,0,0,1-6.6-1c0,.23,0,.45,0,.66a2.62,2.62,0,1,1-5.22,0,23.52,23.52,0,0,1,.23-3.16,19.65,19.65,0,0,1-8.46-15.8,12.06,12.06,0,0,1,2.66-8,10.08,10.08,0,0,1,8-3.44,16.76,16.76,0,0,1,10.45,3.61c2.88-2.35,5.88-3.61,8.76-3.61a10,10,0,0,1,7.94,3.41,11.92,11.92,0,0,1,2.65,7.91,19.66,19.66,0,0,1-8.23,15.61c.11,1.18.17,2.33.17,3.43A2.72,2.72,0,0,1,224.16,329.49Zm-15.35-9a16,16,0,0,0,5.62,1,16.46,16.46,0,0,0,6.41-1.23,31.73,31.73,0,0,0-5.36-12.62,31.75,31.75,0,0,0-2.16,3A38.91,38.91,0,0,0,208.81,320.49ZM205,301.92c-4.75,0-5.46,3.64-5.46,5.8a14.14,14.14,0,0,0,4.61,9.94A45,45,0,0,1,209,307.43a35.8,35.8,0,0,1,2.55-3.54A11.68,11.68,0,0,0,205,301.92Zm14.33,1.9A35.66,35.66,0,0,1,225.52,317a14,14,0,0,0,4.09-9.4c0-2.14-.69-5.72-5.37-5.72A8.57,8.57,0,0,0,219.36,303.82Z"/><path class="cls-15" d="M226.12,202.41a29,29,0,0,1-45.25,0"/><line class="cls-15" x1="179.06" y1="204.21" x2="182.67" y2="200.6"/><line class="cls-15" x1="224.31" y1="200.6" x2="227.92" y2="204.21"/></g><g id="Layer_3" data-name="Layer 3"><rect class="cls-16" x="1.56" y="358.99" width="398.44" height="41.01"/><path class="cls-7" d="M116.09,380.43h84.63v-19a11.06,11.06,0,0,0-11-11H96.09"/><path class="cls-7" d="M133.52,350.4H96.09v19a11.06,11.06,0,0,0,11,11h26.4"/><path class="cls-7" d="M291.91,380.54H207.28v-19a11.06,11.06,0,0,1,11-11h93.6"/><path class="cls-7" d="M274.48,350.51h37.43v19a11.06,11.06,0,0,1-11,11h-26.4"/><rect class="cls-2" x="142.78" y="378.84" width="9.69" height="9.69"/><rect class="cls-2" x="155.4" y="378.84" width="9.69" height="9.69"/><rect class="cls-2" x="168.02" y="378.84" width="9.69" height="9.69"/><rect class="cls-2" x="180.64" y="378.84" width="9.69" height="9.69"/><rect class="cls-2" x="193.26" y="378.84" width="9.69" height="9.69"/><rect class="cls-2" x="205.88" y="378.84" width="9.69" height="9.69"/><rect class="cls-2" x="218.5" y="378.84" width="9.69" height="9.69"/><rect class="cls-2" x="231.12" y="378.84" width="9.69" height="9.69"/><rect class="cls-2" x="243.74" y="378.84" width="9.69" height="9.69"/><rect class="cls-2" x="256.35" y="378.84" width="9.69" height="9.69"/><rect class="cls-17" x="137.24" y="383" width="132.96" height="8.31"/><polygon class="cls-10" points="127.21 350.4 106.83 350.4 127.21 345.19 127.21 350.4"/><polygon class="cls-10" points="278.51 350.4 298.89 350.4 278.51 345.19 278.51 350.4"/></g></svg>