<svg xmlns="http://www.w3.org/2000/svg" viewBox="0 0 400 400"><defs><style>.cls-1{fill:#ecf0f1}.cls-2{fill:#34495e}.cls-3{fill:#7e8c99}.cls-4{fill:#f15354}.cls-5{fill:#3d3d3d}.cls-6{fill:#f5d9a1}.cls-7{fill:#7b6d51}.cls-8{fill:#d2d5d9}.cls-9{fill:#e67e22}.cls-10{fill:#a5c63b}.cls-11{fill:#27ae60}.cls-12{fill:#78c9cf}.cls-13{fill:#f1c40f}.cls-14{fill:#3498db}.cls-15{fill:#00558b}.cls-16{fill:#e49701}.cls-17{fill:#dee1e3}.cls-18{fill:#bdc3c7}.cls-20{fill:#192938}.cls-33{fill:none;stroke-miterlimit:10}.cls-23{fill:#005b86}.cls-24{fill:#1c2f3f}.cls-25{fill:#8995ad}.cls-26{fill:#a7b9d8}.cls-27{fill:#29373c}.cls-33{stroke:#bdc3c7}</style></defs><g id="Layer_1" data-name="Layer 1"><path class="cls-1" d="M0 0h400v400H0z"/><circle class="cls-2" cx="111.09" cy="67.84" r="33.9"/><circle class="cls-3" cx="111.09" cy="67.84" r="28.8"/><path class="cls-4" d="M110.09 67.84l.63-14.01h.75l.62 14.01h-2z"/><path class="cls-4" d="M110.39 68.55L96.82 54.1l.53-.54 14.45 13.57-1.41 1.42z"/><circle class="cls-2" cx="198.9" cy="68.35" r="33.9"/><circle class="cls-3" cx="198.9" cy="68.35" r="28.8"/><path class="cls-4" d="M198.04 67.84l7.69-11.72.65.38-6.63 12.36-1.71-1.02z"/><path class="cls-4" d="M198.19 69.06l-13.57-14.45.53-.53 14.45 13.56-1.41 1.42z"/><circle class="cls-2" cx="287.1" cy="68.35" r="33.9"/><circle class="cls-3" cx="287.1" cy="68.35" r="28.8"/><path class="cls-4" d="M287.6 67.49l11.77 7.63-.38.65-12.4-6.56 1.01-1.72z"/><path class="cls-4" d="M286.39 69.06l-13.57-14.45.54-.53 14.44 13.56-1.41 1.42z"/><path class="cls-1" d="M110.09 43.07v7c.34 0 .67-.05 1-.05s.67 0 1 .05v-7h-1zM101.21 53a17.62 17.62 0 0 1 1.73-1l-3.51-6c-.59.32-1.17.66-1.73 1zm21.11-7.26l-3.39 6.06a18.5 18.5 0 0 1 1.74 1l3.4-6.07c-.57-.36-1.15-.73-1.75-.99zm9.68 8.71L126 58a17.38 17.38 0 0 1 1 1.73l6-3.52c-.35-.62-.69-1.21-1-1.76zm-3 13.39c0 .34 0 .67-.05 1h7v-2h-7c-.02.33.05.66.05 1zm-35.77 0v-1h-7v2h7c.03-.33 0-.66 0-1zM95.06 60a16.57 16.57 0 0 1 1-1.75L90 54.87c-.35.56-.68 1.15-1 1.74zM121 82.72a15.56 15.56 0 0 1-1.73 1l3.52 6c.59-.32 1.16-.66 1.72-1zm6.13-7.05a16.65 16.65 0 0 1-1 1.75l6.07 3.39c.35-.56.67-1.15 1-1.74zm-15.04 16.94v-7h-2v7h1zm-12.22-2.67l3.39-6.06a20 20 0 0 1-1.75-1L98.12 89c.57.32 1.15.64 1.75.94zm-3.66-12.22a19.5 19.5 0 0 1-1-1.73l-6 3.52c.31.59.65 1.16 1 1.72zM197.9 43.58v7h2v-7h-1zm-8.9 9.89a17.62 17.62 0 0 1 1.73-1l-3.51-6c-.59.32-1.16.66-1.72 1zm21.12-7.22l-3.39 6.06a18.5 18.5 0 0 1 1.74 1l3.4-6.07c-.57-.36-1.15-.69-1.75-.99zm9.64 8.75l-6 3.51a17.38 17.38 0 0 1 1 1.73l6-3.51c-.3-.63-.64-1.21-1-1.73zm-3 13.35v1h6.95v-2h-6.95c-.03.33 0 .65 0 1zm-35.76 0c0-.34 0-.67.05-1h-7v2h7c.01-.35-.05-.66-.05-1zm1.86-7.83a18.58 18.58 0 0 1 1-1.75l-6.06-3.39c-.35.56-.67 1.15-1 1.74zm25.92 22.71a17.62 17.62 0 0 1-1.73 1l3.51 6c.59-.32 1.16-.66 1.72-1zm6.15-7.05a15.63 15.63 0 0 1-1 1.75l6.06 3.4c.35-.57.67-1.16 1-1.75zM199.9 93.12v-7h-2v7h1zm-12.23-2.67l3.39-6.06a18.5 18.5 0 0 1-1.74-1l-3.4 6.07c.57.37 1.15.69 1.75.99zM184 78.23a17.38 17.38 0 0 1-1-1.73l-6 3.5c.31.59.65 1.16 1 1.72zm102.1-34.65v7h2v-7h-1zm-8.88 9.89a16.38 16.38 0 0 1 1.72-1l-3.51-6c-.59.32-1.16.66-1.72 1zm21.1-7.22l-3.39 6.06a20 20 0 0 1 1.75 1l3.39-6.07c-.57-.36-1.15-.69-1.75-.99zM308 55l-6 3.51a19.5 19.5 0 0 1 1 1.73l6-3.51c-.34-.63-.68-1.21-1-1.73zm-3 13.35v1h6.95v-2H305c-.07.33 0 .65 0 1zm-35.77 0v-1h-6.95v2h6.95c.03-.35 0-.66 0-1zm1.83-7.83a18.58 18.58 0 0 1 1-1.75L266 55.38c-.35.56-.67 1.15-1 1.74zM297 83.23a17.62 17.62 0 0 1-1.73 1l3.51 6c.59-.32 1.16-.66 1.72-1zm6.13-7.05a15.63 15.63 0 0 1-1 1.75l6.06 3.4c.35-.57.67-1.16 1-1.75zM288.1 93.12v-7h-2v7h1zm-12.23-2.67l3.39-6.06a18.5 18.5 0 0 1-1.74-1l-3.4 6.07c.57.37 1.15.69 1.75.99zm-3.65-12.22a17.38 17.38 0 0 1-1-1.73l-6 3.52c.31.59.66 1.16 1 1.72z"/><circle class="cls-5" cx="111.09" cy="67.84" r="2.27"/><circle class="cls-5" cx="198.9" cy="68.35" r="2.27"/><circle class="cls-5" cx="287.1" cy="68.35" r="2.27"/><path class="cls-6" transform="rotate(90 126.155 293.675)" d="M39.33 167.17h173.65v253H39.33z"/><path class="cls-7" d="M9.65 216.85h233V370.5h-233z"/><path class="cls-6" d="M9.65 291.26h233v5h-233z"/><path class="cls-4" d="M13.65 307.15h12v63.35h-12z"/><path class="cls-8" d="M14.78 311.34h9.75v6.08h-9.75z"/><path class="cls-9" d="M66.44 307.15h8.03v63.35h-8.03z"/><path class="cls-10" d="M68.19 311.34h4.56v27.49h-4.56zm0 31.56h4.56v9.08h-4.56z"/><path class="cls-11" d="M47.51 307.15h16v63.35h-16z"/><path class="cls-12" d="M53.89 314.38h3.25v49.03h-3.25z"/><path class="cls-4" transform="rotate(-90 172.905 348.485)" d="M168.89 316.81h8.03v63.35h-8.03z"/><path class="cls-13" transform="rotate(-90 159.165 348.465)" d="M156.88 334.72h4.56v27.49h-4.56z"/><path class="cls-13" transform="rotate(-90 181.515 348.465)" d="M179.24 343.93h4.56v9.08h-4.56z"/><path class="cls-14" d="M28.58 307.15h16v63.35h-16z"/><path class="cls-15" d="M28.58 314.15h16v1.69h-16zm0 2.54h16v1.69h-16zm0 2.53h16v1.69h-16zm0 37.19h16v1.69h-16zm0 2.54h16v1.69h-16zm0 2.53h16v1.69h-16z"/><path class="cls-9" d="M207.51 307.15h12v63.35h-12z"/><path class="cls-13" d="M219.51 317.42l-12 5v-6.08l12-5v6.08zm2.93-10.27h16v63.35h-16z"/><path class="cls-4" d="M223.21 314.15h14.38v1.69h-14.38zm0 9.47h14.38v1.69h-14.38zm0 9.46h14.38v1.69h-14.38zm0 9.47h14.38v1.69h-14.38zm0 9.47h14.38v1.69h-14.38zm0 9.46h14.38v1.69h-14.38z"/><path class="cls-10" transform="rotate(-90 172.905 362.415)" d="M164.91 330.74h16v63.35h-16z"/><path class="cls-14" transform="rotate(90 196.575 362.245)" d="M188.57 361.4h16v1.69h-16z"/><path class="cls-14" transform="rotate(90 194.035 362.245)" d="M186.04 361.4h16v1.69h-16z"/><path class="cls-14" transform="rotate(90 191.5 362.24)" d="M183.5 361.4h16v1.69h-16z"/><path class="cls-14" transform="rotate(90 154.315 362.245)" d="M146.31 361.4h16v1.69h-16z"/><path class="cls-14" transform="rotate(90 151.775 362.245)" d="M143.78 361.4h16v1.69h-16z"/><path class="cls-14" transform="rotate(90 149.24 362.24)" d="M141.24 361.4h16v1.69h-16z"/><path class="cls-13" transform="rotate(-6.48 88.927 338.732)" d="M80.92 306.96h16v63.35h-16z"/><circle class="cls-16" cx="86.38" cy="316.25" r="4.96"/><path class="cls-9" d="M103.38 307.15h16v63.35h-16z"/><path class="cls-13" d="M103.38 356.64h16v1.69h-16zm0 7.61h16v1.69h-16zm0-5.08h16v4.23h-16zm0-48.02h16v1.69h-16zm0 7.61h16v1.69h-16zm0-5.07h16v4.23h-16z"/><path class="cls-14" d="M122.3 307.15h16v63.35h-16z"/><path class="cls-10" d="M125.34 322.11a5 5 0 0 1 9.93 0m-12.97 0h16v1.61h-16zm12.97 33.43a5 5 0 0 1-9.93 0"/><path class="cls-10" transform="rotate(180 130.305 354.735)" d="M122.3 353.93h16v1.61h-16z"/><path class="cls-14" transform="rotate(-180 232.435 258.945)" d="M226.44 227.27h12v63.35h-12z"/><path class="cls-12" transform="rotate(-180 232.435 234.5)" d="M227.56 231.46h9.75v6.08h-9.75z"/><path class="cls-11" transform="rotate(-180 181.635 258.945)" d="M177.62 227.27h8.03v63.35h-8.03z"/><path class="cls-12" transform="rotate(-180 181.62 245.2)" d="M179.34 231.46h4.56v27.49h-4.56z"/><path class="cls-12" transform="rotate(-180 181.62 267.555)" d="M179.34 263.02h4.56v9.08h-4.56z"/><path class="cls-4" transform="rotate(-180 196.58 258.945)" d="M188.58 227.27h16v63.35h-16z"/><path class="cls-12" transform="rotate(-180 196.58 259.015)" d="M194.96 234.5h3.25v49.03h-3.25z"/><path class="cls-14" transform="rotate(-90 79.185 268.605)" d="M75.17 236.93h8.03v63.35h-8.03z"/><path class="cls-15" transform="rotate(-90 92.925 268.585)" d="M90.65 254.84h4.56v27.49h-4.56z"/><path class="cls-15" transform="rotate(-90 70.575 268.585)" d="M68.29 264.05h4.56v9.08h-4.56z"/><path class="cls-13" transform="rotate(-180 215.51 258.945)" d="M207.51 227.27h16v63.35h-16z"/><path class="cls-11" transform="rotate(-180 215.51 235.115)" d="M207.51 234.27h16v1.69h-16z"/><path class="cls-11" transform="rotate(-180 215.51 237.65)" d="M207.51 236.81h16v1.69h-16z"/><path class="cls-11" transform="rotate(-180 215.51 240.19)" d="M207.51 239.34h16v1.69h-16z"/><path class="cls-11" transform="rotate(-180 215.51 277.375)" d="M207.51 276.53h16v1.69h-16z"/><path class="cls-11" transform="rotate(-180 215.51 279.91)" d="M207.51 279.07h16v1.69h-16z"/><path class="cls-11" transform="rotate(-180 215.51 282.45)" d="M207.51 281.6h16v1.69h-16z"/><path class="cls-13" transform="rotate(-180 38.585 258.945)" d="M32.58 227.27h12v63.35h-12z"/><path class="cls-14" d="M32.58 237.54l12 5v-6.08l-12-5v6.08zm0 9.88l12 5v-6.08l-12-5v6.08z"/><path class="cls-10" transform="rotate(-180 21.655 258.945)" d="M13.65 227.27h16v63.35h-16z"/><path class="cls-11" transform="rotate(-180 21.655 235.35)" d="M15.78 234.5h11.75v1.69H15.78z"/><path class="cls-11" transform="rotate(-180 21.655 244.815)" d="M15.78 243.97h11.75v1.69H15.78z"/><path class="cls-11" transform="rotate(-180 21.655 254.285)" d="M15.78 253.44h11.75v1.69H15.78z"/><path class="cls-11" transform="rotate(-180 21.655 263.75)" d="M15.78 262.9h11.75v1.69H15.78z"/><path class="cls-11" transform="rotate(-180 21.655 273.215)" d="M15.78 272.37h11.75v1.69H15.78z"/><path class="cls-11" transform="rotate(-180 21.655 282.68)" d="M15.78 281.84h11.75v1.69H15.78z"/><path class="cls-4" transform="rotate(-90 79.185 282.535)" d="M71.18 250.86h16v63.35h-16z"/><path class="cls-10" transform="rotate(90 55.52 282.36)" d="M47.52 281.52h16v1.69h-16z"/><path class="cls-10" transform="rotate(90 58.055 282.365)" d="M50.05 281.52h16v1.69h-16z"/><path class="cls-10" transform="rotate(90 60.59 282.36)" d="M52.59 281.52h16v1.69h-16z"/><path class="cls-10" transform="rotate(90 97.78 282.36)" d="M89.78 281.52h16v1.69h-16z"/><path class="cls-10" transform="rotate(90 100.315 282.365)" d="M92.31 281.52h16v1.69h-16z"/><path class="cls-10" transform="rotate(90 102.85 282.36)" d="M94.85 281.52h16v1.69h-16z"/><path class="cls-9" transform="rotate(-173.52 163.162 258.755)" d="M155.17 227.08h16v63.35h-16z"/><circle class="cls-8" cx="165.71" cy="236.37" r="4.96"/><path class="cls-11" transform="rotate(-180 140.715 258.945)" d="M132.71 227.27h16v63.35h-16z"/><path class="cls-10" transform="rotate(-180 140.715 277.6)" d="M132.71 276.76h16v1.69h-16z"/><path class="cls-10" transform="rotate(-180 140.715 285.21)" d="M132.71 284.36h16v1.69h-16z"/><path class="cls-10" transform="rotate(-180 140.715 281.405)" d="M132.71 279.29h16v4.23h-16z"/><path class="cls-10" transform="rotate(-180 140.715 232.115)" d="M132.71 231.27h16v1.69h-16z"/><path class="cls-10" transform="rotate(-180 140.715 239.725)" d="M132.71 238.88h16v1.69h-16z"/><path class="cls-10" transform="rotate(-180 140.715 235.92)" d="M132.71 233.81h16v4.23h-16z"/><path class="cls-4" transform="rotate(-180 121.785 258.945)" d="M113.79 227.27h16v63.35h-16z"/><path class="cls-13" d="M126.75 242.23a5 5 0 0 0-9.93 0"/><path class="cls-13" transform="rotate(-180 121.785 243.04)" d="M113.79 242.23h16v1.61h-16z"/><path class="cls-13" d="M116.82 275.66a5 5 0 0 0 9.93 0m-12.96-1.61h16v1.61h-16z"/><path class="cls-6" transform="rotate(90 273.055 293.675)" d="M186.23 167.17h173.65v253H186.23z"/><path class="cls-7" d="M156.56 216.85h233V370.5h-233z"/><path class="cls-6" d="M156.56 291.26h233v5h-233z"/><path class="cls-4" d="M160.56 307.15h12v63.35h-12z"/><path class="cls-8" d="M161.68 311.34h9.75v6.08h-9.75z"/><path class="cls-9" d="M213.34 307.15h8.03v63.35h-8.03z"/><path class="cls-10" d="M215.09 311.34h4.56v27.49h-4.56zm0 31.56h4.56v9.08h-4.56z"/><path class="cls-11" d="M194.41 307.15h16v63.35h-16z"/><path class="cls-12" d="M200.79 314.38h3.25v49.03h-3.25z"/><path class="cls-4" transform="rotate(-90 319.81 348.48)" d="M315.79 316.81h8.03v63.35h-8.03z"/><path class="cls-13" transform="rotate(-90 306.065 348.465)" d="M303.79 334.72h4.56v27.49h-4.56z"/><path class="cls-13" transform="rotate(-90 328.42 348.47)" d="M326.14 343.93h4.56v9.08h-4.56z"/><path class="cls-14" d="M175.49 307.15h16v63.35h-16z"/><path class="cls-15" d="M175.49 314.15h16v1.69h-16zm0 2.54h16v1.69h-16zm0 2.53h16v1.69h-16zm0 37.19h16v1.69h-16zm0 2.54h16v1.69h-16zm0 2.53h16v1.69h-16z"/><path class="cls-9" d="M354.41 307.15h12v63.35h-12z"/><path class="cls-13" d="M366.41 317.42l-12 5v-6.08l12-5v6.08zm2.93-10.27h16v63.35h-16z"/><path class="cls-4" d="M370.11 314.15h14.38v1.69h-14.38zm0 9.47h14.38v1.69h-14.38zm0 9.46h14.38v1.69h-14.38zm0 9.47h14.38v1.69h-14.38zm0 9.47h14.38v1.69h-14.38zm0 9.46h14.38v1.69h-14.38z"/><path class="cls-10" transform="rotate(-90 319.805 362.415)" d="M311.81 330.74h16v63.35h-16z"/><path class="cls-14" transform="rotate(90 343.475 362.245)" d="M335.47 361.4h16v1.69h-16z"/><path class="cls-14" transform="rotate(90 340.94 362.24)" d="M332.94 361.4h16v1.69h-16z"/><path class="cls-14" transform="rotate(90 338.405 362.245)" d="M330.4 361.4h16v1.69h-16z"/><path class="cls-14" transform="rotate(90 301.215 362.245)" d="M293.21 361.4h16v1.69h-16z"/><path class="cls-14" transform="rotate(90 298.68 362.24)" d="M290.68 361.4h16v1.69h-16z"/><path class="cls-14" transform="rotate(90 296.145 362.245)" d="M288.14 361.4h16v1.69h-16z"/><path class="cls-13" transform="rotate(-6.48 235.928 338.725)" d="M227.83 306.96h16v63.35h-16z"/><circle class="cls-16" cx="233.28" cy="316.25" r="4.96"/><path class="cls-9" d="M250.28 307.15h16v63.35h-16z"/><path class="cls-13" d="M250.28 356.64h16v1.69h-16zm0 7.61h16v1.69h-16zm0-5.08h16v4.23h-16zm0-48.02h16v1.69h-16zm0 7.61h16v1.69h-16zm0-5.07h16v4.23h-16z"/><path class="cls-14" d="M269.21 307.15h16v63.35h-16z"/><path class="cls-10" d="M272.25 322.11a5 5 0 1 1 9.92 0m-12.96 0h16v1.61h-16zm12.96 33.43a5 5 0 1 1-9.92 0"/><path class="cls-10" transform="rotate(180 277.205 354.735)" d="M269.21 353.93h16v1.61h-16z"/><path class="cls-14" transform="rotate(-180 379.34 258.945)" d="M373.34 227.27h12v63.35h-12z"/><path class="cls-12" transform="rotate(-180 379.34 234.5)" d="M374.46 231.46h9.75v6.08h-9.75z"/><path class="cls-11" transform="rotate(-180 328.54 258.945)" d="M324.52 227.27h8.03v63.35h-8.03z"/><path class="cls-12" transform="rotate(-180 328.52 245.2)" d="M326.24 231.46h4.56v27.49h-4.56z"/><path class="cls-12" transform="rotate(-180 328.52 267.555)" d="M326.24 263.02h4.56v9.08h-4.56z"/><path class="cls-4" transform="rotate(-180 343.485 258.945)" d="M335.48 227.27h16v63.35h-16z"/><path class="cls-12" transform="rotate(-180 343.485 259.015)" d="M341.86 234.5h3.25v49.03h-3.25z"/><path class="cls-14" transform="rotate(-90 226.085 268.605)" d="M222.07 236.93h8.03v63.35h-8.03z"/><path class="cls-15" transform="rotate(-90 239.825 268.585)" d="M237.55 254.84h4.56v27.49h-4.56z"/><path class="cls-15" transform="rotate(-90 217.475 268.585)" d="M215.2 264.05h4.56v9.08h-4.56z"/><path class="cls-13" transform="rotate(-180 362.41 258.945)" d="M354.41 227.27h16v63.35h-16z"/><path class="cls-11" transform="rotate(-180 362.41 235.115)" d="M354.41 234.27h16v1.69h-16z"/><path class="cls-11" transform="rotate(-180 362.41 237.65)" d="M354.41 236.81h16v1.69h-16z"/><path class="cls-11" transform="rotate(-180 362.41 240.19)" d="M354.41 239.34h16v1.69h-16z"/><path class="cls-11" transform="rotate(-180 362.41 277.375)" d="M354.41 276.53h16v1.69h-16z"/><path class="cls-11" transform="rotate(-180 362.41 279.91)" d="M354.41 279.07h16v1.69h-16z"/><path class="cls-11" transform="rotate(-180 362.41 282.45)" d="M354.41 281.6h16v1.69h-16z"/><path class="cls-13" transform="rotate(-180 185.485 258.945)" d="M179.49 227.27h12v63.35h-12z"/><path class="cls-14" d="M179.49 237.54l12 5v-6.08l-12-5v6.08zm0 9.88l12 5v-6.08l-12-5v6.08z"/><path class="cls-10" transform="rotate(-180 168.555 258.945)" d="M160.56 227.27h16v63.35h-16z"/><path class="cls-11" transform="rotate(-180 168.555 235.35)" d="M162.68 234.5h11.75v1.69h-11.75z"/><path class="cls-11" transform="rotate(-180 168.555 244.815)" d="M162.68 243.97h11.75v1.69h-11.75z"/><path class="cls-11" transform="rotate(-180 168.555 254.285)" d="M162.68 253.44h11.75v1.69h-11.75z"/><path class="cls-11" transform="rotate(-180 168.555 263.75)" d="M162.68 262.9h11.75v1.69h-11.75z"/><path class="cls-11" transform="rotate(-180 168.555 273.215)" d="M162.68 272.37h11.75v1.69h-11.75z"/><path class="cls-11" transform="rotate(-180 168.555 282.68)" d="M162.68 281.84h11.75v1.69h-11.75z"/><path class="cls-4" transform="rotate(-90 226.085 282.535)" d="M218.09 250.86h16v63.35h-16z"/><path class="cls-10" transform="rotate(90 202.42 282.36)" d="M194.42 281.52h16v1.69h-16z"/><path class="cls-10" transform="rotate(90 204.96 282.36)" d="M196.96 281.52h16v1.69h-16z"/><path class="cls-10" transform="rotate(90 207.49 282.36)" d="M199.49 281.52h16v1.69h-16z"/><path class="cls-10" transform="rotate(90 244.68 282.36)" d="M236.68 281.52h16v1.69h-16z"/><path class="cls-10" transform="rotate(90 247.215 282.365)" d="M239.22 281.52h16v1.69h-16z"/><path class="cls-10" transform="rotate(90 249.75 282.36)" d="M241.75 281.52h16v1.69h-16z"/><path class="cls-9" transform="rotate(-173.52 310.062 258.76)" d="M302.07 227.08h16v63.35h-16z"/><circle class="cls-8" cx="312.61" cy="236.37" r="4.96"/><path class="cls-11" transform="rotate(-180 287.615 258.945)" d="M279.62 227.27h16v63.35h-16z"/><path class="cls-10" transform="rotate(-180 287.615 277.6)" d="M279.62 276.76h16v1.69h-16z"/><path class="cls-10" transform="rotate(-180 287.615 285.21)" d="M279.62 284.36h16v1.69h-16z"/><path class="cls-10" transform="rotate(-180 287.615 281.405)" d="M279.62 279.29h16v4.23h-16z"/><path class="cls-10" transform="rotate(-180 287.615 232.115)" d="M279.62 231.27h16v1.69h-16z"/><path class="cls-10" transform="rotate(-180 287.615 239.725)" d="M279.62 238.88h16v1.69h-16z"/><path class="cls-10" transform="rotate(-180 287.615 235.92)" d="M279.62 233.81h16v4.23h-16z"/><path class="cls-4" transform="rotate(-180 268.69 258.945)" d="M260.69 227.27h16v63.35h-16z"/><path class="cls-13" d="M273.65 242.23a5 5 0 1 0-9.92 0"/><path class="cls-13" transform="rotate(-180 268.69 243.04)" d="M260.69 242.23h16v1.61h-16z"/><path class="cls-13" d="M263.73 275.66a5 5 0 0 0 9.92 0m-12.96-1.61h16v1.61h-16z"/><path class="cls-17" transform="rotate(-180 24.425 163.535)" d="M22.13 128.19h4.59v70.69h-4.59z"/><path class="cls-18" transform="rotate(-180 24.425 202.7)" d="M4.38 198.88h40.09v7.65H4.38z"/><path d="M76.28 127.28c-9.7-14.31 6.28-18.18-.18-27.72l-5.67-8.36 9.95-6.74L86 92.82c6.47 9.54 16-3.87 25.69 10.44z" fill="#313131"/><path class="cls-5" d="M87.37 99A12.09 12.09 0 0 1 83 94.88L78.37 88l1.52-1 4.63 6.84a10.09 10.09 0 0 0 4.19 3.71.77.77 0 0 1 .29 1.12 1.28 1.28 0 0 1-1.63.33z"/><path class="cls-17" transform="rotate(145.87 74.085 85.89)" d="M72.23 83.54h3.72v4.69h-3.72z"/><path class="cls-17" transform="rotate(55.87 41.687 117.029)" d="M40.01 78.92h3.35v76.19h-3.35z"/><path class="cls-1" transform="rotate(145.87 74.596 85.544)" d="M74.2 83.2h.8v4.69h-.8z"/><circle class="cls-18" cx="24.43" cy="128.65" r="3.94"/></g><g id="Layer_2" data-name="Layer 2"><path class="cls-20" d="M78.08 400V262.42a17 17 0 0 1 17-17h209.81a17 17 0 0 1 17 17V400z"/><path d="M118.91 400V255.28c0-9.45 5.58-17 15-17H262.4c9.45 0 15 7.58 15 17V400" fill="#b7c6e7"/><path class="cls-20" d="M231.1 304.1h41.96v11.16H231.1z"/><path stroke="#8995ad" fill="none" stroke-miterlimit="10" d="M198.17 287.9v87.19"/><path class="cls-23" d="M239.65 238.25c0 21.9-39.65 47.65-39.65 47.65s-39.65-25.75-39.65-47.65"/><path class="cls-24" d="M213.09 400l-53.85-161.75h-25.31a17 17 0 0 0-17 17V400"/><path class="cls-24" d="M183.24 400l53.86-161.75h25.3a17 17 0 0 1 17 17V400"/><path class="cls-20" transform="rotate(-26.45 250.557 252.567)" d="M239.1 241.11h22.95v22.95H239.1z"/><path class="cls-20" transform="rotate(-26.45 242.515 276.563)" d="M231.05 265.1H254v22.95h-22.95z"/><path class="cls-20" d="M203.89 338.55l19.02-16.3 32.83-85.05-16.03-5.38-35.82 106.73z"/><path class="cls-20" d="M194.84 362.3l9.05-23.75 22.6-67.35 31.42 10.54-63.07 80.56z"/><path class="cls-20" transform="rotate(-153.55 146.6 252.58)" d="M135.12 241.11h22.95v22.95h-22.95z"/><path class="cls-20" transform="rotate(-153.55 154.65 276.574)" d="M143.17 265.1h22.95v22.95h-22.95z"/><path class="cls-20" d="M193.28 338.55l-19.02-16.3-32.83-85.05 16.03-5.38 35.82 106.73z"/><path class="cls-20" d="M198.58 352.48l-5.3-13.93-22.6-67.35-31.42 10.54 58.03 74.13"/><path class="cls-25" d="M233.23 281.62l-13.48-7.49-13.48 7.49 13.48-13.48 13.48 13.48z"/><path class="cls-26" d="M252.4 240.64l-19.17 40.98-13.48-13.48 32.65-40.98v13.48z"/><path class="cls-25" d="M193.73 281.62l-13.48-7.49-13.48 7.49 13.48-13.48 13.48 13.48z"/><path class="cls-26" d="M147.6 240.64l19.17 40.98 13.48-13.48-32.65-40.98v13.48z"/><path class="cls-23" d="M308.78 124.05l-6.3-37.7c-2-12.1-6.8-22-10.6-22s-6.9 9.9-6.9 22.2v9.8c0 12.2-9.8 20.9-22 20.9h-9.8c-.7 0-1.2 1.4-3.2 1.4v27c2 0 2.5.6 3.2.6h37c12.3 0 20.6-10.1 18.6-22.2zm-216.9 0l6.2-37.7c2-12.1 7.1-22 10.8-22s7.2 10 7.2 22.2v9.8c0 12.2 9.3 20.9 21.5 20.9h9.8c.7 0 1.7 1.4 2.7 1.4v27c-1 0-2 .6-2.7.6h-37c-12.2 0-20.5-10.1-18.5-22.2z"/><rect class="cls-27" x="143.13" y="82.25" width="81" height="87" rx="16" ry="16"/><rect class="cls-27" x="216.08" y="85.25" width="41.95" height="87" rx="16" ry="16"/><path d="M253.08 241.25a11 11 0 0 1-11 11h-83a11 11 0 0 1-11-11v-139a11 11 0 0 1 11-11h83a11 11 0 0 1 11 11z" fill="#0071bc"/><path d="M237 167.15a10.73 10.73 0 0 0-1.8-5.8 3 3 0 0 1-2.8 2.1 3 3 0 0 1-3-3 3 3 0 0 1 1.5-2.6 9.9 9.9 0 0 0-13.8 9.2m-34.42.1a10.73 10.73 0 0 0-1.8-5.8 3 3 0 0 1-2.8 2.1 3 3 0 0 1-3-3 3 3 0 0 1 1.5-2.6 9.9 9.9 0 0 0-13.8 9.2" fill="#2b2b2b"/><path d="M177.18 200.75c.7 13.2 8.3 14.8 21.2 14.8s22.2-1.6 22.9-14.8" fill="#151210"/><path d="M177.18 200.75c1.7 8.2 3.4 7.3 22.1 7.3 19 0 20.4 1 22-7.3" fill="#fff"/><path d="M189.38 171.75h-31a3 3 0 0 1-3-3V158a3 3 0 0 1 3-3h31a3 3 0 0 1 3 3v10.8a3.08 3.08 0 0 1-3 2.95zm52.62 0h-31a3 3 0 0 1-3-3V158a3 3 0 0 1 3-3h31a3 3 0 0 1 3 3v10.8a3 3 0 0 1-3 2.95z" style="isolation:isolate" fill="#fff" opacity=".1"/><path class="cls-33" d="M192.58 162.48c0-4.33 3.11-6.35 7.5-6.35s7.4 2 7.4 6.35"/><path d="M246.08 159.75h7m-105 0h7" stroke="#29373c" stroke-width="5" fill="none" stroke-miterlimit="10"/><path class="cls-27" d="M148.08 113.25v-11a11 11 0 0 1 11-11h83a11 11 0 0 1 11 11v11z"/><path class="cls-27" d="M148.08 108.84l7.37 7.37-7.37 7.37"/><path class="cls-27" transform="rotate(-45 157.663 116.204)" d="M152.45 111h10.43v10.43h-10.43z"/><path class="cls-27" transform="rotate(-45 167.148 116.215)" d="M161.93 111h10.43v10.43h-10.43z"/><path class="cls-27" transform="rotate(-45 176.625 116.21)" d="M171.41 111h10.43v10.43h-10.43z"/><path class="cls-27" transform="rotate(-45 186.215 116.207)" d="M180.99 111h10.43v10.43h-10.43z"/><path class="cls-27" transform="rotate(-45 195.687 116.214)" d="M190.48 111h10.43v10.43h-10.43z"/><path class="cls-27" transform="rotate(-45 205.269 116.265)" d="M200.06 111.05h10.43v10.43h-10.43z"/><path class="cls-27" transform="rotate(-45 214.749 115.228)" d="M209.54 110.01h10.43v10.43h-10.43z"/><path class="cls-27" transform="rotate(-45 224.33 114.29)" d="M219.12 109.07h10.43v10.43h-10.43z"/><path class="cls-27" transform="rotate(-45 233.816 113.24)" d="M228.6 108.03h10.43v10.43H228.6z"/><path class="cls-27" transform="rotate(-45 243.296 112.203)" d="M238.09 106.99h10.43v10.43h-10.43z"/><path class="cls-27" d="M252.88 118.64l-7.37-7.38 7.37-7.37"/><path class="cls-33" d="M189.38 171.75h-31a3 3 0 0 1-3-3V158a3 3 0 0 1 3-3h31a3 3 0 0 1 3 3v10.8a3.08 3.08 0 0 1-3 2.95zm52.62 0h-31a3 3 0 0 1-3-3V158a3 3 0 0 1 3-3h31a3 3 0 0 1 3 3v10.8a3 3 0 0 1-3 2.95z"/><path class="cls-27" d="M253.08 147.77a12.93 12.93 0 0 1-12.92-12.92V90.44c0-7.13 5.8.81 12.92.81"/><circle class="cls-20" cx="197.94" cy="375.5" r="4.21"/></g><path fill="#f9e8c6" d="M0 358.99h400V400H0z" id="Layer_3" data-name="Layer 3"/></svg>