<svg xmlns="http://www.w3.org/2000/svg" viewBox="0 0 400 400"><defs><style>.cls-1{fill:#ecf0f1;}.cls-2{fill:#34495e;}.cls-3{fill:#7e8c99;}.cls-4{fill:#f15354;}.cls-5{fill:#3d3d3d;}.cls-6{fill:#f5d9a1;}.cls-7{fill:#7b6d51;}.cls-8{fill:#d2d5d9;}.cls-9{fill:#e67e22;}.cls-10{fill:#a5c63b;}.cls-11{fill:#27ae60;}.cls-12{fill:#78c9cf;}.cls-13{fill:#f1c40f;}.cls-14{fill:#3498db;}.cls-15{fill:#00558b;}.cls-16{fill:#e49701;}.cls-17{fill:#dee1e3;}.cls-18{fill:#bdc3c7;}.cls-19{fill:#313131;}.cls-20{fill:#192938;}.cls-21{fill:#b7c6e7;}.cls-22,.cls-33,.cls-34{fill:none;stroke-miterlimit:10;}.cls-22{stroke:#8995ad;}.cls-23{fill:#005b86;}.cls-24{fill:#1c2f3f;}.cls-25{fill:#8995ad;}.cls-26{fill:#a7b9d8;}.cls-27{fill:#29373c;}.cls-28{fill:#0071bc;}.cls-29{fill:#2b2b2b;}.cls-30{fill:#151210;}.cls-31,.cls-32{fill:#fff;}.cls-32{opacity:0.1;isolation:isolate;}.cls-33{stroke:#bdc3c7;}.cls-34{stroke:#29373c;stroke-width:5px;}.cls-35{fill:#f9e8c6;}</style></defs><title>team</title><g id="Layer_1" data-name="Layer 1"><rect class="cls-1" width="400" height="400"/><circle class="cls-2" cx="111.09" cy="67.84" r="33.9"/><circle class="cls-3" cx="111.09" cy="67.84" r="28.8"/><polygon class="cls-4" points="110.09 67.84 110.72 53.83 111.47 53.83 112.09 67.84 110.09 67.84"/><polygon class="cls-4" points="110.39 68.55 96.82 54.1 97.35 53.56 111.8 67.13 110.39 68.55"/><circle class="cls-2" cx="198.9" cy="68.35" r="33.9"/><circle class="cls-3" cx="198.9" cy="68.35" r="28.8"/><polygon class="cls-4" points="198.04 67.84 205.73 56.12 206.38 56.5 199.75 68.86 198.04 67.84"/><polygon class="cls-4" points="198.19 69.06 184.62 54.61 185.15 54.08 199.6 67.64 198.19 69.06"/><circle class="cls-2" cx="287.1" cy="68.35" r="33.9"/><circle class="cls-3" cx="287.1" cy="68.35" r="28.8"/><polygon class="cls-4" points="287.6 67.49 299.37 75.12 298.99 75.77 286.59 69.21 287.6 67.49"/><polygon class="cls-4" points="286.39 69.06 272.82 54.61 273.36 54.08 287.8 67.64 286.39 69.06"/><path class="cls-1" d="M110.09,43.07v7c.34,0,.67-.05,1-.05s.67,0,1,.05v-7l-1,0Z"/><path class="cls-1" d="M101.21,53a17.62,17.62,0,0,1,1.73-1l-3.51-6c-.59.32-1.17.66-1.73,1Z"/><path class="cls-1" d="M122.32,45.74l-3.39,6.06a18.5,18.5,0,0,1,1.74,1l3.4-6.07C123.5,46.37,122.92,46,122.32,45.74Z"/><path class="cls-1" d="M132,54.45,126,58a17.38,17.38,0,0,1,1,1.73l6-3.52C132.65,55.59,132.31,55,132,54.45Z"/><path class="cls-1" d="M129,67.84c0,.34,0,.67-.05,1h7c0-.33,0-.66,0-1s0-.67,0-1h-7C128.93,67.17,129,67.5,129,67.84Z"/><path class="cls-1" d="M93.23,67.84c0-.34,0-.67,0-1h-7c0,.33,0,.67,0,1s0,.67,0,1h7C93.26,68.51,93.23,68.18,93.23,67.84Z"/><path class="cls-1" d="M95.06,60a16.57,16.57,0,0,1,1-1.75L90,54.87c-.35.56-.68,1.15-1,1.74Z"/><path class="cls-1" d="M121,82.72a15.56,15.56,0,0,1-1.73,1l3.52,6c.59-.32,1.16-.66,1.72-1Z"/><path class="cls-1" d="M127.13,75.67a16.65,16.65,0,0,1-1,1.75l6.07,3.39c.35-.56.67-1.15,1-1.74Z"/><path class="cls-1" d="M112.09,92.61v-7c-.33,0-.66,0-1,0s-.66,0-1,0v7l1,0Z"/><path class="cls-1" d="M99.87,89.94l3.39-6.06a20,20,0,0,1-1.75-1L98.12,89C98.69,89.32,99.27,89.64,99.87,89.94Z"/><path class="cls-1" d="M96.21,77.72a19.5,19.5,0,0,1-1-1.73l-6,3.52c.31.59.65,1.16,1,1.72Z"/><path class="cls-1" d="M197.9,43.58v7c.33,0,.66,0,1,0s.66,0,1,0v-7l-1,0Z"/><path class="cls-1" d="M189,53.47a17.62,17.62,0,0,1,1.73-1l-3.51-6c-.59.32-1.16.66-1.72,1Z"/><path class="cls-1" d="M210.12,46.25l-3.39,6.06a18.5,18.5,0,0,1,1.74,1l3.4-6.07C211.3,46.88,210.72,46.55,210.12,46.25Z"/><path class="cls-1" d="M219.76,55l-6,3.51a17.38,17.38,0,0,1,1,1.73l6-3.51C220.46,56.1,220.12,55.52,219.76,55Z"/><path class="cls-1" d="M216.76,68.35c0,.34,0,.67,0,1h6.95c0-.33,0-.66,0-1s0-.67,0-1h-6.95C216.73,67.68,216.76,68,216.76,68.35Z"/><path class="cls-1" d="M181,68.35c0-.34,0-.67.05-1h-7c0,.33,0,.67,0,1s0,.67,0,1h7C181.06,69,181,68.69,181,68.35Z"/><path class="cls-1" d="M182.86,60.52a18.58,18.58,0,0,1,1-1.75l-6.06-3.39c-.35.56-.67,1.15-1,1.74Z"/><path class="cls-1" d="M208.78,83.23a17.62,17.62,0,0,1-1.73,1l3.51,6c.59-.32,1.16-.66,1.72-1Z"/><path class="cls-1" d="M214.93,76.18a15.63,15.63,0,0,1-1,1.75l6.06,3.4c.35-.57.67-1.16,1-1.75Z"/><path class="cls-1" d="M199.9,93.12v-7c-.34,0-.67,0-1,0s-.67,0-1,0v7l1,0Z"/><path class="cls-1" d="M187.67,90.45l3.39-6.06a18.5,18.5,0,0,1-1.74-1l-3.4,6.07C186.49,89.83,187.07,90.15,187.67,90.45Z"/><path class="cls-1" d="M184,78.23a17.38,17.38,0,0,1-1-1.73L177,80c.31.59.65,1.16,1,1.72Z"/><path class="cls-1" d="M286.1,43.58v7c.33,0,.66,0,1,0s.66,0,1,0v-7l-1,0Z"/><path class="cls-1" d="M277.22,53.47a16.38,16.38,0,0,1,1.72-1l-3.51-6c-.59.32-1.16.66-1.72,1Z"/><path class="cls-1" d="M298.32,46.25l-3.39,6.06a20,20,0,0,1,1.75,1l3.39-6.07C299.5,46.88,298.92,46.55,298.32,46.25Z"/><path class="cls-1" d="M308,55l-6,3.51a19.5,19.5,0,0,1,1,1.73l6-3.51C308.66,56.1,308.32,55.52,308,55Z"/><path class="cls-1" d="M305,68.35c0,.34,0,.67,0,1h6.95c0-.33,0-.66,0-1s0-.67,0-1h-6.95C304.93,67.68,305,68,305,68.35Z"/><path class="cls-1" d="M269.23,68.35c0-.34,0-.67,0-1h-6.95c0,.33,0,.67,0,1s0,.67,0,1h6.95C269.26,69,269.23,68.69,269.23,68.35Z"/><path class="cls-1" d="M271.06,60.52a18.58,18.58,0,0,1,1-1.75L266,55.38c-.35.56-.67,1.15-1,1.74Z"/><path class="cls-1" d="M297,83.23a17.62,17.62,0,0,1-1.73,1l3.51,6c.59-.32,1.16-.66,1.72-1Z"/><path class="cls-1" d="M303.13,76.18a15.63,15.63,0,0,1-1,1.75l6.06,3.4c.35-.57.67-1.16,1-1.75Z"/><path class="cls-1" d="M288.1,93.12v-7c-.34,0-.67,0-1,0s-.67,0-1,0v7l1,0Z"/><path class="cls-1" d="M275.87,90.45l3.39-6.06a18.5,18.5,0,0,1-1.74-1l-3.4,6.07C274.69,89.83,275.27,90.15,275.87,90.45Z"/><path class="cls-1" d="M272.22,78.23a17.38,17.38,0,0,1-1-1.73l-6,3.52c.31.59.66,1.16,1,1.72Z"/><circle class="cls-5" cx="111.09" cy="67.84" r="2.27"/><circle class="cls-5" cx="198.9" cy="68.35" r="2.27"/><circle class="cls-5" cx="287.1" cy="68.35" r="2.27"/><rect class="cls-6" x="39.33" y="167.17" width="173.65" height="253" transform="translate(419.83 167.52) rotate(90)"/><rect class="cls-7" x="9.65" y="216.85" width="233" height="153.65"/><rect class="cls-6" x="9.65" y="291.26" width="233" height="5"/><rect class="cls-4" x="13.65" y="307.15" width="12" height="63.35"/><rect class="cls-8" x="14.78" y="311.34" width="9.75" height="6.08"/><rect class="cls-9" x="66.44" y="307.15" width="8.03" height="63.35"/><rect class="cls-10" x="68.19" y="311.34" width="4.56" height="27.49"/><rect class="cls-10" x="68.19" y="342.9" width="4.56" height="9.08"/><rect class="cls-11" x="47.51" y="307.15" width="16" height="63.35"/><rect class="cls-12" x="53.89" y="314.38" width="3.25" height="49.03"/><rect class="cls-4" x="168.89" y="316.81" width="8.03" height="63.35" transform="translate(-175.58 521.39) rotate(-90)"/><rect class="cls-13" x="156.88" y="334.72" width="4.56" height="27.49" transform="translate(-189.3 507.63) rotate(-90)"/><rect class="cls-13" x="179.24" y="343.93" width="4.56" height="9.08" transform="translate(-166.95 529.98) rotate(-90)"/><rect class="cls-14" x="28.58" y="307.15" width="16" height="63.35"/><rect class="cls-15" x="28.58" y="314.15" width="16" height="1.69"/><rect class="cls-15" x="28.58" y="316.69" width="16" height="1.69"/><rect class="cls-15" x="28.58" y="319.22" width="16" height="1.69"/><rect class="cls-15" x="28.58" y="356.41" width="16" height="1.69"/><rect class="cls-15" x="28.58" y="358.95" width="16" height="1.69"/><rect class="cls-15" x="28.58" y="361.48" width="16" height="1.69"/><rect class="cls-9" x="207.51" y="307.15" width="12" height="63.35"/><polygon class="cls-13" points="219.51 317.42 207.51 322.42 207.51 316.34 219.51 311.34 219.51 317.42"/><rect class="cls-13" x="222.44" y="307.15" width="16" height="63.35"/><rect class="cls-4" x="223.21" y="314.15" width="14.38" height="1.69"/><rect class="cls-4" x="223.21" y="323.62" width="14.38" height="1.69"/><rect class="cls-4" x="223.21" y="333.08" width="14.38" height="1.69"/><rect class="cls-4" x="223.21" y="342.55" width="14.38" height="1.69"/><rect class="cls-4" x="223.21" y="352.02" width="14.38" height="1.69"/><rect class="cls-4" x="223.21" y="361.48" width="14.38" height="1.69"/><rect class="cls-10" x="164.91" y="330.74" width="16" height="63.35" transform="translate(-189.51 535.32) rotate(-90)"/><rect class="cls-14" x="188.57" y="361.4" width="16" height="1.69" transform="translate(558.82 165.67) rotate(90)"/><rect class="cls-14" x="186.04" y="361.4" width="16" height="1.69" transform="translate(556.28 168.21) rotate(90)"/><rect class="cls-14" x="183.5" y="361.4" width="16" height="1.69" transform="translate(553.74 170.74) rotate(90)"/><rect class="cls-14" x="146.31" y="361.4" width="16" height="1.69" transform="translate(516.56 207.93) rotate(90)"/><rect class="cls-14" x="143.78" y="361.4" width="16" height="1.69" transform="translate(514.02 210.47) rotate(90)"/><rect class="cls-14" x="141.24" y="361.4" width="16" height="1.69" transform="translate(511.48 213) rotate(90)"/><rect class="cls-13" x="80.92" y="306.96" width="16" height="63.35" transform="translate(-37.66 12.2) rotate(-6.48)"/><circle class="cls-16" cx="86.38" cy="316.25" r="4.96"/><rect class="cls-9" x="103.38" y="307.15" width="16" height="63.35"/><rect class="cls-13" x="103.38" y="356.64" width="16" height="1.69"/><rect class="cls-13" x="103.38" y="364.25" width="16" height="1.69"/><rect class="cls-13" x="103.38" y="359.17" width="16" height="4.23"/><rect class="cls-13" x="103.38" y="311.15" width="16" height="1.69"/><rect class="cls-13" x="103.38" y="318.76" width="16" height="1.69"/><rect class="cls-13" x="103.38" y="313.69" width="16" height="4.23"/><rect class="cls-14" x="122.3" y="307.15" width="16" height="63.35"/><path class="cls-10" d="M125.34,322.11a5,5,0,0,1,9.93,0"/><rect class="cls-10" x="122.3" y="322.11" width="16" height="1.61"/><path class="cls-10" d="M135.27,355.54a5,5,0,0,1-9.93,0"/><rect class="cls-10" x="122.3" y="353.93" width="16" height="1.61" transform="translate(260.61 709.47) rotate(180)"/><rect class="cls-14" x="226.44" y="227.27" width="12" height="63.35" transform="translate(464.87 517.89) rotate(-180)"/><rect class="cls-12" x="227.56" y="231.46" width="9.75" height="6.08" transform="translate(464.87 469) rotate(-180)"/><rect class="cls-11" x="177.62" y="227.27" width="8.03" height="63.35" transform="translate(363.27 517.89) rotate(-180)"/><rect class="cls-12" x="179.34" y="231.46" width="4.56" height="27.49" transform="translate(363.24 490.4) rotate(-180)"/><rect class="cls-12" x="179.34" y="263.02" width="4.56" height="9.08" transform="translate(363.24 535.11) rotate(-180)"/><rect class="cls-4" x="188.58" y="227.27" width="16" height="63.35" transform="translate(393.16 517.89) rotate(-180)"/><rect class="cls-12" x="194.96" y="234.5" width="3.25" height="49.03" transform="translate(393.16 518.03) rotate(-180)"/><rect class="cls-14" x="75.17" y="236.93" width="8.03" height="63.35" transform="translate(-189.42 347.79) rotate(-90)"/><rect class="cls-15" x="90.65" y="254.84" width="4.56" height="27.49" transform="translate(-175.66 361.51) rotate(-90)"/><rect class="cls-15" x="68.29" y="264.05" width="4.56" height="9.08" transform="translate(-198.01 339.16) rotate(-90)"/><rect class="cls-13" x="207.51" y="227.27" width="16" height="63.35" transform="translate(431.02 517.89) rotate(-180)"/><rect class="cls-11" x="207.51" y="234.27" width="16" height="1.69" transform="translate(431.02 470.23) rotate(-180)"/><rect class="cls-11" x="207.51" y="236.81" width="16" height="1.69" transform="translate(431.02 475.3) rotate(-180)"/><rect class="cls-11" x="207.51" y="239.34" width="16" height="1.69" transform="translate(431.02 480.38) rotate(-180)"/><rect class="cls-11" x="207.51" y="276.53" width="16" height="1.69" transform="translate(431.02 554.75) rotate(-180)"/><rect class="cls-11" x="207.51" y="279.07" width="16" height="1.69" transform="translate(431.02 559.82) rotate(-180)"/><rect class="cls-11" x="207.51" y="281.6" width="16" height="1.69" transform="translate(431.02 564.9) rotate(-180)"/><rect class="cls-13" x="32.58" y="227.27" width="12" height="63.35" transform="translate(77.17 517.89) rotate(-180)"/><polygon class="cls-14" points="32.58 237.54 44.58 242.54 44.58 236.46 32.58 231.46 32.58 237.54"/><polygon class="cls-14" points="32.58 247.42 44.58 252.42 44.58 246.34 32.58 241.34 32.58 247.42"/><rect class="cls-10" x="13.65" y="227.27" width="16" height="63.35" transform="translate(43.31 517.89) rotate(-180)"/><rect class="cls-11" x="15.78" y="234.5" width="11.75" height="1.69" transform="translate(43.31 470.7) rotate(-180)"/><rect class="cls-11" x="15.78" y="243.97" width="11.75" height="1.69" transform="translate(43.31 489.63) rotate(-180)"/><rect class="cls-11" x="15.78" y="253.44" width="11.75" height="1.69" transform="translate(43.31 508.57) rotate(-180)"/><rect class="cls-11" x="15.78" y="262.9" width="11.75" height="1.69" transform="translate(43.31 527.5) rotate(-180)"/><rect class="cls-11" x="15.78" y="272.37" width="11.75" height="1.69" transform="translate(43.31 546.43) rotate(-180)"/><rect class="cls-11" x="15.78" y="281.84" width="11.75" height="1.69" transform="translate(43.31 565.36) rotate(-180)"/><rect class="cls-4" x="71.18" y="250.86" width="16" height="63.35" transform="translate(-203.35 361.72) rotate(-90)"/><rect class="cls-10" x="47.52" y="281.52" width="16" height="1.69" transform="translate(337.88 226.84) rotate(90)"/><rect class="cls-10" x="50.05" y="281.52" width="16" height="1.69" transform="translate(340.42 224.31) rotate(90)"/><rect class="cls-10" x="52.59" y="281.52" width="16" height="1.69" transform="translate(342.95 221.77) rotate(90)"/><rect class="cls-10" x="89.78" y="281.52" width="16" height="1.69" transform="translate(380.14 184.58) rotate(90)"/><rect class="cls-10" x="92.31" y="281.52" width="16" height="1.69" transform="translate(382.68 182.05) rotate(90)"/><rect class="cls-10" x="94.85" y="281.52" width="16" height="1.69" transform="translate(385.21 179.51) rotate(90)"/><rect class="cls-9" x="155.17" y="227.08" width="16" height="63.35" transform="translate(296.08 534.27) rotate(-173.52)"/><circle class="cls-8" cx="165.71" cy="236.37" r="4.96"/><rect class="cls-11" x="132.71" y="227.27" width="16" height="63.35" transform="translate(281.43 517.89) rotate(-180)"/><rect class="cls-10" x="132.71" y="276.76" width="16" height="1.69" transform="translate(281.43 555.2) rotate(-180)"/><rect class="cls-10" x="132.71" y="284.36" width="16" height="1.69" transform="translate(281.43 570.42) rotate(-180)"/><rect class="cls-10" x="132.71" y="279.29" width="16" height="4.23" transform="translate(281.43 562.81) rotate(-180)"/><rect class="cls-10" x="132.71" y="231.27" width="16" height="1.69" transform="translate(281.43 464.23) rotate(-180)"/><rect class="cls-10" x="132.71" y="238.88" width="16" height="1.69" transform="translate(281.43 479.45) rotate(-180)"/><rect class="cls-10" x="132.71" y="233.81" width="16" height="4.23" transform="translate(281.43 471.84) rotate(-180)"/><rect class="cls-4" x="113.79" y="227.27" width="16" height="63.35" transform="translate(243.57 517.89) rotate(-180)"/><path class="cls-13" d="M126.75,242.23a5,5,0,0,0-9.93,0"/><rect class="cls-13" x="113.79" y="242.23" width="16" height="1.61" transform="translate(243.57 486.08) rotate(-180)"/><path class="cls-13" d="M116.82,275.66a5,5,0,0,0,9.93,0"/><rect class="cls-13" x="113.79" y="274.05" width="16" height="1.61"/><rect class="cls-6" x="186.23" y="167.17" width="173.65" height="253" transform="translate(566.73 20.62) rotate(90)"/><rect class="cls-7" x="156.56" y="216.85" width="233" height="153.65"/><rect class="cls-6" x="156.56" y="291.26" width="233" height="5"/><rect class="cls-4" x="160.56" y="307.15" width="12" height="63.35"/><rect class="cls-8" x="161.68" y="311.34" width="9.75" height="6.08"/><rect class="cls-9" x="213.34" y="307.15" width="8.03" height="63.35"/><rect class="cls-10" x="215.09" y="311.34" width="4.56" height="27.49"/><rect class="cls-10" x="215.09" y="342.9" width="4.56" height="9.08"/><rect class="cls-11" x="194.41" y="307.15" width="16" height="63.35"/><rect class="cls-12" x="200.79" y="314.38" width="3.25" height="49.03"/><rect class="cls-4" x="315.79" y="316.81" width="8.03" height="63.35" transform="translate(-28.67 668.29) rotate(-90)"/><rect class="cls-13" x="303.79" y="334.72" width="4.56" height="27.49" transform="translate(-42.4 654.53) rotate(-90)"/><rect class="cls-13" x="326.14" y="343.93" width="4.56" height="9.08" transform="translate(-20.05 676.89) rotate(-90)"/><rect class="cls-14" x="175.49" y="307.15" width="16" height="63.35"/><rect class="cls-15" x="175.49" y="314.15" width="16" height="1.69"/><rect class="cls-15" x="175.49" y="316.69" width="16" height="1.69"/><rect class="cls-15" x="175.49" y="319.22" width="16" height="1.69"/><rect class="cls-15" x="175.49" y="356.41" width="16" height="1.69"/><rect class="cls-15" x="175.49" y="358.95" width="16" height="1.69"/><rect class="cls-15" x="175.49" y="361.48" width="16" height="1.69"/><rect class="cls-9" x="354.41" y="307.15" width="12" height="63.35"/><polygon class="cls-13" points="366.41 317.42 354.41 322.42 354.41 316.34 366.41 311.34 366.41 317.42"/><rect class="cls-13" x="369.34" y="307.15" width="16" height="63.35"/><rect class="cls-4" x="370.11" y="314.15" width="14.38" height="1.69"/><rect class="cls-4" x="370.11" y="323.62" width="14.38" height="1.69"/><rect class="cls-4" x="370.11" y="333.08" width="14.38" height="1.69"/><rect class="cls-4" x="370.11" y="342.55" width="14.38" height="1.69"/><rect class="cls-4" x="370.11" y="352.02" width="14.38" height="1.69"/><rect class="cls-4" x="370.11" y="361.48" width="14.38" height="1.69"/><rect class="cls-10" x="311.81" y="330.74" width="16" height="63.35" transform="translate(-42.61 682.22) rotate(-90)"/><rect class="cls-14" x="335.47" y="361.4" width="16" height="1.69" transform="translate(705.72 18.77) rotate(90)"/><rect class="cls-14" x="332.94" y="361.4" width="16" height="1.69" transform="translate(703.18 21.3) rotate(90)"/><rect class="cls-14" x="330.4" y="361.4" width="16" height="1.69" transform="translate(700.65 23.84) rotate(90)"/><rect class="cls-14" x="293.21" y="361.4" width="16" height="1.69" transform="translate(663.46 61.03) rotate(90)"/><rect class="cls-14" x="290.68" y="361.4" width="16" height="1.69" transform="translate(660.92 63.56) rotate(90)"/><rect class="cls-14" x="288.14" y="361.4" width="16" height="1.69" transform="translate(658.39 66.1) rotate(90)"/><rect class="cls-13" x="227.83" y="306.96" width="16" height="63.35" transform="translate(-36.72 28.79) rotate(-6.48)"/><circle class="cls-16" cx="233.28" cy="316.25" r="4.96"/><rect class="cls-9" x="250.28" y="307.15" width="16" height="63.35"/><rect class="cls-13" x="250.28" y="356.64" width="16" height="1.69"/><rect class="cls-13" x="250.28" y="364.25" width="16" height="1.69"/><rect class="cls-13" x="250.28" y="359.17" width="16" height="4.23"/><rect class="cls-13" x="250.28" y="311.15" width="16" height="1.69"/><rect class="cls-13" x="250.28" y="318.76" width="16" height="1.69"/><rect class="cls-13" x="250.28" y="313.69" width="16" height="4.23"/><rect class="cls-14" x="269.21" y="307.15" width="16" height="63.35"/><path class="cls-10" d="M272.25,322.11a5,5,0,1,1,9.92,0"/><rect class="cls-10" x="269.21" y="322.11" width="16" height="1.61"/><path class="cls-10" d="M282.17,355.54a5,5,0,1,1-9.92,0"/><rect class="cls-10" x="269.21" y="353.93" width="16" height="1.61" transform="translate(554.41 709.47) rotate(180)"/><rect class="cls-14" x="373.34" y="227.27" width="12" height="63.35" transform="translate(758.68 517.89) rotate(-180)"/><rect class="cls-12" x="374.46" y="231.46" width="9.75" height="6.08" transform="translate(758.68 469) rotate(-180)"/><rect class="cls-11" x="324.52" y="227.27" width="8.03" height="63.35" transform="translate(657.08 517.89) rotate(-180)"/><rect class="cls-12" x="326.24" y="231.46" width="4.56" height="27.49" transform="translate(657.04 490.4) rotate(-180)"/><rect class="cls-12" x="326.24" y="263.02" width="4.56" height="9.08" transform="translate(657.04 535.11) rotate(-180)"/><rect class="cls-4" x="335.48" y="227.27" width="16" height="63.35" transform="translate(686.97 517.89) rotate(-180)"/><rect class="cls-12" x="341.86" y="234.5" width="3.25" height="49.03" transform="translate(686.97 518.03) rotate(-180)"/><rect class="cls-14" x="222.07" y="236.93" width="8.03" height="63.35" transform="translate(-42.52 494.69) rotate(-90)"/><rect class="cls-15" x="237.55" y="254.84" width="4.56" height="27.49" transform="translate(-28.76 508.41) rotate(-90)"/><rect class="cls-15" x="215.2" y="264.05" width="4.56" height="9.08" transform="translate(-51.11 486.06) rotate(-90)"/><rect class="cls-13" x="354.41" y="227.27" width="16" height="63.35" transform="translate(724.82 517.89) rotate(-180)"/><rect class="cls-11" x="354.41" y="234.27" width="16" height="1.69" transform="translate(724.82 470.23) rotate(-180)"/><rect class="cls-11" x="354.41" y="236.81" width="16" height="1.69" transform="translate(724.82 475.3) rotate(-180)"/><rect class="cls-11" x="354.41" y="239.34" width="16" height="1.69" transform="translate(724.82 480.38) rotate(-180)"/><rect class="cls-11" x="354.41" y="276.53" width="16" height="1.69" transform="translate(724.82 554.75) rotate(-180)"/><rect class="cls-11" x="354.41" y="279.07" width="16" height="1.69" transform="translate(724.82 559.82) rotate(-180)"/><rect class="cls-11" x="354.41" y="281.6" width="16" height="1.69" transform="translate(724.82 564.9) rotate(-180)"/><rect class="cls-13" x="179.49" y="227.27" width="12" height="63.35" transform="translate(370.97 517.89) rotate(-180)"/><polygon class="cls-14" points="179.49 237.54 191.49 242.54 191.49 236.46 179.49 231.46 179.49 237.54"/><polygon class="cls-14" points="179.49 247.42 191.49 252.42 191.49 246.34 179.49 241.34 179.49 247.42"/><rect class="cls-10" x="160.56" y="227.27" width="16" height="63.35" transform="translate(337.11 517.89) rotate(-180)"/><rect class="cls-11" x="162.68" y="234.5" width="11.75" height="1.69" transform="translate(337.11 470.7) rotate(-180)"/><rect class="cls-11" x="162.68" y="243.97" width="11.75" height="1.69" transform="translate(337.11 489.63) rotate(-180)"/><rect class="cls-11" x="162.68" y="253.44" width="11.75" height="1.69" transform="translate(337.11 508.57) rotate(-180)"/><rect class="cls-11" x="162.68" y="262.9" width="11.75" height="1.69" transform="translate(337.11 527.5) rotate(-180)"/><rect class="cls-11" x="162.68" y="272.37" width="11.75" height="1.69" transform="translate(337.11 546.43) rotate(-180)"/><rect class="cls-11" x="162.68" y="281.84" width="11.75" height="1.69" transform="translate(337.11 565.36) rotate(-180)"/><rect class="cls-4" x="218.09" y="250.86" width="16" height="63.35" transform="translate(-56.45 508.62) rotate(-90)"/><rect class="cls-10" x="194.42" y="281.52" width="16" height="1.69" transform="translate(484.78 79.94) rotate(90)"/><rect class="cls-10" x="196.96" y="281.52" width="16" height="1.69" transform="translate(487.32 77.4) rotate(90)"/><rect class="cls-10" x="199.49" y="281.52" width="16" height="1.69" transform="translate(489.85 74.87) rotate(90)"/><rect class="cls-10" x="236.68" y="281.52" width="16" height="1.69" transform="translate(527.04 37.68) rotate(90)"/><rect class="cls-10" x="239.22" y="281.52" width="16" height="1.69" transform="translate(529.58 35.15) rotate(90)"/><rect class="cls-10" x="241.75" y="281.52" width="16" height="1.69" transform="translate(532.11 32.61) rotate(90)"/><rect class="cls-9" x="302.07" y="227.08" width="16" height="63.35" transform="translate(588.94 550.86) rotate(-173.52)"/><circle class="cls-8" cx="312.61" cy="236.37" r="4.96"/><rect class="cls-11" x="279.62" y="227.27" width="16" height="63.35" transform="translate(575.23 517.89) rotate(-180)"/><rect class="cls-10" x="279.62" y="276.76" width="16" height="1.69" transform="translate(575.23 555.2) rotate(-180)"/><rect class="cls-10" x="279.62" y="284.36" width="16" height="1.69" transform="translate(575.23 570.42) rotate(-180)"/><rect class="cls-10" x="279.62" y="279.29" width="16" height="4.23" transform="translate(575.23 562.81) rotate(-180)"/><rect class="cls-10" x="279.62" y="231.27" width="16" height="1.69" transform="translate(575.23 464.23) rotate(-180)"/><rect class="cls-10" x="279.62" y="238.88" width="16" height="1.69" transform="translate(575.23 479.45) rotate(-180)"/><rect class="cls-10" x="279.62" y="233.81" width="16" height="4.23" transform="translate(575.23 471.84) rotate(-180)"/><rect class="cls-4" x="260.69" y="227.27" width="16" height="63.35" transform="translate(537.38 517.89) rotate(-180)"/><path class="cls-13" d="M273.65,242.23a5,5,0,1,0-9.92,0"/><rect class="cls-13" x="260.69" y="242.23" width="16" height="1.61" transform="translate(537.38 486.08) rotate(-180)"/><path class="cls-13" d="M263.73,275.66a5,5,0,0,0,9.92,0"/><rect class="cls-13" x="260.69" y="274.05" width="16" height="1.61"/><rect class="cls-17" x="22.13" y="128.19" width="4.59" height="70.69" transform="translate(48.85 327.07) rotate(-180)"/><rect class="cls-18" x="4.38" y="198.88" width="40.09" height="7.65" transform="translate(48.85 405.4) rotate(-180)"/><path class="cls-19" d="M76.28,127.28c-9.7-14.31,6.28-18.18-.18-27.72L70.43,91.2l9.95-6.74L86,92.82c6.47,9.54,16-3.87,25.69,10.44Z"/><path class="cls-5" d="M87.37,99A12.09,12.09,0,0,1,83,94.88L78.37,88l1.52-1,4.63,6.84a10.09,10.09,0,0,0,4.19,3.71A.77.77,0,0,1,89,98.67,1.28,1.28,0,0,1,87.37,99Z"/><rect class="cls-17" x="72.23" y="83.54" width="3.72" height="4.69" transform="translate(183.6 115.42) rotate(145.87)"/><rect class="cls-17" x="40.01" y="78.92" width="3.35" height="76.19" transform="translate(115.17 16.86) rotate(55.87)"/><rect class="cls-1" x="74.2" y="83.2" width="0.8" height="4.69" transform="translate(184.34 114.5) rotate(145.87)"/><circle class="cls-18" cx="24.43" cy="128.65" r="3.94"/></g><g id="Layer_2" data-name="Layer 2"><path class="cls-20" d="M78.08,400V262.42a17,17,0,0,1,17-17H304.89a17,17,0,0,1,17,17V400Z"/><path class="cls-21" d="M118.91,400V255.28c0-9.45,5.58-17,15-17H262.4c9.45,0,15,7.58,15,17V400"/><rect class="cls-20" x="231.1" y="304.1" width="41.96" height="11.16"/><line class="cls-22" x1="198.17" y1="287.9" x2="198.17" y2="375.09"/><path class="cls-23" d="M239.65,238.25c0,21.9-39.65,47.65-39.65,47.65s-39.65-25.75-39.65-47.65"/><path class="cls-24" d="M213.09,400,159.24,238.25H133.93a17,17,0,0,0-17,17V400"/><path class="cls-24" d="M183.24,400,237.1,238.25h25.3a17,17,0,0,1,17,17V400"/><rect class="cls-20" x="239.1" y="241.11" width="22.95" height="22.95" transform="translate(-86.27 138.04) rotate(-26.45)"/><rect class="cls-20" x="231.05" y="265.1" width="22.95" height="22.95" transform="translate(-97.8 136.97) rotate(-26.45)"/><polygon class="cls-20" points="203.89 338.55 222.91 322.25 255.74 237.2 239.71 231.82 203.89 338.55"/><polygon class="cls-20" points="194.84 362.3 203.89 338.55 226.49 271.2 257.91 281.74 194.84 362.3"/><rect class="cls-20" x="135.12" y="241.11" width="22.95" height="22.95" transform="translate(165.35 544.02) rotate(-153.55)"/><rect class="cls-20" x="143.17" y="265.1" width="22.95" height="22.95" transform="translate(169.92 593.08) rotate(-153.55)"/><polygon class="cls-20" points="193.28 338.55 174.26 322.25 141.43 237.2 157.46 231.82 193.28 338.55"/><polyline class="cls-20" points="198.58 352.48 193.28 338.55 170.68 271.2 139.26 281.74 197.29 355.87"/><polygon class="cls-25" points="233.23 281.62 219.75 274.13 206.27 281.62 219.75 268.14 233.23 281.62"/><polygon class="cls-26" points="252.4 240.64 233.23 281.62 219.75 268.14 252.4 227.16 252.4 240.64"/><polygon class="cls-25" points="193.73 281.62 180.25 274.13 166.77 281.62 180.25 268.14 193.73 281.62"/><polygon class="cls-26" points="147.6 240.64 166.77 281.62 180.25 268.14 147.6 227.16 147.6 240.64"/><path class="cls-23" d="M308.78,124.05l-6.3-37.7c-2-12.1-6.8-22-10.6-22s-6.9,9.9-6.9,22.2v9.8c0,12.2-9.8,20.9-22,20.9h-9.8c-.7,0-1.2,1.4-3.2,1.4v27c2,0,2.5.6,3.2.6h37C302.48,146.25,310.78,136.15,308.78,124.05Z"/><path class="cls-23" d="M91.88,124.05l6.2-37.7c2-12.1,7.1-22,10.8-22s7.2,10,7.2,22.2v9.8c0,12.2,9.3,20.9,21.5,20.9h9.8c.7,0,1.7,1.4,2.7,1.4v27c-1,0-2,.6-2.7.6h-37C98.18,146.25,89.88,136.15,91.88,124.05Z"/><rect class="cls-27" x="143.13" y="82.25" width="81" height="87" rx="16" ry="16"/><rect class="cls-27" x="216.08" y="85.25" width="41.95" height="87" rx="16" ry="16"/><path class="cls-28" d="M253.08,241.25a11,11,0,0,1-11,11h-83a11,11,0,0,1-11-11v-139a11,11,0,0,1,11-11h83a11,11,0,0,1,11,11Z"/><path class="cls-29" d="M237,167.15a10.73,10.73,0,0,0-1.8-5.8,3,3,0,0,1-2.8,2.1,3,3,0,0,1-3-3,3,3,0,0,1,1.5-2.6,9.9,9.9,0,0,0-13.8,9.2"/><path class="cls-29" d="M182.68,167.15a10.73,10.73,0,0,0-1.8-5.8,3,3,0,0,1-2.8,2.1,3,3,0,0,1-3-3,3,3,0,0,1,1.5-2.6,9.9,9.9,0,0,0-13.8,9.2"/><path class="cls-30" d="M177.18,200.75c.7,13.2,8.3,14.8,21.2,14.8s22.2-1.6,22.9-14.8"/><path class="cls-31" d="M177.18,200.75c1.7,8.2,3.4,7.3,22.1,7.3,19,0,20.4,1,22-7.3"/><path class="cls-32" d="M189.38,171.75h-31a3,3,0,0,1-3-3V158a3,3,0,0,1,3-3h31a3,3,0,0,1,3,3v10.8A3.08,3.08,0,0,1,189.38,171.75Z"/><path class="cls-32" d="M242,171.75H211a3,3,0,0,1-3-3V158a3,3,0,0,1,3-3h31a3,3,0,0,1,3,3v10.8A3,3,0,0,1,242,171.75Z"/><path class="cls-33" d="M192.58,162.48c0-4.33,3.11-6.35,7.5-6.35s7.4,2,7.4,6.35"/><line class="cls-34" x1="246.08" y1="159.75" x2="253.08" y2="159.75"/><line class="cls-34" x1="148.08" y1="159.75" x2="155.08" y2="159.75"/><path class="cls-27" d="M148.08,113.25v-11a11,11,0,0,1,11-11h83a11,11,0,0,1,11,11v11Z"/><polyline class="cls-27" points="148.08 108.84 155.45 116.21 148.08 123.58"/><rect class="cls-27" x="152.45" y="111" width="10.43" height="10.43" transform="translate(-35.99 145.52) rotate(-45)"/><rect class="cls-27" x="161.93" y="111" width="10.43" height="10.43" transform="translate(-33.22 152.23) rotate(-45)"/><rect class="cls-27" x="171.41" y="111" width="10.43" height="10.43" transform="translate(-30.44 158.93) rotate(-45)"/><rect class="cls-27" x="180.99" y="111" width="10.43" height="10.43" transform="translate(-27.63 165.71) rotate(-45)"/><rect class="cls-27" x="190.48" y="111" width="10.43" height="10.43" transform="translate(-24.86 172.41) rotate(-45)"/><rect class="cls-27" x="200.06" y="111.05" width="10.43" height="10.43" transform="translate(-22.09 179.2) rotate(-45)"/><rect class="cls-27" x="209.54" y="110.01" width="10.43" height="10.43" transform="translate(-18.58 185.6) rotate(-45)"/><rect class="cls-27" x="219.12" y="109.07" width="10.43" height="10.43" transform="translate(-15.11 192.1) rotate(-45)"/><rect class="cls-27" x="228.6" y="108.03" width="10.43" height="10.43" transform="translate(-11.59 198.5) rotate(-45)"/><rect class="cls-27" x="238.09" y="106.99" width="10.43" height="10.43" transform="translate(-8.08 204.9) rotate(-45)"/><polyline class="cls-27" points="252.88 118.64 245.51 111.26 252.88 103.89"/><path class="cls-33" d="M189.38,171.75h-31a3,3,0,0,1-3-3V158a3,3,0,0,1,3-3h31a3,3,0,0,1,3,3v10.8A3.08,3.08,0,0,1,189.38,171.75Z"/><path class="cls-33" d="M242,171.75H211a3,3,0,0,1-3-3V158a3,3,0,0,1,3-3h31a3,3,0,0,1,3,3v10.8A3,3,0,0,1,242,171.75Z"/><path class="cls-27" d="M253.08,147.77a12.93,12.93,0,0,1-12.92-12.92V90.44c0-7.13,5.8.81,12.92.81"/><circle class="cls-20" cx="197.94" cy="375.5" r="4.21"/></g><g id="Layer_3" data-name="Layer 3"><rect class="cls-35" y="358.99" width="400" height="41.01"/></g></svg>