<svg xmlns="http://www.w3.org/2000/svg" viewBox="0 0 400 400"><defs><style>.cls-2{fill:#ecf0f1}.cls-3{fill:#4d4d4d}.cls-5{fill:#fff}.cls-12{fill:#29373c}.cls-19{fill:#313131}.cls-22{fill:#7d9617}.cls-23{fill:#8eb021}.cls-24{fill:#a5c63b}</style></defs><g style="isolation:isolate"><g id="Layer_1" data-name="Layer 1"><path class="cls-2" d="M0 0h400v400H0z"/><path class="cls-3" transform="rotate(90 267.435 123.035)" d="M165.43 10.53h204v225h-204z"/><path fill="#c7deed" d="M164.93 31.03h205v184h-205z"/><path class="cls-5" d="M374.37 37.8h-213l3.12-6.77h206.77l3.11 6.77zm0 11.49h-213l3.12-6.76h206.77l3.11 6.76zm0 11.5h-213l3.12-6.77h206.77l3.11 6.77zm0 11.49h-213l3.12-6.76h206.77l3.11 6.76zm0 11.5h-213l3.12-6.77h206.77l3.11 6.77zm0 11.49h-213l3.12-6.77h206.77l3.11 6.77zm0 11.49h-213l3.12-6.76h206.77l3.11 6.76zm0 11.5h-213l3.12-6.77h206.77l3.11 6.77zm0 11.49h-213l3.12-6.77h206.77l3.11 6.77zm0 11.49h-213l3.12-6.76h206.77l3.11 6.76zm0 11.5h-213l3.12-6.77h206.77l3.11 6.77zm0 11.49h-213l3.12-6.76h206.77l3.11 6.76zm0 11.5h-213l3.12-6.77h206.77l3.11 6.77zm0 11.49h-213l3.12-6.77h206.77l3.11 6.77zm0 11.49h-213l3.12-6.76h206.77l3.11 6.76zm0 11.5h-213l3.12-6.77h206.77l3.11 6.77zm0 11.49h-213l3.12-6.77h206.77l3.11 6.77z"/><path d="M204.49 31.03V221.7M329.93 31.03V221.7" fill="none" stroke="#fff" stroke-miterlimit="10" stroke-width="1.98"/></g><g id="Layer_2" data-name="Layer 2"><path class="cls-3" d="M78.08 400V262.42a17 17 0 0 1 17-17h209.81a17 17 0 0 1 17 17V400z"/><path d="M117.52 400V255.28a17 17 0 0 1 17-17H263a17 17 0 0 1 17 17V400" fill="#666"/><path class="cls-3" d="M198.78 287.9a49.7 49.7 0 0 1-49.65-49.65h20a29.65 29.65 0 0 0 59.3 0h20a49.7 49.7 0 0 1-49.65 49.65z"/><path d="M238.43 238.25a39.65 39.65 0 0 1-79.3 0M309 124.05l-6.3-37.7c-2-12.1-6.8-22-10.6-22s-6.9 9.9-6.9 22.2v9.8c0 12.2-9.8 20.9-22 20.9h-9.8c-.7 0-1.2 1.4-3.2 1.4v27c2 0 2.5.6 3.2.6h37c12.25 0 20.6-10.1 18.6-22.2zm-217.95 0l6.2-37.7c2-12.1 7.1-22 10.8-22s7.2 10 7.2 22.2v9.8c0 12.2 9.3 20.9 21.5 20.9h9.8c.7 0 1.7 1.4 2.7 1.4v27c-1 0-2 .6-2.7.6h-37c-12.2 0-20.5-10.1-18.5-22.2z" fill="#005b86"/><path d="M253.25 241.25a11 11 0 0 1-11 11h-83a11 11 0 0 1-11-11v-139a11 11 0 0 1 11-11h83a11 11 0 0 1 11 11z" fill="#0071bc"/><path d="M177.35 200.75c.7 13.2 8.3 18.8 21.2 18.8s22.2-5.6 22.9-18.8" fill="#151210"/><path class="cls-5" d="M177.35 200.75c1.7 8.2 3.4 7.3 22.1 7.3 19 0 20.4 1 22-7.3"/><path d="M253.25 147.17h-7.08a8.73 8.73 0 0 1-8.71-8.7v-24.3a8.73 8.73 0 0 1 8.71-8.7h7.08m-105 0h7.08a8.73 8.73 0 0 1 8.71 8.7v24.3a8.73 8.73 0 0 1-8.71 8.7h-7.08" fill="#0768a4"/><path class="cls-12" d="M152.77 132.72c22.77-13.81 56.23-11.16 74.12-8.35 16.47 2.59 27.42 8.64 36.1 18v-24.62c0-29.57-6.38-53.55-60.79-53.55-53.54 0-60.79 24-60.79 53.55v24.75c2.6-3.86 7-7.16 11.36-9.78"/><path d="M204.28 58.57a7.92 7.92 0 0 0-3.93 0c-39.3 11.25-52 5.15-52 59.18v17.8c0-.48 1.34-.92 2-1.36l-.92 1.36c14.41-10.58 35.64-12.93 52.76-13.36 17.11.43 38.34 2.78 52.75 13.36l-1.35-1.36c.67.44 1.57.88 1.57 1.36v-17.8c0-54-11.64-47.93-50.9-59.18" fill="#34495e"/><path class="cls-12" d="M154.26 129.85h-2.07v-1.44h2.07zm0-3.51h-2.07v-3.11h2.07zm0-5.18h-2.07V118h2.07zm0-5.18h-2.08v-3.12h2.07c.03 1.05.02 2.14.02 3.14zm0-5.17h-2.07c0-1 .05-2.09.08-3.13l2.07.07c.03.99 0 2.03-.02 3.06zm.17-5.16l-2.08-.1c.05-1 .11-2.09.18-3.13l2.07.14c-.01 1.03-.07 2.06-.11 3.09zm.33-5.13l-2.06-.18c.09-1 .19-2.09.32-3.13l2 .25c-.02 1.01-.11 2.03-.2 3.06zm.58-5.1l-2.05-.29c.15-1 .32-2.09.51-3.11l2 .38c-.09.99-.25 2-.4 3.02zm.91-5l-2-.45c.23-1 .49-2.08.77-3.07l2 .56c-.24.93-.49 1.93-.71 2.94zm1.33-4.9l-2-.65c.34-1 .71-2 1.11-3l1.91.8c-.28.9-.6 1.85-.96 2.83zm1.88-4.67l-1.87-.91a31.34 31.34 0 0 1 1.55-2.81l1.86 1.06a28.85 28.85 0 0 0-1.48 2.64zm2.55-4.29l-1.68-1.22a27.74 27.74 0 0 1 2-2.5l1.67 1.39a25.2 25.2 0 0 0-1.93 2.31zm3.29-3.7L164 71.3a24.64 24.64 0 0 1 2.54-2l1.18 1.7a21.62 21.62 0 0 0-2.36 1.84zm4-2.91l-1-1.79a25.87 25.87 0 0 1 2.89-1.43l.81 1.91a25.43 25.43 0 0 0-2.65 1.29zm4.53-2l-.66-2c1-.33 2-.62 3.09-.86l.45 2a28.26 28.26 0 0 0-2.83.83z"/><path class="cls-12" d="M269.85 142.07c-8.47-10.52-22.08-17.32-40.44-20.2-19.54-3.07-56.08-6-81.19 9.27a50.52 50.52 0 0 0-12.53 11 2.69 2.69 0 0 0 2.06 4.42 2.63 2.63 0 0 0 1.35-.36c.15-.08 14.66-8.4 37.56-12.52 21.06-3.79 53.76-4.7 89.94 12.49a2.69 2.69 0 0 0 3.25-4.12"/><path d="M252.77 128.41h-2.07v.45c.7.32 1.39.64 2.07 1v-1.42m0-5.18h-2.07v3.11h2.07v-3.11m0-5.18h-2.07v3.11h2.07v-3.11m0-5.2h-2.08v3.11h2.08v-3.12m-.12-5.21l-2.07.07c0 1 .06 2.06.08 3.09h2.07c0-1 0-2.09-.08-3.13m-.26-5.22l-2.07.14q.1 1.55.18 3.09l2.07-.1c-.05-1-.11-2.09-.18-3.13m-.49-5.21l-2 .25c.12 1 .22 2 .31 3.06l2.06-.18c-.09-1-.19-2.09-.32-3.13M251.1 92l-2 .38c.19 1 .36 2 .5 3l2.05-.29c-.15-1-.32-2.09-.51-3.11m-1.19-5.14l-2 .56c.26 1 .51 1.94.74 3l2-.45c-.23-1-.49-2.09-.77-3.07m-1.73-5l-1.91.79c.37.9.73 1.85 1 2.84l2-.65c-.34-1-.71-2-1.11-3m-2.41-4.76L244 78.19a28.85 28.85 0 0 1 1.44 2.64l1.87-.91c-.48-1-1-1.93-1.54-2.81m-3.24-4.29L241 74.23a24.9 24.9 0 0 1 1.88 2.31l1.68-1.22a26.13 26.13 0 0 0-2-2.5m-4.06-3.53l-.05.06-1.17 1.65a19.81 19.81 0 0 1 2.32 1.85l1.4-1.55a24.65 24.65 0 0 0-2.18-1.76l-.35-.25m-4.77-2.47l-.24.57-.52 1.23a22.85 22.85 0 0 1 2.67 1.32l.83-1.45.2-.35c-.62-.36-1.26-.69-1.92-1l-1-.32m-5.11-1.46l-.11.52-.28 1.24a28.26 28.26 0 0 1 2.88.8l.39-1.17.19-.55c-1-.28-2-.56-3.07-.84" fill="#262626"/><path d="M204.09 119.49v11.87a149 149 0 0 1 63.81 14.76 2.74 2.74 0 0 0 .67.21 2.63 2.63 0 0 0 1.33-.9 2.7 2.7 0 0 0 0-3.36 45.22 45.22 0 0 0-6.86-6.83 51.83 51.83 0 0 0-7.81-5.17c-.79-.43-1.59-.84-2.41-1.24s-1.37-.65-2.07-1a85.39 85.39 0 0 0-21.29-6 200.7 200.7 0 0 0-25.32-2.38" style="mix-blend-mode:multiply" opacity=".3" fill="#2b2b2b"/><path d="M250.7 125.34v-3.11h2.07v3.11h-2.07m0-5.18v-3.11h2.07v3.11h-2.07m0-5.18v-3.11h2.08v3.12h-2.08m-.05-5.18c0-1 0-2.06-.08-3.09l2.07-.07c0 1 .06 2.09.08 3.13h-2.07m-.16-5.15q-.07-1.55-.18-3.09l2.07-.14c.07 1 .13 2.09.18 3.13l-2.07.1m-.34-5.13c-.09-1-.19-2-.31-3.06l2-.25c.13 1 .23 2.08.32 3.13l-2.06.18m-.58-5.1c-.14-1-.31-2-.5-3l2-.38c.19 1 .36 2.06.51 3.11l-2.05.29m-.9-5c-.23-1-.48-2-.74-3l2-.56c.28 1 .54 2 .77 3.07l-2 .45m-1.34-4.9c-.32-1-.68-1.94-1-2.84l1.91-.79c.4.94.77 1.95 1.11 3l-2 .65m-1.88-4.67a28.85 28.85 0 0 0-1.41-2.64l1.77-1.08c.54.88 1.06 1.83 1.54 2.81l-1.87.91m-2.55-4.29a24.9 24.9 0 0 0-1.89-2.31l1.52-1.41a26.13 26.13 0 0 1 2 2.5l-1.68 1.22m-39.1-17.09c.21 13.55.33 39.2.3 61a200.7 200.7 0 0 1 25.32 2.38 85.39 85.39 0 0 1 21.29 6v-.45h2.07v1.42c.82.4 1.62.81 2.41 1.24v-12.29c0-24.51-2.4-36.64-8.68-43.64a24.07 24.07 0 0 0-7.68-5.57A24.65 24.65 0 0 1 241 70.3l-1.4 1.54a19.81 19.81 0 0 0-2.32-1.84l1.14-1.64c-.64-.3-1.3-.59-2-.86l-.83 1.45a22.85 22.85 0 0 0-2.67-1.32l.52-1.23c-.64-.22-1.31-.43-2-.64l-.39 1.17a28.26 28.26 0 0 0-2.88-.8l.28-1.24c-6.56-1.83-14.54-3.54-24.2-6.31a3.89 3.89 0 0 0-.49-.12" opacity=".75" fill="#29373c"/><path d="M236.25 163.4a2.06 2.06 0 1 1-3-2.4 6.73 6.73 0 0 0-2.62-.52 6.89 6.89 0 1 0 5.62 2.92zm-62.35 0a2.06 2.06 0 1 1-3-2.4 6.73 6.73 0 0 0-2.62-.52 6.89 6.89 0 1 0 5.62 2.92z" fill="#2b2b2b"/><path class="cls-5" d="M218.63 101.71v1.7h.61c.49 0 1.07-.15 1.07-.89a.75.75 0 0 0-.86-.81zm-1.71-1.24h2.85c1.35 0 2.26.66 2.26 1.93a1.93 1.93 0 0 1-1.39 1.87 2.29 2.29 0 0 1 .48.66c.28.58.48 1.23 1.08 1.23a.8.8 0 0 0 .28 0l-.13 1.22a3.45 3.45 0 0 1-.69.09c-.82 0-1.29-.32-1.77-1.42-.21-.49-.49-1.35-.87-1.35h-.39v2.74h-1.71v-6.92zm-5 6.92h4.68v-1.27h-3v-1.62h2.4v-1.27h-2.41v-1.49h2.87v-1.27h-4.58v6.92zm-6.21 0h1.71v-2.93h2.1v2.93h1.71v-6.92h-1.71v2.61h-2.1v-2.61h-1.72v6.92zm-6.17-3.51c0 2.52 1.21 3.63 3.08 3.63s2.86-1 2.75-2.44l-1.5-.15a1.09 1.09 0 0 1-1.16 1.34c-.74 0-1.4-.48-1.4-2.37s.6-2.33 1.35-2.33 1.21.44 1 1.53l1.59-.14c.23-1.49-.58-2.6-2.6-2.6s-3.15 1-3.15 3.53m-5.91 3.51H195v-3.32c0-.38-.05-.84-.08-1.23a9.85 9.85 0 0 0 .5 1.13l1.89 3.42h1.79v-6.92h-1.4v3.32c0 .4.05.95.07 1.34-.17-.41-.37-.93-.52-1.23l-1.82-3.43h-1.83v6.92zm-4.14-2.58H191l-.47-1.46a6.35 6.35 0 0 1-.24-1.19 8 8 0 0 1-.26 1.18l-.48 1.47zm0-4.34h1.73l2.34 6.92h-1.73l-.43-1.31h-2.32l-.42 1.31h-1.49l2.32-6.92zm-5.71 1.24v1.7h.61c.49 0 1.07-.15 1.07-.89a.75.75 0 0 0-.86-.81zm-1.71-1.24h2.84c1.36 0 2.27.66 2.27 1.93a1.93 1.93 0 0 1-1.4 1.87 2.15 2.15 0 0 1 .49.66c.28.58.48 1.23 1.08 1.23a.8.8 0 0 0 .28 0l-.13 1.22a3.45 3.45 0 0 1-.69.09c-.82 0-1.29-.32-1.77-1.42-.21-.49-.49-1.35-.87-1.35h-.39v2.74h-1.71v-6.92zm32.64-11.55l-.27-1.62c-.09-.51-.29-.94-.45-.94s-.29.43-.29 1v.42a1 1 0 0 1-1 1h-.51v1.16h1.68a.79.79 0 0 0 .8-.94m-3.77-1.45h-5.38v-.24c0-.53-.13-1-.29-1s-.36.43-.45.94l-.27 1.62a.79.79 0 0 0 .8.94h1.59a1.29 1.29 0 0 0 .45-.07.58.58 0 0 1-.57.48h-2.23a.58.58 0 0 1-.57-.68l.22-1.36a.58.58 0 0 0-.57-.68H192.5a.59.59 0 0 0-.53.35l-2.09 3.17a.17.17 0 0 0 0 .18l.41.48a.15.15 0 0 0 .2 0l1.42-1.12v6.79a.58.58 0 0 0 .58.58h3.15a.58.58 0 0 0 .58-.58v-2.29a.59.59 0 0 1 .58-.59h7.86a.6.6 0 0 1 .59.59v2.36a.58.58 0 0 0 .58.58H209a.58.58 0 0 0 .58-.58v-2.54h-1.68a1 1 0 0 1-1-1v-1.59a1 1 0 0 1 .39-.77v2a1 1 0 0 0 .95 1h2.58a1 1 0 0 0 .95-1v-5a1 1 0 0 0-.95-1M223 100.79a.07.07 0 0 0 .07-.07.07.07 0 0 0-.07-.06h-.09v.13zm-.18-.21h.18c.08 0 .17 0 .17.15a.12.12 0 0 1-.11.12l.11.19h-.1l-.11-.19v.15h-.09v-.46zm.51.24a.33.33 0 0 0-.35-.37.37.37 0 0 0 0 .73.33.33 0 0 0 .35-.36zm-.82 0a.47.47 0 1 1 .93 0 .47.47 0 0 1-.93 0z"/></g><g id="Layer_3" data-name="Layer 3"><path fill="#f5d9a1" d="M-.37 358.99h400V400h-400z"/><path class="cls-19" d="M124.95 366.2h147.67v106.13H124.95z"/><path fill="#090909" d="M195.83 366.2h5.83v106.13h-5.83z"/><rect x="42.67" y="380.52" width="70.83" height="42.19" rx="3.65" ry="3.65" transform="rotate(90 78.08 401.61)" fill="#3d3d3d"/><path class="cls-19" transform="rotate(90 78.08 404.31)" d="M50.36 388.21h55.45v32.19H50.36z"/><path class="cls-22" d="M356.09 342.05c0 4.65-1.54 7-3.45 7s-3.44-2.36-3.44-7c0-4 1.94-33.2 3.44-33.2s3.45 29.15 3.45 33.2z"/><path class="cls-23" d="M351.89 345l-8.65-28.2s-2.78 12.78 2.77 25l2.28 6.55z"/><path class="cls-22" d="M354.9 345.83L365.33 323s.92 11.09-5.11 20.78l-2.65 5.27z"/><path class="cls-22" d="M351.42 341.92L344 313.36s9.07 9.43 10.75 22.75l1.5 6.77z"/><path class="cls-23" d="M354.36 340c0 5.08 1.69 7.66 3.77 7.66s3.76-2.58 3.76-7.66c0-4.39-2.13-36.26-3.76-36.26s-3.77 31.83-3.77 36.26z"/><path class="cls-24" d="M364.25 349.58l10.25-27.66s-11.05 8.56-14.07 21.64l-2.16 6.59zM346 349l-10.26-27.67s10 8.47 13 21.55l2.16 6.59z"/><path class="cls-22" d="M358.13 347.62c2.08 0 3.76-2.58 3.76-7.66 0-4.39-2.13-36.26-3.76-36.26"/><path class="cls-23" d="M352.64 349.06c-1.9 0-3.44-2.36-3.44-7 0-4 1.94-33.2 3.44-33.2"/><path class="cls-24" d="M355.17 345.17l10.26-27.67s-11.06 8.57-14.07 21.65l-2.16 6.58z"/><path d="M339.66 341.42V370a2.56 2.56 0 0 0 2.56 2.56H368a2.56 2.56 0 0 0 2.56-2.56v-28.58z" fill="#e49701"/><circle class="cls-19" cx="78.08" cy="372.01" r="2.81"/><path class="cls-5" transform="rotate(90 198.775 419.265)" d="M150.71 350.43h96.14V488.1h-96.14z"/><path class="cls-2" d="M129.94 371.2h68.84v96.14h-68.84z"/></g></g></svg>