<svg xmlns="http://www.w3.org/2000/svg" viewBox="0 0 400 400"><defs><style>.cls-1,.cls-19{isolation:isolate;}.cls-2{fill:#ecf0f1;}.cls-3{fill:#3b4649;}.cls-19,.cls-4{fill:#fff;}.cls-5{fill:#c0392b;}.cls-6{fill:#f15354;}.cls-7{fill:#5c686f;}.cls-8{opacity:0.15;mix-blend-mode:multiply;}.cls-9{fill:#eede97;}.cls-10{fill:#282828;}.cls-11{fill:#333;}.cls-12,.cls-20{fill:none;stroke-miterlimit:10;}.cls-12{stroke:#4d4d4d;}.cls-13{fill:#005b86;}.cls-14{fill:#1a1a1a;}.cls-15{fill:#0071bc;}.cls-16{fill:#2b2b2b;}.cls-17{fill:#29373c;}.cls-18{fill:#151210;}.cls-19{opacity:0.1;}.cls-20{stroke:#29373c;stroke-width:3px;}.cls-21{fill:#99a3a8;}.cls-22{fill:#dee1e3;}.cls-23{fill:#bdc3c7;}.cls-24{fill:#f5d9a1;}.cls-25{fill:#2980b9;}.cls-26{fill:#3498db;}.cls-27{fill:#60b8ea;}</style></defs><title>team</title><g class="cls-1"><g id="Layer_1" data-name="Layer 1"><rect class="cls-2" width="400" height="400"/><rect class="cls-3" x="18.29" y="50.36" width="225" height="145"/><rect class="cls-4" x="28.29" y="60.36" width="205" height="125"/><path class="cls-2" d="M68.48,185.36a5.5,5.5,0,1,0,0-11H36.27v11Z"/><rect class="cls-5" x="73.98" y="178.29" width="11" height="3.14"/><polygon class="cls-6" points="71.89 183.79 71.89 175.93 82.89 174.36 82.89 185.36 71.89 183.79"/><rect class="cls-3" x="97.29" y="173.36" width="44" height="12"/><path class="cls-7" d="M95,183.36v-8a2,2,0,0,1,2-2h45a2,2,0,0,1,2,2v8"/><g class="cls-8"><rect x="254.01" y="51.08" width="23" height="23"/></g><rect class="cls-9" x="253.29" y="50.36" width="23" height="23"/><g class="cls-8"><rect x="279.18" y="51.04" width="23" height="23" transform="translate(195.86 344.34) rotate(-83.54)"/></g><rect class="cls-9" x="278.46" y="50.32" width="23" height="23" transform="translate(195.93 342.98) rotate(-83.54)"/><g class="cls-8"><rect x="306.82" y="51.04" width="23" height="23" transform="translate(-4.9 34.81) rotate(-6.21)"/></g><rect class="cls-9" x="306.1" y="50.32" width="23" height="23" transform="translate(-4.82 34.73) rotate(-6.21)"/><g class="cls-8"><rect x="332.01" y="51.08" width="23" height="23"/></g><rect class="cls-9" x="331.29" y="50.36" width="23" height="23"/><g class="cls-8"><rect x="357.58" y="51.07" width="23" height="23" transform="translate(284.94 427.34) rotate(-86.63)"/></g><rect class="cls-9" x="356.86" y="50.35" width="23" height="23" transform="translate(284.98 425.94) rotate(-86.63)"/><g class="cls-8"><rect x="306.01" y="80.08" width="23" height="23"/></g><rect class="cls-9" x="305.29" y="79.36" width="23" height="23"/><g class="cls-8"><rect x="331.05" y="80.02" width="23" height="23" transform="matrix(0.13, -0.99, 0.99, 0.13, 207.28, 419.26)"/></g><rect class="cls-9" x="330.33" y="79.3" width="23" height="23" transform="matrix(0.13, -0.99, 0.99, 0.13, 207.36, 417.92)"/><g class="cls-8"><rect x="358.58" y="80.06" width="23" height="23" transform="matrix(1, -0.08, 0.08, 1, -5.91, 28.55)"/></g><rect class="cls-9" x="357.86" y="79.34" width="23" height="23" transform="matrix(1, -0.08, 0.08, 1, -5.86, 28.49)"/><g class="cls-8"><rect x="254.01" y="109.08" width="23" height="23"/></g><rect class="cls-9" x="253.29" y="108.36" width="23" height="23"/><g class="cls-8"><rect x="280.82" y="109.04" width="23" height="23" transform="translate(-11.37 32.5) rotate(-6.24)"/></g><rect class="cls-9" x="280.1" y="108.32" width="23" height="23" transform="translate(-11.3 32.41) rotate(-6.24)"/><g class="cls-8"><rect x="356.66" y="108.96" width="23" height="23" transform="translate(182.59 460.48) rotate(-79.49)"/></g><rect class="cls-9" x="355.94" y="108.24" width="23" height="23" transform="translate(182.71 459.18) rotate(-79.49)"/><g class="cls-8"><rect x="279.24" y="80.04" width="23" height="23" transform="translate(169.44 371.18) rotate(-84.03)"/></g><rect class="cls-9" x="278.52" y="79.32" width="23" height="23" transform="translate(169.52 369.82) rotate(-84.03)"/><g class="cls-8"><rect x="254.95" y="80.02" width="23" height="23" transform="translate(-9.4 34.27) rotate(-7.23)"/></g><rect class="cls-9" x="254.23" y="79.3" width="23" height="23" transform="translate(-9.32 34.18) rotate(-7.23)"/><g class="cls-8"><rect x="304.67" y="108.96" width="23" height="23" transform="translate(140.49 409.61) rotate(-79.58)"/></g><rect class="cls-9" x="303.95" y="108.24" width="23" height="23" transform="translate(140.61 408.32) rotate(-79.58)"/><g class="cls-8"><rect x="332.56" y="109.06" width="23" height="23" transform="translate(-7.99 25.84) rotate(-4.25)"/></g><rect class="cls-9" x="331.84" y="108.34" width="23" height="23" transform="translate(-7.94 25.78) rotate(-4.25)"/></g><g id="Layer_2" data-name="Layer 2"><path class="cls-10" d="M78.08,400V262.42a17,17,0,0,1,17-17H304.89a17,17,0,0,1,17,17V400Z"/><path class="cls-11" d="M118.74,400V255.28a17,17,0,0,1,17-17H264.24a17,17,0,0,1,17,17V400"/><line class="cls-12" x1="200" y1="287.9" x2="200" y2="400"/><path class="cls-13" d="M239.65,238.25c0,21.9-39.65,47.65-39.65,47.65s-39.65-25.75-39.65-47.65"/><polygon class="cls-14" points="229.06 287.9 214.03 279.55 198.99 287.9 214.03 272.86 229.06 287.9"/><polygon class="cls-10" points="250.44 242.19 229.06 287.9 214.03 272.86 250.44 227.16 250.44 242.19"/><polygon class="cls-14" points="201.01 287.9 185.97 279.55 170.94 287.9 185.97 272.86 201.01 287.9"/><polygon class="cls-10" points="149.56 242.19 170.94 287.9 185.97 272.86 201.01 287.9 149.56 227.16 149.56 242.19"/><path class="cls-13" d="M309,124.05l-6.3-37.7c-2-12.1-6.8-22-10.6-22s-6.9,9.9-6.9,22.2v9.8c0,12.2-9.8,20.9-22,20.9h-9.8c-.7,0-1.2,1.4-3.2,1.4v27c2,0,2.5.6,3.2.6h37C302.65,146.25,311,136.15,309,124.05Z"/><path class="cls-13" d="M91.05,124.05l6.2-37.7c2-12.1,7.1-22,10.8-22s7.2,10,7.2,22.2v9.8c0,12.2,9.3,20.9,21.5,20.9h9.8c.7,0,1.7,1.4,2.7,1.4v27c-1,0-2,.6-2.7.6h-37C97.35,146.25,89.05,136.15,91.05,124.05Z"/><path class="cls-15" d="M253.25,241.25a11,11,0,0,1-11,11h-83a11,11,0,0,1-11-11v-139a11,11,0,0,1,11-11h83a11,11,0,0,1,11,11Z"/><path class="cls-16" d="M239.15,167.15a10.73,10.73,0,0,0-1.8-5.8,3,3,0,0,1-2.8,2.1,3,3,0,0,1-3-3,3,3,0,0,1,1.5-2.6,9.9,9.9,0,0,0-13.8,9.2"/><path class="cls-16" d="M180.85,167.15a10.73,10.73,0,0,0-1.8-5.8,3,3,0,0,1-2.8,2.1,3,3,0,0,1-3-3,3,3,0,0,1,1.5-2.6,9.9,9.9,0,0,0-13.8,9.2"/><path class="cls-17" d="M148.25,149.75v-40a7.6,7.6,0,0,1,7.4-7.5h21.7C160.3,119.3,169.25,149.75,148.25,149.75Z"/><path class="cls-17" d="M224.6,102.25h21.7a7.6,7.6,0,0,1,7.4,7.5v40C232.7,149.75,241.65,119.3,224.6,102.25Z"/><path class="cls-18" d="M177.35,200.75c.7,13.2,8.3,18.8,21.2,18.8s22.2-5.6,22.9-18.8"/><path class="cls-4" d="M177.35,200.75c1.7,8.2,3.4,7.3,22.1,7.3,19,0,20.4,1,22-7.3"/><path class="cls-19" d="M187.55,171.75h-31a3,3,0,0,1-3-3V158a3,3,0,0,1,3-3h31a3,3,0,0,1,3,3v10.8A3.08,3.08,0,0,1,187.55,171.75Z"/><path class="cls-19" d="M244.15,171.75h-31a3,3,0,0,1-3-3V158a3,3,0,0,1,3-3h31a3,3,0,0,1,3,3v10.8A3,3,0,0,1,244.15,171.75Z"/><path class="cls-20" d="M209.65,166v-9.1a2.69,2.69,0,0,1,2.7-2.7H245a2.69,2.69,0,0,1,2.7,2.7V166"/><path class="cls-20" d="M152.75,166v-9.1a2.69,2.69,0,0,1,2.7-2.7h32.6a2.69,2.69,0,0,1,2.7,2.7V166"/><line class="cls-20" x1="248.25" y1="159.75" x2="253.25" y2="159.75"/><line class="cls-20" x1="148.25" y1="159.75" x2="153.25" y2="159.75"/><path class="cls-17" d="M148.25,109.25v-7a11,11,0,0,1,11-11h83a11,11,0,0,1,11,11v7Z"/><rect class="cls-17" x="154.85" y="88.45" width="7.6" height="7.6" transform="translate(-18.76 139.2) rotate(-45)"/><rect class="cls-17" x="161.76" y="88.42" width="7.6" height="7.6" transform="translate(-16.72 144.08) rotate(-45)"/><rect class="cls-17" x="168.75" y="88.46" width="7.6" height="7.6" transform="translate(-14.7 149.03) rotate(-45)"/><rect class="cls-17" x="175.66" y="88.43" width="7.6" height="7.6" transform="translate(-12.66 153.91) rotate(-45)"/><rect class="cls-17" x="182.57" y="88.4" width="7.6" height="7.6" transform="translate(-10.61 158.79) rotate(-45)"/><rect class="cls-17" x="189.55" y="88.45" width="7.6" height="7.6" transform="translate(-8.6 163.74) rotate(-45)"/><rect class="cls-17" x="196.46" y="88.42" width="7.6" height="7.6" transform="translate(-6.55 168.62) rotate(-45)"/><rect class="cls-17" x="203.45" y="88.46" width="7.6" height="7.6" transform="translate(-4.54 173.57) rotate(-45)"/><rect class="cls-17" x="210.36" y="88.43" width="7.6" height="7.6" transform="translate(-2.49 178.45) rotate(-45)"/><rect class="cls-17" x="217.34" y="88.47" width="7.6" height="7.6" transform="translate(-0.48 183.4) rotate(-45)"/><rect class="cls-17" x="224.25" y="88.44" width="7.6" height="7.6" transform="translate(1.57 188.27) rotate(-45)"/><rect class="cls-17" x="231.16" y="88.41" width="7.6" height="7.6" transform="translate(3.61 193.15) rotate(-45)"/><rect class="cls-17" x="238.15" y="88.46" width="7.6" height="7.6" transform="translate(5.63 198.1) rotate(-45)"/><line class="cls-20" x1="190.75" y1="157.75" x2="209.75" y2="157.75"/><path class="cls-17" d="M167.92,114.21c13.49,0,17.3,6.47,32.77,6.47s19.28-6.47,32.77-6.47a40.17,40.17,0,0,1,19.89,5.24V108H148v11.48A40.2,40.2,0,0,1,167.92,114.21Z"/></g><g id="Layer_3" data-name="Layer 3"><path class="cls-21" d="M370.13,347.42a8.45,8.45,0,0,1-8.44,8.44H214.58a8.46,8.46,0,0,1-8.45-8.44Z"/><rect class="cls-22" x="220.13" y="274.53" width="136" height="81" rx="7" ry="7"/><rect class="cls-23" x="39.73" y="356.22" width="20" height="43.78"/><rect class="cls-23" x="343.73" y="356.22" width="20" height="43.78"/><rect class="cls-4" x="9.81" y="356.03" width="384" height="13.37" rx="1.41" ry="1.41"/><path class="cls-24" d="M9.93,357.44A1.42,1.42,0,0,1,11.34,356H392.53a1.41,1.41,0,0,1,1.4,1.41Z"/><path class="cls-24" d="M393.93,368a1.4,1.4,0,0,1-1.4,1.4H11.34A1.41,1.41,0,0,1,9.93,368Z"/><path class="cls-25" d="M39.86,330a12.58,12.58,0,1,0,12.57-12.58A12.57,12.57,0,0,0,39.86,330Zm4.71,0a7.87,7.87,0,1,1,7.86,7.86A7.86,7.86,0,0,1,44.57,330Z"/><path class="cls-26" d="M88.66,309.71v43.51a3,3,0,0,1-3,3H55.43a3,3,0,0,1-3-3V309.71Z"/><rect class="cls-27" x="78.52" y="314.71" width="5.14" height="36.5"/></g></g></svg>