<svg xmlns="http://www.w3.org/2000/svg" viewBox="0 0 400 400"><defs><style>.cls-2{fill:#ecf0f1}.cls-3{fill:#3b4649}.cls-4{fill:#fff}.cls-9{fill:#eede97}.cls-10{fill:#282828}.cls-20{fill:none;stroke-miterlimit:10}.cls-13{fill:#005b86}.cls-14{fill:#1a1a1a}.cls-17{fill:#29373c}.cls-20{stroke:#29373c;stroke-width:3px}</style></defs><g style="isolation:isolate"><g id="Layer_1" data-name="Layer 1"><path class="cls-2" d="M0 0h400v400H0z"/><path class="cls-3" d="M18.29 50.36h225v145h-225z"/><path class="cls-4" d="M28.29 60.36h205v125h-205z"/><path class="cls-2" d="M68.48 185.36a5.5 5.5 0 1 0 0-11H36.27v11z"/><path fill="#c0392b" d="M73.98 178.29h11v3.14h-11z"/><path fill="#f15354" d="M71.89 183.79v-7.86l11-1.57v11l-11-1.57z"/><path class="cls-3" d="M97.29 173.36h44v12h-44z"/><path d="M95 183.36v-8a2 2 0 0 1 2-2h45a2 2 0 0 1 2 2v8" fill="#5c686f"/><path d="M254.01 51.08h23v23h-23z"/><path class="cls-9" d="M253.29 50.36h23v23h-23z"/><path transform="rotate(-83.54 290.695 62.526)" d="M279.18 51.04h23v23h-23z"/><path class="cls-9" transform="rotate(-83.54 289.968 61.807)" d="M278.46 50.32h23v23h-23z"/><path transform="rotate(-6.21 318.406 62.57)" d="M306.82 51.04h23v23h-23z"/><path class="cls-9" transform="rotate(-6.21 317.708 61.793)" d="M306.1 50.32h23v23h-23z"/><path d="M332.01 51.08h23v23h-23z"/><path class="cls-9" d="M331.29 50.36h23v23h-23z"/><path transform="rotate(-86.63 369.092 62.564)" d="M357.58 51.07h23v23h-23z"/><path class="cls-9" transform="rotate(-86.63 368.37 61.843)" d="M356.86 50.35h23v23h-23z"/><path d="M306.01 80.08h23v23h-23z"/><path class="cls-9" d="M305.29 79.36h23v23h-23z"/><path transform="rotate(-82.5 342.775 91.853)" d="M331.05 80.02h23v23h-23z"/><path class="cls-9" transform="rotate(-82.5 342.052 91.136)" d="M330.33 79.3h23v23h-23z"/><path transform="matrix(1 -.08 .08 1 -5.91 28.55)" d="M358.58 80.06h23v23h-23z"/><path class="cls-9" transform="matrix(1 -.08 .08 1 -5.86 28.49)" d="M357.86 79.34h23v23h-23z"/><path d="M254.01 109.08h23v23h-23z"/><path class="cls-9" d="M253.29 108.36h23v23h-23z"/><path transform="rotate(-6.24 292.435 120.546)" d="M280.82 109.04h23v23h-23z"/><path class="cls-9" transform="rotate(-6.24 291.645 119.86)" d="M280.1 108.32h23v23h-23z"/><path transform="rotate(-79.49 368.178 120.45)" d="M356.66 108.96h23v23h-23z"/><path class="cls-9" transform="rotate(-79.49 367.456 119.728)" d="M355.94 108.24h23v23h-23z"/><path transform="rotate(-84.03 290.73 91.548)" d="M279.24 80.04h23v23h-23z"/><path class="cls-9" transform="rotate(-84.03 290.015 90.824)" d="M278.52 79.32h23v23h-23z"/><path transform="rotate(-7.23 266.52 91.529)" d="M254.95 80.02h23v23h-23z"/><path class="cls-9" transform="rotate(-7.23 265.848 90.85)" d="M254.23 79.3h23v23h-23z"/><path transform="rotate(-79.58 316.147 120.464)" d="M304.67 108.96h23v23h-23z"/><path class="cls-9" transform="rotate(-79.58 315.432 119.747)" d="M303.95 108.24h23v23h-23z"/><path transform="rotate(-4.25 344.204 120.587)" d="M332.56 109.06h23v23h-23z"/><path class="cls-9" transform="rotate(-4.25 343.42 119.883)" d="M331.84 108.34h23v23h-23z"/></g><g id="Layer_2" data-name="Layer 2"><path class="cls-10" d="M78.08 400V262.42a17 17 0 0 1 17-17h209.81a17 17 0 0 1 17 17V400z"/><path d="M118.74 400V255.28a17 17 0 0 1 17-17h128.5a17 17 0 0 1 17 17V400" fill="#333"/><path stroke="#4d4d4d" fill="none" stroke-miterlimit="10" d="M200 287.9V400"/><path class="cls-13" d="M239.65 238.25c0 21.9-39.65 47.65-39.65 47.65s-39.65-25.75-39.65-47.65"/><path class="cls-14" d="M229.06 287.9l-15.03-8.35-15.04 8.35 15.04-15.04 15.03 15.04z"/><path class="cls-10" d="M250.44 242.19l-21.38 45.71-15.03-15.04 36.41-45.7v15.03z"/><path class="cls-14" d="M201.01 287.9l-15.04-8.35-15.03 8.35 15.03-15.04 15.04 15.04z"/><path class="cls-10" d="M149.56 242.19l21.38 45.71 15.03-15.04 15.04 15.04-51.45-60.74v15.03z"/><path class="cls-13" d="M309 124.05l-6.3-37.7c-2-12.1-6.8-22-10.6-22s-6.9 9.9-6.9 22.2v9.8c0 12.2-9.8 20.9-22 20.9h-9.8c-.7 0-1.2 1.4-3.2 1.4v27c2 0 2.5.6 3.2.6h37c12.25 0 20.6-10.1 18.6-22.2zm-217.95 0l6.2-37.7c2-12.1 7.1-22 10.8-22s7.2 10 7.2 22.2v9.8c0 12.2 9.3 20.9 21.5 20.9h9.8c.7 0 1.7 1.4 2.7 1.4v27c-1 0-2 .6-2.7.6h-37c-12.2 0-20.5-10.1-18.5-22.2z"/><path d="M253.25 241.25a11 11 0 0 1-11 11h-83a11 11 0 0 1-11-11v-139a11 11 0 0 1 11-11h83a11 11 0 0 1 11 11z" fill="#0071bc"/><path d="M239.15 167.15a10.73 10.73 0 0 0-1.8-5.8 3 3 0 0 1-2.8 2.1 3 3 0 0 1-3-3 3 3 0 0 1 1.5-2.6 9.9 9.9 0 0 0-13.8 9.2m-38.4.1a10.73 10.73 0 0 0-1.8-5.8 3 3 0 0 1-2.8 2.1 3 3 0 0 1-3-3 3 3 0 0 1 1.5-2.6 9.9 9.9 0 0 0-13.8 9.2" fill="#2b2b2b"/><path class="cls-17" d="M148.25 149.75v-40a7.6 7.6 0 0 1 7.4-7.5h21.7c-17.05 17.05-8.1 47.5-29.1 47.5zm76.35-47.5h21.7a7.6 7.6 0 0 1 7.4 7.5v40c-21 0-12.05-30.45-29.1-47.5z"/><path d="M177.35 200.75c.7 13.2 8.3 18.8 21.2 18.8s22.2-5.6 22.9-18.8" fill="#151210"/><path class="cls-4" d="M177.35 200.75c1.7 8.2 3.4 7.3 22.1 7.3 19 0 20.4 1 22-7.3"/><path d="M187.55 171.75h-31a3 3 0 0 1-3-3V158a3 3 0 0 1 3-3h31a3 3 0 0 1 3 3v10.8a3.08 3.08 0 0 1-3 2.95zm56.6 0h-31a3 3 0 0 1-3-3V158a3 3 0 0 1 3-3h31a3 3 0 0 1 3 3v10.8a3 3 0 0 1-3 2.95z" style="isolation:isolate" opacity=".1" fill="#fff"/><path class="cls-20" d="M209.65 166v-9.1a2.69 2.69 0 0 1 2.7-2.7H245a2.69 2.69 0 0 1 2.7 2.7v9.1m-94.95 0v-9.1a2.69 2.69 0 0 1 2.7-2.7h32.6a2.69 2.69 0 0 1 2.7 2.7v9.1m57.5-6.25h5m-105 0h5"/><path class="cls-17" d="M148.25 109.25v-7a11 11 0 0 1 11-11h83a11 11 0 0 1 11 11v7z"/><path class="cls-17" transform="rotate(-45 158.65 92.245)" d="M154.85 88.45h7.6v7.6h-7.6z"/><path class="cls-17" transform="rotate(-45 165.56 92.223)" d="M161.76 88.42h7.6v7.6h-7.6z"/><path class="cls-17" transform="rotate(-45 172.545 92.26)" d="M168.75 88.46h7.6v7.6h-7.6z"/><path class="cls-17" transform="rotate(-45 179.456 92.237)" d="M175.66 88.43h7.6v7.6h-7.6z"/><path class="cls-17" transform="rotate(-45 186.371 92.202)" d="M182.57 88.4h7.6V96h-7.6z"/><path class="cls-17" transform="rotate(-45 193.352 92.251)" d="M189.55 88.45h7.6v7.6h-7.6z"/><path class="cls-17" transform="rotate(-45 200.267 92.217)" d="M196.46 88.42h7.6v7.6h-7.6z"/><path class="cls-17" transform="rotate(-45 207.248 92.265)" d="M203.45 88.46h7.6v7.6h-7.6z"/><path class="cls-17" transform="rotate(-45 214.163 92.23)" d="M210.36 88.43h7.6v7.6h-7.6z"/><path class="cls-17" transform="rotate(-45 221.143 92.28)" d="M217.34 88.47h7.6v7.6h-7.6z"/><path class="cls-17" transform="rotate(-45 228.047 92.24)" d="M224.25 88.44h7.6v7.6h-7.6z"/><path class="cls-17" transform="rotate(-45 234.958 92.217)" d="M231.16 88.41h7.6v7.6h-7.6z"/><path class="cls-17" transform="rotate(-45 241.943 92.254)" d="M238.15 88.46h7.6v7.6h-7.6z"/><path class="cls-20" d="M190.75 157.75h19"/><path class="cls-17" d="M167.92 114.21c13.49 0 17.3 6.47 32.77 6.47s19.28-6.47 32.77-6.47a40.17 40.17 0 0 1 19.89 5.24V108H148v11.48a40.2 40.2 0 0 1 19.92-5.27z"/></g><g id="Layer_3" data-name="Layer 3"><path d="M370.13 347.42a8.45 8.45 0 0 1-8.44 8.44H214.58a8.46 8.46 0 0 1-8.45-8.44z" fill="#99a3a8"/><rect x="220.13" y="274.53" width="136" height="81" rx="7" ry="7" fill="#dee1e3"/><path d="M39.73 356.22h20V400h-20zm304 0h20V400h-20z" fill="#bdc3c7"/><rect class="cls-4" x="9.81" y="356.03" width="384" height="13.37" rx="1.41" ry="1.41"/><path d="M9.93 357.44a1.42 1.42 0 0 1 1.41-1.44h381.19a1.41 1.41 0 0 1 1.4 1.41zm384 10.56a1.4 1.4 0 0 1-1.4 1.4H11.34a1.41 1.41 0 0 1-1.41-1.4z" fill="#f5d9a1"/><path d="M39.86 330a12.58 12.58 0 1 0 12.57-12.58A12.57 12.57 0 0 0 39.86 330zm4.71 0a7.87 7.87 0 1 1 7.86 7.86 7.86 7.86 0 0 1-7.86-7.86z" fill="#2980b9"/><path d="M88.66 309.71v43.51a3 3 0 0 1-3 3H55.43a3 3 0 0 1-3-3v-43.51z" fill="#3498db"/><path fill="#60b8ea" d="M78.52 314.71h5.14v36.5h-5.14z"/></g></g></svg>