<svg enable-background="new 0 0 313.7 265.5" viewBox="0 0 313.7 265.5" xmlns="http://www.w3.org/2000/svg"><path d="m294 240.6c0 4.4-3.5 7.9-7.9 7.9h-262.5c-4.4 0-7.9-3.5-7.9-7.9v-170.6c0-4.3 3.5-7.9 7.9-7.9h262.5c4.3 0 7.9 3.5 7.9 7.9z" fill="#f2c40f"/><path d="m294 240.6c0 4.4-3.5 7.9-7.9 7.9h-262.5c-4.4 0-7.9-3.5-7.9-7.9v-170.6c0-4.3 3.5-7.9 7.9-7.9h262.5c4.3 0 7.9 3.5 7.9 7.9z" fill="#313131" opacity=".25"/><path d="m30.8 258.7h132.3 113.9v-47.5-132.6h-49.1-64.8-132.3z" fill="#d0d4d7"/><path d="m256.4 256.2v-132.3-66.4l-47.5-47.5h-132.6v49.1 64.8 132.3z" fill="#ecf0f1"/><path d="m208.9 57.5h47.5l-47.5-47.5z" fill="#f2f5f5"/><path d="m276.4 246.2v-132.3-66.4-47.5h-180.1v49.1 64.8 132.3z" fill="#fff"/><g fill="#f2f5f5"><path d="m123.6 117h126.9v3.1h-126.9z"/><path d="m123.6 124.5h130.1v3.1h-130.1z"/><path d="m123.6 132h127.4v3.1h-127.4z"/><path d="m123.6 139.5h112.4v3.1h-112.4z"/><path d="m123.6 58.7h126.9v3.1h-126.9z"/><path d="m123.6 66.2h130.1v3.1h-130.1z"/><path d="m123.6 73.7h127.4v3.1h-127.4z"/><path d="m123.6 81.2h77.1v3.1h-77.1z"/><path d="m123.6 94.5h126.9v3.1h-126.9z"/><path d="m123.6 102h130.1v3.1h-130.1z"/><path d="m123.6 109.5h127.4v3.1h-127.4z"/><path d="m123.6 153.3h126.9v3.1h-126.9z"/><path d="m123.6 160.8h130.1v3.1h-130.1z"/><path d="m123.6 168.3h127.4v3.1h-127.4z"/><path d="m123.6 175.7h77.1v3.1h-77.1z"/><path d="m123.6 189.1h126.9v3.1h-126.9z"/><path d="m123.6 196.5h130.1v3.1h-130.1z"/><path d="m123.6 204h41.8v3.1h-41.8z"/></g><path d="m123.4 43.8h60.6v5.1h-60.6z" fill="#0075a8"/><path d="m313.7 127.7c0-4.3-3.5-7.9-7.9-7.9h-133.1l-11.3 18.4h-153.5c-4.3 0-7.9 3.5-7.9 7.9l15.7 111.5c0 4.4 3.5 7.9 7.9 7.9h262.5c4.3 0 7.9-3.5 7.9-7.9z" fill="#f2c40f"/></svg>