<?xml version="1.0" encoding="utf-8"?>
<!-- Generator: Adobe Illustrator 26.0.1, SVG Export Plug-In . SVG Version: 6.00 Build 0)  -->
<svg version="1.1" id="Layer_1" xmlns="http://www.w3.org/2000/svg" xmlns:xlink="http://www.w3.org/1999/xlink" x="0px" y="0px"
	 viewBox="0 0 537.1 113.4" style="enable-background:new 0 0 537.1 113.4;" xml:space="preserve">
<style type="text/css">
	.st0{fill:#A453B9;}
	.st1{fill:#FFFFFF;}
	.st2{fill:#344845;}
</style>
<g>
	<g>
		<path class="st0" d="M112.3,112.6H12.5C5.6,112.6,0,106.4,0,98.9V13.6C0,6,5.6-0.1,12.5-0.1h99.8c6.9,0,12.5,6.1,12.5,13.7v85.4
			C124.8,106.4,119.2,112.6,112.3,112.6z"/>
		<g>
			<path class="st1" d="M107.2,34.3c0-2.8-2.1-5.1-4.7-5.1s-4.7,2.3-4.7,5.1v1.9C90.3,29.4,78,21.3,62.4,21.3
				c-26.2,0-43.1,22.9-43.8,23.8c-1.6,2.2-1.3,5.4,0.8,7.2c2,1.8,5,1.4,6.6-0.8c0.1-0.2,14.8-19.9,36.4-19.9
				c12.1,0,22,6.2,28.4,11.6h-1.1c-2.6,0-4.7,2.3-4.7,5.1s2.1,5.1,4.7,5.1h12.8c0,0,0,0,0,0c0,0,0,0,0,0c0,0,0,0,0,0
				c0.2,0,0.5,0,0.7-0.1c0,0,0.1,0,0.1,0c0.2,0,0.4-0.1,0.7-0.2c0,0,0.1,0,0.1,0c0.5-0.2,0.9-0.4,1.3-0.8c0,0,0,0,0,0c0,0,0,0,0,0
				c0.1-0.1,0.1-0.1,0.2-0.2c0,0,0.1-0.1,0.1-0.1c0.1-0.1,0.1-0.1,0.2-0.2c0.1-0.1,0.1-0.1,0.2-0.2c0,0,0.1-0.1,0.1-0.1
				c0.1-0.1,0.1-0.2,0.2-0.3c0,0,0-0.1,0.1-0.1c0.1-0.1,0.1-0.2,0.2-0.3c0-0.1,0.1-0.1,0.1-0.2c0-0.1,0.1-0.1,0.1-0.2
				c0-0.1,0.1-0.2,0.1-0.3c0,0,0-0.1,0-0.1c0-0.1,0.1-0.2,0.1-0.3c0-0.1,0-0.1,0-0.2c0-0.1,0-0.2,0-0.3c0-0.1,0-0.2,0-0.2
				c0-0.1,0-0.1,0-0.2c0-0.1,0-0.2,0-0.3c0,0,0,0,0,0V34.3z"/>
			<path class="st1" d="M105.4,60.1c-2-1.8-5-1.4-6.6,0.8C98.7,61.2,84,80.9,62.4,80.9c-12.1,0-22-6.2-28.4-11.6h1.1
				c2.6,0,4.7-2.3,4.7-5.1c0-2.8-2.1-5.1-4.7-5.1H22.3c-0.1,0-0.1,0-0.2,0c-0.1,0-0.2,0-0.3,0c-0.1,0-0.1,0-0.2,0
				c-0.1,0-0.2,0-0.2,0c-0.1,0-0.2,0-0.2,0.1c-0.1,0-0.1,0-0.2,0.1c-0.1,0-0.2,0.1-0.2,0.1c-0.1,0-0.1,0.1-0.2,0.1
				c-0.1,0-0.2,0.1-0.2,0.1c-0.1,0-0.1,0.1-0.2,0.1c-0.1,0-0.2,0.1-0.2,0.1c-0.1,0-0.1,0.1-0.2,0.1c-0.1,0.1-0.2,0.1-0.2,0.2
				c0,0-0.1,0.1-0.1,0.1c0,0,0,0,0,0c-0.1,0.1-0.1,0.1-0.2,0.2c0,0-0.1,0.1-0.1,0.1c-0.1,0.1-0.1,0.1-0.2,0.2
				c-0.1,0.1-0.1,0.1-0.2,0.2c0,0-0.1,0.1-0.1,0.1c-0.1,0.1-0.1,0.2-0.2,0.3c0,0,0,0.1-0.1,0.1c-0.1,0.1-0.1,0.2-0.2,0.3
				c0,0.1-0.1,0.1-0.1,0.2c0,0.1-0.1,0.1-0.1,0.2c0,0.1-0.1,0.2-0.1,0.3c0,0,0,0.1,0,0.1c0,0.1-0.1,0.2-0.1,0.3c0,0.1,0,0.1,0,0.2
				c0,0.1,0,0.2,0,0.3c0,0.1,0,0.2,0,0.2c0,0.1,0,0.1,0,0.2c0,0.1,0,0.2,0,0.3c0,0,0,0,0,0v14c0,2.8,2.1,5.1,4.7,5.1S27,81,27,78.2
				v-1.9c7.5,6.8,19.8,14.8,35.4,14.8c26.2,0,43.1-22.9,43.8-23.8C107.8,65.1,107.4,61.9,105.4,60.1z"/>
			<path class="st1" d="M46.6,56.2c0,8.2,5.3,15.1,12.4,16.7l2.2-13.3h-7.1l11.2-20.1c-1-0.2-2.1-0.3-3.1-0.3
				C53.6,39.2,46.6,46.8,46.6,56.2z"/>
			<path class="st1" d="M62.2,73.3c8.6,0,15.6-7.6,15.6-17.1c0-8.2-5.3-15.1-12.4-16.7l-2.2,13.3h7.1L59,73
				C60,73.2,61.1,73.3,62.2,73.3z"/>
		</g>
	</g>
	<g>
		<path class="st2" d="M140.4,58.4c0-15.9,8.5-22.3,20.3-22.3c11.7,0,20.1,6.4,20.1,22.3c0,17.7-8.7,23.6-20.1,23.6
			C148.8,82,140.4,75.6,140.4,58.4z M169.6,58.4c0-11-4.3-14.6-9.1-14.6c-4.7,0-9,3.5-9,14.6c0,12.3,4.3,15.8,9,15.8
			C165.3,74.2,169.6,70.7,169.6,58.4z"/>
		<path class="st2" d="M186.8,36.9h18.6c8.7,0,15,4.4,15,13.3c0,9.6-6.1,15.2-15,15.2h-7.6v15.8h-11V36.9z M197.8,44.8v12.6h5.1
			c3.4,0,6.5-1.8,6.5-6.6c0-4.5-3.1-6-6.5-6H197.8z"/>
		<path class="st2" d="M225.4,36.9h11.7l11.6,22c1,1.9,2.3,5.2,3.3,7.9h0.3c-0.1-2.5-0.5-6-0.5-8.6V36.9h9v44.3h-11.5l-12.1-21.9
			c-1.1-2-2.3-4.9-3.2-7.2h-0.3c0.2,2.5,0.5,5.4,0.5,7.9v21.3h-9V36.9z"/>
		<path class="st2" d="M266.9,36.9h22.8v7.7h-6v28.8h6v7.7h-22.8v-7.7h5.9V44.6h-5.9V36.9z"/>
	</g>
</g>
</svg>
