<?xml version="1.0" encoding="utf-8"?>
<!-- Generator: Adobe Illustrator 26.0.1, SVG Export Plug-In . SVG Version: 6.00 Build 0)  -->
<svg version="1.1" id="Layer_1" xmlns="http://www.w3.org/2000/svg" xmlns:xlink="http://www.w3.org/1999/xlink" x="0px" y="0px"
	 viewBox="0 0 537.1 113.4" style="enable-background:new 0 0 537.1 113.4;" xml:space="preserve">
<style type="text/css">
	.st0{fill:#0081BE;}
	.st1{fill:#FFFFFF;}
	.st2{fill:#344845;}
</style>
<g>
	<g>
		<path class="st0" d="M120.9,112H13.4C6,112,0,105.9,0,98.5v-84C0,7.2,6,1.1,13.4,1.1h107.5c7.4,0,13.4,6,13.4,13.4v84
			C134.4,105.9,128.3,112,120.9,112z"/>
		<g>
			<g>
				<rect x="26.5" y="76.4" class="st1" width="81.4" height="10.1"/>
				<path class="st1" d="M95.5,38.5c0-6.5-5.3-11.8-11.8-11.8H51c-6.5,0-11.8,5.3-11.8,11.8V70h56.3V38.5z M85.4,60H49.3V38.5
					c0-0.9,0.8-1.7,1.7-1.7h32.7c0.9,0,1.7,0.8,1.7,1.7V60z"/>
				<path class="st1" d="M32.5,50.9V40.8h-6.1c-0.6,0-1-0.5-1-1V26.6H15.3v13.2c0,6.1,5,11.1,11.1,11.1H32.5z"/>
				<path class="st1" d="M108.9,26.6v13.2c0,0.6-0.5,1-1,1h-5.7v10.1h5.7c6.1,0,11.1-5,11.1-11.1V26.6H108.9z"/>
			</g>
		</g>
	</g>
	<g>
		<path class="st2" d="M153.9,44.9h12c5.7,0,9.5,2.8,9.5,8.4c0,4.5-3,7.2-5.9,8.1c0.9,0.8,1.5,1.8,2,2.8c1.2,2.5,2,5.3,4.6,5.3
			c0.6,0,1.2-0.2,1.2-0.2l-0.6,5.3c0,0-1.6,0.4-2.9,0.4c-3.4,0-5.4-1.4-7.5-6.1c-0.9-2.1-2.1-5.9-3.7-5.9h-1.6v11.9h-7.2V44.9z
			 M161.1,50.2v7.4h2.6c2.1,0,4.5-0.7,4.5-3.9c0-2.6-1.6-3.5-3.6-3.5H161.1z"/>
		<path class="st2" d="M187.5,44.9h7.3l9.8,30h-7.3l-1.8-5.7h-9.7l-1.8,5.7h-6.3L187.5,44.9z M187.5,63.7h6.3l-2-6.3
			c-0.7-2.1-1-5.2-1-5.2h-0.2c0,0-0.4,3.1-1.1,5.1L187.5,63.7z"/>
		<path class="st2" d="M207.3,44.9h7.7l7.6,14.9c0.6,1.3,1.5,3.6,2.2,5.3h0.2c-0.1-1.7-0.3-4.1-0.3-5.8V44.9h5.9v30h-7.5L215.2,60
			c-0.7-1.3-1.5-3.3-2.1-4.9h-0.2c0.1,1.7,0.3,3.7,0.3,5.3v14.4h-5.9V44.9z"/>
		<path class="st2" d="M234.6,59.7c0-10.9,5.2-15.4,13.3-15.4c8.5,0,11.9,4.8,11,11.3l-6.7,0.6c0.7-4.8-1.1-6.7-4.4-6.7
			c-3.1,0-5.7,2.4-5.7,10.1c0,8.2,2.8,10.3,5.9,10.3c3,0,5.4-1.9,4.9-5.8l6.3,0.7c0.5,6.1-3.8,10.6-11.6,10.6
			C239.7,75.4,234.6,70.6,234.6,59.7z"/>
		<path class="st2" d="M262.9,44.9h7.2v11.3h8.8V44.9h7.2v30H279V62.2h-8.8v12.7h-7.2V44.9z"/>
		<path class="st2" d="M291.4,44.9h19.3v5.5h-12.1v6.5h10.1v5.5h-10.1v7h12.5v5.5h-19.7V44.9z"/>
		<path class="st2" d="M314.9,44.9h12c5.7,0,9.5,2.8,9.5,8.4c0,4.5-3,7.2-5.9,8.1c0.9,0.8,1.5,1.8,2,2.8c1.2,2.5,2,5.3,4.6,5.3
			c0.6,0,1.2-0.2,1.2-0.2l-0.6,5.3c0,0-1.6,0.4-2.9,0.4c-3.4,0-5.4-1.4-7.5-6.1c-0.9-2.1-2.1-5.9-3.7-5.9h-1.6v11.9h-7.2V44.9z
			 M322.1,50.2v7.4h2.6c2.1,0,4.5-0.7,4.5-3.9c0-2.6-1.6-3.5-3.6-3.5H322.1z"/>
		<path class="st2" d="M349.4,44.9h11.1c7.2,0,12.8,4.4,12.8,14.9c0,10.3-5.3,15.2-12.8,15.2h-11.1V44.9z M359.8,69.5
			c3.2,0,6.3-2,6.3-9.8c0-7.7-3.1-9.5-6.3-9.5h-3.2v19.3H359.8z"/>
		<path class="st2" d="M377.3,44.9h19.3v5.5h-12.1v6.5h10.1v5.5h-10.1v7H397v5.5h-19.7V44.9z"/>
		<path class="st2" d="M405.6,65c-0.5,2.4,0.4,5.2,5,5.2c3,0,4.1-1.2,4.1-2.9c0-2.5-2.4-3.1-5.3-4.2c-4.3-1.5-9.5-3.6-9.5-9.9
			c0-5.6,4.2-9,11.3-8.9c8.7,0.2,11.2,5.5,10.2,10.1l-6.6,0.6c0.4-3.5-0.8-5.4-4.2-5.4c-2.3,0-3.6,0.9-3.6,2.8
			c0,2.5,2.3,3.2,5.2,4.3c4.4,1.5,9.6,3.3,9.6,9.6c0,5.4-3.9,9.3-11.5,9.3c-7.1,0-12-3.4-11-9.8L405.6,65z"/>
		<path class="st2" d="M425.7,44.9h7.2v8.4c0,0.9-0.1,2.3-0.2,3.3h0.2c0.5-0.8,1.1-1.9,1.8-2.8l7.1-8.9h7.8l-9.5,11.8l10,18.2h-8.3
			l-6.7-12.6l-2.2,2.7v9.9h-7.2V44.9z"/>
		<path class="st2" d="M450.2,44.9h23.2v5.5h-8.1v24.5h-7.2V50.4h-7.9V44.9z"/>
		<path class="st2" d="M474.7,59.4c0-10.8,5.6-15.1,13.4-15.1c7.7,0,13.2,4.3,13.2,15.1c0,12-5.7,16-13.2,16
			C480.3,75.4,474.7,71.1,474.7,59.4z M493.9,59.4c0-7.5-2.8-9.9-5.9-9.9c-3.1,0-5.9,2.4-5.9,9.9c0,8.3,2.8,10.7,5.9,10.7
			C491.1,70.2,493.9,67.8,493.9,59.4z"/>
		<path class="st2" d="M505.2,44.9h12.2c5.7,0,9.9,3,9.9,9c0,6.5-4,10.3-9.9,10.3h-5v10.7h-7.2V44.9z M512.4,50.2v8.5h3.4
			c2.2,0,4.3-1.2,4.3-4.5c0-3.1-2-4-4.3-4H512.4z"/>
	</g>
</g>
</svg>
