<?xml version="1.0" encoding="UTF-8"?><svg id="a" xmlns="http://www.w3.org/2000/svg" xmlns:xlink="http://www.w3.org/1999/xlink" viewBox="0 0 750 183.8448"><defs><linearGradient id="c" x1="540.71273" y1="-304.66413" x2="540.71273" y2="61.95751" gradientTransform="translate(0 -204.12897) scale(1 -1)" gradientUnits="userSpaceOnUse"><stop offset="0" stop-color="#f3f8fa"/><stop offset="1" stop-color="#c8dae6"/></linearGradient><linearGradient id="d" x1="624.10487" y1="-231.31618" x2="624.10487" y2="-353.77807" gradientTransform="translate(0 -204.12897) scale(1 -1)" gradientUnits="userSpaceOnUse"><stop offset="0" stop-color="#cadbe7" stop-opacity="0"/><stop offset="1" stop-color="#aec9db" stop-opacity=".5"/></linearGradient><linearGradient id="e" x1="304.34323" y1="-251.12796" x2="304.34323" y2="-355.83349" gradientTransform="translate(0 -204.12897) scale(1 -1)" gradientUnits="userSpaceOnUse"><stop offset="0" stop-color="#ccdde8" stop-opacity="0"/><stop offset="1" stop-color="#aec9db" stop-opacity=".5"/></linearGradient><linearGradient id="f" x1="563.06117" y1="-368.4457" x2="524.68636" y2="-601.02009" gradientTransform="translate(0 -204.12897) scale(1 -1)" gradientUnits="userSpaceOnUse"><stop offset="0" stop-color="#9abbd2" stop-opacity="0"/><stop offset="1" stop-color="#709fbf" stop-opacity=".4"/></linearGradient><linearGradient id="g" x1="363.01218" y1="-363.91762" x2="363.01218" y2="-383.69507" gradientTransform="translate(0 -204.12897) scale(1 -1)" gradientUnits="userSpaceOnUse"><stop offset="0" stop-color="#6e848d"/><stop offset=".59946" stop-color="#4f87ad"/><stop offset="1" stop-color="#4c91bf"/></linearGradient><linearGradient id="h" x1="409.30162" y1="-357.01335" x2="409.30162" y2="-376.56315" gradientTransform="translate(0 -204.12897) scale(1 -1)" gradientUnits="userSpaceOnUse"><stop offset="0" stop-color="#6e848d"/><stop offset=".59946" stop-color="#4f87ad"/><stop offset="1" stop-color="#4c91bf"/></linearGradient><linearGradient id="i" x1="457.3403" y1="-348.49028" x2="457.3403" y2="-367.79252" gradientTransform="translate(0 -204.12897) scale(1 -1)" gradientUnits="userSpaceOnUse"><stop offset="0" stop-color="#6e848d"/><stop offset=".59946" stop-color="#4f87ad"/><stop offset="1" stop-color="#4c91bf"/></linearGradient><linearGradient id="j" x1="260.12225" y1="-343.32694" x2="260.12225" y2="-362.62932" gradientTransform="translate(0 -204.12897) scale(1 -1)" gradientUnits="userSpaceOnUse"><stop offset="0" stop-color="#6e848d"/><stop offset=".59946" stop-color="#4f87ad"/><stop offset="1" stop-color="#4c91bf"/></linearGradient><linearGradient id="k" x1="1981.07384" y1="-362.9501" x2="1981.07384" y2="-386.50413" gradientTransform="translate(2280.06055 -204.12897) rotate(-180)" gradientUnits="userSpaceOnUse"><stop offset="0" stop-color="#6e848d"/><stop offset=".59946" stop-color="#4f87ad"/><stop offset="1" stop-color="#4c91bf"/></linearGradient></defs><g id="b"><g><rect x="-.06338" y="-274.65966" width="1081.55222" height="721.03479" fill="url(#c)"/><g><polygon points="1039.35161 -274.65966 859.25151 182.07263 725.11017 182.07263 965.24363 -274.65966 1039.35161 -274.65966" fill="#f6f9fb" isolation="isolate" opacity=".15"/><polygon points="884.21373 -274.65966 675.18572 182.07263 404.37946 182.07263 655.68896 -274.65966 884.21373 -274.65966" fill="#f6f9fb" isolation="isolate" opacity=".15"/><polygon points="835.64484 -274.65966 629.11158 182.07263 547.11552 182.07263 791.15676 -274.65966 835.64484 -274.65966" fill="#f6f9fb" isolation="isolate" opacity=".2"/><polygon points="735.59404 -274.65966 498.43124 182.07263 457.60625 182.07263 712.88144 -274.65966 735.59404 -274.65966" fill="#f6f9fb" isolation="isolate" opacity=".2"/><polygon points="533.45912 -274.65966 300.26203 182.07263 229.61506 182.07263 498.30146 -274.65966 533.45912 -274.65966" fill="#f6f9fb" isolation="isolate" opacity=".15"/><polygon points="287.71603 -274.65966 33.40706 182.07263 -.06338 182.07263 -.06338 37.50516 203.83085 -274.65966 287.71603 -274.65966" fill="#f6f9fb" isolation="isolate" opacity=".15"/></g><g><g><path d="M1081.48884,48.141c-40.47679-16.29077-142.54599-21.68858-243.52546-18.89688-203.17809,5.617-461.83199,71.17014-671.24257,124.29199h914.76811s-.00009-105.3951-.00009-105.39511Z" fill="#cadbe7"/><path d="M775.57996,80.0116c78.05651-7.03211,115.77124-16.68792,115.77124-16.68792,0,0-55.59555,27.05221-35.98053,30.04521,19.61493,2.99271,248.48028-44.81275,157.42992-59.03298l-.03001-.12272c-48.59504-5.26873-111.91082-6.70793-174.80729-4.96908-84.11322,2.32534-177.73653,14.92832-273.43516,32.6636-2.66771,1.56953-4.82403,3.2445-6.43395,5.06657-12.4922,14.13818,139.42909,20.0693,217.48578,13.03732h0Z" fill="#d5e3ec"/><path d="M1081.48893,48.14087c-10.99288-4.42425-26.53596-8.04314-45.3583-10.91474,90.59338,31.66945-18.71055,126.75692-260.5056,108.81643-229.25373-17.01019-267.34874-56.66642-243.70748-77.91401-46.25062,9.06671-92.78447,19.18602-138.77887,29.79144l-3.64483,55.22826h691.99498V48.14091l.00009-.00004Z" fill="#b8cfdf"/><path d="M1081.48884,48.141c-40.47679-16.29077-142.54599-21.68858-243.52546-18.89688-203.17809,5.617-461.83199,71.17014-671.24257,124.29199h914.76811s-.00009-105.3951-.00009-105.39511Z" fill="url(#d)"/></g><g><path d="M608.74983,153.1482s-124.53685-67.97758-314.16537-102.05974C104.95592,17.00644-.06338,36.05964-.06338,36.05964v117.08857H608.74983Z" fill="#ccdde8"/><path d="M331.01012,76.26467c167.40537,31.67288,277.73971,76.88352,277.73971,76.88352,0,0-124.53685-67.97758-314.16537-102.05974C104.95578,17.00628-.06338,36.05948-.06338,36.05948v22.45028s135.04954-19.33267,331.07349,17.75491Z" fill="#e3edf3"/><path d="M-.06338,80.758s160.11674-4.93058,234.09981,8.96001c73.98306,13.89072-29.17898,31.59128-5.14142,38.23419,24.03756,6.6429,379.85482,25.19599,379.85482,25.19599H-.06338V80.758Z" fill="#bed4e2"/><path d="M608.74983,153.1482s-124.53685-67.97758-314.16537-102.05974C104.95592,17.00644-.06338,36.05964-.06338,36.05964v117.08857H608.74983Z" fill="url(#e)"/></g><g><rect x="-.06338" y="153.1482" width="1081.5523" height="293.22697" fill="#acc8da"/><path d="M1081.48893,220.08202C780.70915,174.85942,464.95848,167.64878-.06338,166.80675v-13.65856H1081.48884l.00009,66.93381v.00002Z" fill="#c1d5e3"/><path d="M692.06081,153.1482c45.33203,10.62026,157.12472,55.07292,184.71962,78.81144,14.99941,12.90337-6.48526,15.03039-66.10891,40.15861-58.31281,24.57574-102.7688,58.89685-140.30169,95.0216-37.53289,36.12457-106.34339,79.23536-261.83699,79.23536h358.58904s14.88305-18.9221,35.57733-56.63569c22.19981-40.45699,29.19223-58.54051,99.45695-89.97779,70.26454-31.43728,95.80565-37.87497,80.98835-52.77166-18.38683-18.48545-130.47165-74.07827-248.4324-93.84182h-42.65121s-.00009-.00004-.00009-.00006Z" fill="#c7d9e6"/><path d="M884.93978,195.95946c-43.17742-17.11679-96.07965-33.7391-150.22776-42.81131h-42.65121c22.80154,5.3417,62.41638,19.24384,99.67466,34.76339,31.57018,2.40291,62.59334,5.07827,93.20431,8.04792Z" fill="#d8e5ee"/><rect x="-.06338" y="153.1482" width="1081.55222" height="293.22697" fill="url(#f)"/></g><g><path d="M-.06237,66.53085c1.95372-2.11031,3.82394-2.50127,6.76374-2.45756,.91802,.01355,1.85349,.10657,2.69393,.47617,.79833,.35098,1.47293,.93547,2.06793,1.57315,1.75384,1.87988,2.91255,4.30702,3.27177,6.85287,1.59608-1.46775,4.23954-2.23492,6.24733-1.22951,2.02293,1.01305,3.3244,3.31244,3.15179,5.56827,3.00426-4.13816,8.97703-6.0267,13.61573-3.87456,4.63885,2.15215,7.01423,8.43048,4.52622,12.89803,1.5547-.70517,3.57503-.15113,4.55261,1.24854,.97743,1.39952,.80193,3.48735-.39542,4.70418,2.82819,.18127,5.71261,.67749,8.14885,2.12516,2.43638,1.4477,4.36067,3.9996,4.43119,6.83251,.07038,2.83309-2.12777,5.72471-4.95841,5.86146,1.53335,.15345,3.11444,.32131,4.46436,1.0647,1.34978,.74326,2.41994,2.22005,2.20002,3.74534-.26823,1.86112-2.19223,2.95235-3.92344,3.68663,3.08963,2.61793,3.16664,7.8146,.59442,10.94244s-7.15454,4.17033-11.06327,3.11171c-.03187,3.14642-1.99784,6.06159-4.61217,7.81268-2.61447,1.75097-5.79914,2.46782-8.93867,2.67937-5.10521,.34379-10.59748-.73111-14.26582-4.2984H-.06338l.00101-69.32317v-.00003H-.06237v.00002Z" fill="#73a1c0"/><path d="M-.06323,87.78132c4.9277-1.63905,9.57664-1.10623,13.69937,2.0515,4.12273,3.15772,5.68392,9.70628,2.45253,13.77147,3.79308-1.14184,8.1164,2.67805,7.45045,6.58292,1.0181-5.97059,8.72308-5.2099,12.35436-2.52911,2.86409,2.11434,4.53502,5.74693,4.27646,9.29758,3.70468-1.03482,7.90629,2.40492,7.62336,6.24084,3.77534-2.26204,8.96607-1.85047,12.33791,.97817,3.37185,2.82878,4.67937,7.86895,3.10809,11.98,1.84181-.13744,3.75241-.26578,5.48102,.38446,1.72875,.65023,3.22331,2.31335,3.05416,4.15243,2.2714-2.0023,5.55442-2.79155,8.48773-2.04036,2.93317,.75105,5.43285,3.02127,6.46206,5.86879,2.53545-1.35467,5.87687-1.01347,8.08626,.82573,2.20925,1.8392,3.15063,5.06339,2.27819,7.80248H-.06338l.00014-65.36684v-.00006Z" fill="#93b6cf"/></g><g><g><g><path d="M59.76261,189.26628c-.35821-2.29447,5.27942-6.41489,6.15086-5.63097,.87144,.78405-.80828,2.33989-2.488,3.87151s-3.66286,1.75946-3.66286,1.75946Z" fill="#71a0c0"/><path d="M62.83653,189.26628s.72897-5.18019,5.34806-6.6932c4.61909-1.51314,7.41859,0,7.41859,0,0,0-1.78759,3.54088-5.03903,4.93375s-7.72762,1.75946-7.72762,1.75946Z" fill="#71a0c0"/></g><g><path d="M68.10931,174.78368c2.02812,3.17213,2.42412,7.2412,0,10.47305-1.90079,2.53427-5.27278,4.00952-5.27278,4.00952,0,0-1.55556-3.24105-.30601-7.24137s5.57879-7.2412,5.57879-7.2412Z" fill="#77a4c2"/><path d="M60.42597,187.5068s.44358-4.84032-1.45923-7.11256-4.3774-2.75506-4.3774-2.75506c0,0-.06634,3.55888,.6782,5.2246,1.3218,2.95724,5.15843,4.64303,5.15843,4.64303Z" fill="#77a4c2"/></g></g><path d="M533.52126,168.97546s-8.21893,11.10812-11.69648,34.05388c-3.47755,22.94562,11.69648,25.40939,11.69648,25.40939,0,0,13.32687-3.95588,10.80324-25.3719-2.52362-21.41602-10.80324-34.09138-10.80324-34.09137Z" fill="#84adc8"/><g><g><path d="M125.99269,101.64323s5.79395,7.83074,8.24561,24.00658c2.45151,16.17584-8.24561,17.91268-8.24561,17.91268,0,0-9.39494-2.78868-7.61585-17.88614,1.77893-15.09746,7.61585-24.03311,7.61585-24.03311Z" fill="#8db3cc"/><polygon points="126.378 124.69211 127.46201 153.1482 124.83168 153.1482 126.378 124.69211" fill="#6f9fbf"/></g><g><path d="M108.49635,80.32597s8.19211,11.07178,11.65826,33.94259c3.46631,22.87081-11.65826,25.32648-11.65826,25.32648,0,0-13.28334-3.9429-10.76794-25.28898s10.76794-33.98006,10.76794-33.98006c0,0,0-.00003,0-.00002Z" fill="#84adc8"/><polygon points="109.04116 112.91459 110.57393 153.1482 106.85483 153.1482 109.04116 112.91459" fill="#6f9fbf"/></g></g><g><g><path d="M222.91996,146.04251s-8.21893,11.10813-11.69648,34.05388c-3.47755,22.94573,11.69648,25.40957,11.69648,25.40957,0,0,13.32689-3.95601,10.8034-25.37207-2.52362-21.41602-10.80342-34.09138-10.80342-34.09138,0,0,.00002,0,.00002,.00001Z" fill="#8db3cc"/><polygon points="222.37342 178.738 220.83559 219.10341 224.56693 219.10341 222.37342 178.738" fill="#6f9fbf"/></g><g><path d="M204.06402,138.25319s-8.21893,11.10813-11.69648,34.05388c-3.47755,22.94573,11.69648,25.40957,11.69648,25.40957,0,0,13.32689-3.95588,10.80327-25.37194-2.52347-21.41619-10.80327-34.09152-10.80327-34.0915Z" fill="#84adc8"/><polygon points="203.51748 170.94866 201.97965 211.31419 205.71102 211.31419 203.51748 170.94866" fill="#6f9fbf"/></g></g></g><g><path d="M595.29604,153.1482c1.8594-2.06925,2.77399-4.8592,3.00974-7.96673,.53717-7.08057,.20737-14.22657-.97945-21.22771-1.03913-6.1291-4.36978-11.22537-11.36338-10.53703-3.58744,.35317-6.86655,2.2906-9.49329,4.75944-2.26146,2.12574-2.38649,4.98194-2.03288,7.90296-2.07267-1.87785-6.05266-.37538-6.36732,2.40365-1.1183-1.36664-2.40581-2.66278-4.02757-3.3619s-3.64051-.69506-5.03224,.39194c-1.39177,1.08719-1.81227,3.38236-.60252,4.66899-1.56956-.38993-3.36234-.1993-4.59211,.85067-1.23021,1.04995-1.65806,3.06471-.66985,4.34482-1.27132-1.44871-3.66357-1.73811-5.24396-.63438-1.57995,1.10378-2.1312,3.44956-1.20948,5.14054-1.17745-1.95359-4.23058-.95436-5.08329,.84879-1.63703-2.779-5.04839-3.99583-8.25771-4.31394-1.76078-.17463-3.616-.12573-5.18842,.68569-3.17847,1.6405-4.11541,5.6627-4.70781,9.19047-.75505-.92695-1.58959-1.82653-2.64979-2.37927-2.54787-1.3287-5.2073,.61057-6.56114,2.79184-2.59558-2.96476-6.08452-5.40112-10.01303-5.70697s-8.19975,2.05018-9.14012,5.87685c-1.54575-.685-3.15237-1.38323-4.84304-1.36074-1.69054,.02236-3.49401,.978-3.93876,2.60914-1.94636-1.04114-4.41216-1.0419-6.35909-.00172-1.86838,.99833-3.19435,2.92886-3.4904,5.02461h118.83678l.00013-.00004s0,.00003,0,.00002Z" fill="#94b8cf"/><g><g><polygon points="775.62511 106.47933 758.52281 106.47933 758.52281 96.03546 711.00699 37.91269 716.01414 34.4732 760.1667 63.03482 768.72652 96.03546 775.62511 106.47933" fill="#b2ccdd"/><polygon points="663.42881 96.03546 671.51057 63.03482 711.94855 35.08234 756.34377 66.1174 763.67039 96.03546 763.67039 153.1482 663.42881 153.1482 663.42881 96.03546" fill="#ddd"/><rect x="586.28988" y="96.03546" width="80.06369" height="57.11275" fill="#ddd"/><polygon points="585.13308 96.03546 593.21488 63.03482 674.43538 63.03482 666.35362 96.03546 585.13308 96.03546" fill="#ebf1f6"/><polygon points="593.20652 63.03482 634.78524 34.4732 716.01414 34.4732 674.43538 63.03482 593.20652 63.03482" fill="#f9fbfc"/><polygon points="656.2274 106.47933 575.00699 106.47933 585.13308 96.03546 666.35362 96.03546 656.2274 106.47933" fill="#f9fbfc"/><polygon points="720.92254 34.4732 678.07475 64.12951 670.02511 97.08282 661.31139 106.47933 656.2274 106.47933 666.35362 96.03546 674.43538 63.03482 716.01414 34.4732 720.92254 34.4732" fill="#fff"/><polygon points="716.01414 34.4732 758.86194 64.12951 766.91144 97.08282 775.62511 106.47933 780.70915 106.47933 770.58306 96.03546 762.50126 63.03482 720.92254 34.4732 716.01414 34.4732" fill="#fff"/><polygon points="756.34377 66.1174 758.86194 64.12951 718.68748 36.05964 715.97537 37.89726 756.34377 66.1174" fill="#9bbcd2"/></g><g><polygon points="678.11237 28.8562 676.17239 28.8562 676.17239 27.15384 678.11237 28.8562" fill="#9bbcd2"/><rect x="645.44519" y="26.09103" width="16.82145" height="14.1301" fill="#6e848d"/><polygon points="662.26664 40.22115 671.23803 34.4732 676.17239 34.4732 676.17239 26.09103 669.21958 19.96829 662.26664 26.09103 662.26664 40.22115" fill="#92bcd8"/><polygon points="641.21272 27.77163 650.10565 19.96829 669.21958 19.96829 660.32666 27.77163 641.21272 27.77163" fill="#f9fbfc"/><rect x="641.21272" y="27.77163" width="19.11394" height="1.08459" fill="#ebf1f6"/><polygon points="660.32666 28.8562 669.21958 21.05289 669.21958 19.96829 660.32666 27.77163 660.32666 28.8562" fill="#b2ccdd"/><polygon points="678.11237 28.8562 669.21958 21.05289 669.21958 19.96829 678.11237 27.77163 678.11237 28.8562" fill="#b2ccdd"/></g><rect x="695.36343" y="109.74419" width="38.44254" height="43.40397" fill="#4f7289"/><g><rect x="694.1231" y="110.98452" width="2.48067" height="42.16368" fill="#2e5672"/><rect x="730.08502" y="110.98452" width="2.48067" height="42.16368" fill="#2e5672"/><rect x="712.10399" y="110.98452" width="2.4808" height="42.16368" fill="#2e5672"/><rect x="694.1231" y="110.98447" width="38.44254" height="2.48066" fill="#2e5672"/><rect x="694.12314" y="131.44613" width="38.44254" height="2.48066" fill="#2e5672"/><polygon points="730.08502 110.98452 712.10399 132.68651 714.58479 132.68651 732.56568 110.98452 730.08502 110.98452" fill="#2e5672"/><polygon points="696.60377 110.98452 714.58479 132.68651 712.10399 132.68651 694.1231 110.98452 696.60377 110.98452" fill="#2e5672"/><polygon points="729.05724 153.1482 712.10399 132.68651 714.58479 132.68651 731.53804 153.1482 729.05724 153.1482" fill="#2e5672"/><polygon points="697.63136 153.1482 714.58479 132.68651 712.10399 132.68651 695.15074 153.1482 697.63136 153.1482" fill="#2e5672"/></g><g><rect x="695.36343" y="109.74419" width="2.48067" height="43.40397" fill="#f9fbfc"/><rect x="731.32535" y="109.74419" width="2.48067" height="43.40397" fill="#f9fbfc"/><rect x="713.34432" y="109.74419" width="2.48076" height="43.40397" fill="#f9fbfc"/><rect x="695.36343" y="109.74419" width="38.44254" height="2.48066" fill="#f9fbfc"/><rect x="695.36343" y="130.20583" width="38.44254" height="2.48066" fill="#f9fbfc"/><polygon points="731.32535 109.74419 713.34432 131.44617 715.82513 131.44617 733.80598 109.74419 731.32535 109.74419" fill="#f9fbfc"/><polygon points="697.8441 109.74419 715.82513 131.44617 713.34432 131.44617 695.36343 109.74419 697.8441 109.74419" fill="#f9fbfc"/><polygon points="731.32535 153.1482 713.34432 131.44617 715.82513 131.44617 733.80598 153.1482 731.32535 153.1482" fill="#f9fbfc"/><polygon points="697.8441 153.1482 715.82513 131.44617 713.34432 131.44617 695.36343 153.1482 697.8441 153.1482" fill="#f9fbfc"/></g><rect x="703.06003" y="68.11238" width="23.04931" height="25.29129" fill="#4f7289"/><g><rect x="702.02495" y="91.99504" width="23.04935" height="2.36383" fill="#2e5672"/><rect x="702.02491" y="69.06777" width="23.04935" height="2.36383" fill="#2e5672"/><rect x="702.02491" y="69.06775" width="2.364" height="25.29116" fill="#2e5672"/><rect x="722.71021" y="69.06775" width="2.364" height="25.29116" fill="#2e5672"/><polygon points="704.38891 69.06773 722.71025 91.99507 722.71025 94.35889 704.38891 71.43157 704.38891 69.06773" fill="#2e5672"/><polygon points="722.71025 69.06773 704.38891 91.99507 704.38891 94.35889 722.71025 71.43157 722.71025 69.06773" fill="#2e5672"/></g><g><rect x="703.06003" y="91.03966" width="23.04931" height="2.364" fill="#f9fbfc"/><rect x="703.06003" y="68.11231" width="23.04935" height="2.364" fill="#f9fbfc"/><rect x="703.06007" y="68.11234" width="2.364" height="25.29129" fill="#f9fbfc"/><rect x="723.74533" y="68.11234" width="2.364" height="25.29129" fill="#f9fbfc"/><polygon points="705.42403 68.11238 723.74537 91.03969 723.74537 93.40367 705.42403 70.47635 705.42403 68.11238" fill="#f9fbfc"/><polygon points="723.74537 68.11238 705.42403 91.03969 705.42403 93.40367 723.74537 70.47635 723.74537 68.11238" fill="#f9fbfc"/></g><g><rect x="606.42103" y="121.77957" width="15.60923" height="16.09365" fill="#4f7289"/><g><rect x="605.59878" y="136.75434" width="15.60923" height="1.87771" fill="#2e5672"/><rect x="605.59878" y="122.53838" width="15.60923" height="1.87785" fill="#2e5672"/><rect x="605.59882" y="122.53838" width="1.87771" height="16.09365" fill="#2e5672"/><rect x="619.33017" y="123.65742" width="1.87784" height="14.97458" fill="#2e5672"/></g><g><rect x="606.42103" y="135.99536" width="15.60923" height="1.87785" fill="#f9fbfc"/><rect x="606.42103" y="121.77957" width="15.60923" height="1.87785" fill="#f9fbfc"/><rect x="606.42108" y="121.77957" width="1.87771" height="16.09365" fill="#f9fbfc"/><rect x="620.15251" y="121.77957" width="1.87784" height="16.09365" fill="#f9fbfc"/></g><rect x="620.15242" y="121.77957" width="15.60941" height="16.09365" fill="#4f7289"/><g><rect x="620.15247" y="136.7543" width="14.78711" height="1.87771" fill="#2e5672"/><rect x="620.15242" y="122.53838" width="14.78711" height="1.87785" fill="#2e5672"/><rect x="633.06169" y="122.53838" width="1.87784" height="16.09365" fill="#2e5672"/></g><g><rect x="620.15242" y="135.99536" width="15.60941" height="1.87785" fill="#f9fbfc"/><rect x="620.15247" y="121.77957" width="15.60941" height="1.87785" fill="#f9fbfc"/><rect x="620.15251" y="121.77957" width="1.87784" height="16.09365" fill="#f9fbfc"/><rect x="633.88404" y="121.77957" width="1.87784" height="16.09365" fill="#f9fbfc"/></g></g></g></g></g><g><path d="M354.24344,161.5386c-.26836-.09044-.78203,.0819-.96273-.19064-.06273-.09501,.01903-.24613-.03952-.34868-.16136-.28178-.79415-.34726-1.08241-.37218-.1109-.00951-.23707-.02003-.305-.10817-.03173-.04122-.04498-.09343-.05321-.14479-.03202-.20059,.00462-.41157,.10225-.58968-.24141-.03619-.48713,.18475-.47646,.4286-.10153-.05048-.12776-.18215-.13066-.29548-.00563-.23536,.03778-.47199,.1269-.68988-.11275-.06372-.26187-.03375-.36296,.04717-.10124,.08089-.16107,.20332-.19742,.32764-.13425,.46103,.08839,.77481,.15676,1.20588,.07253,.45756-.2391,.82515-.53732,1.13565-.83554,.87014-1.61599,1.79308-2.33529,2.7614-.09504,.12808-.19064,.26-.23793,.41227-.13931,.44906,.20059,.93373,.63106,1.12292,.43045,.18906,.92119,.15878,1.39016,.12503l.10008-.09779c.43868,.0228,.78174,.36932,1.17472,.56542,.50328,.25107,1.08848,.25278,1.64352,.34349s1.1512,.3239,1.38842,.8338c.08652,.18589,.11739,.39484,.21256,.57638,.08608,.16424,.22121,.29921,.30284,.46579,.09675,.19755,.11103,.42341,.14853,.64015,.09906,.57378,.36659,1.10303,.63942,1.61756,.23305,.43956,.48368,.88919,.87982,1.19013,.27428,.20851,.60509,.3331,.94152,.39744,.34063,.06491,.69795,.0081,.66422,.47256l-.07268,1.00036c-.01254,.17234-.02423,.35057,.03433,.51296,.04557,.12692,.13123,.23518,.18877,.35704,.17088,.36179,.07673,.78912-.04484,1.17041-.22064,.69076-.52247,1.35555-.89755,1.9762-.05941,.09823-.11464,.24037-.02552,.31277,.03677,.02984,.08709,.03503,.1344,.03851,.40349,.02957,.80943,.02425,1.21191-.01615-.00577-.18343,.0026-.3977,.15084-.50588,.0786-.05726,.18517-.07327,.25223-.14378,.0894-.09418,.07354-.24257,.06069-.37178-.08595-.86626,.23505-1.71519,.55044-2.52666,.031-.07974,.09548-.17665,.17665-.1491,.05178,.0176,.07297,.07785,.08738,.13066,.1465,.53488,.29101,1.11588,.0848,1.63069-.16512,.41201-.53704,.72451-.65658,1.15192,.43709,.08436,.886,.10786,1.32974,.06967,.00044-.20578,.03072-.45857,.22149-.53602,.05035-.02033,.10729-.02522,.15273-.0551,.13324-.08766,.07079-.29041,.01325-.43925-.19351-.49998-.15258-1.0559-.10872-1.59033,.04168-.50861,.05367-1.03037,.12589-1.5355,.03835-.26836-.07426-.8968,.14032-1.07288,.09776-.08018,.23622-.08177,.36239-.07543,2.06475,.10456,4.02713,1.28588,6.08021,1.04375,.98148-.11579,1.8917-.55072,2.7992-.94196,.40681-.17551,.87058-.34423,1.28025-.17537,.23998,.09906,.42917,.31352,.49738,.56384,.03142,.11521,.0408,.24196,.11363,.33658,.0727,.09475,.24473,.12331,.29996,.01743,.04066-.07785-.00647-.17031-.01514-.25771-.02306-.2303,.30731-.39946,.48079-.24601-.07398,.1719-.00533,.39282,.15315,.49245,.14048-.05277,.03692-.30586,.1546-.39889,.03578-.02843,.08392-.03358,.12908-.04124,.22352-.03736,.51336-.19034,.61924-.40334,.07125-.14334-.01888-.51396,.3063-.41416,.15099,.04629,.23839,.20028,.30458,.34366,.20451,.44215,.38604,.94803,.81521,1.17846-.11002,.05853-.11794,.22035-.061,.33125,.05681,.11077,.15777,.19166,.23144,.29204,.08045,.10958,.12692,.23998,.16886,.36932,.21573,.66523,.34076,1.35973,.37073,2.05828,.0202,.47098-.03059,1.0037-.39339,1.3045-.15561,.12908-.37117,.22163-.42297,.4172,.43476,.11337,.88774,.15746,1.33623,.13009,.08551-.00519,.18444-.02134,.22625-.09603,.0444-.07917-.0007-.18057,.02293-.2681,.05814-.21617,.42107-.15201,.55332-.33253,.1249-.17075-.04295-.39744-.07195-.6071-.03103-.22383,.10399-.4326,.16758-.64952,.10329-.35273,.01545-.73155,.04788-1.0977,.06144-.69507,.55319-1.33953,.43824-2.02782-.03965-.23795-.15183-.46592-.14246-.70691,.00533-.1344,.04832-.26405,.08018-.39471,.11438-.46869,.0848-.97139-.08366-1.42332-.04357-.1168-.09704-.23822-.07627-.36109,.01443-.08595,.06403-.16151,.09242-.24385,.06214-.18083,.01844-.37896-.02566-.56504-.07974-.336-.18836-.6743-.26-1.00947-.06848-.32087-.02482-.63799-.02438-.97066,.00101-.78045-.09488-1.55715-.18994-2.33051-.05321-.43278-.10756-.87058-.26291-1.27796-.26418-.69262-.81288-1.25675-1.4617-1.61568-1.50654-.83352-3.00309-.37913-4.58001-.03736-1.12195,.24297-2.26793,.35114-3.41092,.45876-.86897,.08177-1.74087,.16366-2.61331,.13585-1.01882-.03261-2.02611-.21459-3.03108-.38478-2.17175-.36772-4.35246-.68266-6.5395-.94455-.28379-.03402-.57178-.06808-.83612-.17678-.17694-.07271-.34016-.17766-.52146-.23866l-.00004,.00004v.00003Z" fill="url(#g)"/><path d="M422.38108,162.53749c.01558-.53673,.20882-1.04995,.33627-1.57171,.19672-.80484,.20578-1.61309,.21547-2.43508,.00968-.82644-.00766-1.66128-.23593-2.46307-.22656-.79603-.6805-1.55526-1.37962-1.99842-1.15597-.73242-2.64663-.45785-4.00864-.32517-1.9178,.1869-3.84498,.03662-5.76295-.06821-1.81755-.0995-3.57674,.04832-5.39192,.1918-.68209,.05394-1.39881-.03807-2.06347,.0864-.6508,.12186-1.29354,.32333-1.85148,.68816-.66624,.43551-1.42086,1.17758-1.72038,1.91895-.36413,.90129-.4701,1.91578-1.03239,2.73112-.1638,.23751-.36267,.44994-.51596,.69437-.41949,.66797-.4583,1.49529-.56502,2.27673-.10659,.78146-.33931,1.62422-.98795,2.07298-.06447,.04457-.14725,.08564-.21793,.05175-.03952-.01875-.06531-.05712-.08925-.09361-.15707-.23998-.28914-.6273-.62558-.4958-.0294,.01154-.05593,.02522-.08018,.0411-.22484,.1465-.23606,.46451-.23606,.70216,.04458,.25366,.19483,.47776,.37222,.66447,.06518,.06865,.13827,.14105,.14923,.23504,.00907,.07816-.02768,.15372-.06632,.22224-.14276,.25278-.32663,.48224-.44963,.74529s-.17898,.57898-.05365,.841c.09721,.20332,.29173,.35026,.3761,.55939,.09805,.24297,.029,.51772-.04097,.77037-.10355,.37306-.2068,.74625-.31035,1.11962-.08133,.29318-.60987,.91871-.44444,1.21767,.03965,.07181,.10747,.1256,.14364,.19914,.0268,.05435,.03446,.11595,.05378,.17348,.17722,.53012,.93188,.23332,1.30032,.16468,.13282-.02464,.26709-.04972,.39124-.10298,.30806-.13181,.45698-.39237,.65859-.63839,.18057-.22022,.40149-.39454,.61907-.58374,.14637-.1272,.29706-.26,.37667-.43678,.04282-.09501,.06372-.20029,.11913-.28856,.09704-.15443,.27963-.22902,.41632-.34956,.29979-.2649,.34322-.70893,.36602-1.10836,.02755-.48453,.0551-.96907,.08278-1.45361,.04027,.07786,.1513,.08708,.23346,.05656s.15258-.08899,.23663-.11363c.14796-.04357,.30256,.02407,.45021,.06835,.61475,.18475,1.33535-.07209,1.69485-.6038,.04066,.32449,.29204,.61247,.60811,.69652,.0881,.02336,.18356,.03389,.25683,.08824,.09044,.0675,.12472,.18532,.14985,.29534,.27413,1.20328,.10698,2.50215-.46293,3.59668-.17278,.33194-.38041,.64433-.58751,.95595,.39528,.18658,.8498,.24517,1.27955,.16456,.07512-.01414,.15746-.03779,.19685-.10339,.06949-.11552-.02913-.30168,.07834-.38299,.03547-.02698,.0826-.03072,.12503-.04457,.20306-.06619,.2486-.32822,.25899-.54166,.02002-.40668,.03996-.81333,.05985-1.21983,.03028-.61704,.08885-1.29872,.53629-1.72443,.20882,.3614,.36831,.75132,.47256,1.15553,.14809,.57422,.17476,1.21868-.13009,1.72746-.10672,.17797-.25393,.34147-.28883,.54597,.45298,.12978,.93487,.15733,1.39969,.08018-.08366-.19311,.32417-.24676,.37218-.45166,.01285-.05493-.00431-.11205-.0209-.16612-.20275-.65656-.36743-1.32483-.49289-2.00045-.04022-.21674-.07671-.4381-.04744-.65656,.03015-.22524,.12921-.43999,.13357-.66726,.00546-.29693-.15113-.57365-.1836-.86899-.02641-.23937,.00158-.48744-.01659-.71237-.01228-.15245-.16239-.37278-.13093-.51076,.01584-.06921,.07556-.11855,.13167-.16222l.64217-.50024c.08291-.06474,.16754-.13022,.26577-.16829,.10096-.03895,.21098-.04687,.31915-.04991,1.26542-.03635,2.59888,.51525,3.78733,.8958l.47155,.151c.40466,.12964,.81966,.26072,1.24421,.24341,.34969-.01426,.68644-.12864,1.03019-.1944,.8351-.15979,1.72372-.0235,2.47257,.37913-.01919,.34741-.02236,.73921,.22163,.98711l.13933-.20926c.05954,.05523,.13959,.0881,.22075,.09083,.0294-.19755,.04053-.3977,.03305-.59715,.12965-.07239,.30168-.00867,.39682,.10527,.09519,.11407,.13123,.2649,.16037,.41056,.27026,1.35323,.17911,2.77698-.26132,4.08482-.17867,.53012-.46293,.85715-.823,1.27796-.0375,.04396-.07671,.09142-.08366,.14884-.01888,.1579,.19122,.22742,.34987,.2391,.32707,.02394,.70761,.02654,.91758-.22524,.04559-.05453,.08032-.11882,.13528-.1638,.14536-.1187,.35836-.05814,.54597-.06029,.02755-.00031,.05668-.0026,.07961-.01774,.06746-.04484,.03274-.14782,.00145-.22251-.15201-.36241-.03666-.77539,.07988-1.15047,.09141-.29477,.89883-3.4272,.98033-3.4258,.15011,.00273,.17379,.17405,.19381,.30947,.03978,.26837,.22568,.48771,.36021,.72332,.25366,.44444,.36958,1.01765,.38129,1.52657,.00449,.1902-.04933,.36241-.04212,.55002,.01039,.27084,.14408,.52735,.15504,.80122,.01298,.32491-.11407,.62659-.26159,.90877-.07741,.14796-.37522,.47604-.25076,.63538,.19799,.25336,1.09238-.03521,1.24738-.22916,.09475-.11825,.16714-.27571,.31294-.31713,.04757-.01342,.09964-.01285,.14334-.03578,.08106-.04238,.10412-.15214,.08164-.24081s-.0786-.16424-.12243-.24473c-.1465-.26938-.15258-.59081-.14835-.89756,.00836-.62743,.0441-1.2546,.10698-1.87903,.02843-.28205,.0375-.58734,.10241-.86335,.06245-.2665,.20622-.50227,.20636-.78405,0-.09691-.01615-.1944-.00202-.29027,.01426-.09704,.05853-.18674,.09849-.27629,.25336-.56731,.35317-1.20209,.2861-1.81975-.07525-.6935-.35559-1.3636-.33512-2.061v-.00013Zm-.15069-1.16763c-.18616,1.17717-.37236,2.35432-.55838,3.5315-.22902-.22022-.31264-.55015-.35101-.86538-.12661-1.03842,.18127-2.0372,.28724-3.05457,.05378-.51596,.28711-1.03398,.41346-1.53898,.1322-.52851,.24068-1.0628,.32518-1.60098,.09981,.13687,.09849,.32029,.09317,.48959-.03287,1.02833-.04903,2.02294-.20966,3.03887v-.00006Z" fill="url(#h)"/><path d="M467.181,142.79125c-.3412,.19268-.62325,.39743-1.00713,.49752-.36065,.09418-.75448,.03041-1.09713-.06821-.72953-.20983-.82142-1.22303-.9101-1.84643-.00418-.02869-.00867-.05897-.02724-.08133-.03662-.0444-.11249-.03331-.15284,.00766s-.05422,.10065-.06416,.1572c-.08912,.50199-.02394,1.14039,.13453,1.62721,.12573,.38478,.43234,.57999,.78361,.72781,.37781,.15891,.77899,.30068,1.1877,.26779-.01571,.20002-.20737,.34943-.40435,.38705-.35792,.06865-.69076-.07786-1.03944-.11077-.45918-.04339-.91934,.07543-1.37328,.12331-.40105,.04213-.8054,.03085-1.2083,.04097-.50385,.01285-1.00599,.05941-1.50637,.11611-.20363,.02293-.42803,.01716-.62642,.05422-.23258,.04339-.46033,.15962-.69406,.21313-.67645,.1546-1.37588,.16398-2.06549,.11926-.30181-.01963-.5931-.06575-.8902-.02781-.3324,.04256-.67808,.02769-1.01334,.02812-.78146,.00088-1.5241-.0251-2.29187-.1667-.2538-.04687-.50817-.09374-.76544-.1142-.67606-.05351-1.37645,.12098-2.02782-.07341-.35242-.10514-.73111-.137-1.09181-.20389-.4264-.07917-.85227-.16151-1.27752-.24632-.29996-.05972-.56903-.08524-.83898-.23161-.44774-.24297-.97558-.19742-1.46614-.23967-.52-.04484-.96792-.32923-1.50452-.25265-.23879,.03402-.63236,.15473-.79488,.34784-.17102,.20319-.2189,.48726-.43362,.70286-.45153,.45324-1.08934,.89421-1.35423,1.4852-.25969,.57915-.25741,1.25042-.2277,1.87208,.04198,.88356,.12054,1.76522,.23518,2.64232,.12344,.94398,.11262,2.04022-.13788,2.96503-.10426,.38516-.25683,.75752-.33328,1.1492-.12547,.64229-.04097,1.30463,.0437,1.95359,.04845,.37002,.04643,1.2288,.45179,1.39651,.0962,.03978,.18026-.84593,.20072-.91067,.1168-.36641,.22365-.59601,.22251-1.01234-.00374-1.31331,.04616-2.4789,.01386-3.79191,.97598,1.42103,1.15566,3.35323,.45857,4.92987-.11033,.24935-.24068,.54078-.10857,.77931,.04757,.08595,.12402,.15143,.18893,.2251,.36584,.41446,.3386,1.02879,.40101,1.57806,.0793,.69768,.33372,1.36303,.46592,2.05251,.13225,.68961,.12661,1.45316-.26792,2.03403,.20217,.07786,.42411,.10355,.63869,.07398,.10122,.20926,.14536,.44588,.12604,.67764,.49721,.0577,.99934,.07239,1.49919,.04414,.08423-.00476,.17203-.01184,.24398-.05593,.21661-.13238,.14048-.46047,.03807-.69262l.53818-.08392c.04124-.00633,.08652-.01501,.11293-.04744,.0228-.02799,.02552-.06707,.02438-.10311-.01096-.35044-.27717-.63033-.49303-.90662-.63047-.80685-.92713-1.86662-.80712-2.88357,.03996-.33728,.12344-.66726,.22281-.99142,.08221-.2681,.22264-.53629,.26634-.80888,.04933-.30745,.08366-.59803,.1961-.89249,.03534-.09259,.44057-.73764,.42657-.76659,.0496,.10298,.0992,.20592,.14897,.30876,.03547,.07385,.08722,.15847,.16899,.15934,.04066,.00045,.07829-.02134,.10989-.04674,.30542-.24529,.17925-.75795,.40004-1.08155,.14422-.21127,.42411-.32029,.51468-.55966,.0173-.04586,.0268-.09519,.05206-.1373,.03547-.05928,.09721-.09691,.15663-.13211l.41909-.24891c.04568-.02711,.09475-.05523,.14796-.05365,.04819,.00129,.09202,.02681,.13326,.05206,.34753,.21211,.62813,.50474,.97901,.69969,.53748,.29864,1.09511,.56877,1.69041,.73054,.58461,.15891,1.19303,.21098,1.79854,.2336,1.32369,.0496,2.65252-.03779,3.95847-.26031,.60424-.10298,1.25649-.22858,1.80532,.04427,.63091,.31378,.91916,1.06109,1.00643,1.76021,.0874,.69925,.03199,1.42115,.23162,2.09692,.07803,.26391,.19351,.51538,.27571,.77798,.1605,.51336,.19007,1.05717,.21846,1.59451,.01945,.368,.03375,.7591-.14796,1.07966-.07468,.13181-.18057,.24733-.2303,.39036-.12331,.35488,.13295,.71932,.3735,1.00788,.07701,.09259,.15905,.18862,.27127,.23219,.08194,.03173,.17203,.03217,.25974,.03217l.73389,.00045c.27849,.00031,.64706-.07803,.66479-.35591,.00849-.13238-.16613-.37508,.11869-.28453,.20578,.06548,.42657,.08292,.63997,.05092,.06548-.00995,.13295-.02566,.184-.06777,.06504-.05351,.09246-.14188,.09444-.22612,.00691-.28306-.22066-.50733-.39973-.72652-.41157-.50359-.56859-1.08934-.66409-1.71937-.0529-.34842-.0848-.71325,.0323-1.04552,.12793-.36356,.41764-.64345,.61678-.97325,.34107-.56472,.10126-1.22982,.33512-1.79032,.2721,.07125,.55662,.1429,.83136,.08278,.21256-.04656,.40048-.16842,.60595-.2398,.26489-.09202,.64908-.07771,.86063-.29103,.08076-.08146,.13238-.18658,.18963-.28609,.33112-.57479,.98249-.77437,1.1877-1.41008,.20147-.62426,.24068-1.22102,.32923-1.85377,.10659-.76214,.53906-1.58774,.78982-2.31655,.01646-.048,.03635-.10008,.08089-.12446,.10298-.05656,.20275,.07703,.3096,.12573,.20248,.0923,.40827-.13485,.62963-.15803,.28698-.02984,.57163,.28667,.82762,.15315,.17735-.09273,.21833-.35863,.40549-.42973,.09906-.03763,.21445-.00836,.31277-.04775,.09488-.03807,.15487-.13282,.19051-.22858,.21269-.57237-.23923-1.16662-.30674-1.77345-.02742-.24557,.00951-.4932,.03648-.73877,.05853-.53558,.06949-1.07623,.03261-1.61366-.00621-.09171-.01342-.1869,.01976-.27256,.06029-.15516,.24588-.30978,.15011-.44604,.24429-.02566,.48942,.18589,.70849,.2707,.25714,.0995,.62976,.23479,.90275,.14967,.16842-.0525,.31466-.15702,.4697-.24125,.33284-.18071,.71311-.27026,1.02663-.48295,.05681-.03851,.11319-.08365,.14061-.14669,.04933-.11349-.00981-.2424-.06777-.35185-.06562-.12415-.13383-.25151-.24024-.34335-.05655-.04876-.12186-.08564-.18673-.12243l-.49276-.27862c-.11895-.0672-.23936-.13511-.3709-.1719-.25829-.07226-.53488-.01832-.79096,.06156-.17995,.05624-.36122,.12604-.54984,.12129-.25195-.00633-.69753-.27602-.71584-.54786,.49796-.01369,.99345-.11161,1.45923-.28826,.16886-.06403,.33556-.13929,.47965-.24834,.13915-.1054,.25366-.23967,.36237-.37636,.43366-.54584,.80078-1.17833,.85931-1.87296,.00361-.04269-.00722-.10109-.05004-.10223-.02641-.0007-.04586,.02324-.06086,.04498-.23835,.34582-.44242,.71496-.69481,1.05054-.25234,.3357-.56142,.64257-.94671,.80958-.47358,.20508-1.01061,.18026-1.52586,.15169-.12371-.00691-.28236-.05351-.37522-.13541-.73402-.64908-1.88682-.77063-2.74006-.28883l-.00031-.00018v.00003Z" fill="url(#i)"/><path d="M269.96328,137.6279c-.34133,.19268-.62327,.39743-1.00713,.49765-.36067,.09401-.75466,.03029-1.09729-.06821-.72955-.20983-.8214-1.22318-.91007-1.84655-.00405-.02869-.00865-.05897-.02713-.08133-.03664-.04427-.11249-.03331-.153,.00766-.04038,.04097-.05409,.10065-.06416,.15733-.08912,.50183-.02392,1.14026,.13471,1.62709,.1256,.3849,.43216,.57999,.78346,.72781,.37781,.15891,.77915,.3008,1.18768,.26792-.01571,.20002-.20737,.34925-.40435,.38705-.35792,.06849-.69076-.07786-1.03944-.11089-.45916-.04339-.91918,.07556-1.37328,.12331-.4009,.04225-.80525,.03085-1.20832,.0411-.50372,.01267-1.00584,.05928-1.50639,.11596-.20347,.02306-.428,.01716-.62644,.05435-.23261,.04339-.46017,.15962-.69393,.21301-.67648,.1546-1.37601,.16398-2.06563,.11938-.30183-.01963-.59297-.06575-.89005-.02781-.33255,.04256-.67821,.02769-1.01349,.02812-.7813,.0007-1.52397-.0251-2.29174-.16684-.2538-.04674-.50819-.09374-.76559-.11407-.67604-.05351-1.37645,.12085-2.02769-.07341-.35244-.10527-.73113-.137-1.09178-.20389-.42642-.07917-.85227-.16151-1.27768-.24632-.29994-.05972-.56903-.08537-.83885-.23176-.4479-.24297-.97556-.19729-1.4663-.23954-.52-.04484-.96777-.32923-1.50452-.25278-.23881,.03419-.6322,.15487-.79486,.34797-.17104,.20319-.2189,.48726-.43364,.70272-.45137,.45324-1.08919,.89421-1.35425,1.4852-.25956,.57928-.25727,1.25054-.2277,1.87225,.04212,.88343,.12056,1.76522,.2352,2.64232,.12344,.94398,.11262,2.0401-.13772,2.96489-.10426,.38534-.25683,.75765-.33341,1.14933-.12531,.64217-.04095,1.30463,.04383,1.95344,.0483,.37002,.0463,1.2288,.45166,1.39651,.09633,.03996,.18026-.84593,.20088-.91054,.11667-.36659,.22352-.59614,.22237-1.01234-.00361-1.31343,.0463-2.47905,.01384-3.7919,.976,1.42086,1.15582,3.3531,.45857,4.9297-.11018,.24947-.24068,.54078-.10859,.77943,.0476,.08582,.12402,.15126,.18906,.22498,.36571,.41461,.33845,1.02892,.4009,1.57819,.0793,.69753,.33369,1.3629,.46594,2.05251s.12661,1.45303-.26779,2.0339c.20204,.07786,.42398,.10368,.63854,.07411,.10137,.20926,.14536,.44588,.12617,.67747,.49708,.0577,.99934,.07253,1.49904,.04427,.08421-.00476,.17203-.01197,.24398-.05593,.21661-.13238,.14061-.46047,.03822-.69278,.17927-.02781,.35865-.0558,.53803-.0838,.04139-.00648,.08652-.01501,.1129-.04744,.02277-.02812,.02552-.06707,.02438-.10323-.01083-.35044-.27719-.63033-.49305-.90649-.63047-.80685-.9271-1.86674-.80698-2.88369,.03981-.33716,.12344-.66726,.22279-.99142,.08203-.2681,.22251-.53629,.26619-.8087,.04931-.30745,.08379-.59815,.19612-.89249,.03534-.09259,.4407-.73764,.42671-.76676l.14881,.3089c.03547,.07367,.08725,.15834,.16917,.15934,.04051,.00045,.07814-.02134,.10987-.04687,.30529-.24529,.17911-.75795,.39988-1.08142,.14422-.21127,.42426-.32043,.51468-.55966,.0173-.04586,.02698-.09532,.05219-.13744,.03547-.05911,.09721-.09677,.15647-.13194l.41907-.24891c.04586-.02724,.09475-.05523,.14796-.05378,.0483,.00145,.09215,.02698,.13326,.05206,.34769,.21211,.62831,.50474,.97917,.69969,.53732,.29864,1.09511,.56877,1.69026,.73071,.58476,.15891,1.19316,.21084,1.79856,.2336,1.32382,.0496,2.65268-.03779,3.95847-.26044,.60424-.10298,1.2566-.22858,1.80532,.0444,.63091,.31378,.91931,1.06091,1.00656,1.76021s.03188,1.42115,.23159,2.09692c.07787,.26391,.19353,.51525,.27558,.77785,.16065,.51353,.19007,1.05729,.21848,1.59451,.01947,.368,.03375,.7591-.14796,1.07984-.07455,.13167-.18054,.24715-.2303,.39022-.12316,.35488,.1331,.71932,.3735,1.00803,.07715,.09242,.15907,.18862,.27142,.23219,.08175,.0316,.17188,.03217,.25969,.03217l.73373,.00045c.27862,.00013,.64706-.07816,.66495-.35603,.00849-.13238-.16613-.37495,.11867-.28437,.20563,.06531,.42644,.08292,.63986,.05074,.06546-.00982,.13295-.02552,.184-.06765,.06504-.05365,.09244-.14188,.0946-.22625,.00693-.28293-.22064-.50733-.39988-.72652-.41141-.50341-.56846-1.08921-.66407-1.71923-.05279-.34842-.08465-.71325,.0323-1.04564,.12806-.36341,.41762-.64333,.61691-.97325,.34091-.56458,.10124-1.22982,.33515-1.79017,.27195,.07125,.55649,.14276,.83134,.08265,.21256-.04656,.40032-.16842,.60595-.2398,.26475-.09185,.64908-.07771,.86048-.29085,.08091-.08164,.13238-.18658,.18979-.28609,.33094-.57479,.98231-.77437,1.18752-1.41022,.2016-.62413,.24084-1.22084,.32936-1.85364,.10657-.76214,.53891-1.58774,.78969-2.31669,.01659-.04788,.03648-.10008,.08091-.12446,.10311-.05637,.20275,.07703,.30962,.12573,.20246,.0923,.40824-.13485,.62961-.1579,.28713-.03001,.57178,.28667,.8276,.15302,.17738-.09259,.21848-.35863,.40552-.42973,.09906-.03763,.21443-.00823,.31292-.04775,.09473-.03795,.15487-.13282,.19049-.22858,.21271-.5722-.23923-1.16649-.30687-1.77333-.02726-.24557,.00968-.4932,.03648-.7389,.05869-.53545,.06964-1.07623,.03274-1.61366-.00634-.09158-.01355-.18674,.01976-.27241,.06012-.15516,.24572-.3099,.15011-.44604,.24414-.02566,.48929,.18575,.70849,.2707,.25712,.0995,.62963,.23479,.90259,.14967,.16844-.0525,.31466-.1572,.4697-.24125,.33281-.18071,.71322-.27026,1.02659-.48295,.05681-.03851,.11321-.08365,.14061-.14669,.04931-.11363-.00966-.2424-.06764-.35185-.06575-.12432-.13396-.25151-.24024-.34335-.05653-.04876-.12199-.08582-.18688-.12243l-.49261-.27862c-.11898-.0672-.23938-.13511-.37104-.1719-.25826-.07226-.53486-.01844-.79081,.06156-.18013,.05624-.36124,.12604-.54989,.12114-.2519-.00633-.69751-.27602-.716-.54786,.49796-.01355,.99358-.11147,1.45923-.28812,.16901-.06415,.33556-.13946,.47963-.24847,.13915-.1054,.2538-.23954,.36241-.37622,.43362-.54584,.80091-1.17846,.85946-1.87309,.00359-.04256-.00737-.10109-.05006-.10223-.02638-.0007-.04601,.02336-.061,.04515-.23824,.34582-.44244,.71483-.69481,1.05054-.25221,.3357-.56139,.64245-.94671,.80945-.47342,.20521-1.01061,.18026-1.52586,.15169-.12358-.00678-.28236-.05334-.37508-.13541-.73402-.64908-1.88693-.7705-2.74008-.28883,0,0,.00009-.00026,.00009-.00025Z" fill="url(#j)"/><path d="M284.01164,175.6475c.02596,.07701-.08205,.32549-.09748,.41416-.02726,.15676-.04383,.31523-.05219,.47402-.0173,.3272,.03461,.63984,.05105,.9626,.03347,.65586,.00231,1.25631,.19986,1.89861,.03015,.09792,.06416,.19641,.12474,.27888,.04845,.06619,.11277,.12014,.15546,.1902,.10729,.17595,.05409,.40263,.09301,.60507,.05985,.3122,.3412,.57625,.3024,.89161l-.96935,.09215c-.31352,.02984-.68959,.03261-.87014-.22554-.14492-.20724-.11392-.53026-.32359-.67157-.12791-.08639-.31092-.07327-.42224-.18026-.13137-.12617-.08927-.35216,.01701-.50011,.10628-.14782,.26203-.25512,.36514-.40523,.2117-.30775,.15995-.71857,.0995-1.08719-.13874-.8465-.31869-1.69573-.39456-2.54769-.04196-.46983-.03043-1.03165-.2815-1.44467-.06157-.10122-.13671-.19742-.16728-.31176-.05336-.20002,.03965-.40695,.1331-.59169,.28568-.56428,.5999-1.11834,.80179-1.71778,.38186-1.13432-.20622-2.49664-.62716-3.54488-.37942-.94498-.88717-1.98413-.8517-3.01899-.21932,.90244-.20015,1.76122-.15141,2.67589,.05624,1.05876-.10859,2.13023,.03763,3.18177,.06201,.44616,.35592,.88197,.35099,1.32281-.00563,.49392-.44257,.95046-.30962,1.42622,.03043,.10888,.08927,.20737,.1386,.30916,.23547,.4877,.17535,.93562,.09141,1.44524-.0881,.46231,.04586,.81187,.10426,1.26744,.00288,.02249,.00405,.04933-.01384,.06333-.01961,.01545-.04801,.00449-.0698-.00766-.10989-.06188-.30513-.35849-.40552-.37134-.14507-.01844-.14204,.2688-.25956,.14206-.03015-.03243-.04313-.07671-.05494-.11939-.08221-.29301-.13396-.53413-.16857-.83339-.04443-.38477-.16943-.75651-.18818-1.14488-.02222-.46103,.10439-.92999,.00288-1.38019-.03721-.16424-.10384-.321-.13816-.48599-.11724-.56384,.1491-1.10695,.29607-1.63778,.13526-.48844,.0659-1.03829,.06676-1.54575,.00216-1.22704-.06907-2.45269-.08621-3.67928-.01256-.8961-.04601-1.79568,.04614-2.68902,.04183-.40592,.11953-.81489,.17982-1.21349,.06172-.40852,.3298-.70778,.61865-.99213,.24312-.23923,.49463-.4701,.75391-.6919,.78045-.66752,2.11091-.36311,3.05012-.40608,.84692-.03863,1.68449-.21186,2.53401-.20636,.87132,.00563,1.73165,.28943,2.5829,.4616,1.80503,.36528,3.61569,.71267,5.44468,.93518,1.35856,.16539,2.72738,.26172,4.09664,.23923,.70013-.01154,1.39131-.07587,2.0884-.13194,.60424-.04859,1.18552-.24385,1.80404-.24746,.78766-.00449,1.572,.18704,2.35692,.12274,.48929-.04009,.96979-.17925,1.46082-.17721,.43335,.00172,.86076,.11363,1.29411,.11337,.85803-.00031,1.13419-.56313,1.73554-.99301,.49017-.35026,1.26874-.26228,1.62955,.23461,.11898,.1638,.20173,.36601,.37464,.47129,.17766,.10817,.41056,.08724,.59068,.19122,.28005,.16151,.35273,.57365,.64851,.704,.23811,.10499,.50702-.01904,.75464-.09893,.56241-.18155,1.19793-.12358,1.71822,.15676,.05783,.03116,.11926,.07125,.13513,.13497,.01226,.04933-.00621,.10052-.0261,.14725-.37104,.87317-1.39016,1.41781-2.32231,1.24117-.15242-.029-.34177-.06201-.43564,.06156-.03345,.04396-.04614,.0998-.05798,.15385l-.64202,2.93246c-.02407,.10989-.0483,.22163-.03937,.33371,.01153,.14536,.07759,.27976,.13944,.41186,.12329,.26318,.23681,.5516,.18358,.83726-.06258,.3357-.35,.59429-.6684,.71799s-.66754,.13612-1.00885,.14708c-.16211,.00519-.32925,.00967-.48066-.04845-.24053-.09215-.40739-.32879-.65368-.40436-.30947-.09489-.64791,.10641-.81636,.38299s-.2068,.61044-.24125,.93231c-.0639,.06765-.04069,.01716,.03386,.07271,.0747,.05566,.1732,.06431,.26608,.06937,.47096,.02552,.93186-.00735,1.40024-.04815,.37335-.03261,.69364-.23839,1.07909-.23763,.31856,.00057,.64202,.11535,.86567,.34208,.15401-.11407,.28062-.1569,.44545-.24197,.22064-.11407,.42743-.25973,.66435-.33429,.44171-.13903,.95941,.00792,1.26225,.35805,.03303,.0382,.06518,.07974,.1109,.1014,.04848,.02306,.10498,.01988,.15834,.01355,.31279-.03707,.60567-.1664,.90763-.25582,.30199-.08925,.63594-.13657,.92523-.01242,.13583,.0584,.26865,.18243,.24891,.32892-.00893,.06548-.04716,.12288-.08681,.17549-.39095,.51754-1.05185,.81865-1.6989,.7741-.06951-.00476-.14897-.00982-.19815,.03965-.02898,.02925-.04009,.07138-.05004,.11147-.10311,.4172-.29693,.77075-.30817,1.21393-.01039,.40909,.06042,.88874-.24255,1.16377-.215,.19513-.55,.19901-.82168,.09677-.06749-.02539-.1357-.05712-.20781-.05523-.26073,.00665-.30383,.36628-.37119,.61823-.12358,.46218-.56267,.75378-.94772,1.03759-.23291,.17159-.45643,.35964-.65731,.56819-.17738,.18413-.29589,.38243-.55044,.47344-.05048,.01804-.10498,.03287-.14191,.07182-.04152,.04383-.0512,.108-.05884,.16798l-.10124,.79299c-.01384,.10817-.02768,.21661-.02581,.32549,.00462,.26995,.1155,.53488,.09301,.8054-.02163,.25873-.11537,.53488-.18314,.78652-.14232,.52867-.20939,1.0775-.19872,1.62492,.0026,.1315,.01083,.26735,.0685,.3856,.05494,.11249,.14998,.19931,.23362,.29244,.153,.17044,.43291,.5112,.46623,.74498,.05321,.37117-.66825,.27413-.93287,.28755-.09374,.00475-.19597,.00621-.27081-.05017-.1014-.07644-.11235-.22757-.19815-.321-.20376-.2218-.36052-.24834-.20391-.57321,.2694-.55908,.24502-1.20887,.21487-1.82855-.00779-.16164-.01701-.32866-.08956-.47327-.05668-.11306-.14824-.20451-.2163-.31105-.28755-.45051-.10571-1.06509-.31422-1.55728-.09688-.22858-.27371-.41804-.35951-.65111-.07338-.19945-.0685-.46275-.16279-.64833-.09418-.18532-.30775-.26665-.4883-.37552-.09504-.05726-.19236-.11565-.30111-.13801-.14824-.03041-.30053,.0088-.44963,.03459-.37062,.06416-.75534,.04498-1.11775-.05593-.10771-.03001-.2277-.06606-.32676-.01386-.08148,.04295-.12415,.13453-.19309,.19571-.16959,.15055-.43465,.08062-.64142-.01184-.3151-.14087-.61489-.31594-.89249-.52115-.16468,.22295,.05149,.52361,.07297,.7999,.01802,.23118-.10599,.44576-.19698,.65903-.25785,.6041-.26376,1.28144-.26577,1.93813-.00026,.09,.00117,.18602,.05164,.26044,.04355,.0643,.11623,.1014,.18327,.14074,.49378,.29072,.80395,.86785,.77395,1.43991l-.79675,.04876c-.23751,.01457-.54857-.02205-.60164-.25393-.01631-.07081-.00187-.14694-.0248-.21586-.05292-.15935-.2587-.19236-.40017-.28306-.15502-.09937-.2391-.28293-.26506-.46521s-.00202-.36743,.01399-.55085c.07543-.86741-.03015-1.75008-.30802-2.57524-.32401,.10844-.55041,.4117-.71311,.69665-.19381,.33931-.36441,.64675-.60234,.96836-.03994,.05395-.08161,.11293-.08161,.18013,0,.06056,.03433,.11521,.06894,.16499,.19036,.27413,.42541,.51525,.61662,.78894,.19122,.27356,.34076,.59455,.32505,.92809-.36945,.06302-.74729,.07627-1.12004,.03908-.04601-.00462-.09763-.00836-.13341,.0209-.02119,.0173-.03287,.04339-.04297,.06892-.15949,.40092-.10454,.88026,.14162,1.23457,.10267,.14782,.23492,.27342,.33515,.42297,.10023,.14941,.16772,.33614,.11796,.50918-.46088,.02381-.92365,.01426-1.38323-.02843-.05365-.00506-.10974-.01127-.15414-.04154-.15663-.10659-.04458-.38952-.18259-.51899-.07037-.06606-.18286-.06707-.25683-.12877-.11321-.09444-.08379-.27488-.02755-.41113,.19755-.47833-.17218-.94543-.03144-1.43142,.04212-.14549,.12806-.27386,.19309-.41056,.33873-.7121,.08725-1.54677,.05567-2.33469-.00519-.12952-.00361-.26247,.04183-.38375,.06835-.18215,.22713-.31638,.31061-.49201,.14118-.29693,.04471-.64477-.01859-.96735-.13253-.67531-.06258-1.36479-.04443-2.04745-1.58642-.10179-3.17052,.20895-4.74845,.27602-1.86272,.07917-3.6656-.08925-5.40358-.76588-.06835-.02667-.13973-.05322-.21285-.04744-.09028,.00709-.16873,.06171-.2424,.11451-.2479,.17766-.52203,.4051-.51556,.71008,.00275,.12793,.05681,.24834,.10628,.36641,.0982,.23461,.18156,.47529,.24933,.72046,.02955,.10659,.05637,.21846,.03417,.32694s-.10729,.21186-.21775,.2189c-.12459,.0081-.22222-.10021-.29908-.19857l-.70488-.9016c-.03158-.0404-.0698-.08436-.12113-.08626-.03417-.00114-.06562,.01716-.09488,.0349-.29158,.17709-.58331,.35405-.87491,.53096,.05263,.39872,.10542,.7973,.15806,1.19593,.00953,.07107,.01818,.14681-.01226,.21168-.05783,.12287-.23476,.14549-.3546,.08164s-.19527-.18589-.26506-.30238l-.48713-.81231c-.13744,.10817-.16813,.30124-.18026,.47573-.06562,.95336,.12648,1.90337,.31754,2.83943,.06705,.32835,.13715,.66466,.31481,.94873,.17348,.27747,.44156,.49118,.58562,.78476,.17852,.36382,.15141,.82023,.40219,1.1385,.1122,.14232,.26865,.24099,.40912,.35532,.14032,.1142,.27241,.25771,.303,.43621,.09688,.56802-1.48909,.37002-1.79165,.37337-.07902,.0007-.16224,.00057-.23102-.0382-.1478-.08335-.15429-.28724-.19108-.45294-.06273-.28205-.27254-.52722-.5415-.63249-.06689-.02623-.13786-.04471-.19755-.0845-.14162-.09444-.1853-.28495-.17608-.45496s.05913-.33702,.05479-.50733c-.00361-.14505-.04656-.2861-.09158-.42411-.12215-.37438-.2378-.81187-.44213-1.15047-.4482-.74282-.7046-1.54188-.9806-2.36154l-.00011-.00031v.00011Z" fill="url(#k)"/></g></g></g></svg>