<?xml version="1.0" encoding="UTF-8"?>
<!-- Generator: Adobe Illustrator 25.2.0, SVG Export Plug-In . SVG Version: 6.00 Build 0)  -->
<svg version="1.1" id="Layer_1" xmlns="http://www.w3.org/2000/svg" xmlns:xlink="http://www.w3.org/1999/xlink" x="0px" y="0px" viewBox="0 0 645.4415283 165" style="enable-background:new 0 0 645.4415283 165;" xml:space="preserve">
<style type="text/css">
	.st0{fill:#A453B9;}
	.st1{fill:#FFFFFF;}
	.st2{fill:#344845;}
	.st3{fill:#D13306;}
	.st4{fill:#004D93;}
	.st5{fill:#0081BE;}
	.st6{fill:#1167F1;}
	.st7{fill:#FFC400;}
	.st8{fill:#FF7A3D;}
	.st9{fill:#00A580;}
	.st10{fill:#53C3D0;}
	.st11{fill:#671C4C;}
	.st12{fill:#00E3C2;}
	.st13{fill:#BC2A46;}
	.st14{fill:#FF192E;}
	.st15{fill:#00B056;}
</style>
<g>
	<g>
		<path class="st9" d="M180,165H20c-11,0-20-9-20-20V20C0,9,9,0,20,0h160c11,0,20,9,20,20v125C200,156,191,165,180,165z"/>
		<path class="st1" d="M183.3210449,84.4208984c0.1101074-0.2642822,0.189209-0.5368652,0.2521973-0.8125    c0.0166016-0.0726318,0.0297852-0.1455078,0.0432129-0.2193604c0.1066895-0.5894775,0.1066895-1.1906738-0.0002441-1.7800293    c-0.0131836-0.0726318-0.0263672-0.1442871-0.0424805-0.2156982c-0.0629883-0.2773438-0.1425781-0.5511475-0.253418-0.8168945    c-0.0151367-0.0360107-0.0356445-0.0686035-0.0515137-0.104248c-0.0710449-0.15979-0.144043-0.3190918-0.232666-0.4726562    l-19.7666016-34.2368164c-0.0869141-0.1505127-0.1867676-0.2902832-0.2873535-0.4291992    c-0.0253906-0.0349121-0.0454102-0.0725098-0.0715332-0.1069336c-0.173584-0.2268066-0.3693848-0.4311523-0.5761719-0.6230469    c-0.0559082-0.0517578-0.1135254-0.1008301-0.1721191-0.1502686c-0.2268066-0.1917725-0.463623-0.3702393-0.7199707-0.5184326    c-0.0009766-0.0007324-0.0019531-0.0014648-0.0029297-0.0021973c-0.0009766-0.0004883-0.0019531-0.0007324-0.0026855-0.0012207    c-0.2563477-0.1477051-0.5290527-0.2637939-0.8083496-0.3642578c-0.0732422-0.0264893-0.145752-0.0522461-0.2197266-0.0750732    c-0.2680664-0.0826416-0.541748-0.1497803-0.8234863-0.1865234c-0.0473633-0.0062256-0.0942383-0.0046387-0.1413574-0.0093994    c-0.1669922-0.0169678-0.3344727-0.0334473-0.5043945-0.0334473h-39.5341797    c-0.1699219,0-0.3369141,0.0166016-0.5039062,0.0334473c-0.0478516,0.0048828-0.0949707,0.0031738-0.1425781,0.0095215    c-0.2814941,0.0366211-0.5544434,0.1036377-0.8220215,0.1861572c-0.0744629,0.0230713-0.1477051,0.0489502-0.2214355,0.0756836    c-0.2788086,0.1004639-0.5512695,0.2163086-0.8071289,0.3638916c-0.0009766,0.0004883-0.0019531,0.0007324-0.0029297,0.0012207    c-0.0009766,0.0007324-0.0019531,0.0014648-0.0029297,0.0021973c-0.2563477,0.1481934-0.4931641,0.3266602-0.7199707,0.5184326    c-0.0585938,0.0494385-0.1162109,0.0985107-0.1721191,0.1502686c-0.2067871,0.1918945-0.402832,0.3962402-0.5761719,0.623291    c-0.026123,0.0340576-0.0458984,0.0712891-0.0710449,0.105957c-0.1008301,0.1391602-0.2006836,0.2791748-0.2878418,0.4299316    L96.7519531,77.4995117H82.1503906l13.9931641-24.2368164h6.4951172c2.7617188,0,5-2.2387695,5-5s-2.2382812-5-5-5h-9.3818359    c-1.7861328,0-3.4365234,0.953125-4.3300781,2.5L70.6035156,77.4995117H56.0009766l13.9931641-24.2368164h6.4960938    c2.7617188,0,5-2.2387695,5-5s-2.2382812-5-5-5h-9.3828125c-1.7861328,0-3.4365234,0.953125-4.3300781,2.5L44.4541016,77.4995117    H29.8515625l13.9931641-24.2368164h6.4960938c2.7617188,0,5-2.2387695,5-5s-2.2382812-5-5-5h-9.3828125    c-1.7861328,0-3.4365234,0.953125-4.3300781,2.5L16.8613281,79.9995117    c-0.0876465,0.1518555-0.159668,0.3093262-0.2302246,0.4674072c-0.0168457,0.0377197-0.0383301,0.0721436-0.0541992,0.1103516    c-0.1105957,0.2650146-0.1901855,0.538208-0.2529297,0.8145752c-0.0163574,0.0721436-0.029541,0.1444092-0.0427246,0.2176514    c-0.1069336,0.5893555-0.1069336,1.1906738,0,1.7800293c0.0131836,0.0732422,0.0263672,0.1455078,0.0427246,0.2176514    c0.0627441,0.2763672,0.142334,0.5495605,0.2529297,0.8145752c0.0158691,0.038208,0.0373535,0.0726318,0.0541992,0.1103516    c0.0705566,0.1580811,0.1425781,0.3155518,0.2302246,0.4674072l19.7666016,34.2373047    c0.8935547,1.546875,2.5439453,2.5,4.3300781,2.5h9.3828125c2.7617188,0,5-2.2387695,5-5s-2.2382812-5-5-5h-6.4960938    L29.8515625,87.4995117h14.6025391l18.3232422,31.7373047c0.8935547,1.546875,2.5439453,2.5,4.3300781,2.5h9.3828125    c2.7617188,0,5-2.2387695,5-5s-2.2382812-5-5-5h-6.4960938L56.0009766,87.4995117h14.6025391l18.3232422,31.7373047    c0.8935547,1.546875,2.5439453,2.5,4.3300781,2.5h9.3818359c2.7617188,0,5-2.2387695,5-5s-2.2382812-5-5-5h-6.4951172    L82.1503906,87.4995117h14.6015625l18.3232422,31.7373047c0.0869141,0.1506348,0.1867676,0.2905273,0.2875977,0.4294434    c0.0251465,0.03479,0.045166,0.0722656,0.0712891,0.1065674c0.173584,0.2269287,0.3693848,0.4312744,0.5761719,0.6231689    c0.0559082,0.0517578,0.1137695,0.1008301,0.1723633,0.1503906c0.2265625,0.1917725,0.463623,0.3701172,0.7197266,0.5183105    c0.0009766,0.0007324,0.0019531,0.0014648,0.0029297,0.0021973c0.0205078,0.0119629,0.0424805,0.0195312,0.0632324,0.0311279    c0.1699219,0.0949707,0.34375,0.1832275,0.5239258,0.2579346c0.1520996,0.0632324,0.3076172,0.1108398,0.4628906,0.157959    c0.0510254,0.015625,0.0996094,0.0371094,0.151123,0.0510254c0.4272461,0.1152344,0.8620605,0.1728516,1.2939453,0.1728516    c0.005127,0,0.0100098-0.0009766,0.0151367-0.0009766h39.5136719c0.005127,0,0.0100098,0.0009766,0.0151367,0.0009766    c0.4318848,0,0.8666992-0.0576172,1.2939453-0.1728516c0.0515137-0.013916,0.1000977-0.0354004,0.151123-0.0510254    c0.1552734-0.0471191,0.310791-0.0947266,0.4628906-0.157959c0.1801758-0.074707,0.3540039-0.1629639,0.5239258-0.2579346    c0.020752-0.0115967,0.0427246-0.019165,0.0632324-0.0311279c0.0009766-0.0007324,0.0019531-0.0014648,0.0031738-0.0021973    c0.2556152-0.1479492,0.4921875-0.3260498,0.7185059-0.517334c0.0593262-0.0500488,0.1176758-0.0998535,0.1743164-0.1523438    c0.2060547-0.1911621,0.4013672-0.3950195,0.574707-0.6213379c0.0268555-0.0354004,0.0476074-0.0742188,0.0737305-0.1102295    c0.0998535-0.1380615,0.1992188-0.2769775,0.2856445-0.4266357l19.7666016-34.2373047    c0.0866699-0.1501465,0.1577148-0.3059082,0.2275391-0.4621582    C183.2814941,84.4975586,183.3041992,84.4611816,183.3210449,84.4208984z M158.9394531,106.7366943l-5.7734375-10.0002441    L158.4990234,87.5h11.5466309L158.9394531,106.7366943z M108.2990723,87.5h11.5476074l5.3330078,9.2363281l-5.7744141,10.0007324    L108.2990723,87.5z M119.4055176,58.2623291l5.7741699,10.0004883L119.8466797,77.5H108.298584L119.4055176,58.2623291z     M133.8398438,91.7363281L128.5068359,82.5l5.3330078-9.2373047h10.6660156L149.8388672,82.5l-5.3330078,9.2363281H133.8398438z     M144.5058594,63.2626953h-10.6660156l-5.7739258-10h22.2133789L144.5058594,63.2626953z M133.8398438,101.7363281h10.6660156    l5.7734375,10.0004883h-22.213623L133.8398438,101.7363281z M158.4990234,77.5l-5.3330078-9.2373047l5.7734375-10    L170.0461426,77.5H158.4990234z"/>
	</g>
	<g>
		<path class="st2" d="M249.971817,57.1935883h12.5243988v19.1240234h15.3740234V57.1935883h12.5244141v50.6230469h-12.5244141    V86.3674164h-15.3740234v21.4492188H249.971817V57.1935883z"/>
		<path class="st2" d="M312.0704346,57.1935883h12.6738281l17.0996094,50.6230469h-12.6748047l-3.1494141-9.5996094h-16.9492188    l-3.0751953,9.5996094h-10.9492188L312.0704346,57.1935883z M312.0704346,88.9172211h10.8740234l-3.4492188-10.6494141    c-1.2001953-3.5996094-1.7255859-8.6992188-1.7255859-8.6992188h-0.2998047c0,0-0.75,5.1748047-1.875,8.6240234    L312.0704346,88.9172211z"/>
		<path class="st2" d="M346.4952393,57.1935883h20.8486328c9.8994141,0,16.5742188,4.7998047,16.5742188,14.0996094    c0,7.5742188-5.1748047,12.1494141-10.1992188,13.7246094c1.5,1.2744141,2.625,3,3.5244141,4.7998047    c2.1005859,4.2744141,3.5253906,8.9990234,7.9501953,8.9990234c1.125,0,2.0244141-0.375,2.0244141-0.375l-0.9746094,8.9248047    c0,0-2.7001953,0.6748047-5.0244141,0.6748047c-6,0-9.4501953-2.3242188-12.9746094-10.3496094    c-1.5-3.5996094-3.6005859-9.8994141-6.375-9.8994141h-2.8496094v20.0244141h-12.5244141V57.1935883z M359.0196533,66.2687836    v12.4492188h4.5c3.5996094,0,7.7988281-1.125,7.7988281-6.5253906c0-4.4248047-2.8496094-5.9238281-6.2998047-5.9238281    H359.0196533z"/>
		<path class="st2" d="M386.3204346,57.1935883h12.9746094l9.5244141,28.5742188    c1.2001953,3.6748047,1.6503906,9.1494141,1.6503906,9.1494141h0.2998047c0,0,0.5253906-5.4746094,1.7246094-9.0742188    l9.375-28.6494141h11.3242188l-17.3242188,50.6230469h-12.1494141L386.3204346,57.1935883z"/>
		<path class="st2" d="M437.7706299,57.1935883h33.5234375v9.2998047h-20.9990234v10.8740234h17.6240234v9.2998047h-17.6240234    v11.8496094h21.7490234v9.2998047h-34.2734375V57.1935883z"/>
		<path class="st2" d="M486.9698486,91.1672211c-0.9003906,4.0498047,0.6748047,8.7001953,8.6240234,8.7001953    c5.25,0,7.0498047-2.1005859,7.0498047-4.875c0-4.2001953-4.1992188-5.25-9.1494141-7.0498047    c-7.4248047-2.5498047-16.5742188-6.1503906-16.5742188-16.7246094c0-9.4492188,7.2744141-15.2246094,19.6494141-14.9238281    c15.1494141,0.2998047,19.4238281,9.2246094,17.7744141,16.9492188l-11.4746094,1.0498047    c0.75-5.8496094-1.3505859-9.1494141-7.2753906-9.1494141c-3.9746094,0-6.2246094,1.5-6.2246094,4.6494141    c0,4.2001953,4.0498047,5.4746094,9,7.1992188c7.6494141,2.5507812,16.7246094,5.625,16.7246094,16.125    c0,9.0742188-6.75,15.5996094-19.9492188,15.5996094c-12.375,0-20.8496094-5.7001953-19.1240234-16.5L486.9698486,91.1672211z"/>
		<path class="st2" d="M518.1700439,57.1935883h40.4228516v9.2998047h-14.0986328v41.3232422h-12.5244141V66.4933929h-13.7998047    V57.1935883z"/>
		<path class="st2" d="M563.9190674,57.1935883h33.5234375v9.2998047h-20.9990234v10.8740234h17.6240234v9.2998047h-17.6240234    v11.8496094h21.7490234v9.2998047h-34.2734375V57.1935883z"/>
		<path class="st2" d="M604.7188721,57.1935883h20.8486328c9.8994141,0,16.5742188,4.7998047,16.5742188,14.0996094    c0,7.5742188-5.1748047,12.1494141-10.1992188,13.7246094c1.5,1.2744141,2.625,3,3.5244141,4.7998047    c2.1005859,4.2744141,3.5253906,8.9990234,7.9501953,8.9990234c1.125,0,2.0244141-0.375,2.0244141-0.375l-0.9746094,8.9248047    c0,0-2.7001953,0.6748047-5.0244141,0.6748047c-6,0-9.4501953-2.3242188-12.9746094-10.3496094    c-1.5-3.5996094-3.6005859-9.8994141-6.375-9.8994141h-2.8496094v20.0244141h-12.5244141V57.1935883z M617.2432861,66.2687836    v12.4492188h4.4990234c3.6005859,0,7.7998047-1.125,7.7998047-6.5253906c0-4.4248047-2.8496094-5.9238281-6.2998047-5.9238281    H617.2432861z"/>
	</g>
</g>
</svg>