<?xml version="1.0" encoding="utf-8"?>
<!-- Generator: Adobe Illustrator 23.0.3, SVG Export Plug-In . SVG Version: 6.00 Build 0)  -->
<svg version="1.1" id="Layer_1" xmlns="http://www.w3.org/2000/svg" xmlns:xlink="http://www.w3.org/1999/xlink" x="0px" y="0px"
	 viewBox="0 0 100 100" style="enable-background:new 0 0 100 100;" xml:space="preserve">
<style type="text/css">
	.st0{fill:#88BD42;}
</style>
<path class="st0" d="M41.7,60.4c-10.4,0-18.8-8.3-18.8-18.8s8.3-18.8,18.8-18.8s18.8,8.3,18.8,18.8C60.4,52.1,52.1,60.4,41.7,60.4z
	 M85.2,79.4L63.5,57.7c3.3-4.4,5.2-10,5.2-16c0-15-12.1-27.1-27.1-27.1S14.6,26.7,14.6,41.7s12.1,27.1,27.1,27.1
	c6,0,11.5-1.9,16-5.2l21.7,21.7c0.8,0.8,1.9,1.2,2.9,1.2s2.1-0.4,2.9-1.2C86.9,83.5,86.9,81,85.2,79.4L85.2,79.4z"/>
</svg>
