<svg enable-background="new 0 0 1370.5 236" viewBox="0 0 1370.5 236" xmlns="http://www.w3.org/2000/svg"><path d="m1370.5 236h-1370.5c183.6-137.6 440.4-223.2 724.6-223.2 245.6 0 470.7 63.9 645.9 170.1z" fill="#8dc63f"/><path d="m713.2 41.5c0 22.9 18.6 41.5 41.5 41.5s41.5-18.6 41.5-41.5-18.6-41.5-41.5-41.5c-23 0-41.5 18.6-41.5 41.5z" fill="#6ba939"/><path d="m713.2 41.5c0-22.9 18.6-41.5 41.5-41.5v82.9c-23 0-41.5-18.6-41.5-41.4z" fill="#5c9531"/><g fill="#594a41"><path d="m754.6 107.6c1.1 0 2.1-.9 2.1-2.1v-58.1c0-1.1-.9-2.1-2.1-2.1-1.1 0-2.1.9-2.1 2.1v58.1c.1 1.2 1 2.1 2.1 2.1z"/><path d="m754.6 70.7c.5 0 1.1-.2 1.5-.6.8-.8.8-2.1 0-2.9l-8.6-8.6c-.8-.8-2.1-.8-2.9 0s-.8 2.1 0 2.9l8.6 8.6c.4.4.9.6 1.4.6z"/><path d="m754.6 63.2c.5 0 1.1-.2 1.5-.6l11.5-11.5c.8-.8.8-2.1 0-2.9s-2.1-.8-2.9 0l-11.5 11.5c-.8.8-.8 2.1 0 2.9.4.3.9.6 1.4.6z"/></g><path d="m324.7 82.4c0-26 7.4-56.1 22.4-56.1s22.4 30.1 22.4 56.1c0 9.5-7.4 17.2-22.4 17.2-15.1 0-22.4-7.7-22.4-17.2z" fill="#dbe13a"/><path d="m324.7 82.4c0-26 7.4-56.1 22.4-56.1v73.3c-15.1 0-22.4-7.7-22.4-17.2z" fill="#bbd644"/><path d="m347.1 126.6c1.1 0 2.1-.9 2.1-2.1v-64.1c0-1.1-.9-2.1-2.1-2.1s-2.1.9-2.1 2.1v64.2c0 1.1.9 2 2.1 2z" fill="#594a41"/><path d="m347.1 85.9c.5 0 1.1-.2 1.5-.6l9.5-9.5c.8-.8.8-2.1 0-2.9s-2.1-.8-2.9 0l-9.5 9.5c-.8.8-.8 2.1 0 2.9.3.4.8.6 1.4.6z" fill="#594a41"/><path d="m347.1 77.6c.5 0 1.1-.2 1.5-.6.8-.8.8-2.1 0-2.9l-12.7-12.7c-.8-.8-2.1-.8-2.9 0s-.8 2.1 0 2.9l12.6 12.7c.4.4.9.6 1.5.6z" fill="#594a41"/></svg>