<svg enable-background="new 0 0 1397.6 422.2" viewBox="0 0 1397.6 422.2" xmlns="http://www.w3.org/2000/svg"><path d="m784.4 422.3h-171.2-613.2v100h613.2 171.2 613.2v-100z" fill="#bbd644"/><path d="m709.4 111.5c-3.5 0-7.1 0-10.6.1-3.5 0-7.1-.1-10.6-.1-301.4.1-562.3 126.6-688.2 310.7h613.2 171.2 613.2c-125.9-184.1-386.8-310.6-688.2-310.7z" fill="#bbd644"/><g fill="#abc53e"><circle cx="357.4" cy="440.8" r="16.3"/><circle cx="524.9" cy="310.4" r="16.3"/><circle cx="872.7" cy="506" r="16.3"/><ellipse cx="1040.2" cy="375.6" rx="16.3" ry="16.3" transform="matrix(.3827 -.9239 .9239 .3827 295.1238 1192.8838)"/><path d="m993.5 359.3h-136.4c-9 0-16.3-7.3-16.3-16.3s7.3-16.3 16.3-16.3h112.6c9 0 16.3-7.3 16.3-16.3s-7.3-16.3-16.3-16.3h-307.9-87.8c-9 0-16.3 7.3-16.3 16.3s7.3 16.3 16.3 16.3h53.9c9 0 16.3 7.3 16.3 16.3s-7.3 16.3-16.3 16.3h-199.9c-9 0-16.3 7.3-16.3 16.3s7.3 16.3 16.3 16.3h64.5c9 0 16.3 7.3 16.3 16.3s-7.3 16.3-16.3 16.3h-88.4c-9 0-16.3 7.3-16.3 16.3s7.3 16.3 16.3 16.3h136.4c9 0 16.3 7.3 16.3 16.3s-7.3 16.3-16.3 16.3h-112.6c-9 0-16.3 7.3-16.3 16.3s7.3 16.3 16.3 16.3h356.5 39.2c9 0 16.3-7.3 16.3-16.3s-7.3-16.3-16.3-16.3h-39.2v-32.6h185.2c9 0 16.3-7.3 16.3-16.3s-7.3-16.3-16.3-16.3h-64.5c-9 0-16.3-7.3-16.3-16.3s7.3-16.3 16.3-16.3h88.4c9 0 16.3-7.3 16.3-16.3s-7.3-16.3-16.3-16.3z"/></g><ellipse cx="267.7" cy="172.1" fill="#8dc63f" rx="60.7" ry="60.7"/><path d="m328.4 172.1c0-33.5-27.2-60.7-60.7-60.7v121.4c33.5 0 60.7-27.2 60.7-60.7z" fill="#6ba939"/><path d="m267.7 268c-1.1 0-2.1-.9-2.1-2.1v-85.1c0-1.1.9-2.1 2.1-2.1 1.1 0 2.1.9 2.1 2.1v85.1c0 1.1-1 2.1-2.1 2.1z" fill="#594a41"/><path d="m267.7 213.9c-.5 0-1.1-.2-1.5-.6-.8-.8-.8-2.1 0-2.9l12.6-12.6c.8-.8 2.1-.8 2.9 0s.8 2.1 0 2.9l-12.7 12.7c-.2.3-.8.5-1.3.5z" fill="#594a41"/><path d="m267.7 202.9c-.5 0-1.1-.2-1.5-.6l-16.8-16.8c-.8-.8-.8-2.1 0-2.9s2.1-.8 2.9 0l16.8 16.8c.8.8.8 2.1 0 2.9-.3.4-.9.6-1.4.6z" fill="#594a41"/><path d="m624 74.4c0-34.5-9.8-74.4-29.7-74.4s-29.7 39.9-29.7 74.4c0 12.6 9.8 22.9 29.7 22.9 19.9-.1 29.7-10.3 29.7-22.9z" fill="#bbd644"/><path d="m624 74.4c0-34.5-9.8-74.4-29.7-74.4v97.2c19.9 0 29.7-10.2 29.7-22.8z" fill="#abc53e"/><path d="m594.3 132.4c-1.1 0-2.1-.9-2.1-2.1v-85.1c0-1.1.9-2.1 2.1-2.1 1.1 0 2.1.9 2.1 2.1v85.1c0 1.2-.9 2.1-2.1 2.1z" fill="#594a41"/><path d="m594.3 78.4c-.5 0-1.1-.2-1.5-.6l-12.7-12.7c-.8-.8-.8-2.1 0-2.9s2.1-.8 2.9 0l12.7 12.7c.8.8.8 2.1 0 2.9-.3.4-.8.6-1.4.6z" fill="#594a41"/><path d="m594.3 67.3c-.5 0-1.1-.2-1.5-.6-.8-.8-.8-2.1 0-2.9l16.9-16.8c.8-.8 2.1-.8 2.9 0s.8 2.1 0 2.9l-16.8 16.8c-.4.4-.9.6-1.5.6z" fill="#594a41"/><path d="m738.5 266.2c0-47.2-14-125.6-31.3-125.6s-31.3 78.4-31.3 125.6c0 17.3 14 31.3 31.3 31.3s31.3-14 31.3-31.3z" fill="#dbe13a"/><path d="m738.5 266.2c0-47.2-14-125.6-31.3-125.6v156.9c17.3 0 31.3-14 31.3-31.3z" fill="#abc53e"/><path d="m707.2 332.7c-1.1 0-2.1-.9-2.1-2.1v-85.1c0-1.1.9-2.1 2.1-2.1 1.1 0 2.1.9 2.1 2.1v85.1c0 1.1-.9 2.1-2.1 2.1z" fill="#594a41"/><path d="m707.2 278.6c-.5 0-1.1-.2-1.5-.6l-12.7-12.7c-.8-.8-.8-2.1 0-2.9s2.1-.8 2.9 0l12.6 12.7c.8.8.8 2.1 0 2.9-.2.4-.7.6-1.3.6z" fill="#594a41"/><path d="m707.2 267.6c-.5 0-1.1-.2-1.5-.6-.8-.8-.8-2.1 0-2.9l16.8-16.8c.8-.8 2.1-.8 2.9 0s.8 2.1 0 2.9l-16.7 16.8c-.4.4-.9.6-1.5.6z" fill="#594a41"/></svg>